<svg width="32" height="32" viewBox="0 0 32 32" fill="none" xmlns="http://www.w3.org/2000/svg">
<path d="M30.9809 30.9809C29.6222 32.3397 27.4273 32.3397 26.0686 30.9809L16 20.9124L5.93141 30.9809C4.57267 32.3397 2.37779 32.3397 1.01905 30.9809C-0.339684 29.6222 -0.339684 27.4273 1.01905 26.0686L11.0876 16L1.01905 5.93141C-0.339684 4.57267 -0.339684 2.37779 1.01905 1.01905C2.37779 -0.339684 4.57267 -0.339684 5.93141 1.01905L16 11.0876L26.0686 1.01905C27.4273 -0.339684 29.6222 -0.339684 30.9809 1.01905C32.3397 2.37779 32.3397 4.57267 30.9809 5.93141L20.9124 16L30.9809 26.0686C32.3048 27.3925 32.3048 29.6222 30.9809 30.9809Z" fill="#A7A9B0"/>
</svg>
