<svg width="12" height="12" viewBox="0 0 12 12" fill="none" xmlns="http://www.w3.org/2000/svg">
<path d="M11.6179 11.6178C11.1083 12.1274 10.2852 12.1274 9.77572 11.6178L6 7.8421L2.22428 11.6178C1.71475 12.1274 0.891671 12.1274 0.382145 11.6178C-0.127382 11.1083 -0.127382 10.2852 0.382145 9.77569L4.15787 5.99997L0.382145 2.22425C-0.127382 1.71472 -0.127382 0.891641 0.382145 0.382114C0.891671 -0.127412 1.71475 -0.127412 2.22428 0.382114L6 4.15784L9.77572 0.382114C10.2852 -0.127412 11.1083 -0.127412 11.6179 0.382114C12.1274 0.891641 12.1274 1.71472 11.6179 2.22425L7.84213 5.99997L11.6179 9.77569C12.1143 10.2722 12.1143 11.1083 11.6179 11.6178Z" fill="#90949C"/>
</svg>
