<svg width="32" height="32" viewBox="0 0 32 32" fill="none" xmlns="http://www.w3.org/2000/svg">
<path d="M31.609 2.27878C31.8594 2.02844 32 1.68891 32 1.33488C32 0.980846 31.8594 0.641314 31.609 0.390976C31.3587 0.140638 31.0192 0 30.6651 0C30.3111 0 29.9716 0.140638 29.7212 0.390976L21.3328 8.78209V4.00126C21.3328 3.64768 21.1923 3.30858 20.9423 3.05855C20.6923 2.80853 20.3532 2.66807 19.9996 2.66807C19.646 2.66807 19.3069 2.80853 19.0569 3.05855C18.8068 3.30858 18.6664 3.64768 18.6664 4.00126V11.7338C18.6664 12.1581 18.8349 12.565 19.135 12.865C19.435 13.1651 19.8419 13.3336 20.2662 13.3336H27.9987C28.3523 13.3336 28.6914 13.1932 28.9414 12.9431C29.1915 12.6931 29.3319 12.354 29.3319 12.0004C29.3319 11.6468 29.1915 11.3077 28.9414 11.0577C28.6914 10.8077 28.3523 10.6672 27.9987 10.6672H23.2179L31.609 2.27878V2.27878ZM12.0004 29.3319C11.6468 29.3319 11.3077 29.1915 11.0577 28.9414C10.8077 28.6914 10.6672 28.3523 10.6672 27.9987V23.2179L2.27878 31.609C2.15482 31.733 2.00767 31.8313 1.84571 31.8984C1.68376 31.9655 1.51018 32 1.33488 32C1.15958 32 0.985997 31.9655 0.824042 31.8984C0.662087 31.8313 0.514931 31.733 0.390976 31.609C0.267021 31.4851 0.168695 31.3379 0.101612 31.176C0.0345277 31.014 0 30.8404 0 30.6651C0 30.4898 0.0345277 30.3162 0.101612 30.1543C0.168695 29.9923 0.267021 29.8452 0.390976 29.7212L8.78209 21.3328H4.00126C3.64768 21.3328 3.30858 21.1923 3.05855 20.9423C2.80853 20.6923 2.66807 20.3532 2.66807 19.9996C2.66807 19.646 2.80853 19.3069 3.05855 19.0569C3.30858 18.8068 3.64768 18.6664 4.00126 18.6664H11.7338C12.1581 18.6664 12.565 18.8349 12.865 19.135C13.1651 19.435 13.3336 19.8419 13.3336 20.2662V27.9987C13.3336 28.3523 13.1932 28.6914 12.9431 28.9414C12.6931 29.1915 12.354 29.3319 12.0004 29.3319Z" fill="#E9EAEB"/>
</svg>
