<svg width="32" height="32" viewBox="0 0 32 32" fill="none" xmlns="http://www.w3.org/2000/svg">
<path d="M16 32C24.8366 32 32 24.8366 32 16C32 7.16344 24.8366 0 16 0C7.16344 0 0 7.16344 0 16C0 24.8366 7.16344 32 16 32Z" fill="url(#paint0_linear_148_5302)"/>
<path d="M10.8306 17.1696L12.7288 22.4237C12.7288 22.4237 12.9662 22.9153 13.2203 22.9153C13.4744 22.9153 17.2543 18.983 17.2543 18.983L21.4576 10.8644L10.8983 15.8133L10.8306 17.1696Z" fill="#C8DAEA"/>
<path d="M13.3476 18.5171L12.9832 22.3899C12.9832 22.3899 12.8307 23.5766 14.0171 22.3899C15.2035 21.2032 16.3391 20.2882 16.3391 20.2882" fill="#A9C6D8"/>
<path d="M10.8648 17.3571L6.95998 16.0848C6.95998 16.0848 6.49332 15.8955 6.64358 15.4661C6.67452 15.3776 6.73691 15.3023 6.92358 15.1728C7.78878 14.5697 22.9377 9.12481 22.9377 9.12481C22.9377 9.12481 23.3654 8.98068 23.6177 9.07654C23.6801 9.09586 23.7363 9.13141 23.7804 9.17955C23.8246 9.2277 23.8552 9.2867 23.869 9.35054C23.8963 9.4633 23.9077 9.5793 23.9029 9.69521C23.9017 9.79548 23.8896 9.88841 23.8804 10.0341C23.7881 11.5228 21.027 22.6332 21.027 22.6332C21.027 22.6332 20.8618 23.2833 20.27 23.3056C20.1245 23.3103 19.9796 23.2857 19.8439 23.2332C19.7082 23.1807 19.5844 23.1014 19.48 23C18.3185 22.0009 14.3041 19.3031 13.417 18.7097C13.397 18.6961 13.3802 18.6783 13.3676 18.6576C13.3551 18.6369 13.3471 18.6138 13.3442 18.5897C13.3318 18.5272 13.3998 18.4497 13.3998 18.4497C13.3998 18.4497 20.39 12.2364 20.576 11.5841C20.5904 11.5336 20.536 11.5087 20.4629 11.5308C19.9986 11.7016 11.9504 16.7841 11.0621 17.3451C10.9982 17.3644 10.9306 17.3685 10.8648 17.3571Z" fill="white"/>
<defs>
<linearGradient id="paint0_linear_148_5302" x1="16" y1="32" x2="16" y2="0" gradientUnits="userSpaceOnUse">
<stop stop-color="#1D93D2"/>
<stop offset="1" stop-color="#38B0E3"/>
</linearGradient>
</defs>
</svg>
