<svg width="32" height="32" viewBox="0 0 32 32" fill="none" xmlns="http://www.w3.org/2000/svg">
<path d="M31.9627 14.6471C31.665 10.2267 29.4324 6.09857 25.8975 3.35865C22.3626 0.61872 17.7486 -0.513783 13.2835 0.216864C5.32063 1.56856 -0.521275 8.80196 0.0368693 16.766C0.297336 20.6019 1.93456 24.1455 4.68807 26.8489C3.98109 27.8718 3.34852 28.5294 1.67409 29.8446C1.33921 30.1003 1.19037 30.5022 1.302 30.904C1.37641 31.3059 1.67409 31.6347 2.04619 31.7443C2.60433 31.9269 3.42294 32 4.35318 32C6.32529 32 8.81833 31.5616 10.7532 30.5752C13.3207 31.452 16.0742 31.6712 18.7905 31.1963C26.7534 29.8081 32.5208 22.5381 31.9627 14.6471ZM8.55787 18.5561C7.10669 18.5561 5.9532 17.4236 5.9532 15.9988C5.9532 14.5741 7.10669 13.4416 8.55787 13.4416C10.009 13.4416 11.1625 14.5741 11.1625 15.9988C11.1625 17.4236 10.009 18.5561 8.55787 18.5561ZM15.9998 18.5561C14.5486 18.5561 13.3951 17.4236 13.3951 15.9988C13.3951 14.5741 14.5486 13.4416 15.9998 13.4416C17.451 13.4416 18.6045 14.5741 18.6045 15.9988C18.6045 17.4236 17.451 18.5561 15.9998 18.5561ZM23.4417 18.5561C21.9905 18.5561 20.837 17.4236 20.837 15.9988C20.837 14.5741 21.9905 13.4416 23.4417 13.4416C24.8929 13.4416 26.0464 14.5741 26.0464 15.9988C26.0464 17.4236 24.8929 18.5561 23.4417 18.5561Z" fill="#222939"/>
</svg>
