<svg width="32" height="32" viewBox="0 0 32 32" fill="none" xmlns="http://www.w3.org/2000/svg">
<path d="M32 13.494C32 6.33453 24.8227 0.509882 15.9998 0.509882C7.17822 0.509882 0 6.33453 0 13.494C0 19.9125 5.69215 25.2878 13.3811 26.3043C13.9022 26.4165 14.6113 26.6478 14.7907 27.0932C14.9521 27.4977 14.8963 28.1314 14.8423 28.54C14.8423 28.54 14.6546 29.669 14.6141 29.9095C14.5445 30.3141 14.2926 31.4916 15.9998 30.772C17.7077 30.0524 25.2144 25.3464 28.5712 21.4826H28.5705C30.8894 18.9399 32 16.3594 32 13.494Z" fill="#00B900"/>
<path d="M12.7492 10.0344H11.6269C11.4548 10.0344 11.3149 10.1739 11.3149 10.3454V17.3172C11.3149 17.4889 11.4548 17.6282 11.6269 17.6282H12.7492C12.9212 17.6282 13.0608 17.4889 13.0608 17.3172V10.3454C13.0608 10.1739 12.9212 10.0344 12.7492 10.0344Z" fill="white"/>
<path d="M20.4738 10.0344H19.3515C19.1794 10.0344 19.0398 10.1739 19.0398 10.3454V14.4873L15.845 10.1727C15.8377 10.1616 15.8294 10.1512 15.8208 10.1411L15.8186 10.1392C15.8125 10.1322 15.8064 10.1261 15.7999 10.1199C15.7981 10.1181 15.7963 10.1166 15.7941 10.1147C15.7889 10.1098 15.7834 10.1052 15.7775 10.1009C15.7751 10.0985 15.7723 10.0966 15.7696 10.0945C15.764 10.0908 15.7588 10.0868 15.7533 10.0834C15.7502 10.0813 15.7472 10.0794 15.7438 10.0779C15.7383 10.0745 15.7328 10.0712 15.7272 10.0684C15.7239 10.0669 15.7208 10.065 15.7174 10.0638C15.7116 10.061 15.7058 10.0583 15.6996 10.0561C15.696 10.0549 15.6929 10.0537 15.6895 10.0524C15.6834 10.0503 15.6772 10.0482 15.6708 10.0466C15.6674 10.0454 15.6638 10.0448 15.6601 10.0436C15.6539 10.0423 15.6481 10.0408 15.6423 10.0396C15.638 10.039 15.6334 10.0383 15.6291 10.038C15.6236 10.0368 15.618 10.0365 15.6125 10.0359C15.6073 10.0353 15.6021 10.0353 15.5966 10.035C15.5926 10.035 15.5895 10.0344 15.5855 10.0344H14.4635C14.2915 10.0344 14.1516 10.1739 14.1516 10.3454V17.3172C14.1516 17.4889 14.2915 17.6282 14.4635 17.6282H15.5855C15.7579 17.6282 15.8975 17.4889 15.8975 17.3172V13.1764L19.0963 17.4966C19.1184 17.5279 19.1457 17.5533 19.1754 17.5736C19.1763 17.5742 19.1776 17.5751 19.1785 17.576C19.1849 17.58 19.1914 17.584 19.1978 17.5877C19.2009 17.5895 19.2036 17.5908 19.2067 17.5923C19.2113 17.595 19.2165 17.5975 19.2214 17.5996C19.2266 17.6018 19.2312 17.6039 19.2368 17.6061C19.2398 17.6073 19.2429 17.6085 19.246 17.6095C19.2533 17.6122 19.2601 17.6144 19.2671 17.6165C19.2687 17.6165 19.2702 17.6171 19.2717 17.6174C19.2972 17.6242 19.3239 17.6282 19.3515 17.6282H20.4738C20.6461 17.6282 20.7854 17.4889 20.7854 17.3172V10.3454C20.7854 10.1739 20.6461 10.0344 20.4738 10.0344Z" fill="white"/>
<path d="M10.0438 15.8824H6.99433V10.3458C6.99433 10.1737 6.85478 10.0342 6.68301 10.0342H5.56041C5.38834 10.0342 5.24878 10.1737 5.24878 10.3458V17.3164V17.317C5.24878 17.4007 5.28221 17.4765 5.33589 17.5323C5.33712 17.5338 5.33834 17.5354 5.34018 17.5369C5.34172 17.5384 5.34325 17.5397 5.34478 17.5412C5.40091 17.5952 5.47637 17.6283 5.5601 17.6283H5.56041H10.0438C10.2158 17.6283 10.3548 17.4884 10.3548 17.3164V16.1941C10.3548 16.022 10.2158 15.8824 10.0438 15.8824Z" fill="white"/>
<path d="M26.6714 11.78C26.8435 11.78 26.9825 11.6408 26.9825 11.4684V10.3461C26.9825 10.174 26.8435 10.0342 26.6714 10.0342H22.1881H22.1875C22.1034 10.0342 22.0277 10.0679 21.9715 10.1222C21.9703 10.1234 21.9688 10.1243 21.9679 10.1256C21.966 10.1274 21.9645 10.1293 21.963 10.1311C21.9096 10.1869 21.8765 10.2624 21.8765 10.3458V10.3461V17.3167V17.317C21.8765 17.4007 21.9099 17.4765 21.9636 17.5323C21.9648 17.5338 21.9663 17.5357 21.9679 17.5369C21.9691 17.5384 21.9709 17.54 21.9725 17.5412C22.0283 17.5949 22.1041 17.6283 22.1875 17.6283H22.1881H26.6714C26.8435 17.6283 26.9825 17.4884 26.9825 17.3167V16.1941C26.9825 16.0223 26.8435 15.8824 26.6714 15.8824H23.6223V14.704H26.6714C26.8435 14.704 26.9825 14.5645 26.9825 14.3924V13.2701C26.9825 13.098 26.8435 12.9581 26.6714 12.9581H23.6223V11.78H26.6714Z" fill="white"/>
</svg>
