<svg width="32" height="32" viewBox="0 0 32 32" fill="none" xmlns="http://www.w3.org/2000/svg">
<path d="M0 31.6663L2.22699 23.5354C0.851182 21.1501 0.128516 18.4443 0.13184 15.6907C0.135467 7.03872 7.17632 0 15.8285 0C20.0271 0.00213333 23.968 1.63605 26.9318 4.60203C29.8957 7.568 31.5264 11.5104 31.5249 15.7033C31.5211 24.3546 24.4791 31.3946 15.8283 31.3946H15.8214C13.1947 31.3935 10.6135 30.7345 8.32085 29.4844L0 31.6663Z" fill="white"/>
<path d="M15.8331 2.65067C8.63668 2.65067 2.78431 8.50091 2.78175 15.6917C2.77821 18.1472 3.46967 20.5535 4.77621 22.6325L5.08661 23.126L3.76842 27.9384L8.70623 26.6436L9.18303 26.9261C11.1856 28.1146 13.4817 28.743 15.8232 28.7443H15.8282C23.019 28.7443 28.8714 22.8934 28.8741 15.7022C28.8796 13.9882 28.5449 12.2901 27.8896 10.7063C27.2343 9.12251 26.2714 7.68442 25.0565 6.47531C23.8484 5.25958 22.4111 4.29557 20.8279 3.63906C19.2447 2.98256 17.547 2.64661 15.8331 2.65067Z" fill="url(#paint0_linear_148_5307)"/>
<path fill-rule="evenodd" clip-rule="evenodd" d="M11.9054 9.13087C11.6115 8.47786 11.3021 8.46463 11.0229 8.45333L10.2711 8.44415C10.0096 8.44415 9.58459 8.54229 9.22534 8.93482C8.86609 9.32735 7.85254 10.276 7.85254 12.2056C7.85254 14.1352 9.25798 15.9998 9.45382 16.2618C9.64966 16.5237 12.167 20.6097 16.1536 22.1818C19.4664 23.4882 20.1405 23.2284 20.8599 23.1631C21.5793 23.0978 23.1803 22.2144 23.5069 21.2986C23.8336 20.3827 23.8338 19.5981 23.7358 19.434C23.6379 19.27 23.3764 19.1725 22.9838 18.9762C22.5913 18.7799 20.6634 17.8312 20.304 17.7003C19.9445 17.5693 19.6832 17.5042 19.4214 17.8967C19.1596 18.2893 18.4089 19.1723 18.18 19.434C17.9511 19.6958 17.7226 19.7286 17.3301 19.5326C16.9376 19.3365 15.6746 18.9222 14.1762 17.5861C13.0103 16.5466 12.2233 15.2627 11.9942 14.8704C11.7651 14.4781 11.9699 14.2656 12.1666 14.0702C12.3426 13.8944 12.5587 13.6122 12.7552 13.3832C12.9516 13.1543 13.0163 12.9907 13.1468 12.7294C13.2774 12.468 13.2123 12.2385 13.1142 12.0424C13.0161 11.8464 12.254 9.90677 11.9054 9.13109" fill="white"/>
<defs>
<linearGradient id="paint0_linear_148_5307" x1="15.5623" y1="4.21654" x2="15.6946" y2="26.5152" gradientUnits="userSpaceOnUse">
<stop stop-color="#57D163"/>
<stop offset="1" stop-color="#23B33A"/>
</linearGradient>
</defs>
</svg>
