<svg width="16" height="16" viewBox="0 0 16 16" fill="none" xmlns="http://www.w3.org/2000/svg">
<path fill-rule="evenodd" clip-rule="evenodd" d="M1.84 13.685H2.42V13.69C2.61891 13.69 2.80968 13.611 2.95033 13.4703C3.09098 13.3297 3.17 13.1389 3.17 12.94C3.17 12.7411 3.09098 12.5503 2.95033 12.4097C2.80968 12.269 2.61891 12.19 2.42 12.19H1.835C1.74217 12.19 1.65315 12.1531 1.58751 12.0875C1.52187 12.0218 1.485 11.9328 1.485 11.84V1.84C1.48629 1.74758 1.52358 1.6593 1.58894 1.59394C1.6543 1.52858 1.74258 1.49129 1.835 1.49H11.835C11.9269 1.49131 12.0147 1.52877 12.0793 1.59426C12.1438 1.65976 12.18 1.74803 12.18 1.84V2.235C12.18 2.43391 12.259 2.62468 12.3997 2.76533C12.5403 2.90598 12.7311 2.985 12.93 2.985C13.1289 2.985 13.3197 2.90598 13.4603 2.76533C13.601 2.62468 13.68 2.43391 13.68 2.235V1.84C13.68 1.352 13.4861 0.88399 13.1411 0.538923C12.796 0.193856 12.328 0 11.84 0H1.84C1.352 0 0.88399 0.193856 0.538923 0.538923C0.193856 0.88399 0 1.352 0 1.84V11.84C0 12.3285 0.193695 12.797 0.538619 13.1428C0.883542 13.4887 1.35154 13.6837 1.84 13.685ZM4.72506 3.81H15.0851C15.5904 3.81 16.0001 4.21966 16.0001 4.725V15.085C16.0001 15.5903 15.5904 16 15.0851 16H4.72506C4.21972 16 3.81006 15.5903 3.81006 15.085V4.725C3.81006 4.21966 4.21972 3.81 4.72506 3.81Z" fill="#222939"/>
</svg>
