<svg width="25" height="24" viewBox="0 0 25 24" fill="none" xmlns="http://www.w3.org/2000/svg">
<g clip-path="url(#clip0_148_7049)">
<path d="M20.6934 3.51307C16.0064 -1.1725 8.40837 -1.17138 3.72279 3.51565C-0.962788 8.20268 -0.961663 15.8007 3.72537 20.4862C8.4124 25.1718 16.0104 25.1707 20.6959 20.4837C22.9462 18.2327 24.2101 15.1799 24.2094 11.9971C24.2087 8.81473 22.944 5.76298 20.6934 3.51307ZM18.3829 16.7155C18.3824 16.716 18.3819 16.7166 18.3814 16.7171V16.7131L17.7733 17.3171C16.987 18.1134 15.8418 18.441 14.7533 18.1811C13.6567 17.8876 12.6142 17.4203 11.6653 16.7971C10.7838 16.2337 9.96687 15.5751 9.22934 14.8331C8.55073 14.1595 7.94107 13.4198 7.40932 12.6251C6.8277 11.77 6.36734 10.8385 6.04132 9.85709C5.66759 8.70415 5.97729 7.43904 6.84134 6.5891L7.55332 5.87712C7.75128 5.67828 8.07293 5.67757 8.27173 5.87553C8.27224 5.87604 8.27281 5.87656 8.27332 5.87712L10.5213 8.1251C10.7201 8.32306 10.7209 8.64471 10.5229 8.84351C10.5224 8.84403 10.5219 8.84454 10.5213 8.84511L9.20131 10.1651C8.82256 10.5397 8.77493 11.135 9.08932 11.5651C9.56674 12.2203 10.0951 12.8369 10.6693 13.4091C11.3096 14.0522 12.0056 14.6371 12.7493 15.1572C13.179 15.4569 13.7616 15.4063 14.1333 15.0372L15.4093 13.7412C15.6072 13.5423 15.9289 13.5416 16.1277 13.7396C16.1282 13.7401 16.1287 13.7406 16.1293 13.7412L18.3813 15.9972C18.5802 16.1951 18.5809 16.5167 18.3829 16.7155Z" fill="#CAAB72"/>
</g>
<defs>
<clipPath id="clip0_148_7049">
<rect width="24" height="24" fill="white" transform="translate(0.209717)"/>
</clipPath>
</defs>
</svg>
