<svg width="12" height="12" viewBox="0 0 12 12" fill="none" xmlns="http://www.w3.org/2000/svg">
<path d="M11.8548 0.854601C11.9486 0.760715 12.0014 0.633377 12.0014 0.500601C12.0014 0.367825 11.9486 0.240488 11.8548 0.146601C11.7609 0.0527143 11.6335 -3.05176e-05 11.5008 -3.05176e-05C11.368 -3.05176e-05 11.2406 0.0527143 11.1468 0.146601L8.00075 3.2936V1.5006C8.00075 1.36799 7.94808 1.24082 7.85431 1.14705C7.76054 1.05328 7.63336 1.0006 7.50075 1.0006C7.36814 1.0006 7.24097 1.05328 7.1472 1.14705C7.05343 1.24082 7.00075 1.36799 7.00075 1.5006V4.4006C7.00075 4.55973 7.06397 4.71234 7.17649 4.82487C7.28901 4.93739 7.44162 5.0006 7.60075 5.0006H10.5008C10.6334 5.0006 10.7605 4.94792 10.8543 4.85415C10.9481 4.76039 11.0008 4.63321 11.0008 4.5006C11.0008 4.36799 10.9481 4.24082 10.8543 4.14705C10.7605 4.05328 10.6334 4.0006 10.5008 4.0006H8.70775L11.8548 0.854601ZM4.50075 11.0006C4.36814 11.0006 4.24097 10.9479 4.1472 10.8542C4.05343 10.7604 4.00075 10.6332 4.00075 10.5006V8.7076L0.854754 11.8546C0.808266 11.9011 0.753076 11.938 0.692337 11.9631C0.631598 11.9883 0.566498 12.0012 0.500754 12.0012C0.43501 12.0012 0.36991 11.9883 0.30917 11.9631C0.248431 11.938 0.193241 11.9011 0.146754 11.8546C0.100266 11.8081 0.0633895 11.7529 0.0382304 11.6922C0.0130713 11.6314 0.00012207 11.5663 0.00012207 11.5006C0.00012207 11.4349 0.0130713 11.3698 0.0382304 11.309C0.0633895 11.2483 0.100266 11.1931 0.146754 11.1466L3.29375 8.0006H1.50075C1.36815 8.0006 1.24097 7.94792 1.1472 7.85415C1.05343 7.76039 1.00075 7.63321 1.00075 7.5006C1.00075 7.36799 1.05343 7.24082 1.1472 7.14705C1.24097 7.05328 1.36815 7.0006 1.50075 7.0006H4.40075C4.55988 7.0006 4.7125 7.06381 4.82502 7.17634C4.93754 7.28886 5.00075 7.44147 5.00075 7.6006V10.5006C5.00075 10.6332 4.94808 10.7604 4.85431 10.8542C4.76054 10.9479 4.63336 11.0006 4.50075 11.0006Z" fill="white"/>
</svg>
