<svg width="16" height="16" viewBox="0 0 16 16" fill="none" xmlns="http://www.w3.org/2000/svg">
<path d="M15.9814 7.32357C15.8325 5.11336 14.7162 3.04929 12.9488 1.67932C11.1813 0.30936 8.87432 -0.256891 6.64174 0.108432C2.66032 0.78428 -0.260637 4.40098 0.0184346 8.38301C0.148668 10.301 0.967279 12.0728 2.34403 13.4245C1.99054 13.9359 1.67426 14.2647 0.837046 14.9223C0.669603 15.0502 0.595183 15.2511 0.650998 15.452C0.688207 15.6529 0.837046 15.8173 1.02309 15.8721C1.30217 15.9635 1.71147 16 2.17659 16C3.16265 16 4.40917 15.7808 5.37662 15.2876C6.66035 15.726 8.0371 15.8356 9.39525 15.5981C13.3767 14.904 16.2604 11.2691 15.9814 7.32357ZM4.27893 9.27805C3.55335 9.27805 2.9766 8.7118 2.9766 7.99942C2.9766 7.28704 3.55335 6.72079 4.27893 6.72079C5.00452 6.72079 5.58127 7.28704 5.58127 7.99942C5.58127 8.7118 5.00452 9.27805 4.27893 9.27805ZM7.99989 9.27805C7.27431 9.27805 6.69756 8.7118 6.69756 7.99942C6.69756 7.28704 7.27431 6.72079 7.99989 6.72079C8.72548 6.72079 9.30223 7.28704 9.30223 7.99942C9.30223 8.7118 8.72548 9.27805 7.99989 9.27805ZM11.7209 9.27805C10.9953 9.27805 10.4185 8.7118 10.4185 7.99942C10.4185 7.28704 10.9953 6.72079 11.7209 6.72079C12.4464 6.72079 13.0232 7.28704 13.0232 7.99942C13.0232 8.7118 12.4464 9.27805 11.7209 9.27805Z" fill="#222939"/>
</svg>
