<svg width="25" height="18" viewBox="0 0 25 18" fill="none" xmlns="http://www.w3.org/2000/svg">
<path fill-rule="evenodd" clip-rule="evenodd" d="M12.2271 11.3816L23.4045 0.99257C23.1515 0.84739 22.8569 0.75 22.5412 0.75H1.9303C1.51916 0.75 1.14243 0.904034 0.849016 1.13896L12.2271 11.3816ZM24.2009 2.37195C24.1965 2.38459 24.192 2.39726 24.192 2.41011V15.5901C24.192 15.6109 24.1945 15.6315 24.1969 15.6521L24.1969 15.6521C24.2001 15.6792 24.2033 15.706 24.2009 15.7327L16.8857 9.141L24.2097 2.33174C24.2103 2.34519 24.2056 2.35855 24.2009 2.37195ZM12.7775 12.9644L15.7674 10.1888L23.3636 17.0311C23.1199 17.1621 22.8397 17.25 22.5408 17.25H1.92996C1.72872 17.25 1.53655 17.2018 1.35751 17.1397L8.72048 10.2918L11.7022 12.9727C11.8525 13.1079 12.0439 13.1753 12.2353 13.1753C12.4308 13.1753 12.6263 13.1048 12.7775 12.9644ZM0.209717 15.5899V2.66311L7.55506 9.2615L0.283436 16.018C0.245065 15.8813 0.209717 15.7383 0.209717 15.5899Z" fill="#CAAB72"/>
</svg>
