<svg width="25" height="24" viewBox="0 0 25 24" fill="none" xmlns="http://www.w3.org/2000/svg">
<g clip-path="url(#clip0_148_7091)">
<path d="M3.65039 0.815918H20.8069C21.7094 0.815918 22.575 1.1745 23.2131 1.81266C23.8513 2.45081 24.2098 3.31629 24.2098 4.21878V20.0636C24.2098 20.5101 24.1217 20.9522 23.9506 21.3646C23.7795 21.7771 23.5287 22.1518 23.2127 22.4671C22.8966 22.7825 22.5214 23.0326 22.1086 23.2028C21.6958 23.3729 21.2535 23.4599 20.8069 23.4589H3.65039C2.7492 23.4589 1.88481 23.1015 1.24687 22.4649C0.608931 21.8284 0.249544 20.9648 0.247559 20.0636V4.21878C0.247559 3.31629 0.60607 2.45081 1.24422 1.81266C1.88238 1.1745 2.7479 0.815918 3.65039 0.815918Z" fill="white"/>
<path d="M4.51975 20.6856C4.42232 20.6407 4.35486 20.5957 4.46729 20.4983C4.53684 20.4465 4.60942 20.399 4.68465 20.3559C5.38948 19.9528 5.98813 19.3875 6.43104 18.707C6.5209 18.6098 6.58949 18.4948 6.63244 18.3696C6.67538 18.2443 6.69173 18.1115 6.68045 17.9796C6.66916 17.8477 6.63049 17.7197 6.56689 17.6036C6.5033 17.4875 6.41618 17.3858 6.31111 17.3053C5.10769 16.1798 4.20346 14.7722 3.68005 13.2098C3.15663 11.6474 3.03049 9.97939 3.31302 8.35605C3.63832 6.42302 4.51849 4.62612 5.84641 3.18424C6.64634 2.29002 7.58531 1.53074 8.62713 0.935671C8.6871 0.935671 8.77704 0.890744 8.78453 0.793306C8.79203 0.695868 8.73207 0.793306 8.69459 0.793306C6.93321 0.793306 5.17184 0.793306 3.44794 0.793306C3.03059 0.79917 2.61848 0.887268 2.23515 1.05242C1.85183 1.21757 1.50478 1.45654 1.21385 1.75583C0.922916 2.05511 0.693787 2.40882 0.539551 2.79667C0.385314 3.18451 0.30899 3.59894 0.314937 4.01629C0.314937 9.47281 0.314937 14.9294 0.314937 20.3859C0.302535 21.201 0.609057 21.9886 1.16914 22.5809C1.72922 23.1731 2.49853 23.5232 3.31302 23.5564C4.74461 23.6163 6.1687 23.5564 7.60778 23.5564H15.3653C17.2466 23.5564 19.1129 23.5564 21.0167 23.5564C21.4311 23.5574 21.8416 23.4767 22.2249 23.319C22.6081 23.1614 22.9565 22.9297 23.2502 22.6374C23.5439 22.3451 23.7772 21.9977 23.9366 21.6152C24.0961 21.2328 24.1787 20.8226 24.1797 20.4082V17.3053C24.2014 17.2319 24.2014 17.1538 24.1797 17.0804C24.0823 17.0804 24.0523 17.1628 23.9998 17.2153C22.9811 18.2314 21.7845 19.0522 20.4696 19.6364C17.3728 21.0346 13.8527 21.1691 10.6583 20.0111C10.3691 19.9102 10.0568 19.8945 9.75891 19.9661C9.32419 20.0786 8.88947 20.2135 8.45474 20.3409C7.19803 20.7743 5.85208 20.8825 4.54224 20.6556L4.51975 20.6856ZM8.31233 11.8713L8.49971 11.6239C9.18178 10.7544 9.87134 9.88498 10.5534 9.00803C10.7674 8.76565 10.9442 8.49297 11.0781 8.19868C11.1125 8.12305 11.1303 8.04079 11.1301 7.95768C11.1298 7.87457 11.1117 7.79249 11.0768 7.71705C11.0419 7.64161 10.9912 7.57453 10.928 7.52052C10.8648 7.46651 10.7907 7.42687 10.7108 7.40414C10.5506 7.35631 10.3828 7.33847 10.2161 7.35162H7.4204C7.29165 7.35136 7.16332 7.3665 7.03815 7.39664C6.91478 7.42204 6.80396 7.48913 6.72438 7.58676C6.6448 7.68439 6.60134 7.80666 6.60134 7.93261C6.60134 8.05857 6.6448 8.18064 6.72438 8.27828C6.80396 8.37591 6.91478 8.443 7.03815 8.4684C7.16555 8.49978 7.29685 8.51244 7.4279 8.50591H9.12182C9.18927 8.50591 9.26423 8.46849 9.3092 8.55843L9.17428 8.74581C8.35731 9.76516 7.55532 10.7994 6.74583 11.8262C6.63568 11.9341 6.56147 12.0734 6.5333 12.225C6.50513 12.3765 6.52439 12.5331 6.58843 12.6733C6.65862 12.8075 6.7678 12.9171 6.90159 12.988C7.03538 13.059 7.18752 13.0878 7.33796 13.0706C7.5778 13.0706 7.82515 13.0706 8.08748 13.0706H10.6284C10.7204 13.082 10.8139 13.0711 10.901 13.0393C10.9881 13.0074 11.0664 12.9553 11.1293 12.8872C11.1923 12.8191 11.2382 12.737 11.2632 12.6477C11.2881 12.5583 11.2915 12.4643 11.2729 12.3734C11.2355 12.0436 11.0106 11.8713 10.5909 11.8638C9.84136 11.8638 9.09184 11.8638 8.34232 11.8638L8.31233 11.8713ZM14.376 9.12057C14.1032 8.85441 13.747 8.69046 13.3675 8.65633C12.9879 8.6222 12.6082 8.71996 12.2923 8.93319C11.9076 9.15562 11.5997 9.48985 11.4096 9.8915C11.2195 10.2932 11.1561 10.7432 11.228 11.1818C11.2354 11.6082 11.376 12.0217 11.63 12.3644C11.884 12.7071 12.2387 12.9617 12.6446 13.0929C12.9106 13.1943 13.1988 13.2229 13.4796 13.1754C13.7603 13.128 14.0232 13.0064 14.2411 12.8232C14.3685 12.7257 14.4059 12.7483 14.4959 12.8607C14.5819 12.9713 14.7015 13.0509 14.8368 13.0874C14.972 13.1239 15.1155 13.1154 15.2454 13.0631C15.3713 13.0233 15.4813 12.9444 15.5595 12.838C15.6377 12.7315 15.6799 12.603 15.6801 12.4709C15.6801 11.4216 15.6801 10.3798 15.6801 9.33046C15.6764 9.23458 15.6512 9.14073 15.6066 9.05579C15.5619 8.97086 15.4989 8.89696 15.422 8.8395C15.3452 8.78205 15.2565 8.74248 15.1624 8.72367C15.0683 8.70486 14.9712 8.7073 14.8781 8.73081C14.6777 8.7842 14.5058 8.91313 14.3985 9.09056L14.376 9.12057ZM18.0037 11.0617C17.9964 11.3701 18.0562 11.6765 18.1791 11.9595C18.3019 12.2425 18.4848 12.4954 18.7151 12.7007C18.9453 12.9061 19.2175 13.059 19.5127 13.1487C19.8079 13.2384 20.119 13.2629 20.4246 13.2204C20.8641 13.1863 21.284 13.0237 21.6318 12.7529C21.9797 12.4821 22.2403 12.1151 22.3813 11.6974C22.5222 11.2797 22.5372 10.8297 22.4245 10.4035C22.3117 9.97731 22.0762 9.59366 21.7471 9.30027C21.4181 9.00687 21.01 8.81666 20.5738 8.75331C20.1375 8.68997 19.6922 8.75628 19.2933 8.94399C18.8944 9.13169 18.5595 9.43244 18.3302 9.80898C18.1009 10.1855 17.9873 10.6212 18.0037 11.0617ZM17.5389 10.02C17.5389 9.20298 17.5389 8.38598 17.5389 7.56151C17.548 7.47198 17.5373 7.38147 17.5076 7.29654C17.4778 7.21161 17.4298 7.13434 17.3669 7.07C17.304 7.00566 17.2277 6.95597 17.1435 6.92434C17.0592 6.89271 16.9691 6.87997 16.8794 6.88701C16.7919 6.88486 16.7049 6.90072 16.6238 6.93367C16.5427 6.96663 16.4693 7.01583 16.4081 7.07842C16.3469 7.14101 16.2993 7.21564 16.2682 7.29746C16.2371 7.37927 16.2231 7.46658 16.2273 7.55401C16.2273 7.80135 16.2273 8.0412 16.2273 8.30353V12.4634C16.2225 12.6108 16.265 12.7557 16.3486 12.8771C16.4323 12.9986 16.5526 13.0899 16.692 13.1379C16.7776 13.1616 16.8671 13.168 16.9553 13.1566C17.0434 13.1452 17.1283 13.1162 17.2051 13.0715C17.2819 13.0268 17.349 12.9673 17.4025 12.8964C17.456 12.8254 17.4947 12.7444 17.5165 12.6583C17.5243 12.5961 17.5243 12.5331 17.5165 12.4709C17.5165 11.6539 17.5165 10.8445 17.5165 10.035L17.5389 10.02Z" fill="#FDFEFE"/>
<path d="M7.49533 23.579C6.06374 23.579 4.63216 23.624 3.20806 23.579C2.39422 23.544 1.62602 23.1934 1.06633 22.6015C0.50664 22.0096 0.199481 21.2229 0.209977 20.4084C0.209977 14.9518 0.209977 9.49294 0.209977 4.03142C0.203974 3.18716 0.532593 2.37483 1.12395 1.77225C1.7153 1.16966 2.52124 0.825835 3.36546 0.815947C5.11935 0.770975 6.88072 0.815947 8.61212 0.815947C8.64959 0.815947 8.68707 0.815983 8.70206 0.853459C8.71705 0.890935 8.59713 0.958349 8.54466 0.995825C7.50284 1.5909 6.56386 2.35018 5.76393 3.24439C4.43601 4.68627 3.55585 6.48299 3.23055 8.41602C2.97125 10.0368 3.11682 11.6967 3.65429 13.2477C4.19177 14.7986 5.10446 16.1926 6.31109 17.3054C6.41453 17.3849 6.50067 17.4846 6.56424 17.5986C6.62781 17.7125 6.66748 17.8382 6.68081 17.968C6.69413 18.0978 6.68085 18.2289 6.64177 18.3534C6.60268 18.4779 6.53862 18.5932 6.45349 18.6921C6.00836 19.3688 5.41007 19.9311 4.70711 20.3335L4.48225 20.4759C4.37732 20.5733 4.48225 20.6183 4.53472 20.6633C4.55683 20.709 4.58452 20.7517 4.61717 20.7906C5.21678 21.3228 5.78642 21.8926 6.37854 22.4397C6.65587 22.6946 6.93319 22.9642 7.19552 23.2266C7.28546 23.354 7.46535 23.3916 7.49533 23.579Z" fill="#0180C7"/>
<path d="M7.4953 23.5789C7.4953 23.3916 7.28544 23.3614 7.17301 23.249C6.91068 22.9792 6.63335 22.7169 6.35603 22.4995C5.76391 21.9598 5.19427 21.3902 4.59465 20.8506C4.56037 20.8129 4.53252 20.7699 4.51221 20.7232C5.82409 20.9486 7.17147 20.8429 8.43221 20.4158C8.86693 20.2809 9.30165 20.1535 9.73637 20.041C10.0337 19.9635 10.3477 19.9792 10.6358 20.0861C13.8308 21.24 17.3494 21.1056 20.447 19.7113C21.762 19.1271 22.9586 18.3065 23.9773 17.2903C24.0298 17.2379 24.0597 17.163 24.1572 17.1555C24.1799 17.2313 24.1799 17.3121 24.1572 17.3879V20.4458C24.1612 21.2841 23.833 22.0899 23.2445 22.6869C22.6559 23.2838 21.8549 23.6234 21.0167 23.6313C19.1279 23.6313 17.2691 23.6313 15.3653 23.6313H7.8101C7.7053 23.6239 7.60011 23.6239 7.4953 23.6313V23.5789Z" fill="#0172B1"/>
<path d="M8.31242 11.8713C9.09941 11.8713 9.81146 11.8713 10.561 11.8713C10.9732 11.8713 11.1981 12.0512 11.2356 12.3809C11.2541 12.4718 11.2507 12.5659 11.2258 12.6552C11.2008 12.7446 11.1549 12.8267 11.092 12.8948C11.029 12.9629 10.9507 13.015 10.8636 13.0468C10.7765 13.0787 10.683 13.0895 10.591 13.0781H8.08006C7.83272 13.0781 7.59287 13.0781 7.33054 13.0781C7.18459 13.0824 7.04058 13.0439 6.91619 12.9674C6.7918 12.891 6.69246 12.7797 6.63036 12.6476C6.56826 12.5154 6.54612 12.368 6.56665 12.2234C6.58718 12.0788 6.64948 11.9434 6.74592 11.8338C7.5479 10.807 8.35739 9.77273 9.16687 8.75338L9.30928 8.566C9.25681 8.47605 9.18186 8.52097 9.1219 8.51348H7.43548C7.30719 8.51253 7.17925 8.49995 7.05322 8.47597C6.93359 8.44737 6.82709 8.37928 6.7509 8.28273C6.67471 8.18618 6.63327 8.06683 6.63327 7.94383C6.63327 7.82084 6.67471 7.70149 6.7509 7.60494C6.82709 7.50839 6.93359 7.4403 7.05322 7.4117C7.1799 7.37538 7.3112 7.35765 7.44297 7.35919H10.2387C10.4055 7.35688 10.5719 7.37711 10.7334 7.41921C10.8133 7.44194 10.8874 7.48157 10.9506 7.53559C11.0137 7.5896 11.0645 7.65668 11.0994 7.73212C11.1342 7.80756 11.1524 7.88964 11.1526 7.97275C11.1528 8.05586 11.1351 8.13812 11.1006 8.21374C10.9604 8.50453 10.7841 8.77637 10.576 9.0231L8.52228 11.6314C8.46232 11.6989 8.40985 11.7664 8.32741 11.8788L8.31242 11.8713Z" fill="#0180C7"/>
<path d="M14.376 9.12061C14.4269 9.03304 14.4949 8.95663 14.5761 8.89608C14.6572 8.83554 14.7498 8.79214 14.8482 8.76836C14.9414 8.74182 15.0395 8.73706 15.1348 8.75463C15.2301 8.7722 15.32 8.81152 15.3976 8.86955C15.4753 8.92757 15.5384 9.0027 15.5822 9.08914C15.626 9.17557 15.6493 9.27093 15.6502 9.36783C15.6502 10.4097 15.6502 11.4591 15.6502 12.5085C15.6512 12.6389 15.6102 12.766 15.5333 12.8713C15.4564 12.9766 15.3475 13.0543 15.223 13.0929C15.0934 13.1478 14.9492 13.1578 14.8133 13.1211C14.6775 13.0844 14.5578 13.0034 14.4735 12.8907C14.3835 12.7858 14.346 12.7633 14.2186 12.8907C14.0019 13.0733 13.7403 13.1946 13.4609 13.2421C13.1815 13.2895 12.8945 13.2613 12.6296 13.1605C12.223 13.0272 11.8676 12.7712 11.6125 12.4276C11.3575 12.0839 11.2153 11.6695 11.2056 11.2416C11.1322 10.8022 11.1957 10.3508 11.3874 9.94863C11.5791 9.54644 11.8898 9.21283 12.2774 8.99307C12.5919 8.7775 12.9715 8.67773 13.3514 8.71053C13.7313 8.74333 14.0881 8.90666 14.361 9.17294L14.376 9.12061ZM12.5247 11.0317C12.535 11.2582 12.6105 11.4769 12.7421 11.6614C12.8804 11.8426 13.0845 11.9622 13.3102 11.9944C13.5359 12.0267 13.7652 11.969 13.9488 11.8338C14.0135 11.7841 14.0715 11.7261 14.1212 11.6614C14.264 11.4472 14.3401 11.1955 14.3401 10.9381C14.3401 10.6806 14.264 10.4291 14.1212 10.2149C14.0494 10.1162 13.9561 10.0352 13.8483 9.97809C13.7405 9.92095 13.621 9.88916 13.4991 9.88514C12.922 9.84766 12.5172 10.2897 12.5247 11.0317ZM18.0037 11.0317C17.9875 10.5915 18.101 10.1564 18.3301 9.7801C18.5591 9.40382 18.8936 9.10311 19.2921 8.9153C19.6906 8.72749 20.1354 8.66089 20.5714 8.72371C21.0074 8.78653 21.4154 8.97599 21.7446 9.26865C22.0739 9.56131 22.3099 9.94424 22.4234 10.3699C22.5369 10.7955 22.5229 11.2451 22.3831 11.6629C22.2433 12.0806 21.9839 12.4481 21.637 12.7196C21.2902 12.9912 20.8712 13.1549 20.4322 13.1905C20.1262 13.2328 19.8148 13.2082 19.5192 13.1185C19.2237 13.0289 18.9511 12.8761 18.7203 12.671C18.4894 12.4658 18.3058 12.213 18.1821 11.93C18.0584 11.647 17.9975 11.3405 18.0037 11.0317ZM19.3154 10.9044C19.2995 11.1729 19.3791 11.4384 19.5402 11.6539C19.6079 11.7439 19.6929 11.8195 19.7902 11.8762C19.8875 11.933 19.9951 11.9697 20.1068 11.9844C20.2185 11.999 20.3319 11.9914 20.4406 11.9617C20.5492 11.932 20.6508 11.8808 20.7395 11.8113C20.7955 11.7652 20.8481 11.7151 20.8969 11.6614C21.0438 11.446 21.1224 11.1915 21.1224 10.9307C21.1224 10.67 21.0438 10.4153 20.8969 10.1999C20.8259 10.1004 20.7327 10.0187 20.6248 9.96144C20.5168 9.9042 20.3969 9.87302 20.2748 9.87013C20.138 9.86425 20.0016 9.88855 19.8754 9.9415C19.7491 9.99444 19.6361 10.0746 19.5445 10.1763C19.4528 10.278 19.3848 10.3988 19.3451 10.5298C19.3055 10.6608 19.2954 10.799 19.3154 10.9344V10.9044ZM17.554 10.02C17.554 10.8295 17.554 11.639 17.554 12.4559C17.5561 12.6343 17.4882 12.8063 17.3649 12.9352C17.2416 13.0641 17.0727 13.1396 16.8944 13.1454C16.8322 13.1528 16.7693 13.1528 16.707 13.1454C16.567 13.0985 16.4459 13.0074 16.3621 12.8858C16.2783 12.7641 16.2363 12.6185 16.2423 12.471V8.31107C16.2423 8.06373 16.2423 7.82388 16.2423 7.56155C16.2325 7.46953 16.2421 7.3764 16.2706 7.28834C16.299 7.20029 16.3457 7.11929 16.4076 7.05046C16.4694 6.98163 16.5451 6.92656 16.6296 6.88888C16.7141 6.8512 16.8056 6.83179 16.8982 6.83179C16.9907 6.83179 17.0822 6.8512 17.1667 6.88888C17.2513 6.92656 17.3269 6.98163 17.3888 7.05046C17.4506 7.11929 17.4973 7.20029 17.5258 7.28834C17.5542 7.3764 17.5639 7.46953 17.554 7.56155C17.554 8.38602 17.554 9.20302 17.554 10.02Z" fill="#0180C7"/>
<path d="M12.5247 11.0318C12.5247 10.2823 12.9219 9.8477 13.4915 9.87768C13.6139 9.88366 13.7333 9.91701 13.841 9.97539C13.9487 10.0338 14.0419 10.1157 14.1136 10.2149C14.2564 10.4291 14.3326 10.6807 14.3326 10.9381C14.3326 11.1955 14.2564 11.4472 14.1136 11.6615C14.0464 11.7518 13.962 11.8279 13.8652 11.8854C13.7685 11.943 13.6613 11.981 13.5499 11.9971C13.4384 12.0131 13.3249 12.0067 13.2159 11.9788C13.1068 11.9508 13.0044 11.9015 12.9144 11.8338C12.8479 11.7862 12.7897 11.7279 12.742 11.6615C12.6104 11.4769 12.535 11.2582 12.5247 11.0318ZM19.3153 10.9344C19.2991 10.8004 19.312 10.6645 19.3531 10.5359C19.3943 10.4073 19.4628 10.289 19.5539 10.1893C19.6451 10.0896 19.7566 10.0109 19.881 9.95837C20.0055 9.90586 20.1397 9.88095 20.2747 9.88518C20.3969 9.88807 20.5167 9.91925 20.6247 9.97649C20.7327 10.0337 20.8258 10.1154 20.8968 10.2149C21.0438 10.4303 21.1224 10.6849 21.1224 10.9456C21.1224 11.2063 21.0438 11.4611 20.8968 11.6765C20.7539 11.8552 20.5463 11.9704 20.319 11.9971C20.0916 12.0237 19.863 11.9597 19.6826 11.8188C19.626 11.7784 19.5777 11.7275 19.5402 11.669C19.3857 11.4559 19.3066 11.1975 19.3153 10.9344Z" fill="#FDFEFE"/>
</g>
<defs>
<clipPath id="clip0_148_7091">
<rect width="24.75" height="24" fill="white" transform="translate(0.209717)"/>
</clipPath>
</defs>
</svg>
