<svg width="25" height="24" viewBox="0 0 25 24" fill="none" xmlns="http://www.w3.org/2000/svg">
<g clip-path="url(#clip0_148_7084)">
<path d="M21.0147 2.33998C20.4222 1.78498 18.0147 0.0374964 12.6447 0.0149964C12.6447 0.0149964 6.31466 -0.367519 3.22466 2.45998C1.50716 4.18498 0.907157 6.69749 0.839657 9.81C0.772157 12.9225 0.697161 18.7725 6.32216 20.355V22.77C6.32216 22.77 6.32216 23.7525 6.92966 23.9475C7.67966 24.195 8.16716 23.445 8.90966 22.65C9.31466 22.2075 9.87716 21.5625 10.3047 21.0675C12.6998 21.2864 15.1147 21.1091 17.4522 20.5425C18.2022 20.2875 22.6347 19.725 23.3472 13.8825C24.0972 7.85999 22.9722 4.05748 21.0147 2.33998Z" fill="white"/>
<path d="M19.7622 3.55501C19.2597 3.09751 17.0847 1.72499 12.5472 1.70999C12.5472 1.70999 7.16971 1.35751 4.55221 3.72001C3.10471 5.15251 2.61721 7.29 2.55721 9.8925C2.49721 12.495 2.22721 17.4675 6.98971 18.7875C6.98971 18.7875 6.98971 22.4775 6.98971 22.8075C6.98971 23.1375 6.98971 23.19 7.15471 23.22C7.22064 23.2269 7.28725 23.2175 7.34871 23.1927C7.41018 23.1678 7.4646 23.1283 7.5072 23.0775C8.2572 22.3275 10.7097 19.3725 10.7097 19.3725C12.7745 19.5148 14.8489 19.3377 16.8597 18.8475C17.5197 18.6375 21.0897 18.33 21.6897 13.4475C22.2972 8.44501 21.4722 4.98751 19.7622 3.55501Z" fill="#7360F2"/>
<path d="M14.8497 9.98251C14.772 9.9807 14.6978 9.94955 14.6421 9.89528C14.5865 9.84101 14.5534 9.76767 14.5497 9.69002C14.569 9.48406 14.5442 9.27634 14.4769 9.08074C14.4096 8.88513 14.3013 8.70613 14.1594 8.55566C14.0174 8.40519 13.845 8.28672 13.6537 8.20815C13.4623 8.12958 13.2564 8.09272 13.0497 8.10002C13.0103 8.0981 12.9716 8.08841 12.9359 8.07153C12.9003 8.05465 12.8683 8.03091 12.8418 8.00165C12.8153 7.97239 12.7949 7.93818 12.7817 7.90101C12.7684 7.86384 12.7627 7.82442 12.7647 7.78501C12.7666 7.74493 12.7765 7.70564 12.7938 7.66945C12.8112 7.63326 12.8356 7.60092 12.8657 7.57435C12.8958 7.54778 12.9309 7.52749 12.9689 7.51473C13.0069 7.50196 13.0472 7.49696 13.0872 7.50001C13.3708 7.49001 13.6533 7.53953 13.9167 7.64535C14.18 7.75117 14.4182 7.91097 14.616 8.11444C14.8139 8.31792 14.9669 8.56057 15.0653 8.82677C15.1636 9.09296 15.2052 9.3768 15.1872 9.66001C15.1892 9.70041 15.1832 9.74081 15.1696 9.77889C15.156 9.81698 15.135 9.85198 15.1078 9.88194C15.0807 9.91189 15.0478 9.93621 15.0113 9.95346C14.9747 9.97072 14.9351 9.98059 14.8947 9.98251H14.8497Z" fill="white"/>
<path d="M16.4097 10.5C16.3703 10.499 16.3315 10.4903 16.2955 10.4743C16.2594 10.4583 16.2269 10.4354 16.1998 10.4069C16.1726 10.3783 16.1513 10.3447 16.1372 10.3079C16.123 10.2711 16.1162 10.2319 16.1172 10.1925C16.1436 9.72499 16.077 9.25691 15.9212 8.81533C15.7654 8.37376 15.5236 7.96746 15.2097 7.62C14.5127 6.90383 13.5614 6.49149 12.5622 6.4725C12.5228 6.46965 12.4843 6.45905 12.449 6.44128C12.4137 6.42351 12.3822 6.39892 12.3564 6.36895C12.3306 6.33898 12.311 6.30422 12.2987 6.26664C12.2864 6.22907 12.2816 6.18942 12.2847 6.15C12.2905 6.06975 12.3275 5.99496 12.3878 5.94168C12.4481 5.88839 12.5269 5.86087 12.6072 5.865C13.76 5.89805 14.8537 6.3829 15.6522 7.21499C16.0203 7.61943 16.3045 8.0928 16.4886 8.60771C16.6727 9.12263 16.7529 9.66889 16.7247 10.215C16.719 10.2939 16.683 10.3676 16.6243 10.4206C16.5657 10.4737 16.4888 10.5021 16.4097 10.5Z" fill="white"/>
<path d="M18.0072 11.1225C17.9672 11.1235 17.9273 11.1165 17.8901 11.1019C17.8528 11.0873 17.8188 11.0653 17.7902 11.0374C17.7615 11.0094 17.7388 10.976 17.7232 10.9391C17.7077 10.9022 17.6997 10.8626 17.6997 10.8225C17.7357 10.0279 17.6092 9.23436 17.3281 8.4903C17.047 7.74623 16.6171 7.0673 16.0647 6.49502C15.5326 5.97538 14.9025 5.56659 14.2111 5.29236C13.5198 5.01813 12.7808 4.88391 12.0372 4.89752C11.9576 4.89752 11.8813 4.86591 11.8251 4.80965C11.7688 4.75339 11.7372 4.67709 11.7372 4.59752C11.7372 4.51597 11.7696 4.43775 11.8272 4.38008C11.8849 4.32242 11.9631 4.29002 12.0447 4.29002C12.8662 4.27656 13.6822 4.42605 14.4456 4.72986C15.209 5.03367 15.9046 5.48578 16.4922 6.06003C17.1038 6.68791 17.5804 7.43438 17.8925 8.25345C18.2047 9.07252 18.3458 9.94685 18.3072 10.8225C18.3072 10.9021 18.2756 10.9784 18.2193 11.0347C18.1631 11.0909 18.0867 11.1225 18.0072 11.1225Z" fill="white"/>
<path d="M13.0947 13.74C13.2161 13.7495 13.3382 13.7323 13.4522 13.6896C13.5662 13.6468 13.6695 13.5795 13.7547 13.4925L14.2047 12.93C14.3594 12.7603 14.5686 12.6501 14.796 12.6186C15.0234 12.5871 15.2547 12.6363 15.4497 12.7575C15.8322 12.975 16.1997 13.215 16.5672 13.47C16.9347 13.725 17.5947 14.295 17.6022 14.295C17.7638 14.4286 17.8713 14.6165 17.9044 14.8236C17.9375 15.0306 17.8941 15.2426 17.7822 15.42C17.5339 15.8508 17.2173 16.2383 16.8447 16.5675C16.5809 16.8087 16.2525 16.9677 15.8997 17.025C15.855 17.0324 15.8094 17.0324 15.7647 17.025C15.6273 17.0282 15.4903 17.0079 15.3597 16.965C14.4533 16.6522 13.5813 16.2476 12.7572 15.7575C11.9892 15.342 11.2589 14.8601 10.5747 14.3175C10.23 14.0476 9.90186 13.7571 9.59221 13.4475V13.41H9.55471C9.24701 13.0986 8.95657 12.7706 8.68471 12.4275C8.13978 11.7407 7.65547 11.008 7.23721 10.2375C6.74549 9.41532 6.3432 8.54285 6.03721 7.63502C5.99298 7.50455 5.97018 7.36777 5.96971 7.23001C5.96599 7.18509 5.96599 7.13994 5.96971 7.09502C6.03188 6.74005 6.19306 6.40985 6.43471 6.1425C6.76887 5.77419 7.15858 5.46041 7.58971 5.21251C7.7659 5.10114 7.97672 5.05797 8.18251 5.09111C8.3883 5.12426 8.5749 5.23144 8.70721 5.3925C8.70721 5.3925 9.29221 6.08251 9.53971 6.42751C9.78721 6.77251 10.0272 7.17752 10.2447 7.53752C10.368 7.7332 10.4182 7.96608 10.3867 8.19519C10.3551 8.42429 10.2438 8.63492 10.0722 8.79L9.50971 9.2325C9.42269 9.31771 9.35543 9.42098 9.31266 9.53501C9.2699 9.64905 9.25267 9.77109 9.26221 9.89251C9.54469 10.7947 10.0405 11.6154 10.7077 12.2852C11.3748 12.955 12.1937 13.454 13.0947 13.74Z" fill="white"/>
</g>
<defs>
<clipPath id="clip0_148_7084">
<rect width="24" height="24" fill="white" transform="translate(0.209717)"/>
</clipPath>
</defs>
</svg>
