<svg width="12" height="12" viewBox="0 0 12 12" fill="none" xmlns="http://www.w3.org/2000/svg">
    <g clip-path="url(#a)">
        <path d="M6 0a6 6 0 1 0 0 12A6 6 0 0 0 6 0zm0 1.794a1.985 1.985 0 1 1 0 3.97 1.985 1.985 0 0 1 0-3.97zM6 10.431a4.404 4.404 0 0 1-2.868-1.057.846.846 0 0 1-.296-.643c0-1.111.9-2 2.01-2h2.31c1.112 0 2.008.889 2.008 2a.844.844 0 0 1-.296.643 4.402 4.402 0 0 1-2.868 1.057z" fill="#90949C"/>
    </g>
    <defs>
        <clipPath id="a">
            <path fill="#fff" d="M0 0h12v12H0z"/>
        </clipPath>
    </defs>
</svg>
