<svg width="32" height="32" viewBox="0 0 32 32" fill="none" xmlns="http://www.w3.org/2000/svg">
<g clip-path="url(#clip0_64_6357)">
<path d="M11.927 26.7025C12.564 26.0389 12.564 24.967 11.927 24.3034L5.58989 17.7017L30.3667 17.7017C31.265 17.7017 32 16.936 32 16.0002C32 15.0644 31.265 14.2987 30.3667 14.2987L5.57356 14.2987L11.9107 7.69697C12.5477 7.03339 12.5477 5.96146 11.9107 5.29788C11.2737 4.6343 10.2447 4.6343 9.60776 5.29788L0.477733 14.8092C-0.159246 15.4727 -0.159245 16.5447 0.477733 17.2082L9.62409 26.7025C10.2447 27.3661 11.29 27.3661 11.927 26.7025Z" fill="#212121"/>
</g>
<defs>
<clipPath id="clip0_64_6357">
<rect width="32" height="32" fill="white"/>
</clipPath>
</defs>
</svg>
