<?xml version="1.0" encoding="utf-8"?>
<!-- Generator: Adobe Illustrator 26.0.3, SVG Export Plug-In . SVG Version: 6.00 Build 0)  -->
<svg version="1.1" id="圖層_1" xmlns="http://www.w3.org/2000/svg" xmlns:xlink="http://www.w3.org/1999/xlink" x="0px" y="0px"
	 viewBox="0 0 612.2 192" style="enable-background:new 0 0 612.2 192;" xml:space="preserve">
<style type="text/css">
	.st0{fill:#FFFFFF;}
	.st1{fill:#222939;}
	.st2{fill:#C9334E;}
	.st3{fill:#999999;}
	.st4{fill:url(#SVGID_1_);}
</style>
<g id="圖層_1_00000149374692674787779790000001542598074523772595_">
	<path class="st0" d="M608,32.5c-3.4-3.9-8.4-6.1-13.6-6H162.3C123.9-10.1,63.1-8.6,26.5,29.7s-35.2,99.1,3.2,135.7
		C47.6,182.5,71.3,192,96,192c24.7,0.1,48.4-9.5,66.3-26.6h375.1c6.6-0.1,12.1-5,13.1-11.4l5.3-37.9c0.2-1.5,0.1-3.1-0.3-4.6h28
		c11.6,0,16.9-8,16.9-8c2.9-3.2,4.7-7.2,5.3-11.4l6.3-45C612.9,41.9,611.4,36.6,608,32.5z"/>
	<path class="st1" d="M601.8,91.5l6.3-45c1.2-8.8-4.9-16-13.8-16H105.8v77h477.7C592.3,107.5,600.5,100.3,601.8,91.5z"/>
	<path class="st2" d="M537.4,161.4H118.6c-3.7,0.1-6.9-2.8-7-6.6c0-0.5,0-0.9,0.1-1.4l5.3-37.9c0.7-4.5,4.6-7.9,9.1-8H545
		c3.7-0.1,6.9,2.8,7,6.6c0,0.5,0,0.9-0.1,1.4l-5.3,37.9C545.8,158,542,161.3,537.4,161.4z"/>
	<path class="st3" d="M208.2,95.2l7.2-51.5h17.8c2.9-0.1,5.7,0.3,8.5,1c2,0.5,3.9,1.4,5.5,2.7c1.3,1.1,2.3,2.6,2.8,4.3
		c0.5,1.9,0.6,3.8,0.3,5.7c-0.2,1.2-0.5,2.4-1,3.5c-0.5,1.1-1.2,2.2-2.1,3.1c-0.9,1-2,1.9-3.2,2.6c-1.4,0.8-2.9,1.5-4.4,2
		c6.9,1.6,9.9,5.4,9,11.5c-0.6,4.4-2.9,8.3-6.5,10.9c-1.9,1.4-4,2.5-6.3,3.2c-2.6,0.8-5.4,1.2-8.1,1.1L208.2,95.2z M221,72.7
		l-2.1,15.1h9.7c1.5,0,3.1-0.2,4.6-0.6c1.1-0.4,2.2-0.9,3.1-1.7c0.8-0.7,1.5-1.5,1.9-2.5c0.5-0.9,0.8-2,0.9-3c0.2-1,0.1-2-0.1-3
		c-0.2-0.9-0.7-1.7-1.4-2.3c-0.8-0.7-1.7-1.2-2.7-1.4c-1.4-0.4-2.8-0.5-4.2-0.5L221,72.7z M221.9,66h7.7c2.7,0.1,5.3-0.5,7.7-1.8
		c1.9-1.3,3.1-3.4,3.3-5.7c0.4-2.7-0.1-4.6-1.5-5.7c-1.4-1.1-3.7-1.7-6.9-1.7H224L221.9,66z"/>
	<path class="st3" d="M300,95.2h-7.4c-0.7,0.1-1.4-0.2-2-0.6c-0.5-0.4-0.8-0.9-0.9-1.6l-2.4-10.5h-21.3l-5.3,10.5
		c-0.3,0.6-0.8,1.1-1.3,1.5c-0.6,0.4-1.4,0.7-2.1,0.7h-7.4l27.5-51.5h9.8L300,95.2z M269.3,75.8h16.4l-3.9-17.2
		c-0.2-0.8-0.4-1.7-0.6-2.7s-0.4-2.2-0.5-3.4c-0.5,1.2-1,2.3-1.5,3.4s-0.9,2-1.3,2.7L269.3,75.8z"/>
	<path class="st3" d="M340.6,83.1c0.5,0,1,0.2,1.3,0.6l3.2,4.1c-2.4,2.6-5.3,4.6-8.6,6c-3.6,1.4-7.4,2.1-11.3,2.1
		c-3.4,0.1-6.8-0.6-10-2c-2.8-1.2-5.2-3.1-7.1-5.4c-1.9-2.5-3.2-5.3-3.8-8.3c-0.7-3.5-0.8-7.1-0.2-10.6c0.5-3.7,1.7-7.3,3.4-10.6
		c3.4-6.4,9-11.3,15.7-13.8c3.5-1.3,7.2-2,11-2c3.3-0.1,6.7,0.6,9.7,1.9c2.5,1.1,4.8,2.8,6.7,4.9l-3.8,4.5c-0.2,0.3-0.5,0.5-0.8,0.7
		c-0.4,0.2-0.8,0.3-1.3,0.3c-0.6,0-1.1-0.2-1.6-0.6c-0.6-0.5-1.3-1-2-1.4c-1-0.6-2-1-3.1-1.4c-1.6-0.5-3.3-0.7-5-0.6
		c-2.3,0-4.7,0.4-6.9,1.3c-2.1,0.8-4.1,2.1-5.8,3.6c-1.7,1.6-3.2,3.6-4.2,5.7c-1.2,2.4-2,4.9-2.3,7.6c-0.4,2.6-0.4,5.2,0.1,7.7
		c0.4,2.1,1.3,4,2.5,5.7c1.2,1.5,2.7,2.8,4.4,3.6c1.9,0.8,3.9,1.3,6,1.2c1.2,0,2.4-0.1,3.6-0.2c1-0.1,2-0.4,3-0.7
		c0.9-0.3,1.8-0.7,2.7-1.2c0.9-0.5,1.8-1.1,2.6-1.8c0.3-0.2,0.5-0.4,0.8-0.5C340,83.2,340.3,83.1,340.6,83.1z"/>
	<path class="st3" d="M388.4,83.1c0.5,0,1,0.2,1.3,0.6l3.2,4.1c-2.4,2.6-5.3,4.6-8.5,6c-3.6,1.4-7.4,2.1-11.3,2.1
		c-3.5,0.1-6.9-0.6-10-2c-2.8-1.2-5.2-3.1-7.1-5.4c-1.9-2.5-3.2-5.3-3.8-8.3c-0.7-3.5-0.8-7.1-0.2-10.6c0.5-3.7,1.7-7.3,3.4-10.6
		c1.7-3.1,3.9-6,6.6-8.3c2.7-2.3,5.8-4.2,9.1-5.4c3.5-1.3,7.2-2,11-2c3.4-0.1,6.7,0.6,9.8,1.9c2.5,1.1,4.8,2.8,6.7,4.9l-3.8,4.5
		c-0.2,0.3-0.5,0.5-0.8,0.8c-0.4,0.2-0.8,0.3-1.3,0.3c-0.6,0-1.2-0.2-1.6-0.6c-0.6-0.5-1.3-1-2-1.4c-1-0.6-2-1-3.1-1.4
		c-1.6-0.5-3.3-0.7-5-0.6c-2.3,0-4.7,0.4-6.8,1.2c-2.1,0.8-4.1,2.1-5.8,3.6c-1.7,1.6-3.2,3.6-4.2,5.7c-1.2,2.4-1.9,4.9-2.3,7.6
		c-0.4,2.6-0.4,5.2,0.1,7.7c0.4,2.1,1.3,4,2.5,5.7c1.2,1.5,2.7,2.8,4.5,3.6c1.9,0.8,3.9,1.3,6,1.2c1.2,0,2.4-0.1,3.6-0.2
		c1-0.1,2-0.4,3-0.7c0.9-0.3,1.8-0.7,2.7-1.2c0.9-0.5,1.8-1.1,2.6-1.8c0.3-0.2,0.5-0.4,0.8-0.5C387.8,83.2,388.1,83.1,388.4,83.1z"
		/>
	<path class="st3" d="M444.4,95.2H437c-0.7,0.1-1.4-0.2-2-0.6c-0.5-0.4-0.8-0.9-0.9-1.6l-2.4-10.5h-21.4L405,93.1
		c-0.3,0.6-0.8,1.1-1.3,1.5c-0.6,0.4-1.4,0.7-2.1,0.7h-7.5l27.5-51.5h9.8L444.4,95.2z M413.8,75.8h16.4l-3.9-17.2
		c-0.2-0.8-0.4-1.7-0.6-2.7s-0.4-2.2-0.5-3.4c-0.5,1.2-1,2.3-1.5,3.4s-0.9,2-1.3,2.7L413.8,75.8z"/>
	<path class="st3" d="M462.4,75.1l-2.8,20.1H450l7.2-51.5H473c3-0.1,6,0.3,8.9,1.1c2.1,0.6,4.1,1.6,5.7,3c1.4,1.3,2.4,2.9,2.9,4.7
		c0.5,2,0.6,4,0.3,6c-0.5,3.4-2,6.6-4.3,9.1c-1.2,1.3-2.5,2.4-4,3.3c-1.6,1-3.3,1.7-5.1,2.3c1.2,0.7,2.1,1.8,2.7,3l10.2,19h-8.6
		c-0.7,0-1.4-0.1-2-0.5c-0.5-0.3-1-0.8-1.3-1.4l-8.6-16.5c-0.3-0.5-0.7-1-1.1-1.3c-0.7-0.3-1.4-0.4-2.1-0.4H462.4z M463.4,68.2h6
		c1.6,0,3.3-0.2,4.8-0.7c1.3-0.4,2.5-1,3.6-1.9c1-0.8,1.8-1.7,2.3-2.8c0.6-1.1,1-2.3,1.1-3.6c0.4-2.6-0.2-4.6-1.7-6
		s-4.1-2.1-7.6-2.1h-6.1L463.4,68.2z"/>
	<path class="st3" d="M541.7,95.2h-7.4c-0.7,0.1-1.4-0.2-2-0.6c-0.5-0.4-0.8-0.9-0.9-1.6L529,82.6h-21.3l-5.3,10.5
		c-0.3,0.6-0.8,1.1-1.3,1.5c-0.6,0.4-1.4,0.7-2.1,0.7h-7.5l27.5-51.5h9.8L541.7,95.2z M511.1,75.8h16.4l-3.9-17.2
		c-0.2-0.8-0.4-1.7-0.6-2.7s-0.4-2.2-0.5-3.4c-0.5,1.2-1,2.3-1.5,3.4s-0.9,2-1.3,2.7L511.1,75.8z"/>
	<path class="st3" d="M585.4,43.7l-1.1,7.9h-15.5l-6.1,43.7H553l6.1-43.7h-15.6l1.1-7.9H585.4z"/>
	<path class="st0" d="M208.2,95.2l7.2-51.5h17.8c2.9-0.1,5.7,0.3,8.5,1c2,0.5,3.9,1.4,5.5,2.7c1.3,1.1,2.3,2.6,2.8,4.3
		c0.5,1.9,0.6,3.8,0.3,5.7c-0.2,1.2-0.5,2.4-1,3.5c-0.5,1.1-1.2,2.2-2.1,3.1c-0.9,1-2,1.9-3.2,2.6c-1.4,0.8-2.9,1.5-4.4,2
		c6.9,1.6,9.9,5.4,9,11.5c-0.6,4.4-2.9,8.3-6.5,10.9c-1.9,1.4-4,2.5-6.3,3.2c-2.6,0.8-5.4,1.2-8.1,1.1L208.2,95.2z M221,72.7
		l-2.1,15.1h9.7c1.5,0,3.1-0.2,4.6-0.6c1.1-0.4,2.2-0.9,3.1-1.7c0.8-0.7,1.5-1.5,1.9-2.5c0.5-0.9,0.8-2,0.9-3c0.2-1,0.1-2-0.1-3
		c-0.2-0.9-0.7-1.7-1.4-2.3c-0.8-0.7-1.7-1.2-2.7-1.4c-1.4-0.4-2.8-0.5-4.2-0.5L221,72.7z M221.9,66h7.7c2.7,0.1,5.3-0.5,7.7-1.8
		c1.9-1.3,3.1-3.4,3.3-5.7c0.4-2.7-0.1-4.6-1.5-5.7c-1.4-1.1-3.7-1.7-6.9-1.7H224L221.9,66z"/>
	<path class="st0" d="M300,95.2h-7.4c-0.7,0.1-1.4-0.2-2-0.6c-0.5-0.4-0.8-0.9-0.9-1.6l-2.4-10.5h-21.3l-5.3,10.5
		c-0.3,0.6-0.8,1.1-1.3,1.5c-0.6,0.4-1.4,0.7-2.1,0.7h-7.4l27.5-51.5h9.8L300,95.2z M269.3,75.8h16.4l-3.9-17.2
		c-0.2-0.8-0.4-1.7-0.6-2.7s-0.4-2.2-0.5-3.4c-0.5,1.2-1,2.3-1.5,3.4s-0.9,2-1.3,2.7L269.3,75.8z"/>
	<path class="st0" d="M340.6,83.1c0.5,0,1,0.2,1.3,0.6l3.2,4.1c-2.4,2.6-5.3,4.6-8.6,6c-3.6,1.4-7.4,2.1-11.3,2.1
		c-3.4,0.1-6.8-0.6-10-2c-2.8-1.2-5.2-3.1-7.1-5.4c-1.9-2.5-3.2-5.3-3.8-8.3c-0.7-3.5-0.8-7.1-0.2-10.6c0.5-3.7,1.7-7.3,3.4-10.6
		c3.4-6.4,9-11.3,15.7-13.8c3.5-1.3,7.2-2,11-2c3.3-0.1,6.7,0.6,9.7,1.9c2.5,1.1,4.8,2.8,6.7,4.9l-3.8,4.5c-0.2,0.3-0.5,0.5-0.8,0.7
		c-0.4,0.2-0.8,0.3-1.3,0.3c-0.6,0-1.1-0.2-1.6-0.6c-0.6-0.5-1.3-1-2-1.4c-1-0.6-2-1-3.1-1.4c-1.6-0.5-3.3-0.7-5-0.6
		c-2.3,0-4.7,0.4-6.9,1.3c-2.1,0.8-4.1,2.1-5.8,3.6c-1.7,1.6-3.2,3.6-4.2,5.7c-1.2,2.4-2,4.9-2.3,7.6c-0.4,2.6-0.4,5.2,0.1,7.7
		c0.4,2.1,1.3,4,2.5,5.7c1.2,1.5,2.7,2.8,4.4,3.6c1.9,0.8,3.9,1.3,6,1.2c1.2,0,2.4-0.1,3.6-0.2c1-0.1,2-0.4,3-0.7
		c0.9-0.3,1.8-0.7,2.7-1.2c0.9-0.5,1.8-1.1,2.6-1.8c0.3-0.2,0.5-0.4,0.8-0.5C340,83.2,340.3,83.1,340.6,83.1z"/>
	<path class="st0" d="M388.4,83.1c0.5,0,1,0.2,1.3,0.6l3.2,4.1c-2.4,2.6-5.3,4.6-8.5,6c-3.6,1.4-7.4,2.1-11.3,2.1
		c-3.5,0.1-6.9-0.6-10-2c-2.8-1.2-5.2-3.1-7.1-5.4c-1.9-2.5-3.2-5.3-3.8-8.3c-0.7-3.5-0.8-7.1-0.2-10.6c0.5-3.7,1.7-7.3,3.4-10.6
		c1.7-3.1,3.9-6,6.6-8.3c2.7-2.3,5.8-4.2,9.1-5.4c3.5-1.3,7.2-2,11-2c3.4-0.1,6.7,0.6,9.8,1.9c2.5,1.1,4.8,2.8,6.7,4.9l-3.8,4.5
		c-0.2,0.3-0.5,0.5-0.8,0.8c-0.4,0.2-0.8,0.3-1.3,0.3c-0.6,0-1.2-0.2-1.6-0.6c-0.6-0.5-1.3-1-2-1.4c-1-0.6-2-1-3.1-1.4
		c-1.6-0.5-3.3-0.7-5-0.6c-2.3,0-4.7,0.4-6.8,1.2c-2.1,0.8-4.1,2.1-5.8,3.6c-1.7,1.6-3.2,3.6-4.2,5.7c-1.2,2.4-1.9,4.9-2.3,7.6
		c-0.4,2.6-0.4,5.2,0.1,7.7c0.4,2.1,1.3,4,2.5,5.7c1.2,1.5,2.7,2.8,4.5,3.6c1.9,0.8,3.9,1.3,6,1.2c1.2,0,2.4-0.1,3.6-0.2
		c1-0.1,2-0.4,3-0.7c0.9-0.3,1.8-0.7,2.7-1.2c0.9-0.5,1.8-1.1,2.6-1.8c0.3-0.2,0.5-0.4,0.8-0.5C387.8,83.2,388.1,83.1,388.4,83.1z"
		/>
	<path class="st0" d="M444.4,95.2H437c-0.7,0.1-1.4-0.2-2-0.6c-0.5-0.4-0.8-0.9-0.9-1.6l-2.4-10.5h-21.4L405,93.1
		c-0.3,0.6-0.8,1.1-1.3,1.5c-0.6,0.4-1.4,0.7-2.1,0.7h-7.5l27.5-51.5h9.8L444.4,95.2z M413.8,75.8h16.4l-3.9-17.2
		c-0.2-0.8-0.4-1.7-0.6-2.7s-0.4-2.2-0.5-3.4c-0.5,1.2-1,2.3-1.5,3.4s-0.9,2-1.3,2.7L413.8,75.8z"/>
	<path class="st0" d="M462.4,75.1l-2.8,20.1H450l7.2-51.5H473c3-0.1,6,0.3,8.9,1.1c2.1,0.6,4.1,1.6,5.7,3c1.4,1.3,2.4,2.9,2.9,4.7
		c0.5,2,0.6,4,0.3,6c-0.5,3.4-2,6.6-4.3,9.1c-1.2,1.3-2.5,2.4-4,3.3c-1.6,1-3.3,1.7-5.1,2.3c1.2,0.7,2.1,1.8,2.7,3l10.2,19h-8.6
		c-0.7,0-1.4-0.1-2-0.5c-0.5-0.3-1-0.8-1.3-1.4l-8.6-16.5c-0.3-0.5-0.7-1-1.1-1.3c-0.7-0.3-1.4-0.4-2.1-0.4H462.4z M463.4,68.2h6
		c1.6,0,3.3-0.2,4.8-0.7c1.3-0.4,2.5-1,3.6-1.9c1-0.8,1.8-1.7,2.3-2.8c0.6-1.1,1-2.3,1.1-3.6c0.4-2.6-0.2-4.6-1.7-6
		s-4.1-2.1-7.6-2.1h-6.1L463.4,68.2z"/>
	<path class="st0" d="M541.7,95.2h-7.4c-0.7,0.1-1.4-0.2-2-0.6c-0.5-0.4-0.8-0.9-0.9-1.6L529,82.6h-21.3l-5.3,10.5
		c-0.3,0.6-0.8,1.1-1.3,1.5c-0.6,0.4-1.4,0.7-2.1,0.7h-7.5l27.5-51.5h9.8L541.7,95.2z M511.1,75.8h16.4l-3.9-17.2
		c-0.2-0.8-0.4-1.7-0.6-2.7s-0.4-2.2-0.5-3.4c-0.5,1.2-1,2.3-1.5,3.4s-0.9,2-1.3,2.7L511.1,75.8z"/>
	<path class="st0" d="M585.4,43.7l-1.1,7.9h-15.5l-6.1,43.7H553l6.1-43.7h-15.6l1.1-7.9H585.4z"/>
	<circle class="st1" cx="96" cy="96" r="92"/>
	
		<linearGradient id="SVGID_1_" gradientUnits="userSpaceOnUse" x1="136.0061" y1="167.2682" x2="55.9925" y2="28.6919" gradientTransform="matrix(1 0 0 -1 0 194)">
		<stop  offset="0" style="stop-color:#0099D8"/>
		<stop  offset="1" style="stop-color:#4AAF65"/>
	</linearGradient>
	<path class="st4" d="M96,16c-44.2,0-80,35.9-80,80.1c0,7.9,1.2,15.7,3.5,23.2c1.4-2.1,2.9-4.2,4.3-6.2c5.6-8.2,11.1-16.5,16.4-24.8
		l3.9-6.3c1.3-2.1,2.6-4.2,3.9-6.3c2.6-4.2,5.1-8.5,7.5-12.8c1.2-2.1,2.4-4.3,3.6-6.5s2.4-4.3,3.5-6.5s2.3-4.3,3.3-6.5l3.2-6.6
		l0.2-0.5c1.8-3.6,6.1-5,9.7-3.3c2.7,1.4,4.3,4.3,4.1,7.3l0,0c0,3.8-0.8,7.8-1,11.6s-0.5,7.8-0.7,11.7c-0.3,7.8-0.5,15.6-0.4,23.4
		s0.4,15.5,1.2,23c0.4,3.7,1,7.4,1.7,11c0.6,3.3,1.7,6.4,3.1,9.4c0.4,0.9,1,1.8,1.8,2.5c0.5,0.3,0.2,0.2,0.4,0.2c0,0,0.2-0.1,0.3,0
		l0.2-0.1h0.1h0.1c0.2-0.1,0.4-0.2,0.4-0.2l0,0c0.2-0.1,0.4-0.3,0.6-0.4c1.2-0.9,2.2-1.9,3.2-3c2.4-2.7,4.5-5.6,6.4-8.7
		c2-3.2,4-6.4,5.9-9.8c3.8-6.7,7.3-13.7,10.7-20.7c1.7-3.5,3.3-7.1,4.9-10.6c1.6-3.6,3.2-7.2,4.7-10.7c1.5-3.7,5.7-5.4,9.4-3.9
		c2.3,1,3.9,3,4.3,5.5l0,0c0,0.9,0.1,2.1,0.2,3.2l0.4,3.3c0.3,2.2,0.6,4.4,1,6.6c0.8,4.4,1.7,8.8,2.9,13.1c1.2,4.3,2.6,8.5,4.4,12.6
		c1.7,4.1,4,7.9,6.8,11.4l0,0c0.7,0.8,0.6,2-0.2,2.7c-0.7,0.6-1.8,0.6-2.5,0c-3.7-3.2-7-6.9-9.7-10.9c-2.7-4-5.2-8.2-7.3-12.6
		c-1.4-2.9-2.7-5.8-3.9-8.8c-0.8,1.7-1.6,3.5-2.4,5.2c-3.5,7.2-7.1,14.4-11.1,21.6c-2,3.6-4.1,7.1-6.4,10.6c-2.3,3.6-5,7.1-7.8,10.4
		c-1.6,1.9-3.5,3.6-5.5,5.1c-0.6,0.4-1.2,0.8-1.9,1.2c-0.4,0.2-0.9,0.5-1.3,0.7l-0.8,0.3h-0.1l-0.4,0.2l-0.3,0.1l-0.6,0.2
		c-0.4,0.1-0.8,0.2-1.2,0.3c-0.9,0.2-1.8,0.3-2.6,0.4c-2,0.1-3.9-0.1-5.8-0.7c-1.8-0.6-3.4-1.6-4.8-2.8c-2.2-1.9-4-4.3-5.3-6.9
		c-2-4.1-3.5-8.5-4.4-13.1c-0.9-4.1-1.5-8.3-2-12.5c-0.9-8.2-1.2-16.3-1.3-24.4c-0.1-3.9-0.1-7.7,0-11.6c-1.4,2.8-2.9,5.5-4.4,8.2
		c-1.2,2.2-2.4,4.5-3.7,6.7L55,97.1c-5,8.8-10.2,17.5-15.5,26.1c-3.4,5.6-6.9,11.1-10.4,16.6c24.2,36.9,73.8,47.2,110.8,23
		s47.2-73.8,23-110.8C148.1,29.6,123,16,96,16z"/>
</g>
<g>
	<g>
		<path d="M225.4,120.1l-0.5,3.4h-9.6l-3.7,26.4h-4l3.7-26.4h-9.7l0.5-3.4H225.4z"/>
		<path d="M231.7,137.5l-1.7,12.4h-4l4.2-29.8h8.4c1.9,0,3.5,0.2,4.8,0.6c1.3,0.4,2.4,0.9,3.2,1.7c0.8,0.7,1.3,1.6,1.6,2.6
			c0.3,1,0.3,2.2,0.2,3.4c-0.1,1.1-0.5,2-0.9,3c-0.5,0.9-1.1,1.7-1.8,2.5c-0.7,0.7-1.6,1.3-2.6,1.9c-1,0.5-2.1,0.9-3.3,1.2
			c0.5,0.3,0.8,0.7,1.2,1.3l7,11.8h-3.6c-0.7,0-1.2-0.3-1.5-0.9l-6.2-10.6c-0.2-0.3-0.4-0.6-0.7-0.7s-0.7-0.2-1.2-0.2H231.7z
			 M232.1,134.6h4.2c1.2,0,2.2-0.1,3.2-0.4c0.9-0.3,1.7-0.7,2.4-1.2c0.7-0.5,1.2-1.1,1.6-1.9c0.4-0.7,0.7-1.5,0.8-2.4
			c0.2-1.8-0.1-3.1-1.2-4s-2.7-1.4-5-1.4h-4.4L232.1,134.6z"/>
		<path d="M274.8,120.1l-0.5,3.3h-14.3l-1.4,9.9h11.6l-0.4,3.2h-11.6l-1.4,10.2h14.3l-0.5,3.3h-18.4l4.2-29.8H274.8z"/>
		<path d="M301,149.9h-3.1c-0.4,0-0.6-0.1-0.8-0.3c-0.2-0.2-0.3-0.4-0.4-0.7l-1.8-7.2h-13.4l-3.8,7.2c-0.1,0.2-0.3,0.5-0.6,0.7
			c-0.3,0.2-0.6,0.3-0.9,0.3H273l16.1-29.8h4.1L301,149.9z M283,138.9h11.1l-3-12.1c-0.2-0.7-0.4-1.7-0.5-2.8
			c-0.2,0.6-0.5,1.1-0.7,1.6c-0.2,0.5-0.4,0.9-0.6,1.3L283,138.9z"/>
		<path d="M323.5,124.8c-0.2,0.2-0.3,0.4-0.5,0.5c-0.2,0.1-0.3,0.2-0.6,0.2c-0.2,0-0.5-0.1-0.8-0.4c-0.3-0.2-0.6-0.5-1.1-0.8
			c-0.4-0.3-1-0.5-1.6-0.8c-0.6-0.2-1.4-0.4-2.4-0.4c-0.9,0-1.7,0.1-2.4,0.4s-1.4,0.6-1.9,1c-0.5,0.4-0.9,0.9-1.3,1.5
			c-0.3,0.6-0.5,1.2-0.6,1.8c-0.1,0.8,0,1.5,0.3,2.1c0.3,0.5,0.8,1,1.4,1.4c0.6,0.4,1.3,0.7,2.1,1c0.8,0.3,1.6,0.6,2.5,0.9
			c0.9,0.3,1.7,0.6,2.5,1c0.8,0.4,1.5,0.9,2.1,1.4c0.6,0.6,1,1.3,1.3,2.1c0.3,0.8,0.3,1.9,0.2,3.1c-0.2,1.3-0.6,2.5-1.2,3.7
			c-0.6,1.1-1.4,2.1-2.4,3c-1,0.8-2.1,1.5-3.4,2c-1.3,0.5-2.8,0.7-4.3,0.7c-1.9,0-3.6-0.4-5.1-1.1c-1.5-0.7-2.7-1.6-3.7-2.8l1.4-1.9
			c0.1-0.2,0.3-0.3,0.5-0.4c0.2-0.1,0.4-0.2,0.6-0.2c0.3,0,0.6,0.2,0.9,0.5c0.3,0.3,0.8,0.7,1.3,1c0.5,0.4,1.1,0.7,1.9,1
			c0.8,0.3,1.7,0.5,2.9,0.5c1,0,1.8-0.1,2.6-0.4c0.8-0.3,1.5-0.6,2.1-1.1c0.6-0.5,1.1-1,1.4-1.7c0.4-0.7,0.6-1.4,0.7-2.2
			c0.1-0.9,0-1.6-0.3-2.2c-0.3-0.6-0.8-1.1-1.4-1.4c-0.6-0.4-1.3-0.7-2.1-1c-0.8-0.3-1.6-0.5-2.5-0.8s-1.7-0.6-2.5-1
			c-0.8-0.4-1.5-0.9-2.1-1.5c-0.6-0.6-1-1.3-1.3-2.2c-0.3-0.9-0.3-2-0.1-3.3c0.1-1.1,0.5-2.1,1-3.1c0.5-1,1.3-1.9,2.1-2.6
			c0.9-0.8,1.9-1.4,3.1-1.8c1.2-0.5,2.6-0.7,4-0.7c1.7,0,3.1,0.3,4.4,0.8s2.4,1.3,3.3,2.3L323.5,124.8z"/>
		<path d="M338.8,146.7c1.2,0,2.4-0.2,3.4-0.6c1-0.4,1.9-1,2.7-1.7c0.8-0.7,1.4-1.6,1.9-2.7c0.5-1,0.8-2.2,1-3.4l2.5-18.1h4
			l-2.5,18.1c-0.2,1.7-0.7,3.3-1.5,4.8c-0.8,1.5-1.7,2.7-2.9,3.8s-2.5,1.9-4.1,2.5s-3.2,0.9-5.1,0.9c-1.8,0-3.4-0.3-4.8-0.9
			c-1.4-0.6-2.5-1.5-3.4-2.5s-1.5-2.3-1.8-3.8c-0.3-1.5-0.4-3.1-0.1-4.8l2.5-18.1h4l-2.5,18.1c-0.2,1.2-0.2,2.4,0,3.4
			c0.2,1,0.6,1.9,1.2,2.7c0.6,0.8,1.3,1.3,2.2,1.8C336.5,146.5,337.6,146.7,338.8,146.7z"/>
		<path d="M363.3,137.5l-1.7,12.4h-4l4.2-29.8h8.4c1.9,0,3.5,0.2,4.8,0.6c1.3,0.4,2.4,0.9,3.2,1.7c0.8,0.7,1.3,1.6,1.6,2.6
			c0.3,1,0.3,2.2,0.2,3.4c-0.1,1.1-0.5,2-0.9,3c-0.5,0.9-1.1,1.7-1.8,2.5c-0.7,0.7-1.6,1.3-2.6,1.9c-1,0.5-2.1,0.9-3.3,1.2
			c0.5,0.3,0.8,0.7,1.2,1.3l7,11.8H376c-0.7,0-1.2-0.3-1.5-0.9l-6.2-10.6c-0.2-0.3-0.4-0.6-0.7-0.7s-0.7-0.2-1.2-0.2H363.3z
			 M363.7,134.6h4.2c1.2,0,2.2-0.1,3.2-0.4s1.7-0.7,2.4-1.2c0.7-0.5,1.2-1.1,1.6-1.9c0.4-0.7,0.7-1.5,0.8-2.4c0.2-1.8-0.1-3.1-1.2-4
			c-1-0.9-2.7-1.4-5-1.4h-4.4L363.7,134.6z"/>
		<path d="M406.5,120.1l-0.5,3.3h-14.3l-1.4,9.9h11.6l-0.4,3.2h-11.6l-1.4,10.2h14.3l-0.5,3.3h-18.4l4.2-29.8H406.5z"/>
		<path d="M440.3,149.9h-4.1l1.9-13.6h-16.1l-1.9,13.6h-4.1l4.2-29.8h4.1l-1.9,13.3h16.1l1.9-13.3h4.1L440.3,149.9z"/>
		<path d="M459.6,146.7c1.2,0,2.4-0.2,3.4-0.6c1-0.4,1.9-1,2.7-1.7c0.8-0.7,1.4-1.6,1.9-2.7c0.5-1,0.8-2.2,1-3.4l2.5-18.1h4
			l-2.5,18.1c-0.2,1.7-0.7,3.3-1.5,4.8c-0.8,1.5-1.7,2.7-2.9,3.8s-2.5,1.9-4.1,2.5c-1.6,0.6-3.2,0.9-5.1,0.9c-1.8,0-3.4-0.3-4.8-0.9
			c-1.4-0.6-2.5-1.5-3.4-2.5s-1.5-2.3-1.8-3.8c-0.3-1.5-0.4-3.1-0.1-4.8l2.5-18.1h4l-2.5,18.1c-0.2,1.2-0.2,2.4,0,3.4
			c0.2,1,0.6,1.9,1.2,2.7c0.6,0.8,1.3,1.3,2.2,1.8C457.3,146.5,458.3,146.7,459.6,146.7z"/>
		<path d="M485,120.3c0.2,0.1,0.3,0.3,0.5,0.6l14.1,22.5c0-0.4,0-0.7,0.1-1.1c0-0.3,0.1-0.7,0.1-1l3-21.1h3.5l-4.2,29.8h-2
			c-0.3,0-0.6-0.1-0.8-0.2s-0.4-0.3-0.6-0.6l-14.1-22.4c0,0.3,0,0.7-0.1,1c0,0.3-0.1,0.6-0.1,0.9l-3,21.2h-3.5l4.2-29.8h2.1
			C484.5,120.1,484.8,120.2,485,120.3z"/>
		<path d="M533.8,120.1l-0.5,3.4h-9.6l-3.7,26.4h-4l3.7-26.4H510l0.5-3.4H533.8z"/>
	</g>
	<g>
		<path class="st0" d="M225.4,120.1l-0.5,3.4h-9.6l-3.7,26.4h-4l3.7-26.4h-9.7l0.5-3.4H225.4z"/>
		<path class="st0" d="M231.7,137.5l-1.7,12.4h-4l4.2-29.8h8.4c1.9,0,3.5,0.2,4.8,0.6c1.3,0.4,2.4,0.9,3.2,1.7
			c0.8,0.7,1.3,1.6,1.6,2.6c0.3,1,0.3,2.2,0.2,3.4c-0.1,1.1-0.5,2-0.9,3c-0.5,0.9-1.1,1.7-1.8,2.5c-0.7,0.7-1.6,1.3-2.6,1.9
			c-1,0.5-2.1,0.9-3.3,1.2c0.5,0.3,0.8,0.7,1.2,1.3l7,11.8h-3.6c-0.7,0-1.2-0.3-1.5-0.9l-6.2-10.6c-0.2-0.3-0.4-0.6-0.7-0.7
			s-0.7-0.2-1.2-0.2H231.7z M232.1,134.6h4.2c1.2,0,2.2-0.1,3.2-0.4c0.9-0.3,1.7-0.7,2.4-1.2c0.7-0.5,1.2-1.1,1.6-1.9
			c0.4-0.7,0.7-1.5,0.8-2.4c0.2-1.8-0.1-3.1-1.2-4s-2.7-1.4-5-1.4h-4.4L232.1,134.6z"/>
		<path class="st0" d="M274.8,120.1l-0.5,3.3h-14.3l-1.4,9.9h11.6l-0.4,3.2h-11.6l-1.4,10.2h14.3l-0.5,3.3h-18.4l4.2-29.8H274.8z"/>
		<path class="st0" d="M301,149.9h-3.1c-0.4,0-0.6-0.1-0.8-0.3c-0.2-0.2-0.3-0.4-0.4-0.7l-1.8-7.2h-13.4l-3.8,7.2
			c-0.1,0.2-0.3,0.5-0.6,0.7c-0.3,0.2-0.6,0.3-0.9,0.3H273l16.1-29.8h4.1L301,149.9z M283,138.9h11.1l-3-12.1
			c-0.2-0.7-0.4-1.7-0.5-2.8c-0.2,0.6-0.5,1.1-0.7,1.6c-0.2,0.5-0.4,0.9-0.6,1.3L283,138.9z"/>
		<path class="st0" d="M323.5,124.8c-0.2,0.2-0.3,0.4-0.5,0.5c-0.2,0.1-0.3,0.2-0.6,0.2c-0.2,0-0.5-0.1-0.8-0.4
			c-0.3-0.2-0.6-0.5-1.1-0.8c-0.4-0.3-1-0.5-1.6-0.8c-0.6-0.2-1.4-0.4-2.4-0.4c-0.9,0-1.7,0.1-2.4,0.4s-1.4,0.6-1.9,1
			c-0.5,0.4-0.9,0.9-1.3,1.5c-0.3,0.6-0.5,1.2-0.6,1.8c-0.1,0.8,0,1.5,0.3,2.1c0.3,0.5,0.8,1,1.4,1.4c0.6,0.4,1.3,0.7,2.1,1
			c0.8,0.3,1.6,0.6,2.5,0.9c0.9,0.3,1.7,0.6,2.5,1c0.8,0.4,1.5,0.9,2.1,1.4c0.6,0.6,1,1.3,1.3,2.1c0.3,0.8,0.3,1.9,0.2,3.1
			c-0.2,1.3-0.6,2.5-1.2,3.7c-0.6,1.1-1.4,2.1-2.4,3c-1,0.8-2.1,1.5-3.4,2c-1.3,0.5-2.8,0.7-4.3,0.7c-1.9,0-3.6-0.4-5.1-1.1
			c-1.5-0.7-2.7-1.6-3.7-2.8l1.4-1.9c0.1-0.2,0.3-0.3,0.5-0.4c0.2-0.1,0.4-0.2,0.6-0.2c0.3,0,0.6,0.2,0.9,0.5c0.3,0.3,0.8,0.7,1.3,1
			c0.5,0.4,1.1,0.7,1.9,1c0.8,0.3,1.7,0.5,2.9,0.5c1,0,1.8-0.1,2.6-0.4c0.8-0.3,1.5-0.6,2.1-1.1c0.6-0.5,1.1-1,1.4-1.7
			c0.4-0.7,0.6-1.4,0.7-2.2c0.1-0.9,0-1.6-0.3-2.2c-0.3-0.6-0.8-1.1-1.4-1.4c-0.6-0.4-1.3-0.7-2.1-1c-0.8-0.3-1.6-0.5-2.5-0.8
			s-1.7-0.6-2.5-1c-0.8-0.4-1.5-0.9-2.1-1.5c-0.6-0.6-1-1.3-1.3-2.2c-0.3-0.9-0.3-2-0.1-3.3c0.1-1.1,0.5-2.1,1-3.1
			c0.5-1,1.3-1.9,2.1-2.6c0.9-0.8,1.9-1.4,3.1-1.8c1.2-0.5,2.6-0.7,4-0.7c1.7,0,3.1,0.3,4.4,0.8s2.4,1.3,3.3,2.3L323.5,124.8z"/>
		<path class="st0" d="M338.8,146.7c1.2,0,2.4-0.2,3.4-0.6c1-0.4,1.9-1,2.7-1.7c0.8-0.7,1.4-1.6,1.9-2.7c0.5-1,0.8-2.2,1-3.4
			l2.5-18.1h4l-2.5,18.1c-0.2,1.7-0.7,3.3-1.5,4.8c-0.8,1.5-1.7,2.7-2.9,3.8s-2.5,1.9-4.1,2.5s-3.2,0.9-5.1,0.9
			c-1.8,0-3.4-0.3-4.8-0.9c-1.4-0.6-2.5-1.5-3.4-2.5s-1.5-2.3-1.8-3.8c-0.3-1.5-0.4-3.1-0.1-4.8l2.5-18.1h4l-2.5,18.1
			c-0.2,1.2-0.2,2.4,0,3.4c0.2,1,0.6,1.9,1.2,2.7c0.6,0.8,1.3,1.3,2.2,1.8C336.5,146.5,337.6,146.7,338.8,146.7z"/>
		<path class="st0" d="M363.3,137.5l-1.7,12.4h-4l4.2-29.8h8.4c1.9,0,3.5,0.2,4.8,0.6c1.3,0.4,2.4,0.9,3.2,1.7
			c0.8,0.7,1.3,1.6,1.6,2.6c0.3,1,0.3,2.2,0.2,3.4c-0.1,1.1-0.5,2-0.9,3c-0.5,0.9-1.1,1.7-1.8,2.5c-0.7,0.7-1.6,1.3-2.6,1.9
			c-1,0.5-2.1,0.9-3.3,1.2c0.5,0.3,0.8,0.7,1.2,1.3l7,11.8H376c-0.7,0-1.2-0.3-1.5-0.9l-6.2-10.6c-0.2-0.3-0.4-0.6-0.7-0.7
			s-0.7-0.2-1.2-0.2H363.3z M363.7,134.6h4.2c1.2,0,2.2-0.1,3.2-0.4s1.7-0.7,2.4-1.2c0.7-0.5,1.2-1.1,1.6-1.9
			c0.4-0.7,0.7-1.5,0.8-2.4c0.2-1.8-0.1-3.1-1.2-4c-1-0.9-2.7-1.4-5-1.4h-4.4L363.7,134.6z"/>
		<path class="st0" d="M406.5,120.1l-0.5,3.3h-14.3l-1.4,9.9h11.6l-0.4,3.2h-11.6l-1.4,10.2h14.3l-0.5,3.3h-18.4l4.2-29.8H406.5z"/>
		<path class="st0" d="M440.3,149.9h-4.1l1.9-13.6h-16.1l-1.9,13.6h-4.1l4.2-29.8h4.1l-1.9,13.3h16.1l1.9-13.3h4.1L440.3,149.9z"/>
		<path class="st0" d="M459.6,146.7c1.2,0,2.4-0.2,3.4-0.6c1-0.4,1.9-1,2.7-1.7c0.8-0.7,1.4-1.6,1.9-2.7c0.5-1,0.8-2.2,1-3.4
			l2.5-18.1h4l-2.5,18.1c-0.2,1.7-0.7,3.3-1.5,4.8c-0.8,1.5-1.7,2.7-2.9,3.8s-2.5,1.9-4.1,2.5c-1.6,0.6-3.2,0.9-5.1,0.9
			c-1.8,0-3.4-0.3-4.8-0.9c-1.4-0.6-2.5-1.5-3.4-2.5s-1.5-2.3-1.8-3.8c-0.3-1.5-0.4-3.1-0.1-4.8l2.5-18.1h4l-2.5,18.1
			c-0.2,1.2-0.2,2.4,0,3.4c0.2,1,0.6,1.9,1.2,2.7c0.6,0.8,1.3,1.3,2.2,1.8C457.3,146.5,458.3,146.7,459.6,146.7z"/>
		<path class="st0" d="M485,120.3c0.2,0.1,0.3,0.3,0.5,0.6l14.1,22.5c0-0.4,0-0.7,0.1-1.1c0-0.3,0.1-0.7,0.1-1l3-21.1h3.5l-4.2,29.8
			h-2c-0.3,0-0.6-0.1-0.8-0.2s-0.4-0.3-0.6-0.6l-14.1-22.4c0,0.3,0,0.7-0.1,1c0,0.3-0.1,0.6-0.1,0.9l-3,21.2h-3.5l4.2-29.8h2.1
			C484.5,120.1,484.8,120.2,485,120.3z"/>
		<path class="st0" d="M533.8,120.1l-0.5,3.4h-9.6l-3.7,26.4h-4l3.7-26.4H510l0.5-3.4H533.8z"/>
	</g>
</g>
</svg>
