<svg width="87" height="32" viewBox="0 0 87 32" fill="none" xmlns="http://www.w3.org/2000/svg">
<g clip-path="url(#clip0_712_2452)">
<path d="M63.1476 5.71423H40.3234V25.835H63.1476V5.71423Z" fill="url(#paint0_linear_712_2452)"/>
<path d="M62.1734 6.64783H41.2649V24.9335H62.1734V6.64783Z" fill="url(#paint1_linear_712_2452)"/>
<path d="M61.9462 6.84094H41.4921V24.7081H61.9462V6.84094Z" fill="url(#paint2_radial_712_2452)"/>
<path opacity="0.65" d="M41.4921 6.84094V24.7081H61.9462V6.84094H41.4921ZM61.7838 24.6116H41.6869V7.0663H61.7838V24.6116Z" fill="#630B0B"/>
<path opacity="0.81" d="M48.7646 16.1126V23.3883C48.7646 23.5492 48.7322 23.6458 48.5698 23.6458C48.44 23.6458 48.3751 23.5492 48.3751 23.3883V22.4225H48.0179C47.6608 22.4225 46.3296 23.5492 46.005 23.7746C45.4206 23.4205 44.7063 23.0985 44.1544 22.9054C43.8622 23.1951 43.6349 23.3883 43.5051 23.517C43.3752 23.6458 43.3103 23.7424 43.2453 23.7424C43.1479 23.7424 43.018 23.6136 43.018 23.517C43.018 23.4205 43.2453 23.1629 44.2518 22.1327C44.966 21.4245 45.2258 20.5553 45.2258 19.2354C45.2258 17.0462 44.2843 15.179 43.1804 15.179C42.8232 15.179 42.6285 15.3078 42.5635 15.6941C42.5311 15.8873 42.4661 15.9194 42.3687 15.9194C42.2064 15.9194 42.1415 15.6619 42.1415 15.2112C42.1415 14.2132 42.8557 13.4084 43.6999 13.4084C44.4466 13.4084 44.7388 14.0201 45.1933 13.9557V12.507C45.1933 12.1206 45.0635 11.7987 44.7712 11.5734C44.544 11.3802 43.2778 10.5432 42.8232 10.5432C42.6609 10.5432 42.596 10.6076 42.4661 10.6076C42.4012 10.6076 42.4012 10.5754 42.4012 10.5432C42.4012 10.4788 42.4337 10.4466 42.5635 10.3178L44.1544 8.74038C44.2193 8.67599 44.2843 8.6438 44.3492 8.6438C44.9011 8.6438 47.0764 10.3822 47.3361 10.3822C47.7582 10.3822 49.9659 8.70819 50.5503 8.70819C50.7126 8.70819 50.8749 8.83696 52.1087 9.83495C52.3035 9.99591 52.7255 10.35 53.0827 10.5754C53.4073 10.7685 53.4398 10.8007 53.4398 11.1871C53.6346 11.1549 53.8619 10.9939 55.128 9.96372C55.4852 9.67398 56.5566 8.80476 56.654 8.80476C56.7514 8.80476 57.628 9.15889 58.9589 9.70617C59.349 9.86714 59.4135 9.89933 59.4135 10.1569V20.5231C59.4135 20.8772 59.4463 20.9738 59.6082 21.1026C60.2253 21.6177 60.5825 21.8108 60.7773 21.8108C60.8424 21.8108 60.9069 21.7786 60.972 21.7142C61.0694 21.5854 61.1016 21.5533 61.1667 21.5533C61.2318 21.5533 61.297 21.6177 61.297 21.7142C61.297 21.843 60.3878 22.9698 59.4786 23.678C58.9266 23.4849 57.9524 22.8088 57.4007 22.2615C57.2059 22.0683 57.1734 22.0362 57.1734 21.682V14.2776C57.1734 13.4084 57.4656 12.8289 58.472 11.4768C58.9917 10.8007 59.024 10.6076 58.9266 10.6076C58.8293 10.6076 57.628 11.4768 57.3682 11.6378C56.2968 11.0261 55.9722 10.8329 55.3878 10.8329C55.0631 10.8329 54.8359 10.9939 54.8359 11.1871V23.517C54.8359 23.678 54.7709 23.8067 54.6411 23.8067C54.5436 23.8067 54.4787 23.7102 54.4787 23.5492V22.6156C53.6021 22.7444 52.9204 23.7424 52.6931 23.7424C52.4658 23.7424 51.1672 22.1649 51.1672 22.0683V16.1126H48.7646ZM48.4075 11.0261C48.4075 10.6398 48.375 10.4788 48.2776 10.4788C48.0828 10.4788 47.466 10.8651 47.466 11.0261V16.5633C47.466 19.2997 47.1413 19.5895 46.4271 20.3621C46.1024 20.7162 46.0375 20.7806 45.7777 21.0703C46.1998 21.6498 47.5959 21.9074 48.4075 21.8752V11.0261ZM48.7646 14.2132H51.1347V12.0241C51.1347 11.6055 49.6088 10.4466 49.1218 10.4466C48.8945 10.4466 48.7646 10.5754 48.7646 10.8329V14.2132ZM54.4463 11.3802C54.4463 11.348 54.4138 11.3158 54.3813 11.3158C54.3164 11.3158 54.219 11.348 54.154 11.3802L53.6995 11.6699C53.4398 11.8309 53.3424 11.9275 53.3424 12.0241V14.0201C53.3424 14.1488 53.5372 14.2454 53.6671 14.2454H54.4463V11.3802ZM54.4463 16.0804H53.6671C53.4398 16.0804 53.3424 16.2414 53.3424 16.5311V20.6518C53.3424 21.4567 53.6995 21.843 54.4138 21.9074V16.0804H54.4463Z" fill="#630B0B"/>
<path d="M48.7646 15.6942V22.9698C48.7646 23.1308 48.7322 23.2274 48.5698 23.2274C48.44 23.2274 48.3751 23.1308 48.3751 22.9698V22.004H48.0179C47.6608 22.004 46.3296 23.1308 46.005 23.3561C45.4206 23.002 44.7063 22.6801 44.1544 22.4869C43.8622 22.7767 43.6349 22.9698 43.5051 23.0986C43.3752 23.2274 43.3103 23.3239 43.2453 23.3239C43.1479 23.3239 43.018 23.1952 43.018 23.0986C43.018 23.002 43.2453 22.7444 44.2518 21.7143C44.966 21.006 45.2258 20.1368 45.2258 18.8169C45.2258 16.6278 44.2843 14.7606 43.1804 14.7606C42.8232 14.7606 42.6285 14.8893 42.5635 15.2756C42.5311 15.4688 42.4661 15.501 42.3687 15.501C42.2064 15.501 42.1415 15.2435 42.1415 14.7927C42.1415 13.7948 42.8557 12.9899 43.6999 12.9899C44.4466 12.9899 44.7388 13.6016 45.1933 13.5372V12.0885C45.1933 11.7022 45.0635 11.3803 44.7712 11.1549C44.544 10.9618 43.2778 10.1247 42.8232 10.1247C42.6609 10.1247 42.596 10.1891 42.4661 10.1891C42.4012 10.1891 42.4012 10.1569 42.4012 10.1247C42.4012 10.0604 42.4337 10.0282 42.5635 9.89939L44.1544 8.32192C44.2193 8.25754 44.2843 8.22534 44.3492 8.22534C44.9011 8.22534 47.0764 9.96377 47.3361 9.96377C47.7582 9.96377 49.9659 8.28972 50.5503 8.28972C50.7126 8.28972 50.8749 8.4185 52.1087 9.41649C52.3035 9.57746 52.7255 9.93158 53.0827 10.1569C53.4073 10.3501 53.4398 10.3823 53.4398 10.7686C53.6346 10.7364 53.8619 10.5754 55.128 9.54526C55.4852 9.25552 56.5566 8.38631 56.654 8.38631C56.7514 8.38631 57.628 8.74043 58.9589 9.28771C59.349 9.44868 59.4135 9.48087 59.4135 9.73842V20.1046C59.4135 20.4587 59.4463 20.5553 59.6082 20.6841C60.2253 21.1992 60.5825 21.3923 60.7773 21.3923C60.8424 21.3923 60.9069 21.3602 60.972 21.2958C61.0694 21.167 61.1016 21.1348 61.1667 21.1348C61.2318 21.1348 61.297 21.1992 61.297 21.2958C61.297 21.4246 60.3878 22.5513 59.4786 23.2595C58.9266 23.0664 57.9524 22.3903 57.4007 21.8431C57.2059 21.6499 57.1734 21.6177 57.1734 21.2636V13.8591C57.1734 12.9899 57.4656 12.4104 58.472 11.0583C58.9917 10.3823 59.024 10.1891 58.9266 10.1891C58.8293 10.1891 57.628 11.0583 57.3682 11.2193C56.2968 10.6076 55.9722 10.4145 55.3878 10.4145C55.0631 10.4145 54.8359 10.5754 54.8359 10.7686V23.0986C54.8359 23.2595 54.7709 23.3883 54.6411 23.3883C54.5436 23.3883 54.4787 23.2918 54.4787 23.1308V22.1972C53.6021 22.3259 52.9204 23.3239 52.6931 23.3239C52.4658 23.3239 51.1672 21.7464 51.1672 21.6499V15.6942H48.7646ZM48.4075 10.6076C48.4075 10.2213 48.375 10.0604 48.2776 10.0604C48.0828 10.0604 47.466 10.4467 47.466 10.6076V16.1448C47.466 18.8813 47.1413 19.171 46.4271 19.9436C46.1024 20.2978 46.0375 20.3622 45.7777 20.6519C46.1998 21.2314 47.5959 21.4889 48.4075 21.4567V10.6076ZM48.7646 13.7948H51.1347V11.6056C51.1347 11.1871 49.6088 10.0282 49.1218 10.0282C48.8945 10.0282 48.7646 10.1569 48.7646 10.4145V13.7948ZM54.4463 10.9618C54.4463 10.9296 54.4138 10.8974 54.3813 10.8974C54.3164 10.8974 54.219 10.9296 54.154 10.9618L53.6995 11.2515C53.4398 11.4125 53.3424 11.5091 53.3424 11.6056V13.6338C53.3424 13.7626 53.5372 13.8591 53.6671 13.8591H54.4463V10.9618ZM54.4463 15.662H53.6671C53.4398 15.662 53.3424 15.823 53.3424 16.1127V20.2334C53.3424 21.0382 53.6995 21.4246 54.4138 21.4889V15.662H54.4463Z" fill="url(#paint3_radial_712_2452)"/>
<path d="M72.3679 15.4688C74.5757 15.1469 75.0626 14.0201 75.0626 12.0563V10.0282C75.0626 7.87121 73.3093 6.80884 69.8028 6.80884C66.2963 6.80884 64.5431 7.87121 64.5431 10.0282V12.4427C64.5431 14.1167 64.9331 15.0181 66.9457 15.34C64.9331 15.7907 64.5431 17.0141 64.5431 18.8169V21.4567C64.5431 23.6137 66.2963 24.7082 69.8028 24.7082C73.3093 24.7082 75.0626 23.6137 75.0626 21.4567V18.8491C75.0626 16.8853 74.5757 15.7586 72.3679 15.4688ZM69.8028 14.342C69.0239 14.342 68.6666 13.9879 68.6666 13.2796V9.83499C68.6666 9.12675 69.0561 8.80481 69.8028 8.80481C70.5824 8.80481 70.9719 9.15893 70.9719 9.83499V13.2475C71.0041 13.9879 70.5824 14.342 69.8028 14.342ZM69.8028 22.6479C69.0239 22.6479 68.6666 22.2937 68.6666 21.5855V17.6902C68.6666 16.9497 69.0561 16.5956 69.8028 16.5956C70.5824 16.5956 70.9719 16.9497 70.9719 17.6902V21.5855C71.0041 22.2937 70.5824 22.6479 69.8028 22.6479Z" fill="url(#paint4_linear_712_2452)"/>
<path d="M69.8355 6.90542C71.5559 6.90542 72.8546 7.16296 73.7315 7.71024C74.5756 8.22533 74.9973 8.99797 74.9973 10.0603V12.0885C74.9973 13.9235 74.5756 15.0825 72.3677 15.4044L71.6856 15.501L72.3677 15.5976C73.4066 15.7263 74.0882 16.0483 74.4782 16.5956C74.8349 17.0784 74.9651 17.7867 74.9651 18.8813V21.4889C74.9651 22.5191 74.5427 23.3239 73.6987 23.839C72.8546 24.3541 71.5237 24.6439 69.8027 24.6439C68.0823 24.6439 66.7836 24.3863 65.9067 23.839C65.0626 23.3239 64.6409 22.5191 64.6409 21.4889V18.8491C64.6409 17.0141 65.0304 15.8873 66.9784 15.4688L67.4652 15.3722L66.9784 15.3078C64.9975 14.9859 64.6731 14.1489 64.6731 12.507V10.0925C64.6731 9.06236 65.0949 8.25753 65.9395 7.74244C66.7836 7.19515 68.1145 6.90542 69.8355 6.90542ZM69.8027 14.4386C70.6468 14.4386 71.0691 14.0201 71.0691 13.2796V9.83499C71.0691 9.09455 70.6145 8.70823 69.8027 8.70823C68.9909 8.70823 68.5691 9.09455 68.5691 9.83499V13.2475C68.5691 14.0201 68.9909 14.4386 69.8027 14.4386ZM69.8027 22.7444C70.6468 22.7444 71.0691 22.3259 71.0691 21.5855V17.6902C71.0691 16.9175 70.6145 16.499 69.8027 16.499C68.9909 16.499 68.5691 16.9175 68.5691 17.6902V21.5855C68.5691 22.3259 68.9909 22.7444 69.8027 22.7444ZM69.8355 6.80884C66.329 6.80884 64.5758 7.87121 64.5758 10.0282V12.4427C64.5758 14.1167 64.9653 15.0181 66.9784 15.34C64.9653 15.7907 64.5758 17.0141 64.5758 18.8169V21.4567C64.5758 23.6137 66.329 24.7082 69.8355 24.7082C73.3415 24.7082 75.0947 23.6137 75.0947 21.4567V18.8491C75.0947 16.8531 74.6079 15.7263 72.4 15.4366C74.6079 15.1147 75.0947 13.9879 75.0947 12.0242V9.99596C75.0624 7.9034 73.3092 6.80884 69.8355 6.80884ZM69.8027 14.342C69.0237 14.342 68.6665 13.9879 68.6665 13.2796V9.83499C68.6665 9.12675 69.056 8.80481 69.8027 8.80481C70.5822 8.80481 70.9717 9.15893 70.9717 9.83499V13.2475C71.004 13.9879 70.5822 14.342 69.8027 14.342ZM69.8027 22.6479C69.0237 22.6479 68.6665 22.2937 68.6665 21.5855V17.6902C68.6665 16.9497 69.056 16.5956 69.8027 16.5956C70.5822 16.5956 70.9717 16.9497 70.9717 17.6902V21.5855C71.004 22.2937 70.5822 22.6479 69.8027 22.6479Z" fill="url(#paint5_linear_712_2452)"/>
<path d="M84.2828 15.4688C86.4907 15.1469 86.9775 14.0201 86.9775 12.0563V10.0282C86.9775 7.87121 85.2243 6.80884 81.7183 6.80884C78.2118 6.80884 76.4586 7.87121 76.4586 10.0282V12.4427C76.4586 14.1167 76.848 15.0181 78.8611 15.34C76.848 15.7907 76.4586 17.0141 76.4586 18.8169V21.4567C76.4586 23.6137 78.2118 24.7082 81.7183 24.7082C85.2243 24.7082 86.9775 23.6137 86.9775 21.4567V18.8491C86.9775 16.8853 86.4907 15.7586 84.2828 15.4688ZM81.7183 14.342C80.9388 14.342 80.5816 13.9879 80.5816 13.2796V9.83499C80.5816 9.12675 80.971 8.80481 81.7183 8.80481C82.4973 8.80481 82.8868 9.15893 82.8868 9.83499V13.2475C82.8868 13.9879 82.4973 14.342 81.7183 14.342ZM81.7183 22.6479C80.9388 22.6479 80.5816 22.2937 80.5816 21.5855V17.6902C80.5816 16.9497 80.971 16.5956 81.7183 16.5956C82.4973 16.5956 82.8868 16.9497 82.8868 17.6902V21.5855C82.8868 22.2937 82.4973 22.6479 81.7183 22.6479Z" fill="url(#paint6_linear_712_2452)"/>
<path d="M81.7183 6.90542C83.4387 6.90542 84.7374 7.16296 85.6143 7.71024C86.4584 8.22533 86.8802 8.99797 86.8802 10.0603V12.0885C86.8802 13.9235 86.4584 15.0825 84.2506 15.4044L83.5684 15.501L84.2506 15.5976C85.2894 15.7263 85.971 16.0483 86.361 16.5956C86.7177 17.0784 86.8479 17.7867 86.8479 18.8813V21.4889C86.8479 22.5191 86.4256 23.3239 85.5815 23.839C84.7374 24.3541 83.4065 24.6439 81.6855 24.6439C79.9651 24.6439 78.6664 24.3863 77.7895 23.839C76.9454 23.3239 76.5237 22.5191 76.5237 21.4889V18.8491C76.5237 17.0141 76.9131 15.8873 78.8611 15.4688L79.348 15.3722L78.8611 15.3078C76.8803 14.9859 76.5559 14.1489 76.5559 12.507V10.0925C76.5559 9.06236 76.9777 8.25753 77.8223 7.74244C78.6987 7.19515 79.9973 6.90542 81.7183 6.90542ZM81.7183 14.4386C82.5624 14.4386 82.9842 14.0201 82.9842 13.2796V9.83499C82.9842 9.09455 82.5296 8.70823 81.7183 8.70823C80.9065 8.70823 80.4842 9.09455 80.4842 9.83499V13.2475C80.4842 14.0201 80.9065 14.4386 81.7183 14.4386ZM81.7183 22.7444C82.5624 22.7444 82.9842 22.3259 82.9842 21.5855V17.6902C82.9842 16.9175 82.5296 16.499 81.7183 16.499C80.9065 16.499 80.4842 16.9175 80.4842 17.6902V21.5855C80.4842 22.3259 80.9065 22.7444 81.7183 22.7444ZM81.7183 6.80884C78.2118 6.80884 76.4586 7.87121 76.4586 10.0282V12.4427C76.4586 14.1167 76.848 15.0181 78.8611 15.34C76.848 15.7907 76.4586 17.0141 76.4586 18.8169V21.4567C76.4586 23.6137 78.2118 24.7082 81.7183 24.7082C85.2243 24.7082 86.9775 23.6137 86.9775 21.4567V18.8491C86.9775 16.8531 86.4907 15.7263 84.2828 15.4366C86.4907 15.1147 86.9775 13.9879 86.9775 12.0242V9.99596C86.9775 7.9034 85.2243 6.80884 81.7183 6.80884ZM81.7183 14.342C80.9388 14.342 80.5816 13.9879 80.5816 13.2796V9.83499C80.5816 9.12675 80.971 8.80481 81.7183 8.80481C82.4973 8.80481 82.8868 9.15893 82.8868 9.83499V13.2475C82.8868 13.9879 82.4973 14.342 81.7183 14.342ZM81.7183 22.6479C80.9388 22.6479 80.5816 22.2937 80.5816 21.5855V17.6902C80.5816 16.9497 80.971 16.5956 81.7183 16.5956C82.4973 16.5956 82.8868 16.9497 82.8868 17.6902V21.5855C82.8868 22.2937 82.4973 22.6479 81.7183 22.6479Z" fill="url(#paint7_linear_712_2452)"/>
<path d="M5.38944 12.6358V10.9295C5.38944 10.6076 5.38944 10.35 5.35697 10.1247C5.3245 9.93152 5.25957 9.77055 5.19464 9.67397C5.09724 9.57739 4.96737 9.48081 4.80504 9.44862C4.64271 9.41643 4.44791 9.38423 4.18817 9.38423C3.92844 9.38423 3.70118 9.41643 3.53885 9.44862C3.37652 9.48081 3.24665 9.57739 3.14925 9.67397C3.05185 9.80275 2.98692 9.93152 2.98692 10.1569C2.92198 10.35 2.92198 10.6076 2.92198 10.9295V20.7484C2.92198 21.1026 2.92198 21.3601 2.95445 21.5532C2.98692 21.7464 3.05185 21.9074 3.11678 22.0362C3.21418 22.1649 3.34405 22.2293 3.50638 22.2615C3.66872 22.2937 3.89598 22.3259 4.15571 22.3259C4.41544 22.3259 4.61024 22.2937 4.77257 22.2615C4.93491 22.2293 5.06477 22.1327 5.16217 22.0362C5.25957 21.9074 5.3245 21.7786 5.3245 21.5532C5.35697 21.3601 5.35697 21.0703 5.35697 20.7484V18.9456H8.18157V20.7484C8.18157 21.6498 8.11664 22.3581 8.01921 22.9054C7.92184 23.4527 7.69455 23.8711 7.40238 24.1287C7.11015 24.4184 6.68811 24.6116 6.16865 24.676C5.64917 24.7726 4.96737 24.8047 4.15571 24.8047C3.27912 24.8047 2.59732 24.7726 2.04539 24.676C1.49346 24.5794 1.0714 24.3863 0.779197 24.1287C0.486997 23.839 0.259732 23.4204 0.162332 22.9054C0.0649331 22.3581 0 21.6498 0 20.7484V10.9295C0 10.0603 0.0649331 9.35204 0.162332 8.80476C0.292198 8.25747 0.486997 7.83896 0.811664 7.58141C1.13633 7.29168 1.55839 7.09852 2.11032 7.03413C2.66225 6.90536 3.34405 6.87317 4.15571 6.87317C4.96737 6.87317 5.64917 6.90536 6.16865 7.00194C6.68811 7.09852 7.11015 7.29168 7.40238 7.54923C7.69455 7.83896 7.92184 8.25747 8.01921 8.77256C8.11664 9.28765 8.18157 10.0281 8.18157 10.9295V12.6358H5.38944Z" fill="url(#paint8_linear_712_2452)"/>
<path d="M16.2007 23.4205H10.2918V8.3219H13.2138V21.2957H16.2007V23.4205Z" fill="url(#paint9_linear_712_2452)"/>
<path d="M21.6876 23.6136C20.8434 23.6136 20.1617 23.5815 19.6097 23.4849C19.0903 23.4205 18.6682 23.2595 18.3435 23.002C18.0514 22.7444 17.8241 22.3903 17.6942 21.9396C17.5644 21.4567 17.5319 20.8451 17.5319 20.0724V8.3219H20.4538V20.0724C20.4538 20.3621 20.4863 20.6197 20.5188 20.7807C20.5513 20.9738 20.6162 21.1026 20.7136 21.1992C20.811 21.2957 20.9409 21.3601 21.1032 21.3923C21.2655 21.4245 21.4928 21.4567 21.7525 21.4567C22.0122 21.4567 22.207 21.4245 22.3694 21.3923C22.5317 21.3601 22.6616 21.2957 22.7265 21.1992C22.8239 21.1026 22.8564 20.9738 22.8889 20.7807C22.9213 20.6197 22.9538 20.3621 22.9538 20.0724V8.3219H25.8109V20.0724C25.8109 20.8451 25.7459 21.4889 25.6485 21.9396C25.5186 22.4225 25.3238 22.7767 24.9992 23.002C24.707 23.2595 24.2849 23.4205 23.733 23.4849C23.2135 23.5815 22.5317 23.6136 21.6876 23.6136Z" fill="url(#paint10_linear_712_2452)"/>
<path d="M34.2197 14.8571C34.4794 14.9215 34.7391 14.9859 34.9664 15.0824C35.1937 15.179 35.3885 15.3078 35.5508 15.501C35.7131 15.6941 35.843 15.9195 35.9079 16.2092C36.0053 16.4989 36.0378 16.8852 36.0378 17.3359V20.3299C36.0378 21.006 35.9729 21.5532 35.8754 21.9718C35.7781 22.3903 35.5508 22.68 35.2261 22.9054C34.9014 23.1307 34.4794 23.2595 33.9274 23.3239C33.3755 23.3883 32.6937 23.4204 31.8171 23.4204H27.6614V8.28967H31.8171C32.6937 8.28967 33.3755 8.32187 33.9274 8.38625C34.4794 8.45064 34.9014 8.6116 35.2261 8.80476C35.5508 9.03011 35.7456 9.31986 35.8754 9.73836C35.9729 10.1247 36.0378 10.672 36.0378 11.348V12.7002C36.0378 13.0864 35.9729 13.4084 35.843 13.6659C35.7131 13.9235 35.5508 14.1166 35.3885 14.2776C35.2261 14.4386 35.0313 14.5351 34.8041 14.6317C34.5768 14.6961 34.4145 14.7605 34.2197 14.7605V14.8571ZM30.5834 13.9879H31.9145C32.4015 13.9879 32.6937 13.9235 32.8561 13.7625C33.0184 13.6338 33.0833 13.3762 33.0833 12.9899V11.3802C33.0833 11.1549 33.0833 10.9617 33.0509 10.8007C33.0184 10.6398 32.9859 10.511 32.8885 10.4466C32.7911 10.35 32.6613 10.2856 32.4989 10.2535C32.3366 10.2213 32.1093 10.2213 31.8496 10.2213H30.6159V13.9879H30.5834ZM30.5834 21.5211H31.8171C32.0769 21.5211 32.3041 21.5211 32.4665 21.4888C32.6288 21.4567 32.7586 21.3923 32.8236 21.3279C32.921 21.2313 32.9534 21.1347 32.9859 20.9738C33.0184 20.8128 33.0509 20.6196 33.0509 20.3621V16.8208C33.0509 16.4023 32.9859 16.1126 32.8561 15.9516C32.7262 15.7907 32.4015 15.7263 31.8821 15.7263H30.5509V21.5211H30.5834Z" fill="url(#paint11_linear_712_2452)"/>
<path d="M4.15571 6.96975C4.96737 6.96975 5.6167 7.00194 6.13615 7.09852C6.62318 7.1951 7.04521 7.35607 7.33744 7.6458C7.62961 7.90335 7.82441 8.28967 7.92184 8.80476C8.01921 9.31985 8.08414 10.0281 8.08414 10.9295V12.507H5.48684V10.9295C5.48684 10.6076 5.48684 10.3178 5.45437 10.1247C5.4219 9.89932 5.35697 9.73836 5.25957 9.60959C5.16217 9.48081 4.99984 9.41643 4.80504 9.35204C4.64271 9.31985 4.41544 9.28765 4.15571 9.28765C3.86351 9.28765 3.63625 9.31985 3.47392 9.35204C3.27912 9.38423 3.14925 9.48081 3.01938 9.60959C2.92198 9.73836 2.85705 9.93152 2.82458 10.1569C2.79212 10.35 2.79212 10.6398 2.79212 10.9295V20.7484C2.79212 21.1026 2.79212 21.3601 2.82458 21.5854C2.85705 21.8108 2.92198 22.0039 3.01938 22.1327C3.11678 22.2615 3.27912 22.3581 3.47392 22.3903C3.63625 22.4224 3.86351 22.4547 4.15571 22.4547C4.41544 22.4547 4.64271 22.4224 4.80504 22.3903C4.99984 22.3581 5.1297 22.2615 5.25957 22.1327C5.35697 22.0039 5.4219 21.8108 5.45437 21.5854C5.48684 21.3923 5.48684 21.1026 5.48684 20.7484V19.0422H8.08414V20.7484C8.08414 21.6498 8.01921 22.3581 7.92184 22.8732C7.82441 23.3883 7.62961 23.7746 7.33744 24.0643C7.04521 24.3219 6.65562 24.515 6.13615 24.6116C5.6167 24.7082 4.93491 24.7404 4.15571 24.7404C3.31158 24.7404 2.59732 24.7082 2.07785 24.6116C1.55839 24.515 1.1688 24.354 0.876597 24.0643C0.584398 23.8068 0.389598 23.3883 0.292198 22.8732C0.194799 22.3581 0.129866 21.6176 0.129866 20.7484V10.9295C0.129866 10.0603 0.194799 9.35204 0.292198 8.83695C0.389598 8.32186 0.616865 7.93554 0.909064 7.6458C1.20126 7.38826 1.62332 7.1951 2.14279 7.09852C2.66225 7.03413 3.34405 6.96975 4.15571 6.96975ZM4.15571 6.87317C3.31158 6.87317 2.62979 6.90536 2.11032 7.00194C1.55839 7.09852 1.13633 7.29168 0.811664 7.54923C0.486997 7.83896 0.292198 8.25747 0.162332 8.77256C0.0649331 9.35204 0 10.0603 0 10.9295V20.7484C0 21.6498 0.0649331 22.3581 0.162332 22.9054C0.259732 23.4527 0.486997 23.8711 0.779197 24.1287C1.0714 24.4184 1.49346 24.6116 2.04539 24.676C2.59732 24.7726 3.27912 24.8047 4.15571 24.8047C4.96737 24.8047 5.64917 24.7726 6.16865 24.676C6.68811 24.5794 7.11015 24.3863 7.40238 24.1287C7.69455 23.839 7.92184 23.4204 8.01921 22.9054C8.11664 22.3581 8.18157 21.6498 8.18157 20.7484V18.9456H5.35697V20.7484C5.35697 21.1026 5.35697 21.3601 5.3245 21.5532C5.29204 21.7464 5.2271 21.9074 5.16217 22.0362C5.06477 22.1649 4.93491 22.2293 4.77257 22.2615C4.61024 22.3259 4.41544 22.3259 4.15571 22.3259C3.89598 22.3259 3.66872 22.2937 3.50638 22.2615C3.34405 22.2293 3.21418 22.1327 3.11678 22.0362C3.01938 21.9074 2.95445 21.7786 2.95445 21.5532C2.92198 21.3601 2.92198 21.0703 2.92198 20.7484V10.9295C2.92198 10.6076 2.92198 10.35 2.95445 10.1569C2.98692 9.96371 3.05185 9.80275 3.11678 9.67397C3.21418 9.5452 3.34405 9.48081 3.50638 9.44862C3.66872 9.41643 3.89598 9.38423 4.15571 9.38423C4.41544 9.38423 4.61024 9.41643 4.77257 9.44862C4.93491 9.48081 5.06477 9.57739 5.16217 9.67397C5.25957 9.77055 5.3245 9.93152 5.3245 10.1247C5.35697 10.3178 5.35697 10.6076 5.35697 10.9295V12.6358H8.18157V10.9295C8.18157 10.0281 8.11664 9.31985 8.01921 8.77256C7.92184 8.25747 7.69455 7.83896 7.40238 7.54923C7.11015 7.25948 6.68811 7.06633 6.16865 7.00194C5.64917 6.90536 4.96737 6.87317 4.15571 6.87317Z" fill="white"/>
<path d="M13.1164 8.41848V21.2636V21.3601H13.2463H16.1358V23.2595H10.4217V8.41848H13.1164ZM13.2138 8.3219H10.2918V23.4205H16.2007V21.2957H13.2138V8.3219Z" fill="white"/>
<path d="M25.681 8.41848V20.0724C25.681 20.8451 25.6161 21.4567 25.5186 21.9074C25.4213 22.3581 25.194 22.68 24.9342 22.9376C24.6421 23.1629 24.2525 23.3239 23.733 23.3883C23.2135 23.4527 22.5317 23.5171 21.7201 23.5171C20.8759 23.5171 20.1941 23.4849 19.6746 23.3883C19.1552 23.3239 18.7656 23.1629 18.4734 22.9376C18.1812 22.7123 17.9864 22.3581 17.889 21.9074C17.7592 21.4567 17.7267 20.8451 17.7267 20.0724V8.41848H20.4214V20.0724C20.4214 20.3943 20.4538 20.6197 20.4863 20.8128C20.5188 21.006 20.5837 21.167 20.7136 21.2636C20.811 21.3601 20.9733 21.4567 21.1357 21.4889C21.298 21.5211 21.5253 21.5533 21.8174 21.5533C22.0772 21.5533 22.3045 21.5211 22.4668 21.4889C22.6616 21.4567 22.7914 21.3601 22.8889 21.2636C22.9862 21.167 23.0512 21.006 23.0837 20.8128C23.1161 20.6197 23.1486 20.3943 23.1486 20.0724V8.41848H25.681ZM25.8109 8.3219H22.9538V20.0724C22.9538 20.3621 22.9213 20.6197 22.8889 20.7807C22.8564 20.9738 22.7914 21.1026 22.7265 21.1992C22.6291 21.2957 22.5317 21.3601 22.3694 21.3923C22.207 21.4245 22.0122 21.4567 21.7525 21.4567C21.4928 21.4567 21.2655 21.4245 21.1032 21.3923C20.9409 21.3601 20.811 21.2957 20.7136 21.1992C20.6162 21.1026 20.5513 20.9738 20.5188 20.7807C20.4863 20.6197 20.4538 20.3621 20.4538 20.0724V8.3219H17.5319V20.0724C17.5319 20.8451 17.5968 21.4889 17.6942 21.9396C17.8241 22.4225 18.0189 22.7767 18.3435 23.002C18.6358 23.2595 19.0578 23.4205 19.6097 23.4849C20.1292 23.5493 20.8434 23.6136 21.6876 23.6136C22.5317 23.6136 23.2135 23.5815 23.733 23.4849C24.2525 23.4205 24.6745 23.2595 24.9992 23.002C25.2914 22.7444 25.5186 22.3903 25.6485 21.9396C25.7784 21.4567 25.8109 20.8451 25.8109 20.0724V8.3219Z" fill="white"/>
<path d="M31.8496 8.38625C32.6937 8.38625 33.408 8.41844 33.9274 8.48283C34.4469 8.54722 34.869 8.67599 35.1612 8.90134C35.4534 9.0945 35.6482 9.38424 35.7456 9.77056C35.843 10.1569 35.9079 10.7042 35.9079 11.348V12.7002C35.9079 13.0864 35.843 13.4084 35.7131 13.6338C35.5833 13.8913 35.4534 14.0844 35.291 14.2132C35.1287 14.342 34.9339 14.4708 34.7391 14.5351C34.5443 14.5995 34.3495 14.6639 34.1872 14.6639H34.0898V14.7605V14.8249V14.9215L34.1872 14.9536C34.4469 15.018 34.6742 15.0824 34.9014 15.1468C35.0962 15.2434 35.291 15.3722 35.4209 15.5331C35.5833 15.6941 35.6806 15.9195 35.7781 16.2092C35.8754 16.4989 35.9079 16.8531 35.9079 17.3038V20.2977C35.9079 20.9738 35.843 21.4888 35.7456 21.9074C35.6482 22.2937 35.4534 22.5834 35.1612 22.7766C34.869 22.9698 34.4469 23.1307 33.9274 23.1951C33.408 23.2595 32.6937 23.2917 31.8496 23.2917H27.7913V8.38625H31.8496ZM30.486 14.0844H30.6159H31.947C32.4665 14.0844 32.7911 14.02 32.9534 13.8269C33.1158 13.6659 33.2132 13.3762 33.2132 12.9899V11.3802C33.2132 11.1549 33.2132 10.9617 33.1807 10.8007C33.1482 10.6398 33.0833 10.4788 32.9859 10.3822C32.8885 10.2856 32.7262 10.1891 32.5314 10.1569C32.3366 10.0925 32.1093 10.0925 31.8496 10.0925H30.6159H30.486V10.1891V13.9879V14.0844ZM30.486 21.6176H30.6159H31.8496C32.1418 21.6176 32.3366 21.5855 32.5314 21.5532C32.7262 21.5211 32.8561 21.4567 32.9534 21.3601C33.0509 21.2635 33.1158 21.1347 33.1482 20.9416C33.1807 20.7806 33.2132 20.5552 33.2132 20.2977V16.8208C33.2132 16.3702 33.1482 16.0804 32.9859 15.8872C32.8236 15.6941 32.4665 15.5975 31.947 15.5975H30.6159H30.486V15.6941V21.4888V21.6176ZM31.8496 8.28967H27.6614V23.4204H31.8171C32.6937 23.4204 33.3755 23.3883 33.9274 23.3239C34.4794 23.2595 34.9014 23.0985 35.2261 22.9054C35.5508 22.68 35.7456 22.3903 35.8754 21.9718C35.9729 21.5532 36.0378 21.006 36.0378 20.3299V17.3359C36.0378 16.8852 36.0053 16.4989 35.9079 16.2092C35.8105 15.9195 35.7131 15.6619 35.5508 15.501C35.3885 15.3078 35.1937 15.179 34.9664 15.0824C34.7391 14.9859 34.5118 14.9215 34.2197 14.8571V14.7927C34.382 14.7927 34.5768 14.7283 34.8041 14.6639C35.0313 14.5995 35.2261 14.4708 35.3885 14.3098C35.5508 14.1488 35.7131 13.9556 35.843 13.6981C35.9729 13.4406 36.0378 13.1187 36.0378 12.7323V11.3802C36.0378 10.7042 35.9729 10.1569 35.8754 9.77056C35.7781 9.38424 35.5508 9.06231 35.2261 8.83696C34.9014 8.6116 34.4794 8.48283 33.9274 8.41844C33.408 8.32187 32.6937 8.28967 31.8496 8.28967ZM30.5834 13.9879V10.1891H31.8171C32.0769 10.1891 32.3041 10.1891 32.4665 10.2213C32.6288 10.2535 32.7586 10.3178 32.8561 10.4144C32.9534 10.511 32.9859 10.6398 33.0184 10.7685C33.0509 10.9295 33.0509 11.1227 33.0509 11.348V12.9899C33.0509 13.3762 32.9859 13.6015 32.8236 13.7625C32.6613 13.8913 32.369 13.9879 31.8821 13.9879H30.5834ZM30.5834 21.5211V15.7263H31.9145C32.434 15.7263 32.7586 15.7907 32.8885 15.9516C33.0184 16.1126 33.0833 16.4023 33.0833 16.8208V20.2977C33.0833 20.5552 33.0509 20.7484 33.0184 20.9094C32.9859 21.0703 32.921 21.1991 32.8561 21.2635C32.7586 21.3601 32.6613 21.3923 32.4989 21.4245C32.3366 21.4567 32.1093 21.4567 31.8496 21.4567H30.5834V21.5211Z" fill="white"/>
</g>
<defs>
<linearGradient id="paint0_linear_712_2452" x1="51.7223" y1="5.81548" x2="51.7223" y2="28.17" gradientUnits="userSpaceOnUse">
<stop stop-color="#FECF82"/>
<stop offset="0.219" stop-color="#FECF82"/>
<stop offset="0.2551" stop-color="#FECF82"/>
<stop offset="0.3665" stop-color="#FCCD80"/>
<stop offset="0.4066" stop-color="#F5C87B"/>
<stop offset="0.4352" stop-color="#EABE71"/>
<stop offset="0.4583" stop-color="#D9B063"/>
<stop offset="0.4779" stop-color="#C39F52"/>
<stop offset="0.4901" stop-color="#B19043"/>
<stop offset="1" stop-color="#FECF82"/>
</linearGradient>
<linearGradient id="paint1_linear_712_2452" x1="51.7223" y1="6.73111" x2="51.7223" y2="27.0322" gradientUnits="userSpaceOnUse">
<stop stop-color="#D6B26D"/>
<stop offset="0.1732" stop-color="#E1C18B"/>
<stop offset="0.4041" stop-color="#EED3AD"/>
<stop offset="0.6241" stop-color="#F7DFC5"/>
<stop offset="0.8266" stop-color="#FCE6D4"/>
<stop offset="0.9949" stop-color="#FEE9D9"/>
</linearGradient>
<radialGradient id="paint2_radial_712_2452" cx="0" cy="0" r="1" gradientUnits="userSpaceOnUse" gradientTransform="translate(52.1703 7.78571) scale(36.3189 17.8697)">
<stop stop-color="#F95346"/>
<stop offset="0.195" stop-color="#DC3631"/>
<stop offset="0.3833" stop-color="#C62021"/>
<stop offset="0.5051" stop-color="#BE181B"/>
<stop offset="1" stop-color="#C7120C"/>
</radialGradient>
<radialGradient id="paint3_radial_712_2452" cx="0" cy="0" r="1" gradientUnits="userSpaceOnUse" gradientTransform="translate(51.5348 10.7013) scale(19.165 19.0037)">
<stop stop-color="white"/>
<stop offset="0.1767" stop-color="#FAFAFB"/>
<stop offset="0.3752" stop-color="#EDEDEE"/>
<stop offset="0.5843" stop-color="#D6D7D8"/>
<stop offset="0.7992" stop-color="#B7B8BA"/>
<stop offset="1" stop-color="#939598"/>
</radialGradient>
<linearGradient id="paint4_linear_712_2452" x1="69.823" y1="5.40756" x2="69.823" y2="27.9974" gradientUnits="userSpaceOnUse">
<stop stop-color="white"/>
<stop offset="0.1415" stop-color="#FAFAFB"/>
<stop offset="0.315" stop-color="#EBEDF0"/>
<stop offset="0.5052" stop-color="#D2D6DE"/>
<stop offset="0.7061" stop-color="#AFB7C5"/>
<stop offset="0.7345" stop-color="#AAB2C1"/>
<stop offset="0.7905" stop-color="#C3C8D3"/>
<stop offset="0.8779" stop-color="#E4E6EB"/>
<stop offset="0.9509" stop-color="#F8F8FA"/>
<stop offset="1" stop-color="white"/>
</linearGradient>
<linearGradient id="paint5_linear_712_2452" x1="69.8229" y1="25.3632" x2="69.8229" y2="5.77859" gradientUnits="userSpaceOnUse">
<stop stop-color="white"/>
<stop offset="0.1415" stop-color="#FAFAFB"/>
<stop offset="0.315" stop-color="#EBEDF0"/>
<stop offset="0.5052" stop-color="#D2D6DE"/>
<stop offset="0.7061" stop-color="#AFB7C5"/>
<stop offset="0.7345" stop-color="#AAB2C1"/>
<stop offset="0.7905" stop-color="#C3C8D3"/>
<stop offset="0.8779" stop-color="#E4E6EB"/>
<stop offset="0.9509" stop-color="#F8F8FA"/>
<stop offset="1" stop-color="white"/>
</linearGradient>
<linearGradient id="paint6_linear_712_2452" x1="81.7293" y1="5.40756" x2="81.7293" y2="27.9974" gradientUnits="userSpaceOnUse">
<stop stop-color="white"/>
<stop offset="0.1415" stop-color="#FAFAFB"/>
<stop offset="0.315" stop-color="#EBEDF0"/>
<stop offset="0.5052" stop-color="#D2D6DE"/>
<stop offset="0.7061" stop-color="#AFB7C5"/>
<stop offset="0.7345" stop-color="#AAB2C1"/>
<stop offset="0.7905" stop-color="#C3C8D3"/>
<stop offset="0.8779" stop-color="#E4E6EB"/>
<stop offset="0.9509" stop-color="#F8F8FA"/>
<stop offset="1" stop-color="white"/>
</linearGradient>
<linearGradient id="paint7_linear_712_2452" x1="81.7293" y1="25.3632" x2="81.7293" y2="5.77859" gradientUnits="userSpaceOnUse">
<stop stop-color="white"/>
<stop offset="0.1415" stop-color="#FAFAFB"/>
<stop offset="0.315" stop-color="#EBEDF0"/>
<stop offset="0.5052" stop-color="#D2D6DE"/>
<stop offset="0.7061" stop-color="#AFB7C5"/>
<stop offset="0.7345" stop-color="#AAB2C1"/>
<stop offset="0.7905" stop-color="#C3C8D3"/>
<stop offset="0.8779" stop-color="#E4E6EB"/>
<stop offset="0.9509" stop-color="#F8F8FA"/>
<stop offset="1" stop-color="white"/>
</linearGradient>
<linearGradient id="paint8_linear_712_2452" x1="4.10185" y1="6.86409" x2="4.10185" y2="24.8296" gradientUnits="userSpaceOnUse">
<stop stop-color="white"/>
<stop offset="0.1415" stop-color="#FAFAFB"/>
<stop offset="0.315" stop-color="#EBEDF0"/>
<stop offset="0.5052" stop-color="#D2D6DE"/>
<stop offset="0.7061" stop-color="#AFB7C5"/>
<stop offset="0.7345" stop-color="#AAB2C1"/>
<stop offset="0.7905" stop-color="#C3C8D3"/>
<stop offset="0.8779" stop-color="#E4E6EB"/>
<stop offset="0.9509" stop-color="#F8F8FA"/>
<stop offset="1" stop-color="white"/>
</linearGradient>
<linearGradient id="paint9_linear_712_2452" x1="13.2532" y1="8.3276" x2="13.2532" y2="23.4149" gradientUnits="userSpaceOnUse">
<stop stop-color="white"/>
<stop offset="0.1415" stop-color="#FAFAFB"/>
<stop offset="0.315" stop-color="#EBEDF0"/>
<stop offset="0.5052" stop-color="#D2D6DE"/>
<stop offset="0.7061" stop-color="#AFB7C5"/>
<stop offset="0.7345" stop-color="#AAB2C1"/>
<stop offset="0.7905" stop-color="#C3C8D3"/>
<stop offset="0.8779" stop-color="#E4E6EB"/>
<stop offset="0.9509" stop-color="#F8F8FA"/>
<stop offset="1" stop-color="white"/>
</linearGradient>
<linearGradient id="paint10_linear_712_2452" x1="21.6788" y1="8.3276" x2="21.6788" y2="23.6276" gradientUnits="userSpaceOnUse">
<stop stop-color="white"/>
<stop offset="0.1415" stop-color="#FAFAFB"/>
<stop offset="0.315" stop-color="#EBEDF0"/>
<stop offset="0.5052" stop-color="#D2D6DE"/>
<stop offset="0.7061" stop-color="#AFB7C5"/>
<stop offset="0.7345" stop-color="#AAB2C1"/>
<stop offset="0.7905" stop-color="#C3C8D3"/>
<stop offset="0.8779" stop-color="#E4E6EB"/>
<stop offset="0.9509" stop-color="#F8F8FA"/>
<stop offset="1" stop-color="white"/>
</linearGradient>
<linearGradient id="paint11_linear_712_2452" x1="31.8479" y1="8.28008" x2="31.8479" y2="23.4148" gradientUnits="userSpaceOnUse">
<stop stop-color="white"/>
<stop offset="0.1415" stop-color="#FAFAFB"/>
<stop offset="0.315" stop-color="#EBEDF0"/>
<stop offset="0.5052" stop-color="#D2D6DE"/>
<stop offset="0.7061" stop-color="#AFB7C5"/>
<stop offset="0.7345" stop-color="#AAB2C1"/>
<stop offset="0.7905" stop-color="#C3C8D3"/>
<stop offset="0.8779" stop-color="#E4E6EB"/>
<stop offset="0.9509" stop-color="#F8F8FA"/>
<stop offset="1" stop-color="white"/>
</linearGradient>
<clipPath id="clip0_712_2452">
<rect width="87" height="20.5714" fill="white" transform="translate(0 5.71423)"/>
</clipPath>
</defs>
</svg>
