<svg xmlns="http://www.w3.org/2000/svg" xmlns:xlink="http://www.w3.org/1999/xlink" viewBox="0 0 731.8 192"><defs><linearGradient id="GradientFill_8" x1="62.93" y1="59.17" x2="118.05" y2="120.38" gradientUnits="userSpaceOnUse"><stop offset="0" stop-color="#e7e8e9"/><stop offset="0.11" stop-color="#ebeced"/><stop offset="0.6" stop-color="#fafafa"/><stop offset="1" stop-color="#fff"/></linearGradient><linearGradient id="GradientFill_5" x1="121.94" y1="135.89" x2="70.04" y2="55.98" gradientUnits="userSpaceOnUse"><stop offset="0" stop-color="#808285"/><stop offset="0.06" stop-color="#8b8c8f"/><stop offset="0.37" stop-color="#bcbebf"/><stop offset="0.64" stop-color="#e1e1e2"/><stop offset="0.86" stop-color="#f7f7f7"/><stop offset="1" stop-color="#fff"/></linearGradient><linearGradient id="GradientFill_3" x1="58.53" y1="60.94" x2="132.54" y2="129.95" gradientUnits="userSpaceOnUse"><stop offset="0" stop-color="#e7e8e9"/><stop offset="1" stop-color="#fff"/></linearGradient><radialGradient id="GradientFill_7" cx="57.45" cy="40.58" r="46.7" gradientTransform="matrix(0.38, 0.91, -0.91, 0.38, 105.92, 37.18)" gradientUnits="userSpaceOnUse"><stop offset="0" stop-color="#fff"/><stop offset="0.28" stop-color="#f8f9f9"/><stop offset="0.68" stop-color="#e5e7e7"/><stop offset="1" stop-color="#d1d3d4"/></radialGradient></defs><g style="isolation:isolate"><g id="圖層_1" data-name="圖層 1"><path d="M718.5,32.7a17.7,17.7,0,0,0-13.6-6h-523l-.6-3.8A17.6,17.6,0,0,0,164,8.5a17.2,17.2,0,0,0-12.2,5l-4.2,4.2A94.9,94.9,0,0,0,92.2,0,92,92,0,0,0,49.3,10.6,88.8,88.8,0,0,0,21.1,34.2H21c-1.3,1.7-2.4,3.2-3.3,4.6A89.4,89.4,0,0,0,2.5,81.6,27.5,27.5,0,0,0,7,99.2a16.4,16.4,0,0,0-3,2.9,16.9,16.9,0,0,0-3.7,14l9.2,53A17.5,17.5,0,0,0,39,178.5l4.1-4.2A95.3,95.3,0,0,0,98.5,192a92.4,92.4,0,0,0,43-10.6,90.8,90.8,0,0,0,21.2-15.8H558.8a13.5,13.5,0,0,0,13.1-11.5l5.3-37.9a14.1,14.1,0,0,0-.2-4.6H694.1c10.7,0,20.7-8.7,22.2-19.4l6.3-45A17.8,17.8,0,0,0,718.5,32.7Z" fill="#fff"/><path d="M712.2,91.6l6.4-44.9c1.2-8.9-4.9-16-13.8-16H82.7v76.9H694A18.9,18.9,0,0,0,712.2,91.6Z" fill="#222939"/><path d="M558.8,161.6H117.2a6.8,6.8,0,0,1-6.9-8l5.3-38a9.5,9.5,0,0,1,9.2-8H566.4a6.8,6.8,0,0,1,6.9,8l-5.4,38A9.5,9.5,0,0,1,558.8,161.6Z" fill="#c9334e"/><path d="M238.5,43.8l-1,7.7H214.6l-2,14.3h18l-1,7.3h-18l-2.1,14.6h22.9l-1.1,7.7H198.8L206,43.8Z" fill="#999"/><path d="M255.7,68.9,242.8,43.8h9.5a2.2,2.2,0,0,1,1.4.3,2.2,2.2,0,0,1,.7.9l9.1,18.9a4.1,4.1,0,0,1,.5-.9l.6-.9,13.1-17a3.1,3.1,0,0,1,2.3-1.3h9.2L269.1,68.5l13.3,26.9h-9.6a2.3,2.3,0,0,1-1.5-.5,5,5,0,0,1-.8-1.2L261.3,74l-.4.8-.5.7-14,18.2-1.1,1.2a2.5,2.5,0,0,1-1.5.5h-9Z" fill="#999"/><path d="M331.6,43.8l-1.1,7.9H315l-6.2,43.7h-9.6l6.2-43.7H289.8l1.1-7.9Z" fill="#999"/><path d="M343.2,75.2l-2.9,20.2h-9.5L338,43.8h15.7a32.2,32.2,0,0,1,8.9,1.1,14.1,14.1,0,0,1,5.7,3.1,8.9,8.9,0,0,1,2.9,4.7,14.8,14.8,0,0,1,.3,6,17.3,17.3,0,0,1-1.5,4.9,16.2,16.2,0,0,1-2.8,4.2,19,19,0,0,1-4,3.3,21.5,21.5,0,0,1-5.1,2.3,8.4,8.4,0,0,1,2.7,2.9L371,95.4h-8.6a4.3,4.3,0,0,1-2.1-.5,5.8,5.8,0,0,1-1.3-1.4l-8.5-16.6a3.6,3.6,0,0,0-1.1-1.3,5.6,5.6,0,0,0-2.1-.4Zm.9-6.8h6a17.3,17.3,0,0,0,4.8-.7,11.1,11.1,0,0,0,3.6-1.9,9.2,9.2,0,0,0,2.4-2.8,10.8,10.8,0,0,0,1.1-3.6c.4-2.6-.2-4.7-1.7-6.1s-4.1-2.1-7.6-2.1h-6.2Z" fill="#999"/><path d="M422.4,95.4H415a2.7,2.7,0,0,1-1.9-.6,3.9,3.9,0,0,1-1-1.6l-2.3-10.5H388.4l-5.3,10.5a3.9,3.9,0,0,1-1.4,1.5,3.1,3.1,0,0,1-2.1.7h-7.5l27.5-51.6h9.8ZM391.8,75.9h16.4l-3.8-17.1q-.3-1.2-.6-2.7c-.2-1.1-.4-2.2-.5-3.4l-1.5,3.4c-.5,1-.9,2-1.3,2.7Z" fill="#999"/><path d="M454.3,75.2l-2.9,20.2h-9.6l7.3-51.6h15.7a32.2,32.2,0,0,1,8.9,1.1,14.1,14.1,0,0,1,5.7,3.1,9.6,9.6,0,0,1,2.9,4.7,14.8,14.8,0,0,1,.3,6,21.3,21.3,0,0,1-1.5,4.9,16.2,16.2,0,0,1-2.8,4.2,22,22,0,0,1-4,3.3,22.2,22.2,0,0,1-5.2,2.3,7.8,7.8,0,0,1,2.8,2.9l10.2,19.1h-8.6a4.1,4.1,0,0,1-2.1-.5,4.4,4.4,0,0,1-1.3-1.4l-8.5-16.6a3.6,3.6,0,0,0-1.1-1.3,5.6,5.6,0,0,0-2.1-.4Zm.9-6.8h6a17.3,17.3,0,0,0,4.8-.7,12.3,12.3,0,0,0,3.6-1.9A9.2,9.2,0,0,0,472,63a13.7,13.7,0,0,0,1.1-3.6c.4-2.6-.2-4.7-1.7-6.1s-4.1-2.1-7.6-2.1h-6.2Z" fill="#999"/><path d="M528,43.8l-1.1,7.7H504.1L502,65.8h18l-1,7.3H501l-2,14.6h22.8l-1.1,7.7H488.2l7.3-51.6Z" fill="#999"/><path d="M529,95.4l7.3-51.6h17.8a30,30,0,0,1,8.5,1,13.5,13.5,0,0,1,5.5,2.7,9,9,0,0,1,2.7,4.3,13.7,13.7,0,0,1,.3,5.8,13.3,13.3,0,0,1-1,3.4,10.6,10.6,0,0,1-2.1,3.1,16.9,16.9,0,0,1-3.2,2.7,25.3,25.3,0,0,1-4.4,1.9c6.8,1.6,9.8,5.5,9,11.5a16.4,16.4,0,0,1-2.1,6.1,17.7,17.7,0,0,1-4.3,4.8,20.1,20.1,0,0,1-6.4,3.1,25.5,25.5,0,0,1-8.1,1.2Zm12.8-22.6-2.1,15.1h9.7a12.7,12.7,0,0,0,4.6-.7,7.8,7.8,0,0,0,3.1-1.7A6.7,6.7,0,0,0,559,83a9.5,9.5,0,0,0,.8-6,4.8,4.8,0,0,0-1.3-2.3,6.7,6.7,0,0,0-2.8-1.4,12.7,12.7,0,0,0-4.2-.5Zm.9-6.7h7.7c3.3,0,5.8-.5,7.7-1.7a7.9,7.9,0,0,0,3.3-5.7q.6-4.1-1.5-5.7T553,51.2h-8.2Z" fill="#999"/><path d="M620.8,95.4h-7.4a3.2,3.2,0,0,1-2-.6,2.9,2.9,0,0,1-.9-1.6l-2.4-10.5H586.8l-5.4,10.5a3.6,3.6,0,0,1-1.3,1.5,3.2,3.2,0,0,1-2.2.7h-7.4L598,43.8h9.8ZM590.2,75.9h16.4l-3.9-17.1c-.1-.8-.3-1.7-.5-2.7l-.6-3.4c-.5,1.2-1,2.3-1.4,3.4a22.3,22.3,0,0,1-1.4,2.7Z" fill="#999"/><path d="M664.4,43.8l-1.1,7.9H647.8l-6.1,43.7h-9.6l6.1-43.7H622.7l1.1-7.9Z" fill="#999"/><path d="M703,43.8l-1,7.7H679.1l-2,14.3h18l-1,7.3h-18L674,87.7h22.9l-1.1,7.7H663.3l7.2-51.6Z" fill="#999"/><path d="M238.5,43.8l-1,7.7H214.6l-2,14.3h18l-1,7.3h-18l-2.1,14.6h22.9l-1.1,7.7H198.8L206,43.8Z" fill="#fff"/><path d="M255.7,68.9,242.8,43.8h9.5a2.2,2.2,0,0,1,1.4.3,2.2,2.2,0,0,1,.7.9l9.1,18.9a4.1,4.1,0,0,1,.5-.9l.6-.9,13.1-17a3.1,3.1,0,0,1,2.3-1.3h9.2L269.1,68.5l13.3,26.9h-9.6a2.3,2.3,0,0,1-1.5-.5,5,5,0,0,1-.8-1.2L261.3,74l-.4.8-.5.7-14,18.2-1.1,1.2a2.5,2.5,0,0,1-1.5.5h-9Z" fill="#fff"/><path d="M331.6,43.8l-1.1,7.9H315l-6.2,43.7h-9.6l6.2-43.7H289.8l1.1-7.9Z" fill="#fff"/><path d="M343.2,75.2l-2.9,20.2h-9.5L338,43.8h15.7a32.2,32.2,0,0,1,8.9,1.1,14.1,14.1,0,0,1,5.7,3.1,8.9,8.9,0,0,1,2.9,4.7,14.8,14.8,0,0,1,.3,6,17.3,17.3,0,0,1-1.5,4.9,16.2,16.2,0,0,1-2.8,4.2,19,19,0,0,1-4,3.3,21.5,21.5,0,0,1-5.1,2.3,8.4,8.4,0,0,1,2.7,2.9L371,95.4h-8.6a4.3,4.3,0,0,1-2.1-.5,5.8,5.8,0,0,1-1.3-1.4l-8.5-16.6a3.6,3.6,0,0,0-1.1-1.3,5.6,5.6,0,0,0-2.1-.4Zm.9-6.8h6a17.3,17.3,0,0,0,4.8-.7,11.1,11.1,0,0,0,3.6-1.9,9.2,9.2,0,0,0,2.4-2.8,10.8,10.8,0,0,0,1.1-3.6c.4-2.6-.2-4.7-1.7-6.1s-4.1-2.1-7.6-2.1h-6.2Z" fill="#fff"/><path d="M422.4,95.4H415a2.7,2.7,0,0,1-1.9-.6,3.9,3.9,0,0,1-1-1.6l-2.3-10.5H388.4l-5.3,10.5a3.9,3.9,0,0,1-1.4,1.5,3.1,3.1,0,0,1-2.1.7h-7.5l27.5-51.6h9.8ZM391.8,75.9h16.4l-3.8-17.1q-.3-1.2-.6-2.7c-.2-1.1-.4-2.2-.5-3.4l-1.5,3.4c-.5,1-.9,2-1.3,2.7Z" fill="#fff"/><path d="M454.3,75.2l-2.9,20.2h-9.6l7.3-51.6h15.7a32.2,32.2,0,0,1,8.9,1.1,14.1,14.1,0,0,1,5.7,3.1,9.6,9.6,0,0,1,2.9,4.7,14.8,14.8,0,0,1,.3,6,21.3,21.3,0,0,1-1.5,4.9,16.2,16.2,0,0,1-2.8,4.2,22,22,0,0,1-4,3.3,22.2,22.2,0,0,1-5.2,2.3,7.8,7.8,0,0,1,2.8,2.9l10.2,19.1h-8.6a4.1,4.1,0,0,1-2.1-.5,4.4,4.4,0,0,1-1.3-1.4l-8.5-16.6a3.6,3.6,0,0,0-1.1-1.3,5.6,5.6,0,0,0-2.1-.4Zm.9-6.8h6a17.3,17.3,0,0,0,4.8-.7,12.3,12.3,0,0,0,3.6-1.9A9.2,9.2,0,0,0,472,63a13.7,13.7,0,0,0,1.1-3.6c.4-2.6-.2-4.7-1.7-6.1s-4.1-2.1-7.6-2.1h-6.2Z" fill="#fff"/><path d="M528,43.8l-1.1,7.7H504.1L502,65.8h18l-1,7.3H501l-2,14.6h22.8l-1.1,7.7H488.2l7.3-51.6Z" fill="#fff"/><path d="M529,95.4l7.3-51.6h17.8a30,30,0,0,1,8.5,1,13.5,13.5,0,0,1,5.5,2.7,9,9,0,0,1,2.7,4.3,13.7,13.7,0,0,1,.3,5.8,13.3,13.3,0,0,1-1,3.4,10.6,10.6,0,0,1-2.1,3.1,16.9,16.9,0,0,1-3.2,2.7,25.3,25.3,0,0,1-4.4,1.9c6.8,1.6,9.8,5.5,9,11.5a16.4,16.4,0,0,1-2.1,6.1,17.7,17.7,0,0,1-4.3,4.8,20.1,20.1,0,0,1-6.4,3.1,25.5,25.5,0,0,1-8.1,1.2Zm12.8-22.6-2.1,15.1h9.7a12.7,12.7,0,0,0,4.6-.7,7.8,7.8,0,0,0,3.1-1.7A6.7,6.7,0,0,0,559,83a9.5,9.5,0,0,0,.8-6,4.8,4.8,0,0,0-1.3-2.3,6.7,6.7,0,0,0-2.8-1.4,12.7,12.7,0,0,0-4.2-.5Zm.9-6.7h7.7c3.3,0,5.8-.5,7.7-1.7a7.9,7.9,0,0,0,3.3-5.7q.6-4.1-1.5-5.7T553,51.2h-8.2Z" fill="#fff"/><path d="M620.8,95.4h-7.4a3.2,3.2,0,0,1-2-.6,2.9,2.9,0,0,1-.9-1.6l-2.4-10.5H586.8l-5.4,10.5a3.6,3.6,0,0,1-1.3,1.5,3.2,3.2,0,0,1-2.2.7h-7.4L598,43.8h9.8ZM590.2,75.9h16.4l-3.9-17.1c-.1-.8-.3-1.7-.5-2.7l-.6-3.4c-.5,1.2-1,2.3-1.4,3.4a22.3,22.3,0,0,1-1.4,2.7Z" fill="#fff"/><path d="M664.4,43.8l-1.1,7.9H647.8l-6.1,43.7h-9.6l6.1-43.7H622.7l1.1-7.9Z" fill="#fff"/><path d="M703,43.8l-1,7.7H679.1l-2,14.3h18l-1,7.3h-18L674,87.7h22.9l-1.1,7.7H663.3l7.2-51.6Z" fill="#fff"/><path d="M183.7,87.4a13.7,13.7,0,0,0,2.9-10.8l-9.2-52.8v-.2A13.7,13.7,0,0,0,164,12.5a13.1,13.1,0,0,0-9.4,3.8L148,22.9A91.5,91.5,0,0,0,92.2,4a87.6,87.6,0,0,0-41,10.1,86.1,86.1,0,0,0-27,22.6h0c-1.2,1.6-2.3,3.1-3.2,4.5A84.3,84.3,0,0,0,6.5,81.9a23.7,23.7,0,0,0,6.7,18.6,12.8,12.8,0,0,0-6.1,4.1,13.4,13.4,0,0,0-2.9,10.8l9.2,52.8v.2a13.6,13.6,0,0,0,13.4,11.1,13.2,13.2,0,0,0,9.4-3.8l6.5-6.6A91.7,91.7,0,0,0,98.5,188a88.3,88.3,0,0,0,41.1-10.1,85.7,85.7,0,0,0,26.9-22.6h.1c1.2-1.6,2.3-3.1,3.2-4.5a84.3,84.3,0,0,0,14.5-40.7,23.4,23.4,0,0,0-6.8-18.6A13,13,0,0,0,183.7,87.4Z" fill="#222939"/><path d="M46.7,63.8A56.4,56.4,0,0,0,39.8,86a10.3,10.3,0,0,1-12.1,9.2A11.5,11.5,0,0,1,18.4,83,73.3,73.3,0,0,1,30.9,47.9,64.4,64.4,0,0,1,133.8,54C117,37.7,93.1,33.4,73.2,41.1A52.5,52.5,0,0,0,53.1,55S48.3,60.6,46.7,63.8Z" fill="#a07333"/><path d="M163.1,96.8A10.3,10.3,0,0,0,151,106a52.6,52.6,0,0,1-33.4,44.9c-19.5,7.6-42.9,3.6-59.6-12h0a.8.8,0,0,1-.4-.4L57,138a64.4,64.4,0,0,0,102.9,6.1A73.2,73.2,0,0,0,172.3,109,11.3,11.3,0,0,0,163.1,96.8Z" fill="#a07333"/><path d="M95.9,46.5A49.3,49.3,0,1,1,46.6,95.8,49.2,49.2,0,0,1,95.9,46.5Z" fill="#329c69" fill-rule="evenodd"/><path d="M95.9,144.3A48.6,48.6,0,1,0,47.3,95.8,48.6,48.6,0,0,0,95.9,144.3Z" fill="#329c69" fill-rule="evenodd"/><path d="M95.9,62A33.8,33.8,0,1,1,62.1,95.8,33.7,33.7,0,0,1,95.9,62Z" fill-rule="evenodd" fill="url(#GradientFill_8)"/><path d="M90.8,67.5l-.6-3.8a34.3,34.3,0,0,1,5.6-.5,36.6,36.6,0,0,1,5.7.5l-.7,3.8a31.4,31.4,0,0,0-10,0Zm14.8,1.3,1.4-3.7a47.4,47.4,0,0,1,5.1,2.4,38.3,38.3,0,0,1,4.6,3.3l-2.5,3a29.4,29.4,0,0,0-8.6-5Zm12.2,8.5,3-2.5a29.1,29.1,0,0,1,3.2,4.6,27.1,27.1,0,0,1,2.4,5.2l-3.7,1.3a27.1,27.1,0,0,0-4.9-8.6ZM124,90.7l3.9-.7a27.5,27.5,0,0,1,.5,5.7,25.9,25.9,0,0,1-.5,5.6l-3.8-.6a40.5,40.5,0,0,0,.4-4.9,28.4,28.4,0,0,0-.5-5.1Zm-1.2,14.8,3.7,1.3a34.8,34.8,0,0,1-2.4,5.2,24.3,24.3,0,0,1-3.3,4.6l-3-2.5a25.6,25.6,0,0,0,5-8.6Zm-8.5,12.2,2.5,3a29.1,29.1,0,0,1-4.6,3.2,26.3,26.3,0,0,1-5.1,2.4l-1.4-3.6a29.4,29.4,0,0,0,8.6-5ZM100.9,124l.7,3.8a27.5,27.5,0,0,1-5.7.5,25.9,25.9,0,0,1-5.6-.5l.6-3.8a27,27,0,0,0,4.9.4,29.2,29.2,0,0,0,5.1-.4Zm-14.8-1.3-1.3,3.7a49,49,0,0,1-5.2-2.4,38.3,38.3,0,0,1-4.6-3.3l2.5-2.9a27.1,27.1,0,0,0,8.6,4.9Zm-12.2-8.4L71,116.7a24.3,24.3,0,0,1-3.3-4.6,34.8,34.8,0,0,1-2.4-5.2l3.6-1.3a31.3,31.3,0,0,0,5,8.7Zm-6.3-13.5-3.8.7a36.6,36.6,0,0,1-.5-5.7,34.3,34.3,0,0,1,.5-5.6l3.8.6a25.3,25.3,0,0,0,0,10ZM68.8,86l-3.6-1.3a49,49,0,0,1,2.4-5.2,38.3,38.3,0,0,1,3.3-4.6l2.9,2.4a31.3,31.3,0,0,0-5,8.7Zm8.6-12.2-2.5-3a29.1,29.1,0,0,1,4.6-3.2,27.1,27.1,0,0,1,5.2-2.4L86,68.8A29.4,29.4,0,0,0,77.4,73.8Z" fill="#329c69" fill-rule="evenodd"/><path d="M95.9,123.2A27.5,27.5,0,1,0,68.4,95.8,27.4,27.4,0,0,0,95.9,123.2Z" fill="#329c69" fill-rule="evenodd"/><path d="M118,57.5a2.3,2.3,0,1,1-2.3,3.9,2.3,2.3,0,1,1,2.3-3.9Z" fill="#fff" fill-rule="evenodd"/><path d="M140.1,95.8a2.3,2.3,0,1,1-4.6,0,2.3,2.3,0,1,1,4.6,0Z" fill="#fff" fill-rule="evenodd"/><path d="M118,134a2.3,2.3,0,1,1-2.3-3.9A2.3,2.3,0,1,1,118,134Z" fill="#fff" fill-rule="evenodd"/><path d="M73.8,134a2.3,2.3,0,1,1,2.3-3.9,2.3,2.3,0,0,1,.8,3.1A2.2,2.2,0,0,1,73.8,134Z" fill="#fff" fill-rule="evenodd"/><path d="M51.6,95.8a2.4,2.4,0,0,1,4.7,0,2.4,2.4,0,0,1-4.7,0Z" fill="#fff" fill-rule="evenodd"/><path d="M73.8,57.5a2.2,2.2,0,0,1,3.1.8,2.3,2.3,0,0,1-.8,3.1,2.3,2.3,0,1,1-2.3-3.9Z" fill="#fff" fill-rule="evenodd"/><path d="M95.9,59.2a36.9,36.9,0,0,0-5.6.4,4.1,4.1,0,0,1-4.8-3.5l-2.1-8.5a49.6,49.6,0,0,1,25,0l-2.1,8.5a4.2,4.2,0,0,1-4.8,3.5,37.8,37.8,0,0,0-5.6-.4Zm31.7,18.3a56.2,56.2,0,0,0-3.2-4.7,4.2,4.2,0,0,1,.6-5.9l6.3-6.1a48.8,48.8,0,0,1,12.5,21.7L135.4,85a4.3,4.3,0,0,1-5.4-2.5c-1-2.2-1.4-3.2-2.4-5Zm0,36.5c1-1.8,1.4-2.8,2.4-5a4.3,4.3,0,0,1,5.4-2.5l8.4,2.5a48.8,48.8,0,0,1-12.5,21.7l-6.3-6.1a4.2,4.2,0,0,1-.6-5.9,43.5,43.5,0,0,0,3.2-4.7ZM95.9,132.3a37.8,37.8,0,0,0,5.6-.4,4.2,4.2,0,0,1,4.8,3.5l2.1,8.5a49.6,49.6,0,0,1-25,0l2.1-8.5a4.1,4.1,0,0,1,4.8-3.5,36.9,36.9,0,0,0,5.6.4ZM64.2,114a32.6,32.6,0,0,0,3.2,4.7,4.2,4.2,0,0,1-.6,5.9l-6.4,6.1A49.8,49.8,0,0,1,47.9,109l8.5-2.5a4.3,4.3,0,0,1,5.4,2.5,29,29,0,0,0,2.4,5Zm0-36.5a29,29,0,0,0-2.4,5A4.3,4.3,0,0,1,56.4,85l-8.5-2.5A49.8,49.8,0,0,1,60.4,60.8l6.4,6.1a4.2,4.2,0,0,1,.6,5.9A39.3,39.3,0,0,0,64.2,77.5Z" fill-rule="evenodd" fill="url(#GradientFill_5)"/><path d="M127.6,77.5a56.2,56.2,0,0,0-3.2-4.7,4.2,4.2,0,0,1,.6-5.9l5.8-5.5a50.6,50.6,0,0,1,12.3,21.3L135.4,85a4.3,4.3,0,0,1-5.4-2.5c-1-2.2-1.4-3.2-2.4-5Zm0,36.5c1-1.8,1.4-2.8,2.4-5a4.3,4.3,0,0,1,5.4-2.5l7.7,2.3a50,50,0,0,1-12.3,21.3l-5.8-5.5a4.2,4.2,0,0,1-.6-5.9,43.5,43.5,0,0,0,3.2-4.7ZM95.9,132.3a37.8,37.8,0,0,0,5.6-.4,4.2,4.2,0,0,1,4.8,3.5l1.9,7.8a50.5,50.5,0,0,1-12.3,1.5,49.3,49.3,0,0,1-12.3-1.5l1.9-7.8a4.1,4.1,0,0,1,4.8-3.5,36.9,36.9,0,0,0,5.6.4ZM64.2,114a32.6,32.6,0,0,0,3.2,4.7,4.2,4.2,0,0,1-.6,5.9L61,130.1a48.1,48.1,0,0,1-12.3-21.3l7.7-2.3a4.3,4.3,0,0,1,5.4,2.5,29,29,0,0,0,2.4,5Zm0-36.5a29,29,0,0,0-2.4,5A4.3,4.3,0,0,1,56.4,85l-7.7-2.3A48.6,48.6,0,0,1,61,61.4l5.8,5.5a4.2,4.2,0,0,1,.6,5.9,39.3,39.3,0,0,0-3.2,4.7ZM95.9,59.2a36.9,36.9,0,0,0-5.6.4,4.1,4.1,0,0,1-4.8-3.5l-1.9-7.8a49.3,49.3,0,0,1,12.3-1.5,50.5,50.5,0,0,1,12.3,1.5l-1.9,7.8a4.2,4.2,0,0,1-4.8,3.5A37.8,37.8,0,0,0,95.9,59.2Z" fill-rule="evenodd" fill="url(#GradientFill_3)"/><circle cx="95.9" cy="95.8" r="25.3" transform="translate(-29.3 147.7) rotate(-67.5)" fill="url(#GradientFill_7)"/><path d="M111.7,105c-.1,0-.2,0-.3.2H111c-.4,0-1-.3-2-1.2a1.1,1.1,0,0,1-.4-1V85.2c0-.4-.1-.5-.7-.7l-4-1.5-2.6,2c-2.2,1.7-2.5,2-2.9,2.1s-.1-.8-.6-1.1l-1.4-1c-.1-.2-.3-.2-.4-.3l-.4-.2c-1.7-1.4-2-1.7-2.2-1.7a11,11,0,0,0-3.1,1.7,8.5,8.5,0,0,1-2.4,1.2l-1.8-1.1a10.8,10.8,0,0,0-3.3-1.9h-.4l-2.8,2.8h-.1l-.2.4c0,.1,0,.1.1.1H80c.8,0,2.9,1.5,3.5,2a2.1,2.1,0,0,1,.8,1.6v2.5a1.7,1.7,0,0,1-1-.3,2.4,2.4,0,0,0-1.7-.7,3,3,0,0,0-2.7,3.2c0,.7.1,1.2.4,1.2s.3,0,.3-.4.4-.8,1-.8,3.5,3.2,3.5,7a6.8,6.8,0,0,1-1.7,5c-1.8,1.7-2.1,2.2-2.1,2.3a.4.4,0,0,0,.3.4l.3-.2v-.2l.6-.6a1,1,0,0,0,.5-.4,24.1,24.1,0,0,1,3.3,1.5,2.2,2.2,0,0,0,.6-.5c.9-.7,2.3-1.8,2.8-1.8h.6v1.6c0,.4.1.5.4.5s.3-.3.3-.5V95.8h4.4v10.3a17.5,17.5,0,0,0,2.6,2.9c.2,0,.4-.3.7-.5a4.2,4.2,0,0,1,2.3-1.5v1.6c0,.4.2.5.3.5s.4-.3.4-.5V87.2c0-.4.3-.6.8-.6s1.5.2,3.3,1.2l.2.2,1.1-.8a9.4,9.4,0,0,1,1.7-1c.2,0,.1.4-.8,1.5s-2.2,3.4-2.2,4.9v12.5c0,.6,0,.6.4,1a11.7,11.7,0,0,0,3.6,2.5,12.8,12.8,0,0,0,3.1-3.4C112,105.1,111.9,105,111.7,105Zm-22.3,1c-1.4.1-3.8-.4-4.5-1.4s.6-.6,1.1-1.3h.1c1.3-1.2,1.8-1.9,1.8-6.5V87.1c0-.3,1.1-1,1.4-.9s.2.1.2.9Zm4.7-13.4h-4V86.8a.6.6,0,0,1,.7-.7c.8,0,3.3,2,3.3,2.7Zm5.7,13.2c-1.3-.1-1.9-.7-1.9-2.1V96.6c.1-.5.2-.8.6-.8h1.3Zm.1-13.1H98.5c-.1,0-.5-.1-.5-.4V88.8c0-.2.1-.3.6-.6l.8-.5h.4c.1,0,.1,0,.1.1Z" fill="#329c69" opacity="0.75" style="mix-blend-mode:multiply"/><path d="M173.3,80.1l-30.5-5.3-22.4-3.9a1.6,1.6,0,0,1-1-2.5L133.8,54h0A64.4,64.4,0,0,0,30.9,47.9l2.8-3.8A73.3,73.3,0,0,1,56.8,24.7c28.9-15.4,66.4-10.3,91.8,14.6l14.5-14.5a1.6,1.6,0,0,1,2.5,1l9.1,52.9A1.2,1.2,0,0,1,173.3,80.1Z" fill="#caab72"/><path d="M110.7,166.9A64.2,64.2,0,0,1,57,138h0l14.4-14.4a1.6,1.6,0,0,0-1-2.5L48,117.2l-30.5-5.3a1.3,1.3,0,0,0-1.5,1.4l9.2,52.9a1.6,1.6,0,0,0,2.5,1l14.4-14.5c25.5,24.9,63,30,91.8,14.6a73.6,73.6,0,0,0,23.2-19.4l2.8-3.8A64.2,64.2,0,0,1,110.7,166.9Z" fill="#caab72"/><path d="M200.8,146.1H203l2-.3,1.7-.6,1.7-.7.9-6.6h-4.6l-.6-.2a.7.7,0,0,1-.1-.6l.3-2.3h9.1l-1.6,11.5a20.1,20.1,0,0,1-2.5,1.4l-2.8,1a13.3,13.3,0,0,1-3,.6l-3.5.2a15.4,15.4,0,0,1-5.8-1.1,12.1,12.1,0,0,1-4.2-3.1,11.7,11.7,0,0,1-2.3-4.9,15.3,15.3,0,0,1-.3-6.1,21.1,21.1,0,0,1,2-6.3,19.2,19.2,0,0,1,3.7-4.8,17.7,17.7,0,0,1,11.7-4.2,16.9,16.9,0,0,1,3.3.3l2.7.7,2.2,1.2,1.9,1.6-1.4,1.8a1.4,1.4,0,0,1-1,.6l-.7-.2-1.1-.8-1.5-.8-2.1-.6a11.7,11.7,0,0,0-2.9-.3,14.5,14.5,0,0,0-4.7.8,13.6,13.6,0,0,0-3.8,2.4,11.4,11.4,0,0,0-2.7,3.7,14.7,14.7,0,0,0-1.4,4.9,14,14,0,0,0,0,5,9.6,9.6,0,0,0,1.8,3.8,7.2,7.2,0,0,0,3.1,2.3A9.7,9.7,0,0,0,200.8,146.1Z"/><path d="M229.6,145.9a8.9,8.9,0,0,0,3.4-.7,8.8,8.8,0,0,0,2.8-1.7,13.1,13.1,0,0,0,1.9-2.7,12.2,12.2,0,0,0,1-3.4l2.5-18.1h4l-2.5,18.1a13.4,13.4,0,0,1-1.5,4.8,15.3,15.3,0,0,1-2.9,3.8,14.1,14.1,0,0,1-4.1,2.5,13.6,13.6,0,0,1-5.1.9,12.1,12.1,0,0,1-4.8-.9,9.7,9.7,0,0,1-3.4-2.5,12.1,12.1,0,0,1-1.8-3.8,12.8,12.8,0,0,1-.1-4.8l2.5-18.1h4l-2.5,18a10.3,10.3,0,0,0,0,3.5,6.6,6.6,0,0,0,1.2,2.7,6.2,6.2,0,0,0,2.2,1.7A7.9,7.9,0,0,0,229.6,145.9Z"/><path d="M271.3,149.1h-3.1a1.1,1.1,0,0,1-.8-.3,1,1,0,0,1-.4-.7l-1.8-7.2H251.8l-3.8,7.2a1.9,1.9,0,0,1-.6.7,1.2,1.2,0,0,1-.9.3h-3.1l16.1-29.8h4.1ZM253.4,138h11.1l-3-12.1a17.8,17.8,0,0,1-.5-2.8,6.9,6.9,0,0,1-.7,1.5l-.6,1.3Z"/><path d="M281.3,136.6l-1.8,12.5h-4l4.2-29.8h8.4a16.8,16.8,0,0,1,4.8.5,8.8,8.8,0,0,1,3.2,1.7,5.4,5.4,0,0,1,1.6,2.6,7.7,7.7,0,0,1,.2,3.4,14.9,14.9,0,0,1-.9,3,10.8,10.8,0,0,1-1.8,2.4,9.7,9.7,0,0,1-2.6,1.9,17.5,17.5,0,0,1-3.2,1.2,3.2,3.2,0,0,1,1.1,1.2l7,11.9H294a1.4,1.4,0,0,1-1.5-.9l-6.3-10.6a1.9,1.9,0,0,0-.7-.8l-1.2-.2Zm.4-2.9h4.2a15.5,15.5,0,0,0,3.2-.4,9,9,0,0,0,2.4-1.2,7,7,0,0,0,1.6-1.9,6.2,6.2,0,0,0,.8-2.4,3.9,3.9,0,0,0-1.2-4c-1-.9-2.7-1.4-5-1.4h-4.4Z"/><path d="M326.4,149.1h-3.1a1.2,1.2,0,0,1-.9-.3,1.6,1.6,0,0,1-.4-.7l-1.7-7.2H306.9l-3.8,7.2a1.9,1.9,0,0,1-.6.7l-.9.3h-3.1l16.1-29.8h4.1Zm-18-11.1h11.2l-3-12.1a17.8,17.8,0,0,1-.5-2.8c-.3.5-.5,1.1-.7,1.5l-.6,1.3Z"/><path d="M337.2,119.4l.5.5,14.1,22.5c0-.4.1-.7.1-1s.1-.7.1-1l3-21.1h3.5l-4.2,29.8h-2l-.8-.2a1,1,0,0,1-.5-.6l-14.1-22.4a3.4,3.4,0,0,0-.1,1c0,.3-.1.6-.1.9l-3,21.3h-3.5l4.1-29.8h2.9Z"/><path d="M386.1,119.3l-.5,3.3H376l-3.7,26.5h-4.1l3.7-26.5h-9.6l.5-3.3Z"/><path d="M408.7,119.3l-.5,3.2H393.9l-1.4,9.9h11.6l-.4,3.2H392.1l-1.4,10.2H405l-.5,3.3H386.1l4.2-29.8Z"/><path d="M432.9,119.3l-.5,3.2H418.1l-1.4,9.9h11.6l-.5,3.2H416.3l-1.5,10.2h14.3l-.4,3.3H410.3l4.2-29.8Z"/><path d="M462.4,134.2a20.7,20.7,0,0,1-1.9,6.1,17.1,17.1,0,0,1-3.7,4.7,15.9,15.9,0,0,1-5,3,18,18,0,0,1-6.2,1.1H434.5l4.2-29.8h11.1a15,15,0,0,1,5.8,1,11.3,11.3,0,0,1,4.3,3.1,11.5,11.5,0,0,1,2.3,4.7A17.4,17.4,0,0,1,462.4,134.2Zm-4.1,0a15.7,15.7,0,0,0-.1-4.9,8.3,8.3,0,0,0-1.6-3.7,7.6,7.6,0,0,0-3-2.3,11.4,11.4,0,0,0-4.3-.8h-7L439,145.8h7.1a12.3,12.3,0,0,0,4.4-.8,11,11,0,0,0,3.7-2.3,13.8,13.8,0,0,0,2.6-3.6A18.7,18.7,0,0,0,458.3,134.2Z"/><path d="M476,145.4h5.8l2.4-16.7.3-2-4.6,3.4-.5.3h-.6l-.7-.2a.8.8,0,0,1-.4-.4l-1.2-2.1,9.7-7.4h4.1l-3.6,25h5.2l-.5,3.7H475.5Z"/><path d="M495,146.4a5.6,5.6,0,0,1,.4-1.2,2.5,2.5,0,0,1,.8-1l1-.6,1.2-.2,1.2.2.8.6a1.9,1.9,0,0,1,.5,1,2.5,2.5,0,0,1,.1,1.2,3.6,3.6,0,0,1-.4,1.1,3.9,3.9,0,0,1-.8,1,3.3,3.3,0,0,1-1,.6,3.7,3.7,0,0,1-2.4,0,2.4,2.4,0,0,1-.8-.6,1.9,1.9,0,0,1-.5-1A2,2,0,0,1,495,146.4Z"/><path d="M525.4,122.5a2.6,2.6,0,0,1-.9,1.7,3.7,3.7,0,0,1-2.3.7h-7.9l-1.9,5.9a28.1,28.1,0,0,1,3.6-.4,10.9,10.9,0,0,1,3.9.7,6.5,6.5,0,0,1,2.6,1.9,5.7,5.7,0,0,1,1.4,2.8,7.7,7.7,0,0,1,.1,3.4,10.4,10.4,0,0,1-1.4,4.2,13.5,13.5,0,0,1-2.6,3.2,10.2,10.2,0,0,1-3.7,2,12.7,12.7,0,0,1-4.4.8,10.1,10.1,0,0,1-2.5-.3l-2.1-.7-1.8-1.1A6.4,6.4,0,0,1,504,146l1.8-2.1a1.8,1.8,0,0,1,1.4-.6l.9.3,1.1.7,1.5.7a5.8,5.8,0,0,0,2.1.3,6,6,0,0,0,2.4-.5,5.2,5.2,0,0,0,1.9-1.2,5.9,5.9,0,0,0,1.3-1.8,9.5,9.5,0,0,0,.7-2.4,4.2,4.2,0,0,0-.9-3.6,4.6,4.6,0,0,0-3.8-1.4,12.5,12.5,0,0,0-4.2.8l-3-.9,4.4-13.9h14.1Z"/><path d="M552.9,121.2a1.8,1.8,0,0,1,.7-.5,1.7,1.7,0,0,1,1-.3h3.6L533,148.3a1.8,1.8,0,0,1-.7.5,1.6,1.6,0,0,1-.9.3h-3.6Zm-10.4,6.1a7.5,7.5,0,0,1-.9,3,7.9,7.9,0,0,1-1.8,2.2,6.8,6.8,0,0,1-2.3,1.4,5.8,5.8,0,0,1-2.6.5,5.1,5.1,0,0,1-2.5-.5,4.5,4.5,0,0,1-1.9-1.4,5.1,5.1,0,0,1-1.1-2.2,9.8,9.8,0,0,1-.1-3,13.2,13.2,0,0,1,.9-3,9.8,9.8,0,0,1,1.7-2.2,8.3,8.3,0,0,1,2.3-1.5,8.6,8.6,0,0,1,2.7-.5,7.1,7.1,0,0,1,2.6.5,4.7,4.7,0,0,1,1.9,1.5,5.1,5.1,0,0,1,1.1,2.2A7.6,7.6,0,0,1,542.5,127.3Zm-3.7,0a6,6,0,0,0,0-1.9,3.4,3.4,0,0,0-.4-1.2,1.8,1.8,0,0,0-.8-.7l-1.1-.2-1.2.2a2.8,2.8,0,0,0-.9.7,3.6,3.6,0,0,0-.8,1.2,8.7,8.7,0,0,0-.5,1.9,6,6,0,0,0,0,1.9,2.1,2.1,0,0,0,.4,1.2,2.7,2.7,0,0,0,.8.7l1.1.2,1.1-.2,1-.7a3.6,3.6,0,0,0,.8-1.2A7.4,7.4,0,0,0,538.8,127.3Zm17.8,15a7.6,7.6,0,0,1-1,3,7.2,7.2,0,0,1-1.7,2.2,7.9,7.9,0,0,1-2.3,1.4,8.5,8.5,0,0,1-2.6.5,7.1,7.1,0,0,1-2.6-.5,5.2,5.2,0,0,1-1.9-1.4,5.5,5.5,0,0,1-1-2.2,6,6,0,0,1-.1-3,7.5,7.5,0,0,1,.9-3A7.6,7.6,0,0,1,546,137a6.8,6.8,0,0,1,2.3-1.4,7.6,7.6,0,0,1,2.7-.5,7.5,7.5,0,0,1,2.6.5,5.2,5.2,0,0,1,1.9,1.4,6,6,0,0,1,1,2.3A7.4,7.4,0,0,1,556.6,142.3Zm-3.8,0a6.4,6.4,0,0,0,.1-1.9,2.2,2.2,0,0,0-.5-1.2,1.1,1.1,0,0,0-.8-.7,2,2,0,0,0-1.1-.2,2.2,2.2,0,0,0-1.1.2,1.7,1.7,0,0,0-1,.7,3.5,3.5,0,0,0-.7,1.2,5.3,5.3,0,0,0-.5,1.9,14.2,14.2,0,0,0-.1,1.9,3.4,3.4,0,0,0,.4,1.2,1.6,1.6,0,0,0,.8.6,2.2,2.2,0,0,0,1.1.2,2.5,2.5,0,0,0,1.2-.2,2.7,2.7,0,0,0,1-.6,6.2,6.2,0,0,0,.8-1.2A7.8,7.8,0,0,0,552.8,142.3Z"/><path d="M200.8,146.1H203l2-.3,1.7-.6,1.7-.7.9-6.6h-4.6l-.6-.2a.7.7,0,0,1-.1-.6l.3-2.3h9.1l-1.6,11.5a20.1,20.1,0,0,1-2.5,1.4l-2.8,1a13.3,13.3,0,0,1-3,.6l-3.5.2a15.4,15.4,0,0,1-5.8-1.1,12.1,12.1,0,0,1-4.2-3.1,11.7,11.7,0,0,1-2.3-4.9,15.3,15.3,0,0,1-.3-6.1,21.1,21.1,0,0,1,2-6.3,19.2,19.2,0,0,1,3.7-4.8,17.7,17.7,0,0,1,11.7-4.2,16.9,16.9,0,0,1,3.3.3l2.7.7,2.2,1.2,1.9,1.6-1.4,1.8a1.4,1.4,0,0,1-1,.6l-.7-.2-1.1-.8-1.5-.8-2.1-.6a11.7,11.7,0,0,0-2.9-.3,14.5,14.5,0,0,0-4.7.8,13.6,13.6,0,0,0-3.8,2.4,11.4,11.4,0,0,0-2.7,3.7,14.7,14.7,0,0,0-1.4,4.9,14,14,0,0,0,0,5,9.6,9.6,0,0,0,1.8,3.8,7.2,7.2,0,0,0,3.1,2.3A9.7,9.7,0,0,0,200.8,146.1Z" fill="#fff"/><path d="M229.6,145.9a8.9,8.9,0,0,0,3.4-.7,8.8,8.8,0,0,0,2.8-1.7,13.1,13.1,0,0,0,1.9-2.7,12.2,12.2,0,0,0,1-3.4l2.5-18.1h4l-2.5,18.1a13.4,13.4,0,0,1-1.5,4.8,15.3,15.3,0,0,1-2.9,3.8,14.1,14.1,0,0,1-4.1,2.5,13.6,13.6,0,0,1-5.1.9,12.1,12.1,0,0,1-4.8-.9,9.7,9.7,0,0,1-3.4-2.5,12.1,12.1,0,0,1-1.8-3.8,12.8,12.8,0,0,1-.1-4.8l2.5-18.1h4l-2.5,18a10.3,10.3,0,0,0,0,3.5,6.6,6.6,0,0,0,1.2,2.7,6.2,6.2,0,0,0,2.2,1.7A7.9,7.9,0,0,0,229.6,145.9Z" fill="#fff"/><path d="M271.3,149.1h-3.1a1.1,1.1,0,0,1-.8-.3,1,1,0,0,1-.4-.7l-1.8-7.2H251.8l-3.8,7.2a1.9,1.9,0,0,1-.6.7,1.2,1.2,0,0,1-.9.3h-3.1l16.1-29.8h4.1ZM253.4,138h11.1l-3-12.1a17.8,17.8,0,0,1-.5-2.8,6.9,6.9,0,0,1-.7,1.5l-.6,1.3Z" fill="#fff"/><path d="M281.3,136.6l-1.8,12.5h-4l4.2-29.8h8.4a16.8,16.8,0,0,1,4.8.5,8.8,8.8,0,0,1,3.2,1.7,5.4,5.4,0,0,1,1.6,2.6,7.7,7.7,0,0,1,.2,3.4,14.9,14.9,0,0,1-.9,3,10.8,10.8,0,0,1-1.8,2.4,9.7,9.7,0,0,1-2.6,1.9,17.5,17.5,0,0,1-3.2,1.2,3.2,3.2,0,0,1,1.1,1.2l7,11.9H294a1.4,1.4,0,0,1-1.5-.9l-6.3-10.6a1.9,1.9,0,0,0-.7-.8l-1.2-.2Zm.4-2.9h4.2a15.5,15.5,0,0,0,3.2-.4,9,9,0,0,0,2.4-1.2,7,7,0,0,0,1.6-1.9,6.2,6.2,0,0,0,.8-2.4,3.9,3.9,0,0,0-1.2-4c-1-.9-2.7-1.4-5-1.4h-4.4Z" fill="#fff"/><path d="M326.4,149.1h-3.1a1.2,1.2,0,0,1-.9-.3,1.6,1.6,0,0,1-.4-.7l-1.7-7.2H306.9l-3.8,7.2a1.9,1.9,0,0,1-.6.7l-.9.3h-3.1l16.1-29.8h4.1Zm-18-11.1h11.2l-3-12.1a17.8,17.8,0,0,1-.5-2.8c-.3.5-.5,1.1-.7,1.5l-.6,1.3Z" fill="#fff"/><path d="M337.2,119.4l.5.5,14.1,22.5c0-.4.1-.7.1-1s.1-.7.1-1l3-21.1h3.5l-4.2,29.8h-2l-.8-.2a1,1,0,0,1-.5-.6l-14.1-22.4a3.4,3.4,0,0,0-.1,1c0,.3-.1.6-.1.9l-3,21.3h-3.5l4.1-29.8h2.9Z" fill="#fff"/><path d="M386.1,119.3l-.5,3.3H376l-3.7,26.5h-4.1l3.7-26.5h-9.6l.5-3.3Z" fill="#fff"/><path d="M408.7,119.3l-.5,3.2H393.9l-1.4,9.9h11.6l-.4,3.2H392.1l-1.4,10.2H405l-.5,3.3H386.1l4.2-29.8Z" fill="#fff"/><path d="M432.9,119.3l-.5,3.2H418.1l-1.4,9.9h11.6l-.5,3.2H416.3l-1.5,10.2h14.3l-.4,3.3H410.3l4.2-29.8Z" fill="#fff"/><path d="M462.4,134.2a20.7,20.7,0,0,1-1.9,6.1,17.1,17.1,0,0,1-3.7,4.7,15.9,15.9,0,0,1-5,3,18,18,0,0,1-6.2,1.1H434.5l4.2-29.8h11.1a15,15,0,0,1,5.8,1,11.3,11.3,0,0,1,4.3,3.1,11.5,11.5,0,0,1,2.3,4.7A17.4,17.4,0,0,1,462.4,134.2Zm-4.1,0a15.7,15.7,0,0,0-.1-4.9,8.3,8.3,0,0,0-1.6-3.7,7.6,7.6,0,0,0-3-2.3,11.4,11.4,0,0,0-4.3-.8h-7L439,145.8h7.1a12.3,12.3,0,0,0,4.4-.8,11,11,0,0,0,3.7-2.3,13.8,13.8,0,0,0,2.6-3.6A18.7,18.7,0,0,0,458.3,134.2Z" fill="#fff"/><path d="M476,145.4h5.8l2.4-16.7.3-2-4.6,3.4-.5.3h-.6l-.7-.2a.8.8,0,0,1-.4-.4l-1.2-2.1,9.7-7.4h4.1l-3.6,25h5.2l-.5,3.7H475.5Z" fill="#fff"/><path d="M495,146.4a5.6,5.6,0,0,1,.4-1.2,2.5,2.5,0,0,1,.8-1l1-.6,1.2-.2,1.2.2.8.6a1.9,1.9,0,0,1,.5,1,2.5,2.5,0,0,1,.1,1.2,3.6,3.6,0,0,1-.4,1.1,3.9,3.9,0,0,1-.8,1,3.3,3.3,0,0,1-1,.6,3.7,3.7,0,0,1-2.4,0,2.4,2.4,0,0,1-.8-.6,1.9,1.9,0,0,1-.5-1A2,2,0,0,1,495,146.4Z" fill="#fff"/><path d="M525.4,122.5a2.6,2.6,0,0,1-.9,1.7,3.7,3.7,0,0,1-2.3.7h-7.9l-1.9,5.9a28.1,28.1,0,0,1,3.6-.4,10.9,10.9,0,0,1,3.9.7,6.5,6.5,0,0,1,2.6,1.9,5.7,5.7,0,0,1,1.4,2.8,7.7,7.7,0,0,1,.1,3.4,10.4,10.4,0,0,1-1.4,4.2,13.5,13.5,0,0,1-2.6,3.2,10.2,10.2,0,0,1-3.7,2,12.7,12.7,0,0,1-4.4.8,10.1,10.1,0,0,1-2.5-.3l-2.1-.7-1.8-1.1A6.4,6.4,0,0,1,504,146l1.8-2.1a1.8,1.8,0,0,1,1.4-.6l.9.3,1.1.7,1.5.7a5.8,5.8,0,0,0,2.1.3,6,6,0,0,0,2.4-.5,5.2,5.2,0,0,0,1.9-1.2,5.9,5.9,0,0,0,1.3-1.8,9.5,9.5,0,0,0,.7-2.4,4.2,4.2,0,0,0-.9-3.6,4.6,4.6,0,0,0-3.8-1.4,12.5,12.5,0,0,0-4.2.8l-3-.9,4.4-13.9h14.1Z" fill="#fff"/><path d="M552.9,121.2a1.8,1.8,0,0,1,.7-.5,1.7,1.7,0,0,1,1-.3h3.6L533,148.3a1.8,1.8,0,0,1-.7.5,1.6,1.6,0,0,1-.9.3h-3.6Zm-10.4,6.1a7.5,7.5,0,0,1-.9,3,7.9,7.9,0,0,1-1.8,2.2,6.8,6.8,0,0,1-2.3,1.4,5.8,5.8,0,0,1-2.6.5,5.1,5.1,0,0,1-2.5-.5,4.5,4.5,0,0,1-1.9-1.4,5.1,5.1,0,0,1-1.1-2.2,9.8,9.8,0,0,1-.1-3,13.2,13.2,0,0,1,.9-3,9.8,9.8,0,0,1,1.7-2.2,8.3,8.3,0,0,1,2.3-1.5,8.6,8.6,0,0,1,2.7-.5,7.1,7.1,0,0,1,2.6.5,4.7,4.7,0,0,1,1.9,1.5,5.1,5.1,0,0,1,1.1,2.2A7.6,7.6,0,0,1,542.5,127.3Zm-3.7,0a6,6,0,0,0,0-1.9,3.4,3.4,0,0,0-.4-1.2,1.8,1.8,0,0,0-.8-.7l-1.1-.2-1.2.2a2.8,2.8,0,0,0-.9.7,3.6,3.6,0,0,0-.8,1.2,8.7,8.7,0,0,0-.5,1.9,6,6,0,0,0,0,1.9,2.1,2.1,0,0,0,.4,1.2,2.7,2.7,0,0,0,.8.7l1.1.2,1.1-.2,1-.7a3.6,3.6,0,0,0,.8-1.2A7.4,7.4,0,0,0,538.8,127.3Zm17.8,15a7.6,7.6,0,0,1-1,3,7.2,7.2,0,0,1-1.7,2.2,7.9,7.9,0,0,1-2.3,1.4,8.5,8.5,0,0,1-2.6.5,7.1,7.1,0,0,1-2.6-.5,5.2,5.2,0,0,1-1.9-1.4,5.5,5.5,0,0,1-1-2.2,6,6,0,0,1-.1-3,7.5,7.5,0,0,1,.9-3A7.6,7.6,0,0,1,546,137a6.8,6.8,0,0,1,2.3-1.4,7.6,7.6,0,0,1,2.7-.5,7.5,7.5,0,0,1,2.6.5,5.2,5.2,0,0,1,1.9,1.4,6,6,0,0,1,1,2.3A7.4,7.4,0,0,1,556.6,142.3Zm-3.8,0a6.4,6.4,0,0,0,.1-1.9,2.2,2.2,0,0,0-.5-1.2,1.1,1.1,0,0,0-.8-.7,2,2,0,0,0-1.1-.2,2.2,2.2,0,0,0-1.1.2,1.7,1.7,0,0,0-1,.7,3.5,3.5,0,0,0-.7,1.2,5.3,5.3,0,0,0-.5,1.9,14.2,14.2,0,0,0-.1,1.9,3.4,3.4,0,0,0,.4,1.2,1.6,1.6,0,0,0,.8.6,2.2,2.2,0,0,0,1.1.2,2.5,2.5,0,0,0,1.2-.2,2.7,2.7,0,0,0,1-.6,6.2,6.2,0,0,0,.8-1.2A7.8,7.8,0,0,0,552.8,142.3Z" fill="#fff"/></g></g></svg>