<svg width="32" height="32" viewBox="0 0 32 32" fill="none" xmlns="http://www.w3.org/2000/svg">
<g clip-path="url(#clip0_826_15342)">
<path d="M-8.6677 32.1164H10.9856V22.29L-8.6677 32.1164Z" fill="#41479B"/>
<path d="M21.7299 32.1164H41.3838L21.7299 22.29V32.1164Z" fill="#41479B"/>
<path d="M10.9856 -0.11665H13.1345H19.5812H21.73V9.7097L41.3839 -0.117188H16.3578H-8.6677L10.9856 9.7097V-0.11665Z" fill="#41479B"/>
<path d="M34.3097 21.3725H48.5913V19.2236H19.5811V32.117H21.73V22.2901L41.3839 32.117L47.1499 35.0003L50.0327 29.2343L48.5913 28.5133L34.3097 21.3725ZM22.2973 21.3725H31.9072L48.5913 29.7145V32.117H43.7864L22.2973 21.3725Z" fill="white"/>
<path d="M0.808287 21.3721L-15.8758 29.7136V32.1161H-11.0703L10.4187 21.3721H0.808287Z" fill="#FF4B55"/>
<path d="M27.1022 10.6278L48.5911 -0.117188H43.7862L22.2972 10.6278H27.1022Z" fill="#FF4B55"/>
<path d="M0.808287 10.6278H10.4187L-11.0703 -0.117188H-15.8758V-0.11665V2.28581L0.808287 10.6278Z" fill="#FF4B55"/>
<path d="M48.5911 29.7136L31.9076 21.3721H22.2972L43.7862 32.1161H48.5911V29.7136Z" fill="#FF4B55"/>
<path d="M13.1344 19.2236H-15.8757V21.3725H-1.59415L-15.8757 28.5133L-17.3171 29.2343L-14.4343 35.0003L-8.66831 32.117L10.9855 22.2901V32.117H13.1344V19.2236ZM-15.8757 32.117V29.7145L0.808316 21.3725H10.4182L-11.0708 32.117H-15.8757Z" fill="white"/>
<path d="M21.73 -0.116718H19.5811V12.7767H48.5913V10.6278H34.3097L48.5913 3.48698L50.0327 2.76656L48.5913 -0.116718L47.1499 -3L41.3839 -0.116718L21.73 9.71019V-0.116718ZM48.5913 -0.116718L27.1023 10.6278H22.2973L43.7864 -0.116718H48.5913Z" fill="white"/>
<path d="M13.1344 12.7767V-0.116719H10.9855V9.70964L-8.66778 -0.117256L-14.4338 -3L-15.8757 -0.117256V-0.116719V-0.117256H-11.0702L10.4187 10.6278H0.808317L-15.8757 2.28575V-0.116719L-17.3171 2.76602L-15.8757 3.48698L-1.59415 10.6278H-15.8757V12.7767H13.1344Z" fill="white"/>
<path d="M19.5809 19.2229H48.591V15.9995V12.7762H19.5809V-0.117188H13.1343V12.7762H-15.8758V15.9995V19.2229H13.1343V32.1163H19.5809V19.2229Z" fill="#FF4B55"/>
</g>
<defs>
<clipPath id="clip0_826_15342">
<rect width="32" height="32" rx="8" fill="white"/>
</clipPath>
</defs>
</svg>