<svg width="32" height="32" viewBox="0 0 32 32" fill="none" xmlns="http://www.w3.org/2000/svg">
<path d="M25 0H7C3.134 0 0 3.134 0 7V25C0 28.866 3.134 32 7 32H25C28.866 32 32 28.866 32 25V7C32 3.134 28.866 0 25 0Z" fill="#FF4B55"/>
<path d="M16.2854 9.16462L17.9207 14.0677L23.0891 14.1077C23.3781 14.11 23.4979 14.4788 23.2655 14.6505L19.1077 17.7208L20.6667 22.6486C20.7538 22.9242 20.4401 23.1521 20.205 22.9841L16.0001 19.9786L11.7952 22.9841C11.5601 23.1522 11.2463 22.9242 11.3335 22.6487L12.8925 17.7209L8.73472 14.6506C8.50222 14.4789 8.6221 14.1101 8.9111 14.1078L14.0795 14.0677L15.7148 9.16468C15.8062 8.89043 16.194 8.89043 16.2854 9.16462Z" fill="#FFE15A"/>
</svg>
