<svg width="32" height="32" viewBox="0 0 32 32" fill="none" xmlns="http://www.w3.org/2000/svg">
    <path d="M25 0H7a7 7 0 0 0-7 7v18a7 7 0 0 0 7 7h18a7 7 0 0 0 7-7V7a7 7 0 0 0-7-7z" fill="#F5F5F5"/>
    <path d="M19.063 11.408a5.518 5.518 0 0 0-7.648 1.532 2.757 2.757 0 1 0 4.587 3.059 2.756 2.756 0 1 1 4.587 3.059 5.517 5.517 0 0 0-1.526-7.65z" fill="#FF4B55"/>
    <path d="M11.415 12.94a2.757 2.757 0 1 0 4.587 3.059 2.756 2.756 0 1 1 4.587 3.059 5.508 5.508 0 0 1-7.646 1.531 5.517 5.517 0 0 1-1.528-7.65z" fill="#41479B"/>
    <path d="m21.87 9.324 1.002 1.507a.276.276 0 0 1-.076.382l-.254.17a.276.276 0 0 1-.383-.076L21.156 9.8a.276.276 0 0 1 .076-.383l.255-.17a.276.276 0 0 1 .383.076zM23.416 11.647l1.006 1.505c.084.128.05.3-.078.384l-.255.168a.276.276 0 0 1-.381-.076l-1.005-1.504a.276.276 0 0 1 .076-.383l.255-.17a.276.276 0 0 1 .382.076zM22.943 8.608l2.552 3.83a.276.276 0 0 1-.077.382l-.256.171a.276.276 0 0 1-.383-.076l-2.552-3.83a.276.276 0 0 1 .076-.382l.257-.171a.276.276 0 0 1 .383.076zM24.013 7.893l1.005 1.51a.276.276 0 0 1-.078.382l-.255.17a.276.276 0 0 1-.382-.078L23.298 8.37a.276.276 0 0 1 .076-.383l.257-.17a.276.276 0 0 1 .382.076zM25.56 10.22l1.003 1.507a.276.276 0 0 1-.076.382l-.255.17a.276.276 0 0 1-.383-.076l-1.002-1.506a.276.276 0 0 1 .076-.382l.255-.17a.276.276 0 0 1 .383.076zM8.295 18.374l2.552 3.825a.276.276 0 0 1-.077.383l-.255.17a.276.276 0 0 1-.383-.076l-2.551-3.825a.276.276 0 0 1 .076-.383l.255-.17a.276.276 0 0 1 .383.076zM7.224 19.09l1.002 1.502a.276.276 0 0 1-.076.382l-.255.17a.276.276 0 0 1-.382-.076L6.51 19.566a.276.276 0 0 1 .076-.383l.255-.17a.276.276 0 0 1 .383.076zM8.772 21.413l1.003 1.506a.276.276 0 0 1-.076.382l-.255.17a.276.276 0 0 1-.383-.076L8.057 21.89a.276.276 0 0 1 .077-.382l.255-.17a.276.276 0 0 1 .383.076zM6.153 19.805l2.55 3.826a.276.276 0 0 1-.077.382l-.255.17a.276.276 0 0 1-.382-.076l-2.552-3.825a.276.276 0 0 1 .077-.383l.256-.17a.276.276 0 0 1 .383.076zM7.581 13.152l2.551-3.828a.276.276 0 0 1 .383-.076l.255.17c.127.085.161.256.077.383l-2.552 3.826a.276.276 0 0 1-.382.077l-.255-.168a.276.276 0 0 1-.077-.383zM6.51 12.438l2.55-3.83a.276.276 0 0 1 .384-.076l.255.17c.126.085.16.256.076.383l-2.551 3.83a.276.276 0 0 1-.383.076l-.255-.17a.276.276 0 0 1-.077-.383zM5.437 11.727l2.552-3.834a.276.276 0 0 1 .383-.076l.254.17c.127.085.161.256.077.383l-2.55 3.833a.276.276 0 0 1-.383.077l-.256-.171a.276.276 0 0 1-.077-.382zM21.156 22.2l1.003-1.503a.276.276 0 0 1 .383-.076l.254.17c.126.085.16.256.076.383l-1.002 1.502a.276.276 0 0 1-.383.076l-.255-.17a.276.276 0 0 1-.076-.383zM22.703 19.884l1.004-1.51a.276.276 0 0 1 .383-.077l.256.171a.276.276 0 0 1 .076.383l-1.006 1.507a.276.276 0 0 1-.382.077l-.254-.168a.276.276 0 0 1-.077-.383zM22.227 22.919l1.003-1.506a.276.276 0 0 1 .383-.077l.256.171a.276.276 0 0 1 .077.382l-1.003 1.507a.276.276 0 0 1-.382.076l-.258-.17a.276.276 0 0 1-.076-.383zM23.775 20.591l1.004-1.502a.276.276 0 0 1 .383-.076l.256.17a.276.276 0 0 1 .076.383L24.49 21.07a.276.276 0 0 1-.382.076l-.257-.17a.276.276 0 0 1-.076-.384zM23.298 23.63l1.005-1.503a.276.276 0 0 1 .381-.077l.256.168a.276.276 0 0 1 .077.384l-1.004 1.505a.276.276 0 0 1-.382.077l-.256-.171a.276.276 0 0 1-.077-.383zM24.847 21.31l1.002-1.505a.276.276 0 0 1 .383-.076l.255.17c.126.085.16.256.076.382l-1.003 1.504a.276.276 0 0 1-.382.076l-.254-.168a.276.276 0 0 1-.077-.382z" fill="#464655"/>
</svg>
