<svg width="32" height="32" viewBox="0 0 32 32" fill="none" xmlns="http://www.w3.org/2000/svg">
<path d="M0.26875 5.0498C0.09375 5.66302 0 6.31379 0 6.98958V10.1057H32V6.98958C32 6.32004 31.9062 5.66928 31.7313 5.0498H0.26875Z" fill="#F5F5F5"/>
<path d="M0 25.0107C0 25.6802 0.09375 26.331 0.26875 26.9505H31.725C31.9 26.3372 31.9937 25.6865 31.9937 25.0107V21.8945H0V25.0107Z" fill="#F5F5F5"/>
<path d="M6.5125 32.0003H25.4875C28.4625 31.7938 30.9313 29.7226 31.725 26.9443H0.268753C1.06875 29.7288 3.53125 31.7938 6.5125 32.0003Z" fill="#FF4B55"/>
<path d="M25.4875 0H6.51246C3.53746 0.206492 1.06871 2.27767 0.274963 5.05592H31.7312C30.9312 2.27141 28.4687 0.206492 25.4875 0Z" fill="#FF4B55"/>
<path d="M32 10.1055H0V21.8943H32V10.1055Z" fill="#41479B"/>
</svg>
