<svg width="32" height="32" viewBox="0 0 32 32" fill="none" xmlns="http://www.w3.org/2000/svg">
<path d="M25 0H7C3.134 0 0 3.134 0 7V25C0 28.866 3.134 32 7 32H25C28.866 32 32 28.866 32 25V7C32 3.134 28.866 0 25 0Z" fill="#FF4B55"/>
<path d="M7.12631 5.44929L7.92144 7.83341L10.4346 7.85291C10.7599 7.85541 10.8949 8.27066 10.6331 8.46398L8.61138 9.95691L9.36944 12.3531C9.46756 12.6634 9.11438 12.92 8.84963 12.7307L6.805 11.2693L4.76038 12.7307C4.49569 12.9199 4.14244 12.6633 4.24056 12.3531L4.99863 9.95691L2.97688 8.46398C2.71513 8.27066 2.85006 7.85548 3.17544 7.85291L5.68856 7.83341L6.48369 5.44929C6.58675 5.1406 7.02338 5.1406 7.12631 5.44929Z" fill="#FFE15A"/>
<path d="M16.2523 6.03673L16.8224 6.81423L17.7426 6.52648C17.8618 6.48923 17.9598 6.62505 17.8868 6.72636L17.3236 7.50886L17.8816 8.29511C17.9538 8.39692 17.8549 8.53205 17.736 8.49405L16.8178 8.20017L16.2424 8.9738C16.1679 9.07398 16.0088 9.02167 16.0083 8.89686L16.0041 7.93273L15.0905 7.62467C14.9722 7.5848 14.9728 7.4173 15.0913 7.37817L16.0069 7.07623L16.0176 6.11217C16.0191 5.9873 16.1785 5.93605 16.2523 6.03673Z" fill="#FFE15A"/>
<path d="M12.781 3.71881L13.7395 3.823L14.1484 2.94987C14.2013 2.83681 14.3677 2.85618 14.3932 2.97843L14.5903 3.92219L15.5471 4.04125C15.6709 4.05669 15.7039 4.22087 15.5956 4.28287L14.7589 4.76194L14.9413 5.70862C14.9649 5.83118 14.8189 5.91331 14.7265 5.82944L14.0123 5.18175L13.1683 5.64781C13.0591 5.70812 12.9359 5.59469 12.987 5.48081L13.3822 4.60144L12.6782 3.94275C12.5871 3.85756 12.6569 3.70531 12.781 3.71881Z" fill="#FFE15A"/>
<path d="M14.2962 13.0621L13.7261 13.8396L12.8059 13.5519C12.6867 13.5146 12.5887 13.6504 12.6617 13.7517L13.2249 14.5342L12.6669 15.3205C12.5947 15.4223 12.6936 15.5574 12.8125 15.5194L13.7307 15.2256L14.3061 15.9992C14.3806 16.0994 14.5397 16.0471 14.5402 15.9222L14.5444 14.9581L15.458 14.6501C15.5762 14.6102 15.5757 14.4427 15.4572 14.4036L14.5416 14.1017L14.5309 13.1376C14.5295 13.0127 14.37 12.9614 14.2962 13.0621Z" fill="#FFE15A"/>
<path d="M17.7676 10.8848L16.8091 10.989L16.4002 10.1159C16.3473 10.0028 16.1809 10.0222 16.1554 10.1444L15.9583 11.0881L15.0015 11.2072C14.8776 11.2226 14.8447 11.3868 14.953 11.4488L15.7897 11.9279L15.6073 12.8746C15.5836 12.9971 15.7296 13.0793 15.8221 12.9954L16.5363 12.3477L17.3803 12.8138C17.4895 12.8741 17.6127 12.7606 17.5616 12.6468L17.1663 11.7674L17.8704 11.1087C17.9615 11.0236 17.8916 10.8713 17.7676 10.8848Z" fill="#FFE15A"/>
</svg>
