<?xml version="1.0" encoding="utf-8"?>
<!-- Generator: Adobe Illustrator 25.4.1, SVG Export Plug-In . SVG Version: 6.00 Build 0)  -->
<svg version="1.1" id="圖層_1" xmlns="http://www.w3.org/2000/svg" xmlns:xlink="http://www.w3.org/1999/xlink" x="0px" y="0px"
	 viewBox="0 0 779.5 192" style="enable-background:new 0 0 779.5 192;" xml:space="preserve">
<style type="text/css">
	.st0{fill:#FFFFFF;}
	.st1{fill:#222939;}
	.st2{fill:#C9334E;}
	.st3{enable-background:new    ;}
	.st4{fill:#A07333;}
	.st5{fill:#CAAB72;}
	.st6{opacity:0.5;fill:#A07333;enable-background:new    ;}
	.st7{fill:url(#SVGID_1_);}
	.st8{fill:#7A1D10;}
	.st9{fill:url(#SVGID_00000141417881569776102180000010099471121844606118_);}
	.st10{fill:#D92147;}
	.st11{fill:#8C002C;}
	.st12{fill:#FF2753;}
	.st13{fill:#AB1A38;}
	.st14{fill:#C41E40;}
	.st15{fill:#F59322;}
	.st16{fill:#C31E40;}
	.st17{fill:#FFC200;}
	.st18{fill:#F7B600;}
	.st19{fill:#F79C00;}
	.st20{fill:#FBDD00;}
	.st21{fill:#FFF940;}
	.st22{fill:#FF6991;}
	.st23{opacity:0.4;fill:url(#SVGID_00000072989845859329726190000007756042035356362905_);enable-background:new    ;}
</style>
<g>
	<g id="圖層_1_00000114034570148671478180000005346516794424312490_">
		<path class="st0" d="M775.5,32.6c-3.4-3.9-8.4-6.1-13.6-6H159.6C123.7-9,65.7-8.8,30.1,27.1C8.9,48.4-0.4,78.8,5.1,108.3
			c-1.1,1.1-2,2.3-2.7,3.7c-3.3,5.8-3.1,13,0.6,18.6c0.2,0.4,0.5,0.7,0.7,1.1c-0.7,4.4,0.3,8.8,2.7,12.5
			c31.9,48.8,97.3,62.4,146.1,30.5c4.3-2.8,8.4-5.9,12.2-9.3h487.9c6.6-0.1,12.1-5,13.1-11.5l5.3-37.9c0.2-1.5,0.1-3.1-0.2-4.6H751
			c10.7,0,20.7-8.7,22.2-19.4l6.3-45C780.3,41.9,778.9,36.6,775.5,32.6z"/>
		<path class="st1" d="M769.3,91.5l6.3-45c1.2-8.8-4.9-16-13.8-16H81.4v77H751C759.8,107.5,768,100.4,769.3,91.5z"/>
		<path class="st2" d="M652.5,161.5H115.8c-3.7,0.1-6.9-2.8-7-6.6c0-0.5,0-0.9,0.1-1.4l5.3-37.9c0.7-4.5,4.6-7.9,9.1-8h536.7
			c3.8-0.1,6.9,2.9,7,6.6c0,0.5,0,0.9-0.1,1.4l-5.3,37.9C660.9,158,657.1,161.3,652.5,161.5z"/>
		<g class="st3">
			<path class="st0" d="M194.3,146.7h12.3l-0.5,3.2H190l4-28.4h3.8L194.3,146.7z"/>
			<path class="st0" d="M214.9,150h-3.8l4-28.4h3.8L214.9,150z"/>
			<path class="st0" d="M223.3,121.6h3.1c0.3,0,0.6,0.1,0.8,0.3c0.2,0.2,0.3,0.4,0.4,0.7l5.2,20c0.1,0.4,0.2,0.9,0.3,1.5
				c0.1,0.5,0.1,1.1,0.2,1.6c0.2-0.6,0.4-1.1,0.6-1.6c0.2-0.5,0.4-1,0.7-1.5l10.8-20c0.1-0.2,0.3-0.4,0.6-0.6
				c0.3-0.2,0.5-0.3,0.9-0.3h3.1L234.3,150h-3.5L223.3,121.6z"/>
			<path class="st0" d="M271,121.6l-0.4,3.1h-13.6l-1.3,9.4h11l-0.4,3h-11l-1.4,9.7h13.6l-0.4,3.1h-17.5l4-28.4H271z"/>
			<path class="st0" d="M300.9,144.1c0.2,0,0.4,0.1,0.5,0.3l1.3,1.6c-1.4,1.3-2.9,2.4-4.7,3.1s-3.8,1.1-6.1,1.1
				c-2,0-3.9-0.4-5.4-1.1c-1.6-0.7-2.8-1.7-3.8-3s-1.7-2.8-2.1-4.6c-0.4-1.8-0.4-3.7-0.1-5.9c0.3-2.1,0.9-4.1,1.9-5.9
				c0.9-1.8,2.1-3.3,3.6-4.6c1.4-1.3,3.1-2.3,4.9-3c1.8-0.7,3.8-1.1,5.9-1.1c2.1,0,3.8,0.3,5.3,1c1.4,0.6,2.6,1.5,3.7,2.6l-1.5,1.8
				c-0.1,0.1-0.2,0.2-0.4,0.3c-0.1,0.1-0.3,0.1-0.5,0.1c-0.2,0-0.3-0.1-0.5-0.2c-0.2-0.1-0.4-0.3-0.6-0.5c-0.2-0.2-0.5-0.4-0.8-0.6
				c-0.3-0.2-0.7-0.4-1.2-0.6c-0.5-0.2-1-0.3-1.6-0.5c-0.6-0.1-1.4-0.2-2.2-0.2c-1.5,0-2.9,0.3-4.3,0.8c-1.3,0.5-2.5,1.3-3.6,2.2
				c-1,1-1.9,2.1-2.6,3.5c-0.7,1.4-1.2,2.9-1.4,4.7c-0.2,1.8-0.2,3.3,0.1,4.7c0.3,1.4,0.8,2.6,1.6,3.5c0.7,1,1.7,1.7,2.8,2.2
				c1.1,0.5,2.4,0.8,3.8,0.8c0.8,0,1.6,0,2.3-0.1c0.7-0.1,1.3-0.3,1.9-0.5c0.6-0.2,1.2-0.5,1.7-0.8c0.5-0.3,1.1-0.7,1.7-1.2
				C300.5,144.2,300.7,144.1,300.9,144.1z"/>
			<path class="st0" d="M330.6,150h-3c-0.3,0-0.6-0.1-0.8-0.3c-0.2-0.2-0.3-0.4-0.4-0.7l-1.7-6.9H312l-3.6,6.9
				c-0.1,0.2-0.3,0.4-0.6,0.6c-0.3,0.2-0.5,0.3-0.9,0.3h-3l15.4-28.4h3.9L330.6,150z M313.5,139.4h10.6l-2.8-11.5
				c-0.2-0.7-0.3-1.6-0.5-2.7c-0.2,0.5-0.4,1-0.6,1.5c-0.2,0.5-0.4,0.9-0.6,1.2L313.5,139.4z"/>
			<path class="st0" d="M352.1,126c-0.1,0.2-0.3,0.3-0.4,0.4c-0.1,0.1-0.3,0.1-0.5,0.1c-0.2,0-0.5-0.1-0.7-0.3
				c-0.3-0.2-0.6-0.5-1-0.7c-0.4-0.3-0.9-0.5-1.5-0.7c-0.6-0.2-1.4-0.3-2.3-0.3c-0.9,0-1.6,0.1-2.3,0.3c-0.7,0.2-1.3,0.5-1.8,0.9
				c-0.5,0.4-0.9,0.9-1.2,1.4c-0.3,0.5-0.5,1.1-0.6,1.7c-0.1,0.8,0,1.4,0.3,2s0.8,1,1.4,1.3c0.6,0.4,1.3,0.7,2,1
				c0.8,0.3,1.6,0.6,2.4,0.8c0.8,0.3,1.6,0.6,2.4,1c0.8,0.4,1.4,0.8,2,1.4c0.6,0.6,1,1.2,1.3,2c0.3,0.8,0.3,1.8,0.2,3
				c-0.2,1.2-0.6,2.4-1.1,3.5c-0.6,1.1-1.3,2-2.3,2.8c-0.9,0.8-2,1.4-3.3,1.9c-1.2,0.5-2.6,0.7-4.1,0.7c-1.8,0-3.5-0.3-4.9-1
				c-1.4-0.7-2.6-1.6-3.5-2.7l1.4-1.8c0.1-0.1,0.3-0.3,0.4-0.4c0.2-0.1,0.3-0.1,0.5-0.1c0.3,0,0.6,0.1,0.9,0.4s0.7,0.6,1.2,1
				c0.5,0.4,1.1,0.7,1.8,1c0.7,0.3,1.6,0.4,2.7,0.4c0.9,0,1.7-0.1,2.5-0.4c0.7-0.2,1.4-0.6,2-1.1c0.6-0.5,1-1,1.4-1.6
				c0.4-0.6,0.6-1.3,0.7-2.1c0.1-0.9,0-1.6-0.3-2.1c-0.3-0.5-0.8-1-1.3-1.4c-0.6-0.4-1.3-0.7-2-0.9c-0.8-0.3-1.6-0.5-2.4-0.8
				c-0.8-0.3-1.6-0.6-2.4-0.9c-0.8-0.4-1.4-0.8-2-1.4c-0.6-0.6-1-1.3-1.2-2.1c-0.3-0.9-0.3-1.9-0.1-3.2c0.1-1,0.5-2,1-2.9
				c0.5-0.9,1.2-1.8,2-2.5c0.8-0.7,1.8-1.3,3-1.7s2.4-0.7,3.8-0.7c1.6,0,3,0.3,4.2,0.8c1.2,0.5,2.3,1.2,3.1,2.2L352.1,126z"/>
			<path class="st0" d="M359.7,150h-3.8l4-28.4h3.8L359.7,150z"/>
			<path class="st0" d="M374,121.7c0.2,0.1,0.3,0.3,0.5,0.5l13.4,21.4c0-0.3,0-0.7,0.1-1c0-0.3,0.1-0.6,0.1-0.9l2.8-20.1h3.4
				l-4,28.4h-1.9c-0.3,0-0.6-0.1-0.7-0.2c-0.2-0.1-0.4-0.3-0.5-0.5l-13.4-21.4c0,0.3,0,0.7-0.1,1c0,0.3-0.1,0.6-0.1,0.9l-2.9,20.2
				h-3.4l4-28.4h2C373.6,121.6,373.9,121.6,374,121.7z"/>
			<path class="st0" d="M425.6,135.8c-0.3,2.1-0.9,4.1-1.8,5.9s-2.1,3.3-3.5,4.6c-1.4,1.3-3,2.3-4.8,3c-1.8,0.7-3.8,1.1-5.9,1.1
				c-2.1,0-3.9-0.4-5.6-1.1c-1.6-0.7-2.9-1.7-4-3c-1-1.3-1.8-2.8-2.2-4.6c-0.4-1.8-0.5-3.7-0.2-5.9c0.3-2.1,0.9-4.1,1.8-5.9
				c0.9-1.8,2.1-3.3,3.5-4.6c1.4-1.3,3-2.3,4.8-3s3.8-1.1,5.9-1.1s3.9,0.4,5.6,1.1s3,1.7,4,3s1.8,2.8,2.2,4.6
				C425.8,131.7,425.9,133.7,425.6,135.8z M421.7,135.8c0.2-1.7,0.2-3.3,0-4.7c-0.3-1.4-0.8-2.6-1.5-3.5c-0.7-1-1.7-1.7-2.9-2.2
				s-2.5-0.8-4-0.8c-1.5,0-2.9,0.3-4.2,0.8s-2.5,1.2-3.5,2.2c-1,1-1.9,2.1-2.5,3.5c-0.7,1.4-1.1,2.9-1.4,4.7
				c-0.2,1.7-0.2,3.3,0.1,4.7c0.3,1.4,0.8,2.5,1.5,3.5c0.7,1,1.7,1.7,2.9,2.2c1.2,0.5,2.5,0.8,4,0.8c1.5,0,3-0.3,4.3-0.8
				c1.3-0.5,2.5-1.2,3.5-2.2c1-1,1.8-2.1,2.5-3.5C421,139.1,421.4,137.5,421.7,135.8z"/>
			<path class="st0" d="M458,121.6l-0.4,3.1h-13.6l-1.3,9.4h11l-0.4,3h-11l-1.4,9.7h13.6L454,150h-17.5l4-28.4H458z"/>
			<path class="st0" d="M468.2,135.4l-7.4-13.8h3.8c0.3,0,0.5,0,0.6,0.1c0.1,0.1,0.2,0.2,0.3,0.4l5.8,11.4c0.1-0.3,0.3-0.6,0.5-0.9
				l8.5-10.4c0.1-0.2,0.3-0.3,0.4-0.4c0.2-0.1,0.3-0.2,0.5-0.2h3.7l-11.3,13.6l7.6,14.8h-3.8c-0.3,0-0.5-0.1-0.7-0.2
				c-0.1-0.2-0.3-0.3-0.3-0.5l-5.9-11.9c-0.1,0.3-0.3,0.5-0.5,0.8l-9,11.1c-0.1,0.2-0.3,0.4-0.5,0.5c-0.2,0.2-0.4,0.2-0.7,0.2h-3.6
				L468.2,135.4z"/>
			<path class="st0" d="M505.2,144.1c0.2,0,0.4,0.1,0.5,0.3l1.3,1.6c-1.4,1.3-2.9,2.4-4.7,3.1c-1.8,0.8-3.8,1.1-6.1,1.1
				c-2,0-3.9-0.4-5.4-1.1s-2.8-1.7-3.8-3c-1-1.3-1.7-2.8-2.1-4.6c-0.4-1.8-0.4-3.7-0.1-5.9c0.3-2.1,0.9-4.1,1.9-5.9
				c0.9-1.8,2.1-3.3,3.6-4.6c1.4-1.3,3.1-2.3,4.9-3c1.8-0.7,3.8-1.1,5.9-1.1c2.1,0,3.8,0.3,5.3,1c1.4,0.6,2.6,1.5,3.7,2.6l-1.5,1.8
				c-0.1,0.1-0.2,0.2-0.4,0.3c-0.1,0.1-0.3,0.1-0.5,0.1c-0.2,0-0.3-0.1-0.5-0.2c-0.2-0.1-0.4-0.3-0.6-0.5c-0.2-0.2-0.5-0.4-0.8-0.6
				c-0.3-0.2-0.7-0.4-1.2-0.6c-0.5-0.2-1-0.3-1.6-0.5s-1.4-0.2-2.2-0.2c-1.5,0-2.9,0.3-4.3,0.8c-1.3,0.5-2.5,1.3-3.6,2.2
				c-1,1-1.9,2.1-2.6,3.5c-0.7,1.4-1.2,2.9-1.4,4.7c-0.2,1.8-0.2,3.3,0.1,4.7c0.3,1.4,0.8,2.6,1.6,3.5c0.7,1,1.7,1.7,2.8,2.2
				s2.4,0.8,3.8,0.8c0.8,0,1.6,0,2.3-0.1c0.7-0.1,1.3-0.3,1.9-0.5s1.2-0.5,1.7-0.8c0.5-0.3,1.1-0.7,1.7-1.2
				C504.8,144.2,505,144.1,505.2,144.1z"/>
			<path class="st0" d="M515.8,146.7h12.3l-0.5,3.2h-16.1l4-28.4h3.8L515.8,146.7z"/>
			<path class="st0" d="M543.3,146.9c1.2,0,2.3-0.2,3.2-0.6c1-0.4,1.8-0.9,2.6-1.7c0.7-0.7,1.3-1.6,1.8-2.6c0.5-1,0.8-2.1,1-3.3
				l2.4-17.2h3.8l-2.4,17.2c-0.2,1.6-0.7,3.2-1.4,4.6c-0.7,1.4-1.6,2.6-2.8,3.6c-1.1,1-2.4,1.8-3.9,2.4c-1.5,0.6-3.1,0.9-4.8,0.9
				s-3.3-0.3-4.6-0.9s-2.4-1.4-3.2-2.4c-0.8-1-1.4-2.2-1.7-3.6c-0.3-1.4-0.4-2.9-0.1-4.6l2.4-17.2h3.8l-2.4,17.2
				c-0.2,1.2-0.2,2.3,0,3.3s0.6,1.8,1.1,2.6c0.5,0.7,1.2,1.3,2.1,1.7C541.1,146.7,542.1,146.9,543.3,146.9z"/>
			<path class="st0" d="M578.7,126c-0.1,0.2-0.3,0.3-0.4,0.4c-0.1,0.1-0.3,0.1-0.5,0.1c-0.2,0-0.5-0.1-0.7-0.3s-0.6-0.5-1-0.7
				c-0.4-0.3-0.9-0.5-1.5-0.7c-0.6-0.2-1.4-0.3-2.3-0.3c-0.9,0-1.6,0.1-2.3,0.3s-1.3,0.5-1.8,0.9c-0.5,0.4-0.9,0.9-1.2,1.4
				c-0.3,0.5-0.5,1.1-0.6,1.7c-0.1,0.8,0,1.4,0.3,2s0.8,1,1.4,1.3c0.6,0.4,1.3,0.7,2,1c0.8,0.3,1.6,0.6,2.4,0.8
				c0.8,0.3,1.6,0.6,2.4,1c0.8,0.4,1.4,0.8,2,1.4c0.6,0.6,1,1.2,1.3,2c0.3,0.8,0.3,1.8,0.2,3c-0.2,1.2-0.6,2.4-1.1,3.5
				c-0.6,1.1-1.3,2-2.3,2.8c-0.9,0.8-2,1.4-3.3,1.9c-1.2,0.5-2.6,0.7-4.1,0.7c-1.8,0-3.5-0.3-4.9-1c-1.4-0.7-2.6-1.6-3.5-2.7
				l1.4-1.8c0.1-0.1,0.3-0.3,0.4-0.4c0.2-0.1,0.3-0.1,0.5-0.1c0.3,0,0.6,0.1,0.9,0.4s0.7,0.6,1.2,1c0.5,0.4,1.1,0.7,1.8,1
				c0.7,0.3,1.6,0.4,2.7,0.4c0.9,0,1.7-0.1,2.5-0.4c0.7-0.2,1.4-0.6,2-1.1c0.6-0.5,1-1,1.4-1.6s0.6-1.3,0.7-2.1
				c0.1-0.9,0-1.6-0.3-2.1c-0.3-0.5-0.8-1-1.3-1.4c-0.6-0.4-1.3-0.7-2-0.9s-1.6-0.5-2.4-0.8c-0.8-0.3-1.6-0.6-2.4-0.9
				c-0.8-0.4-1.4-0.8-2-1.4c-0.6-0.6-1-1.3-1.2-2.1c-0.3-0.9-0.3-1.9-0.1-3.2c0.1-1,0.5-2,1-2.9c0.5-0.9,1.2-1.8,2-2.5
				c0.8-0.7,1.8-1.3,3-1.7s2.4-0.7,3.8-0.7c1.6,0,3,0.3,4.2,0.8c1.2,0.5,2.3,1.2,3.1,2.2L578.7,126z"/>
			<path class="st0" d="M586.3,150h-3.8l4-28.4h3.8L586.3,150z"/>
			<path class="st0" d="M594.6,121.6h3.1c0.3,0,0.6,0.1,0.8,0.3c0.2,0.2,0.3,0.4,0.4,0.7l5.2,20c0.1,0.4,0.2,0.9,0.3,1.5
				c0.1,0.5,0.1,1.1,0.2,1.6c0.2-0.6,0.4-1.1,0.6-1.6c0.2-0.5,0.4-1,0.7-1.5l10.8-20c0.1-0.2,0.3-0.4,0.6-0.6
				c0.3-0.2,0.5-0.3,0.9-0.3h3.1L605.6,150h-3.5L594.6,121.6z"/>
			<path class="st0" d="M642.3,121.6l-0.4,3.1h-13.6l-1.3,9.4h11l-0.4,3h-11l-1.4,9.7h13.6l-0.4,3.1h-17.5l4-28.4H642.3z"/>
		</g>
		<g class="st3">
			<path class="st0" d="M199.1,48.5h7.2c0.7,0,1.3,0.2,1.8,0.5c0.4,0.3,0.7,0.8,0.8,1.4l3.9,27.4c0.1,0.7,0.2,1.4,0.2,2.2
				c0,0.8,0.1,1.6,0.1,2.5c0.3-0.9,0.6-1.7,0.9-2.5c0.3-0.8,0.6-1.5,1-2.2l12.9-27.4c0.2-0.5,0.6-0.9,1.2-1.3
				c0.6-0.4,1.2-0.6,1.9-0.6h2.5c0.7,0,1.3,0.2,1.8,0.5c0.4,0.3,0.7,0.8,0.8,1.4l5.1,27.4c0.3,1.4,0.5,2.9,0.6,4.5
				c0.3-0.8,0.5-1.6,0.8-2.4s0.5-1.5,0.8-2.1l11.7-27.4c0.2-0.5,0.6-1,1.2-1.4c0.6-0.4,1.2-0.6,1.9-0.6h6.7L244,94.3h-7.7L230.7,63
				c-0.1-0.4-0.1-0.8-0.2-1.3c-0.1-0.5-0.1-1-0.2-1.5c-0.2,0.5-0.4,1-0.6,1.5c-0.2,0.5-0.4,0.9-0.6,1.3l-14.5,31.3h-7.7L199.1,48.5z
				"/>
			<path class="st0" d="M298.6,48.5l-1,6.8h-20.3L275.5,68h16l-0.9,6.6h-16l-1.8,13H293l-1,6.8h-28.9l6.5-45.8H298.6z"/>
		</g>
		<g class="st3">
			<path class="st0" d="M309,87.2h18.3l-1,7h-26.9l6.5-45.8h8.5L309,87.2z"/>
		</g>
		<g class="st3">
			<path class="st0" d="M362.7,83.5c0.5,0,0.8,0.2,1.1,0.5l2.8,3.6c-2.2,2.3-4.7,4.1-7.6,5.3c-2.9,1.2-6.2,1.8-10,1.8
				c-3.4,0-6.4-0.6-8.9-1.7c-2.5-1.2-4.6-2.8-6.3-4.8c-1.6-2.1-2.8-4.5-3.4-7.4c-0.6-2.9-0.7-6-0.2-9.4c0.5-3.4,1.5-6.6,3-9.5
				c1.5-2.9,3.5-5.3,5.9-7.4c2.4-2.1,5.1-3.7,8.1-4.8c3-1.2,6.3-1.7,9.8-1.7c3.4,0,6.3,0.5,8.7,1.6c2.4,1.1,4.4,2.5,5.9,4.3l-3.4,4
				c-0.2,0.3-0.5,0.5-0.7,0.7c-0.3,0.2-0.7,0.3-1.1,0.3c-0.5,0-1-0.2-1.4-0.6c-0.5-0.4-1-0.8-1.8-1.2c-0.7-0.4-1.6-0.9-2.8-1.2
				c-1.1-0.4-2.6-0.6-4.5-0.6c-2.2,0-4.2,0.4-6.1,1.1c-1.9,0.8-3.6,1.8-5.1,3.2c-1.5,1.4-2.7,3.1-3.8,5.1c-1,2-1.7,4.2-2,6.7
				c-0.4,2.6-0.3,4.9,0.1,6.9c0.4,2,1.2,3.7,2.2,5.1c1.1,1.4,2.4,2.4,4,3.2c1.6,0.7,3.4,1.1,5.3,1.1c1.2,0,2.2-0.1,3.2-0.2
				c1-0.1,1.9-0.3,2.7-0.6c0.8-0.3,1.6-0.6,2.4-1.1c0.8-0.4,1.5-1,2.3-1.6c0.2-0.2,0.5-0.3,0.7-0.5
				C362.2,83.5,362.4,83.5,362.7,83.5z"/>
			<path class="st0" d="M419.3,71.4c-0.5,3.4-1.5,6.5-3,9.3c-1.5,2.9-3.4,5.3-5.8,7.4s-5,3.7-8,4.9c-3,1.2-6.3,1.8-9.7,1.8
				c-3.5,0-6.5-0.6-9.2-1.8c-2.7-1.2-4.9-2.8-6.7-4.9c-1.7-2.1-3-4.6-3.7-7.4c-0.7-2.9-0.8-6-0.4-9.3c0.5-3.4,1.5-6.5,3-9.3
				c1.5-2.9,3.5-5.3,5.8-7.4c2.3-2.1,5-3.7,8-4.9c3-1.2,6.3-1.8,9.7-1.8c3.5,0,6.5,0.6,9.2,1.8c2.7,1.2,4.9,2.8,6.6,4.9
				s3,4.6,3.7,7.4C419.7,64.9,419.8,68,419.3,71.4z M410.6,71.4c0.4-2.5,0.3-4.8,0-6.8c-0.4-2-1.1-3.7-2.1-5.1s-2.4-2.5-4.1-3.2
				c-1.7-0.7-3.6-1.1-5.9-1.1c-2.2,0-4.3,0.4-6.2,1.1c-1.9,0.7-3.6,1.8-5,3.2c-1.5,1.4-2.7,3.1-3.6,5.1c-1,2-1.6,4.3-2,6.8
				c-0.4,2.5-0.3,4.8,0.1,6.8c0.4,2,1.1,3.7,2.2,5.1c1.1,1.4,2.4,2.4,4.1,3.2c1.7,0.7,3.7,1.1,5.9,1.1c2.2,0,4.3-0.4,6.2-1.1
				s3.6-1.8,5-3.2c1.4-1.4,2.6-3.1,3.6-5.1C409.6,76.1,410.2,73.9,410.6,71.4z"/>
			<path class="st0" d="M449.2,77.4c0.2,0.7,0.4,1.5,0.6,2.2c0.4-0.8,0.8-1.5,1.2-2.2c0.4-0.7,0.9-1.4,1.3-2.1l17.1-25.4
				c0.2-0.3,0.4-0.6,0.6-0.8c0.2-0.2,0.4-0.3,0.7-0.4c0.2-0.1,0.5-0.1,0.8-0.2c0.3,0,0.6,0,1,0h6.4l-6.5,45.8H465l4.2-29.6
				c0.1-0.5,0.2-1.2,0.3-1.8c0.1-0.7,0.3-1.3,0.4-2l-17.5,26c-0.4,0.6-0.9,1.1-1.4,1.4c-0.6,0.3-1.2,0.5-1.8,0.5h-1.2
				c-0.7,0-1.2-0.2-1.7-0.5c-0.5-0.3-0.8-0.8-1-1.4l-10.3-26.1c0,0.7-0.1,1.4-0.1,2c-0.1,0.7-0.1,1.3-0.2,1.9l-4.2,29.6h-7.5
				l6.5-45.8h6.4c0.4,0,0.7,0,1,0s0.5,0.1,0.7,0.2c0.2,0.1,0.4,0.2,0.6,0.4c0.2,0.2,0.3,0.4,0.4,0.8l10.1,25.4
				C448.8,75.9,449,76.7,449.2,77.4z"/>
			<path class="st0" d="M517.1,48.5l-1,6.8h-20.3L494.1,68h16l-0.9,6.6h-16l-1.8,13h20.3l-1,6.8h-28.9l6.5-45.8H517.1z"/>
			<path class="st0" d="M530.2,94.3l6.5-45.8h15.8c3,0,5.5,0.3,7.6,0.9c2,0.6,3.7,1.4,4.9,2.4c1.2,1.1,2,2.3,2.5,3.8
				c0.4,1.5,0.5,3.2,0.2,5.1c-0.2,1.1-0.5,2.1-0.9,3.1c-0.5,1-1.1,1.9-1.9,2.8s-1.7,1.6-2.9,2.3c-1.1,0.7-2.4,1.3-3.9,1.8
				c6.1,1.4,8.8,4.8,8,10.2c-0.3,1.9-0.9,3.7-1.9,5.4s-2.2,3.1-3.8,4.3c-1.6,1.2-3.5,2.1-5.6,2.8c-2.2,0.7-4.6,1-7.2,1H530.2z
				 M541.6,74.2l-1.9,13.4h8.6c1.6,0,2.9-0.2,4.1-0.6s2-0.9,2.8-1.5c0.7-0.6,1.3-1.4,1.7-2.2c0.4-0.8,0.7-1.7,0.8-2.7
				c0.1-1,0.1-1.9-0.1-2.7c-0.2-0.8-0.6-1.5-1.2-2c-0.6-0.6-1.4-1-2.4-1.3c-1-0.3-2.3-0.4-3.8-0.4H541.6z M542.4,68.3h6.8
				c2.9,0,5.2-0.5,6.8-1.6c1.6-1.1,2.6-2.7,3-5c0.3-2.4-0.1-4.1-1.3-5.1c-1.2-1-3.2-1.5-6.1-1.5h-7.3L542.4,68.3z"/>
			<path class="st0" d="M618.7,71.4c-0.5,3.4-1.5,6.5-3,9.3c-1.5,2.9-3.4,5.3-5.8,7.4s-5,3.7-8,4.9c-3,1.2-6.3,1.8-9.7,1.8
				c-3.5,0-6.5-0.6-9.2-1.8c-2.7-1.2-4.9-2.8-6.7-4.9c-1.7-2.1-3-4.6-3.7-7.4c-0.7-2.9-0.8-6-0.4-9.3c0.5-3.4,1.5-6.5,3-9.3
				c1.5-2.9,3.5-5.3,5.8-7.4c2.3-2.1,5-3.7,8-4.9c3-1.2,6.3-1.8,9.7-1.8c3.5,0,6.5,0.6,9.2,1.8c2.7,1.2,4.9,2.8,6.6,4.9
				s3,4.6,3.7,7.4C619.1,64.9,619.2,68,618.7,71.4z M610,71.4c0.4-2.5,0.3-4.8,0-6.8c-0.4-2-1.1-3.7-2.1-5.1s-2.4-2.5-4.1-3.2
				c-1.7-0.7-3.6-1.1-5.9-1.1c-2.2,0-4.3,0.4-6.2,1.1c-1.9,0.7-3.6,1.8-5,3.2c-1.5,1.4-2.7,3.1-3.6,5.1c-1,2-1.6,4.3-2,6.8
				c-0.4,2.5-0.3,4.8,0.1,6.8c0.4,2,1.1,3.7,2.2,5.1c1.1,1.4,2.4,2.4,4.1,3.2s3.7,1.1,5.9,1.1c2.2,0,4.3-0.4,6.2-1.1s3.6-1.8,5-3.2
				c1.4-1.4,2.6-3.1,3.6-5.1C609,76.1,609.6,73.9,610,71.4z"/>
			<path class="st0" d="M634.1,48.5c0.2,0,0.5,0.1,0.7,0.2c0.2,0.1,0.4,0.2,0.5,0.4c0.2,0.2,0.3,0.4,0.5,0.7l19.7,30.6
				c0-0.7,0.1-1.5,0.1-2.2c0.1-0.7,0.1-1.4,0.2-2l3.9-27.8h7.5l-6.5,45.8h-4.4c-0.7,0-1.2-0.1-1.6-0.3c-0.4-0.2-0.8-0.6-1.1-1.1
				L634,62.3c0,0.7-0.1,1.3-0.1,2c-0.1,0.7-0.1,1.3-0.2,1.8l-4,28.1h-7.5l6.5-45.8h4.5C633.5,48.5,633.8,48.5,634.1,48.5z"/>
			<path class="st0" d="M689.5,87.4c1.6,0,3.2-0.3,4.5-0.8c1.4-0.5,2.6-1.3,3.6-2.3c1-1,1.9-2.2,2.6-3.6c0.7-1.4,1.1-3,1.4-4.8
				l3.9-27.4h8.5l-3.9,27.4c-0.4,2.7-1.2,5.2-2.4,7.6c-1.2,2.3-2.7,4.3-4.6,6s-4.1,3-6.5,3.9c-2.5,0.9-5.2,1.4-8.1,1.4
				c-2.9,0-5.5-0.5-7.7-1.4c-2.2-0.9-4-2.2-5.4-3.9c-1.4-1.7-2.4-3.7-2.9-6c-0.6-2.3-0.6-4.8-0.2-7.6l3.9-27.4h8.5l-3.9,27.4
				c-0.2,1.8-0.2,3.3,0,4.8c0.3,1.4,0.8,2.6,1.5,3.6c0.7,1,1.7,1.8,2.9,2.3C686.4,87.1,687.8,87.4,689.5,87.4z"/>
			<path class="st0" d="M746.1,56.8c-0.3,0.5-0.6,0.8-0.9,1c-0.3,0.2-0.7,0.3-1.1,0.3c-0.4,0-0.9-0.2-1.4-0.5
				c-0.5-0.3-1.1-0.7-1.7-1.1c-0.7-0.4-1.4-0.8-2.4-1.1c-0.9-0.3-2-0.5-3.3-0.5c-1.2,0-2.2,0.1-3.1,0.4c-0.9,0.3-1.7,0.7-2.4,1.2
				c-0.7,0.5-1.2,1.1-1.6,1.8c-0.4,0.7-0.7,1.5-0.8,2.3c-0.2,1.1,0,2,0.5,2.7c0.5,0.7,1.2,1.3,2.1,1.8c0.9,0.5,2,1,3.2,1.4
				c1.2,0.4,2.4,0.8,3.7,1.3c1.3,0.5,2.5,1,3.7,1.6c1.2,0.6,2.2,1.4,3.1,2.3c0.9,0.9,1.5,2,1.9,3.4c0.4,1.3,0.5,2.9,0.2,4.8
				c-0.3,2.1-0.9,4-1.9,5.8c-1,1.8-2.2,3.4-3.8,4.7c-1.6,1.3-3.4,2.4-5.4,3.2c-2.1,0.8-4.4,1.2-6.9,1.2c-1.5,0-2.9-0.1-4.2-0.4
				c-1.4-0.3-2.7-0.7-3.9-1.2c-1.2-0.5-2.3-1.2-3.4-1.9c-1-0.7-1.9-1.6-2.7-2.5l3-4.1c0.3-0.3,0.6-0.5,0.9-0.7
				c0.4-0.2,0.7-0.3,1.1-0.3c0.5,0,1.1,0.2,1.6,0.6c0.6,0.4,1.2,0.9,2,1.4c0.8,0.5,1.7,1,2.7,1.4c1.1,0.4,2.4,0.6,4,0.6
				c2.4,0,4.4-0.6,5.9-1.7c1.5-1.2,2.4-2.8,2.7-5c0.2-1.2,0-2.2-0.5-2.9c-0.5-0.8-1.2-1.4-2.1-1.9c-0.9-0.5-2-1-3.2-1.3
				c-1.2-0.4-2.5-0.7-3.7-1.2c-1.2-0.4-2.5-0.9-3.6-1.5c-1.2-0.6-2.2-1.4-3.1-2.3c-0.9-1-1.5-2.1-1.9-3.6c-0.4-1.4-0.5-3.2-0.2-5.3
				c0.2-1.7,0.8-3.3,1.7-4.9s2.1-3,3.5-4.2c1.5-1.2,3.2-2.2,5.1-2.9c2-0.7,4.1-1.1,6.5-1.1c2.7,0,5.1,0.4,7.3,1.3
				c2.2,0.8,3.9,2,5.3,3.5L746.1,56.8z"/>
		</g>
		<path class="st1" d="M180.7,110.5c10.4-47.2-19.4-94-66.7-104.4S20,25.5,9.6,72.7c-1.4,6.2-2.1,12.5-2.1,18.9
			c0,6.1,0.6,12.2,1.9,18.2c-5.8,4.4-7.2,12.6-3.2,18.6c0.5,0.8,1.1,1.6,1.6,2.4l-0.1,0.4c-0.9,3.7-0.2,7.6,1.9,10.8
			c30.7,46.9,93.6,60.1,140.5,29.4c11.7-7.7,21.7-17.7,29.4-29.4c2.1-3.2,2.8-7.1,1.9-10.9c0-0.1,0-0.2-0.1-0.3
			c0.6-0.8,1.1-1.6,1.6-2.4C186.8,122.7,185.8,115.1,180.7,110.5z"/>
		<path class="st4" d="M95,160.3c-38,0-68.7-30.8-68.7-68.7c0-38,30.8-68.7,68.7-68.7c38,0,68.7,30.8,68.7,68.7v0
			C163.7,129.5,132.9,160.3,95,160.3z"/>
		<path class="st5" d="M95.2,16c-41.8,0-75.6,33.8-75.6,75.6s33.8,75.6,75.6,75.6s75.6-33.8,75.6-75.6l0,0
			C170.7,49.9,136.9,16,95.2,16z M95,160.3c-38,0-68.7-30.8-68.7-68.7c0-38,30.8-68.7,68.7-68.7c38,0,68.7,30.8,68.7,68.7v0
			C163.7,129.5,132.9,160.3,95,160.3z"/>
		<path class="st6" d="M95.2,24.8c37.6,0,68.1,30.2,68.7,67.7c0-0.3,0-0.7,0-1c0-38-30.8-68.7-68.7-68.7c-38,0-68.7,30.8-68.7,68.7
			c0,0.3,0,0.7,0,1C27,55,57.6,24.9,95.2,24.8z"/>
		
			<linearGradient id="SVGID_1_" gradientUnits="userSpaceOnUse" x1="41.0818" y1="60.656" x2="29.0918" y2="85.126" gradientTransform="matrix(1 0 0 -1 0 194)">
			<stop  offset="0" style="stop-color:#942639"/>
			<stop  offset="1" style="stop-color:#C9334E"/>
		</linearGradient>
		<path class="st7" d="M43,106.2c-0.4-0.5-0.9-0.8-1.6-0.8h-0.1c-0.7,0.1-1.3,0.5-1.6,1.1l-6.3,13.2L17.9,119c-1,0-1.9,0.9-1.9,1.9
			c0,0.4,0.1,0.7,0.3,1c8.9,13.7,21.3,24.8,35.8,32.3v-37.5C48.7,113.5,45.6,110,43,106.2z"/>
		<polygon class="st8" points="43.6,119.7 52.1,116.7 52.2,130.3 43,126.3 		"/>
		
			<linearGradient id="SVGID_00000056424315720633650060000002867990423611787179_" gradientUnits="userSpaceOnUse" x1="144.4212" y1="57.6455" x2="159.4112" y2="81.6155" gradientTransform="matrix(1 0 0 -1 0 194)">
			<stop  offset="0" style="stop-color:#942639"/>
			<stop  offset="1" style="stop-color:#C9334E"/>
		</linearGradient>
		<path style="fill:url(#SVGID_00000056424315720633650060000002867990423611787179_);" d="M173.1,119.9c-0.3-0.6-1-1-1.6-1
			l-15.6,0.7l-6.3-13.2c-0.3-0.6-0.9-1-1.6-1.1h-0.1c-0.6,0-1.2,0.3-1.6,0.8c-2.6,3.8-5.7,7.4-9.1,10.5v37.5
			c14.5-7.5,26.8-18.6,35.8-32.2C173.4,121.3,173.4,120.5,173.1,119.9z"/>
		<polygon class="st8" points="145.7,119.7 137.2,116.7 137.1,130.3 146.3,126.3 		"/>
		<path class="st10" d="M62.1,61.7c-1,0-1.9,0-2.8,0C60.1,61.7,61.1,61.7,62.1,61.7z"/>
		<path class="st11" d="M87.3,67.9c2.6-2.3-0.9-3.8-6.1-4.4c-16.6-1.8-27.6-3.1-32.2,0.9c-0.6,1.8,0.3,6.8,0.7,8.3
			C52.5,65.8,81.7,66.5,87.3,67.9z"/>
		<path class="st10" d="M49,64.4c-0.6,0.5-1.1,1.1-1.5,1.8c-2.1,3.8-7.4,19.4-2.3,18.5c5-0.9,33.9-13.2,40.5-17.4
			c-0.2,0.1-0.4,0.2-0.6,0.4C73.9,70.9,45.8,73.2,49,64.4z"/>
		<path class="st12" d="M49,67c-1.7,2.9-2.8,6.3-4.5,12c1-0.5,1.9-1.1,2.9-1.6c4.2-5.1,5.1-6.2,6.2-7.6C51.3,69.1,49.7,68.2,49,67z"
			/>
		<path class="st10" d="M128,65.9c0.8,0.1,1.5,0.2,2.1,0.3C129.4,66.1,128.7,66,128,65.9z"/>
		<path class="st13" d="M107.3,68.5c-1.4-2.5,1.6-3.5,5.7-3.4c13,0.4,21.8,0.5,24.3,5c0,1.8-1.9,6.4-2.5,7.8
			C134.3,70.9,111.9,67.9,107.3,68.5z"/>
		<path class="st11" d="M113,65.1c-4.1-0.1-7.1,0.9-5.7,3.4c3.7-0.1,7.5,0.2,11.2,1c6.3,0,12.6,0.3,18.8,1.1c0-0.2,0-0.4,0-0.5
			C134.8,65.6,126,65.4,113,65.1z"/>
		<path class="st10" d="M137.3,70.1c0.4,0.6,0.6,1.2,0.7,1.9c0.6,3.9,0.9,19.4-2.8,17.9s-22.6-16.8-26.6-21.7
			c0.1,0.1,0.2,0.3,0.4,0.4C116.7,73.1,137.5,78.9,137.3,70.1z"/>
		<path class="st10" d="M120.8,49.6c-7.1-1.7-9.8,2.3-33.3,19c0,0-5.5,2.4,0.5,1.8c0-0.1,0.1-0.1,0.1-0.2
			c6.1-3.4,12.8-7.1,20.4-10.5c3.7-1.7,7.7-3.5,12.7-3.5c3.7-0.1,5.5,2.4,2.7,4.5c-1.9,1.4-15.8,4.7-19.5,5.9
			c-2.9,1-5.6,1.8-8.3,2.6c12.3-1.8,26-2.7,28.7-2.7c9.7,0,16.1-0.4,17.4-2.2S127.4,51.2,120.8,49.6z"/>
		<path class="st14" d="M124.6,52.5c-2.8-1.3-5.8-2.3-8.8-3c-4.8,1.2-10.8,6.7-28.3,19.1c0,0-5.5,2.4,0.5,1.8c0-0.1,0.1-0.1,0.1-0.2
			c6.1-3.4,12.8-7.1,20.4-10.5c3.7-1.7,7.7-3.5,12.7-3.5c3.1-0.1,4.9,1.7,3.6,3.5c6,0.2,11.8,1.9,17,4.9c0.1,0,0.1-0.1,0.2-0.2
			C136.9,59.5,131,55.5,124.6,52.5z"/>
		<path class="st14" d="M123.2,61c5.2-0.3,10.3,0.6,15.1,2.6c-4.4-2.1-9.3-3.2-14.2-3.2C123.9,60.7,123.6,60.9,123.2,61z"/>
		<path class="st13" d="M121.2,56.1c3.3-0.1,5,1.9,3.4,3.8c1.4-0.5,2.7-1.3,3.8-2.2c1.6-1.6,0.4-3.8-3-5.7
			c-11.2-6.3-12.4-1.5-37.9,16.7c0,0-5.5,2.4,0.5,1.8c0-0.1,0.1-0.1,0.1-0.2c6.1-3.4,12.8-7.1,20.4-10.5
			C112.2,58,116.2,56.2,121.2,56.1z"/>
		<path class="st11" d="M87.5,68.6c0,0-5.5,2.4,0.5,1.8c0-0.1,0.1-0.1,0.1-0.2c7.3-4.2,14.8-8,22.5-11.4c2-3,3.7-6.1,5.4-9.3
			C110.5,50.6,104.2,56.7,87.5,68.6z"/>
		<path class="st10" d="M104,43.7c2.4-2.9,15.5-15.7,15.5-5.9c0.7-3.2-0.5-4.7-1.8-5.2C115,31.6,96,35,89,38.7
			c-4.4,2.3-3.8,23.2-4,31.2c0,1.2,0.5,1.8,1.4,1.9C94.8,60.4,95.5,54.1,104,43.7z"/>
		<path class="st12" d="M87.3,41.1c-0.4,1-0.7,2-0.9,3c2.3-1.1,4.7-2,7.1-2.6c4.8-1.4,9.6-2.7,14.4-3.9c1.8-1.6,3.8-2.9,6-3.9
			C104.6,34.3,95.5,36.8,87.3,41.1z"/>
		<path class="st12" d="M105.3,40.2c0.5-0.5,1-1,1.5-1.5c-2.9,0.7-5.7,1.5-8.5,2.3C100.6,40.5,102.9,40.3,105.3,40.2z"/>
		<path class="st13" d="M104.3,43.3c0,0.7-0.1,1.3-0.3,2c-2.1,9-9,17.3-16.3,26.3c8.4-2,27.4-21.6,31.2-31.9
			c0.2-0.6,0.4-1.3,0.6-1.9C119.5,28.4,107.4,39.8,104.3,43.3z"/>
		<path class="st11" d="M103.8,46.2c0,0.1-0.1,0.2-0.1,0.4c4.3-2.6,9.2-4.1,14.2-4.6c0.3-0.6,0.6-1.1,0.8-1.7
			C112.4,40.8,106.5,43.6,103.8,46.2z"/>
		<path class="st11" d="M104.3,43.3c0,0.5-0.1,1-0.2,1.5c4.4-3.1,9.5-4.9,14.9-5.2c0.2-0.6,0.4-1.2,0.5-1.8
			C119.5,28.4,107.4,39.8,104.3,43.3z"/>
		<path class="st10" d="M65.8,39.1c-4.4,2.6-16.4,15-13.6,17.5c6.3,5.5,21.3,5.4,33.9,14.1c0,0,2.3,2.8,3.6,2.9
			c-0.6-3.4-1.9-6.6-3.7-9.6C81.6,57,63.9,49.7,65.8,39.1z"/>
		<path class="st12" d="M65.8,42.2c-0.1-0.3-0.1-0.7-0.1-1c-4.1,3.2-9.6,8.3-12.1,12.5C57.3,49.5,61.4,45.6,65.8,42.2z"/>
		<path class="st12" d="M66,43.1c-4.8,3.9-10.3,8.9-13.7,13.6c1.9,1.5,4.1,2.6,6.4,3.3c2.8-4.4,6.7-8,11.2-10.6
			C68.1,47.6,66.7,45.5,66,43.1z"/>
		<path class="st10" d="M66.6,38.8l0.3-0.1L66.6,38.8z"/>
		<path class="st13" d="M90.9,73.2c1.5-1.4,3.4-5.2,1.5-10.8c-7.3-21.7-21.7-25.8-25.5-23.8c-0.4,0.1-0.7,0.2-1.1,0.4
			c-0.5,2.8,0.3,5.7,2,7.9C86.8,55.8,90.2,69.6,90.9,73.2z"/>
		<path class="st11" d="M74.2,39.4c0.4,3.7,1.1,7.4,2.2,11.1c0.3-3.1,0.7-6.2,1.3-9.2C76.5,40.5,75.4,39.9,74.2,39.4z"/>
		<path class="st11" d="M73.3,39c-2.8-1-5.1-1-6.3-0.3c-0.4,0.1-0.7,0.2-1.1,0.4c-0.5,2.8,0.3,5.7,2,7.9c2.7,1.3,5.4,2.8,7.8,4.5
			C74.5,47.4,73.6,43.2,73.3,39z"/>
		<polygon class="st15" points="142.8,99.2 135,150.7 91.4,150.7 89,87.4 		"/>
		<path class="st16" d="M110.7,92.2c-0.8,19.5-2.9,39-4.7,58.6h14c2.3-18.4,4.5-36.7,6.5-55.1L110.7,92.2z"/>
		<polygon class="st17" points="89,87.4 91.4,150.7 55.6,150.7 45.9,100.6 		"/>
		<path class="st10" d="M57.5,97c2.2,18,4.8,36,8.7,53.7h13c-2.7-19.3-5.3-38.6-7.6-58L57.5,97z"/>
		<path class="st18" d="M147.5,80.3l-2.5,20.1c0,0-49-10.1-56.6-11.4l-0.6-28.9C87.8,60.1,128.1,73.1,147.5,80.3z"/>
		<path class="st19" d="M142.2,78.3c1.5,1.4,3.3,2.3,5.2,2.7l0.1-0.7C145.9,79.7,144.1,79,142.2,78.3z"/>
		<path class="st19" d="M130.6,74.3c-3.4-1.2-6.9-2.4-10.4-3.5C124.5,73.7,126.8,74.4,130.6,74.3z"/>
		<path class="st19" d="M99.8,66.2c2.7,0.8,5.4,0.6,8.1,0.5c-11.3-3.8-20.1-6.6-20.1-6.6l0.1,2.9C92.6,62.5,95.8,65,99.8,66.2z"/>
		<path class="st19" d="M126.9,96.7l3.9,0.8C129.5,97.1,128.3,96.8,126.9,96.7z"/>
		<path class="st17" d="M147.5,80.3c-19.4-7.2-59.7-20.2-59.7-20.2v2.5c20,5.8,39.8,12.1,59.6,18.3L147.5,80.3z"/>
		<path class="st10" d="M110.9,67.7c0.2,8.6,0.1,17.2-0.3,25.8l15.7,3.2c0.8-7.6,1.7-15.3,2.5-22.9
			C122.9,71.6,116.7,69.6,110.9,67.7z"/>
		<path class="st12" d="M128.9,73.7c-6-2-12.2-4.1-17.9-6c0,0.6,0,1.3,0,1.9c5.9,1.8,11.8,3.7,17.8,5.5
			C128.8,74.6,128.8,74.1,128.9,73.7z"/>
		<path class="st10" d="M111,69.5c0.2,8,0.1,15.9-0.3,23.9l15.7,3.2c0.8-7.2,1.6-14.4,2.3-21.6C122.8,73.2,116.9,71.3,111,69.5z"/>
		<path class="st20" d="M87.8,60.1L88.4,89c0,0-40.2,12.5-44.4,14l-4-20.2C40,82.8,65.8,69,87.8,60.1z"/>
		<path class="st21" d="M87.8,60.1C65.8,69,40,82.8,40,82.8l0.3,1.7c15.4-7.8,31.2-15.2,47.5-21.9L87.8,60.1z"/>
		<path class="st12" d="M55.1,75.1c0.8,7.8,1.7,15.7,2.6,23.5l14.1-4.4c-1-8.6-1.9-17.2-2.7-25.9C64.1,70.7,59.3,73,55.1,75.1z"/>
		<path class="st22" d="M69.1,68.3c-5,2.3-9.8,4.7-14,6.7c0.1,0.7,0.2,1.4,0.2,2.1c4.6-2.2,9.3-4.4,14-6.5
			C69.2,69.9,69.1,69.1,69.1,68.3z"/>
		
			<linearGradient id="SVGID_00000034089513297712613810000002884574412058252430_" gradientUnits="userSpaceOnUse" x1="94.115" y1="32.36" x2="94.115" y2="100.39" gradientTransform="matrix(1 0 0 -1 0 194)">
			<stop  offset="0" style="stop-color:#000000"/>
			<stop  offset="0.59" style="stop-color:#000000;stop-opacity:0"/>
		</linearGradient>
		
			<polygon style="opacity:0.4;fill:url(#SVGID_00000034089513297712613810000002884574412058252430_);enable-background:new    ;" points="
			47,84.2 46.9,142.3 94.2,152.2 141.3,143.9 141.4,84.2 		"/>
		<path class="st2" d="M94.7,176c-30.2,0-58.4-15.2-74.9-40.5c-0.3-0.4-0.4-1-0.2-1.5c0.1-0.5,0.4-0.9,0.9-1.2L42.7,120
			c0.3-0.2,0.6-0.3,1-0.3c0.6,0,1.2,0.3,1.6,0.8c18.7,27.3,56.1,34.3,83.4,15.6c6.1-4.2,11.4-9.5,15.6-15.6c0.4-0.5,0.9-0.8,1.6-0.8
			c0.4,0,0.7,0.1,1,0.3l22.3,12.9c0.5,0.3,0.8,0.7,0.9,1.2c0.1,0.5,0,1-0.2,1.5C153.1,160.8,124.9,176.1,94.7,176z"/>
		<path class="st0" d="M43.6,133.2l2.1,1.5c0.2,0.1,0.3,0.3,0.4,0.5c0.1,0.2,0.1,0.4,0,0.6l-3.5,9.6c-0.1,0.2-0.2,0.5-0.3,0.8
			s-0.2,0.5-0.4,0.8c0.2-0.2,0.5-0.4,0.7-0.6s0.4-0.4,0.7-0.5l8.3-6.1c0.4-0.3,0.9-0.3,1.2,0l0.7,0.5c0.2,0.1,0.3,0.3,0.4,0.5
			c0.1,0.2,0.1,0.4,0,0.6l-3.1,9.8c-0.2,0.5-0.4,1.1-0.6,1.6l0.6-0.6c0.2-0.2,0.4-0.4,0.6-0.5l8-6.3c0.2-0.1,0.4-0.2,0.6-0.2
			c0.2,0,0.5,0.1,0.7,0.2l2,1.4L49,157.2l-2.2-1.6l3.6-11.2c0-0.1,0.1-0.3,0.2-0.5l0.2-0.5l-0.4,0.4l-0.4,0.3l-9.5,7l-2.2-1.6
			L43.6,133.2z"/>
		<path class="st0" d="M74,150.6l-0.9,2.3l-6.8-2.6l-1.7,4.2l5.3,2.1l-0.8,2.2l-5.3-2.1l-1.7,4.4l6.8,2.6l-0.9,2.3l-9.6-3.8l6-15.3
			L74,150.6z"/>
		<path class="st0" d="M76.9,165.4l6.4,1.3l-0.5,2.5l-9.4-1.9l3.2-16.1l3,0.6L76.9,165.4z"/>
		<path class="st0" d="M98.4,166c0.2,0,0.3,0.1,0.4,0.2l1.2,1.3c-0.7,0.8-1.5,1.4-2.5,1.9c-1.1,0.5-2.3,0.7-3.5,0.6
			c-1.1,0-2.2-0.2-3.3-0.7c-0.9-0.4-1.8-1-2.5-1.8c-0.7-0.8-1.2-1.7-1.5-2.7c-0.4-1.1-0.5-2.2-0.5-3.4c0-1.2,0.2-2.3,0.7-3.4
			c0.4-1,1-1.9,1.8-2.6c0.8-0.7,1.7-1.3,2.7-1.7c1.1-0.4,2.3-0.6,3.4-0.6c1.1,0,2.2,0.2,3.2,0.6c0.9,0.4,1.6,0.9,2.3,1.6l-1,1.4
			c-0.1,0.1-0.1,0.2-0.2,0.2c-0.1,0.1-0.3,0.1-0.4,0.1c-0.2,0-0.4-0.1-0.5-0.2c-0.2-0.2-0.4-0.3-0.7-0.5c-0.3-0.2-0.7-0.3-1.1-0.5
			c-0.5-0.2-1.1-0.2-1.6-0.2c-0.7,0-1.5,0.1-2.1,0.4c-0.6,0.2-1.2,0.6-1.7,1.1c-0.5,0.5-0.9,1.1-1.1,1.8c-0.3,0.8-0.4,1.6-0.4,2.4
			c0,0.8,0.1,1.7,0.3,2.5c0.2,0.7,0.6,1.3,1,1.8c0.4,0.5,0.9,0.9,1.5,1.2c0.6,0.3,1.3,0.4,1.9,0.4c0.4,0,0.8,0,1.1,0
			c0.3,0,0.6-0.1,0.9-0.2c0.3-0.1,0.6-0.2,0.8-0.4c0.3-0.2,0.5-0.4,0.8-0.6c0.1-0.1,0.2-0.1,0.2-0.2C98.2,166.1,98.3,166,98.4,166z"
			/>
		<path class="st0" d="M119.4,158.1c0.3,1.1,0.3,2.3,0.1,3.4c-0.2,1-0.5,2.1-1.1,2.9c-0.6,0.9-1.3,1.7-2.2,2.3c-1,0.6-2,1.1-3.2,1.3
			c-1.1,0.3-2.3,0.3-3.5,0.1c-1-0.2-2.1-0.6-2.9-1.2c-0.9-0.6-1.6-1.4-2.2-2.2c-1.2-1.9-1.8-4.3-1.4-6.5c0.2-1,0.5-2,1.1-2.9
			c0.6-0.9,1.3-1.7,2.2-2.3c2-1.3,4.3-1.8,6.7-1.4c2.1,0.4,4,1.6,5.1,3.4C118.7,155.9,119.2,157,119.4,158.1z M116.4,158.8
			c-0.2-0.8-0.4-1.6-0.8-2.3c-0.4-0.6-0.8-1.1-1.4-1.6c-0.5-0.4-1.2-0.7-1.8-0.8c-0.7-0.1-1.5-0.1-2.2,0.1c-0.7,0.1-1.4,0.4-2,0.8
			c-0.6,0.4-1,0.9-1.4,1.5c-0.3,0.6-0.6,1.3-0.6,2c-0.1,1.6,0.2,3.3,1,4.7c0.3,0.6,0.8,1.1,1.4,1.6c0.5,0.4,1.2,0.7,1.8,0.8
			c0.7,0.1,1.5,0.1,2.2-0.1c0.7-0.1,1.4-0.4,2-0.8c0.6-0.4,1-0.9,1.3-1.4c0.3-0.6,0.6-1.3,0.6-2
			C116.6,160.4,116.5,159.6,116.4,158.8L116.4,158.8z"/>
		<path class="st0" d="M132,154.7l0.7,0.6c0-0.3-0.1-0.6-0.1-0.9c0-0.3,0-0.6,0-0.8l0.1-10.3c0-0.1,0-0.2,0-0.3
			c0-0.1,0.1-0.2,0.1-0.2c0.1-0.1,0.1-0.1,0.2-0.2l0.3-0.2l2-1.1l7.7,14.5l-2.4,1.2l-4.9-9.4c-0.1-0.2-0.2-0.4-0.3-0.6
			s-0.2-0.4-0.3-0.6L135,157c0,0.2-0.1,0.4-0.2,0.6c-0.1,0.2-0.3,0.4-0.5,0.4l-0.4,0.2c-0.2,0.1-0.4,0.2-0.6,0.1
			c-0.2,0-0.4-0.1-0.6-0.2l-8.8-6c0.1,0.2,0.3,0.4,0.4,0.6s0.2,0.4,0.3,0.6l4.9,9.4l-2.4,1.2l-7.6-14.6l2-1.1l0.3-0.2
			c0.1,0,0.2-0.1,0.3-0.1c0.1,0,0.2,0,0.3,0c0.1,0,0.2,0.1,0.3,0.1l8.6,5.8C131.5,154.3,131.8,154.5,132,154.7z"/>
		<path class="st0" d="M145.4,132.4l1.6,1.8l-5.5,4.8l3,3.4l4.3-3.8l1.5,1.8l-4.3,3.8l3,3.5l5.5-4.8l1.6,1.8l-7.8,6.8l-10.8-12.4
			L145.4,132.4z"/>
	</g>
</g>
</svg>
