<svg width="32" height="32" viewBox="0 0 32 32" fill="none" xmlns="http://www.w3.org/2000/svg">
<path d="M26.3579 14.9057C26.2736 14.7372 26.021 14.4004 26.021 14.4004C26.021 14.4004 25.6842 14.7372 26.021 15.4109C26.3579 16.0004 26.7789 16.0004 26.7789 16.0004C26.8631 15.6635 26.6947 15.3267 26.6947 15.3267C26.6947 15.3267 26.4421 15.5793 26.2736 15.3267C26.021 14.9899 26.3579 14.9057 26.3579 14.9057Z" fill="white"/>
<path d="M8.08395 14.3158C8.4208 14.3158 8.75764 14.4 8.75764 14.4C8.67343 14.2316 8.33658 14.0632 7.99974 14.1474C7.6629 14.3158 7.91553 14.3158 8.08395 14.3158Z" fill="white"/>
<path d="M7.57895 14.7365C7.57895 14.7365 7.57895 14.7365 7.66316 14.7365C7.74737 14.7365 7.74737 14.9891 8 14.9891C8.25264 14.9891 8.58948 14.7365 8.58948 14.7365C8.58948 14.7365 8.50527 14.4839 8.33685 14.3996C8.33685 14.5681 8.25264 14.7365 8.08421 14.8207C7.91579 14.9049 7.74737 14.8207 7.74737 14.6523C7.74737 14.5681 7.74737 14.3996 7.83158 14.3154C7.74737 14.4839 7.57895 14.7365 7.57895 14.7365Z" fill="white"/>
<path d="M9.2632 15.9158C8.84215 15.7474 8.33688 15.8316 8.33688 15.8316C8.08425 16.0842 9.01057 16.2527 9.34741 16.3369C9.60004 16.4211 9.68425 16.0842 9.2632 15.9158Z" fill="white"/>
<path d="M24.3366 16.168C24.084 16.168 23.9998 16.9259 24.084 17.3469C24.1682 17.6838 24.3366 18.3574 24.3366 18.6101C24.3366 18.8627 24.3366 19.6206 24.3366 19.6206C24.7577 19.5364 24.8419 19.7048 24.8419 19.7048C24.8419 19.7048 24.5051 19.789 24.3366 19.9574C24.1682 20.1259 24.3366 20.3785 24.3366 20.3785C24.6735 20.7995 25.1787 20.3785 25.1787 20.3785C24.8419 19.7048 25.1787 18.2732 25.3472 17.5153C25.4314 16.6732 24.5051 16.168 24.3366 16.168Z" fill="white"/>
<path d="M27.7054 19.1162C27.6212 19.1162 27.6212 19.1162 27.537 19.1162C27.537 19.032 27.537 18.9478 27.4528 18.8635C27.2001 18.6109 27.0317 18.6951 26.8633 18.8635C26.7791 18.7793 26.6107 18.7793 26.4422 18.8635C26.1896 19.032 26.358 19.2846 26.358 19.2846C26.358 19.2846 26.2738 19.032 26.6107 19.032C26.9475 19.1162 26.9475 19.3688 26.9475 19.3688C27.0317 19.2004 27.0317 19.032 26.9475 18.9478C27.0317 18.9478 27.1159 18.9478 27.2001 19.032C27.3686 19.2004 27.2844 19.5372 27.2844 19.5372C27.2844 19.5372 27.4528 19.453 27.537 19.2846C27.6212 19.2846 27.6212 19.2846 27.7054 19.3688C27.958 19.6214 27.7054 19.7899 27.7054 19.7899C28.2107 19.6214 28.0422 19.2004 27.7054 19.1162Z" fill="white"/>
<path d="M16 0C7.15789 0 0 7.1579 0 16C0 24.8421 7.15789 32 16 32C17.5158 32 18.9474 31.7474 20.3789 31.4105C20.4632 31.2421 20.6316 31.0737 20.8 30.9053C21.0526 30.7368 21.3895 30.8211 21.6421 30.9053C22.0632 30.7368 22.4 30.5684 22.821 30.4C22.821 30.3158 22.8211 30.1474 22.7368 30.0632C22.5684 29.7263 21.7263 29.3053 20.9684 29.2211C20.2105 29.1368 19.5368 29.1368 18.5263 27.7895C17.5158 26.4421 17.5158 24.5895 16.3368 24.6737C16.3368 24.6737 16.2526 26.3579 15.7474 26.9474C15.2421 27.5368 14.7368 27.7895 14.3158 27.6211C13.8947 27.4526 13.0526 27.4526 12.7158 27.8737C12.7158 27.8737 12.6316 27.6211 12.8842 27.2C12.8842 27.2 12.5474 27.1158 12.3789 27.3684C12.3789 27.3684 12.2105 27.0316 12.4632 26.6105C12.4632 26.6105 11.8737 26.2737 11.4526 26.7789C11.4526 26.7789 11.9579 24.8421 13.2211 25.8526C13.2211 25.8526 13.5579 25.6842 14.0632 26.1895C14.5684 26.6947 15.1579 25.1789 14.9895 24.5053C14.9895 24.5053 13.8947 24.6737 13.2211 24.4211C12.5474 24.2526 12.1263 23.8316 11.8737 23.8316C11.8737 23.8316 11.2 25.4316 10.4421 25.5158C9.68421 25.6 8.75789 24.9263 8.25263 25.179C8.25263 25.179 8.16842 25.0105 8.42105 24.7579C8.42105 24.7579 8.16842 24.4211 7.74737 24.8421C7.74737 24.8421 7.66316 24.5053 7.91579 24.2526C7.91579 24.2526 7.41053 24.1684 7.2421 24.4211C7.2421 24.4211 7.66316 22.8211 8.8421 23.6632C8.8421 23.6632 9.17895 23.8316 9.34737 24C9.51579 24.0842 9.93684 24 10.2737 23.4105C10.2737 23.4105 8.75789 22.8211 8.33684 21.6421C8.33684 21.6421 7.49474 21.3053 7.2421 21.3895C6.98947 21.3895 6.56842 21.3895 6.23158 21.1368C5.89474 20.8842 5.38947 20.8 4.96842 20.8C4.54737 20.8 3.70526 20.8 3.36842 20.2105C3.2 19.9579 2.94737 19.8737 2.86316 19.8737C2.77895 19.8737 2.61053 19.7053 2.69474 19.3684C2.77895 19.0316 2.61053 17.7684 2.18947 17.7684C2.18947 17.7684 2.69474 17.6 2.94737 17.8526C2.94737 17.8526 2.86316 17.2632 2.52632 17.2632C2.52632 17.2632 2.69474 16.9263 2.94737 17.0105C2.94737 17.0105 3.11579 16.5895 2.86316 16.5053C2.86316 16.5053 3.70526 16.5053 3.95789 17.6C4.12632 18.1053 3.62105 18.4421 4.29474 18.8632C4.8 19.2 5.05263 19.1158 5.38947 19.1158C5.81053 19.1158 6.14737 19.1158 6.65263 19.3684C6.98947 19.6211 7.66316 19.5368 7.74737 19.4526C7.74737 19.4526 7.49474 17.7684 6.90526 17.4316C6.31579 17.1789 5.22105 17.0947 5.05263 17.0947C4.8 17.0947 4.8 16.5895 4.88421 16.4211C4.96842 16.2526 5.22105 16.2526 5.22105 16.2526C5.22105 16.2526 5.47368 15.8316 5.6421 15.8316C5.6421 15.8316 5.38947 16.3368 5.55789 16.4211C5.55789 16.4211 5.72632 16 5.89474 16C5.89474 16 5.6421 16.5053 5.89474 16.6737C6.14737 16.7579 6.56842 17.0947 7.15789 16.3368C7.15789 16.3368 6.98947 16.0842 6.65263 16.0842C6.31579 16.0842 5.38947 15.9158 5.30526 14.8211C5.30526 14.8211 5.72632 15.8316 6.56842 15.8316C7.15789 15.8316 7.32631 16 7.32631 16C7.32631 16 7.32631 15.2421 6.65263 14.9895C6.65263 14.9895 6.4 15.2421 6.4 15.4105C6.4 15.4105 6.23158 15.1579 6.48421 14.8211C6.48421 14.8211 6.14737 15.0737 6.14737 15.2421C6.14737 15.2421 5.97895 14.9895 6.23158 14.6526C6.23158 14.6526 6.14737 14.6526 6.14737 14.5684C6.14737 14.5684 6.06316 14.1474 6.31579 13.8947C6.31579 13.8947 6.23158 13.4737 6.65263 13.4737C6.98947 13.4737 7.2421 13.5579 8.25263 13.3053C9.26316 13.0526 9.76842 13.8105 9.76842 13.8105C9.76842 13.8105 10.1895 13.6421 10.5263 13.8105C10.7789 13.8947 11.0316 13.6421 11.0316 13.6421C11.0316 13.6421 11.0316 14.2316 10.6105 14.4C10.6105 14.4 11.0316 14.8211 11.1158 15.6632C11.2842 16.5053 11.8737 18.2737 13.3895 18.9474C14.8211 19.6211 16.0842 19.7895 16.0842 19.7895C16.0842 19.7895 16.2526 19.0316 16.8421 19.1158C17.4316 19.1158 18.4421 20.3789 18.4421 20.3789C18.4421 20.3789 19.2 20.4632 19.7053 21.1368C19.7053 21.1368 20.3789 20.8842 21.0526 21.7263C21.3895 22.1474 21.9789 23.2421 22.6526 24.2526C22.6526 24.2526 22.6526 24.2526 22.6526 24.1684C23.0737 22.9895 23.1579 22.6526 24.0842 22.5684C25.0105 22.4842 25.0105 23.1579 25.7684 22.9895C26.5263 22.8211 26.8632 22.6526 26.9474 21.8947C27.0316 21.1368 25.6842 21.2211 25.2632 20.2105C25.2632 20.2105 25.0105 20.5474 24.6737 20.4632C24.6737 20.4632 24.5895 20.8 24.3368 20.8842C24.0842 20.9684 23.6632 20.6316 23.5789 20.2947C23.4947 19.9579 22.9895 19.7895 22.6526 19.7895C22.6526 19.7895 23.0737 19.6211 23.4947 19.7895C23.4947 19.7895 23.1579 19.4526 22.7368 19.5368C22.7368 19.5368 23.0737 19.2 23.5789 19.5368C23.5789 19.5368 23.3263 19.1158 22.821 19.2842C22.821 19.2842 23.0737 18.8632 23.6632 19.2C23.6632 19.2 23.9158 18.2737 23.7474 17.6842C23.7474 17.6842 23.3263 16.5053 22.9895 16C22.9895 16 22.6526 15.4105 22.1474 15.3263C21.6421 15.2421 21.0526 15.3263 20.6316 14.4C20.6316 14.4 21.6421 15.2421 22.3158 14.7368C22.3158 14.7368 21.3053 14.7368 20.5474 13.9789C20.5474 13.9789 21.6421 14.4842 21.9789 14.1474C21.9789 14.1474 20.9684 14.0632 20.5474 13.3053C20.5474 13.3053 21.3895 13.8105 21.7263 13.6421C21.7263 13.6421 20.7158 13.2211 20.5474 12.6316C20.5474 12.6316 21.2211 13.0526 21.6421 12.9684C21.6421 12.9684 20.9684 12.0421 20.8 10.6947C20.7158 9.34737 20.5474 8.42105 19.8737 8.25263C19.2 8.08421 18.1895 8.92632 18.7789 11.1158C19.2 12.8 19.7895 14.3158 19.2842 15.9158C19.3684 16.5895 19.5368 17.3474 19.7895 17.2632C20.1263 17.0947 20.7158 16.1684 21.2211 15.9158C21.7263 15.6632 22.4 15.4947 22.7368 16C22.7368 16 22.2316 15.8316 21.8105 16.2526C21.3895 16.6737 21.3895 16.8421 21.3895 16.8421C21.3895 16.8421 22.0632 16.3368 22.5684 16.9263C22.5684 16.9263 21.7263 16.9263 21.2211 17.2632C20.8 17.6 20.8 17.6842 20.8 17.6842C20.8 17.6842 21.7263 17.2632 21.9789 17.9368C21.9789 17.9368 20.9684 17.7684 20.5474 18.1895C20.1263 18.5263 19.8737 18.6105 20.1263 19.1158C20.3789 19.5368 20.8 19.7895 20.9684 19.6211C20.9684 19.6211 20.2105 20.4632 19.5368 19.1158C19.5368 19.1158 19.2842 19.6211 19.1158 19.7053C19.0316 19.7895 18.1895 19.8737 18.3579 19.0316C18.5263 18.3579 18.6947 17.9368 18.4421 17.4316C16.8421 19.6211 13.8947 18.7789 12.7158 16.9263C12.5474 16.7579 12.4632 16.5053 12.3789 16.3368C12.3789 16.3368 11.4526 14.6526 11.5368 13.4737C11.5368 13.1368 11.6211 12.8 11.7053 12.3789C12.1263 11.1158 12.2947 8.84211 10.7789 8.16842C10.7789 8.16842 10.1895 8.42105 10.1895 8.84211C10.2737 10.1053 9.26316 12.5474 6.06316 10.9474C6.06316 10.9474 6.82105 10.9474 7.32631 10.9474C7.83158 10.9474 9.34737 10.6947 9.6 9.17895C9.6 9.17895 8.58947 10.3579 7.32631 9.85263C6.06316 9.34737 5.6421 9.68421 5.6421 9.68421C5.6421 9.68421 5.97895 9.17895 6.90526 9.17895C7.83158 9.26316 8.42105 9.68421 9.26316 8.67368C9.26316 8.67368 7.91579 9.09474 7.15789 8.50526C6.4 7.91579 5.30526 8.16842 5.30526 8.16842C5.30526 8.16842 5.97895 7.74737 6.73684 7.74737C7.49474 7.83158 8.8421 9.01053 9.51579 7.49474C9.51579 7.49474 8.25263 8 7.32631 7.15789C6.4 6.31579 5.97895 6.06316 5.97895 6.06316C5.97895 6.06316 6.65263 6.23158 7.2421 5.97895C7.91579 5.72632 9.43158 5.89474 9.85263 6.82105C9.85263 6.82105 10.1895 6.31579 9.43158 5.22105C8.67368 4.12632 7.57895 5.05263 6.82105 4.88421C6.82105 4.88421 7.74737 4.63158 8.08421 4.46316C8.33684 4.21053 9.43158 3.95789 10.1895 5.22105C10.8632 6.48421 10.7789 6.90526 10.7789 6.90526C10.7789 6.90526 11.8737 5.64211 11.2 4.46316C10.4421 3.28421 8.67368 3.78947 7.91579 4.12632C7.91579 4.12632 8.25263 3.78947 9.34737 3.45263C10.5263 3.11579 13.1368 3.78947 11.4526 7.15789C11.4526 7.15789 12.9684 7.66316 13.5579 9.6C14.1474 11.6211 13.6421 12.8842 13.8105 13.5579C13.9789 14.4842 14.5684 15.9158 15.9158 15.2421C17.2632 14.5684 16.4211 13.3053 16.2526 12.3789C16.0842 11.7053 15.1579 9.85263 16.2526 7.49474C16.1684 7.41053 16.0842 7.32632 16 7.24211C15.7474 6.90526 15.7474 7.41053 15.6632 7.83158C15.5789 8.16842 15.2421 7.83158 15.1579 7.66316C15.0737 7.49474 14.9053 6.82105 14.9053 6.4C14.9053 6.06316 14.8211 5.72632 14.8211 5.72632C14.4842 6.31579 13.8947 5.81053 13.8947 5.81053C14.2316 5.89474 14.9053 5.30526 14.9053 4.88421C14.9053 4.46316 15.4947 3.87368 15.0737 3.36842C14.7368 2.86316 14.7368 2.44211 14.7368 2.44211C14.9895 2.77895 15.3263 2.94737 15.3263 2.94737C15.4105 2.69474 14.9053 2.18947 14.9053 2.18947C15.1579 2.27368 15.4947 2.61053 15.4947 2.61053C15.4947 2.44211 14.9895 1.93684 14.9895 1.93684C16.6737 2.61053 16 4.04211 15.7474 4.63158C15.4947 5.22105 16 5.81053 16 5.81053C16.5053 5.38947 17.5158 5.22105 18.0211 5.22105C18.3579 4.88421 18.6947 4.71579 19.0316 4.54737L19.621 4.12632C19.621 4.12632 18.4421 4.29474 18.2737 4.04211C18.1053 3.78947 18.1895 3.62105 18.5263 3.36842C18.5263 3.28421 19.7053 3.36842 19.7053 3.36842C19.6211 3.11579 19.5368 2.61053 20.2105 2.27368C20.8842 1.93684 21.3053 2.10526 21.3053 2.10526C21.3053 2.10526 20.9684 2.18947 20.5474 2.44211C20.1263 2.69474 20.2947 3.28421 20.2947 3.28421C20.2947 3.28421 21.0526 3.45263 21.7263 3.36842C22.3158 3.28421 22.9895 2.44211 22.9895 2.44211C23.2421 3.03158 22.2316 3.78947 22.2316 3.78947C22.9895 3.95789 23.4947 3.36842 23.4947 3.36842C23.5789 3.95789 22.821 4.21053 22.821 4.21053C23.1579 4.46316 23.8316 4.21053 23.8316 4.21053C22.821 5.30526 21.9789 4.37895 21.4737 4.29474C20.9684 4.12632 20.2947 4.29474 20.6316 4.54737C20.8 4.63158 21.0526 5.05263 21.3895 5.47368C22.4 6.4 22.9895 7.83158 22.9053 8.50526C22.7368 9.93684 23.4105 11.4526 24 11.6211C24 11.6211 24.8421 9.34737 24.421 6.98947C24.421 6.98947 24.2526 6.73684 24.5053 6.56842C24.7579 6.4 24.9263 6.82105 25.0105 7.24211C25.0947 7.66316 25.0105 8.67368 25.0105 8.67368C25.0105 8.67368 25.6842 8.08421 25.9368 7.41053C26.2737 6.65263 26.6105 7.24211 26.2737 7.74737C25.8526 8.33684 25.1789 9.09474 25.0947 9.26316C25.0947 9.43158 24.8421 11.7053 25.6 12.1263C25.6 12.1263 26.4421 9.43158 26.4421 7.83158C26.4421 7.83158 26.3579 7.49474 26.6947 7.41053C27.0316 7.32632 27.0316 9.01053 26.6947 10.1053C26.6947 10.1053 27.4526 9.43158 27.621 8.92632C27.7895 8.33684 28.3789 8.58947 27.9579 9.26316C27.5368 9.93684 26.6105 10.7789 26.6105 10.7789C26.6105 10.7789 26.4421 11.8737 26.9474 12.6316C27.4526 13.3895 27.2842 14.3158 27.2842 14.3158C27.2842 14.3158 27.9579 13.7263 27.9579 13.3895C27.9579 13.3895 28.2105 13.5579 28.0421 13.9789C27.8737 14.4 27.5368 14.6526 27.621 14.9895C27.621 14.9895 27.7895 14.6526 28.0421 14.5684C28.2105 14.4 28.4632 14.1474 28.4632 13.8947C28.4632 13.8947 28.7158 14.0632 28.3789 14.7368C28.0421 15.3263 27.7053 15.4947 27.621 15.6632C27.4526 15.8316 27.7895 16.1684 27.2 16.4211C26.6105 16.6737 26.8632 16.9263 26.8632 16.9263C26.8632 16.9263 27.2842 16.8421 27.2 17.3474C27.2 17.3474 27.4526 17.1789 27.5368 17.5158C27.6211 17.6842 27.5368 17.7684 27.5368 17.8526C27.6211 17.8526 27.7895 17.7684 27.8737 17.9368C27.9579 18.1053 27.7895 18.1895 27.7895 18.1895C27.7895 18.1895 28.3789 18.6105 28.3789 19.1158C28.3789 19.1158 28.6316 18.9474 28.5474 18.7789C28.4632 18.6105 28.1263 17.9368 28.4632 17.6C28.8 17.2632 29.8947 16.6737 29.5579 15.3263C29.221 13.9789 29.6421 13.2211 29.8105 13.0526C29.8105 13.0526 29.5579 14.1474 29.7263 14.6526C29.9789 15.1579 30.4 16 29.6421 16.8421C28.8842 17.6842 28.5474 17.8526 28.7158 18.4421C28.9684 19.0316 28.6316 19.5368 28.3789 19.7895C28.3789 19.7895 28.1263 20.2947 27.7895 20.4632C27.7895 20.4632 27.7053 20.6316 27.4526 20.7158C27.2 20.8 27.3684 20.9684 27.3684 20.9684C27.3684 20.9684 27.0316 20.6316 27.3684 20.3789C27.3684 20.3789 27.2 20.2105 27.1158 20.3789C27.0316 20.5474 27.0316 20.7158 27.0316 20.7158C27.0316 20.7158 26.7789 20.2947 26.9474 20.2105C26.9474 20.2105 26.8632 20.0421 26.7789 20.1263C26.6947 20.2105 26.5263 20.3789 26.5263 20.3789C26.5263 20.3789 26.6105 20.1263 26.5263 19.9579C26.5263 19.8737 26.2737 19.8737 26.1895 19.7053C26.1895 19.7053 25.7684 20.4632 26.2737 20.6316C26.7789 20.8842 28.1263 21.4737 27.4526 22.7368C26.7789 24 25.6842 23.9158 24.8421 23.4947C24 23.0737 23.0737 24 23.2421 24.5053C23.2421 24.6737 23.2421 24.8421 23.0737 25.0105C23.7474 25.8526 24.5053 26.6105 25.3474 26.6947C27.2 26.8632 26.8632 24.5895 26.1895 24.8421C25.6842 25.0105 25.9368 25.4316 25.9368 25.4316C26.1053 26.0211 25.3474 25.7684 25.4316 25.0105C25.5158 24.3368 26.021 24.0842 26.3579 24.0842C26.6105 24.0842 27.7053 24.2526 27.3684 25.8526C27.0316 27.4526 25.6842 27.7053 25.6842 27.7053V27.7895L25.4316 27.7053V27.8737L24.9263 27.7895V27.9579L24.6737 27.7895L24.5895 27.8737L24.5053 27.7895L24.421 27.8737L24.2526 27.6211L24.1684 27.7895L24.0842 27.5368V27.7895L24 27.5368L23.9158 27.7053L23.7474 27.4526L23.6632 27.6211L23.5789 27.3684L23.4947 27.5368L23.4105 27.2842L23.3263 27.3684L23.1579 27.1158L23.0737 27.2842L22.9895 26.9474L22.9053 27.1158L22.821 26.7789L22.7368 26.8632L22.6526 26.5263L22.5684 26.7789L22.4842 26.4421L22.4 26.5263L22.3158 26.1053L22.2316 26.2737L22.1474 26.0211V26.1053V25.8526L22.0632 26.0211V25.6842L21.9789 25.7684V25.6842C21.6421 25.6842 21.2211 25.6 20.8 25.2632C20.8 25.3474 20.8 25.4316 20.8842 25.5158C20.9684 26.0211 21.221 27.0316 22.5684 27.8737C23.4105 28.3789 24.0842 28.9684 24.2526 29.8105C28.8 27.0316 32 21.8947 32 16C32 7.1579 24.8421 0 16 0Z" fill="white"/>
<path d="M21.5578 25.2634V25.095V25.2634L21.3894 24.8423L21.3052 24.9265L21.221 24.5897L21.1367 24.6739V24.4213L21.0525 24.6739V24.4213L20.9683 24.5055L20.8841 24.2529L20.7999 24.4213C20.7999 24.2529 20.5473 23.916 20.5473 23.916C20.5473 23.916 20.5473 24.5897 20.6315 25.095C20.7999 25.2634 21.221 25.3476 21.5578 25.2634Z" fill="white"/>
<path d="M9.17887 16.5894C8.67361 16.0841 8.25256 16.2525 8.25256 16.2525C7.99993 16.3367 9.68414 17.0946 9.17887 16.5894Z" fill="white"/>
<path d="M8.92637 17.3478C8.92637 16.7583 8.25269 16.5057 8.25269 16.5057C8.00006 16.3372 8.84216 17.9372 8.92637 17.3478Z" fill="white"/>
<path d="M8.08412 18.3581C8.16834 17.7686 7.83149 17.2634 7.83149 17.2634C7.74728 17.0949 7.99991 19.0318 8.08412 18.3581Z" fill="white"/>
<path d="M8.42114 17.7685C8.33693 17.0948 8.08429 16.9264 8.08429 16.9264C7.91587 16.758 8.50535 18.5264 8.42114 17.7685Z" fill="white"/>
</svg>
