<svg width="33" height="32" viewBox="0 0 33 32" fill="none" xmlns="http://www.w3.org/2000/svg">
    <path d="M21.99.554c-1.496-1.057-3.434-.529-4.667.968-1.32-1.497-3.258-1.937-4.667-.88-1.76 1.409-1.585 4.403-.352 6.076.704.969 1.673 1.585 2.554 2.29a20.888 20.888 0 0 1 2.553 2.2c.793-.792 1.586-1.584 2.466-2.289.88-.704 1.761-1.409 2.466-2.377 1.32-1.673 1.497-4.667-.352-5.988zM20.026 24.026c-.236 0-.473 0-.631.08.237-.396.395-.87.395-1.422 0-1.5-1.264-2.684-2.685-2.684-1.5 0-2.684 1.263-2.684 2.684 0 .553.158 1.026.395 1.421-.237-.079-.474-.079-.632-.079-1.5 0-2.684 1.264-2.684 2.684 0 1.5 1.263 2.685 2.684 2.685 1.184 0 2.21-.79 2.527-1.895h.079c-.158.71-.395 1.658-.711 2.368C15.447 31.448 14.658 32 15.5 32c1.572 0 2.71-.079 3.5-.079s-.158-.631-.79-2.131c-.315-.79-.631-1.658-.789-2.369h.079c.316 1.105 1.421 1.895 2.605 1.895 1.5 0 2.684-1.263 2.684-2.684 0-1.422-1.263-2.685-2.763-2.606z" fill="#D3D4D7"/>
    <path fill-rule="evenodd" clip-rule="evenodd" d="M5.713 10.326a1.113 1.113 0 0 1 1.575 0l4.886 4.887c.435.435.435 1.14 0 1.574l-4.886 4.887a1.112 1.112 0 0 1-1.574 0L.826 16.788a1.111 1.111 0 0 1 0-1.574l4.887-4.888z" fill="#D3D4D7"/>
    <path d="M27.204 10.031a.247.247 0 0 0-.24 0c-.224.126-5.464 3.116-5.464 6.748a2.92 2.92 0 0 0 2.917 2.918c.715 0 1.373-.26 1.883-.693-.27 1.616-.82 2.619-.827 2.631a.244.244 0 0 0 .213.365h2.797a.247.247 0 0 0 .211-.12.249.249 0 0 0 .003-.245c-.008-.012-.557-1.016-.828-2.632.51.432 1.168.693 1.883.693a2.92 2.92 0 0 0 2.917-2.918c0-3.63-5.24-6.62-5.465-6.747z" fill="#D3D4D7"/>
</svg>
