<svg xmlns="http://www.w3.org/2000/svg">
  <defs>
    <style>
      .img {
        display: none;
      }
      .img:target {
        display: inline;
      }
    </style>
  </defs>

  <!-- Begin sprites -->
  <svg viewBox="0 0 33 32">
    <g id="casino" class="img">
      <path fill="#fff" d="M9.762 22.215l-2.65-3.111-2.65 3.111 2.65 3.112 2.65-3.112zM19.107 22.215l-2.65-3.111-2.65 3.111 2.65 3.112 2.65-3.112zM28.452 22.215l-2.65-3.111-2.649 3.111 2.65 3.112 2.649-3.112z"/>
      <path fill="#fff" fill-rule="evenodd" d="M19.78 12.375h10.129c1.105 0 2 .895 2 2v15.54c0 1.104-.895 2-2 2H3.042c-1.105 0-2-.896-2-2v-15.54c0-1.105.895-2 2-2H19.779zM3.873 29.083h6.513V15.207H3.874v13.876zm15.858 0h-6.513V15.207h6.513v13.876zm2.832 0h6.513V15.207h-6.513v13.876z" clip-rule="evenodd"/>
      <path fill="#fff" d="M13.78 8.441L16.521 7l2.743 1.442-.524-3.054 2.22-2.163-3.067-.445L16.522 0l-1.371 2.779-3.066.445 2.218 2.163-.524 3.054zM22.443 8.83L22.089 11l1.854-1.025L25.797 11l-.354-2.17 1.5-1.538-2.073-.317L23.943 5l-.927 1.975-2.073.317 1.5 1.537zM7.089 11l1.854-1.025L10.797 11l-.354-2.17 1.5-1.538-2.073-.317L8.943 5l-.927 1.975-2.073.317 1.5 1.537L7.089 11z"/>
    </g>
  </svg>

  <svg viewBox="0 0 32 33">
    <g id="download" class="img">
      <path d="M28.9999 26.1025H3V29.4663H28.9999V26.1025Z" fill="white"/>
      <path d="M16 21.9808L25.7499 12.9354H20.2088V3.4668H11.7911V12.9354H6.25L16 21.9808Z" fill="white"/>
    </g>
  </svg>

  <svg viewBox="0 0 33 33">
    <g id="kenoandlotto" class="img">
      <path fill="#fff" d="M9.432 29.069c4.66 0 8.437-3.738 8.437-8.35 0-4.61-3.777-8.348-8.437-8.348-4.66 0-8.437 3.738-8.437 8.349 0 4.61 3.778 8.349 8.437 8.349z"/>
      <path fill="#314060" d="M9.29 25.133c2.754 0 4.986-2.209 4.986-4.934 0-2.724-2.232-4.933-4.986-4.933-2.753 0-4.985 2.209-4.985 4.933 0 2.725 2.232 4.934 4.985 4.934z"/>
      <path fill="#fff" fill-rule="evenodd" d="M11.403 19.52c-.146.69-.548 1.022-1.05 1.085.531.336.812.903.635 1.74l-.02.097c-.256 1.209-1.168 1.482-2.216 1.238-1.047-.243-1.772-.897-1.516-2.106l.02-.097c.177-.836.661-1.226 1.277-1.295-.42-.277-.65-.756-.505-1.446.22-1.039 1.017-1.262 1.99-1.036.972.226 1.604.782 1.385 1.82zm-2.54-.488c-.123.585.135.891.658 1.013.524.122.881-.042 1.005-.626.122-.576-.136-.883-.66-1.005-.523-.122-.88.042-1.002.618zm.507 1.727c.616.143.914.545.767 1.242l-.031.146c-.15.707-.58.964-1.203.82-.606-.142-.92-.555-.767-1.277l.03-.146c.148-.698.59-.928 1.204-.785z" clip-rule="evenodd"/>
      <g filter="url(#kenoandlotto_filter0_d)">
        <path fill="#fff" d="M21.366 24.658c6.117 0 11.077-4.96 11.077-11.077S27.483 2.504 21.366 2.504c-6.118 0-11.077 4.96-11.077 11.077 0 6.118 4.96 11.077 11.077 11.077z"/>
      </g>
      <path fill="#314060" d="M21.366 21.376c4.305 0 7.794-3.49 7.794-7.795 0-4.304-3.49-7.794-7.794-7.794-4.305 0-7.795 3.49-7.795 7.795s3.49 7.794 7.795 7.794z"/>
      <path fill="#fff" fill-rule="evenodd" d="M22.533 9.89c.312 1.086.053 1.879-.522 2.373.895.042 1.647.611 2.024 1.928l.044.154c.547 1.905-.385 3.029-1.852 3.536-1.468.507-2.83.177-3.376-1.728l-.044-.154c-.377-1.317-.058-2.257.654-2.854-.718-.047-1.343-.534-1.655-1.62-.47-1.638.356-2.598 1.718-3.069 1.363-.47 2.54-.203 3.01 1.434zm-3.923 1.29c.346 1.093 1.048 1.356 2.008 1.055.96-.301 1.384-.918 1.039-2.01-.34-1.078-1.043-1.341-2.003-1.04-.96.3-1.384.918-1.044 1.995zm1.82 2.108c.926-.331 1.63.027 1.97 1.25l.071.257c.343 1.238-.03 2.029-.969 2.365-.914.327-1.648-.036-1.999-1.303l-.07-.256c-.34-1.224.07-1.98.997-2.313z" clip-rule="evenodd"/>
      <defs>
        <filter id="kenoandlotto_filter0_d" width="23.154" height="23.154" x="9.289" y="2.504" color-interpolation-filters="sRGB" filterUnits="userSpaceOnUse">
          <feFlood flood-opacity="0" result="BackgroundImageFix"/>
          <feColorMatrix in="SourceAlpha" values="0 0 0 0 0 0 0 0 0 0 0 0 0 0 0 0 0 0 127 0"/>
          <feOffset dx="-1" dy="1"/>
          <feColorMatrix values="0 0 0 0 0.192157 0 0 0 0 0.25098 0 0 0 0 0.376471 0 0 0 1 0"/>
          <feBlend in2="BackgroundImageFix" result="effect1_dropShadow"/>
          <feBlend in="SourceGraphic" in2="effect1_dropShadow" result="shape"/>
        </filter>
      </defs>
    </g>
  </svg>

  <svg viewBox="0 0 49 49">
    <g id="home" class="img">
      <g clip-path="url(#home_clip0)">
        <path fill="#fff" d="M1.281 25.512l22.39-21.675c.624-.604 1.614-.604 2.238 0l22.39 21.675c1.037 1.003.323 2.764-1.119 2.764h-5.617v16.1c0 .888-.72 1.608-1.609 1.608h-8.31v-10.9c0-.888-.72-1.608-1.608-1.608H19.545c-.889 0-1.609.72-1.609 1.608v10.9h-8.31c-.888 0-1.608-.72-1.608-1.608v-16.1H2.4c-1.443 0-2.154-1.762-1.119-2.764z"/>
      </g>
      <defs>
        <clipPath id="home_clip0">
          <path fill="#fff" d="M0 0H48V48H0z" transform="translate(.79 .684)"/>
        </clipPath>
      </defs>
    </g>
  </svg>

  <svg viewBox="0 0 251 64">
    <g id="laligaroom" class="img">
      <g clip-path="url(#laligaroom_clip0)">
        <path fill="#FCFCFC" d="M41.912 32.402c0-5.881-4.771-10.68-10.68-10.68-5.88 0-10.678 4.799-10.678 10.68 0 5.881 4.798 10.68 10.679 10.68 5.908-.027 10.679-4.799 10.679-10.68z"/>
        <path fill="#010202" d="M41.912 32.402c0-5.881-4.771-10.68-10.68-10.68-5.88 0-10.678 4.799-10.678 10.68 0 5.881 4.798 10.68 10.679 10.68 5.908-.027 10.679-4.799 10.679-10.68zm-.86-.333v.305c0 2.275-.777 4.356-2.053 6.02.167-.444.195-.943.278-1.331-.222.194-.444.388-.694.582-.72.527-1.525.888-2.302 1.055l-2.053-2.248-.027.028 1.498 2.663c-.389.694-.971 1.332-1.72 1.887-.25.194-.5.333-.777.471.389.056.888.167 1.332.167-1.027.36-2.136.583-3.301.583s-2.275-.195-3.301-.583c.472.028.943-.083 1.36-.166-.25-.14-.528-.306-.777-.472-.75-.555-1.332-1.193-1.72-1.887l1.498-2.663-.028-.027-2.053 2.247c-.776-.167-1.553-.5-2.302-1.055-.25-.166-.472-.36-.694-.582.056.388.111.915.278 1.331-1.304-1.664-2.08-3.745-2.08-6.02v-.305c.11.472.388.916.582 1.276.056-.277.139-.582.222-.887.277-.888.721-1.637 1.276-2.22l2.94.61.028-.027-2.774-1.248c-.083-.777 0-1.637.277-2.497.084-.305.195-.583.333-.832-.388.166-.887.388-1.248.72 1.276-1.913 3.245-3.356 5.52-3.994-.416.25-.804.666-1.082.971.278-.028.583-.055.916-.055.915 0 1.775.194 2.496.499l.333 2.968h.027l.333-2.996c.722-.305 1.554-.5 2.47-.5.304 0 .61.029.914.056-.305-.305-.665-.721-1.081-.97 2.274.637 4.216 2.08 5.52 3.994-.361-.305-.86-.527-1.249-.721.139.25.25.555.333.832.278.86.36 1.72.278 2.497l-2.747 1.248.028.028 2.94-.61c.527.582.971 1.331 1.249 2.219.083.305.166.583.221.888.195-.333.472-.777.583-1.249zm-7.129 3.995l1.637-5.077-4.327-3.134-4.327 3.134 1.664 5.077h5.353z"/>
        <path fill="#92278F" d="M8.987 13.816c-.056.11-.056.25.028.36.027.056.083.083.138.111l11.151 6.492.028.027c.11.056.25.056.388-.027l.083-.084c.028-.027.028-.027.028-.055 1.026-1.803 2.469-3.44 4.272-4.744 1.83-1.304 3.855-2.108 5.908-2.469h.055c.056 0 .084-.027.139-.055.11-.083.166-.222.139-.36v-.029L28.986.305V.278c-.028-.056-.028-.111-.056-.14-.083-.11-.194-.166-.332-.138h-.028c-3.939.722-7.85 2.275-11.317 4.744-3.523 2.47-6.269 5.576-8.266 9.072z"/>
        <path fill="#005BAA" d="M2.635 38.312c.055.11.166.194.305.222.056 0 .111 0 .167-.028l12.038-4.633h.027c.111-.055.195-.166.222-.305 0-.055 0-.083-.027-.139 0-.028-.028-.055-.028-.055-.777-1.942-1.137-4.078-1.026-6.298.138-2.247.776-4.327 1.775-6.158l.028-.028c.027-.028.027-.083.027-.139 0-.138-.055-.277-.166-.333l-.028-.027-11.372-6.103h-.028c-.056-.028-.111-.028-.167-.028-.138 0-.25.055-.305.166 0 .028 0 .028-.027.028C2.19 17.922.97 21.972.72 26.216c-.277 4.273.416 8.378 1.914 12.096z"/>
        <path fill="#009BDF" d="M17.919 58.452c.138.028.25 0 .36-.11.056-.056.083-.084.083-.167l3.828-12.318v-.027c.028-.139 0-.278-.11-.361-.028-.028-.084-.056-.112-.056-.027 0-.027-.027-.055-.027-1.997-.61-3.911-1.637-5.576-3.135-1.664-1.498-2.912-3.273-3.716-5.215 0-.028 0-.028-.028-.028-.028-.056-.056-.083-.083-.111-.111-.083-.25-.111-.389-.056h-.027L.25 41.974.222 42c-.056.028-.083.056-.139.084-.083.11-.11.25-.055.36 0 .028 0 .028.027.028 1.581 3.69 3.967 7.13 7.157 9.987 3.217 2.83 6.879 4.827 10.707 5.992z"/>
        <path fill="#00A651" d="M43.077 59.035c.11-.084.166-.195.139-.333 0-.056-.028-.111-.056-.167l-7.184-10.708-.028-.028c-.083-.11-.222-.166-.36-.139-.056 0-.084.028-.14.056-.027 0-.027.028-.054.028-1.72 1.193-3.717 2.025-5.936 2.385-2.22.361-4.383.195-6.408-.388h-.055c-.056-.028-.084-.028-.14 0-.138.028-.249.139-.276.25v.027l-3.412 12.429v.027c-.028.056-.028.111 0 .167.027.139.11.222.25.277h.027c3.856 1.082 8.044 1.387 12.26.694 4.216-.721 8.044-2.303 11.373-4.578z"/>
        <path fill="#FFF200" d="M59.442 39.837c0-.138-.055-.25-.166-.333-.056-.027-.111-.055-.167-.055l-12.87-.999h-.028c-.138 0-.277.056-.333.194-.027.056-.027.084-.027.14v.055c-.139 2.08-.721 4.189-1.803 6.13-1.082 1.97-2.552 3.58-4.272 4.8-.028 0-.028.028-.028.028-.027.027-.055.055-.083.11-.055.14-.055.278.028.389l.028.028 7.628 10.403v.028c.027.027.083.083.138.083.111.055.25.055.36-.028.029 0 .029 0 .029-.028 3.245-2.358 6.074-5.465 8.127-9.21 2.025-3.745 3.162-7.74 3.44-11.735z"/>
        <path fill="#F68B1F" d="M54.588 15.008c-.083-.083-.25-.11-.36-.055-.056.027-.111.055-.14.11l-8.875 9.377-.028.028c-.083.083-.111.25-.056.36.028.056.056.084.056.112.028.027.028.027.055.027 1.526 1.415 2.774 3.19 3.634 5.271.832 2.081 1.165 4.245 1.026 6.325v.056c0 .055 0 .083.028.139.056.138.166.222.305.222h.028l12.87.61h.028c.056 0 .111 0 .166-.028.14-.055.195-.166.222-.305v-.028c.222-3.995-.416-8.156-2.024-12.123-1.61-3.94-3.995-7.351-6.935-10.098z"/>
        <path fill="#D80F15" d="M32.037 3.468c-.139.028-.25.111-.277.25-.028.055-.028.138-.028.166l1.886 12.761v.028c.028.139.111.25.25.278.055.027.083.027.138.027.028 0 .056 0 .056-.027 2.08-.333 4.244-.222 6.38.388 2.163.61 4.05 1.692 5.63 3.08l.028.027c.028.028.083.055.111.055.139.056.278 0 .36-.11l.028-.028 8.433-9.765.028-.028c.027-.028.055-.083.083-.139.027-.138 0-.25-.084-.36l-.027-.028c-3.024-2.636-6.685-4.688-10.79-5.881-4.078-1.082-8.238-1.304-12.205-.694z"/>
        <path fill="#fff" d="M166.483 44.608v-17.2h-5.076v1.776c-1.526-1.415-2.802-2.108-4.882-2.108-4.716 0-8.211 4.244-8.211 9.016 0 5.52 3.218 8.933 7.933 8.933 3.218 0 5.076-2.109 5.076-2.109v1.692h5.16zm-4.882-8.46c0 2.496-1.914 4.188-4.189 4.188-2.385 0-3.855-1.97-3.855-4.355 0-2.275 1.553-4.106 4.022-4.106 2.246.028 4.022 1.748 4.022 4.272zm-15.45 6.435V27.436h-4.91v1.915c-1.47-1.554-2.912-2.275-5.076-2.275-4.466 0-7.378 3.939-7.378 8.6 0 4.688 2.968 8.378 7.35 8.378 2.025 0 3.856-1.082 4.854-1.998.056.444.028.833.028 1.276 0 1.887-1.664 2.719-3.439 2.719-1.276 0-1.997-.222-2.691-1.415h-5.769c.554 3.884 4.188 5.992 8.349 5.992 4.743.028 8.682-2.746 8.682-8.045zm-4.882-6.907c0 1.941-1.359 4.022-3.939 4.022-2.274 0-3.55-1.83-3.55-4.022 0-2.137 1.192-4.134 3.578-4.134 2.635 0 3.911 1.831 3.911 4.134zM127.15 22.998c0-1.748-1.414-3.107-3.106-3.107s-3.079 1.442-3.079 3.162c0 1.776 1.359 3.135 3.023 3.135 1.775 0 3.162-1.443 3.162-3.19zm-20.137 21.61h12.176v-4.882h-6.657v-16.59h-5.519v21.472zm-8.183 0h5.159v-17.2h-5.076v1.776c-1.525-1.415-2.801-2.108-4.882-2.108-4.715 0-8.21 4.244-8.21 9.016 0 5.52 3.217 8.933 7.933 8.933 3.217 0 5.076-2.109 5.076-2.109v1.692zm.25-8.46c0 2.496-1.887 4.188-4.189 4.188-2.358 0-3.856-1.97-3.856-4.355 0-2.275 1.582-4.106 4.023-4.106 2.246.028 4.021 1.748 4.021 4.272zm-26.352 8.46h12.177v-4.882h-6.657v-16.59h-5.52v21.472zm53.867-17.2h-5.131v17.2h5.131v-17.2z"/>
        <path fill="url(#laligaroom_paint0_linear)" d="M176.884 44.609h-4.216V23.054h5.132c1.636 0 2.829.055 3.633.166.805.111 1.47.305 2.025.555 1.221.583 2.164 1.36 2.802 2.386.638 1.026.971 2.22.971 3.606 0 1.665-.472 3.08-1.387 4.245-.916 1.165-2.164 1.886-3.745 2.219l5.381 8.35h-5.02l-5.576-10.015V44.61zm0-11.069h.943c1.72 0 2.996-.305 3.884-.915.887-.61 1.331-1.526 1.331-2.691 0-1.138-.36-1.998-1.109-2.525-.749-.555-1.887-.804-3.468-.804h-1.581v6.935zm11.401 2.857c0-1.137.222-2.219.638-3.273.416-1.027 1.026-1.942 1.83-2.747.832-.832 1.748-1.442 2.774-1.886 1.026-.444 2.08-.666 3.19-.666 1.165 0 2.247.195 3.245.583.999.388 1.914.97 2.719 1.748.859.832 1.497 1.775 1.969 2.83.472 1.081.693 2.163.693 3.3 0 1.249-.194 2.386-.61 3.413-.416 1.026-.998 1.942-1.831 2.774-.804.832-1.719 1.47-2.773 1.914-1.027.416-2.164.638-3.384.638-1.221 0-2.33-.222-3.357-.638-.998-.444-1.914-1.082-2.746-1.942-.776-.86-1.387-1.775-1.803-2.802-.36-1.026-.554-2.108-.554-3.246zm3.911-.027c0 1.498.416 2.718 1.248 3.578.832.888 1.942 1.332 3.384 1.332 1.387 0 2.524-.444 3.356-1.36.832-.915 1.248-2.108 1.248-3.634 0-1.359-.443-2.496-1.303-3.384-.86-.888-1.97-1.332-3.301-1.332-1.359 0-2.469.444-3.329 1.332-.887.888-1.303 2.053-1.303 3.468zm14.534.027c0-1.137.222-2.219.638-3.273.416-1.027 1.027-1.942 1.831-2.747.832-.832 1.747-1.442 2.774-1.886 1.026-.444 2.08-.666 3.19-.666 1.165 0 2.246.195 3.245.583.999.388 1.914.97 2.718 1.748.86.832 1.498 1.775 1.97 2.83.471 1.081.693 2.163.693 3.3 0 1.249-.194 2.386-.61 3.413-.416 1.026-.999 1.942-1.831 2.774-.804.832-1.72 1.47-2.774 1.914-1.026.416-2.163.638-3.384.638-1.22 0-2.33-.222-3.356-.638-.998-.444-1.914-1.082-2.746-1.942-.777-.86-1.387-1.775-1.803-2.802-.361-1.026-.555-2.108-.555-3.246zm3.911-.027c0 1.498.416 2.718 1.249 3.578.832.888 1.941 1.332 3.384 1.332 1.386 0 2.524-.444 3.356-1.36.832-.915 1.248-2.108 1.248-3.634 0-1.359-.444-2.496-1.304-3.384-.859-.888-1.969-1.332-3.3-1.332-1.36 0-2.469.444-3.329 1.332-.888.888-1.304 2.053-1.304 3.468zm19.25-8.045v1.858c.555-.749 1.193-1.276 1.914-1.636.722-.361 1.526-.527 2.441-.527 1.304 0 2.441.221 3.357.693.943.472 1.719 1.193 2.413 2.164.638-.971 1.359-1.692 2.163-2.164.805-.472 1.692-.721 2.635-.721 1.998 0 3.523.638 4.577 1.886C250.445 31.126 251 32.93 251 35.26v9.349h-3.717v-7.213c0-2.22-.25-3.717-.721-4.494-.499-.805-1.332-1.193-2.524-1.193-1.248 0-2.136.444-2.691 1.332-.527.887-.804 2.413-.804 4.605v6.963h-3.745v-7.213c0-2.191-.249-3.69-.749-4.494-.499-.805-1.359-1.193-2.607-1.193-1.276 0-2.164.444-2.718 1.332-.555.887-.833 2.413-.833 4.605v6.963h-3.661V28.325h3.661z"/>
      </g>
      <defs>
        <linearGradient id="laligaroom_paint0_linear" x1="172.681" x2="250.998" y1="34.047" y2="34.047" gradientUnits="userSpaceOnUse">
          <stop stop-color="#A87D36"/>
          <stop offset="1" stop-color="#D8B074"/>
        </linearGradient>
        <clipPath id="laligaroom_clip0">
          <path fill="#fff" d="M0 0H251V64H0z"/>
        </clipPath>
      </defs>
    </g>
  </svg>

  <svg viewBox="0 0 109 24">
    <g id="laligaroom-TH" class="img">
      <path fill="#FCFCFC" d="M15.775 12.122c0-2.2-1.796-3.995-4.02-3.995-2.213 0-4.019 1.795-4.019 3.995s1.806 3.995 4.02 3.995c2.223-.01 4.019-1.795 4.019-3.995z"/>
      <path fill="#010202" d="M15.775 12.122c0-2.2-1.796-3.995-4.02-3.995-2.213 0-4.019 1.795-4.019 3.995s1.806 3.995 4.02 3.995c2.223-.01 4.019-1.795 4.019-3.995zm-.324-.124v.114c0 .85-.292 1.629-.772 2.251.062-.166.073-.352.104-.498-.083.073-.167.145-.26.218-.272.197-.575.332-.867.394l-.773-.84-.01.01.563.996c-.146.26-.365.498-.647.706-.094.073-.188.124-.292.176.146.021.334.063.5.063-.385.135-.803.218-1.241.218-.439 0-.856-.073-1.243-.218.178.01.355-.031.512-.063-.094-.052-.199-.114-.293-.176-.281-.207-.5-.446-.647-.706l.564-.996-.01-.01-.773.84c-.292-.062-.585-.186-.866-.394-.094-.062-.178-.135-.261-.218.02.146.041.343.104.498-.49-.622-.783-1.4-.783-2.251v-.114c.042.176.146.342.22.477.02-.104.051-.218.083-.332.104-.332.271-.613.48-.83l1.107.228.01-.01-1.044-.467c-.031-.29 0-.613.104-.934.032-.114.073-.218.126-.312-.146.063-.334.146-.47.27.48-.716 1.221-1.255 2.077-1.494-.156.093-.302.25-.407.363.105-.01.22-.02.345-.02.344 0 .668.072.94.186l.125 1.11h.01l.125-1.12c.272-.114.585-.187.93-.187.114 0 .23.01.344.02-.115-.113-.25-.269-.407-.362.856.238 1.587.778 2.077 1.494-.135-.114-.323-.197-.47-.27.053.093.095.208.126.311.104.322.136.644.104.934l-1.033.467.01.01 1.107-.228c.198.218.365.498.47.83.03.114.062.218.083.332.073-.124.178-.29.22-.466zm-2.683 1.494l.616-1.9-1.628-1.172-1.629 1.173.626 1.899h2.015z"/>
      <path fill="#92278F" d="M3.382 5.17c-.021.042-.021.093.01.135.01.02.032.031.052.041l4.197 2.428.01.01c.042.022.095.022.147-.01l.031-.03c.01-.011.01-.011.01-.021.387-.675.93-1.287 1.608-1.775.69-.487 1.451-.788 2.224-.923h.02c.022 0 .032-.01.053-.021.042-.031.063-.083.052-.135v-.01L10.91.117v-.01c-.01-.021-.01-.042-.021-.052-.031-.042-.073-.063-.125-.052h-.01c-1.483.27-2.955.85-4.26 1.774-1.326.923-2.36 2.086-3.111 3.393z"/>
      <path fill="#005BAA" d="M.993 14.332c.02.042.063.073.115.083.02 0 .041 0 .062-.01l4.531-1.733h.01c.042-.02.074-.062.084-.114 0-.02 0-.031-.01-.052 0-.01-.01-.02-.01-.02-.293-.727-.429-1.526-.387-2.356.052-.84.292-1.619.668-2.304l.01-.01c.011-.01.011-.031.011-.052 0-.052-.02-.104-.063-.125l-.01-.01-4.28-2.283h-.01c-.022-.01-.043-.01-.063-.01-.053 0-.094.02-.115.062 0 .01 0 .01-.01.01-.7 1.298-1.16 2.813-1.253 4.4-.105 1.598.156 3.134.72 4.524z"/>
      <path fill="#009BDF" d="M6.744 21.865c.053.01.094 0 .136-.041.021-.02.032-.031.032-.062l1.44-4.607v-.01c.01-.053 0-.105-.042-.136-.01-.01-.03-.02-.041-.02-.01 0-.01-.01-.021-.01-.752-.23-1.472-.613-2.099-1.173-.626-.56-1.096-1.225-1.399-1.951 0-.01 0-.01-.01-.01-.01-.021-.02-.032-.031-.042-.042-.031-.094-.042-.146-.02h-.01L.093 15.701l-.01.01c-.02.01-.031.021-.052.031-.032.042-.042.094-.021.135 0 .01 0 .01.01.01.595 1.38 1.493 2.667 2.694 3.736 1.21 1.059 2.589 1.806 4.03 2.241z"/>
      <path fill="#00A651" d="M16.214 22.083c.042-.031.063-.073.052-.124 0-.021-.01-.042-.02-.063l-2.705-4.005-.01-.01c-.031-.042-.084-.063-.136-.052-.02 0-.031.01-.052.02-.01 0-.01.01-.02.01-.648.447-1.4.758-2.235.893s-1.65.073-2.412-.145h-.02c-.021-.01-.032-.01-.053 0-.052.01-.094.052-.104.093v.01l-1.284 4.65v.01c-.01.02-.01.041 0 .062.01.052.042.083.094.104h.01c1.451.404 3.028.518 4.615.26 1.586-.27 3.027-.862 4.28-1.713z"/>
      <path fill="#FFF200" d="M22.372 14.903c0-.052-.02-.094-.063-.125-.02-.01-.041-.02-.062-.02l-4.844-.374h-.01c-.053 0-.105.02-.126.073-.01.02-.01.03-.01.052v.02c-.053.779-.272 1.567-.679 2.294-.407.736-.96 1.338-1.608 1.795-.01 0-.01.01-.01.01-.01.01-.02.02-.031.041-.021.052-.021.104.01.146l.01.01 2.871 3.891v.01c.01.01.032.032.053.032.041.02.094.02.135-.01.01 0 .01 0 .01-.011 1.222-.882 2.287-2.044 3.06-3.445.762-1.4 1.19-2.895 1.294-4.39z"/>
      <path fill="#F68B1F" d="M20.545 5.616c-.03-.031-.094-.041-.135-.02-.021.01-.042.02-.052.04l-3.341 3.508-.01.01c-.032.031-.042.094-.022.135.01.021.021.031.021.042.01.01.01.01.021.01.574.53 1.044 1.193 1.368 1.972.313.778.438 1.587.386 2.365v.021c0 .02 0 .031.01.052.021.052.063.083.115.083h.01l4.845.228h.01c.021 0 .042 0 .063-.01.052-.02.073-.062.083-.114v-.01c.084-1.495-.156-3.051-.762-4.535-.605-1.473-1.503-2.75-2.61-3.777z"/>
      <path fill="#D80F15" d="M12.058 1.3c-.052.01-.094.041-.104.093-.01.02-.01.052-.01.062l.71 4.773v.01c.01.052.041.094.093.104.021.01.031.01.052.01.01 0 .021 0 .021-.01.783-.124 1.598-.083 2.401.146.815.228 1.525.633 2.12 1.151l.01.01c.01.011.032.021.042.021.052.021.104 0 .136-.041l.01-.01 3.174-3.653.01-.01c.01-.01.021-.031.032-.052.01-.052 0-.093-.032-.135l-.01-.01c-1.138-.986-2.516-1.754-4.061-2.2-1.535-.405-3.1-.488-4.594-.26z"/>
      <path fill="#fff" d="M78.287 17.108V7.654h-2.79v.976c-.838-.777-1.54-1.159-2.683-1.159-2.593 0-4.514 2.333-4.514 4.956 0 3.034 1.769 4.91 4.361 4.91 1.769 0 2.79-1.159 2.79-1.159v.93h2.837zm-2.683-4.65c0 1.372-1.052 2.302-2.302 2.302-1.312 0-2.12-1.083-2.12-2.394 0-1.25.854-2.257 2.21-2.257 1.236.016 2.212.961 2.212 2.348zm-8.493 3.537V7.67h-2.699v1.052c-.808-.854-1.601-1.25-2.79-1.25-2.455 0-4.056 2.165-4.056 4.726 0 2.577 1.631 4.605 4.04 4.605 1.113 0 2.12-.595 2.669-1.098.03.244.015.458.015.702 0 1.037-.915 1.494-1.89 1.494-.702 0-1.099-.122-1.48-.778H57.75c.305 2.135 2.302 3.294 4.59 3.294 2.607.015 4.772-1.51 4.772-4.422zm-2.684-3.797c0 1.068-.747 2.211-2.165 2.211-1.25 0-1.952-1.006-1.952-2.21 0-1.175.656-2.273 1.967-2.273 1.449 0 2.15 1.007 2.15 2.272zm-7.76-6.968c0-.96-.779-1.708-1.709-1.708s-1.692.793-1.692 1.739c0 .975.747 1.723 1.662 1.723.976 0 1.738-.793 1.738-1.754zm-11.07 11.878h6.693v-2.684h-3.66V5.306h-3.034v11.802zm-4.499 0h2.836V7.654h-2.79v.976c-.839-.777-1.54-1.159-2.684-1.159-2.592 0-4.513 2.333-4.513 4.956 0 3.034 1.769 4.91 4.36 4.91 1.77 0 2.791-1.159 2.791-1.159v.93zm.137-4.65c0 1.372-1.036 2.302-2.302 2.302-1.296 0-2.12-1.083-2.12-2.394 0-1.25.87-2.257 2.212-2.257 1.235.016 2.21.961 2.21 2.348zm-14.485 4.65h6.694v-2.684h-3.66V5.306H26.75v11.802zm29.611-9.454h-2.82v9.454h2.82V7.654z"/>
      <path fill="url(#laligaroom-TH_paint0_linear)" d="M93.662 6.965c-.677.213-1.59.32-2.739.32l-2.827-.088c-.486 0-.906.124-1.26.374-.345.242-.518.476-.518.704.625-.074 1.078-.11 1.358-.11 1.855 0 3.207.315 4.053.946.854.624 1.281 1.841 1.281 3.653v1.75c0 .917-.298 1.683-.894 2.3-.597.616-1.37.924-2.32.924-.655 0-1.218-.231-1.69-.694-.47-.462-.706-1.02-.706-1.672 0-.623.224-1.163.674-1.617.449-.463 1.016-.712 1.7-.749v-.242c0-.931-.165-1.573-.496-1.925-.325-.36-.851-.54-1.58-.54-.5 0-.983.019-1.447.056-.456.029-.88.073-1.27.131-.383.052-.707.11-.972.177l-.75.209h-.09V9.518c0-1.548.413-2.688 1.238-3.422.825-.74 2.073-1.111 3.744-1.111l2.772.088c.412 0 .795-.015 1.149-.044.353-.03.644-.066.872-.11l.63-.132h.088v2.178zm-3.866 9.353c.258 0 .48-.091.663-.275.192-.19.287-.414.287-.671 0-.257-.095-.477-.287-.66-.184-.19-.405-.286-.663-.286-.257 0-.482.095-.673.286-.184.183-.276.403-.276.66s.092.48.276.671c.191.184.416.275.673.275z"/>
      <path fill="url(#laligaroom-TH_paint1_linear)" d="M93.354 20.742c0 .931-.46 1.397-1.381 1.397H88.13v-1.012c-.472-.052-.836-.231-1.094-.54-.265-.3-.397-.656-.397-1.067 0-.433.165-.807.497-1.122.33-.316.718-.473 1.16-.473.434 0 .805.157 1.115.473.309.323.464.704.464 1.144v1.354h1.292c.302 0 .453-.158.453-.474v-2.167h1.734v2.487zm-5.059-.77c.11 0 .21-.045.298-.133.089-.088.133-.187.133-.297 0-.103-.044-.202-.133-.297-.088-.088-.187-.132-.298-.132-.11 0-.21.044-.298.132-.088.095-.132.194-.132.297 0 .11.044.21.132.297.081.088.18.132.298.132z"/>
      <path fill="url(#laligaroom-TH_paint2_linear)" d="M108.463 17.584h-3.214c-.28-.396-.81-.84-1.59-1.332-.913-.572-1.786-.983-2.618-1.232-.059.697-.342 1.328-.85 1.892-.508.543-1.296.818-2.364.826-.662 0-1.23-.228-1.7-.683-.464-.462-.696-1.023-.696-1.683 0-.609.235-1.159.707-1.65.47-.492 1.034-.756 1.69-.793V9.76c-.649-.036-1.212-.286-1.69-.748-.472-.462-.707-1.016-.707-1.661 0-.66.232-1.218.695-1.673.472-.462 1.039-.693 1.701-.693.935 0 1.705.304 2.309.913.603.609.905 1.38.905 2.31v4.864c.619.088 1.362.33 2.231.727.92.418 1.579.832 1.977 1.243V5.304h3.214v12.28zM98.777 7.35c0-.257-.096-.477-.287-.66-.184-.191-.405-.287-.663-.287-.257 0-.482.096-.673.286-.184.184-.277.404-.277.66 0 .257.093.481.277.672.191.183.416.275.673.275.258 0 .479-.092.663-.275.191-.19.287-.415.287-.671zm0 8.021c0-.257-.096-.477-.287-.66-.184-.19-.405-.286-.663-.286-.257 0-.482.095-.673.286-.184.183-.277.403-.277.66s.093.48.277.671c.191.184.416.275.673.275.258 0 .479-.091.663-.275.191-.19.287-.414.287-.671z"/>
      <defs>
        <linearGradient id="laligaroom-TH_paint0_linear" x1="81.723" x2="112.434" y1="22.278" y2="22.278" gradientUnits="userSpaceOnUse">
          <stop stop-color="#A87D35"/>
          <stop offset="1" stop-color="#D5AF71"/>
        </linearGradient>
        <linearGradient id="laligaroom-TH_paint1_linear" x1="81.723" x2="112.434" y1="22.278" y2="22.278" gradientUnits="userSpaceOnUse">
          <stop stop-color="#A87D35"/>
          <stop offset="1" stop-color="#D5AF71"/>
        </linearGradient>
        <linearGradient id="laligaroom-TH_paint2_linear" x1="81.723" x2="112.434" y1="22.278" y2="22.278" gradientUnits="userSpaceOnUse">
          <stop stop-color="#A87D35"/>
          <stop offset="1" stop-color="#D5AF71"/>
        </linearGradient>
      </defs>
    </g>
  </svg>

  <svg viewBox="0 0 253 65">
    <g id="laligaroom-zh" class="img">
      <path fill="#FCFCFC" d="M42.872 33.367c0-5.875-4.767-10.669-10.67-10.669-5.874 0-10.668 4.794-10.668 10.67 0 5.874 4.794 10.668 10.669 10.668 5.902-.028 10.669-4.794 10.669-10.669z"/>
      <path fill="#010202" d="M42.872 33.367c0-5.875-4.767-10.669-10.67-10.669-5.874 0-10.668 4.794-10.668 10.67 0 5.874 4.794 10.668 10.669 10.668 5.902-.028 10.669-4.794 10.669-10.669zm-.86-.332v.304c0 2.273-.775 4.351-2.05 6.014.166-.444.194-.942.277-1.33-.222.194-.443.387-.693.581-.72.527-1.524.887-2.3 1.054l-2.05-2.245-.028.028 1.496 2.66c-.388.693-.97 1.33-1.718 1.884-.25.194-.499.333-.776.471.388.056.887.167 1.33.167-1.025.36-2.133.582-3.297.582-1.164 0-2.273-.194-3.298-.582.471.027.942-.084 1.358-.167-.25-.138-.527-.304-.776-.47-.748-.555-1.33-1.192-1.718-1.885l1.496-2.66-.027-.028-2.051 2.245c-.776-.167-1.552-.5-2.3-1.053-.25-.167-.471-.36-.693-.582.056.388.111.914.277 1.33-1.302-1.663-2.078-3.741-2.078-6.014v-.304c.11.47.388.914.582 1.274.055-.277.138-.582.222-.886.277-.887.72-1.636 1.274-2.217l2.938.61.027-.028-2.77-1.247c-.084-.776 0-1.635.276-2.494.084-.305.194-.582.333-.832-.388.166-.887.388-1.247.72 1.275-1.911 3.242-3.352 5.515-3.99-.416.25-.804.665-1.081.97.277-.028.582-.055.914-.055.915 0 1.774.194 2.494.498l.333 2.966h.027l.333-2.993c.72-.305 1.552-.499 2.466-.499.305 0 .61.028.915.055-.305-.304-.665-.72-1.08-.97 2.271.638 4.211 2.079 5.514 3.991-.36-.305-.86-.527-1.247-.72.138.249.249.554.332.83.277.86.36 1.719.277 2.495l-2.743 1.247.028.027 2.937-.61c.526.583.97 1.331 1.247 2.218.083.305.166.582.222.887.194-.333.47-.776.582-1.247zm-7.121 3.99l1.635-5.071-4.323-3.132-4.323 3.132 1.663 5.071h5.348z"/>
      <path fill="#92278F" d="M9.978 14.8c-.055.111-.055.25.028.36.028.056.083.084.139.111l11.14 6.485.027.028c.111.055.25.055.388-.028l.083-.083c.028-.028.028-.028.028-.056 1.025-1.8 2.466-3.436 4.268-4.738 1.828-1.303 3.851-2.106 5.902-2.467h.055c.056 0 .084-.027.14-.055.11-.083.165-.222.138-.36v-.028L29.958 1.305v-.028c-.027-.055-.027-.11-.055-.138-.083-.111-.194-.166-.333-.139h-.027c-3.935.72-7.843 2.273-11.307 4.739-3.519 2.466-6.263 5.57-8.258 9.062z"/>
      <path fill="#005BAA" d="M3.632 39.27c.056.11.167.194.305.221.056 0 .111 0 .166-.027l12.027-4.628h.028c.11-.055.194-.166.222-.305 0-.055 0-.083-.028-.138 0-.028-.028-.056-.028-.056-.776-1.94-1.136-4.073-1.025-6.29.138-2.245.776-4.323 1.773-6.152l.028-.028c.028-.028.028-.083.028-.138 0-.139-.056-.277-.166-.333l-.028-.028-11.362-6.096h-.028c-.055-.028-.11-.028-.166-.028-.138 0-.25.056-.305.166 0 .028 0 .028-.027.028-1.857 3.464-3.076 7.51-3.326 11.75-.277 4.267.416 8.369 1.912 12.082z"/>
      <path fill="#009BDF" d="M18.901 59.388c.139.028.25 0 .36-.11.056-.056.084-.084.084-.167l3.824-12.303v-.028c.028-.139 0-.277-.11-.36-.029-.028-.084-.056-.112-.056-.027 0-.027-.028-.055-.028-1.995-.61-3.907-1.635-5.57-3.131-1.663-1.496-2.91-3.27-3.713-5.21 0-.027 0-.027-.028-.027-.028-.056-.056-.084-.083-.111-.111-.083-.25-.111-.388-.056h-.028L1.249 42.928l-.027.028c-.056.027-.084.055-.139.083-.083.11-.11.25-.055.36 0 .028 0 .028.027.028 1.58 3.685 3.963 7.121 7.15 9.976 3.214 2.826 6.872 4.822 10.696 5.985z"/>
      <path fill="#00A651" d="M44.036 59.97c.11-.083.166-.194.138-.332 0-.056-.027-.111-.055-.166L36.94 48.775l-.027-.028c-.083-.11-.222-.166-.36-.138-.056 0-.084.027-.139.055-.028 0-.028.028-.055.028-1.718 1.191-3.714 2.023-5.93 2.383-2.218.36-4.379.194-6.402-.388h-.055c-.056-.028-.083-.028-.139 0-.139.028-.25.139-.277.25v.027L20.148 63.38v.028c-.027.055-.027.11 0 .166.028.138.111.221.25.277h.028c3.852 1.08 8.036 1.385 12.248.693 4.212-.72 8.036-2.3 11.362-4.573z"/>
      <path fill="#FFF200" d="M60.385 40.794c0-.139-.055-.25-.166-.333-.056-.027-.111-.055-.166-.055l-12.858-.998h-.028c-.139 0-.277.056-.333.194-.027.056-.027.083-.027.139v.055c-.139 2.078-.72 4.185-1.802 6.124-1.08 1.968-2.55 3.575-4.267 4.794-.028 0-.028.028-.028.028-.028.028-.055.056-.083.111-.055.139-.055.277.028.388l.027.028 7.621 10.391v.028c.028.028.083.083.139.083.11.056.249.056.36-.028.028 0 .028 0 .028-.027 3.242-2.356 6.068-5.46 8.119-9.2 2.023-3.741 3.159-7.732 3.436-11.722z"/>
      <path fill="#F68B1F" d="M55.536 15.992c-.083-.083-.25-.11-.36-.055-.056.028-.111.056-.139.11l-8.868 9.367-.027.028c-.084.083-.111.25-.056.36.028.056.056.083.056.111.027.028.027.028.055.028 1.524 1.413 2.771 3.187 3.63 5.265.832 2.078 1.164 4.24 1.026 6.318v.056c0 .055 0 .083.027.138.056.139.166.222.305.222h.028l12.858.61h.028c.055 0 .11 0 .166-.028.138-.056.194-.166.222-.305v-.028c.221-3.99-.416-8.147-2.023-12.11-1.608-3.935-3.99-7.343-6.928-10.087z"/>
      <path fill="#D80F15" d="M33.007 4.464c-.14.028-.25.11-.278.25-.027.055-.027.138-.027.166l1.884 12.747v.027c.028.139.11.25.25.277.055.028.083.028.138.028.028 0 .055 0 .055-.027 2.079-.333 4.24-.222 6.374.388 2.162.61 4.046 1.69 5.625 3.075l.028.028c.028.028.083.056.111.056.139.055.277 0 .36-.111l.028-.028 8.424-9.754.028-.028c.028-.028.055-.083.083-.139.028-.138 0-.249-.083-.36l-.028-.028C52.96 8.4 49.301 6.348 45.2 5.157c-4.073-1.081-8.23-1.303-12.192-.693z"/>
      <path fill="#fff" d="M167.323 45.56V28.379h-5.071v1.773c-1.524-1.413-2.799-2.106-4.877-2.106-4.711 0-8.203 4.24-8.203 9.007 0 5.514 3.215 8.923 7.925 8.923 3.215 0 5.072-2.106 5.072-2.106v1.69h5.154zm-4.877-8.452c0 2.494-1.912 4.184-4.185 4.184-2.383 0-3.852-1.967-3.852-4.35 0-2.273 1.552-4.102 4.019-4.102 2.244.028 4.018 1.746 4.018 4.268zm-15.435 6.429v-15.13h-4.905v1.912c-1.469-1.552-2.91-2.273-5.072-2.273-4.461 0-7.371 3.935-7.371 8.59 0 4.684 2.965 8.37 7.344 8.37 2.023 0 3.852-1.081 4.849-1.995.056.443.028.83.028 1.274 0 1.885-1.663 2.716-3.436 2.716-1.275 0-1.995-.222-2.688-1.413h-5.764c.554 3.88 4.184 5.985 8.341 5.985 4.739.028 8.674-2.743 8.674-8.036zm-4.878-6.9c0 1.94-1.358 4.018-3.935 4.018-2.272 0-3.547-1.829-3.547-4.018 0-2.134 1.192-4.13 3.575-4.13 2.633 0 3.907 1.83 3.907 4.13zm-14.105-12.664c0-1.746-1.413-3.104-3.103-3.104-1.691 0-3.076 1.441-3.076 3.16 0 1.773 1.358 3.13 3.02 3.13 1.774 0 3.159-1.44 3.159-3.186zM107.91 45.56h12.165v-4.877h-6.651V24.11h-5.514V45.56zm-8.175 0h5.154V28.379h-5.07v1.773c-1.525-1.413-2.8-2.106-4.878-2.106-4.71 0-8.203 4.24-8.203 9.007 0 5.514 3.215 8.923 7.926 8.923 3.214 0 5.071-2.106 5.071-2.106v1.69zm.25-8.452c0 2.494-1.885 4.184-4.185 4.184-2.355 0-3.852-1.967-3.852-4.35 0-2.273 1.58-4.102 4.018-4.102 2.245.028 4.018 1.746 4.018 4.268zM73.658 45.56h12.165v-4.877h-6.65V24.11h-5.515V45.56zm53.815-17.181h-5.127v17.18h5.127V28.38z"/>
      <path fill="url(#laligaroom-zh_paint0_linear)" d="M175.034 48.216V30.429h6.748v-2.947h-7.73v-3.257h25.231v3.257h-8.091v2.948h7.109v17.76h-3.619v-1.68h-16.029v1.706h-3.619zm10.16-17.787h2.559v-2.947h-2.559v2.948zm2.559 7.11v-3.852h-2.559c0 3.757-1.241 6.627-3.723 8.609-.999-.836-1.939-1.547-2.818-2.133v3.09h16.029v-2.638h-3.878c-2.034 0-3.051-1.025-3.051-3.076zm-9.1 2.378c2.086-1.5 3.129-3.576 3.129-6.23h-3.129v6.23zm16.029-6.23h-3.49v2.404c0 .827.422 1.241 1.266 1.241h2.224v-3.645z"/>
      <path fill="url(#laligaroom-zh_paint1_linear)" d="M202.115 42.063V24.225h22.466v17.838h-3.62v-1.758h-5.713v8.066h-3.826v-8.066h-5.688v1.758h-3.619zm18.846-14.477h-5.713v2.999h5.713v-3zm-5.713 9.358h5.713v-2.999h-5.713v3zm-9.514 0h5.688v-2.999h-5.688v3zm0-6.36h5.688v-2.998h-5.688v2.999z"/>
      <path fill="url(#laligaroom-zh_paint2_linear)" d="M233.332 34.41c0 5.895-1.215 10.557-3.645 13.987-.706-1.103-1.577-2.301-2.611-3.594 1.724-2.688 2.585-6.118 2.585-10.289V24.147h22.88v3.516h-19.209v6.748zm.828-4.187h18.096v3.412h-6.747v10.367c0 1.284-.328 2.266-.983 2.947-.646.68-1.65 1.06-3.011 1.138-1.362.086-2.892.137-4.589.155-.172-1.138-.431-2.336-.776-3.594 1.327.095 2.336.142 3.025.142 1.146 0 1.857-.19 2.133-.568.284-.388.426-.85.426-1.383v-9.204h-7.574v-3.412z"/>
      <defs>
        <linearGradient id="laligaroom-zh_paint0_linear" x1="170.547" x2="259.667" y1="51.707" y2="51.707" gradientUnits="userSpaceOnUse">
          <stop stop-color="#A87D35"/>
          <stop offset="1" stop-color="#D5AF71"/>
        </linearGradient>
        <linearGradient id="laligaroom-zh_paint1_linear" x1="170.547" x2="259.667" y1="51.707" y2="51.707" gradientUnits="userSpaceOnUse">
          <stop stop-color="#A87D35"/>
          <stop offset="1" stop-color="#D5AF71"/>
        </linearGradient>
        <linearGradient id="laligaroom-zh_paint2_linear" x1="170.547" x2="259.667" y1="51.707" y2="51.707" gradientUnits="userSpaceOnUse">
          <stop stop-color="#A87D35"/>
          <stop offset="1" stop-color="#D5AF71"/>
        </linearGradient>
      </defs>
    </g>
  </svg>

  <svg viewBox="0 0 138 88">
    <g id="laligaroom-mobile" class="img">
      <path fill="#FCFCFC" d="M77.924 27.427c0-4.977-4.059-9.038-9.085-9.038-5.003 0-9.086 4.061-9.086 9.038 0 4.978 4.083 9.04 9.086 9.04 5.026-.024 9.085-4.062 9.085-9.04z"/>
      <path fill="#010202" d="M77.924 27.427c0-4.977-4.059-9.038-9.085-9.038-5.003 0-9.086 4.061-9.086 9.038 0 4.978 4.083 9.04 9.086 9.04 5.026-.024 9.085-4.062 9.085-9.04zm-.732-.281v.258c0 1.925-.66 3.686-1.746 5.095.142-.376.165-.799.236-1.127-.189.164-.377.328-.59.493-.613.446-1.298.751-1.959.892l-1.746-1.902-.023.024 1.274 2.253c-.33.587-.826 1.127-1.463 1.597-.212.164-.425.282-.66.4.33.046.754.14 1.132.14-.873.305-1.817.493-2.808.493-.991 0-1.935-.164-2.808-.493.4.023.802-.07 1.156-.14-.213-.118-.448-.26-.66-.4-.638-.47-1.134-1.01-1.464-1.596l1.274-2.254-.023-.024-1.747 1.902c-.66-.141-1.321-.423-1.958-.892-.213-.141-.401-.305-.59-.493.047.328.094.775.236 1.127-1.11-1.409-1.77-3.17-1.77-5.095v-.258c.094.399.33.774.495 1.08.048-.235.119-.493.19-.752.235-.75.613-1.385 1.085-1.878l2.501.517.024-.024-2.36-1.056c-.07-.658 0-1.385.236-2.113.07-.258.165-.493.283-.705-.33.141-.755.33-1.062.61 1.086-1.619 2.761-2.84 4.696-3.38-.354.212-.684.564-.92.822.236-.024.495-.047.779-.047.778 0 1.51.164 2.123.422l.284 2.513h.023l.284-2.536c.613-.258 1.321-.423 2.1-.423.26 0 .519.024.778.047-.26-.258-.566-.61-.92-.821 1.935.54 3.587 1.76 4.696 3.38-.307-.258-.731-.446-1.062-.61.118.211.213.47.283.704.236.728.307 1.456.236 2.113l-2.336 1.057.024.023 2.501-.516c.448.493.826 1.127 1.062 1.878.07.258.142.493.189.751.165-.282.401-.657.495-1.056zm-6.064 3.38l1.392-4.296-3.681-2.653-3.682 2.653 1.416 4.296h4.555z"/>
      <path fill="#92278F" d="M49.913 11.698c-.047.094-.047.211.024.305.024.047.07.07.118.094l9.486 5.494.024.023c.095.047.213.047.33-.023l.071-.07c.024-.024.024-.024.024-.048.873-1.526 2.1-2.911 3.634-4.014 1.557-1.104 3.28-1.785 5.026-2.09h.048c.047 0 .07-.023.118-.047.094-.07.141-.188.118-.305v-.024L66.928.264V.241c-.024-.047-.024-.094-.047-.118-.071-.094-.166-.14-.284-.117h-.023c-3.351.61-6.678 1.925-9.628 4.015-2.997 2.09-5.333 4.719-7.032 7.677z"/>
      <path fill="#005BAA" d="M44.51 32.428c.047.094.142.165.26.188.047 0 .094 0 .141-.023l10.242-3.921h.024c.094-.047.165-.141.188-.258 0-.047 0-.07-.023-.118 0-.023-.024-.047-.024-.047-.66-1.643-.967-3.451-.873-5.33.118-1.9.66-3.662 1.51-5.211l.024-.024c.024-.023.024-.07.024-.117 0-.117-.048-.235-.142-.282l-.024-.023-9.675-5.165h-.023c-.048-.024-.095-.024-.142-.024-.118 0-.212.047-.26.141 0 .024 0 .024-.023.024-1.581 2.934-2.62 6.362-2.832 9.954-.236 3.616.354 7.09 1.628 10.236z"/>
      <path fill="#009BDF" d="M57.512 49.472c.118.024.213 0 .307-.093.047-.047.071-.07.071-.141l3.257-10.424v-.024c.023-.117 0-.234-.095-.305-.023-.023-.07-.047-.094-.047-.024 0-.024-.023-.047-.023-1.7-.517-3.328-1.386-4.744-2.653-1.416-1.268-2.477-2.77-3.162-4.414 0-.023 0-.023-.023-.023-.024-.047-.048-.071-.071-.094-.095-.07-.213-.094-.33-.047h-.024L42.48 35.527l-.023.023c-.047.024-.071.047-.118.07-.071.095-.095.212-.047.306 0 .023 0 .023.023.023 1.345 3.123 3.375 6.034 6.089 8.452 2.737 2.395 5.852 4.085 9.108 5.071z"/>
      <path fill="#00A651" d="M78.917 49.966c.094-.07.141-.165.118-.282 0-.047-.024-.094-.048-.14l-6.111-9.063-.024-.024c-.07-.094-.189-.14-.307-.117-.047 0-.07.023-.118.047-.024 0-.024.023-.047.023-1.463 1.01-3.162 1.714-5.05 2.02-1.888.305-3.728.164-5.451-.33h-.047c-.048-.023-.071-.023-.118 0-.118.024-.213.118-.236.212v.024l-2.903 10.517v.024c-.024.047-.024.094 0 .14.024.118.094.189.212.236h.024c3.28.915 6.843 1.173 10.43.587 3.587-.61 6.844-1.95 9.676-3.874z"/>
      <path fill="#FFF200" d="M92.839 33.72c0-.118-.047-.212-.142-.282-.047-.023-.094-.047-.141-.047l-10.95-.845h-.023c-.118 0-.236.047-.283.164-.024.047-.024.07-.024.118v.047c-.118 1.76-.614 3.545-1.534 5.188-.92 1.667-2.17 3.029-3.634 4.062-.024 0-.024.023-.024.023-.023.024-.047.047-.07.094-.048.117-.048.235.023.329l.024.023 6.49 8.804v.024c.023.023.07.07.117.07.095.047.213.047.307-.023.024 0 .024 0 .024-.024 2.76-1.995 5.168-4.625 6.914-7.794 1.722-3.17 2.69-6.55 2.926-9.931z"/>
      <path fill="#F68B1F" d="M88.709 12.707c-.071-.07-.213-.094-.307-.047-.047.024-.095.047-.118.094l-7.552 7.935-.023.024c-.071.07-.095.211-.047.305.023.047.047.07.047.094.023.024.023.024.047.024 1.298 1.197 2.36 2.7 3.091 4.46.708 1.761.991 3.592.873 5.353v.047c0 .047 0 .07.024.117.047.118.142.188.26.188h.023l10.95.517H96c.047 0 .095 0 .142-.024.118-.047.165-.14.189-.258v-.023c.188-3.381-.354-6.903-1.723-10.26-1.369-3.334-3.398-6.222-5.9-8.546z"/>
      <path fill="#ED1C24" d="M69.523 2.94c-.118.024-.212.094-.236.211-.023.047-.023.118-.023.141l1.604 10.8v.023c.024.118.095.212.213.235.047.024.07.024.118.024.023 0 .047 0 .047-.024 1.77-.281 3.61-.188 5.428.329 1.84.516 3.445 1.432 4.79 2.606l.023.023c.024.024.071.047.095.047.118.047.236 0 .307-.094l.023-.023 7.174-8.264.024-.024c.023-.023.047-.07.07-.117.024-.117 0-.211-.07-.305l-.024-.024c-2.572-2.23-5.687-3.967-9.18-4.977-3.469-.916-7.008-1.103-10.383-.587z"/>
      <path fill="#fff" d="M72.203 83.36V70.102h-3.91v1.369c-1.174-1.09-2.157-1.625-3.76-1.625-3.63 0-6.322 3.271-6.322 6.95 0 4.254 2.478 6.884 6.11 6.884 2.477 0 3.908-1.625 3.908-1.625v1.305h3.974zm-3.76-6.522c0 1.924-1.474 3.229-3.226 3.229-1.837 0-2.969-1.518-2.969-3.357 0-1.754 1.196-3.165 3.098-3.165 1.73.021 3.097 1.347 3.097 3.293zm-11.898 4.96V70.125h-3.782v1.475c-1.132-1.197-2.242-1.753-3.909-1.753-3.439 0-5.682 3.036-5.682 6.628 0 3.614 2.286 6.458 5.661 6.458 1.56 0 2.97-.834 3.738-1.54.043.343.022.642.022.984 0 1.454-1.282 2.096-2.65 2.096-.982 0-1.537-.171-2.071-1.09h-4.444c.428 2.993 3.226 4.618 6.43 4.618 3.653.021 6.687-2.117 6.687-6.201zm-3.76-5.324c0 1.497-1.047 3.1-3.033 3.1-1.752 0-2.735-1.41-2.735-3.1 0-1.646.919-3.186 2.756-3.186 2.03 0 3.012 1.412 3.012 3.186zm-10.873-9.772c0-1.347-1.09-2.394-2.393-2.394-1.303 0-2.37 1.111-2.37 2.437 0 1.369 1.046 2.416 2.328 2.416 1.367 0 2.435-1.111 2.435-2.459zM26.403 83.36h9.378v-3.764h-5.127V66.81h-4.25v16.55zm-6.302 0h3.974V70.102h-3.91v1.369c-1.174-1.09-2.157-1.625-3.76-1.625-3.63 0-6.322 3.271-6.322 6.95 0 4.254 2.478 6.884 6.11 6.884 2.477 0 3.908-1.625 3.908-1.625v1.305zm.193-6.522c0 1.924-1.453 3.229-3.226 3.229-1.816 0-2.97-1.518-2.97-3.357 0-1.754 1.218-3.165 3.098-3.165 1.73.021 3.098 1.347 3.098 3.293zM0 83.36h9.378v-3.764H4.25V66.81H0v16.55zm41.484-13.258h-3.951V83.36h3.951V70.102z"/>
      <path fill="url(#laligaroom-mobile_paint0_linear)" d="M80.522 83.359h-3.247V66.744h3.952c1.26 0 2.179.043 2.798.128.62.086 1.132.236 1.56.428.94.45 1.666 1.048 2.157 1.839.492.791.748 1.71.748 2.78 0 1.283-.363 2.373-1.068 3.271-.705.898-1.666 1.454-2.884 1.711l4.144 6.436h-3.866l-4.294-7.719v7.74zm0-8.532h.726c1.325 0 2.307-.235 2.99-.706.684-.47 1.026-1.176 1.026-2.074 0-.877-.277-1.54-.854-1.946-.577-.427-1.453-.62-2.67-.62h-1.218v5.346zm8.78 2.202c0-.876.17-1.71.49-2.523.321-.791.791-1.497 1.41-2.117.642-.641 1.347-1.112 2.137-1.454.79-.342 1.602-.513 2.457-.513.897 0 1.73.15 2.499.449.769.3 1.474.748 2.093 1.347.663.642 1.154 1.369 1.517 2.181.363.834.534 1.668.534 2.545 0 .962-.149 1.839-.47 2.63-.32.791-.769 1.497-1.41 2.138-.62.642-1.324 1.133-2.136 1.475-.79.321-1.666.492-2.606.492s-1.794-.17-2.585-.492c-.769-.342-1.474-.833-2.115-1.496-.598-.663-1.068-1.369-1.388-2.16-.278-.791-.427-1.625-.427-2.502zm3.012-.021c0 1.155.32 2.095.96 2.758.642.684 1.496 1.027 2.607 1.027 1.068 0 1.944-.343 2.585-1.048.64-.706.961-1.625.961-2.801 0-1.048-.342-1.925-1.004-2.609-.662-.684-1.517-1.026-2.542-1.026-1.047 0-1.901.342-2.563 1.026-.684.684-1.004 1.582-1.004 2.673zm11.193.021c0-.876.171-1.71.491-2.523.321-.791.791-1.497 1.41-2.117.641-.641 1.346-1.112 2.137-1.454.79-.342 1.602-.513 2.456-.513.897 0 1.73.15 2.499.449.769.3 1.474.748 2.094 1.347.662.642 1.153 1.369 1.517 2.181.363.834.534 1.668.534 2.545 0 .962-.15 1.839-.47 2.63-.321.791-.769 1.497-1.41 2.138-.62.642-1.325 1.133-2.136 1.475-.791.321-1.667.492-2.607.492-.939 0-1.794-.17-2.584-.492-.769-.342-1.474-.833-2.115-1.496-.598-.663-1.068-1.369-1.389-2.16-.277-.791-.427-1.625-.427-2.502zm3.012-.021c0 1.155.321 2.095.961 2.758.641.684 1.496 1.027 2.607 1.027 1.068 0 1.943-.343 2.584-1.048.641-.706.962-1.625.962-2.801 0-1.048-.342-1.925-1.004-2.609-.663-.684-1.517-1.026-2.542-1.026-1.047 0-1.902.342-2.564 1.026-.683.684-1.004 1.582-1.004 2.673zm14.825-6.201v1.433c.427-.578.919-.984 1.474-1.262.556-.278 1.175-.406 1.88-.406 1.004 0 1.88.17 2.585.534.726.364 1.324.92 1.858 1.668.492-.748 1.047-1.304 1.666-1.668.62-.363 1.304-.556 2.03-.556 1.538 0 2.713.492 3.525 1.454.811.962 1.239 2.352 1.239 4.149v7.206h-2.863v-5.56c0-1.71-.192-2.865-.555-3.464-.385-.62-1.026-.92-1.944-.92-.962 0-1.645.343-2.072 1.027-.406.684-.62 1.86-.62 3.55v5.367h-2.884v-5.56c0-1.69-.192-2.844-.576-3.464-.385-.62-1.047-.92-2.008-.92-.983 0-1.667.343-2.094 1.027-.427.684-.641 1.86-.641 3.55v5.367h-2.82V70.807h2.82z"/>
      <defs>
        <linearGradient id="laligaroom-mobile_paint0_linear" x1="77.285" x2="137.599" y1="75.217" y2="75.217" gradientUnits="userSpaceOnUse">
          <stop stop-color="#A87D36"/>
          <stop offset="1" stop-color="#D8B074"/>
        </linearGradient>
      </defs>
    </g>
  </svg>

  <svg viewBox="0 0 104 89">
    <g id="laligaroom-mobile-TH" class="img">
      <path fill="#FCFCFC" d="M60.59 27.35c0-4.963-4.051-9.013-9.068-9.013-4.994 0-9.069 4.05-9.069 9.013s4.075 9.013 9.069 9.013c5.017-.023 9.068-4.05 9.068-9.013z"/>
      <path fill="#010202" d="M60.59 27.35c0-4.963-4.051-9.013-9.068-9.013-4.994 0-9.069 4.05-9.069 9.013s4.075 9.013 9.069 9.013c5.017-.023 9.068-4.05 9.068-9.013zm-.73-.281v.258c0 1.92-.66 3.675-1.743 5.08.141-.375.165-.796.235-1.124-.188.164-.377.328-.588.492-.613.444-1.296.749-1.956.89l-1.742-1.897-.024.023 1.272 2.248c-.33.585-.825 1.123-1.46 1.592-.212.164-.425.28-.66.398.33.046.754.14 1.13.14-.87.305-1.813.492-2.802.492-.99 0-1.932-.164-2.803-.492.4.024.8-.07 1.154-.14-.212-.117-.448-.258-.66-.398-.636-.468-1.13-1.007-1.46-1.592l1.272-2.248-.024-.023-1.743 1.896c-.66-.14-1.319-.421-1.955-.89-.212-.14-.4-.304-.589-.491.047.328.095.773.236 1.124-1.107-1.405-1.767-3.16-1.767-5.08v-.258c.095.398.33.773.495 1.077.047-.234.118-.492.188-.75.236-.748.613-1.38 1.084-1.872l2.497.515.023-.023-2.355-1.054c-.07-.655 0-1.381.235-2.107.071-.257.165-.492.283-.702-.33.14-.754.328-1.06.609 1.084-1.616 2.756-2.833 4.687-3.372-.353.211-.683.562-.918.82.235-.024.494-.047.777-.047.777 0 1.508.164 2.12.421l.283 2.505h.023l.283-2.528c.612-.258 1.319-.421 2.096-.421.26 0 .518.023.777.046-.259-.257-.565-.608-.918-.82 1.931.54 3.58 1.757 4.687 3.372-.306-.258-.73-.445-1.06-.609.118.211.212.469.283.703.235.725.306 1.451.235 2.107l-2.331 1.053.023.024 2.497-.515c.447.491.824 1.123 1.06 1.872.07.258.141.492.188.75.165-.281.4-.656.495-1.054zm-6.054 3.371l1.39-4.284-3.674-2.645-3.675 2.645 1.413 4.284h4.546z"/>
      <path fill="#92278F" d="M32.632 11.665c-.047.093-.047.21.024.304.024.047.07.07.118.094l9.469 5.478.023.023c.094.047.212.047.33-.023l.07-.07c.024-.024.024-.024.024-.047.872-1.522 2.096-2.903 3.628-4.004 1.554-1.1 3.274-1.779 5.017-2.083h.047c.047 0 .07-.024.118-.047.094-.07.14-.187.117-.304v-.024L49.615.263V.24c-.023-.047-.023-.094-.047-.117-.07-.094-.165-.14-.283-.117h-.023c-3.345.609-6.666 1.92-9.61 4.003-2.992 2.084-5.324 4.706-7.02 7.655z"/>
      <path fill="#005BAA" d="M27.239 32.336c.047.094.141.164.259.188.047 0 .094 0 .141-.024l10.223-3.91h.023c.095-.046.165-.14.189-.257 0-.047 0-.07-.024-.117 0-.023-.023-.047-.023-.047-.66-1.638-.966-3.441-.872-5.314.118-1.896.66-3.652 1.508-5.197l.023-.024c.024-.023.024-.07.024-.117 0-.117-.047-.234-.142-.28l-.023-.024-9.658-5.15h-.023c-.047-.024-.094-.024-.141-.024-.118 0-.212.047-.26.14 0 .024 0 .024-.023.024-1.578 2.927-2.615 6.345-2.827 9.926-.235 3.606.354 7.07 1.626 10.207z"/>
      <path fill="#009BDF" d="M40.217 49.332c.118.024.212 0 .306-.093.047-.047.071-.07.071-.14l3.25-10.395v-.024c.024-.117 0-.234-.094-.304-.023-.023-.07-.047-.094-.047-.023 0-.023-.023-.047-.023-1.696-.515-3.321-1.381-4.735-2.645-1.413-1.265-2.473-2.763-3.156-4.402 0-.023 0-.023-.023-.023-.024-.047-.047-.07-.071-.094-.094-.07-.212-.093-.33-.047h-.023l-10.058 4.331-.024.024c-.047.023-.07.047-.117.07-.071.094-.095.21-.047.304 0 .024 0 .024.023.024 1.343 3.113 3.368 6.016 6.077 8.428 2.732 2.387 5.842 4.073 9.092 5.056z"/>
      <path fill="#00A651" d="M61.581 49.824c.095-.07.142-.164.118-.28 0-.048-.023-.094-.047-.141l-6.1-9.037-.024-.023c-.07-.094-.188-.14-.306-.117-.047 0-.071.023-.118.047-.024 0-.024.023-.047.023-1.46 1.007-3.157 1.709-5.04 2.013-1.885.305-3.723.164-5.442-.328h-.047c-.047-.023-.07-.023-.118 0-.118.024-.212.117-.235.211v.024l-2.898 10.488v.023c-.023.047-.023.094 0 .14.024.117.095.188.212.235h.024c3.274.913 6.83 1.17 10.411.585 3.58-.609 6.83-1.943 9.657-3.863z"/>
      <path fill="#FFF200" d="M75.48 33.624c0-.117-.048-.21-.142-.281-.047-.024-.094-.047-.141-.047l-10.93-.843h-.023c-.118 0-.236.047-.283.164-.023.047-.023.07-.023.117v.047c-.118 1.756-.613 3.535-1.531 5.174-.919 1.662-2.167 3.02-3.628 4.05-.023 0-.023.023-.023.023-.024.024-.047.047-.07.094-.048.117-.048.234.023.328l.023.023 6.478 8.78v.023c.023.023.07.07.118.07.094.047.212.047.306-.024.023 0 .023 0 .023-.023 2.756-1.99 5.159-4.612 6.902-7.773 1.72-3.16 2.685-6.531 2.92-9.902z"/>
      <path fill="#F68B1F" d="M71.355 12.671c-.07-.07-.212-.094-.306-.047-.047.024-.094.047-.118.094l-7.537 7.913-.024.023c-.07.07-.094.21-.047.304.024.047.047.07.047.094.024.023.024.023.048.023 1.295 1.194 2.355 2.693 3.085 4.448.707 1.756.99 3.582.872 5.338v.047c0 .047 0 .07.023.117.047.117.142.187.26.187h.023l10.93.515h.023c.047 0 .094 0 .141-.023.118-.047.165-.14.188-.258v-.023c.189-3.371-.353-6.883-1.719-10.23-1.366-3.325-3.392-6.204-5.889-8.522z"/>
      <path fill="#ED1C24" d="M52.206 2.932c-.117.024-.212.094-.235.211-.024.047-.024.117-.024.14l1.602 10.77v.023c.023.117.094.21.212.234.047.023.07.023.118.023.023 0 .047 0 .047-.023 1.766-.281 3.604-.187 5.417.328 1.838.515 3.44 1.428 4.782 2.598l.023.024c.024.023.071.046.095.046.118.047.235 0 .306-.093l.023-.024 7.161-8.24.024-.024c.023-.023.047-.07.07-.117.024-.117 0-.21-.07-.304l-.024-.023c-2.567-2.224-5.677-3.957-9.163-4.963-3.462-.913-6.995-1.1-10.364-.586z"/>
      <path fill="#fff" d="M72.203 83.36V70.103h-3.91v1.368c-1.174-1.09-2.157-1.625-3.76-1.625-3.63 0-6.322 3.272-6.322 6.95 0 4.254 2.478 6.884 6.11 6.884 2.477 0 3.909-1.625 3.909-1.625v1.305h3.973zm-3.76-6.522c0 1.925-1.474 3.229-3.225 3.229-1.838 0-2.97-1.518-2.97-3.357 0-1.754 1.196-3.165 3.098-3.165 1.73.022 3.097 1.347 3.097 3.293zm-11.898 4.96V70.125h-3.781v1.475c-1.133-1.197-2.243-1.753-3.91-1.753-3.439 0-5.682 3.036-5.682 6.629 0 3.613 2.286 6.457 5.661 6.457 1.56 0 2.97-.834 3.738-1.54.043.343.022.642.022.984 0 1.454-1.282 2.096-2.65 2.096-.982 0-1.537-.171-2.071-1.09h-4.444c.428 2.993 3.226 4.618 6.43 4.618 3.653.021 6.687-2.117 6.687-6.201zm-3.76-5.323c0 1.496-1.047 3.1-3.033 3.1-1.752 0-2.735-1.411-2.735-3.1 0-1.647.919-3.186 2.756-3.186 2.03 0 3.012 1.41 3.012 3.186zm-10.873-9.772c0-1.347-1.09-2.395-2.393-2.395-1.303 0-2.37 1.112-2.37 2.437 0 1.369 1.046 2.417 2.328 2.417 1.367 0 2.435-1.112 2.435-2.46zM26.403 83.36h9.378v-3.764h-5.127V66.81h-4.25v16.55zm-6.302 0h3.974V70.103h-3.91v1.368c-1.174-1.09-2.157-1.625-3.76-1.625-3.63 0-6.322 3.272-6.322 6.95 0 4.254 2.478 6.884 6.11 6.884 2.477 0 3.908-1.625 3.908-1.625v1.305zm.193-6.522c0 1.925-1.453 3.229-3.226 3.229-1.816 0-2.97-1.518-2.97-3.357 0-1.754 1.218-3.165 3.098-3.165 1.73.022 3.098 1.347 3.098 3.293zM0 83.36h9.378v-3.764H4.25V66.81H0v16.55zm41.484-13.257h-3.951V83.36h3.951V70.103z"/>
      <path fill="url(#laligaroom-mobile-TH_paint0_linear)" d="M87.884 72.26c-.703.22-1.65.331-2.841.331L82.11 72.5c-.504 0-.94.13-1.306.388-.36.251-.539.494-.539.73.65-.076 1.12-.114 1.41-.114 1.924 0 3.326.327 4.204.982.886.647 1.329 1.91 1.329 3.79v1.814c0 .951-.31 1.746-.928 2.386-.619.639-1.42.959-2.406.959-.68 0-1.264-.24-1.753-.72-.489-.479-.733-1.057-.733-1.734 0-.647.233-1.207.699-1.678.466-.48 1.054-.739 1.764-.777v-.25c0-.967-.172-1.633-.516-1.998-.335-.373-.882-.56-1.638-.56-.52 0-1.02.02-1.5.058-.474.03-.913.076-1.318.137-.397.053-.733.114-1.008.182l-.78.217H77v-1.404c0-1.605.428-2.789 1.283-3.55.856-.768 2.15-1.152 3.884-1.152l2.876.09c.427 0 .825-.014 1.191-.045.367-.03.668-.068.905-.114l.653-.137h.092v2.26zm-4.01 9.702c.267 0 .497-.095.687-.285.199-.198.298-.43.298-.697 0-.266-.099-.494-.298-.684-.19-.198-.42-.297-.687-.297-.267 0-.5.099-.699.297-.19.19-.286.418-.286.684 0 .267.095.499.286.697.199.19.432.285.699.285z"/>
      <path fill="url(#laligaroom-mobile-TH_paint1_linear)" d="M87.564 86.55c0 .967-.478 1.45-1.432 1.45h-3.987v-1.05c-.489-.053-.867-.24-1.134-.56-.275-.311-.413-.68-.413-1.106 0-.45.172-.838.516-1.165.343-.327.744-.49 1.203-.49.45 0 .836.163 1.157.49.32.335.481.73.481 1.187v1.404h1.34c.314 0 .47-.163.47-.49V83.97h1.799v2.58zm-5.247-.799c.114 0 .217-.045.309-.136.092-.092.137-.194.137-.309 0-.106-.045-.209-.137-.308-.092-.091-.195-.137-.31-.137-.114 0-.217.046-.309.137-.091.1-.137.202-.137.308 0 .115.046.217.137.309.084.09.188.136.31.136z"/>
      <path fill="url(#laligaroom-mobile-TH_paint2_linear)" d="M103.237 83.275h-3.334c-.29-.411-.84-.872-1.65-1.381-.946-.594-1.852-1.02-2.715-1.279-.06.723-.355 1.378-.882 1.963-.527.563-1.344.849-2.452.856-.687 0-1.275-.235-1.764-.707-.481-.48-.722-1.062-.722-1.746 0-.632.245-1.203.734-1.713s1.073-.783 1.752-.822V75.16c-.672-.038-1.256-.297-1.752-.776-.49-.48-.734-1.054-.734-1.723 0-.685.241-1.264.722-1.735.489-.48 1.077-.72 1.764-.72.97 0 1.769.316 2.395.948.626.631.94 1.43.94 2.397v5.045c.641.091 1.412.342 2.314.753.954.434 1.638.864 2.05 1.29V70.537h3.334v12.738zM93.19 72.66c0-.267-.1-.495-.298-.685-.191-.198-.42-.297-.688-.297-.267 0-.5.099-.698.297-.191.19-.287.418-.287.685 0 .266.096.498.287.696.198.19.431.285.698.285.268 0 .497-.095.688-.285.199-.198.298-.43.298-.696zm0 8.32c0-.266-.1-.494-.298-.684-.191-.198-.42-.297-.688-.297-.267 0-.5.099-.698.297-.191.19-.287.418-.287.684 0 .267.096.499.287.697.198.19.431.285.698.285.268 0 .497-.095.688-.285.199-.198.298-.43.298-.697z"/>
      <defs>
        <linearGradient id="laligaroom-mobile-TH_paint0_linear" x1="75.499" x2="107.357" y1="88.145" y2="88.145" gradientUnits="userSpaceOnUse">
          <stop stop-color="#A87D35"/>
          <stop offset="1" stop-color="#D5AF71"/>
        </linearGradient>
        <linearGradient id="laligaroom-mobile-TH_paint1_linear" x1="75.499" x2="107.357" y1="88.145" y2="88.145" gradientUnits="userSpaceOnUse">
          <stop stop-color="#A87D35"/>
          <stop offset="1" stop-color="#D5AF71"/>
        </linearGradient>
        <linearGradient id="laligaroom-mobile-TH_paint2_linear" x1="75.499" x2="107.357" y1="88.145" y2="88.145" gradientUnits="userSpaceOnUse">
          <stop stop-color="#A87D35"/>
          <stop offset="1" stop-color="#D5AF71"/>
        </linearGradient>
      </defs>
    </g>
  </svg>

  <svg viewBox="0 0 135 88">
    <g id="laligaroom-mobile-zh" class="img">
      <path fill="#FCFCFC" d="M75.657 27.427c0-4.977-4.06-9.038-9.086-9.038-5.002 0-9.085 4.061-9.085 9.038 0 4.978 4.083 9.04 9.085 9.04 5.027-.024 9.086-4.062 9.086-9.04z"/>
      <path fill="#010202" d="M75.657 27.427c0-4.977-4.06-9.038-9.086-9.038-5.002 0-9.085 4.061-9.085 9.038 0 4.978 4.083 9.04 9.085 9.04 5.027-.024 9.086-4.062 9.086-9.04zm-.732-.281v.258c0 1.925-.66 3.686-1.746 5.095.141-.376.165-.799.236-1.127-.189.164-.378.328-.59.493-.614.446-1.298.751-1.959.892l-1.746-1.902-.024.024 1.275 2.253c-.33.587-.826 1.127-1.463 1.597-.213.164-.425.282-.661.4.33.046.755.14 1.132.14-.873.305-1.817.493-2.808.493-.99 0-1.935-.164-2.808-.493.401.023.803-.07 1.157-.14-.213-.118-.449-.26-.661-.4-.637-.47-1.133-1.01-1.463-1.596l1.274-2.254-.024-.024-1.746 1.902c-.66-.141-1.321-.423-1.958-.892-.213-.141-.402-.305-.59-.493.047.328.094.775.235 1.127-1.109-1.409-1.77-3.17-1.77-5.095v-.258c.095.399.331.774.496 1.08.047-.235.118-.493.189-.752.236-.75.614-1.385 1.085-1.878l2.502.517.024-.024-2.36-1.056c-.071-.658 0-1.385.236-2.113.07-.258.165-.493.283-.705-.33.141-.755.33-1.062.61 1.085-1.619 2.76-2.84 4.696-3.38-.354.212-.684.564-.92.822.236-.024.495-.047.778-.047.78 0 1.51.164 2.124.422l.283 2.513h.024l.283-2.536c.614-.258 1.322-.423 2.1-.423.26 0 .52.024.78.047-.26-.258-.567-.61-.921-.821 1.935.54 3.587 1.76 4.696 3.38-.307-.258-.732-.446-1.062-.61.118.211.212.47.283.704.236.728.307 1.456.236 2.113l-2.336 1.057.023.023 2.502-.516c.448.493.826 1.127 1.062 1.878.07.258.141.493.189.751.165-.282.4-.657.495-1.056zm-6.065 3.38l1.393-4.296-3.682-2.653-3.681 2.653 1.416 4.296h4.554z"/>
      <path fill="#92278F" d="M47.646 11.698c-.047.094-.047.211.024.305.023.047.07.07.118.094l9.486 5.494.024.023c.094.047.212.047.33-.023l.071-.07c.024-.024.024-.024.024-.048.873-1.526 2.1-2.911 3.634-4.014 1.557-1.104 3.28-1.785 5.026-2.09h.047c.047 0 .071-.023.118-.047.095-.07.142-.188.118-.305v-.024L64.66.264V.241c-.023-.047-.023-.094-.047-.118-.07-.094-.165-.14-.283-.117h-.024c-3.35.61-6.678 1.925-9.628 4.015-2.997 2.09-5.333 4.719-7.032 7.677z"/>
      <path fill="#005BAA" d="M42.243 32.428c.047.094.142.165.26.188.047 0 .094 0 .141-.023l10.242-3.921h.023c.095-.047.166-.141.19-.258 0-.047 0-.07-.024-.118 0-.023-.024-.047-.024-.047-.66-1.643-.968-3.451-.873-5.33.118-1.9.66-3.662 1.51-5.211l.024-.024c.023-.023.023-.07.023-.117 0-.117-.047-.235-.141-.282l-.024-.023-9.675-5.165h-.024c-.047-.024-.094-.024-.141-.024-.118 0-.213.047-.26.141 0 .024 0 .024-.023.024-1.582 2.934-2.62 6.362-2.832 9.954-.236 3.616.354 7.09 1.628 10.236z"/>
      <path fill="#009BDF" d="M55.245 49.473c.118.023.213 0 .307-.094.047-.047.07-.07.07-.141l3.257-10.424v-.024c.024-.117 0-.234-.094-.305-.024-.023-.071-.047-.095-.047-.023 0-.023-.023-.047-.023-1.699-.517-3.327-1.386-4.743-2.653-1.416-1.268-2.478-2.77-3.162-4.414 0-.023 0-.023-.024-.023-.023-.047-.047-.071-.07-.094-.095-.07-.213-.094-.33-.047h-.025l-10.076 4.343-.023.023c-.048.024-.071.047-.118.07-.071.095-.095.212-.048.306 0 .023 0 .023.024.023 1.345 3.123 3.374 6.034 6.088 8.452 2.738 2.395 5.852 4.085 9.11 5.072z"/>
      <path fill="#00A651" d="M76.65 49.966c.094-.07.14-.165.117-.282 0-.047-.023-.094-.047-.14l-6.112-9.063-.023-.024c-.071-.094-.19-.14-.307-.117-.047 0-.071.023-.118.047-.024 0-.024.023-.047.023-1.463 1.01-3.162 1.714-5.05 2.02-1.888.305-3.729.164-5.452-.33h-.047c-.047-.023-.07-.023-.118 0-.118.024-.212.118-.236.212v.024l-2.902 10.517v.024c-.024.047-.024.094 0 .14.023.118.094.189.212.236h.024c3.28.915 6.843 1.173 10.43.587 3.587-.61 6.843-1.95 9.675-3.874z"/>
      <path fill="#FFF200" d="M90.572 33.72c0-.118-.047-.212-.142-.282-.047-.023-.094-.047-.142-.047l-10.949-.845h-.024c-.118 0-.236.047-.283.164-.023.047-.023.07-.023.118v.047c-.118 1.76-.614 3.545-1.534 5.188-.92 1.667-2.171 3.029-3.634 4.062-.024 0-.024.023-.024.023-.023.024-.047.047-.07.094-.048.117-.048.235.023.329l.023.023 6.49 8.804v.024c.023.023.07.07.118.07.094.047.212.047.307-.023.023 0 .023 0 .023-.024 2.761-1.995 5.168-4.625 6.915-7.794 1.722-3.17 2.69-6.55 2.926-9.931z"/>
      <path fill="#F68B1F" d="M86.441 12.707c-.07-.07-.212-.094-.307-.047-.047.024-.094.047-.118.094l-7.551 7.935-.024.024c-.07.07-.094.211-.047.305.024.047.047.07.047.094.024.024.024.024.048.024 1.297 1.197 2.36 2.7 3.09 4.46.709 1.761.992 3.592.874 5.353v.047c0 .047 0 .07.024.117.047.118.141.188.26.188h.023l10.95.517h.023c.047 0 .094 0 .141-.024.119-.047.166-.14.19-.258v-.023c.188-3.381-.355-6.903-1.723-10.26-1.369-3.334-3.398-6.222-5.9-8.546z"/>
      <path fill="#ED1C24" d="M67.256 2.94c-.118.024-.212.094-.236.211-.023.047-.023.118-.023.141l1.604 10.8v.023c.024.118.095.212.213.235.047.024.07.024.118.024.023 0 .047 0 .047-.024 1.77-.281 3.61-.188 5.427.329 1.841.516 3.446 1.432 4.79 2.606l.024.023c.024.024.071.047.095.047.118.047.236 0 .307-.094l.023-.023 7.174-8.264.024-.024c.023-.023.047-.07.07-.117.024-.117 0-.211-.07-.305l-.024-.024c-2.572-2.23-5.687-3.967-9.18-4.977-3.469-.916-7.008-1.103-10.383-.587z"/>
      <path fill="#fff" d="M72.203 83.36V70.102h-3.91v1.369c-1.174-1.09-2.157-1.625-3.76-1.625-3.63 0-6.322 3.271-6.322 6.95 0 4.254 2.478 6.884 6.11 6.884 2.477 0 3.909-1.625 3.909-1.625v1.305h3.973zm-3.76-6.522c0 1.924-1.474 3.229-3.225 3.229-1.838 0-2.97-1.518-2.97-3.357 0-1.754 1.196-3.165 3.098-3.165 1.73.021 3.097 1.347 3.097 3.293zm-11.898 4.96V70.125h-3.781v1.475c-1.133-1.197-2.243-1.753-3.91-1.753-3.439 0-5.682 3.036-5.682 6.628 0 3.614 2.286 6.458 5.661 6.458 1.56 0 2.97-.834 3.738-1.54.043.343.022.642.022.984 0 1.454-1.282 2.096-2.65 2.096-.982 0-1.537-.171-2.071-1.09h-4.444c.428 2.993 3.226 4.618 6.43 4.618 3.653.021 6.687-2.117 6.687-6.201zm-3.76-5.324c0 1.497-1.047 3.1-3.033 3.1-1.752 0-2.735-1.41-2.735-3.1 0-1.646.919-3.186 2.756-3.186 2.03 0 3.012 1.412 3.012 3.186zm-10.873-9.772c0-1.347-1.09-2.394-2.393-2.394-1.303 0-2.37 1.111-2.37 2.437 0 1.369 1.046 2.416 2.328 2.416 1.367 0 2.435-1.111 2.435-2.459zM26.403 83.36h9.378v-3.764h-5.127V66.81h-4.25v16.55zm-6.302 0h3.974V70.102h-3.91v1.369c-1.174-1.09-2.157-1.625-3.76-1.625-3.63 0-6.322 3.271-6.322 6.95 0 4.254 2.478 6.884 6.11 6.884 2.477 0 3.908-1.625 3.908-1.625v1.305zm.193-6.522c0 1.924-1.453 3.229-3.226 3.229-1.816 0-2.97-1.518-2.97-3.357 0-1.754 1.218-3.165 3.098-3.165 1.73.021 3.098 1.347 3.098 3.293zM0 83.36h9.378v-3.764H4.25V66.81H0v16.55zm41.484-13.258h-3.951V83.36h3.951V70.102z"/>
      <path fill="url(#laligaroom-mobile-zh_paint0_linear)" d="M77.513 83.068V70.16h4.897V68.02H76.8v-2.364h18.313v2.364H89.24v2.14h5.16v12.89h-2.627v-1.22H80.14v1.238h-2.627zm7.374-12.909h1.858V68.02h-1.858v2.14zm1.858 5.16v-2.796h-1.858c0 2.727-.9 4.81-2.702 6.249-.725-.607-1.407-1.123-2.045-1.549v2.243h11.633v-1.914H88.96c-1.476 0-2.214-.744-2.214-2.233zm-6.605 1.726c1.513-1.088 2.27-2.595 2.27-4.522h-2.27v4.522zm11.633-4.522H89.24v1.745c0 .6.307.9.92.9h1.613v-2.645z"/>
      <path fill="url(#laligaroom-mobile-zh_paint1_linear)" d="M97.168 78.603V65.656h16.306v12.947h-2.627v-1.276H106.7v5.854h-2.777v-5.854h-4.128v1.276h-2.627zm13.679-10.508H106.7v2.177h4.147v-2.177zm-4.147 6.793h4.147V72.71H106.7v2.177zm-6.905 0h4.128V72.71h-4.128v2.177zm0-4.616h4.128v-2.177h-4.128v2.177z"/>
      <path fill="url(#laligaroom-mobile-zh_paint2_linear)" d="M119.826 73.049c0 4.278-.882 7.661-2.646 10.15-.513-.8-1.145-1.67-1.895-2.608 1.251-1.95 1.876-4.44 1.876-7.467V65.6h16.606v2.551h-13.941v4.898zm.6-3.04h13.134v2.477h-4.897v7.524c0 .932-.238 1.645-.713 2.139-.469.494-1.198.77-2.186.825-.988.063-2.098.1-3.33.113-.125-.826-.313-1.695-.563-2.608.963.069 1.695.103 2.195.103.832 0 1.348-.137 1.548-.413.206-.281.31-.616.31-1.004v-6.68h-5.498V70.01z"/>
      <defs>
        <linearGradient id="laligaroom-mobile-zh_paint0_linear" x1="74.256" x2="138.939" y1="85.602" y2="85.602" gradientUnits="userSpaceOnUse">
          <stop stop-color="#A87D35"/>
          <stop offset="1" stop-color="#D5AF71"/>
        </linearGradient>
        <linearGradient id="laligaroom-mobile-zh_paint1_linear" x1="74.256" x2="138.939" y1="85.602" y2="85.602" gradientUnits="userSpaceOnUse">
          <stop stop-color="#A87D35"/>
          <stop offset="1" stop-color="#D5AF71"/>
        </linearGradient>
        <linearGradient id="laligaroom-mobile-zh_paint2_linear" x1="74.256" x2="138.939" y1="85.602" y2="85.602" gradientUnits="userSpaceOnUse">
          <stop stop-color="#A87D35"/>
          <stop offset="1" stop-color="#D5AF71"/>
        </linearGradient>
      </defs>
    </g>
  </svg>

  <svg viewBox="0 0 33 33">
    <g id="livecasino" class="img">
      <path fill="#fff" fill-rule="evenodd" d="M16.993 1.49l8.194 23.28c.126.358.103.752-.065 1.094-.169.342-.467.604-.831.729L10.566 31.29c-.758.259-1.586-.137-1.849-.884L.524 7.128c-.263-.747.138-1.564.896-1.823L15.144.607c.364-.125.763-.101 1.11.064.347.166.613.46.739.82zm-3.82 1.736c-.326-.155-.717-.021-.874.299-.076.154-.087.331-.03.493.057.161.177.294.333.368l2.067.988 1.002-2.038c.102-.208.084-.453-.047-.643-.131-.191-.355-.298-.588-.282-.233.017-.44.155-.541.362l-.432.879-.89-.426zM13.03 27.29l-1.002 2.039-2.068-.989c-.21-.1-.35-.303-.367-.533-.017-.23.092-.451.285-.58.194-.13.442-.148.652-.047l.891.426.432-.879c.102-.207.308-.345.541-.362.233-.016.457.09.588.282.132.19.15.435.048.643zm-5.25-9.706l6.707 3.308 3.167-6.655c.603-1.341.046-2.91-1.278-3.596.07.035-2.235-1.526-3.49 1.183l-.977 1.82-1.917-.839c-.618-.322-1.347-.378-2.01-.153-.662.225-1.198.709-1.48 1.336-.603 1.34-.045 2.909 1.278 3.596z" clip-rule="evenodd"/>
      <path fill="#fff" d="M29.635 6.396l-8.445-3.06-1.312 3.398 4.635 14.105 5.122-14.443z"/>
      <path fill="#fff" d="M20.823.592c-.59-.209-1.236.11-1.442.711l-.538 1.577.017.048.703 2.06.88-2.578c.082-.24.34-.368.577-.284l9.42 3.327c.237.084.362.347.28.587l-5.866 16.092s.884 2.734.982 2.445l6.391-18.736c.099-.29.08-.606-.05-.882-.132-.275-.365-.486-.649-.586L20.823.592z"/>
    </g>
  </svg>

  <svg viewBox="0 0 33 33">
    <g id="promotions" class="img">
      <path fill="#fff" fill-rule="evenodd" d="M30.077 15.63c-.129.262-.129.563 0 .826l1.188 2.432c.662 1.354.138 2.968-1.194 3.674l-2.39 1.27c-.259.136-.436.38-.486.667l-.468 2.667c-.26 1.484-1.633 2.482-3.126 2.27l-2.68-.378c-.29-.041-.575.052-.785.255l-1.946 1.882c-.541.524-1.237.786-1.932.786-.695 0-1.39-.262-1.931-.786l-1.946-1.882c-.21-.203-.496-.296-.785-.255l-2.68.379c-.135.019-.268.028-.399.028-1.332 0-2.49-.948-2.728-2.3L5.322 24.5c-.05-.287-.228-.53-.486-.668l-2.39-1.268c-1.332-.707-1.857-2.32-1.195-3.675l1.189-2.432c.128-.262.128-.563 0-.826l-1.189-2.432c-.662-1.354-.137-2.968 1.194-3.674l2.391-1.27c.258-.136.435-.38.486-.667l.467-2.667c.26-1.484 1.634-2.482 3.126-2.27l2.68.379c.29.04.576-.053.786-.256L14.326.891c1.084-1.048 2.78-1.048 3.864 0l1.946 1.882c.21.203.496.296.785.255l2.68-.379c1.492-.21 2.866.787 3.126 2.271l.468 2.667c.05.287.227.53.485.668l2.391 1.268c1.332.707 1.856 2.32 1.194 3.675l-1.188 2.432zm-14.125-4.49c0-1.858-1.512-3.37-3.37-3.37-1.86 0-3.371 1.512-3.371 3.37 0 1.859 1.512 3.37 3.37 3.37 1.859 0 3.37-1.511 3.37-3.37zm-5.11 11.62c-.18.179-.415.269-.65.269-.236 0-.47-.09-.65-.27-.36-.358-.36-.94 0-1.3L21.675 9.326c.359-.359.94-.359 1.3 0 .359.36.359.941 0 1.3L10.842 22.76zm5.723-1.815c0 1.859 1.512 3.371 3.37 3.371 1.859 0 3.37-1.512 3.37-3.37 0-1.859-1.511-3.371-3.37-3.371-1.858 0-3.37 1.512-3.37 3.37z" clip-rule="evenodd"/>
      <path fill="#fff" d="M19.935 19.414c-.845 0-1.532.687-1.532 1.532 0 .844.687 1.532 1.532 1.532s1.532-.688 1.532-1.532c0-.845-.687-1.532-1.532-1.532zM12.581 9.608c-.844 0-1.532.688-1.532 1.532 0 .845.688 1.532 1.532 1.532.845 0 1.532-.687 1.532-1.532 0-.844-.687-1.532-1.532-1.532z"/>
    </g>
  </svg>

  <svg viewBox="0 0 33 33">
    <g id="sports" class="img">
      <path fill="#fff" fill-rule="evenodd" d="M10.423 1.214c-1.985.805-3.766 1.988-5.294 3.515-1.527 1.527-2.71 3.308-3.514 5.293C.837 11.939.443 13.965.443 16.043s.394 4.104 1.172 6.02c.805 1.986 1.987 3.767 3.514 5.294 1.528 1.527 3.308 2.71 5.294 3.515 1.917.778 3.942 1.171 6.02 1.171 2.079 0 4.104-.394 6.021-1.171 1.985-.805 3.766-1.988 5.293-3.515 1.528-1.527 2.71-3.308 3.515-5.293.777-1.917 1.17-3.943 1.17-6.02 0-2.079-.393-4.105-1.17-6.022-.805-1.985-1.988-3.767-3.515-5.293-1.527-1.527-3.307-2.71-5.293-3.515C20.547.437 18.522.043 16.444.043c-2.079 0-4.104.394-6.021 1.17zM4.442 22.779c-.77-.484-1.481-1.04-2.11-1.697-.96-2.703-1.123-5.628-.487-8.406.3-.59.64-1.157 1.025-1.7.042-.059.082-.118.123-.178.075-.11.151-.221.234-.327l3.61 2.137v.09c-.009 1.942.188 3.87.581 5.77l.003.017.001.005-2.8 4.39c-.06-.03-.121-.064-.18-.101zM17.1 31.006c-.659-.218-1.3-.486-1.922-.804-.05-.025-.097-.054-.144-.083L8.982 29.04c2.497 1.433 5.321 2.088 8.118 1.966zm-1.945-1.897l-7.142-1.273c-.836-1.015-1.588-2.088-2.234-3.236-.048-.086-.099-.172-.15-.258-.12-.204-.239-.407-.337-.622l2.798-4.386.055.014.154.039c1.75.468 3.531.8 5.324 1.062l.054.007c.082.012.152.022.213.028l3.354 5.798c-.582.818-1.17 1.632-1.772 2.437-.1.134-.206.262-.316.39zm10.08-.93c.632-.458 1.236-.97 1.804-1.54 2.633-2.632 4.079-6.008 4.338-9.457-.075.1-.17.191-.286.273-.882.63-1.833 1.14-2.819 1.589l-3.578 6.675c.256.801.436 1.622.541 2.46zm1.645-10.197c.134.254.265.51.397.77L23.82 25.2h-.006c-.018.005-.035.009-.053.011-1.868.349-3.752.535-5.65.543l-3.45-5.963c.537-.997 1.07-1.997 1.597-2.999.358-.679.71-1.362 1.061-2.046l7.138-.733c.874 1.283 1.703 2.592 2.422 3.97zm-2.406-5.235c.326-.802.652-1.603.958-2.412.17-.452.317-.915.463-1.378l.055-.175-4.79-5.398c-.657-.046-1.306-.026-1.952.01-.856.05-1.711.14-2.566.228l-.595.062c-.136.014-.27.044-.404.08l-1.936 5.828.667.666.333.332-.008.01-.014.015.647.726c.61.684 1.219 1.368 1.825 2.055.09.103.177.21.26.32l6.954-.714.103-.255zm2.565-7.3c1.321 1.322 2.345 2.83 3.068 4.442-.895-.616-1.852-1.122-2.858-1.535-.156-.065-.317-.122-.48-.178l-4.714-5.314c.032-.23.05-.46.057-.69 1.793.73 3.474 1.822 4.927 3.275zm-15.377-3.54c-.004-.005-.01-.01-.017-.015.01-.019.022-.037.033-.054-2.133.711-4.136 1.914-5.83 3.609-.182.181-.358.367-.528.554-.26.455-.497.92-.706 1.403-.24.555-.453 1.122-.665 1.689l-.081.217c-.038.1-.057.214-.062.325l3.568 2.112c1.379-.906 2.843-1.662 4.344-2.344.234-.107.474-.202.714-.297.133-.052.265-.104.397-.159l.027-.01 1.809-5.446c-.924-.65-1.905-1.198-2.982-1.57-.007-.002-.013-.008-.02-.014z" clip-rule="evenodd"/>
    </g>
  </svg>

  <svg viewBox="0 0 33 33">
    <g id="vip" class="img">
      <path fill="#fff" d="M24.645 25.916H6.538V28.2h19.047v-2.285h-.941zM9.37 9.916l-1.308 3.219.845.42.846.42 1.031.512.767-1.105.541-.78.541-.78L9.37 9.915zM23.543 9.916l-3.29 1.941.535.78.536.78.734 1.07 1.093-.549.836-.42.837-.42-1.28-3.182z"/>
      <path fill="#fff" d="M29.8 10.014c-1.353 0-2.47 1.006-2.626 2.301-.012.102-.019.206-.019.31 0 .237.032.466.092.683.083.305.221.588.403.837l-1.88.915-.843.41-.105.05h-.001l-.738.359-2.428 1.181-1.754-2.475-.472-.667-.068-.096-.54-.761-1.813-2.56c.317-.073.614-.203.876-.378.264-.176.495-.399.68-.656.308-.426.489-.948.489-1.51 0-1.441-1.186-2.613-2.644-2.613-1.457 0-2.644 1.172-2.644 2.612 0 .557.178 1.074.48 1.498.184.259.413.483.676.66.261.176.556.308.873.383l-1.792 2.528-.54.762-.115.163-.424.6-1.779 2.51-2.357-1.146-.776-.378-.066-.032-.843-.41-2.047-.995c.21-.23.379-.499.495-.792.116-.293.18-.612.18-.945v-.005c0-1.44-1.185-2.612-2.643-2.612-1.458 0-2.644 1.172-2.644 2.612 0 1.321.998 2.417 2.289 2.589.116.015.234.023.355.023.213 0 .42-.025.62-.072.312-.075.603-.204.86-.377l2.946 8.184.333.926h17.107l.333-.926 2.887-8.02c.248.192.531.34.839.435.248.078.513.119.787.119.056 0 .112-.002.167-.006 1.38-.085 2.477-1.222 2.477-2.606 0-1.44-1.186-2.612-2.644-2.612z"/>
    </g>
  </svg>

  <svg viewBox="0 0 33 33">
    <g id="others" class="img">
      <path d="M19.8 4.957c-1.133-.8-2.6-.4-3.533.734-1-1.134-2.467-1.467-3.533-.667-1.334 1.067-1.2 3.333-.267 4.6.533.733 1.267 1.2 1.933 1.733a15.812 15.812 0 0 1 1.934 1.667c.6-.6 1.2-1.2 1.866-1.733.667-.534 1.334-1.067 1.867-1.8 1-1.267 1.133-3.534-.267-4.534zM18.467 22.557c-.2 0-.4 0-.534.067.2-.333.334-.733.334-1.2 0-1.267-1.067-2.267-2.267-2.267-1.267 0-2.267 1.067-2.267 2.267 0 .467.134.867.334 1.2-.2-.067-.4-.067-.534-.067-1.266 0-2.266 1.067-2.266 2.267 0 1.267 1.066 2.267 2.266 2.267 1 0 1.867-.667 2.134-1.6h.066c-.133.6-.333 1.4-.6 2-.533 1.333-1.2 1.8-1.2 1.8S15 28.957 16 28.957c1 0 2.133.267 2.133.267s-.666-.533-1.2-1.8c-.266-.667-.533-1.4-.666-2h.066c.267.933 1.2 1.6 2.2 1.6 1.267 0 2.267-1.067 2.267-2.267s-1.067-2.266-2.333-2.2zM30 14.29c-.466-.6-1.133-1.066-1.8-1.533-.666-.466-1.2-.933-1.8-1.466-.6.533-1.2 1-1.8 1.466-.666.467-1.333.934-1.8 1.534-.933 1.133-1 3.066.267 3.933.933.667 2.2.4 3.133-.333-.133.6-.4 1.4-.666 2.066-.6 1.4-1.267 1.934-1.267 1.934s1.133-.334 2.2-.334c1.067 0 2.2.334 2.2.334S28 21.357 27.4 19.957c-.266-.666-.533-1.4-.666-2.066.933.8 2.133 1 3.133.333 1.133-.867 1-2.8.133-3.933zM7.067 10.757c-1 2.734-3 4.667-5.734 5.734 2.934 1.266 4.867 3.2 5.734 5.733.933-2.533 2.8-4.467 5.733-5.733-2.733-1.134-4.667-3-5.733-5.734z" fill="#fff"/>
    </g>
</svg>
  
  <svg viewBox="0 0 23 15.44" fill="#FFFFFF">
    <g id="menu" class="img">
      <path d="M22.16,7H1.84a1.34,1.34,0,1,1,0-2.67H22.16a1.34,1.34,0,1,1,0,2.67" transform="translate(-0.5 -4.28)"/>
      <path d="M22.16,13.34H1.84a1.34,1.34,0,0,1,0-2.68H22.16a1.34,1.34,0,0,1,0,2.68" transform="translate(-0.5 -4.28)"/>
      <path d="M22.16,19.72H1.84a1.34,1.34,0,1,1,0-2.67H22.16a1.34,1.34,0,1,1,0,2.67" transform="translate(-0.5 -4.28)"/>
    </g>
  </svg>
  
  <svg viewBox="0 0 80 40">
    <g id="logo-mobile-laliga" class="img">
      <path fill="#fff" d="M45.378.182h-.265v38.96h.265V.183zM65.521 10.473c-2.57 0-4.662 2.052-4.662 4.571 0 2.52 2.093 4.572 4.662 4.572 2.57 0 4.662-2.052 4.662-4.572.027-2.52-2.066-4.571-4.662-4.571z"/>
      <path fill="#92278F" d="M55.667 6.966c-.027.052-.027.104 0 .156.026.026.026.052.053.052l4.953 2.831c.053.026.106.026.16 0 .026 0 .026-.026.052-.052v-.026c.45-.805 1.086-1.506 1.908-2.052.82-.571 1.695-.909 2.622-1.065h.027c.026 0 .026 0 .053-.026.052-.026.079-.104.052-.156l-1.06-5.506c0-.026-.026-.052-.026-.052-.026-.052-.079-.078-.159-.052h-.026c-1.748.312-3.47.987-5.033 2.078-1.483.987-2.702 2.338-3.576 3.87z"/>
      <path fill="#005BAA" d="M52.832 17.616c.027.051.08.077.133.103.026 0 .053 0 .08-.026l5.35-2.026c.053-.025.106-.078.106-.13v-.077c-.344-.858-.503-1.767-.45-2.754.053-.96.344-1.87.794-2.675v-.026c0-.026.027-.026.027-.052 0-.052-.026-.13-.08-.156l-5.033-2.65c-.026 0-.053-.025-.08-.025-.052 0-.105.026-.132.078-.847 1.532-1.377 3.273-1.51 5.143-.158 1.87.133 3.662.795 5.273z"/>
      <path fill="#009BDF" d="M59.614 26.369c.053.026.106 0 .159-.052.026-.026.026-.052.026-.078l1.696-5.35c.026-.053 0-.13-.053-.157-.027-.026-.027-.026-.053-.026h-.027c-.9-.26-1.748-.7-2.464-1.35-.741-.65-1.298-1.429-1.642-2.26v-.026c0-.026-.026-.026-.026-.052-.053-.052-.106-.052-.16-.026l-5.244 2.234c-.027 0-.053.026-.053.052-.027.052-.053.104-.027.156.689 1.61 1.775 3.09 3.179 4.337 1.378 1.221 2.993 2.104 4.689 2.598z"/>
      <path fill="#00A651" d="M70.766 26.628c.053-.026.08-.077.053-.155 0-.026-.026-.052-.026-.078l-3.18-4.65c-.026-.052-.105-.078-.158-.052-.027 0-.027 0-.053.026 0 0-.027 0-.027.026-.768.52-1.642.883-2.622 1.04-.98.155-1.934.077-2.835-.157h-.079c-.053 0-.106.052-.133.104l-1.51 5.403v.078c0 .052.053.104.107.13h.026c1.722.467 3.576.597 5.43.285 1.855-.311 3.55-1.012 5.007-2z"/>
      <path fill="#FFF200" d="M78.05 18.29c0-.051-.026-.103-.079-.129-.026-.026-.053-.026-.08-.026l-5.695-.442c-.052 0-.105.026-.158.078 0 .026-.027.026-.027.052v.026c-.053.91-.318 1.818-.795 2.676-.476.857-1.139 1.558-1.88 2.078h-.027c-.026 0-.026.025-.053.051-.026.052-.026.13 0 .156l3.39 4.52.054.052c.053.026.106.026.159 0 1.43-1.013 2.702-2.364 3.602-4 .954-1.61 1.457-3.35 1.59-5.091z"/>
      <path fill="#F68B1F" d="M75.879 7.486c-.053-.026-.106-.052-.16-.026-.026 0-.052.026-.052.052l-3.947 4.077c-.027.053-.053.104-.027.156 0 .026.027.026.027.052l.026.026c.689.624 1.245 1.377 1.616 2.286.37.91.503 1.844.45 2.753v.078c.027.052.08.104.133.104l5.722.26c.026 0 .053 0 .08-.026.052-.026.079-.078.105-.13v-.026c.106-1.74-.185-3.559-.9-5.273-.69-1.688-1.775-3.169-3.073-4.363z"/>
      <path fill="#ED1C24" d="M65.892 2.473c-.053 0-.106.052-.133.104v.077l.848 5.559c0 .052.053.104.106.13h.079c.928-.156 1.881-.104 2.835.182.954.26 1.801.727 2.49 1.35h.026c.027 0 .027.026.053.026.053.026.133 0 .16-.052l3.735-4.234c.026-.025.026-.025.026-.051.026-.052 0-.104-.053-.156-1.324-1.143-2.967-2.052-4.795-2.572-1.775-.545-3.629-.65-5.377-.363z"/>
      <path fill="#000" d="M65.521 10.395c-2.622 0-4.742 2.078-4.742 4.65 0 2.57 2.12 4.648 4.742 4.648 2.623 0 4.742-2.078 4.742-4.649s-2.12-4.65-4.742-4.65zm3.444 7.272c.08-.181.106-.415.106-.571-.106.078-.186.182-.318.26-.318.233-.689.39-1.007.441l-.9-.987.662 1.143c-.186.286-.424.572-.768.831-.106.078-.212.156-.345.208.16.026.398.078.583.078-.45.156-.954.26-1.457.26-.503 0-1.007-.078-1.457-.26.212 0 .424-.026.61-.078-.107-.052-.239-.13-.345-.208-.318-.233-.583-.52-.768-.805l.662-1.143-.927.987c-.344-.078-.689-.233-1.007-.441-.106-.078-.212-.156-.318-.26.027.182.053.39.106.571-.582-.727-.927-1.636-.927-2.623v-.13c.053.208.16.39.265.546.027-.13.053-.26.106-.39.133-.39.318-.701.556-.961l1.298.26v-.026l-1.218-.546c-.027-.337 0-.701.132-1.09.053-.13.08-.26.16-.364-.16.078-.398.182-.557.311.583-.83 1.43-1.454 2.437-1.74-.185.104-.344.286-.477.416.133-.026.265-.026.398-.026.397 0 .794.078 1.112.233l.16 1.3h.026l.159-1.3c.317-.13.688-.233 1.112-.233.132 0 .265 0 .397.026-.132-.13-.291-.312-.476-.416 1.006.286 1.88.91 2.437 1.74-.16-.13-.398-.233-.557-.311.053.104.106.233.16.363.132.364.158.754.132 1.091l-1.219.546v.026l1.298-.26c.239.26.424.571.557.961.052.13.079.26.105.39.08-.156.212-.364.265-.546v.13c-.026.961-.37 1.87-.953 2.597z"/>
      <path fill="#000" d="M63.614 14.42l.742 2.208h2.357l.742-2.207-1.934-1.351-1.907 1.35z"/>
      <path fill="#fff" d="M51.8 31.875v6.234h3.628v-1.403h-1.986v-4.83h-1.643zM58.475 34.42c-.742 0-1.193.546-1.193 1.195 0 .702.45 1.273 1.166 1.273.689 0 1.245-.493 1.245-1.22-.026-.754-.556-1.247-1.218-1.247zm-2.755 1.221c0-1.402 1.06-2.623 2.463-2.623.61 0 1.007.208 1.457.597v-.519h1.51v5.013h-1.536v-.494s-.557.598-1.51.598c-1.43.026-2.384-.961-2.384-2.572zM65.707 38.109H62.05v-6.234h1.642v4.831h2.014v1.403zM67.932 38.109h-1.537v-4.987h1.537v4.987zm-1.696-6.26c0-.493.424-.909.927-.909.504 0 .928.39.928.91 0 .519-.424.934-.954.934-.503-.026-.9-.415-.9-.935zM71.137 34.317c-.715 0-1.06.571-1.06 1.195 0 .649.398 1.168 1.06 1.168.768 0 1.192-.597 1.192-1.168-.027-.65-.397-1.195-1.192-1.195zm-2.57 1.195c0-1.351.875-2.494 2.199-2.494.636 0 1.086.208 1.51.65v-.572h1.457v4.39c0 1.532-1.192 2.337-2.596 2.337-1.245 0-2.331-.623-2.49-1.74h1.722c.212.338.424.416.82.416.53 0 1.034-.234 1.034-.78v-.363c-.291.26-.848.571-1.457.571-1.298.026-2.199-1.039-2.199-2.415zM77.203 34.42c-.742 0-1.192.546-1.192 1.195 0 .702.45 1.273 1.166 1.273.688 0 1.245-.493 1.245-1.22-.027-.754-.557-1.247-1.219-1.247zm-2.755 1.221c0-1.402 1.06-2.623 2.464-2.623.609 0 1.006.208 1.457.597v-.519h1.51v5.013h-1.537v-.494s-.556.598-1.51.598c-1.43.026-2.384-.961-2.384-2.572zM12.696 30.94c.8 0 1.39.578 1.39 1.321s-.59 1.321-1.39 1.321c-.8 0-1.39-.578-1.39-1.32 0-.744.59-1.322 1.39-1.322zm0 2.105c.42 0 .8-.33.8-.784s-.337-.784-.8-.784c-.421 0-.8.33-.8.784 0 .413.379.784.8.784zM14.885 30.982h1.6v.495h-1.01v.537h.926v.495h-.926v.95h-.632V30.98h.042zM17.243 30.982h1.6v.495h-1.01v.537h.926v.495h-.927v.95h-.631V30.98h.042zM20.232 30.982v2.559h-.631v-2.56h.631zM21.032 32.261c0-.743.59-1.32 1.39-1.32.336 0 .673.123.926.288l-.295.454c-.169-.124-.337-.206-.59-.206-.42 0-.8.33-.8.784s.337.784.8.784c.253 0 .464-.123.632-.247l.337.454c-.253.206-.59.33-.926.33-.884-.041-1.474-.578-1.474-1.32zM24.737 30.982v2.559h-.631v-2.56h.631zM27.01 30.982l.885 2.559h-.632l-.168-.537h-.842l-.169.537h-.631l.884-2.56h.674zm-.336.619l-.295.908h.59l-.295-.908zM28.568 30.982h.632v2.022h.968v.537h-1.6v-2.56zM1.181 35.508c.547 0 .926.33.926.826 0 .371-.21.62-.505.743l.59.95h-.674l-.505-.867H.844v.867H.255v-2.56h.926v.041zm-.337.454v.702h.295c.253 0 .379-.165.379-.371 0-.207-.126-.372-.379-.372H.844v.041zM2.865 35.508h1.642v.496h-1.01v.495h.926v.495h-.926v.537h1.052v.495H2.865v-2.518zM5.854 36.788c0 .454.337.784.8.784.127 0 .253-.04.337-.082v-.413h-.505v-.454h1.137v1.156c-.253.206-.59.33-.969.33-.8 0-1.389-.578-1.389-1.321s.59-1.321 1.39-1.321c.336 0 .673.124.926.289l-.295.454c-.169-.124-.337-.206-.59-.206-.505-.042-.842.33-.842.784zM9.054 35.508v2.56h-.631v-2.56h.631zM11.243 35.467c.8 0 1.39.578 1.39 1.321s-.59 1.321-1.39 1.321c-.8 0-1.389-.578-1.389-1.321s.59-1.321 1.39-1.321zm0 2.105c.422 0 .8-.33.8-.784s-.336-.784-.8-.784c-.42 0-.8.33-.8.784.043.413.38.784.8.784zM13.433 35.508h.631l.884 1.61v-1.61h.59v2.56h-.674l-.884-1.61v1.61h-.59v-2.56h.043zM17.77 35.508l.883 2.56h-.631l-.169-.537h-.842l-.168.537h-.632l.885-2.56h.673zm-.338.62l-.294.908h.589l-.295-.909zM19.37 35.508H20v2.023h1.011v.537h-1.6v-2.56h-.042zM23.748 37.2v.868h-.632v-2.56h.968c.548 0 .927.33.927.826 0 .495-.38.825-.927.825h-.336v.042zm.294-1.238h-.294v.743h.294c.253 0 .38-.165.38-.371 0-.207-.17-.372-.38-.372zM27.116 35.508l.884 2.56h-.632l-.168-.537h-.842l-.169.537h-.631l.884-2.56h.674zm-.337.62l-.295.908h.59l-.295-.909zM29.642 35.508c.547 0 .926.33.926.826 0 .371-.21.62-.505.743l.59.95h-.674l-.506-.867h-.168v.867h-.59v-2.56h.927v.041zm-.337.454v.702h.295c.252 0 .379-.165.379-.371 0-.207-.127-.372-.38-.372h-.294v.041zM31.789 36.004h-.632v-.537h1.895v.537h-.632v2.023h-.631v-2.023zM33.768 35.508h.631l.884 1.61v-1.61h.59v2.56h-.632l-.884-1.61v1.61h-.59v-2.56zM36.757 35.508h1.642v.496h-1.053v.495h.927v.495h-.927v.537H38.4v.495h-1.684v-2.518h.042zM40.21 35.508c.547 0 .925.33.925.826 0 .371-.21.62-.505.743l.59.95h-.674l-.505-.867h-.168v.867h-.59v-2.56h.926v.041zm-.337.454v.702h.294c.253 0 .38-.165.38-.371 0-.207-.127-.372-.38-.372h-.294v.041z"/>
      <path fill="#CAAB72" d="M35.513 2.824H5.962v25.974h29.551V2.824z"/>
      <path fill="url(#logo-mobile-laliga_paint0_radial)" d="M33.982 4.264H7.462v23.064h26.52V4.264z"/>
      <path fill="#fff" d="M16.895 15.689v9.373c0 .214-.062.336-.25.336-.187 0-.25-.122-.25-.336v-1.226h-.468c-.438 0-2.187 1.44-2.624 1.716-.75-.43-1.687-.858-2.406-1.103-.406.367-.687.613-.874.796-.188.184-.25.276-.344.276-.125 0-.281-.153-.281-.276 0-.122.281-.428 1.624-1.776.906-.92 1.281-2.052 1.281-3.737 0-2.818-1.218-5.207-2.624-5.207-.469 0-.687.184-.78.643-.032.245-.126.306-.25.306-.22 0-.313-.337-.313-.918 0-1.287.906-2.328 2.03-2.328.969 0 1.375.765 1.937.704v-1.899c0-.49-.187-.919-.531-1.194-.312-.245-1.937-1.348-2.53-1.348-.219 0-.313.092-.438.092-.093 0-.093-.03-.093-.062 0-.091.062-.122.218-.306l2.062-2.021c.094-.092.156-.123.25-.123.687 0 3.53 2.236 3.842 2.236.531 0 3.405-2.175 4.186-2.175.219 0 .438.184 2 1.44.25.214.78.674 1.249.95.437.245.437.306.437.796.25-.061.531-.245 2.187-1.562.469-.398 1.843-1.501 1.968-1.501s1.28.46 2.968 1.164c.5.214.562.245.562.582v13.354c0 .43.062.582.25.766.78.674 1.25.95 1.5.95.093 0 .187-.031.25-.092.124-.184.155-.215.25-.215.093 0 .155.092.155.215 0 .153-1.187 1.623-2.374 2.542-.718-.245-2-1.103-2.686-1.838-.25-.245-.282-.306-.282-.765V13.33c0-1.102.344-1.868 1.656-3.583.687-.858.719-1.134.594-1.134-.094 0-1.687 1.134-2 1.317-1.405-.796-1.843-1.041-2.592-1.041-.406 0-.688.214-.688.46v15.896c0 .215-.093.368-.25.368-.124 0-.218-.123-.218-.337v-1.195c-1.125.184-2.03 1.47-2.28 1.47-.282 0-2-2.02-2-2.174v-7.688h-3.03zm-.468-6.586c0-.52-.063-.704-.157-.704-.25 0-1.062.52-1.062.704v7.168c0 3.522-.437 3.92-1.374 4.87-.438.429-.531.551-.844.919.531.766 2.374 1.103 3.405 1.041V9.103h.032zm.468 4.136h3.061v-2.85c0-.55-1.968-2.02-2.624-2.02-.28 0-.437.183-.437.52v4.35zm7.341-3.645c0-.062-.031-.092-.094-.092-.093 0-.218.06-.28.092l-.625.367c-.344.214-.438.306-.438.46v2.603c0 .184.25.306.438.306h1.03l-.03-3.736zm0 6.064h-1c-.28 0-.437.215-.437.613v5.299c0 1.041.438 1.531 1.406 1.623v-7.535h.031z"/>
      <defs>
          <radialGradient id="logo-mobile-laliga_paint0_radial" cx="0" cy="0" r="1" gradientTransform="matrix(47.0623 0 0 23.0434 21.293 5.495)" gradientUnits="userSpaceOnUse">
              <stop stop-color="#C22127"/>
              <stop offset=".505" stop-color="#BF2029"/>
              <stop offset="1" stop-color="#C92127"/>
          </radialGradient>
      </defs>
    </g>
  </svg>
  <!-- End sprites -->
</svg>