<svg width="32" height="32" viewBox="0 0 32 32" fill="none" xmlns="http://www.w3.org/2000/svg">
<path fill-rule="evenodd" clip-rule="evenodd" d="M4.10928 2.56298C2.42939 2.8886 1.33154 4.51439 1.65717 6.19428L5.63695 26.7258C5.96257 28.4057 7.58836 29.5036 9.26825 29.1779L9.59277 29.115C9.58958 29.0443 9.58796 28.9732 9.58796 28.9017V7.98799C9.58796 5.42125 11.6687 3.3405 14.2354 3.3405H20.829L20.6678 2.50931C20.3422 0.829416 18.7164 -0.268432 17.0365 0.0571936L4.10928 2.56298ZM5.18998 6.70635L4.99492 6.74416L4.62393 4.83022L3.79105 4.99166L4.67545 9.55422L5.50832 9.39278L5.11961 7.3874L5.38278 7.33638C5.47773 7.31798 5.55346 7.31639 5.60995 7.33161C5.66603 7.34473 5.72001 7.37461 5.77189 7.42127L7.36461 8.85957C7.40823 8.90782 7.45663 8.94206 7.50981 8.96229C7.56465 8.98001 7.64161 8.97927 7.74069 8.96006L8.47758 8.81723L6.50951 6.98385C6.44405 6.92238 6.37898 6.87392 6.31428 6.83848C6.25165 6.80264 6.18383 6.7787 6.11083 6.76668C6.15548 6.73185 6.1956 6.69027 6.23121 6.64193C6.26681 6.59359 6.30265 6.53539 6.33871 6.46733L7.47924 4.28002L6.76092 4.41926C6.67423 4.43606 6.60463 4.46373 6.55213 4.50226C6.50129 4.53829 6.45659 4.59494 6.41802 4.67221L5.49129 6.504C5.46351 6.55955 5.42605 6.60388 5.37893 6.63701C5.3314 6.66803 5.26842 6.69115 5.18998 6.70635Z" fill="white"/>
<path d="M15.8053 8.65025C15.8053 8.52521 15.7862 8.41395 15.748 8.31647C15.7098 8.21686 15.6558 8.13315 15.5858 8.06534C15.5158 7.99752 15.432 7.9456 15.3345 7.90957C15.239 7.87355 15.1341 7.85553 15.0195 7.85553C14.9008 7.85553 14.7937 7.87567 14.6983 7.91593C14.6028 7.95408 14.5212 8.00812 14.4533 8.07805C14.3876 8.14799 14.3367 8.2317 14.3006 8.32918C14.2646 8.42455 14.2466 8.52945 14.2466 8.64389C14.2466 8.90032 14.3123 9.09635 14.4438 9.23198C14.5774 9.36549 14.7661 9.43225 15.01 9.43225C15.1372 9.43225 15.2496 9.41211 15.3472 9.37185C15.4469 9.33158 15.5306 9.27648 15.5985 9.20655C15.6664 9.13661 15.7173 9.05396 15.7512 8.9586C15.7872 8.86323 15.8053 8.76045 15.8053 8.65025Z" fill="white"/>
<path fill-rule="evenodd" clip-rule="evenodd" d="M14.2354 4.88966C12.5243 4.88966 11.1371 6.27683 11.1371 7.98799V28.9017C11.1371 30.6128 12.5243 32 14.2354 32H27.4033C29.1145 32 30.5016 30.6128 30.5016 28.9017V7.98799C30.5016 6.27683 29.1145 4.88966 27.4033 4.88966H14.2354ZM20.2992 14.6723C20.5006 14.4858 20.6781 14.3214 20.8194 14.1846C20.9607 14.3215 21.138 14.4857 21.3395 14.6723C22.6774 15.9113 25.0796 18.1359 25.0796 19.8778C25.0796 21.1559 24.0295 21.9111 23.0395 21.9111C22.0494 21.9111 21.4494 21.2721 21.2994 21.0106C21.1794 20.8363 21.0294 20.7492 21.0294 20.9816C21.0294 21.9667 21.579 22.4891 22.337 23.2095C22.4284 23.2963 22.5227 23.3859 22.6194 23.4796H19.0193C19.116 23.386 19.2103 23.2963 19.3016 23.2096C20.0596 22.4892 20.6094 21.9667 20.6094 20.9816C20.6094 20.7492 20.4593 20.8363 20.3393 21.0106C20.1893 21.2721 19.5893 21.9111 18.5993 21.9111C17.6092 21.9111 16.5592 21.1559 16.5592 19.8778C16.5592 18.1359 18.9614 15.9113 20.2992 14.6723ZM14.7333 10.0267C14.5742 10.0267 14.4183 9.99914 14.2656 9.94404C14.113 9.88894 13.9762 9.80629 13.8553 9.69609C13.7365 9.58377 13.6411 9.44602 13.569 9.28284C13.4969 9.11754 13.4608 8.92469 13.4608 8.70429C13.4608 8.49872 13.499 8.30587 13.5754 8.12574C13.6517 7.9456 13.7588 7.78772 13.8966 7.65209C14.0345 7.51646 14.1999 7.40943 14.3929 7.33102C14.5859 7.25261 14.799 7.21341 15.0323 7.21341C15.2677 7.21341 15.4787 7.25049 15.6653 7.32466C15.854 7.39884 16.0141 7.50268 16.1456 7.63619C16.2792 7.7697 16.381 7.92971 16.451 8.1162C16.5231 8.30269 16.5592 8.5072 16.5592 8.72972C16.5592 8.87171 16.5464 9.00628 16.521 9.13343C16.4977 9.26059 16.4627 9.3835 16.416 9.50218C16.3715 9.61874 16.3174 9.73318 16.2538 9.8455C16.1902 9.9557 16.1191 10.067 16.0407 10.1793L14.9877 11.6797C14.9517 11.7306 14.8976 11.774 14.8255 11.81C14.7555 11.8439 14.6749 11.8609 14.5837 11.8609H13.8617L15.2899 10.0776C15.326 10.033 15.3599 9.98961 15.3917 9.94722C15.4235 9.90484 15.4543 9.86245 15.484 9.82007C15.3779 9.88788 15.2613 9.9398 15.1341 9.97583C15.0068 10.0097 14.8732 10.0267 14.7333 10.0267Z" fill="white"/>
</svg>
