<svg id="Layer_1" data-name="Layer 1" xmlns="http://www.w3.org/2000/svg" xmlns:xlink="http://www.w3.org/1999/xlink" viewBox="0 0 40 40"><defs><style>.cls-1{fill:url(#linear-gradient);}.cls-2{fill:url(#linear-gradient-2);}.cls-3{fill:url(#radial-gradient);}.cls-4,.cls-5{fill:#630b0b;}.cls-4{opacity:0.65;}.cls-5{opacity:0.81;}.cls-6{fill:url(#radial-gradient-2);}.cls-7{fill:none;}</style><linearGradient id="linear-gradient" x1="20" y1="3.66" x2="20" y2="40.31" gradientUnits="userSpaceOnUse"><stop offset="0" stop-color="#fecf82"/><stop offset="0.22" stop-color="#fecf82"/><stop offset="0.26" stop-color="#fecf82"/><stop offset="0.36" stop-color="#fccd81"/><stop offset="0.39" stop-color="#f7c67c"/><stop offset="0.42" stop-color="#edbb73"/><stop offset="0.44" stop-color="#deaa67"/><stop offset="0.46" stop-color="#cc9457"/><stop offset="0.48" stop-color="#b57943"/><stop offset="0.48" stop-color="#af723e"/><stop offset="1" stop-color="#fecf82"/></linearGradient><linearGradient id="linear-gradient-2" x1="20" y1="5.16" x2="20" y2="38.44" gradientUnits="userSpaceOnUse"><stop offset="0" stop-color="#d6b26d"/><stop offset="0.17" stop-color="#e1c18b"/><stop offset="0.4" stop-color="#eed3ad"/><stop offset="0.62" stop-color="#f7dfc5"/><stop offset="0.83" stop-color="#fce6d4"/><stop offset="0.99" stop-color="#fee9d9"/></linearGradient><radialGradient id="radial-gradient" cx="20.73" cy="6.89" r="59.04" gradientTransform="translate(0 3.47) scale(1 0.5)" gradientUnits="userSpaceOnUse"><stop offset="0" stop-color="#f95346"/><stop offset="0.19" stop-color="#dc3631"/><stop offset="0.38" stop-color="#c62021"/><stop offset="0.51" stop-color="#be181b"/><stop offset="1" stop-color="#c7120c"/></radialGradient><radialGradient id="radial-gradient-2" cx="19.7" cy="11.67" r="31.15" gradientUnits="userSpaceOnUse"><stop offset="0" stop-color="#fff"/><stop offset="0.18" stop-color="#fafafb"/><stop offset="0.38" stop-color="#ededee"/><stop offset="0.58" stop-color="#d6d7d8"/><stop offset="0.8" stop-color="#b7b8ba"/><stop offset="1" stop-color="#939598"/></radialGradient></defs><title>Msports</title><rect class="cls-1" x="1.46" y="3.5" width="37.08" height="33"/><rect class="cls-2" x="3.02" y="5.02" width="33.96" height="29.97"/><rect class="cls-3" x="3.37" y="5.34" width="33.25" height="29.32"/><path class="cls-4" d="M3.37,5.34V34.66H36.63V5.34Zm33,29.15H3.66V5.69H36.34Z"/><path class="cls-5" d="M15.21,20.57V32.49c0,.26-.07.42-.3.42s-.33-.16-.33-.42V30.91H14c-.55,0-2.75,1.84-3.27,2.2a17.91,17.91,0,0,0-3-1.41c-.49.46-.85.79-1.08,1s-.33.36-.42.36a.42.42,0,0,1-.37-.36c0-.17.37-.56,2-2.27a6.21,6.21,0,0,0,1.61-4.76c0-3.58-1.54-6.63-3.31-6.63a.85.85,0,0,0-1,.82c0,.29-.16.39-.29.39s-.4-.43-.4-1.15a2.77,2.77,0,0,1,2.56-2.95c1.21,0,1.7,1,2.42.88V14.66a2,2,0,0,0-.69-1.55c-.39-.33-2.42-1.71-3.17-1.71a5.47,5.47,0,0,0-.56.1c-.1,0-.13,0-.13-.1s.06-.16.26-.39L7.78,8.45c.13-.1.19-.17.32-.17.89,0,4.42,2.83,4.85,2.83.68,0,4.29-2.76,5.23-2.76.27,0,.53.23,2.52,1.84a17.68,17.68,0,0,0,1.57,1.21c.53.33.56.4.56,1,.33-.06.69-.33,2.75-2A30,30,0,0,1,28,8.51c.16,0,1.6.6,3.73,1.48.62.26.72.33.72.72v17c0,.56.06.76.29,1,1,.85,1.57,1.18,1.9,1.18A.47.47,0,0,0,35,29.7c.16-.23.19-.27.29-.27s.2.14.2.27a13.53,13.53,0,0,1-3,3.21,10.9,10.9,0,0,1-3.37-2.33,1,1,0,0,1-.36-.95V17.48c0-1.41.46-2.36,2.09-4.57.85-1.11.92-1.44.76-1.44s-2.13,1.44-2.52,1.67c-1.77-1-2.3-1.34-3.24-1.34-.53,0-.89.26-.89.59v20.2c0,.26-.13.46-.33.46s-.26-.17-.26-.43V31.11C23,31.34,21.85,33,21.52,33A11.55,11.55,0,0,1,19,30.22V20.57Zm-.59-8.38c0-.66-.07-.88-.2-.88-.29,0-1.34.65-1.34.88v9.1c0,4.5-.53,5-1.7,6.21-.53.55-.66.69-1.05,1.15.69,1,3,1.37,4.29,1.31Zm.59,5.26H19V13.84c0-.7-2.45-2.57-3.27-2.57-.36,0-.55.23-.55.66Zm9.19-4.67c0-.06,0-.1-.13-.1a.87.87,0,0,0-.36.13l-.75.47c-.43.26-.56.39-.56.59v3.28c0,.23.3.39.53.39H24.4Zm0,7.72H23.16c-.36,0-.53.26-.53.76V28c0,1.31.56,1.94,1.77,2Z"/><path class="cls-6" d="M15.21,19.87V31.79c0,.26-.07.43-.3.43s-.33-.17-.33-.43V30.21H14c-.55,0-2.75,1.84-3.27,2.2a17.91,17.91,0,0,0-3-1.41c-.49.46-.85.79-1.08,1s-.33.36-.42.36A.42.42,0,0,1,5.84,32c0-.17.37-.56,2-2.27A6.21,6.21,0,0,0,9.48,25c0-3.58-1.54-6.63-3.31-6.63a.85.85,0,0,0-1,.82c0,.29-.16.39-.29.39s-.4-.43-.4-1.15a2.77,2.77,0,0,1,2.56-3c1.21,0,1.7,1,2.42.88V14a2,2,0,0,0-.69-1.55c-.39-.33-2.42-1.7-3.17-1.7-.27,0-.4.09-.56.09s-.13,0-.13-.09.06-.17.26-.4L7.78,7.75c.13-.1.19-.16.32-.16.89,0,4.42,2.82,4.85,2.82.68,0,4.29-2.76,5.23-2.76.27,0,.53.23,2.52,1.84a17.55,17.55,0,0,0,1.57,1.22c.53.32.56.39.56,1,.33-.06.69-.32,2.75-2A29.45,29.45,0,0,1,28,7.82c.16,0,1.6.59,3.73,1.47.62.27.72.33.72.73V27c0,.55.06.75.29.95,1,.85,1.57,1.18,1.9,1.18A.47.47,0,0,0,35,29c.16-.23.19-.26.29-.26s.2.13.2.26a13.5,13.5,0,0,1-3,3.22,11.08,11.08,0,0,1-3.37-2.33,1,1,0,0,1-.36-1V16.78c0-1.41.46-2.36,2.09-4.56.85-1.12.92-1.45.76-1.45s-2.13,1.45-2.52,1.67c-1.77-1-2.3-1.34-3.24-1.34-.53,0-.89.26-.89.59v20.2c0,.26-.13.46-.33.46s-.26-.17-.26-.43V30.41c-1.41.23-2.55,1.87-2.88,1.87A11.55,11.55,0,0,1,19,29.52V19.87Zm-.59-8.38c0-.65-.07-.88-.2-.88-.29,0-1.34.65-1.34.88v9.1c0,4.5-.53,5-1.7,6.21-.53.56-.66.69-1.05,1.15.69.95,3,1.38,4.29,1.31Zm.59,5.26H19V13.14c0-.7-2.45-2.57-3.27-2.57-.36,0-.55.23-.55.66Zm9.19-4.67c0-.06,0-.09-.13-.09a.75.75,0,0,0-.36.13l-.75.46c-.43.26-.56.39-.56.59v3.28c0,.23.3.4.53.4H24.4Zm0,7.72H23.16c-.36,0-.53.27-.53.76v6.73c0,1.31.56,1.94,1.77,2Z"/><rect class="cls-7" width="40" height="40"/><rect class="cls-7" width="40" height="40"/></svg>