<svg xmlns="http://www.w3.org/2000/svg" width="20" height="21" fill="none" viewBox="0 0 20 21">
    <path fill="#FFCD00" d="M5.886 13.975L4.23 12.03l-1.656 1.945L4.23 15.92l1.656-1.945zM11.727 13.975L10.07 12.03l-1.656 1.945 1.656 1.945 1.656-1.945zM17.568 13.975l-1.656-1.945-1.656 1.945 1.656 1.945 1.656-1.945z"/>
    <path fill="#FFCD00" fill-rule="evenodd" d="M12.148 7.825h5.58c1.105 0 2 .895 2 2v8.212c0 1.105-.895 2-2 2H2.438c-1.105 0-2-.895-2-2V9.825c0-1.105.895-2 2-2h9.71zM2.206 18.267h4.071V9.595h-4.07v8.672zm9.912 0h-4.07V9.595h4.07v8.672zm1.77 0h4.07V9.595h-4.07v8.672z" clip-rule="evenodd"/>
    <path fill="#FFCD00" d="M8.397 5.366l1.714-.901 1.715.901-.328-1.909 1.387-1.352-1.916-.278L10.112.09l-.858 1.737-1.916.278 1.387 1.352-.328 1.91zM13.812 5.609l-.22 1.356 1.158-.64 1.159.64-.222-1.356.938-.961-1.296-.198-.579-1.235-.58 1.235-1.295.198.937.96zM4.216 6.965l1.159-.64 1.159.64-.221-1.356.937-.961-1.296-.198-.579-1.235-.58 1.235-1.295.198.937.96-.22 1.357z"/>
</svg>
