<svg width="32" height="32" viewBox="0 0 32 32" fill="none" xmlns="http://www.w3.org/2000/svg">
<path d="M8.5 9.375C9.93188 9.375 11.1931 8.98413 12.2346 8.48535C11.1772 10.4749 10.5437 12.7778 10.418 15.1528C6.19019 15.6067 2.875 19.1536 2.875 23.5C2.875 28.1526 6.65991 32 11.3125 32C12.7458 32 14.1189 31.5962 15.3503 30.9207C13.4399 29.0479 12.25 26.3804 12.25 23.5C12.25 20.6196 13.4399 18.0146 15.3503 16.1418C14.4021 15.6216 13.3689 15.2678 12.29 15.1304C12.6978 8.50391 17.7021 3.03809 24.1545 2.04077C22.5112 4.3479 21.625 7.10083 21.625 9.99121V15.1572C17.4177 15.6306 14.125 19.1682 14.125 23.5C14.125 28.1526 17.9099 32 22.5625 32C27.2151 32 31 28.1526 31 23.5C31 19.1682 27.7073 15.6306 23.5 15.1572V9.99121C23.5 6.82153 24.7341 3.84155 26.9753 1.60034L28.5757 0H26.3125C21.9092 0 17.9185 1.79565 15.031 4.69214C14.2729 3.96436 11.8423 1.875 8.5 1.875C4.54492 1.875 1.83862 4.82202 1.70776 4.94751L1 5.625L1.70776 6.30249C1.83862 6.42798 4.54492 9.375 8.5 9.375ZM22.5625 20.6875C21.0117 20.6875 19.75 21.9492 19.75 23.5H17.875C17.875 20.9155 19.978 18.8125 22.5625 18.8125V20.6875ZM11.3125 20.6875C9.76172 20.6875 8.5 21.9492 8.5 23.5H6.625C6.625 20.9155 8.72803 18.8125 11.3125 18.8125V20.6875Z" fill="#222939"/>
</svg>
