<svg width="32" height="32" viewBox="0 0 32 32" fill="none" xmlns="http://www.w3.org/2000/svg">
<path fill-rule="evenodd" clip-rule="evenodd" d="M31.772 0.389976C31.798 0.421974 31.816 0.449972 31.836 0.48397C31.932 0.63796 32 0.80795 32 0.999938V26.9983C32 27.1903 31.932 27.3603 31.836 27.5143L31.8338 27.5177C31.8128 27.5502 31.7952 27.5773 31.772 27.6083C31.662 27.7503 31.524 27.8623 31.354 27.9283C31.351 27.9293 31.3485 27.9318 31.346 27.9343C31.3435 27.9368 31.341 27.9393 31.338 27.9403C31.226 27.9783 31.114 27.9983 31 27.9983C30.854 27.9983 30.718 27.9643 30.592 27.9103C30.575 27.9023 30.5599 27.8905 30.5445 27.8785C30.5328 27.8693 30.521 27.86 30.508 27.8523C30.416 27.8003 30.33 27.7383 30.26 27.6603C30.2548 27.6541 30.2486 27.65 30.2427 27.6461C30.2371 27.6425 30.2319 27.6391 30.228 27.6343C27.11 23.8485 22.762 21.3187 18 20.3907V7.60952C22.762 6.68158 27.11 4.14974 30.228 0.363977C30.232 0.359977 30.237 0.357478 30.242 0.354978C30.247 0.352478 30.252 0.349978 30.256 0.345978C30.374 0.213987 30.522 0.117993 30.694 0.0619961C30.7179 0.0544361 30.7411 0.0508453 30.7644 0.0472225C30.7782 0.0450953 30.7919 0.042957 30.806 0.0399975C30.8275 0.0354292 30.8484 0.0295831 30.8692 0.0237797C30.912 0.011799 30.9542 0 31 0C31.0892 0 31.1704 0.0238528 31.2507 0.0474527C31.2605 0.0503188 31.2703 0.0531811 31.28 0.0559965C31.29 0.0589963 31.2995 0.0579964 31.309 0.0569964C31.3185 0.0559965 31.328 0.0549966 31.338 0.0579964C31.341 0.0589963 31.3435 0.0614962 31.346 0.063996C31.3485 0.0664958 31.351 0.0689957 31.354 0.0699956C31.524 0.135991 31.662 0.249984 31.772 0.389976ZM16 7.89746V20.1007C15.8747 20.089 15.7497 20.0743 15.6247 20.0596C15.4084 20.0342 15.192 20.0088 14.974 19.9987H12.318L15.674 26.7123C16.066 27.4542 15.92 28.4122 15.306 29.0261L12.904 31.408C12.54 31.788 12.032 32 11.498 32C11.366 32 11.232 31.986 11.098 31.958C10.422 31.822 9.872 31.356 9.626 30.714L5.606 19.9987H5C4.448 19.9987 4 19.5507 4 18.9988V17.9988H1C0.448 17.9988 0 17.5509 0 16.9989V10.9993C0 10.4473 0.448 9.99933 1 9.99933H4V8.99939C4 8.44743 4.448 7.99945 5 7.99945H14.964C15.1842 7.98933 15.402 7.964 15.6199 7.93865C15.7464 7.92393 15.8729 7.90921 16 7.89746Z" fill="#222939"/>
</svg>
