<svg width="32" height="32" viewBox="0 0 32 32" fill="none" xmlns="http://www.w3.org/2000/svg">
<path fill-rule="evenodd" clip-rule="evenodd" d="M14.2416 1.67906C14.9227 1.03665 15.5221 0.471212 16 0C16.4778 0.471212 17.0773 1.03665 17.7584 1.67906C22.2805 5.94455 30.4 13.6032 30.4 19.6C30.4 24 26.8507 26.6 23.5042 26.6C20.1577 26.6 18.1295 24.4 17.6225 23.5C17.2169 22.9 16.7098 22.6 16.7098 23.4C16.7098 26.7915 18.5677 28.5899 21.1299 31.0701C21.4386 31.3688 21.7574 31.6775 22.0845 32H16H9.91547C10.2425 31.6775 10.5614 31.3688 10.87 31.0701C13.4323 28.5899 15.2901 26.7915 15.2901 23.4C15.2901 22.6 14.7831 22.9 14.3774 23.5C13.8704 24.4 11.8422 26.6 8.49575 26.6C5.14927 26.6 1.59998 24 1.59998 19.6C1.59998 13.6032 9.71944 5.94455 14.2416 1.67906ZM13.7747 10.3287C13.4754 10.2244 13.1453 10.1722 12.7847 10.1722C12.4384 10.1722 12.1138 10.2192 11.8108 10.3131C11.5114 10.4035 11.2445 10.541 11.0101 10.7253C10.7792 10.9062 10.5863 11.1341 10.4312 11.4089C10.2761 11.6803 10.1715 11.9969 10.1174 12.3587L10.8207 12.4787C10.8856 12.4891 10.9452 12.4943 10.9993 12.4943C11.1219 12.4943 11.2229 12.4665 11.3022 12.4108C11.3816 12.3517 11.4411 12.256 11.4808 12.1238C11.5637 11.8594 11.708 11.649 11.9136 11.4924C12.1228 11.3359 12.3879 11.2576 12.7089 11.2576C12.882 11.2576 13.0371 11.282 13.1742 11.3307C13.3149 11.3759 13.4357 11.4455 13.5367 11.5394C13.6377 11.6333 13.7152 11.7499 13.7693 11.889C13.8234 12.0247 13.8505 12.183 13.8505 12.3639C13.8505 12.5622 13.8216 12.7518 13.7639 12.9327C13.7098 13.1101 13.6287 13.2858 13.5205 13.4597C13.4159 13.6337 13.2842 13.8093 13.1255 13.9868C12.9704 14.1642 12.7937 14.3503 12.5953 14.5451L10.2202 16.8412C10.1372 16.9212 10.0759 17.0082 10.0362 17.1021C10.0001 17.196 9.98211 17.2865 9.98211 17.3734V17.8013H15.3491V17.029C15.3491 16.9003 15.3059 16.7977 15.2193 16.7212C15.1363 16.6411 15.0227 16.6011 14.8784 16.6011H12.8712C12.7197 16.6011 12.561 16.615 12.3951 16.6429C12.2292 16.6672 12.0597 16.7038 11.8865 16.7525L13.6503 15.0148C13.8595 14.806 14.0597 14.6008 14.2509 14.399C14.442 14.1972 14.6079 13.9885 14.7486 13.7728C14.8929 13.5571 15.0065 13.331 15.0895 13.0944C15.176 12.8579 15.2193 12.6004 15.2193 12.3221C15.2193 11.9986 15.1598 11.7046 15.0408 11.4402C14.9217 11.1759 14.7558 10.9497 14.543 10.7619C14.3302 10.574 14.0741 10.4296 13.7747 10.3287ZM18.8451 16.836H17.2598V17.8013H21.5881V16.836H20.1814V10.2453H19.0831L16.6972 12.2021L17.1192 12.7605C17.148 12.7987 17.1913 12.8335 17.249 12.8648C17.3103 12.8927 17.3771 12.9066 17.4492 12.9066C17.4961 12.9066 17.543 12.8996 17.5899 12.8857C17.6404 12.8718 17.6891 12.8457 17.7359 12.8074L18.8613 11.8995C18.8505 12.0873 18.8451 12.2665 18.8451 12.4369V16.836Z" fill="white"/>
</svg>
