<svg width="32" height="32" viewBox="0 0 32 32" fill="none" xmlns="http://www.w3.org/2000/svg">
<g clip-path="url(#clip0_64_6852)">
<path d="M27.3117 4.68459C21.0623 -1.56285 10.9317 -1.56135 4.68422 4.68802C-1.56322 10.9374 -1.56172 21.068 4.68766 27.3155C10.937 33.5629 21.0677 33.5614 27.3151 27.312C30.3155 24.3107 32.0006 20.2404 31.9997 15.9966C31.9988 11.7535 30.3125 7.68446 27.3117 4.68459ZM24.2311 22.2878C24.2304 22.2885 24.2297 22.2893 24.229 22.29V22.2846L23.4183 23.09C22.3698 24.1516 20.8429 24.5885 19.3916 24.242C17.9294 23.8506 16.5394 23.2276 15.2743 22.3966C14.0989 21.6455 13.0097 20.7673 12.0263 19.778C11.1215 18.8798 10.3086 17.8935 9.5996 16.834C8.82409 15.6938 8.21028 14.4518 7.77559 13.1433C7.27728 11.606 7.69022 9.91921 8.84228 8.78596L9.7916 7.83665C10.0555 7.57152 10.4844 7.57059 10.7495 7.83452C10.7502 7.83521 10.7509 7.8359 10.7516 7.83665L13.7489 10.834C14.014 11.0979 14.015 11.5268 13.751 11.7918C13.7503 11.7925 13.7497 11.7932 13.7489 11.794L11.9889 13.554C11.4839 14.0535 11.4204 14.8472 11.8396 15.4206C12.4762 16.2943 13.1806 17.1163 13.9463 17.8793C14.8 18.7367 15.728 19.5166 16.7196 20.21C17.2925 20.6096 18.0693 20.5423 18.5649 20.05L20.2662 18.322C20.5302 18.0569 20.959 18.056 21.2241 18.3199C21.2248 18.3206 21.2255 18.3213 21.2262 18.322L24.2289 21.33C24.4941 21.5939 24.495 22.0227 24.2311 22.2878Z" fill="#222939"/>
</g>
<defs>
<clipPath id="clip0_64_6852">
<rect width="32" height="32" fill="white"/>
</clipPath>
</defs>
</svg>
