<svg width="32" height="32" viewBox="0 0 32 32" fill="none" xmlns="http://www.w3.org/2000/svg">
<g clip-path="url(#clip0_64_6818)">
<path fill-rule="evenodd" clip-rule="evenodd" d="M19.2164 7.82511C19.2164 12.1467 16.2379 15.6501 12.5641 15.6501C8.8904 15.6501 5.91203 12.1467 5.91193 7.82511C5.91193 3.50344 6.88976 0 12.5641 0C18.2383 0 19.2164 3.50344 19.2164 7.82511ZM16.207 16.2505C23.9758 17.6085 24.9911 19.7536 25.1142 27.2821C25.122 27.7636 25.1263 27.8469 25.1284 27.8039C25.1282 27.9314 25.128 28.1192 25.128 28.3889C25.128 28.3889 23.2782 32 12.5644 32C1.85064 32 0.00100148 28.3889 0.00100148 28.3889C0.00100148 27.969 0.000400507 27.7282 0 27.598C0.00210266 27.6675 0.00740968 27.6361 0.0189242 27.0375C0.160503 19.707 1.23767 17.5935 8.92179 16.2505C8.92179 16.2505 10.0154 17.6 12.5643 17.6C15.1132 17.6 16.207 16.2505 16.207 16.2505ZM21.7958 14.253C24.7797 14.253 27.1986 11.4076 27.1986 7.89767C27.1986 4.38764 26.4044 1.54224 21.7958 1.54224C21.0206 1.54224 20.3536 1.62301 19.7798 1.7738C20.8442 3.67422 20.9901 5.98251 20.9901 7.82504C20.9901 9.91126 20.4062 11.903 19.3308 13.5522C20.0699 13.9992 20.9075 14.253 21.7958 14.253ZM24.7542 14.7405C31.064 15.8435 31.8884 17.5857 31.9885 23.7002C31.9948 24.094 31.9983 24.1594 32 24.1229C31.9996 24.2266 31.9996 24.3782 31.9996 24.5993C31.9996 24.5993 31.1296 26.2958 26.8846 27.1082C26.8123 23.1157 26.462 20.398 24.9386 18.3749C24.0574 17.2047 22.8608 16.4049 21.5454 15.8306C21.6271 15.8342 21.7101 15.8367 21.7957 15.8367C23.8659 15.8367 24.7542 14.7405 24.7542 14.7405Z" fill="#222939"/>
</g>
<defs>
<clipPath id="clip0_64_6818">
<rect width="32" height="32" fill="white"/>
</clipPath>
</defs>
</svg>
