<svg width="32" height="32" viewBox="0 0 32 32" fill="none" xmlns="http://www.w3.org/2000/svg">
<g clip-path="url(#clip0_64_6773)">
<path fill-rule="evenodd" clip-rule="evenodd" d="M29.785 15.6844V10.1224H26.1887V9.18474C26.1887 7.63384 24.96 6.37206 23.4499 6.37206C22.9997 6.37206 22.575 6.48488 22.1999 6.68338C21.1371 2.83068 17.6816 0 13.5944 0C9.5071 0 6.05162 2.83068 4.98872 6.68338C4.61365 6.48488 4.18892 6.37206 3.73875 6.37206C2.22861 6.37206 1 7.63384 1 9.18474V26.9997H6.47751V14.7381C7.57411 16.2165 9.09661 17.3442 10.8555 17.9268V21.5802H16.333V17.9268C18.092 17.3443 19.6145 16.2166 20.7111 14.7381V26.9997H26.1886V11.9974H27.9592V17.5594H31V15.6844H29.785ZM12.6815 16.4329C10.5528 16.1518 8.71558 14.901 7.60454 13.1271C9.0119 13.8591 10.7834 14.3069 12.6815 14.4158V16.4329ZM12.6815 12.5386C9.75741 12.3526 7.58008 11.2903 6.79586 10.1214H12.6815V12.5386ZM12.6815 8.24641H6.79586C7.58008 7.07758 9.75747 6.01524 12.6815 5.8293V8.24641ZM12.6815 3.95214C10.7834 4.06102 9.01183 4.50884 7.60454 5.24079C8.71558 3.46688 10.5528 2.21617 12.6815 1.93498V3.95214ZM14.5072 1.93498C16.6359 2.21617 18.4731 3.46688 19.5842 5.24079C18.1769 4.50884 16.4053 4.06102 14.5072 3.95214V1.93498ZM14.5072 16.4329V14.4158C16.4053 14.3069 18.1769 13.8591 19.5842 13.1271C18.4731 14.901 16.6359 16.1518 14.5072 16.4329ZM14.5072 12.5386V10.1214H20.3929C19.6086 11.2903 17.4312 12.3526 14.5072 12.5386ZM14.5072 8.24641V5.82936C17.4313 6.01531 19.6086 7.07764 20.3929 8.24647H14.5072V8.24641ZM13.5944 23.2496C12.2521 23.2496 11.16 24.3711 11.16 25.7496C11.16 26.2048 11.2797 26.6316 11.4876 26.9997H15.7012C15.9091 26.6316 16.0287 26.2048 16.0287 25.7496C16.0287 24.3712 14.9366 23.2496 13.5944 23.2496ZM26.1887 28.8748H1.00001V32H26.1887V28.8748Z" fill="#222939"/>
</g>
<defs>
<clipPath id="clip0_64_6773">
<rect width="32" height="32" fill="white"/>
</clipPath>
</defs>
</svg>
