<svg xmlns="http://www.w3.org/2000/svg" width="20" height="21" fill="none" viewBox="0 0 20 21">
    <path fill="#FFCD00" fill-rule="evenodd" d="M6.237.822c-1.24.503-2.353 1.243-3.308 2.197-.955.954-1.693 2.068-2.197 3.308C.247 7.525 0 8.792 0 10.091c0 1.298.247 2.565.732 3.762.504 1.24 1.243 2.354 2.197 3.309.955.954 2.067 1.693 3.308 2.196 1.199.487 2.465.732 3.763.732 1.3 0 2.565-.246 3.763-.732 1.24-.503 2.354-1.242 3.309-2.197.954-.954 1.693-2.067 2.196-3.308.486-1.197.732-2.464.732-3.762 0-1.3-.246-2.566-.732-3.764-.503-1.24-1.242-2.354-2.197-3.308-.954-.954-2.066-1.694-3.308-2.197C12.565.337 11.3.09 10 .09c-1.298 0-2.564.247-3.763.732zM2.5 14.3c-.481-.302-.925-.65-1.318-1.06-.6-1.69-.702-3.518-.304-5.254.187-.369.4-.723.64-1.062l.077-.112c.047-.069.094-.138.146-.204l2.257 1.335V8c-.006 1.214.117 2.419.362 3.606l.003.01v.004l-1.75 2.744c-.038-.02-.076-.04-.113-.064zm7.912 5.143c-.412-.137-.812-.305-1.202-.503-.03-.016-.06-.034-.09-.052l-3.782-.674c1.56.895 3.326 1.305 5.074 1.229zm-1.216-1.186l-4.464-.796c-.522-.634-.992-1.305-1.396-2.022-.03-.055-.062-.108-.093-.162-.075-.127-.15-.254-.211-.388l1.748-2.742.035.009.096.024c1.094.293 2.207.5 3.328.664l.033.005.134.017L10.5 16.49c-.364.511-.732 1.02-1.108 1.523-.062.083-.128.164-.198.244zm6.3-.582c.395-.286.772-.606 1.128-.962 1.645-1.645 2.549-3.755 2.71-5.911-.046.062-.106.12-.178.17-.551.395-1.146.713-1.762.994l-2.236 4.172c.16.5.273 1.013.338 1.537zm1.028-6.373c.084.16.166.32.248.482l-2.16 4.03h-.003c-.012.002-.022.005-.034.006-1.167.218-2.344.334-3.531.34l-2.156-3.727c.336-.623.668-1.248.998-1.874.224-.425.444-.852.663-1.279l4.462-.458c.546.801 1.063 1.62 1.513 2.48zM15.02 8.03c.203-.5.407-1.001.598-1.507.107-.283.198-.572.29-.861l.034-.11-2.994-3.374c-.41-.029-.816-.016-1.22.007-.535.031-1.07.087-1.603.142l-.373.039c-.084.009-.168.027-.252.05L8.29 6.058l.417.417.208.207-.005.006-.009.01.404.454c.381.427.762.854 1.141 1.284.057.064.111.132.163.2l4.346-.446.065-.16zm1.603-4.562c.825.826 1.465 1.769 1.917 2.776-.56-.385-1.157-.701-1.786-.96-.098-.04-.198-.076-.3-.11l-2.947-3.322c.02-.143.032-.287.036-.432 1.12.457 2.172 1.14 3.08 2.048zm-9.61-2.213L7 1.246l.02-.034c-1.332.445-2.584 1.197-3.643 2.256-.113.113-.223.229-.33.346-.162.285-.31.576-.44.877-.151.347-.284.701-.417 1.055l-.05.136c-.024.063-.036.134-.04.204l2.231 1.32c.862-.567 1.776-1.04 2.715-1.466.146-.066.296-.126.446-.185l.248-.1.017-.006 1.13-3.403c-.577-.407-1.19-.75-1.863-.982l-.013-.009z" clip-rule="evenodd"/>
</svg>
