<svg xmlns="http://www.w3.org/2000/svg" width="20" height="20" fill="none" viewBox="0 0 20 20">
    <path fill="#FFCD00" fill-rule="evenodd" d="M10.344.995l5.121 14.55c.079.224.064.47-.04.684-.106.213-.293.377-.52.455L6.327 19.62c-.474.162-.991-.085-1.156-.552L.051 4.518c-.165-.466.086-.977.56-1.139L9.187.443c.228-.078.477-.063.694.04.217.104.383.288.462.512zM7.956 2.08c-.203-.097-.448-.014-.546.187-.047.096-.054.207-.019.308.036.1.11.184.208.23l1.293.618.626-1.275c.063-.13.052-.282-.03-.402-.082-.119-.222-.186-.367-.175-.146.01-.275.096-.339.226l-.27.549-.556-.266zm-.089 15.04l-.626 1.274-1.292-.617c-.131-.063-.219-.19-.23-.334-.01-.144.058-.282.179-.363.12-.08.276-.092.407-.029l.557.266.27-.549c.064-.13.193-.216.338-.226.146-.01.286.057.368.176.082.119.093.272.03.402zm-3.28-6.066l4.191 2.067 1.98-4.16c.377-.837.028-1.817-.799-2.247.043.022-1.397-.954-2.181.74L7.167 8.59l-1.198-.524c-.387-.202-.842-.236-1.256-.096-.414.14-.75.443-.925.835-.377.838-.029 1.818.799 2.248z" clip-rule="evenodd"/>
    <path fill="#FFCD00" d="M18.245 4.061l-5.278-1.913-.82 2.125 2.896 8.815 3.202-9.027z"/>
    <path fill="#FFCD00" d="M12.737.434c-.37-.13-.773.068-.9.444l-.337.985.01.03.44 1.288.55-1.61c.051-.151.212-.23.36-.179l5.888 2.08c.148.052.226.216.175.367l-3.666 10.057s.552 1.709.614 1.528l3.994-11.71c.062-.18.05-.379-.032-.55-.082-.173-.227-.305-.405-.367L12.738.434z"/>
</svg>
