<svg width="20" height="20" viewBox="0 0 20 20" fill="none" xmlns="http://www.w3.org/2000/svg">
    <g clip-path="url(#a)" fill="#90949C">
        <path d="M12.39 16.599c-5.055-.453-8.784-4.889-8.328-9.909a9.043 9.043 0 0 1 1.47-4.19C2.55 3.788.35 6.611.037 10.054c-.456 5.02 3.273 9.456 8.328 9.909a9.21 9.21 0 0 0 8.509-4.08 9.205 9.205 0 0 1-4.484.716zM17.415 5.072l-.279-.198A4.344 4.344 0 0 1 15.372.572l.06-.337c.037-.21-.237-.324-.36-.15l-.198.279a4.344 4.344 0 0 1-4.302 1.764l-.337-.06c-.21-.037-.324.237-.15.36l.279.198a4.345 4.345 0 0 1 1.764 4.302l-.06.337c-.037.21.237.324.36.15l.198-.279a4.344 4.344 0 0 1 4.302-1.764l.337.06c.21.037.324-.237.15-.36"/>
        <path d="M7.91 11.757c-.02.105.117.162.179.076l.099-.14a2.172 2.172 0 0 1 2.151-.882l.168.03c.105.018.162-.118.075-.18l-.139-.099a2.172 2.172 0 0 1-.882-2.15l.03-.17c.018-.104-.118-.161-.18-.075l-.099.14a2.172 2.172 0 0 1-2.151.882l-.168-.03c-.105-.018-.162.118-.076.18l.14.099a2.172 2.172 0 0 1 .882 2.15l-.03.17zM19.904 11.13l-.206-.047a2.683 2.683 0 0 1-2.031-2.03l-.047-.207c-.029-.128-.211-.128-.24 0l-.047.207a2.683 2.683 0 0 1-2.03 2.03l-.207.047c-.128.028-.128.211 0 .24l.207.047a2.683 2.683 0 0 1 2.03 2.03l.047.207c.029.128.212.128.24 0l.047-.207a2.683 2.683 0 0 1 2.03-2.03l.207-.047c.128-.028.128-.211 0-.24z"/>
    </g>
    <defs>
        <clipPath id="a">
            <path fill="#fff" d="M0 0h20v20H0z"/>
        </clipPath>
    </defs>
</svg>
