<svg width="32" height="32" viewBox="0 0 32 32" fill="none" xmlns="http://www.w3.org/2000/svg">
<g clip-path="url(#clip0_64_6756)">
<path fill-rule="evenodd" clip-rule="evenodd" d="M17.1052 1.42483L31.4625 14.3284C31.9673 14.7822 32.1341 15.4812 31.8878 16.1094C31.6411 16.7374 31.0404 17.1433 30.3575 17.1433H28.064V30.0718C28.064 30.5844 27.6426 31 27.1229 31H19.2537C18.734 31 18.3126 30.5844 18.3126 30.0718V22.222H13.6875V30.0717C13.6875 30.5844 13.2661 30.9999 12.7465 30.9999H4.87686C4.35718 30.9999 3.9358 30.5843 3.9358 30.0717V17.1433H1.64268C0.95975 17.1433 0.359127 16.7375 0.11244 16.1094C-0.134184 15.4813 0.0325651 14.7822 0.537376 14.3285L14.8948 1.42477C15.5247 0.85843 16.475 0.858369 17.1052 1.42483ZM21.4982 2.85283H27.8182C28.3379 2.85283 28.7592 3.26839 28.7592 3.78098V9.36486L21.4982 2.85283Z" fill="#222939"/>
</g>
<defs>
<clipPath id="clip0_64_6756">
<rect width="32" height="32" fill="white"/>
</clipPath>
</defs>
</svg>
