<svg width="32" height="32" viewBox="0 0 32 32" fill="none" xmlns="http://www.w3.org/2000/svg">
<path fill-rule="evenodd" clip-rule="evenodd" d="M13.2082 0C11.4479 0.121937 9.78146 0.586812 8.27405 1.32919L13.2082 9.93875V0ZM11.5964 10.8763L6.66264 2.26758C5.23992 3.23589 4.01207 4.47277 3.05093 5.90602L11.5964 10.8763ZM25.2268 5.90602L16.6814 10.8763L21.6151 2.26758C23.0378 3.23589 24.2656 4.47277 25.2268 5.90602ZM24.7469 10.8261L27.0437 9.90061C26.8216 9.07611 26.5239 8.28292 26.1583 7.5293L17.6119 12.5H23.1494C23.4107 11.7495 23.9816 11.1344 24.7469 10.8261ZM14.1388 15C14.9954 15 15.6898 14.3004 15.6898 13.4375C15.6898 12.5746 14.9954 11.875 14.1388 11.875C13.2822 11.875 12.5878 12.5746 12.5878 13.4375C12.5878 14.3004 13.2822 15 14.1388 15ZM13.2082 26.8749V16.9362L8.27405 25.5457C9.78152 26.2882 11.448 26.7531 13.2082 26.8749ZM20.4054 30.125H22.8245C23.3384 30.125 23.7551 30.5447 23.7551 31.0625C23.7551 31.5802 23.3384 32 22.8245 32H5.45305C4.93911 32 4.52244 31.5802 4.52244 31.0625C4.52244 30.5447 4.93911 30.125 5.45305 30.125H7.87215L8.61608 27.7414C9.19573 27.969 9.78716 28.1597 10.3887 28.3131L9.82321 30.125H18.4543L17.8888 28.3131C18.4904 28.1597 19.0817 27.969 19.6615 27.7414L20.4054 30.125ZM15.0694 26.875C16.8297 26.7531 18.4961 26.2882 20.0036 25.5459L15.0694 16.9364V26.875ZM17.6119 14.375H23.1494C23.4107 15.1255 23.9816 15.7406 24.7467 16.0488L27.0436 16.9744C26.8216 17.7989 26.5239 18.5921 26.1582 19.3457L17.6119 14.375ZM3.05093 20.969L11.5964 15.9989L6.66264 24.6075C5.23992 23.6392 4.01213 22.4023 3.05093 20.969ZM2.11942 7.5293C1.3825 9.04792 0.921038 10.7267 0.799996 12.5H10.6657L2.11942 7.5293ZM21.615 24.6075L16.6814 15.9989L25.2267 20.9691C24.2656 22.4024 23.0378 23.6392 21.615 24.6075ZM15.0694 9.93875V0C16.8297 0.121937 18.4962 0.586812 20.0036 1.32925L15.0694 9.93875ZM0.799996 14.375C0.921038 16.1483 1.3825 17.8271 2.11942 19.3457L10.6657 14.375H0.799996ZM29.9237 10.7595C30.2107 10.6438 30.535 10.679 30.791 10.8536C31.0471 11.0282 31.1999 11.3184 31.1999 11.6298V15.2452C31.1999 15.5567 31.0471 15.8468 30.791 16.0215C30.6346 16.1281 30.4528 16.1828 30.2695 16.1828C30.1527 16.1828 30.0354 16.1606 29.9237 16.1156L25.4378 14.308C25.0824 14.1648 24.8528 13.8231 24.8528 13.4375C24.8528 13.052 25.0824 12.7103 25.4378 12.5671L29.9237 10.7595Z" fill="white"/>
</svg>
