<svg width="32" height="32" viewBox="0 0 32 32" fill="none" xmlns="http://www.w3.org/2000/svg">
<path d="M16.0006 0C7.16702 0 0.000610352 7.15736 0.000610352 15.9916C0.000610352 24.8343 7.16702 32 16.0006 32C24.839 32 31.9993 24.8342 31.9993 15.9916C31.9994 7.15736 24.839 0 16.0006 0ZM17.1408 24.8944C16.7692 25.2251 16.3385 25.3913 15.8507 25.3913C15.3459 25.3913 14.9056 25.2281 14.5298 24.901C14.1534 24.5745 13.9648 24.1174 13.9648 23.5301C13.9648 23.0091 14.1473 22.5706 14.5111 22.2152C14.8749 21.8599 15.3212 21.6822 15.8507 21.6822C16.3717 21.6822 16.8102 21.8599 17.1661 22.2152C17.5215 22.5706 17.6998 23.0091 17.6998 23.5301C17.6991 24.109 17.513 24.5638 17.1408 24.8944ZM21.7744 13.407C21.4889 13.9365 21.1499 14.393 20.7565 14.7779C20.3644 15.1628 19.6591 15.8097 18.6412 16.7192C18.3605 16.9758 18.1346 17.201 17.9654 17.395C17.7961 17.5895 17.6696 17.7671 17.5871 17.9286C17.504 18.09 17.4402 18.2515 17.395 18.4128C17.3498 18.5736 17.2817 18.8574 17.1896 19.2627C17.033 20.1228 16.5409 20.5528 15.7139 20.5528C15.2838 20.5528 14.9224 20.4125 14.6279 20.1312C14.3345 19.8499 14.1882 19.4325 14.1882 18.8784C14.1882 18.184 14.296 17.5822 14.511 17.0733C14.7249 16.5643 15.011 16.118 15.3664 15.7331C15.7223 15.3483 16.2017 14.8917 16.8059 14.3622C17.3353 13.899 17.7178 13.5497 17.9533 13.3142C18.1894 13.0781 18.3876 12.8155 18.5484 12.5264C18.7104 12.2366 18.79 11.9228 18.79 11.5837C18.79 10.9218 18.5448 10.3641 18.0521 9.90933C17.5601 9.45458 16.9252 9.22688 16.1476 9.22688C15.2375 9.22688 14.5677 9.45636 14.1377 9.91533C13.7076 10.3743 13.3444 11.0501 13.0462 11.9433C12.7644 12.8782 12.2307 13.3455 11.4459 13.3455C10.9827 13.3455 10.5918 13.1823 10.2732 12.8558C9.95514 12.5293 9.79612 12.1758 9.79612 11.7951C9.79612 11.0097 10.0485 10.2134 10.5527 9.40693C11.0574 8.60044 11.7935 7.93244 12.7613 7.4036C13.7286 6.87416 14.858 6.60911 16.1476 6.60911C17.3468 6.60911 18.4051 6.83074 19.323 7.27348C20.241 7.71555 20.9505 8.31731 21.451 9.0786C21.9509 9.8393 22.2015 10.6663 22.2015 11.5596C22.2027 12.2614 22.0599 12.8776 21.7744 13.407Z" fill="#222939"/>
</svg>
