<svg width="32" height="32" viewBox="0 0 32 32" fill="none" xmlns="http://www.w3.org/2000/svg">
    <path d="M31.956 22.472 30.141 9.713A6.656 6.656 0 0 0 23.545 4H8.455a6.656 6.656 0 0 0-6.596 5.713L.043 22.472a4.239 4.239 0 0 0 7.195 3.597l3.765-3.747h9.994l3.747 3.747c.8.8 1.882 1.25 2.998 1.25a4.242 4.242 0 0 0 4.214-4.847zm-17.622-8.478h-3.331v3.33H9.337v-3.33H6.006v-1.666h3.331V8.997h1.666v3.331h3.331v1.666zm6.663-1.666a1.67 1.67 0 0 1-1.666-1.665c0-.917.75-1.666 1.666-1.666.916 0 1.665.75 1.665 1.665a1.67 1.67 0 0 1-1.665 1.666zm3.33 4.997a1.67 1.67 0 0 1-1.665-1.666c0-.916.75-1.665 1.666-1.665.916 0 1.665.75 1.665 1.665a1.67 1.67 0 0 1-1.665 1.666z" fill="#D3D4D7"/>
</svg>
