<svg width="32" height="32" viewBox="0 0 32 32" fill="none" xmlns="http://www.w3.org/2000/svg">
<path d="M31.4825 18.3273L30.2655 16.5308C30.0467 16.2085 30.0467 15.7917 30.2655 15.4687L31.4831 13.6715C32.5916 12.0324 31.8414 9.83671 29.9498 9.14234L27.8664 8.37566C27.4919 8.23791 27.2364 7.90041 27.2158 7.51616L27.1011 5.37606C26.9973 3.43014 25.0529 2.07077 23.0886 2.57564L20.9344 3.1322C20.5486 3.23183 20.1338 3.10364 19.8825 2.80414L18.4794 1.13728C17.2025 -0.38052 14.7928 -0.37802 13.5198 1.13834L12.1167 2.80427C11.8654 3.10383 11.4513 3.23264 11.0655 3.13233L8.9113 2.57614C6.95232 2.06933 5.00218 3.42776 4.89814 5.37618L4.78349 7.51666C4.76299 7.90085 4.50811 8.2381 4.13364 8.37578L2.05024 9.14184C0.156268 9.83846 -0.591445 12.0351 0.517599 13.673L1.73375 15.4681C1.95251 15.7911 1.95251 16.2086 1.73446 16.5309L0.517599 18.3274C-0.590924 19.9616 0.155097 22.1623 2.05024 22.8579L4.13364 23.6242C4.50811 23.7622 4.76299 24.0995 4.78349 24.4837L4.89814 26.6242C5.00199 28.5698 6.94796 29.93 8.9113 29.4242L11.0655 28.8674C11.4506 28.7681 11.864 28.8959 12.1175 29.1965L13.5198 30.8624C14.7942 32.3771 17.2001 32.381 18.4802 30.8631L19.8826 29.1965C20.1353 28.896 20.5481 28.7687 20.9339 28.8674L23.0901 29.4249C25.0455 29.9284 26.9971 28.5753 27.1011 26.6241L27.2158 24.4843C27.2363 24.0995 27.4919 23.7622 27.8664 23.6242L29.9498 22.8585C31.8432 22.1622 32.5916 19.9653 31.4825 18.3273ZM11.602 10.3718C12.8013 10.3718 13.7767 11.3088 13.7767 12.4606C13.7767 13.6125 12.8012 14.5494 11.602 14.5494C10.4028 14.5494 9.42736 13.6124 9.42736 12.4606C9.42736 11.3088 10.4029 10.3718 11.602 10.3718ZM19.576 22.2085C18.3768 22.2085 17.4013 21.2715 17.4013 20.1197C17.4013 18.9678 18.3768 18.0309 19.576 18.0309C20.7752 18.0309 21.7507 18.9679 21.7507 20.1197C21.7507 21.2715 20.7752 22.2085 19.576 22.2085ZM21.4322 12.1547L11.2835 21.9025C10.8588 22.3105 10.1707 22.3105 9.74594 21.9025C9.32123 21.4945 9.32123 20.8336 9.74594 20.4256L19.8946 10.6778C20.3193 10.2699 21.0074 10.2699 21.4322 10.6778C21.8569 11.0858 21.8569 11.7467 21.4322 12.1547Z" fill="#222939"/>
</svg>
