<svg width="32" height="32" viewBox="0 0 32 32" fill="none" xmlns="http://www.w3.org/2000/svg">
<g clip-path="url(#clip0_64_6858)">
<path fill-rule="evenodd" clip-rule="evenodd" d="M31.8712 12.5276L26.1837 2.48017C25.9229 2.01953 25.3525 1.86331 24.9064 2.1304L21.4978 4.17064L18.4275 2.99983C18.3145 2.95675 18.2001 2.92059 18.0848 2.8902C17.2204 2.66237 16.304 2.79022 15.5222 3.25824L10.447 6.29609C9.32598 6.96706 8.94192 8.45316 9.5891 9.61535C10.2363 10.7775 11.6697 11.1757 12.7907 10.5047L18.3599 7.17117C18.94 6.82392 19.6548 6.82392 20.2349 7.17117C20.2349 7.17117 31.4554 13.8896 31.4914 13.9126L31.6585 13.77C32.0143 13.4663 32.1045 12.9397 31.8712 12.5276ZM30.4454 15.5274L19.2974 8.85465L13.7282 12.1882C13.0782 12.5773 12.3567 12.776 11.6257 12.776C11.2592 12.776 10.8904 12.726 10.527 12.6252C9.43848 12.3228 8.52867 11.599 7.96529 10.5872C7.40186 9.57558 7.25223 8.39687 7.54392 7.26837C7.78467 6.33673 8.30304 5.53202 9.02548 4.95073L6.72686 3.57485C6.26854 3.3005 5.68211 3.47364 5.43192 3.95715L0.11173 14.2405C-0.127582 14.703 0.030605 15.2792 0.469168 15.5416L0.95648 15.8332L1.81179 14.2973C2.52136 13.0231 3.84429 12.2315 5.26429 12.2315C5.96104 12.2315 6.64929 12.423 7.25454 12.7853C7.60273 12.9937 7.91329 13.2506 8.17998 13.5469C8.61104 13.3837 9.07148 13.2961 9.54286 13.2961C10.2396 13.2961 10.9278 13.4875 11.5331 13.8499C12.4547 14.4015 13.114 15.2923 13.3895 16.3581C13.4198 16.4753 13.4441 16.5931 13.4644 16.7112C13.8477 16.803 14.218 16.9534 14.5616 17.1591C15.4833 17.7107 16.1426 18.6015 16.418 19.6673C16.4484 19.7845 16.4727 19.9023 16.4929 20.0204C16.8763 20.1122 17.2465 20.2626 17.5901 20.4682C19.4927 21.6072 20.147 24.1385 19.0486 26.111L17.8807 28.2082L20.3841 29.7066C21.393 30.3106 22.683 29.9522 23.2655 28.9062C23.848 27.8602 23.5024 26.5227 22.4935 25.9188L24.1173 26.8908C25.1262 27.4947 26.4162 27.1363 26.9987 26.0904C27.5812 25.0444 27.2355 23.7069 26.2267 23.103L27.3092 23.751C28.3181 24.3549 29.6082 23.9965 30.1907 22.9505C30.7732 21.9045 30.4275 20.567 29.4185 19.9632L28.336 19.3152C29.3449 19.9191 30.635 19.5607 31.2175 18.5147C31.8 17.4687 31.4543 16.1313 30.4454 15.5274ZM13.7712 22.9522C14.3537 21.9063 15.6437 21.5479 16.6526 22.1518C17.6615 22.7556 18.0072 24.0932 17.4247 25.1388L15.784 28.0849C15.2016 29.1309 13.9115 29.4893 12.9026 28.8854C11.8937 28.2815 11.548 26.944 12.1305 25.8981C11.548 26.9441 10.258 27.3025 9.24911 26.6985C8.24017 26.0947 7.89449 24.7572 8.47699 23.7112C7.89455 24.7572 6.60442 25.1156 5.59555 24.5117C4.58667 23.9079 4.24098 22.5704 4.82348 21.5244C4.24105 22.5704 2.95092 22.9288 1.94205 22.3249C0.933172 21.7211 0.587485 20.3836 1.16998 19.3376L3.43561 15.2692C4.01811 14.2233 5.30817 13.8649 6.31705 14.4688C7.32599 15.0727 7.67161 16.4102 7.08917 17.4561L7.71417 16.3338C8.29667 15.2879 9.58674 14.9295 10.5956 15.5334C11.6045 16.1373 11.9502 17.4748 11.3677 18.5207L10.7427 19.6431C11.3252 18.5971 12.6152 18.2387 13.6241 18.8426C14.633 19.4465 14.9787 20.784 14.3962 21.8299L13.7712 22.9522Z" fill="#222939"/>
</g>
<defs>
<clipPath id="clip0_64_6858">
<rect width="32" height="32" fill="white"/>
</clipPath>
</defs>
</svg>
