<svg width="32" height="32" viewBox="0 0 32 32" fill="none" xmlns="http://www.w3.org/2000/svg">
<path fill-rule="evenodd" clip-rule="evenodd" d="M10.2075 0L2.26088 3.97307L10.2074 7.94614L18.1535 3.97307L10.2075 0ZM10.2075 4.77919C9.54944 4.77919 9.01547 4.41808 9.01547 3.97307C9.01547 3.52768 9.54906 3.16695 10.2075 3.16695C10.8659 3.16695 11.3995 3.52806 11.3995 3.97307C11.399 4.41846 10.8655 4.77919 10.2075 4.77919ZM27.5597 15.1048L30.369 23.5331L21.9407 20.723L19.1313 12.2951L27.5597 15.1048ZM25.5232 17.1969C25.0578 16.7314 24.4253 16.6096 24.1105 16.9243C23.7954 17.239 23.9176 17.8716 24.3831 18.337C24.8486 18.8026 25.4811 18.9244 25.7958 18.6097C26.1109 18.295 25.9887 17.6625 25.5232 17.1969ZM22.7917 31.9999L14.2946 29.0897L21.6752 21.7092L30.231 24.561L22.7917 31.9999ZM16.4822 29.0704C16.9374 29.2803 17.6708 29.0855 18.1208 28.6354C18.5708 28.1854 18.5674 27.6507 18.1123 27.4407C17.6572 27.2308 16.9238 27.4256 16.4737 27.8757C16.0233 28.3258 16.0276 28.8605 16.4822 29.0704ZM19.2262 30.0316C19.6813 30.2415 20.4147 30.0467 20.8648 29.5966C21.3148 29.1465 21.311 28.6118 20.8562 28.4019C20.4011 28.1919 19.6681 28.3868 19.2176 28.8368C18.7672 29.2869 18.7715 29.8216 19.2262 30.0316ZM28.0357 24.858C27.5806 24.648 26.8472 24.8429 26.3971 25.2929C25.9471 25.743 25.9509 26.2777 26.406 26.4877C26.8612 26.6976 27.5946 26.5028 28.0446 26.0527C28.4946 25.6026 28.4904 25.0679 28.0357 24.858ZM25.2999 23.9587C24.8448 23.7487 24.1114 23.9436 23.6613 24.3936C23.2113 24.8437 23.2152 25.3784 23.6698 25.5883C24.125 25.7983 24.8584 25.6035 25.3084 25.1534C25.7588 24.7033 25.7546 24.1686 25.2999 23.9587ZM23.6007 30.4959C24.051 30.0458 24.0468 29.5111 23.5921 29.3012C23.137 29.0916 22.4036 29.2865 21.9531 29.7362C21.5032 30.1862 21.5069 30.7209 21.9621 30.9309C22.4172 31.1408 23.1506 30.946 23.6007 30.4959ZM22.5644 24.1919C23.0148 23.7418 23.0106 23.2071 22.5559 22.9971C22.1009 22.7876 21.3674 22.982 20.9173 23.4321C20.4669 23.8822 20.4712 24.4169 20.9258 24.6268C21.381 24.8368 22.1144 24.6419 22.5644 24.1919ZM13.0569 15.7396C12.9471 15.315 12.6298 15.0935 12.2501 15.2335C11.7803 15.4067 11.399 16.0632 11.399 16.7C11.399 16.9262 11.4489 17.1172 11.532 17.2645L10.7166 18.0799V8.83077L18.783 4.79736V11.3029L17.816 10.9805L13.0569 15.7396ZM18.2916 7.39825C18.2916 6.76189 17.9108 6.38643 17.4407 6.55966C16.9705 6.73289 16.5896 7.38934 16.5897 8.02578C16.5897 8.66214 16.9705 9.03761 17.4407 8.86437C17.9108 8.69114 18.2916 8.03462 18.2916 7.39825ZM15.8666 11.5619C15.8666 10.9256 15.4858 10.5501 15.0157 10.7233C14.5459 10.8966 14.1647 11.5531 14.1647 12.1895C14.1647 12.8258 14.5455 13.2013 15.0157 13.028C15.4858 12.8548 15.8666 12.1983 15.8666 11.5619ZM12.25 9.11916C11.7798 9.29239 11.399 9.94892 11.399 10.5853C11.399 11.2217 11.7799 11.5971 12.25 11.4239C12.7201 11.2506 13.101 10.5942 13.101 9.95776C13.101 9.32139 12.7201 8.94593 12.25 9.11916ZM1.63107 15.3174L9.58378 19.2123L9.69781 19.0983V8.83077L1.63107 4.79736V15.3174ZM8.14469 15.2335C8.61485 15.4067 8.99567 16.0632 8.99567 16.6996C8.99567 17.3359 8.61485 17.7114 8.14469 17.5382C7.67454 17.3649 7.29371 16.7084 7.29371 16.0721C7.29371 15.4357 7.67499 15.0602 8.14469 15.2335ZM5.66448 10.5946C6.13464 10.7678 6.51546 11.4243 6.51546 12.0607C6.51546 12.6971 6.13464 13.0725 5.66448 12.8993C5.19432 12.7261 4.8135 12.0695 4.8135 11.4332C4.81343 10.7968 5.1947 10.4213 5.66448 10.5946ZM3.11185 6.55966C3.582 6.73289 3.96282 7.38934 3.96282 8.02578C3.96282 8.66214 3.582 9.03761 3.11185 8.86437C2.64169 8.69114 2.26087 8.03469 2.26087 7.39825C2.26087 6.76189 2.64169 6.38643 3.11185 6.55966ZM10.6636 19.8712L18.1029 12.4327L20.9547 20.9879L13.5741 28.3692L10.6636 19.8712ZM13.7311 25.5578C13.9407 26.0129 14.4758 26.0168 14.9259 25.5667C15.3759 25.1166 15.5704 24.3825 15.3608 23.9277C15.1513 23.473 14.6162 23.4691 14.1661 23.9192C13.716 24.3693 13.5216 25.1028 13.7311 25.5578ZM16.2133 16.7386C16.4229 17.1933 16.958 17.1972 17.408 16.7472C17.8581 16.2971 18.053 15.5636 17.843 15.1086C17.6335 14.6539 17.0984 14.65 16.6483 15.1C16.1982 15.5501 16.0034 16.284 16.2133 16.7386Z" fill="white"/>
</svg>
