<?xml version="1.0" encoding="utf-8"?>
<!-- Generator: Adobe Illustrator 19.2.0, SVG Export Plug-In . SVG Version: 6.00 Build 0)  -->
<svg version="1.1" id="Layer_1" xmlns="http://www.w3.org/2000/svg" xmlns:xlink="http://www.w3.org/1999/xlink" x="0px" y="0px"
	 viewBox="0 0 104 104" style="enable-background:new 0 0 104 104;" xml:space="preserve">
<style type="text/css">
	.st0{fill:#80A7BD;}
	.st1{display:none;}
</style>
<g id="Layer_1_1_">
	<g>
		<g>
			<polygon class="st0" points="18.3,53.7 23.5,50.9 28.8,53.7 27.8,47.8 32.1,43.7 26.2,42.8 23.5,37.5 20.9,42.8 15,43.7 
				19.3,47.8 			"/>
			<polygon class="st0" points="41.1,53.7 46.3,50.9 51.6,53.7 50.6,47.8 54.9,43.7 49,42.8 46.4,37.5 43.7,42.8 37.8,43.7 
				42.1,47.8 			"/>
			<polygon class="st0" points="63.9,53.7 69.2,50.9 74.4,53.7 73.4,47.8 77.7,43.7 71.8,42.8 69.2,37.5 66.5,42.8 60.6,43.7 
				64.9,47.8 			"/>
			<g>
				<path class="st0" d="M79.8,76H12.9C10.4,76,8,76.3,8,76.6v4.7c0,0.3,2.2,0.6,4.8,0.6h66.7c2.6,0,4.5-0.3,4.5-0.6v-4.7
					C84,76.3,82.3,76,79.8,76z"/>
				<path class="st0" d="M91.8,30.4c-2.7,0-4.7,2.1-4.7,4.8c0,1.9,0.8,3.5,2.8,4.3V56h-6V32c0-2.6-1.7-5-4.2-5H72v-4.8
					c0-0.4-1.5-1.2-3.2-1.2H23.9c-1.7,0-2.9,0.8-2.9,1.2V27h-8.1C10.4,27,8,29.4,8,32v37.7c0,2.6,2.4,4.4,4.9,4.4h66.8
					c2.6,0,4.2-1.8,4.2-4.4V64h10v-4.1v-3.6V39.5c2-0.8,2.7-2.4,2.7-4.3C96.7,32.6,94.5,30.4,91.8,30.4z M33,62H14V33h19V62z M56,62
					H37V33h19V62z M79,62H59V33h20V62z"/>
			</g>
		</g>
	</g>
</g>
<g id="Layer_2" class="st1">
</g>
</svg>