<svg width="32" height="32" viewBox="0 0 32 32" fill="none" xmlns="http://www.w3.org/2000/svg">
<path fill-rule="evenodd" clip-rule="evenodd" d="M15.7 11.2C15.3 12.1 15.1 13.4 15 15C13.5 15.1 12.2 15.3 11.2 15.6C11.1 15.1 10.5 14.6 9.9 14.6C9.2 14.6 8.6 15.2 8.6 15.9C8.6 16.6 9.2 17.2 9.9 17.2C10.5 17.2 11 16.8 11.2 16.2C12.2 16.6 13.5 16.8 15 16.9C15.1 18.4 15.3 19.7 15.7 20.7C15.1 20.8 14.7 21.4 14.7 22C14.7 22.7 15.3 23.3 16 23.3C16.7 23.3 17.3 22.7 17.3 22C17.3 21.4 16.9 20.9 16.3 20.7C16.6 19.7 16.9 18.4 17 16.9C18.5 16.8 19.8 16.6 20.7 16.2C20.9 16.8 21.4 17.2 22 17.2C22.7 17.2 23.3 16.6 23.3 15.9C23.3 15.2 22.7 14.6 22 14.6C21.4 14.6 20.9 15 20.7 15.6C19.8 15.3 18.5 15.1 17 15C16.9 13.4 16.6 12.1 16.3 11.2C16.9 11.1 17.3 10.5 17.3 9.9C17.3 9.2 16.7 8.6 16 8.6C15.3 8.6 14.7 9.2 14.7 9.9C14.7 10.5 15.1 11 15.7 11.2ZM16 7.5C13.7 7.5 11.6 8.5 10 10C8.5 11.6 7.5 13.7 7.5 16C7.5 18.3 8.5 20.5 10 22C11.6 23.5 13.7 24.5 16 24.5C18.3 24.5 20.4 23.5 22 22C23.5 20.5 24.5 18.3 24.5 16C24.5 13.7 23.5 11.6 22 10C20.5 8.5 18.4 7.5 16 7.5ZM14.9 2.3C13.2 2.4 11.6 2.9 10.2 3.6L11.7 6.1C12.7 5.7 13.8 5.4 14.9 5.3V2.3ZM8.2 4.7C7.5 5.1 6.9 5.7 6.3 6.3C5.7 6.9 5.2 7.5 4.7 8.2L7.2 9.7C7.5 9.3 7.9 8.8 8.3 8.4C8.7 8 9 7.7 9.5 7.3L8.2 4.7ZM3.6 10.1C2.9 11.6 2.5 13.2 2.4 14.8H5.3C5.4 13.7 5.7 12.6 6.2 11.6L3.6 10.1ZM2.4 17.1C2.5 18.8 2.9 20.4 3.6 21.8L6.2 20.3C5.8 19.3 5.5 18.3 5.3 17.1H2.4ZM4.8 23.8C5.2 24.5 5.8 25.1 6.3 25.7C6.9 26.2 7.6 26.7 8.2 27.3L9.6 24.7C9.2 24.4 8.8 24 8.4 23.7C8 23.3 7.6 22.9 7.3 22.4L4.8 23.8ZM10.2 28.4C11.6 29.1 13.2 29.5 14.9 29.7V26.7C13.8 26.6 12.7 26.3 11.7 25.8L10.2 28.4ZM17.2 29.7C18.8 29.6 20.5 29.1 21.9 28.4L20.4 25.8C19.4 26.2 18.3 26.5 17.2 26.7V29.7ZM23.8 27.3C24.5 26.8 25.1 26.3 25.7 25.7C26.3 25.1 26.8 24.5 27.3 23.8L24.8 22.3C24.4 22.7 24.1 23.1 23.7 23.6C23.3 24 22.9 24.3 22.4 24.6L23.8 27.3ZM28.4 21.8C29.1 20.4 29.5 18.8 29.7 17.1H26.7C26.6 18.3 26.3 19.3 25.9 20.3L28.4 21.8ZM29.7 14.8C29.6 13.2 29.2 11.6 28.4 10.1L25.9 11.6C26.3 12.6 26.6 13.7 26.7 14.8H29.7ZM27.3 8.2C26.9 7.5 26.3 6.9 25.7 6.3C25.2 5.7 24.5 5.2 23.8 4.7L22.3 7.2C22.7 7.6 23.2 7.9 23.6 8.3C24 8.7 24.3 9.1 24.7 9.6L27.3 8.2ZM21.9 3.6C20.5 2.9 18.8 2.5 17.2 2.3V5.3C18.3 5.4 19.4 5.7 20.4 6.1L21.9 3.6ZM4.7 4.6C7.6 1.8 11.6 0 16 0C20.4 0 24.4 1.8 27.3 4.6C30.2 7.6 32 11.5 32 16C32 20.5 30.2 24.4 27.4 27.3C24.4 30.2 20.5 32 16 32C11.6 32 7.6 30.2 4.7 27.3C1.8 24.4 0 20.4 0 16C0 11.6 1.8 7.6 4.7 4.6Z" fill="white"/>
</svg>
