<svg width="32" height="32" viewBox="0 0 32 32" fill="none" xmlns="http://www.w3.org/2000/svg">
<g clip-path="url(#clip0_64_6764)">
<path fill-rule="evenodd" clip-rule="evenodd" d="M14.9074 5.57714L11.9989 2.57238C11.6531 2.21491 11.1867 2.01182 10.686 2.00053C10.1842 1.98881 9.71005 2.171 9.34792 2.51237L0.579943 10.7765C0.217753 11.1179 0.0119399 11.578 0.000502384 12.0721C-0.0109352 12.5662 0.173253 13.0352 0.519192 13.3924L6.18747 19.2485V9.27759C6.18747 7.23716 7.86973 5.57714 9.93749 5.57714H14.9074ZM30.5857 5.79019L18.8327 2.84925C18.3472 2.72757 17.8429 2.80004 17.4125 3.0529C16.9821 3.30577 16.6774 3.70887 16.5543 4.18783L16.1974 5.57692H22.0625C24.1303 5.57692 25.8125 7.23694 25.8125 9.27737V27.6875C26.011 27.6458 26.2035 27.5722 26.383 27.4667C26.8133 27.2138 27.1181 26.8108 27.2412 26.3318L31.9423 8.03846C32.1964 7.04951 31.5879 6.04096 30.5857 5.79019ZM9.93752 7.42723H22.0626C23.0965 7.42723 23.9376 8.25724 23.9376 9.27745V28.1498C23.9376 29.17 23.0965 30 22.0626 30H9.93752C8.90364 30 8.06251 29.17 8.06251 28.1498V9.27745C8.06251 8.25724 8.90364 7.42723 9.93752 7.42723ZM13.4375 11.8062C13.4375 11.2952 13.0178 10.881 12.5 10.881C11.9823 10.881 11.5625 11.2952 11.5625 11.8062C11.5625 12.3171 11.9823 12.7313 12.5 12.7313C13.0178 12.7313 13.4375 12.3171 13.4375 11.8062ZM15.375 22.8569C15.553 23.014 15.7765 23.0925 16 23.0925C16.2236 23.0925 16.4472 23.014 16.6251 22.8568L19.4207 20.3891C19.427 20.3836 19.4331 20.378 19.4393 20.3723C20.1407 19.7186 20.4781 18.7302 20.3419 17.7282C20.2124 16.7751 19.6624 15.9573 18.8697 15.5399C18.4857 15.3381 18.0794 15.2358 17.662 15.2358C17.0287 15.2358 16.4499 15.4739 16 15.8727C15.5502 15.4739 14.9714 15.2358 14.3381 15.2358C13.9207 15.2358 13.5143 15.3381 13.1297 15.5402C12.3377 15.9573 11.7877 16.7752 11.6582 17.7282C11.522 18.7303 11.8593 19.7187 12.5608 20.3723C12.567 20.378 12.5731 20.3836 12.5794 20.3892L15.375 22.8569ZM18.5626 25.621C18.5626 26.132 18.9823 26.5461 19.5001 26.5461C20.0178 26.5461 20.4376 26.1319 20.4376 25.621C20.4376 25.1101 20.0178 24.6959 19.5001 24.6959C18.9823 24.6959 18.5626 25.1101 18.5626 25.621Z" fill="#222939"/>
</g>
<defs>
<clipPath id="clip0_64_6764">
<rect width="32" height="32" fill="white"/>
</clipPath>
</defs>
</svg>
