<svg width="32" height="32" viewBox="0 0 32 32" fill="none" xmlns="http://www.w3.org/2000/svg">
<g clip-path="url(#clip0_64_6785)">
<path fill-rule="evenodd" clip-rule="evenodd" d="M18.0202 5.93954C18.0202 7.01073 17.1236 7.87909 16.0176 7.87909C14.9116 7.87909 14.015 7.01073 14.015 5.93954C14.015 4.86836 14.9116 4 16.0176 4C17.1236 4 18.0202 4.86836 18.0202 5.93954ZM23.6431 16.7232C24.6979 16.7232 27.0364 15.184 28.7025 14.0267C28.9666 13.8437 29.3272 13.8739 29.5572 14.0952C29.7861 14.3163 29.8159 14.6665 29.6266 14.9217C25.8167 19.6407 26.5336 25.0589 26.5336 25.0589C26.5475 25.1343 26.5549 25.2107 26.5549 25.2914C26.5549 26.6213 24.6305 27.1489 22.9543 27.4592C21.1085 27.8016 18.6761 27.9925 16.0928 27.9993V28C16.0674 28 16.0427 28 16.0179 27.9993C15.9932 28 15.9682 28 15.9434 28V27.9993C13.3594 27.9928 10.9274 27.8019 9.08088 27.4592C7.40503 27.1489 5.48097 26.6222 5.48097 25.2914C5.48097 25.2107 5.48842 25.134 5.5023 25.0589C5.5023 25.0589 6.2195 19.6417 2.40897 14.9217C2.22001 14.6662 2.25015 14.3163 2.47906 14.0952C2.70763 13.8732 3.06894 13.8434 3.33239 14.0267C4.9991 15.1844 7.33764 16.7232 8.39246 16.7232C8.60105 16.7232 8.66911 16.6625 8.71686 16.6048C9.14861 16.0905 9.0311 14.2874 8.37011 11.2476C8.30441 10.9465 8.46831 10.6438 8.7602 10.5247C9.05244 10.405 9.39106 10.5031 9.56748 10.7576C11.843 14.0437 12.8846 14.7334 13.3574 14.7334C14.0268 14.7334 14.7085 12.8667 15.385 9.18438C15.4399 8.89053 15.6952 8.67637 15.9983 8.65932V8.65571C16.0013 8.65571 16.0046 8.65603 16.0079 8.65635C16.0112 8.65669 16.0147 8.65702 16.0179 8.65702L16.0228 8.65682L16.0274 8.65637C16.0306 8.65604 16.0337 8.65571 16.0369 8.65571V8.65932C16.341 8.67637 16.597 8.89053 16.6508 9.18438C17.3267 12.8667 18.0077 14.7334 18.6778 14.7334C19.1502 14.7334 20.1925 14.0441 22.4684 10.7576C22.6452 10.5031 22.9838 10.405 23.2753 10.5247C23.5669 10.6438 23.7308 10.9465 23.6654 11.2476C23.0041 14.2874 22.8876 16.0905 23.3183 16.6048C23.3671 16.6622 23.4341 16.7232 23.6431 16.7232ZM16.087 26.1631H16.0921C20.1983 26.1516 22.9127 25.6889 24.1104 25.2917C22.912 24.8939 20.1976 24.4312 16.0914 24.42H16.0813H16.0169H15.9526H15.9428C11.8363 24.4312 9.12152 24.8939 7.92346 25.2917C9.12152 25.6889 11.8363 26.1516 15.9428 26.1631H15.9478C15.9596 26.1631 15.971 26.1633 15.9823 26.1636L15.9826 26.1636C15.994 26.1638 16.0054 26.1641 16.0173 26.1641C16.0289 26.1641 16.0404 26.1638 16.0519 26.1636L16.0702 26.1632L16.087 26.1631ZM7.56452 9.89899C8.48614 9.89899 9.23326 9.1754 9.23326 8.28281C9.23326 7.39022 8.48614 6.66663 7.56452 6.66663C6.6429 6.66663 5.89578 7.39022 5.89578 8.28281C5.89578 9.1754 6.6429 9.89899 7.56452 9.89899ZM26.0006 8.28281C26.0006 9.1754 25.2535 9.89899 24.3319 9.89899C23.4102 9.89899 22.6631 9.1754 22.6631 8.28281C22.6631 7.39022 23.4102 6.66663 24.3319 6.66663C25.2535 6.66663 26.0006 7.39022 26.0006 8.28281ZM1.12491 13.9771C1.74618 13.9771 2.24982 13.4893 2.24982 12.8876C2.24982 12.2859 1.74618 11.7981 1.12491 11.7981C0.503639 11.7981 0 12.2859 0 12.8876C0 13.4893 0.503639 13.9771 1.12491 13.9771ZM32 12.8876C32 13.4893 31.4964 13.9771 30.8751 13.9771C30.2538 13.9771 29.7502 13.4893 29.7502 12.8876C29.7502 12.2859 30.2538 11.7981 30.8751 11.7981C31.4964 11.7981 32 12.2859 32 12.8876Z" fill="#222939"/>
</g>
<defs>
<clipPath id="clip0_64_6785">
<rect width="32" height="32" fill="white"/>
</clipPath>
</defs>
</svg>
