<svg width="146" height="24" fill="none" xmlns="http://www.w3.org/2000/svg">
    <path d="M39.034 11.584c2.914-.435 3.552-1.948 3.552-4.54v-2.73C42.586 1.444 40.293 0 35.69 0s-6.896 1.444-6.896 4.314V7.53c0 2.261.5 3.444 3.155 3.896-2.655.592-3.155 2.244-3.155 4.662v3.53c0 2.905 2.293 4.349 6.896 4.349s6.896-1.444 6.896-4.348v-3.496c0-2.662-.638-4.175-3.552-4.54zm-3.379-1.513c-1.017 0-1.517-.487-1.517-1.444V4.035c0-.939.5-1.391 1.517-1.391 1.035 0 1.552.47 1.552 1.391v4.592c0 .957-.517 1.444-1.552 1.444zm0 11.114c-1.017 0-1.517-.487-1.517-1.444v-5.2c0-.992.5-1.479 1.517-1.479 1.035 0 1.552.487 1.552 1.479v5.2c0 .957-.517 1.444-1.552 1.444zM54.766 11.584c2.916-.435 3.554-1.948 3.554-4.54v-2.73C58.32 1.444 56.025 0 51.42 0c-4.607 0-6.902 1.444-6.902 4.314V7.53c0 2.261.5 3.444 3.158 3.896-2.657.592-3.158 2.244-3.158 4.662v3.53c0 2.905 2.295 4.349 6.902 4.349 4.606 0 6.901-1.444 6.901-4.348v-3.496c0-2.662-.638-4.175-3.554-4.54zm-3.382-1.513c-1.018 0-1.518-.487-1.518-1.444V4.035c0-.939.5-1.391 1.518-1.391 1.035 0 1.553.47 1.553 1.391v4.592c.017.957-.5 1.444-1.553 1.444zm0 11.114c-1.018 0-1.518-.487-1.518-1.444v-5.2c0-.992.5-1.479 1.518-1.479 1.035 0 1.553.487 1.553 1.479v5.2c.017.957-.5 1.444-1.553 1.444z" fill="#fff"/>
    <path d="M0 .343C0 .153.153 0 .342 0h26.192c.19 0 .343.154.343.343v23.282c0 .19-.154.343-.343.343H.342A.343.343 0 0 1 0 23.625V.343z" fill="#D3B271"/>
    <path d="M1.327 1.675c0-.19.153-.343.343-.343h23.537c.189 0 .342.153.342.343v20.618c0 .19-.153.343-.342.343H1.67a.343.343 0 0 1-.343-.343V1.675z" fill="url(#a)"/>
    <path fill-rule="evenodd" clip-rule="evenodd" d="M10.384 11.891v7.55c0 .165-.043.268-.19.268-.146 0-.207-.104-.207-.268v-.997h-.374c-.268 0-1.133.666-1.682 1.09-.177.135-.32.246-.402.302-.605-.353-1.356-.705-1.919-.893l-.276.256c-.176.162-.313.289-.409.388-.036.035-.066.067-.093.095-.083.087-.13.135-.176.135-.104 0-.232-.122-.232-.23 0-.104.232-.353 1.295-1.439.728-.747 1.02-1.64 1.02-3.013 0-2.266-.977-4.203-2.102-4.203-.374 0-.563.146-.624.522-.019.188-.104.25-.189.25-.165 0-.25-.273-.25-.73 0-1.038.727-1.87 1.625-1.87.417 0 .7.183.944.341.207.135.387.25.597.223V8.15c0-.395-.147-.73-.44-.978-.25-.207-1.54-1.081-2.022-1.081-.093 0-.16.019-.22.035a.493.493 0 0 1-.135.026c-.061 0-.085-.02-.085-.061 0-.055.034-.094.127-.204l.039-.046L5.648 4.22l.042-.031c.058-.044.096-.073.166-.073.332 0 1.254.626 2.008 1.137.522.355.963.654 1.073.654.2 0 .791-.368 1.432-.766.755-.47 1.578-.982 1.905-.982.155 0 .315.128 1.383.989l.22.176.188.156c.223.187.529.442.813.615.335.207.354.25.354.644.208-.042.44-.207 1.749-1.269.373-.31 1.48-1.208 1.564-1.208.104 0 1.021.376 2.377.935.397.165.459.207.459.456V16.41c0 .353.042.48.189.602.624.54 1.002.747 1.21.747a.305.305 0 0 0 .208-.085c.104-.145.127-.164.189-.164.061 0 .127.084.127.164 0 .127-.935 1.289-1.895 2.04-.581-.206-1.583-.893-2.145-1.476-.19-.206-.227-.249-.227-.601v-7.7c0-.893.288-1.5 1.332-2.891.544-.705.582-.917.478-.917-.05 0-.522.325-.948.62-.29.199-.558.384-.659.443l-.132-.076c-1.02-.585-1.353-.775-1.933-.775-.331 0-.563.164-.563.376v12.79c0 .165-.085.292-.207.292-.105 0-.166-.103-.166-.268v-.959c-.587.096-1.101.572-1.445.891-.182.17-.317.294-.389.294-.226 0-1.583-1.622-1.583-1.749v-6.116h-2.438zm-.379-5.302c0-.419-.042-.56-.122-.56-.185 0-.856.419-.856.56v5.758c0 2.794-.318 3.128-1.04 3.885l-.042.045c-.336.353-.416.438-.666.729.44.602 1.895.874 2.731.832V6.588h-.005zm2.817 3.328h-2.438V6.424c0-.272.123-.418.354-.418.52 0 2.084 1.185 2.084 1.622v2.289zM16.24 6.96c0-.042-.019-.06-.085-.06a.537.537 0 0 0-.232.084l-.477.291c-.27.165-.354.25-.354.376V9.73c0 .146.189.25.335.25h.813V6.96zm-.794 4.89h.79v6.03c-.771-.06-1.125-.456-1.125-1.288V12.33c0-.31.108-.48.335-.48z" fill="#fff"/>
    <path opacity=".6" d="M66.24 0H66v24h.24V0z" fill="#fff"/>
    <path d="M85.068 8.257c-2.096 0-3.811 1.708-3.811 3.794 0 2.087 1.715 3.794 3.81 3.794 2.097 0 3.812-1.707 3.812-3.794.032-2.086-1.683-3.794-3.811-3.794zM106.347 16.477h-5.907V6.234h2.668v7.935h3.239v2.308zM111.27 10.407c-1.175 0-1.937.886-1.937 1.96 0 1.139.73 2.087 1.873 2.087 1.112 0 2.033-.822 2.033-1.992-.032-1.201-.889-2.055-1.969-2.055zm-4.478 2.024c0-2.277 1.683-4.3 3.97-4.3 1.016 0 1.619.348 2.35 1.012v-.854h2.445v8.22h-2.509v-.79s-.889 1.011-2.445 1.011c-2.255-.031-3.811-1.675-3.811-4.3zM122.958 16.477h-5.908V6.234h2.668v7.935h3.24v2.308zM126.578 16.477h-2.477v-8.22h2.477v8.22zm-2.731-10.275c0-.822.667-1.517 1.493-1.517.825 0 1.524.664 1.524 1.486 0 .853-.667 1.517-1.524 1.517a1.468 1.468 0 0 1-1.493-1.486zM131.787 10.25c-1.175 0-1.747.948-1.747 1.96 0 1.043.635 1.928 1.715 1.928 1.239 0 1.906-.98 1.906-1.897.031-1.107-.604-1.992-1.874-1.992zm-4.161 1.96c0-2.214 1.429-4.11 3.589-4.11 1.048 0 1.747.347 2.446 1.074v-.917h2.382v7.24c0 2.53-1.906 3.858-4.224 3.858-2.033 0-3.78-1.012-4.034-2.878h2.795c.349.57.699.664 1.302.664.858 0 1.683-.41 1.683-1.296v-.6c-.476.442-1.365.948-2.35.948-2.128.032-3.589-1.739-3.589-3.984zM141.601 10.407c-1.175 0-1.938.886-1.938 1.96 0 1.139.731 2.087 1.874 2.087 1.112 0 2.033-.822 2.033-1.992-.032-1.201-.858-2.055-1.969-2.055zm-4.478 2.024c0-2.277 1.683-4.3 3.97-4.3 1.016 0 1.619.348 2.382 1.012v-.854h2.445v8.22h-2.509v-.79s-.889 1.011-2.445 1.011c-2.287-.031-3.843-1.675-3.843-4.3z" fill="#fff"/>
    <path d="M77.096 5.444a.096.096 0 0 0 0 .126c0 .032.032.032.064.032L81.16 7.91a.097.097 0 0 0 .127 0l.032-.032v-.032a5.14 5.14 0 0 1 1.525-1.675 5.015 5.015 0 0 1 2.128-.885s.031 0 .031-.032a.24.24 0 0 0 .064-.127l-.794-4.52c0-.032 0-.032-.032-.064C84.21.512 84.18.48 84.115.48a10.364 10.364 0 0 0-4.065 1.707c-1.239.885-2.223 2.024-2.954 3.257z" fill="#893A96"/>
    <path d="M74.81 14.17c.031.031.063.063.094.063h.064l4.32-1.644c.031-.032.063-.064.063-.095v-.063a4.849 4.849 0 0 1-.35-2.245c.064-.79.286-1.55.636-2.182v-.063c0-.063-.032-.095-.064-.126L75.54 5.602h-.064c-.063 0-.095.031-.127.063a9.938 9.938 0 0 0-1.207 4.205 10.205 10.205 0 0 0 .667 4.3z" fill="#0065B1"/>
    <path d="M80.304 21.346c.032 0 .095 0 .127-.031 0-.032.032-.032.032-.064l1.365-4.394c0-.032 0-.095-.032-.127l-.031-.031h-.032a5.217 5.217 0 0 1-2-1.107 5.068 5.068 0 0 1-1.335-1.865l-.032-.032c-.031-.031-.095-.031-.127-.031l-4.255 1.802c-.032 0-.032.031-.032.031-.032.032-.032.095-.032.127.572 1.328 1.43 2.53 2.573 3.572a9.79 9.79 0 0 0 3.81 2.15z" fill="#0A9BD7"/>
    <path d="M89.324 21.568c.031-.032.063-.064.063-.127 0-.031 0-.031-.032-.063l-2.572-3.826c-.032-.031-.064-.063-.127-.063h-.064a5.29 5.29 0 0 1-2.128.854 5.537 5.537 0 0 1-2.286-.127h-.064c-.063 0-.095.032-.095.095l-1.239 4.427v.063c0 .031.032.095.095.095 1.366.379 2.89.505 4.383.252a9.684 9.684 0 0 0 4.066-1.58z" fill="#0FB05F"/>
    <path d="M95.167 14.707a.239.239 0 0 0-.063-.126c-.032 0-.032-.032-.064-.032l-4.605-.348c-.063 0-.095.032-.127.063v.064a5.392 5.392 0 0 1-.635 2.181 5.286 5.286 0 0 1-1.525 1.707l-.031.032a.096.096 0 0 0 0 .126l2.731 3.7.032.031a.097.097 0 0 0 .127 0c1.175-.854 2.16-1.96 2.922-3.288.73-1.233 1.143-2.687 1.238-4.11z" fill="#FDDC2D"/>
    <path d="M93.452 5.855c-.031-.032-.095-.032-.127-.032-.031 0-.031.032-.063.032l-3.176 3.35c-.032.032-.032.096-.032.127 0 0 0 .032.032.032.54.506 1.016 1.138 1.302 1.865.286.727.413 1.518.381 2.245v.095c.032.063.064.063.095.095l4.606.221h.063c.032-.032.064-.063.064-.095a10.382 10.382 0 0 0-.73-4.331c-.509-1.391-1.367-2.624-2.415-3.604z" fill="#F68D32"/>
    <path d="M85.354 1.745c-.032 0-.096.031-.096.094v.064l.667 4.552c0 .032.032.095.096.095h.063a5.124 5.124 0 0 1 2.287.127c.762.221 1.46.6 2 1.106l.032.032c.064 0 .096 0 .128-.032l3.017-3.478s.031-.031.031-.063c0-.031 0-.095-.031-.126a9.773 9.773 0 0 0-3.875-2.087 9.985 9.985 0 0 0-4.32-.284z" fill="#EE3435"/>
    <path d="M87.863 14.201c.063-.158.063-.348.095-.474-.064.063-.159.158-.254.221a2.17 2.17 0 0 1-.826.38l-.73-.79.54.948c-.127.253-.35.474-.604.664-.095.063-.19.126-.286.158.127.031.318.063.477.063-.381.126-.763.19-1.175.19-.413 0-.826-.064-1.176-.19.16 0 .35-.032.477-.063-.095-.063-.19-.095-.286-.158-.254-.19-.476-.411-.603-.664l.54-.949-.731.79a2.17 2.17 0 0 1-.826-.379 1.594 1.594 0 0 1-.254-.221c.032.126.032.316.095.474-.476-.6-.73-1.328-.73-2.15v-.126c.032.158.127.316.222.442.032-.094.032-.22.064-.316a2.14 2.14 0 0 1 .444-.79l1.049.221-.985-.442c-.032-.285 0-.57.095-.886.032-.095.064-.19.127-.284a3.173 3.173 0 0 0-.444.253c.476-.696 1.143-1.202 1.969-1.423-.159.095-.286.253-.381.348.095 0 .222-.032.317-.032.318 0 .635.063.89.19l.127 1.075.127-1.075c.254-.127.571-.19.889-.19.095 0 .222 0 .317.032-.095-.095-.254-.253-.38-.348a3.351 3.351 0 0 1 1.969 1.423c-.128-.127-.318-.19-.445-.253.032.095.095.19.127.284.095.316.127.601.095.886l-.984.442 1.048-.221c.19.221.349.474.444.79.032.095.064.222.064.316.063-.126.159-.284.19-.442v.126a3.303 3.303 0 0 1-.698 2.15zm-2.795-5.944c-2.096 0-3.811 1.708-3.811 3.794 0 2.087 1.715 3.794 3.81 3.794 2.097 0 3.812-1.707 3.812-3.794.032-2.086-1.683-3.794-3.811-3.794z" fill="#000"/>
    <path d="m83.543 11.577.572 1.802h1.906l.603-1.802-1.556-1.138-1.525 1.138z" fill="#000"/>
    <defs>
        <radialGradient id="a" cx="0" cy="0" r="1" gradientUnits="userSpaceOnUse" gradientTransform="matrix(43.0031 0 0 37.8241 13.971 2.457)">
            <stop stop-color="#C01617"/>
            <stop offset=".505" stop-color="#BE181B"/>
            <stop offset="1" stop-color="#C7120C"/>
        </radialGradient>
    </defs>
</svg>
