<svg width="32" height="32" viewBox="0 0 32 32" fill="none" xmlns="http://www.w3.org/2000/svg">
<path fill-rule="evenodd" clip-rule="evenodd" d="M32 3.55556C32 4.41466 31.3302 5.11111 30.504 5.11111H1.496C0.669781 5.11111 0 4.41466 0 3.55556C0 2.69645 0.669781 2 1.496 2H30.504C31.3302 2 32 2.69645 32 3.55556ZM32 28.4444C32 29.3035 31.3302 30 30.504 30H1.496C0.669781 30 0 29.3035 0 28.4444C0 27.5853 0.669781 26.8889 1.496 26.8889H30.504C31.3302 26.8889 32 27.5853 32 28.4444ZM30.4 17.5555C31.2262 17.5555 31.896 16.8591 31.896 16C31.896 15.1408 31.2262 14.4444 30.4 14.4444H11.096C10.2698 14.4444 9.60001 15.1408 9.60001 16C9.60001 16.8591 10.2698 17.5555 11.096 17.5555H30.4Z" fill="#222939"/>
</svg>
