<svg width="32" height="32" viewBox="0 0 32 32" fill="none" xmlns="http://www.w3.org/2000/svg">
<path d="M27.3109 4.68522C25.842 3.21647 24.1311 2.06365 22.2252 1.25701C20.2521 0.423485 18.158 0 15.9966 0C13.8387 0.00336099 11.7445 0.423485 9.77143 1.26037C7.86555 2.06701 6.15462 3.21983 4.68571 4.68858C3.21681 6.15734 2.06387 7.86808 1.25714 9.77376C0.42353 11.7467 0 13.8406 0 16.0017C0 18.1595 0.42353 20.2567 1.25714 22.2296C2.06387 24.1353 3.21681 25.8461 4.68571 27.3148C6.15462 28.7836 7.86555 29.9364 9.77143 30.743C11.7445 31.5765 13.8387 32 16 32C18.158 32 20.2555 31.5765 22.2286 30.743C24.1345 29.9364 25.8454 28.7836 27.3143 27.3148C28.7832 25.8461 29.9362 24.1353 30.7429 22.2296C31.5765 20.2567 32 18.1628 32 16.0017C32 13.8439 31.5765 11.7467 30.7429 9.77376C29.9328 7.86472 28.7798 6.15734 27.3109 4.68522ZM7.14286 3.61307C7.2874 3.50215 7.42857 3.38452 7.57647 3.28033C8.35294 2.73585 9.21345 2.29556 10.0874 1.92921C11.9496 1.14946 13.9731 0.739418 15.9966 0.739418C17.3445 0.739418 18.7261 0.920912 20.0269 1.27718C19.5126 1.48556 18.884 1.88216 17.8286 2.7829C16.9512 2.68879 16.0639 2.68543 15.1731 2.76946C14.0101 2.88037 12.8403 3.13917 11.6975 3.54249C10.6655 3.90547 9.84874 4.31887 9.29748 4.63481C8.45378 4.33232 7.36471 3.97605 6.82689 3.80128C6.91092 3.82817 7.08571 3.65676 7.14286 3.61307ZM21.7176 7.61265L18.9815 15.0808L12.4168 16.3411L6.9916 10.7384C7.35798 8.19746 9.09916 5.94559 9.09916 5.94559C9.10924 5.93887 10.2454 5.11879 12.0672 4.48356C13.1294 4.11049 14.2118 3.87186 15.2908 3.77103C16.1714 3.69037 17.0487 3.70381 17.916 3.808L21.7176 7.61265ZM1.32101 15.4673C1.15294 16.5529 1.11597 17.6788 1.20336 18.8115C1.07227 18.5493 0.968067 18.3276 0.890756 18.1494C0.789916 17.4469 0.739496 16.7277 0.739496 15.995C0.739496 13.7431 1.22689 11.6022 2.1042 9.67633C2.00672 10.6846 2.05378 11.7299 2.12437 12.5231C1.7479 13.4675 1.47899 14.4523 1.32101 15.4673ZM2.64874 21.2852C2.49412 20.7172 2.31261 19.8904 2.22185 18.8989C2.12101 17.7796 2.15126 16.6672 2.31933 15.6017C2.44706 14.785 2.6521 13.9918 2.93445 13.2289C4.04034 12.2945 5.50588 11.7467 6.31597 11.4946L11.6403 16.9932L11.0824 23.0194L5.87899 24.7571C4.55462 23.7824 3.47227 22.4917 2.64874 21.2852ZM18.4605 30.0103C17.3008 30.7699 14.3697 30.9514 13.1798 30.995C11.8689 30.7497 10.595 30.3296 9.39493 29.7515C8.34619 29.2473 7.35123 28.6222 6.44366 27.8895C6.46047 27.8593 6.30249 26.256 6.30921 25.6713L11.5664 23.9168L17.6336 26.5417L18.4705 30.0002C18.4639 30.007 18.4605 30.0103 18.4605 30.0103ZM28.5412 24.6898C27.637 25.9939 26.5546 27.2072 25.2538 28.1281C24.0336 28.9886 22.4 29.2843 20.9479 29.523C20.837 29.5398 19.4487 29.7683 19.4387 29.7212L18.6017 26.2594L22.874 21.8128L28.5311 21.2919C28.6185 22.1927 28.7328 23.5068 28.8 24.3101C28.7126 24.4378 28.6286 24.5655 28.5412 24.6898ZM28.6286 20.1659C28.6084 20.1996 28.5882 20.2365 28.5681 20.2769L22.9345 20.7944L19.9025 15.4908L22.6454 8.00588L26.5176 8.25123C27.3412 8.94024 28.0706 9.70654 28.6891 10.5333C29.4622 11.5719 30.0639 12.7113 30.474 13.9179C30.0437 17.6553 29.0521 19.5172 28.6286 20.1659ZM30.6487 11.7567C30.316 11.1148 29.9261 10.4964 29.4857 9.9082C28.7899 8.97721 27.963 8.12016 27.0252 7.35721C26.8538 6.50688 26.3832 5.16921 25.1193 3.76431C25.1429 3.78112 25.1664 3.80128 25.19 3.81809C25.2673 3.87522 25.3412 3.93572 25.4185 3.99286C26.2891 4.6785 27.0824 5.45489 27.7849 6.30858C29.0891 7.89833 30.074 9.74351 30.6521 11.7231C30.6487 11.7366 30.6487 11.7467 30.6487 11.7567Z" fill="#222939"/>
</svg>
