<svg width="80" height="32" viewBox="0 0 80 32" fill="none" xmlns="http://www.w3.org/2000/svg">
<path d="M1.19104 0.335809C1.19104 0.150347 1.34093 0 1.52583 0H27.1375C27.3224 0 27.4723 0.150347 27.4723 0.33581V23.1289C27.4723 23.3144 27.3224 23.4647 27.1375 23.4647H1.52583C1.34093 23.4647 1.19104 23.3144 1.19104 23.1289V0.335809Z" fill="#D3B271"/>
<path d="M2.48865 1.63903C2.48865 1.45357 2.63854 1.30322 2.82344 1.30322H25.8394C26.0243 1.30322 26.1742 1.45357 26.1742 1.63903V21.8249C26.1742 22.0104 26.0243 22.1607 25.8394 22.1607H2.82344C2.63854 22.1607 2.48865 22.0104 2.48865 21.8249V1.63903Z" fill="url(#paint0_radial_2257_5881)"/>
<path fill-rule="evenodd" clip-rule="evenodd" d="M11.3448 11.6422V19.0332C11.3448 19.1943 11.3032 19.2955 11.16 19.2955C11.0167 19.2955 10.9566 19.1943 10.9566 19.0332V18.0576H10.5915C10.3291 18.0576 9.48365 18.7094 8.94618 19.1238C8.77387 19.2566 8.63321 19.3651 8.55356 19.4198C7.96204 19.0746 7.22725 18.7295 6.67732 18.5454C6.57908 18.6373 6.489 18.7206 6.40737 18.7961L6.40709 18.7963L6.4068 18.7966L6.4067 18.7967L6.40665 18.7968L6.40662 18.7968L6.40658 18.7968C6.23515 18.9553 6.10108 19.0793 6.00723 19.1759C5.9722 19.2108 5.94214 19.2421 5.91583 19.2695C5.83459 19.3541 5.7892 19.4014 5.74382 19.4014C5.64215 19.4014 5.51738 19.2817 5.51738 19.1759C5.51738 19.0746 5.74382 18.8307 6.78361 17.7676C7.49529 17.0359 7.78181 16.1615 7.78181 14.8177C7.78181 12.5994 6.8252 10.7034 5.72534 10.7034C5.36025 10.7034 5.1754 10.846 5.11533 11.2142C5.09684 11.3983 5.01366 11.4581 4.93047 11.4581C4.76873 11.4581 4.68555 11.1912 4.68555 10.7448C4.68555 9.72771 5.39722 8.91314 6.27527 8.91314C6.6831 8.91314 6.95953 9.09255 7.19843 9.24762C7.4008 9.37896 7.57624 9.49283 7.78181 9.46539V7.9789C7.78181 7.59232 7.63855 7.26557 7.35203 7.02166C7.1071 6.81917 5.84549 5.96317 5.37412 5.96317C5.2839 5.96317 5.21812 5.98178 5.15995 5.99825C5.11383 6.0113 5.07248 6.023 5.02752 6.023C4.96745 6.023 4.94434 6.00459 4.94434 5.96317C4.94434 5.91011 4.97706 5.87153 5.06828 5.76395L5.10608 5.71926L6.71429 4.13152C6.72905 4.12091 6.74235 4.11087 6.75471 4.10155C6.81205 4.0583 6.8492 4.03027 6.91763 4.03027C7.24263 4.03027 8.14384 4.64267 8.88106 5.14364C9.39129 5.49035 9.82296 5.78369 9.9307 5.78369C10.1258 5.78369 10.7041 5.42329 11.3301 5.03322C12.0685 4.57311 12.8732 4.07169 13.1933 4.07169C13.3452 4.07169 13.5012 4.19754 14.5457 5.04024L14.5458 5.04026L14.7599 5.21302C14.8104 5.25299 14.8734 5.30571 14.9452 5.36583L14.9452 5.36585C15.1628 5.54803 15.4617 5.79823 15.7397 5.96777C16.0678 6.17027 16.0863 6.21168 16.0863 6.59826C16.2896 6.55684 16.516 6.39577 17.7961 5.35569C18.1612 5.05195 19.2426 4.17294 19.3258 4.17294C19.4274 4.17294 20.324 4.54111 21.6503 5.08876C22.0385 5.24984 22.0985 5.29126 22.0985 5.53517V16.0649C22.0985 16.41 22.1401 16.5343 22.2834 16.6539C22.8934 17.1832 23.2631 17.3857 23.4664 17.3857C23.5265 17.3857 23.6097 17.3627 23.6698 17.3028C23.7715 17.1602 23.7946 17.1418 23.8546 17.1418C23.9147 17.1418 23.9794 17.2246 23.9794 17.3028C23.9794 17.4271 23.0644 18.5638 22.1263 19.3001C21.5579 19.0977 20.5781 18.4257 20.0282 17.8551C19.8434 17.6526 19.8064 17.6112 19.8064 17.266V9.72771C19.8064 8.85331 20.0883 8.25963 21.1096 6.8974C21.641 6.20708 21.678 5.99999 21.5763 5.99999C21.5268 5.99999 21.0657 6.31841 20.6491 6.60606L20.6491 6.60607L20.6491 6.6061C20.3663 6.80133 20.1041 6.98239 20.0051 7.04007L19.876 6.96603C18.8784 6.39361 18.5533 6.20708 17.9856 6.20708C17.6621 6.20708 17.4357 6.36816 17.4357 6.57525V19.0977C17.4357 19.2587 17.3525 19.383 17.2323 19.383C17.1307 19.383 17.0706 19.2817 17.0706 19.1207V18.1818C16.4966 18.2751 15.9938 18.742 15.6575 19.0542L15.6575 19.0542C15.4793 19.2196 15.348 19.3416 15.2775 19.3416C15.0557 19.3416 13.7294 17.7538 13.7294 17.6296V11.6422H11.3448ZM10.9752 6.45101C10.9752 6.04142 10.9336 5.90336 10.855 5.90336C10.6748 5.90336 10.0185 6.31294 10.0185 6.45101V12.0886C10.0185 14.824 9.70736 15.151 9.00213 15.892L8.96027 15.936C8.63216 16.2812 8.5536 16.364 8.30867 16.6493C8.73845 17.2384 10.1618 17.5053 10.9798 17.4639V6.45101H10.9752ZM13.7294 9.7088H11.3448V6.28941C11.3448 6.02249 11.465 5.87982 11.6914 5.87982C12.1998 5.87982 13.7294 7.03956 13.7294 7.46756V9.7088ZM17.0704 6.81458C17.0704 6.77316 17.0519 6.75476 16.9872 6.75476C16.9272 6.75476 16.8255 6.79618 16.7608 6.83759L16.2941 7.12293C16.0307 7.284 15.9476 7.36684 15.9476 7.4911V9.52524C15.9476 9.66791 16.1324 9.76915 16.2756 9.76915H17.0704V6.81458ZM16.2942 11.6008H17.0658V17.5054C16.3126 17.4455 15.9661 17.059 15.9661 16.2444V12.0702C15.9661 11.7665 16.0724 11.6008 16.2942 11.6008Z" fill="white"/>
<path d="M8.6386 26.3003C9.1922 26.3003 9.6146 26.71 9.6146 27.238C9.6146 27.7661 9.1922 28.1726 8.6386 28.1726C8.085 28.1726 7.6626 27.7661 7.6626 27.238C7.6626 26.71 8.085 26.3003 8.6386 26.3003ZM8.6386 27.8013C8.9458 27.8013 9.1826 27.5581 9.1826 27.238C9.1826 26.918 8.9458 26.6747 8.6386 26.6747C8.3314 26.6747 8.0946 26.918 8.0946 27.238C8.0946 27.5581 8.3314 27.8013 8.6386 27.8013Z" fill="white"/>
<path d="M10.1554 26.332H11.2818V26.7001H10.5842V27.0873H11.221V27.4554H10.5842V28.1435H10.1554V26.332Z" fill="white"/>
<path d="M11.813 26.332H12.9394V26.7001H12.2418V27.0873H12.8786V27.4554H12.2418V28.1435H11.813V26.332Z" fill="white"/>
<path d="M13.9026 26.332V28.1435H13.4738V26.332H13.9026Z" fill="white"/>
<path d="M14.4497 27.238C14.4497 26.71 14.8721 26.3003 15.4257 26.3003C15.6721 26.3003 15.8865 26.3803 16.0593 26.5147L15.8417 26.8316C15.7265 26.742 15.5921 26.6715 15.4257 26.6715C15.1185 26.6715 14.8817 26.9148 14.8817 27.2348C14.8817 27.5549 15.1185 27.7981 15.4257 27.7981C15.5889 27.7981 15.7457 27.7213 15.8577 27.6221L16.0849 27.9357C15.9089 28.0862 15.6817 28.1694 15.4289 28.1694C14.8753 28.1726 14.4497 27.7661 14.4497 27.238Z" fill="white"/>
<path d="M17.0418 26.332V28.1435H16.613V26.332H17.0418Z" fill="white"/>
<path d="M18.6257 26.332L19.2529 28.1435H18.8049L18.6865 27.7658H18.0945L17.9761 28.1435H17.5281L18.1553 26.332H18.6257ZM18.3921 26.7833L18.1905 27.4298H18.5905L18.3921 26.7833Z" fill="white"/>
<path d="M19.7332 26.332H20.162V27.7722H20.8564V28.1435H19.7332V26.332V26.332Z" fill="white"/>
<path d="M0.665601 29.5418C1.0432 29.5418 1.3056 29.7786 1.3056 30.1307C1.3056 30.3867 1.1712 30.5787 0.9472 30.6619L1.3536 31.35H0.8896L0.5312 30.7195H0.4224V31.35H0V29.5386H0.665601V29.5418ZM0.4224 29.8842V30.3995H0.624C0.7872 30.3995 0.8832 30.2907 0.8832 30.1435C0.8832 29.9898 0.7872 29.8874 0.624 29.8874H0.4224V29.8842Z" fill="white"/>
<path d="M1.85608 29.5415H3.00808V29.9032H2.28488V30.2616H2.94728V30.6169H2.28488V30.9881H3.03048V31.3498H1.85608V29.5415Z" fill="white"/>
<path d="M3.93593 30.4539C3.93593 30.7739 4.17273 31.0236 4.47993 31.0236C4.55993 31.0236 4.64953 31.0012 4.71353 30.9628V30.6587H4.35833V30.3291H5.14233V31.1388C4.96953 31.2892 4.73593 31.382 4.47673 31.382C3.92313 31.382 3.50073 30.9724 3.50073 30.4475C3.50073 29.9194 3.92313 29.5098 4.47673 29.5098C4.72313 29.5098 4.93753 29.5898 5.11033 29.7242L4.89273 30.041C4.77753 29.9514 4.64313 29.881 4.47673 29.881C4.17273 29.8842 3.93593 30.1275 3.93593 30.4539Z" fill="white"/>
<path d="M6.18246 29.5415V31.353H5.75366V29.5415H6.18246Z" fill="white"/>
<path d="M7.70868 29.5098C8.26228 29.5098 8.68469 29.9194 8.68469 30.4475C8.68469 30.9756 8.26228 31.382 7.70868 31.382C7.15508 31.382 6.73268 30.9724 6.73268 30.4475C6.72948 29.9194 7.15508 29.5098 7.70868 29.5098ZM7.70868 31.0108C8.01588 31.0108 8.25269 30.7675 8.25269 30.4475C8.25269 30.1275 8.01588 29.8842 7.70868 29.8842C7.40148 29.8842 7.16468 30.1275 7.16468 30.4475C7.16148 30.7675 7.39828 31.0108 7.70868 31.0108Z" fill="white"/>
<path d="M9.22559 29.5415H9.67679L10.288 30.6937V29.5415H10.6848V31.353H10.2336L9.62239 30.2008V31.353H9.22559V29.5415Z" fill="white"/>
<path d="M12.2593 29.5415L12.8865 31.353H12.4385L12.3201 30.9753H11.7217L11.6033 31.353H11.1553L11.7825 29.5415H12.2593ZM12.0257 29.9928L11.8241 30.6393H12.2241L12.0257 29.9928Z" fill="white"/>
<path d="M13.3665 29.5415H13.7953V30.9817H14.4897V31.353H13.3665V29.5415Z" fill="white"/>
<path d="M16.4415 30.7486V31.3535H16.0127V29.542H16.6815C17.0623 29.542 17.3215 29.7916 17.3215 30.1437C17.3215 30.4957 17.0623 30.7454 16.6815 30.7454H16.4415V30.7486ZM16.6367 29.8844H16.4415V30.4061H16.6367C16.7999 30.4061 16.8991 30.3005 16.8991 30.1437C16.8991 29.9869 16.7999 29.8844 16.6367 29.8844Z" fill="white"/>
<path d="M18.7808 29.542L19.408 31.3535H18.96L18.8416 30.9758H18.2432L18.1248 31.3535H17.6768L18.304 29.542H18.7808ZM18.544 29.9933L18.3424 30.6398H18.7424L18.544 29.9933Z" fill="white"/>
<path d="M20.5568 29.5428C20.9344 29.5428 21.1968 29.7796 21.1968 30.1316C21.1968 30.3877 21.0624 30.5797 20.8384 30.6629L21.2448 31.351H20.7808L20.4224 30.7205H20.3168V31.351H19.8944V29.5396H20.5568V29.5428ZM20.3104 29.8852V30.4005H20.512C20.6752 30.4005 20.7712 30.2917 20.7712 30.1444C20.7712 29.9908 20.6752 29.8884 20.512 29.8884H20.3104V29.8852Z" fill="white"/>
<path d="M22.0638 29.9132H21.619V29.542H22.9342V29.9132H22.4894V31.3535H22.0606V29.9132H22.0638Z" fill="white"/>
<path d="M23.4431 29.542H23.8943L24.5055 30.6942V29.542H24.9023V31.3535H24.4511L23.8399 30.2013V31.3535H23.4431V29.542Z" fill="white"/>
<path d="M25.5358 29.542H26.6878V29.9036H25.9646V30.2621H26.627V30.6173H25.9646V30.9886H26.7134V31.3503H25.5358V29.542V29.542Z" fill="white"/>
<path d="M27.9487 29.5428C28.3263 29.5428 28.5887 29.7796 28.5887 30.1316C28.5887 30.3877 28.4543 30.5797 28.2303 30.6629L28.6367 31.351H28.1727L27.8143 30.7205H27.7055V31.351H27.2831V29.5396H27.9487V29.5428ZM27.7023 29.8852V30.4005H27.9039C28.0671 30.4005 28.1631 30.2917 28.1631 30.1444C28.1631 29.9908 28.0671 29.8884 27.9039 29.8884H27.7023V29.8852Z" fill="white"/>
<path opacity="0.6" d="M34.6273 0H34.3073V32H34.6273V0Z" fill="white"/>
<path d="M48.6519 9.63436C49.1178 8.95189 49.8303 8.436 50.6343 8.21436C50.4913 8.31162 50.3717 8.43573 50.2529 8.55901C50.6665 8.50614 51.0962 8.55381 51.4796 8.72011C51.529 9.08038 51.5556 9.44394 51.6136 9.80285C51.6611 9.4423 51.6972 9.08038 51.7424 8.71956C52.1166 8.55956 52.5367 8.50312 52.9403 8.55956L52.9675 8.58093C52.9683 8.57463 52.97 8.5623 52.9708 8.55627C52.8462 8.43847 52.7304 8.31025 52.5863 8.21463C53.3892 8.43682 54.1018 8.95107 54.567 9.63326C54.4304 9.5297 54.2744 9.4571 54.1201 9.38422C54.2977 9.75326 54.3877 10.1686 54.3447 10.5771C54.0079 10.7316 53.6656 10.8752 53.3328 11.0379C53.6965 10.9735 54.0573 10.8944 54.4196 10.8242C54.703 11.1316 54.8801 11.5231 54.9606 11.9286C55.0403 11.785 55.1192 11.6401 55.1688 11.4834C55.1969 12.2875 54.9304 13.0971 54.4293 13.7313C54.4748 13.579 54.499 13.422 54.5204 13.2653C54.2186 13.5464 53.8453 13.7568 53.4383 13.8456C53.1818 13.5752 52.9353 13.2952 52.6727 13.0305C52.8495 13.3555 53.0394 13.6733 53.2215 13.9952C53.0105 14.3541 52.6893 14.6431 52.321 14.8401C52.4789 14.8683 52.638 14.8938 52.799 14.8985C52.0364 15.1667 51.1809 15.1659 50.4183 14.8976C50.5804 14.8944 50.7406 14.8683 50.8999 14.8401C50.5316 14.6431 50.2104 14.3541 49.9994 13.9949C50.181 13.6733 50.3719 13.3563 50.5471 13.0313C50.2839 13.296 50.0391 13.5782 49.7793 13.8461C49.3745 13.7544 49.0009 13.5472 48.7011 13.265C48.7219 13.4231 48.7455 13.5812 48.7921 13.7344C48.2908 13.0987 48.0229 12.2889 48.0507 11.4834C48.1026 11.6409 48.1817 11.787 48.2616 11.9319C48.3371 11.5239 48.519 11.1322 48.8016 10.8234C49.1641 10.8933 49.525 10.9724 49.8886 11.0371C49.5561 10.8735 49.213 10.7308 48.8762 10.5757C48.8338 10.1681 48.9229 9.75299 49.1008 9.38449C48.9454 9.45682 48.7891 9.53079 48.6519 9.63436V9.63436ZM51.6103 9.96614C51.0895 10.3401 50.5679 10.7133 50.0466 11.0864C50.2451 11.6919 50.4452 12.2965 50.6445 12.9018C51.2897 12.9004 51.9348 12.9039 52.58 12.8998C52.7757 12.2941 52.98 11.6911 53.1751 11.085C52.6524 10.7135 52.1325 10.3382 51.6103 9.96614V9.96614Z" fill="white"/>
<path d="M50.6307 0H50.7073C50.75 0.0367123 50.7903 0.079452 50.7945 0.13863C51.0762 1.63507 51.3602 3.13123 51.6411 4.62794C51.6658 4.70329 51.622 4.79288 51.5387 4.80301C50.9666 4.90438 50.4091 5.09233 49.8998 5.36986C49.0509 5.82822 48.3302 6.51863 47.8514 7.34931C47.8211 7.40192 47.7808 7.46246 47.7112 7.46027C47.6185 7.44219 47.5427 7.38219 47.4616 7.33863C46.1799 6.60356 44.898 5.86931 43.6158 5.13507C43.5616 5.10575 43.5072 5.05315 43.523 4.98603C43.5547 4.89096 43.6183 4.81068 43.6671 4.72438C44.6643 3.09014 46.1455 1.75205 47.8761 0.904657C48.7449 0.476164 49.6763 0.17589 50.6307 0V0Z" fill="#951B80"/>
<path d="M53.2109 1.13083C54.6242 1.09439 56.0441 1.35247 57.3533 1.87877C58.3609 2.28425 59.3034 2.84781 60.1328 3.54316C60.1792 3.58316 60.2303 3.61932 60.2694 3.66699C60.3052 3.7248 60.2841 3.7985 60.2372 3.84343C59.2273 4.99275 58.2174 6.14206 57.2081 7.29165C57.1767 7.3248 57.1412 7.36343 57.0912 7.36206C57.0276 7.36617 56.9838 7.31384 56.9385 7.27877C55.794 6.29494 54.2042 5.84042 52.704 6.06973C52.6471 6.07521 52.5813 6.09686 52.5319 6.05768C52.4908 6.03412 52.4792 5.98535 52.4731 5.94233C52.2568 4.50124 52.0411 3.05987 51.8249 1.61877C51.8138 1.53576 51.7952 1.45329 51.7916 1.36946C51.7893 1.30672 51.8443 1.25466 51.9054 1.24782C52.3373 1.18014 52.7737 1.14288 53.2109 1.13083V1.13083Z" fill="#E40613"/>
<path d="M41.8079 5.10535C41.8601 5.07439 41.9203 5.09165 41.9694 5.11932C43.3355 5.84343 44.7035 6.56453 46.0693 7.28946C46.1562 7.32863 46.1553 7.43987 46.1032 7.50726C45.3686 8.82589 45.2606 10.4645 45.8172 11.8656C45.8358 11.9245 45.8775 11.9889 45.8433 12.05C45.8108 12.1127 45.7326 12.1248 45.6732 12.1516C44.2538 12.6889 42.8358 13.2295 41.4167 13.7673C41.3571 13.7941 41.2768 13.7897 41.2394 13.7303C41.1924 13.641 41.1636 13.5434 41.1264 13.4497C40.3707 11.4163 40.3113 9.14178 40.9493 7.07028C41.1466 6.42206 41.412 5.79439 41.7354 5.19768C41.7551 5.16425 41.7732 5.12644 41.8079 5.10535V5.10535Z" fill="#01509F"/>
<path d="M59.9353 5.35712C59.9883 5.32506 60.0539 5.34917 60.0947 5.38944C61.2917 6.48944 62.208 7.8815 62.7518 9.40314C63.1138 10.4081 63.3062 11.4697 63.3384 12.5352V13.079C63.3315 13.1741 63.3331 13.2705 63.3142 13.3645C63.2901 13.4338 63.2099 13.4505 63.1444 13.444C61.5981 13.3683 60.0514 13.2977 58.5051 13.2207C58.4099 13.2237 58.3591 13.1256 58.3766 13.0423C58.466 11.5453 57.8544 10.0251 56.7493 8.99629C56.7055 8.95246 56.6502 8.91218 56.6322 8.85054C56.6216 8.79273 56.6627 8.74616 56.6991 8.7067C57.7223 7.64396 58.745 6.5804 59.7676 5.51712C59.8221 5.4626 59.8706 5.4004 59.9353 5.35712V5.35712Z" fill="#F28800"/>
<path d="M51.1144 7.80327C52.2223 7.6567 53.3854 8.01506 54.209 8.76136C54.9344 9.4041 55.3972 10.3266 55.4699 11.2866C55.5521 12.2523 55.2398 13.243 54.6171 13.9923C53.9922 14.757 53.0592 15.2674 52.0699 15.3792C50.9859 15.5123 49.853 15.1638 49.0404 14.4427C48.3056 13.8049 47.8326 12.8825 47.7524 11.9194C47.6749 11.0685 47.9001 10.1945 48.3809 9.48382C48.9899 8.56903 50.0129 7.93643 51.1144 7.80327V7.80327ZM48.6521 9.63396C48.7892 9.5304 48.9455 9.45643 49.101 9.3841C48.923 9.75259 48.8339 10.1677 48.8764 10.5753C49.2131 10.7304 49.5562 10.8731 49.8888 11.0367C49.5251 10.972 49.1643 10.8929 48.8017 10.823C48.5191 11.1318 48.3373 11.5235 48.2618 11.9315C48.1818 11.7866 48.1027 11.6405 48.0508 11.483C48.0231 12.2885 48.2909 13.0983 48.7923 13.734C48.7456 13.5808 48.722 13.4227 48.7012 13.2646C49.001 13.5468 49.3747 13.754 49.7794 13.8457C50.0392 13.5778 50.2841 13.2956 50.5473 13.0309C50.3721 13.3559 50.1811 13.6729 49.9996 13.9945C50.2105 14.3537 50.5317 14.6427 50.9001 14.8397C50.7407 14.8679 50.5806 14.894 50.4184 14.8972C51.181 15.1655 52.0366 15.1663 52.7991 14.8981C52.6381 14.8934 52.4791 14.8679 52.3211 14.8397C52.6895 14.6427 53.0107 14.3537 53.2216 13.9948C53.0395 13.6729 52.8497 13.3551 52.6728 13.0301C52.9354 13.2948 53.1819 13.5748 53.4384 13.8452C53.8454 13.7564 54.2188 13.546 54.5205 13.2649C54.4991 13.4216 54.475 13.5786 54.4295 13.7309C54.9305 13.0967 55.197 12.2871 55.169 11.483C55.1193 11.6397 55.0405 11.7846 54.9608 11.9282C54.8803 11.5227 54.7032 11.1312 54.4197 10.8238C54.0575 10.894 53.6966 10.9731 53.3329 11.0375C53.6658 10.8748 54.0081 10.7312 54.3448 10.5767C54.3878 10.1682 54.2979 9.75286 54.1202 9.38382C54.2746 9.4567 54.4306 9.5293 54.5672 9.63286C54.1019 8.95067 53.3893 8.43643 52.5865 8.21423C52.7306 8.30985 52.8463 8.43807 52.971 8.55588C52.9701 8.5619 52.9685 8.57423 52.9676 8.58053L52.9404 8.55916C52.5368 8.50273 52.1168 8.55916 51.7426 8.71916C51.6973 9.07999 51.6613 9.4419 51.6138 9.80245C51.5558 9.44355 51.5291 9.07999 51.4797 8.71971C51.0963 8.55341 50.6666 8.50574 50.253 8.55862C50.3718 8.43533 50.4915 8.31122 50.6344 8.21396C49.8305 8.4356 49.1179 8.95149 48.6521 9.63396V9.63396Z" fill="#1D1D1B"/>
<path d="M51.6107 9.96582C52.1329 10.3379 52.6528 10.7132 53.1755 11.0847C52.9804 11.6908 52.7761 12.2938 52.5804 12.8995C51.9352 12.9036 51.2901 12.9001 50.6449 12.9014C50.4456 12.2962 50.2455 11.6916 50.047 11.0861C50.5683 10.7129 51.0899 10.3398 51.6107 9.96582V9.96582Z" fill="#1D1D1B"/>
<path d="M44.6657 13.1866C44.754 13.1357 44.8515 13.199 44.8748 13.2886C45.4735 14.6902 46.7288 15.7973 48.2062 16.2302C48.2953 16.2433 48.365 16.3291 48.3273 16.4173C47.867 17.8787 47.4042 19.3395 46.9423 20.8001C46.9265 20.8907 46.8257 20.9362 46.743 20.8979C45.5746 20.5464 44.4717 19.9847 43.5034 19.2496C42.1007 18.1902 40.9831 16.7658 40.2977 15.1592V15.0962C40.3258 15.0502 40.3677 15.0149 40.419 14.9962C41.8353 14.3949 43.2494 13.7877 44.6657 13.1866V13.1866Z" fill="#0090D7"/>
<path d="M56.9901 13.7641C57.0245 13.7578 57.0595 13.7567 57.095 13.7605C58.6312 13.8805 60.1677 13.997 61.704 14.1159C61.7892 14.1126 61.8586 14.1898 61.8411 14.2737C61.7029 16.2561 60.9436 18.1879 59.7058 19.7537C59.1137 20.506 58.413 21.1748 57.6316 21.7337C57.5703 21.7874 57.4714 21.7674 57.4301 21.7002C56.5476 20.5148 55.6657 19.3287 54.7837 18.1427C54.7343 18.069 54.6619 18.0052 54.6402 17.9175C54.6274 17.8372 54.7043 17.7926 54.7596 17.752C55.9796 16.8761 56.7797 15.4602 56.8946 13.9759C56.8993 13.8986 56.8971 13.7909 56.9901 13.7641V13.7641Z" fill="#FEED01"/>
<path d="M53.163 17.0567C53.2324 17.0233 53.3054 17.0728 53.3382 17.1328C54.2001 18.4013 55.0654 19.6676 55.9268 20.9364C56.0003 21.0265 55.9204 21.1328 55.8307 21.1706C53.8725 22.4726 51.4494 23.0674 49.1015 22.8334C48.5032 22.7748 47.91 22.6657 47.3315 22.5049C47.2527 22.4901 47.2082 22.4019 47.2374 22.3298C47.6488 20.8534 48.0632 19.3778 48.4758 17.9019C48.4905 17.8087 48.5965 17.7652 48.6792 17.8046C49.8271 18.1287 51.0843 18.0471 52.1825 17.5865C52.5284 17.4465 52.8507 17.2575 53.163 17.0567V17.0567Z" fill="#00963F"/>
<path d="M40.3742 25.4349C40.8242 25.4343 41.2741 25.4346 41.7241 25.4349C41.7238 26.7538 41.7244 28.0727 41.7241 29.3919C42.2682 29.3921 42.8123 29.3916 43.3564 29.3921C43.3564 29.7806 43.3578 30.1694 43.3558 30.5579C42.362 30.5582 41.3685 30.5582 40.375 30.5579C40.3731 28.8502 40.3747 27.1426 40.3742 25.4349V25.4349Z" fill="white"/>
<path d="M48.7664 25.4336C49.2163 25.4341 49.6663 25.4339 50.1163 25.4339C50.1166 26.753 50.1163 28.072 50.1166 29.3911C50.6607 29.3928 51.2051 29.3878 51.7494 29.3936C51.7483 29.781 51.7494 30.1684 51.7489 30.5558C50.7548 30.5555 49.7604 30.5555 48.7664 30.5555C48.7664 28.8484 48.7661 27.141 48.7664 25.4336V25.4336Z" fill="white"/>
<path d="M44.4615 26.7393C44.7949 26.4941 45.2113 26.3617 45.6271 26.3716C45.8759 26.3738 46.1265 26.4289 46.3442 26.5497C46.5043 26.6357 46.6456 26.7508 46.7814 26.8697C46.7811 26.7302 46.7814 26.5911 46.7814 26.4519C47.1961 26.4516 47.6109 26.4516 48.0256 26.4519C48.0253 27.8201 48.0259 29.188 48.0253 30.5563C47.6045 30.5565 47.1836 30.5563 46.7628 30.5563C46.7622 30.4242 46.762 30.2922 46.7628 30.1604C46.4272 30.4848 45.9575 30.6683 45.4878 30.6574C45.0525 30.6538 44.6103 30.5182 44.2769 30.2363C43.9488 29.965 43.7406 29.5735 43.6479 29.1653C43.5715 28.8204 43.5532 28.4601 43.6157 28.1119C43.7137 27.573 44.0129 27.0656 44.4615 26.7393V26.7393ZM45.5872 27.5505C45.382 27.5974 45.1924 27.7127 45.0636 27.8779C44.8129 28.1963 44.798 28.6527 44.9651 29.0119C45.0789 29.262 45.3112 29.4596 45.5852 29.5165C46.0036 29.6078 46.4794 29.4217 46.6898 29.0464C46.9341 28.622 46.8386 28.0193 46.4388 27.7187C46.2012 27.5363 45.8773 27.4842 45.5872 27.5505V27.5505Z" fill="white"/>
<path d="M55.0572 26.5929C55.4439 26.3675 55.9211 26.3198 56.3547 26.4198C56.6667 26.4908 56.9343 26.6825 57.1514 26.9091C57.1511 26.7565 57.1511 26.6036 57.1517 26.451C57.5522 26.4513 57.9531 26.4508 58.3539 26.4513C58.3542 27.4962 58.3539 28.5412 58.3539 29.5864C58.3492 29.8688 58.3703 30.1535 58.3248 30.4338C58.2612 30.8507 58.0486 31.2475 57.7177 31.5173C57.3401 31.8313 56.8446 31.9749 56.3577 31.9992H56.1043C55.689 31.9781 55.2695 31.8784 54.915 31.6573C54.5245 31.4225 54.2427 31.0173 54.1819 30.5677C54.6519 30.5677 55.1219 30.5672 55.5918 30.568C55.6526 30.6538 55.7154 30.7423 55.8053 30.8012C55.9538 30.9012 56.1429 30.9047 56.3164 30.9009C56.5695 30.8886 56.8474 30.8064 56.9979 30.5907C57.1294 30.4036 57.0959 30.1647 57.0931 29.9505C56.8402 30.1601 56.5409 30.3201 56.217 30.3894C55.8561 30.4634 55.4713 30.4113 55.1402 30.2538C54.6935 30.042 54.3687 29.6275 54.2188 29.1672C54.0517 28.6557 54.0642 28.0891 54.2488 27.5839C54.3973 27.1781 54.6763 26.8113 55.0572 26.5929V26.5929ZM55.9397 27.4705C55.6662 27.5447 55.4619 27.7781 55.3822 28.0412C55.2704 28.4001 55.3145 28.8288 55.5724 29.1179C55.8228 29.3992 56.2619 29.4423 56.5978 29.2984C56.8024 29.2113 56.9682 29.0444 57.0609 28.8455C57.1919 28.5718 57.1825 28.2455 57.0714 27.9672C56.9873 27.756 56.813 27.5814 56.5967 27.5023C56.3883 27.4266 56.1542 27.4124 55.9397 27.4705Z" fill="white"/>
<path d="M59.7975 26.7235C60.2311 26.4122 60.8027 26.2966 61.3246 26.4191C61.6211 26.49 61.8737 26.6711 62.0963 26.8703C62.096 26.7306 62.096 26.5911 62.0963 26.4517C62.5102 26.4517 62.9244 26.4517 63.3386 26.452V30.5566C62.9174 30.5563 62.4963 30.5566 62.0755 30.5563C62.0755 30.4246 62.0749 30.2931 62.0758 30.1615C61.9273 30.3024 61.7557 30.4196 61.5672 30.5024C61.0792 30.7215 60.4993 30.701 60.0107 30.4952C59.5621 30.3059 59.2185 29.9163 59.053 29.4673C58.8903 29.0268 58.8495 28.5413 58.9356 28.0805C59.0397 27.5443 59.3456 27.0426 59.7975 26.7235V26.7235ZM60.8835 27.555C60.7058 27.5988 60.5412 27.6939 60.4191 27.8289C60.1384 28.1363 60.1048 28.6065 60.2639 28.9783C60.3624 29.2144 60.5606 29.4122 60.8088 29.492C61.223 29.6257 61.7216 29.4692 61.9647 29.1076C62.2518 28.6887 62.1746 28.0547 61.7718 27.7336C61.5278 27.5358 61.1858 27.4802 60.8835 27.555V27.555Z" fill="white"/>
<path d="M52.7731 24.6725C52.9802 24.6273 53.2061 24.6665 53.3807 24.787C53.6061 24.9369 53.7352 25.2144 53.7008 25.481C53.6708 25.7892 53.429 26.0627 53.1242 26.1344C52.8588 26.2051 52.5563 26.1205 52.3764 25.9136C52.1579 25.6731 52.1252 25.292 52.2967 25.0175C52.4 24.8454 52.5754 24.7172 52.7731 24.6725Z" fill="white"/>
<path d="M52.3076 26.4524C52.7265 26.4521 53.1451 26.4521 53.564 26.4524V30.5567C53.1454 30.5567 52.7265 30.557 52.3079 30.5567C52.3073 29.1885 52.3079 27.8206 52.3076 26.4524Z" fill="white"/>
<defs>
<radialGradient id="paint0_radial_2257_5881" cx="0" cy="0" r="1" gradientUnits="userSpaceOnUse" gradientTransform="translate(14.8527 2.40484) scale(42.0507 37.0298)">
<stop stop-color="#C01617"/>
<stop offset="0.5051" stop-color="#BE181B"/>
<stop offset="1" stop-color="#C7120C"/>
</radialGradient>
</defs>
</svg>
