<svg width="192" height="48" xmlns="http://www.w3.org/2000/svg" xmlns:xlink="http://www.w3.org/1999/xlink" viewBox="0 0 346.966 79.699"><defs><style>.cls-1,.cls-11{fill:#fff;}.cls-2{fill:#893a96;}.cls-3{fill:#0065b1;}.cls-4{fill:#0a9bd7;}.cls-5{fill:#0fb05f;}.cls-6{fill:#fddc2d;}.cls-7{fill:#f68d32;}.cls-8{fill:#ee3435;}.cls-9{fill:#d4b372;}.cls-10{fill:url(#radial-gradient);}.cls-11{fill-rule:evenodd;}</style><radialGradient id="radial-gradient" cx="777.467" cy="623.212" r="0.053" gradientTransform="matrix(1289.62, 0, 0, -1133.08, -1002592.428, 706156.232)" gradientUnits="userSpaceOnUse"><stop offset="0" stop-color="#bf2026"/><stop offset="0.505" stop-color="#be2126"/><stop offset="1" stop-color="#c62127"/></radialGradient></defs><g id="Composites"><rect class="cls-1" x="151.039" y="3.369" width="1" height="72.162"/><path class="cls-1" d="M198.073,29.844a9.353,9.353,0,1,0,9.353,9.353,9.364,9.364,0,0,0-9.353-9.353"/><polygon class="cls-1" points="250.095 50.072 235.64 50.072 235.64 24.892 242.18 24.892 242.18 44.352 250.095 44.352 250.095 50.072"/><path class="cls-1" d="M262.13,35.147a4.641,4.641,0,0,0-4.777,4.832c0,2.8,1.768,5.1,4.581,5.1a4.842,4.842,0,0,0,4.97-4.931,4.742,4.742,0,0,0-4.774-5m-10.957,4.932c0-5.621,4.154-10.586,9.747-10.586a7.8,7.8,0,0,1,5.788,2.466V29.89h6.017V50.072h-6.116V48.1a8.467,8.467,0,0,1-6.016,2.467c-5.593,0-9.42-4.013-9.42-10.487"/><polygon class="cls-1" points="290.78 50.072 276.326 50.072 276.326 24.892 282.866 24.892 282.866 44.352 290.78 44.352 290.78 50.072"/><path class="cls-1" d="M299.577,50.072h-6.084V29.89h6.084Zm-6.671-25.311a3.679,3.679,0,1,1,7.358-.066,3.742,3.742,0,0,1-3.762,3.746,3.609,3.609,0,0,1-3.6-3.68"/><path class="cls-1" d="M312.363,34.719c-2.844,0-4.251,2.335-4.251,4.834,0,2.6,1.539,4.734,4.221,4.734a4.6,4.6,0,0,0,4.674-4.7c0-2.7-1.5-4.867-4.644-4.867m-10.17,4.867c0-5.458,3.466-10.092,8.766-10.092a7.535,7.535,0,0,1,6.014,2.662V29.89H322.8V47.673c0,6.244-4.68,9.5-10.3,9.5-4.938,0-9.256-2.5-9.906-7.035h6.833a3.111,3.111,0,0,0,3.206,1.642c2.124,0,4.085-.982,4.085-3.185a11.383,11.383,0,0,0-.032-1.512,9.2,9.2,0,0,1-5.756,2.334c-5.2,0-8.731-4.34-8.731-9.829"/><path class="cls-1" d="M336.371,35.147a4.64,4.64,0,0,0-4.775,4.832c0,2.8,1.764,5.1,4.577,5.1a4.843,4.843,0,0,0,4.971-4.931,4.74,4.74,0,0,0-4.773-5m-10.959,4.932c0-5.621,4.154-10.586,9.746-10.586a7.793,7.793,0,0,1,5.79,2.466V29.89h6.018V50.072H340.85V48.1a8.468,8.468,0,0,1-6.017,2.467c-5.592,0-9.421-4.013-9.421-10.487"/><path class="cls-2" d="M178.568,22.913a.32.32,0,0,0,.019.325.3.3,0,0,0,.117.1l9.775,5.683.022.012a.316.316,0,0,0,.333-.021.3.3,0,0,0,.078-.081.22.22,0,0,0,.027-.047,12.822,12.822,0,0,1,8.941-6.319.167.167,0,0,0,.039-.005.316.316,0,0,0,.24-.359l0-.022-2.069-11.114,0-.02a.277.277,0,0,0-.057-.126.318.318,0,0,0-.291-.126l-.026.005a24.842,24.842,0,0,0-17.139,12.11"/><path class="cls-3" d="M172.986,44.385a.325.325,0,0,0,.265.19.334.334,0,0,0,.155-.026l10.55-4.066.023-.01a.315.315,0,0,0,.192-.272.3.3,0,0,0-.013-.113.266.266,0,0,0-.021-.05,12.808,12.808,0,0,1,.672-10.927.129.129,0,0,0,.017-.033.28.28,0,0,0,.032-.117.318.318,0,0,0-.159-.3l-.02-.011-9.962-5.345L174.7,23.3a.29.29,0,0,0-.133-.035.318.318,0,0,0-.281.148l-.013.025h0a24.83,24.83,0,0,0-1.287,20.945"/><path class="cls-4" d="M186.4,62.031a.317.317,0,0,0,.387-.226l3.364-10.794.007-.025a.313.313,0,0,0-.094-.32.319.319,0,0,0-.1-.06.273.273,0,0,0-.051-.014,12.815,12.815,0,0,1-8.149-7.312.365.365,0,0,0-.014-.035.309.309,0,0,0-.074-.1.313.313,0,0,0-.33-.058l-.021.008-10.376,4.49-.017.009a.284.284,0,0,0-.11.082.315.315,0,0,0-.058.312l.01.026v0a24.828,24.828,0,0,0,15.62,14.015"/><path class="cls-5" d="M208.441,62.557a.316.316,0,0,0,.125-.3.312.312,0,0,0-.059-.145l-6.3-9.388-.015-.02a.313.313,0,0,0-.308-.127.324.324,0,0,0-.107.037.24.24,0,0,0-.043.032,12.826,12.826,0,0,1-10.806,1.765c-.012-.005-.024-.007-.036-.011a.352.352,0,0,0-.121,0,.317.317,0,0,0-.253.222l-.006.022-3.007,10.9,0,.019a.3.3,0,0,0,0,.139.322.322,0,0,0,.208.241.143.143,0,0,0,.026.006h0a24.835,24.835,0,0,0,20.711-3.384"/><path class="cls-6" d="M222.794,45.718a.32.32,0,0,0-.156-.284.339.339,0,0,0-.153-.043l-11.271-.879-.025,0a.314.314,0,0,0-.327.271.245.245,0,0,0,0,.054,12.814,12.814,0,0,1-5.316,9.57.189.189,0,0,0-.031.022.346.346,0,0,0-.081.093.32.32,0,0,0,.019.335l.013.018,6.684,9.118.013.016a.289.289,0,0,0,.106.089.317.317,0,0,0,.317-.014l.022-.015h0a24.843,24.843,0,0,0,10.19-18.347"/><path class="cls-7" d="M218.533,23.967a.321.321,0,0,0-.321-.057.325.325,0,0,0-.128.089L210.3,32.2l-.017.019a.311.311,0,0,0-.057.328.305.305,0,0,0,.062.1.163.163,0,0,0,.038.036,12.805,12.805,0,0,1,4.089,10.156.248.248,0,0,0,0,.039.353.353,0,0,0,.022.119.322.322,0,0,0,.271.2h.022l11.294.547h.018a.28.28,0,0,0,.136-.026.321.321,0,0,0,.191-.255v-.027a24.842,24.842,0,0,0-7.837-19.466"/><path class="cls-8" d="M198.767,13.856a.318.318,0,0,0-.243.216.349.349,0,0,0-.009.157l1.653,11.185,0,.025a.314.314,0,0,0,.223.247.293.293,0,0,0,.113.012.434.434,0,0,0,.052-.009,12.807,12.807,0,0,1,10.514,3.051.242.242,0,0,0,.031.025.306.306,0,0,0,.107.057.313.313,0,0,0,.322-.091l.015-.017,7.4-8.547.013-.015a.3.3,0,0,0,.063-.123.318.318,0,0,0-.083-.306l-.021-.018h0a24.843,24.843,0,0,0-20.156-5.85"/><path d="M204.868,44.468A5.476,5.476,0,0,0,205.1,43.3a5.861,5.861,0,0,1-.609.509,5.321,5.321,0,0,1-2.006.913l-1.809-1.971-.025.018,1.311,2.321a5.3,5.3,0,0,1-1.5,1.648,5.583,5.583,0,0,1-.671.421,5.6,5.6,0,0,0,1.178.138,8.621,8.621,0,0,1-5.792,0,5.6,5.6,0,0,0,1.179-.138,5.653,5.653,0,0,1-.67-.421,5.282,5.282,0,0,1-1.5-1.648l1.31-2.322-.023-.019-1.811,1.973a5.315,5.315,0,0,1-2.006-.913,5.621,5.621,0,0,1-.606-.509,5.334,5.334,0,0,0,.234,1.172,8.556,8.556,0,0,1-1.811-5.276c0-.094,0-.188.007-.281a5.207,5.207,0,0,0,.507,1.119,5.845,5.845,0,0,1,.193-.769,5.338,5.338,0,0,1,1.112-1.946l2.587.525.01-.029-2.419-1.105a5.339,5.339,0,0,1,.249-2.183,5.932,5.932,0,0,1,.3-.735,5.01,5.01,0,0,0-1.1.63,8.609,8.609,0,0,1,4.834-3.508,4.742,4.742,0,0,0-.958.86,5.652,5.652,0,0,1,.79-.055,5.329,5.329,0,0,1,2.178.448l.3,2.616h.031l.3-2.617a5.323,5.323,0,0,1,2.174-.447,5.674,5.674,0,0,1,.79.055,4.828,4.828,0,0,0-.955-.858,8.592,8.592,0,0,1,4.824,3.5,5.057,5.057,0,0,0-1.09-.626,5.932,5.932,0,0,1,.3.735,5.351,5.351,0,0,1,.248,2.186l-2.415,1.1.01.029,2.587-.525a5.314,5.314,0,0,1,1.108,1.944,5.552,5.552,0,0,1,.194.769,5.184,5.184,0,0,0,.5-1.111c0,.091.007.181.007.273a8.558,8.558,0,0,1-1.807,5.271m-6.795-14.625a9.354,9.354,0,1,0,9.353,9.354,9.365,9.365,0,0,0-9.353-9.354"/><polygon points="194.294 37.965 195.739 42.411 200.413 42.411 201.857 37.965 198.076 35.218 194.294 37.965"/><path class="cls-1" d="M83.612,21.752c4.56-.679,5.558-3.044,5.558-7.095V10.388q0-6.729-10.793-6.742T67.584,10.388v5.03c0,3.534.783,5.383,4.938,6.09-4.155.924-4.938,3.507-4.938,7.286v5.519q0,6.81,10.793,6.8t10.793-6.8V28.848C89.17,24.689,88.172,22.323,83.612,21.752Zm-5.289-2.365c-1.591,0-2.374-.761-2.374-2.256V9.953c0-1.468.783-2.175,2.374-2.175,1.619,0,2.429.734,2.429,2.175v7.178C80.752,18.626,79.942,19.387,78.323,19.387Zm0,17.373c-1.591,0-2.374-.762-2.374-2.257V26.374a2.064,2.064,0,0,1,2.374-2.311c1.619,0,2.429.762,2.429,2.311V34.5C80.752,36,79.942,36.76,78.323,36.76Z"/><path class="cls-1" d="M108.364,21.752c4.563-.679,5.562-3.044,5.562-7.095V10.388q0-6.729-10.8-6.742t-10.8,6.742v5.03c0,3.534.783,5.383,4.942,6.09-4.159.924-4.942,3.507-4.942,7.286v5.519q0,6.81,10.8,6.8,10.816,0,10.8-6.8V28.848C113.926,24.689,112.927,22.323,108.364,21.752Zm-5.293-2.365c-1.594,0-2.377-.761-2.377-2.256V9.953c0-1.468.783-2.175,2.377-2.175,1.62,0,2.43.734,2.43,2.175v7.178C105.528,18.626,104.718,19.387,103.071,19.387Zm0,17.373c-1.594,0-2.377-.762-2.377-2.257V26.374a2.065,2.065,0,0,1,2.377-2.311c1.62,0,2.43.762,2.43,2.311V34.5C105.528,36,104.718,36.76,103.071,36.76Z"/><path class="cls-1" d="M38.228,57.782v-.7c-1.55-.159-1.649-.3-1.689-2.133L36.36,47.5c-.039-1.654.04-1.814,1.629-1.973v-.7H34L30.1,53.556,26.27,44.824H22.159v.7c1.708.159,1.847.438,1.688,2.711l-.318,3.927a31.374,31.374,0,0,1-.417,3.768c-.119.7-.5,1.057-1.609,1.156v.7H26.27v-.7c-1.311-.119-1.708-.3-1.787-1.2a20.229,20.229,0,0,1,0-3.209l.238-5.2h.08l4.051,10.168h.557L33.8,47.276h.1l.039,7.675c.02,1.835-.1,1.974-1.589,2.133v.7Z"/><path class="cls-1" d="M52.423,57.782v-.7c-1.251-.159-1.51-.418-2.185-2.173-1.291-3.428-2.522-6.9-3.794-10.386l-1.013.259L41.36,55.031c-.656,1.675-.894,1.894-2.2,2.053l-.02.7h4.449v-.7c-1.45-.179-1.489-.458-1.211-1.415.238-.8.5-1.515.715-2.133H46.9c.3.817.6,1.655.795,2.253.318.877.218,1.116-.954,1.3v.7Zm-5.9-5.3h-3.1c.517-1.415,1.013-2.851,1.57-4.306h.059Z"/><path class="cls-1" d="M67.182,44.824H62.335v.7c1.45.079,1.867.418,1.967,1.276.039.578.159,1.515.159,3.269v3.509h-.08l-7.587-8.752H53.119v.7a2.02,2.02,0,0,1,1.649.717c.377.459.417.838.417,2.134v4.166a23.276,23.276,0,0,1-.2,3.289c-.079.858-.536,1.177-1.648,1.256v.7H58.2v-.7c-1.47-.059-1.807-.438-1.907-1.315a27.99,27.99,0,0,1-.159-3.23V48.054h.06l8.263,9.927h.953V50.067a28.232,28.232,0,0,1,.179-3.309c.1-.917.516-1.176,1.589-1.236Z"/><path class="cls-1" d="M76.284,47.914c-.16-1.236-.3-2.113-.378-2.851a8.088,8.088,0,0,0-2.761-.538c-2.82,0-4.548,1.714-4.548,3.907,0,1.914,1.41,2.991,3.456,4.027,1.489.8,2.363,1.535,2.363,2.712a1.918,1.918,0,0,1-1.986,2.093c-1.907,0-3.079-2.233-3.476-3.509l-.695.219a24.132,24.132,0,0,0,.576,3.39,9.439,9.439,0,0,0,1.212.438,7.082,7.082,0,0,0,2.006.279c2.9,0,4.826-1.774,4.826-4.047,0-1.973-1.43-3.09-3.515-4.106-1.748-.878-2.463-1.516-2.463-2.612a1.893,1.893,0,0,1,1.926-1.974c1.629,0,2.364,1.476,2.781,2.731Z"/><path class="cls-1" d="M83.994,57.782v-.7c-1.47-.139-1.649-.279-1.649-1.953V47.5c0-1.694.179-1.834,1.649-1.973v-.7H78.035v.7c1.47.139,1.649.279,1.649,1.973v7.636c0,1.674-.179,1.814-1.649,1.953v.7Z"/><path class="cls-1" d="M92.4,44.525a6.652,6.652,0,0,0-6.972,6.8,6.774,6.774,0,1,0,13.546-.159A6.443,6.443,0,0,0,92.4,44.525Zm-.358.837c2.284,0,3.893,2.393,3.893,6.36,0,3.668-1.529,5.522-3.416,5.522-2.543,0-4.052-2.891-4.052-6.3C88.466,47.5,90.035,45.362,92.041,45.362Z"/><path class="cls-1" d="M113.928,44.824h-4.847v.7c1.451.079,1.868.418,1.967,1.276.039.578.159,1.515.159,3.269v3.509h-.08l-7.587-8.752H99.866v.7a2.017,2.017,0,0,1,1.648.717c.377.459.417.838.417,2.134v4.166a23.488,23.488,0,0,1-.2,3.289c-.08.858-.537,1.177-1.649,1.256v.7h4.866v-.7c-1.47-.059-1.807-.438-1.906-1.315a27.668,27.668,0,0,1-.16-3.23V48.054h.06l8.263,9.927h.953V50.067a28.232,28.232,0,0,1,.179-3.309c.1-.917.517-1.176,1.589-1.236Z"/><path class="cls-9" d="M22.081,4.186a.54.54,0,0,1,.54-.54H63.892a.54.54,0,0,1,.54.54V40.832a.54.54,0,0,1-.54.54H22.621a.54.54,0,0,1-.54-.54Z"/><path class="cls-10" d="M24.173,6.282a.539.539,0,0,1,.539-.54H61.8a.539.539,0,0,1,.539.54V38.737a.539.539,0,0,1-.539.54H24.712a.539.539,0,0,1-.539-.54Z"/><path class="cls-11" d="M38.443,22.363V34.246c0,.259-.067.422-.3.422s-.327-.163-.327-.422V32.678H37.23a10.17,10.17,0,0,0-2.652,1.714h0c-.278.214-.5.388-.633.476a17.948,17.948,0,0,0-3.023-1.406q-.238.222-.436.4h0c-.277.255-.493.455-.644.61q-.084.084-.147.15c-.131.136-.2.212-.277.212a.417.417,0,0,1-.365-.362c0-.163.365-.555,2.04-2.264A6.188,6.188,0,0,0,32.7,27.469c0-3.567-1.542-6.615-3.314-6.615a.855.855,0,0,0-.983.821c-.03.3-.164.392-.3.392-.261,0-.395-.429-.395-1.147a2.768,2.768,0,0,1,2.562-2.945,2.6,2.6,0,0,1,1.488.538,1.433,1.433,0,0,0,.94.35v-2.39a1.939,1.939,0,0,0-.693-1.539c-.394-.325-2.427-1.7-3.187-1.7a1.165,1.165,0,0,0-.345.056.776.776,0,0,1-.213.04c-.1,0-.135-.03-.135-.1,0-.086.053-.148.2-.321h0l.061-.072,2.592-2.552.065-.049a.4.4,0,0,1,.262-.114c.524,0,1.976.984,3.164,1.79a8.466,8.466,0,0,0,1.692,1.029,9.059,9.059,0,0,0,2.255-1.207,10.507,10.507,0,0,1,3-1.546c.245,0,.5.2,2.179,1.558l.009.006.337.271c.081.065.182.149.3.246h0a11.532,11.532,0,0,0,1.28.968c.529.325.559.392.559,1.014.328-.067.692-.326,2.755-2a28.709,28.709,0,0,1,2.465-1.9c.164,0,1.609.592,3.746,1.473.625.259.722.325.722.717v16.93c0,.555.067.755.3.947.983.851,1.579,1.177,1.906,1.177a.48.48,0,0,0,.328-.134c.164-.229.2-.259.3-.259s.2.134.2.259a13.442,13.442,0,0,1-2.986,3.212,11.173,11.173,0,0,1-3.381-2.324,1.01,1.01,0,0,1-.357-.947V19.285c0-1.406.454-2.36,2.1-4.55.856-1.11.916-1.443.752-1.443a14.885,14.885,0,0,0-1.494.974c-.456.314-.879.605-1.038.7l-.208-.119c-1.608-.92-2.132-1.22-3.047-1.22-.521,0-.886.259-.886.592V34.35c0,.259-.134.459-.327.459-.164,0-.261-.163-.261-.422V32.878a4.848,4.848,0,0,0-2.277,1.4c-.287.266-.5.462-.612.462a11.6,11.6,0,0,1-2.495-2.752V22.363Zm-.595-8.346c0-.659-.067-.881-.194-.881-.29,0-1.348.659-1.348.881v9.064c0,4.4-.5,4.924-1.638,6.115l-.067.071c-.529.555-.656.688-1.05,1.147.692.947,2.986,1.376,4.3,1.309V14.017Zm4.438,5.238H38.443v-5.5c0-.429.194-.659.559-.659.819,0,3.284,1.865,3.284,2.553ZM47.67,14.6c0-.066-.03-.1-.134-.1a.852.852,0,0,0-.365.133l-.752.459c-.425.259-.559.392-.559.592V18.96c0,.229.3.392.529.392H47.67Zm-1.251,7.7h1.244V31.79c-1.214-.1-1.773-.718-1.773-2.028V23.051C45.89,22.563,46.061,22.3,46.419,22.3Z"/><path class="cls-1" d="M3.027,69.424a2.928,2.928,0,1,1,0,5.85,2.928,2.928,0,1,1,0-5.85Zm0,4.686a1.762,1.762,0,1,0-1.7-1.761A1.7,1.7,0,0,0,3.027,74.11Z"/><path class="cls-1" d="M7.766,69.521h3.522v1.147H9.107V71.88h1.987v1.147H9.107v2.15H7.766Z"/><path class="cls-1" d="M12.939,69.521h3.522v1.147H14.28V71.88h1.988v1.147H14.28v2.15H12.939Z"/><path class="cls-1" d="M19.474,69.521v5.656H18.133V69.521Z"/><path class="cls-1" d="M21.183,72.349a2.944,2.944,0,0,1,3.054-2.925,3.119,3.119,0,0,1,1.979.674l-.678.986a2.065,2.065,0,0,0-1.3-.5,1.762,1.762,0,0,0,0,3.523,2.084,2.084,0,0,0,1.345-.546l.707.978a3.125,3.125,0,0,1-2.052.732A2.946,2.946,0,0,1,21.183,72.349Z"/><path class="cls-1" d="M29.284,69.521v5.656H27.943V69.521Z"/><path class="cls-1" d="M34.237,69.521,36.2,75.177H34.8L34.435,74H32.569L32.2,75.177H30.8l1.963-5.656ZM33.5,70.927l-.626,2.019h1.252Z"/><path class="cls-1" d="M37.7,69.521h1.342v4.5h2.173v1.156H37.7Z"/><path class="cls-1" d="M48.057,69.521a1.825,1.825,0,0,1,2,1.842,1.691,1.691,0,0,1-1.123,1.664l1.272,2.15H48.748l-1.123-1.972H47.29v1.972H45.965V69.521Zm-.767,1.066v1.608h.63a.8.8,0,1,0,0-1.608Z"/><path class="cls-1" d="M51.772,69.521h3.6v1.131H53.113v1.123h2.068V72.89H53.113v1.155h2.335v1.132H51.772Z"/><path class="cls-1" d="M58.274,72.369a1.72,1.72,0,0,0,1.7,1.781,1.5,1.5,0,0,0,.735-.19v-.949H59.607V71.985h2.448v2.533a3.135,3.135,0,0,1-2.076.756,2.928,2.928,0,1,1,0-5.85,3.119,3.119,0,0,1,1.979.674l-.679.986a2.06,2.06,0,0,0-1.3-.5A1.7,1.7,0,0,0,58.274,72.369Z"/><path class="cls-1" d="M65.3,69.521v5.656H63.955V69.521Z"/><path class="cls-1" d="M70.059,69.424a2.928,2.928,0,1,1-3.053,2.925A2.944,2.944,0,0,1,70.059,69.424Zm0,4.686a1.762,1.762,0,1,0-1.7-1.761A1.7,1.7,0,0,0,70.059,74.11Z"/><path class="cls-1" d="M74.8,69.521H76.2l1.906,3.6v-3.6h1.244v5.656H77.949l-1.907-3.6v3.6H74.8Z"/><path class="cls-1" d="M84.284,69.521l1.963,5.656h-1.4L84.482,74H82.616l-.368,1.181h-1.4l1.963-5.656Zm-.735,1.406-.626,2.019h1.252Z"/><path class="cls-1" d="M87.744,69.521h1.341v4.5h2.173v1.156H87.744Z"/><path class="cls-1" d="M97.353,73.285v1.892H96.012V69.521h2.093a1.885,1.885,0,1,1,0,3.764Zm.606-2.7h-.606V72.22h.606a.817.817,0,0,0,0-1.633Z"/><path class="cls-1" d="M104.659,69.521l1.963,5.656h-1.4L104.857,74h-1.866l-.368,1.181h-1.4l1.963-5.656Zm-.735,1.406-.626,2.019h1.252Z"/><path class="cls-1" d="M110.211,69.521a1.825,1.825,0,0,1,2,1.842,1.691,1.691,0,0,1-1.123,1.664l1.273,2.15H110.9l-1.123-1.972h-.335v1.972h-1.325V69.521Zm-.768,1.066v1.608h.63a.8.8,0,1,0,0-1.608Z"/><path class="cls-1" d="M114.919,70.676h-1.385V69.521h4.112v1.155H116.26v4.5h-1.341Z"/><path class="cls-1" d="M119.236,69.521h1.406l1.906,3.6v-3.6h1.244v5.656h-1.405l-1.907-3.6v3.6h-1.244Z"/><path class="cls-1" d="M125.774,69.521h3.6v1.131h-2.262v1.123h2.068V72.89h-2.068v1.155h2.336v1.132h-3.676Z"/><path class="cls-1" d="M133.313,69.521a1.825,1.825,0,0,1,2,1.842,1.691,1.691,0,0,1-1.123,1.664l1.273,2.15H134l-1.123-1.972h-.335v1.972h-1.325V69.521Zm-.767,1.066v1.608h.63a.8.8,0,1,0,0-1.608Z"/></g></svg>