<svg width="84" height="32" viewBox="0 0 84 32" fill="none" xmlns="http://www.w3.org/2000/svg">
<path d="M1.1911 0.335809C1.1911 0.150347 1.34099 0 1.52589 0H27.1376C27.3225 0 27.4724 0.150347 27.4724 0.33581V23.1289C27.4724 23.3144 27.3225 23.4647 27.1376 23.4647H1.52589C1.34099 23.4647 1.1911 23.3144 1.1911 23.1289V0.335809Z" fill="#D3B271"/>
<path d="M2.48877 1.6394C2.48877 1.45394 2.63866 1.30359 2.82356 1.30359H25.8396C26.0245 1.30359 26.1743 1.45394 26.1743 1.6394V21.8253C26.1743 22.0108 26.0245 22.1611 25.8396 22.1611H2.82356C2.63866 22.1611 2.48877 22.0108 2.48877 21.8253V1.6394Z" fill="url(#paint0_radial_1237_40171)"/>
<path fill-rule="evenodd" clip-rule="evenodd" d="M11.3448 11.6416V19.0327C11.3448 19.1937 11.3032 19.295 11.16 19.295C11.0167 19.295 10.9566 19.1937 10.9566 19.0327V18.057H10.5915C10.3291 18.057 9.48365 18.7088 8.94618 19.1232C8.77387 19.2561 8.63321 19.3645 8.55356 19.4192C7.96204 19.0741 7.22725 18.7289 6.67732 18.5448C6.57908 18.6367 6.489 18.72 6.40737 18.7955L6.40709 18.7958L6.4068 18.796L6.4067 18.7961L6.40665 18.7962L6.40662 18.7962L6.40658 18.7963C6.23515 18.9548 6.10108 19.0788 6.00723 19.1753C5.9722 19.2102 5.94214 19.2415 5.91583 19.2689C5.83459 19.3536 5.7892 19.4008 5.74382 19.4008C5.64215 19.4008 5.51738 19.2812 5.51738 19.1753C5.51738 19.0741 5.74382 18.8302 6.78361 17.7671C7.49529 17.0353 7.78181 16.1609 7.78181 14.8171C7.78181 12.5989 6.8252 10.7028 5.72534 10.7028C5.36025 10.7028 5.1754 10.8455 5.11533 11.2136C5.09684 11.3977 5.01366 11.4576 4.93047 11.4576C4.76873 11.4576 4.68555 11.1906 4.68555 10.7442C4.68555 9.72715 5.39722 8.91257 6.27527 8.91257C6.6831 8.91257 6.95953 9.09199 7.19843 9.24705C7.4008 9.37839 7.57624 9.49226 7.78181 9.46483V7.97834C7.78181 7.59176 7.63855 7.26501 7.35203 7.0211C7.1071 6.8186 5.84549 5.9626 5.37412 5.9626C5.2839 5.9626 5.21812 5.98122 5.15995 5.99768C5.11383 6.01073 5.07248 6.02243 5.02752 6.02243C4.96745 6.02243 4.94434 6.00402 4.94434 5.9626C4.94434 5.90954 4.97706 5.87096 5.06828 5.76338L5.10608 5.71869L6.71429 4.13096C6.72905 4.12034 6.74235 4.11031 6.75471 4.10098C6.81205 4.05774 6.8492 4.02971 6.91763 4.02971C7.24263 4.02971 8.14384 4.64211 8.88106 5.14307C9.39129 5.48979 9.82296 5.78312 9.9307 5.78312C10.1258 5.78312 10.7041 5.42273 11.3301 5.03265C12.0685 4.57254 12.8732 4.07113 13.1933 4.07113C13.3452 4.07113 13.5012 4.19698 14.5457 5.03968L14.5458 5.03969L14.7599 5.21246C14.8104 5.25242 14.8734 5.30514 14.9452 5.36527L14.9452 5.36528C15.1628 5.54747 15.4617 5.79766 15.7397 5.96721C16.0678 6.1697 16.0863 6.21112 16.0863 6.5977C16.2896 6.55628 16.516 6.39521 17.7961 5.35512C18.1612 5.05138 19.2426 4.17237 19.3258 4.17237C19.4274 4.17237 20.324 4.54055 21.6503 5.0882C22.0385 5.24927 22.0985 5.29069 22.0985 5.53461V16.0643C22.0985 16.4094 22.1401 16.5337 22.2834 16.6534C22.8934 17.1826 23.2631 17.3851 23.4664 17.3851C23.5265 17.3851 23.6097 17.3621 23.6698 17.3023C23.7715 17.1596 23.7946 17.1412 23.8546 17.1412C23.9147 17.1412 23.9794 17.224 23.9794 17.3023C23.9794 17.4265 23.0644 18.5632 22.1263 19.2996C21.5579 19.0971 20.5781 18.4252 20.0282 17.8545C19.8434 17.652 19.8064 17.6106 19.8064 17.2654V9.72715C19.8064 8.85274 20.0883 8.25907 21.1096 6.89684C21.641 6.20652 21.678 5.99942 21.5763 5.99942C21.5268 5.99942 21.0657 6.31785 20.6491 6.6055L20.6491 6.60551L20.649 6.60554L20.649 6.60559C20.3663 6.80081 20.1041 6.98183 20.0051 7.0395L19.876 6.96547C18.8784 6.39304 18.5533 6.20652 17.9856 6.20652C17.6621 6.20652 17.4357 6.36759 17.4357 6.57469V19.0971C17.4357 19.2582 17.3525 19.3824 17.2323 19.3824C17.1307 19.3824 17.0706 19.2812 17.0706 19.1201V18.1813C16.4966 18.2745 15.9938 18.7414 15.6575 19.0536L15.6575 19.0536C15.4793 19.219 15.348 19.341 15.2775 19.341C15.0557 19.341 13.7294 17.7533 13.7294 17.629V11.6416H11.3448ZM10.9752 6.4504C10.9752 6.04081 10.9336 5.90274 10.855 5.90274C10.6748 5.90274 10.0186 6.31233 10.0186 6.4504V12.088C10.0186 14.8234 9.70739 15.1504 9.00217 15.8914L8.96031 15.9354C8.6322 16.2806 8.55363 16.3634 8.30871 16.6487C8.73849 17.2378 10.1618 17.5047 10.9798 17.4633V6.4504H10.9752ZM13.7294 9.70872H11.3449V6.28934C11.3449 6.02241 11.465 5.87975 11.6915 5.87975C12.1998 5.87975 13.7294 7.03948 13.7294 7.46748V9.70872ZM17.0705 6.81398C17.0705 6.77256 17.052 6.75415 16.9873 6.75415C16.9273 6.75415 16.8256 6.79557 16.7609 6.83699L16.2942 7.12232C16.0309 7.28339 15.9477 7.36623 15.9477 7.49049V9.52463C15.9477 9.6673 16.1325 9.76854 16.2758 9.76854H17.0705V6.81398ZM16.2942 11.6002H17.0659V17.5047C16.3127 17.4449 15.9662 17.0583 15.9662 16.2437V12.0696C15.9662 11.7659 16.0724 11.6002 16.2942 11.6002Z" fill="white"/>
<path d="M8.63854 25.6873C9.19214 25.6873 9.61454 26.097 9.61454 26.6251C9.61454 27.1532 9.19214 27.5596 8.63854 27.5596C8.08494 27.5596 7.66254 27.1532 7.66254 26.6251C7.66254 26.097 8.08494 25.6873 8.63854 25.6873ZM8.63854 27.1884C8.94574 27.1884 9.18254 26.9451 9.18254 26.6251C9.18254 26.305 8.94574 26.0618 8.63854 26.0618C8.33134 26.0618 8.09454 26.305 8.09454 26.6251C8.09454 26.9451 8.33134 27.1884 8.63854 27.1884Z" fill="white"/>
<path d="M10.1553 25.7194H11.2817V26.0874H10.5841V26.4747H11.2209V26.8427H10.5841V27.5308H10.1553V25.7194Z" fill="white"/>
<path d="M11.8129 25.7194H12.9393V26.0874H12.2417V26.4747H12.8785V26.8427H12.2417V27.5308H11.8129V25.7194Z" fill="white"/>
<path d="M13.9026 25.7194V27.5308H13.4738V25.7194H13.9026Z" fill="white"/>
<path d="M14.4497 26.6251C14.4497 26.097 14.8721 25.6874 15.4257 25.6874C15.6721 25.6874 15.8865 25.7674 16.0593 25.9018L15.8417 26.2186C15.7265 26.129 15.5921 26.0586 15.4257 26.0586C15.1185 26.0586 14.8817 26.3019 14.8817 26.6219C14.8817 26.9419 15.1185 27.1852 15.4257 27.1852C15.5889 27.1852 15.7457 27.1084 15.8577 27.0092L16.0849 27.3228C15.9089 27.4732 15.6817 27.5564 15.4289 27.5564C14.8753 27.5596 14.4497 27.1532 14.4497 26.6251Z" fill="white"/>
<path d="M17.0417 25.7194V27.5308H16.6129V25.7194H17.0417Z" fill="white"/>
<path d="M18.6257 25.7194L19.2529 27.5308H18.8049L18.6865 27.1532H18.0945L17.9761 27.5308H17.5281L18.1553 25.7194H18.6257ZM18.3921 26.1706L18.1905 26.8171H18.5905L18.3921 26.1706Z" fill="white"/>
<path d="M19.7329 25.7194H20.1617V27.1596H20.8561V27.5308H19.7329V25.7194V25.7194Z" fill="white"/>
<path d="M0.665601 28.9289C1.0432 28.9289 1.3056 29.1658 1.3056 29.5178C1.3056 29.7739 1.1712 29.9659 0.9472 30.0491L1.3536 30.7372H0.8896L0.5312 30.1067H0.4224V30.7372H0V28.9257H0.665601V28.9289ZM0.4224 29.2714V29.7867H0.624C0.7872 29.7867 0.8832 29.6778 0.8832 29.5306C0.8832 29.377 0.7872 29.2746 0.624 29.2746H0.4224V29.2714Z" fill="white"/>
<path d="M1.85602 28.9289H3.00802V29.2906H2.28482V29.649H2.94722V30.0043H2.28482V30.3756H3.03042V30.7372H1.85602V28.9289Z" fill="white"/>
<path d="M3.93599 29.8411C3.93599 30.1611 4.17279 30.4107 4.47999 30.4107C4.55999 30.4107 4.64959 30.3883 4.71359 30.3499V30.0459H4.35839V29.7162H5.14239V30.526C4.96959 30.6764 4.73599 30.7692 4.47679 30.7692C3.92319 30.7692 3.50079 30.3595 3.50079 29.8347C3.50079 29.3066 3.92319 28.8969 4.47679 28.8969C4.72319 28.8969 4.93759 28.9769 5.11039 29.1114L4.89279 29.4282C4.77759 29.3386 4.64319 29.2682 4.47679 29.2682C4.17279 29.2714 3.93599 29.5146 3.93599 29.8411Z" fill="white"/>
<path d="M6.1824 28.9289V30.7404H5.7536V28.9289H6.1824Z" fill="white"/>
<path d="M7.70881 28.8969C8.26241 28.8969 8.68481 29.3066 8.68481 29.8347C8.68481 30.3627 8.26241 30.7692 7.70881 30.7692C7.15521 30.7692 6.73281 30.3595 6.73281 29.8347C6.72961 29.3066 7.15521 28.8969 7.70881 28.8969ZM7.70881 30.3979C8.01601 30.3979 8.25281 30.1547 8.25281 29.8347C8.25281 29.5146 8.01601 29.2714 7.70881 29.2714C7.40161 29.2714 7.16481 29.5146 7.16481 29.8347C7.16161 30.1547 7.39841 30.3979 7.70881 30.3979Z" fill="white"/>
<path d="M9.22565 28.9289H9.67685L10.288 30.0811V28.9289H10.6848V30.7404H10.2336L9.62245 29.5882V30.7404H9.22565V28.9289Z" fill="white"/>
<path d="M12.2592 28.9289L12.8864 30.7404H12.4384L12.32 30.3628H11.7216L11.6032 30.7404H11.1552L11.7824 28.9289H12.2592ZM12.0256 29.3802L11.824 30.0267H12.224L12.0256 29.3802Z" fill="white"/>
<path d="M13.3665 28.9289H13.7953V30.3692H14.4897V30.7404H13.3665V28.9289Z" fill="white"/>
<path d="M16.4416 30.1355V30.7404H16.0128V28.929H16.6816C17.0624 28.929 17.3216 29.1786 17.3216 29.5307C17.3216 29.8827 17.0624 30.1323 16.6816 30.1323H16.4416V30.1355ZM16.6368 29.2714H16.4416V29.7931H16.6368C16.8 29.7931 16.8992 29.6875 16.8992 29.5307C16.8992 29.3738 16.8 29.2714 16.6368 29.2714Z" fill="white"/>
<path d="M18.7808 28.929L19.408 30.7404H18.96L18.8416 30.3628H18.2432L18.1248 30.7404H17.6768L18.304 28.929H18.7808ZM18.544 29.3802L18.3424 30.0267H18.7424L18.544 29.3802Z" fill="white"/>
<path d="M20.5568 28.929C20.9344 28.929 21.1968 29.1658 21.1968 29.5179C21.1968 29.7739 21.0624 29.9659 20.8384 30.0491L21.2448 30.7372H20.7808L20.4224 30.1067H20.3168V30.7372H19.8944V28.9258H20.5568V28.929ZM20.3104 29.2714V29.7867H20.512C20.6752 29.7867 20.7712 29.6779 20.7712 29.5307C20.7712 29.377 20.6752 29.2746 20.512 29.2746H20.3104V29.2714Z" fill="white"/>
<path d="M22.064 29.3002H21.6192V28.929H22.9344V29.3002H22.4896V30.7404H22.0608V29.3002H22.064Z" fill="white"/>
<path d="M23.4432 28.929H23.8944L24.5056 30.0811V28.929H24.9024V30.7404H24.4512L23.84 29.5883V30.7404H23.4432V28.929Z" fill="white"/>
<path d="M25.536 28.929H26.688V29.2906H25.9648V29.6491H26.6272V30.0043H25.9648V30.3756H26.7136V30.7372H25.536V28.929V28.929Z" fill="white"/>
<path d="M27.9488 28.929C28.3264 28.929 28.5888 29.1658 28.5888 29.5179C28.5888 29.7739 28.4544 29.9659 28.2304 30.0491L28.6368 30.7372H28.1728L27.8144 30.1067H27.7056V30.7372H27.2832V28.9258H27.9488V28.929ZM27.7024 29.2714V29.7867H27.904C28.0672 29.7867 28.1632 29.6779 28.1632 29.5307C28.1632 29.377 28.0672 29.2746 27.904 29.2746H27.7024V29.2714Z" fill="white"/>
<path opacity="0.6" d="M34.214 0H33.894V32H34.214V0Z" fill="white"/>
<path d="M47.6886 9.63451C48.1544 8.95204 48.867 8.43615 49.671 8.21451C49.528 8.31177 49.4083 8.43588 49.2895 8.55917C49.7032 8.50629 50.1329 8.55396 50.5162 8.72026C50.5657 9.08054 50.5923 9.4441 50.6503 9.803C50.6978 9.44245 50.7339 9.08054 50.7791 8.71971C51.1533 8.55971 51.5733 8.50328 51.977 8.55971L52.0042 8.58108C52.005 8.57478 52.0067 8.56245 52.0075 8.55643C51.8829 8.43862 51.7671 8.3104 51.623 8.21478C52.4258 8.43697 53.1384 8.95122 53.6037 9.63341C53.4671 9.52985 53.3111 9.45725 53.1568 9.38437C53.3344 9.75341 53.4244 10.1688 53.3813 10.5772C53.0446 10.7318 52.7023 10.8753 52.3695 11.0381C52.7331 10.9737 53.094 10.8945 53.4563 10.8244C53.7397 11.1318 53.9168 11.5233 53.9973 11.9288C54.077 11.7852 54.1558 11.6403 54.2055 11.4835C54.2336 12.2877 53.9671 13.0972 53.466 13.7315C53.5115 13.5792 53.5357 13.4222 53.5571 13.2655C53.2553 13.5466 52.8819 13.757 52.475 13.8457C52.2185 13.5753 51.972 13.2953 51.7094 13.0307C51.8862 13.3556 52.0761 13.6734 52.2582 13.9953C52.0472 14.3542 51.726 14.6433 51.3576 14.8403C51.5156 14.8685 51.6747 14.894 51.8357 14.8986C51.0731 15.1668 50.2175 15.166 49.455 14.8978C49.6171 14.8945 49.7773 14.8685 49.9366 14.8403C49.5682 14.6433 49.2471 14.3542 49.0361 13.9951C49.2176 13.6734 49.4086 13.3564 49.5838 13.0315C49.3206 13.2962 49.0758 13.5783 48.816 13.8463C48.4112 13.7545 48.0376 13.5474 47.7378 13.2652C47.7586 13.4233 47.7822 13.5814 47.8288 13.7345C47.3275 13.0989 47.0596 12.289 47.0873 11.4835C47.1393 11.6411 47.2184 11.7871 47.2983 11.932C47.3738 11.5241 47.5557 11.1323 47.8383 10.8235C48.2008 10.8934 48.5617 10.9726 48.9253 11.0372C48.5928 10.8737 48.2497 10.7309 47.9129 10.5759C47.8705 10.1682 47.9596 9.75314 48.1375 9.38465C47.982 9.45697 47.8258 9.53095 47.6886 9.63451V9.63451ZM50.647 9.96629C50.1262 10.3403 49.6046 10.7134 49.0833 11.0866C49.2818 11.692 49.4819 12.2967 49.6812 12.9019C50.3264 12.9005 50.9715 12.9041 51.6166 12.9C51.8124 12.2942 52.0167 11.6912 52.2118 11.0852C51.6891 10.7137 51.1692 10.3383 50.647 9.96629V9.96629Z" fill="white"/>
<path d="M49.6672 0H49.7438C49.7865 0.0367123 49.8268 0.079452 49.831 0.13863C50.1127 1.63507 50.3967 3.13123 50.6776 4.62794C50.7023 4.70329 50.6585 4.79287 50.5752 4.80301C50.0031 4.90438 49.4456 5.09233 48.9363 5.36986C48.0874 5.82822 47.3667 6.51863 46.8879 7.34931C46.8576 7.40192 46.8173 7.46246 46.7477 7.46027C46.655 7.44219 46.5792 7.38219 46.4981 7.33863C45.2164 6.60356 43.9345 5.86931 42.6523 5.13507C42.5981 5.10575 42.5437 5.05315 42.5595 4.98603C42.5912 4.89096 42.6548 4.81068 42.7036 4.72438C43.7008 3.09014 45.182 1.75205 46.9126 0.904657C47.7814 0.476164 48.7128 0.17589 49.6672 0V0Z" fill="#951B80"/>
<path d="M52.2474 1.13121C53.6607 1.09477 55.0806 1.35285 56.3898 1.87916C57.3974 2.28463 58.3399 2.8482 59.1693 3.54354C59.2157 3.58354 59.2668 3.6197 59.3059 3.66737C59.3417 3.72518 59.3206 3.79888 59.2737 3.84381C58.2638 4.99313 57.2539 6.14244 56.2446 7.29203C56.2132 7.32518 56.1777 7.36381 56.1277 7.36244C56.0641 7.36655 56.0203 7.31422 55.975 7.27915C54.8305 6.29532 53.2407 5.8408 51.7405 6.07011C51.6836 6.07559 51.6178 6.09724 51.5684 6.05806C51.5273 6.0345 51.5157 5.98573 51.5096 5.94272C51.2933 4.50162 51.0776 3.06025 50.8614 1.61916C50.8503 1.53614 50.8317 1.45368 50.8281 1.36984C50.8258 1.3071 50.8808 1.25505 50.9419 1.2482C51.3738 1.18053 51.8102 1.14327 52.2474 1.13121V1.13121Z" fill="#E40613"/>
<path d="M40.8444 5.10544C40.8966 5.07448 40.9569 5.09174 41.006 5.11941C42.3721 5.84352 43.7401 6.56462 45.1059 7.28955C45.1927 7.32873 45.1919 7.43996 45.1397 7.50736C44.4052 8.82599 44.2972 10.4646 44.8538 11.8657C44.8724 11.9246 44.914 11.989 44.8799 12.0501C44.8474 12.1128 44.7691 12.1249 44.7097 12.1517C43.2904 12.689 41.8724 13.2295 40.4533 13.7674C40.3936 13.7942 40.3134 13.7898 40.2759 13.7304C40.229 13.6411 40.2001 13.5435 40.1629 13.4498C39.4073 11.4164 39.3479 9.14188 39.9858 7.07037C40.1832 6.42215 40.4486 5.79448 40.772 5.19777C40.7917 5.16434 40.8097 5.12654 40.8444 5.10544V5.10544Z" fill="#01509F"/>
<path d="M58.9718 5.35724C59.0248 5.32518 59.0904 5.34929 59.1312 5.38957C60.3282 6.48957 61.2445 7.88162 61.7883 9.40326C62.1503 10.4082 62.3427 11.4698 62.3749 12.5353V13.0792C62.368 13.1742 62.3696 13.2707 62.3507 13.3646C62.3266 13.4339 62.2464 13.4507 62.1809 13.4441C60.6346 13.3685 59.0879 13.2978 57.5416 13.2208C57.4464 13.2238 57.3956 13.1257 57.4131 13.0424C57.5025 11.5455 56.8909 10.0252 55.7858 8.99642C55.742 8.95258 55.6867 8.91231 55.6687 8.85066C55.6581 8.79285 55.6992 8.74628 55.7356 8.70683C56.7588 7.64409 57.7815 6.58053 58.8041 5.51724C58.8586 5.46272 58.9071 5.40053 58.9718 5.35724V5.35724Z" fill="#F28800"/>
<path d="M50.151 7.80384C51.2589 7.65726 52.422 8.01562 53.2457 8.76192C53.971 9.40466 54.4338 10.3271 54.5065 11.2871C54.5887 12.2529 54.2764 13.2436 53.6537 13.9929C53.0289 14.7575 52.0959 15.2679 51.1065 15.3797C50.0225 15.5129 48.8896 15.1644 48.0771 14.4433C47.3423 13.8055 46.8692 12.883 46.789 11.92C46.7116 11.069 46.9367 10.1951 47.4175 9.48439C48.0265 8.56959 49.0495 7.93699 50.151 7.80384V7.80384ZM47.6887 9.63452C47.8258 9.53096 47.9821 9.45699 48.1376 9.38466C47.9596 9.75315 47.8705 10.1682 47.913 10.5759C48.2497 10.731 48.5928 10.8737 48.9254 11.0373C48.5618 10.9726 48.2009 10.8934 47.8383 10.8236C47.5557 11.1323 47.3739 11.5241 47.2984 11.9321C47.2185 11.7871 47.1393 11.6411 47.0874 11.4836C47.0597 12.289 47.3276 13.0989 47.8289 13.7345C47.7823 13.5814 47.7587 13.4233 47.7378 13.2652C48.0377 13.5474 48.4113 13.7545 48.816 13.8463C49.0759 13.5784 49.3207 13.2962 49.5839 13.0315C49.4087 13.3564 49.2177 13.6734 49.0362 13.9951C49.2471 14.3542 49.5683 14.6433 49.9367 14.8403C49.7774 14.8685 49.6172 14.8945 49.4551 14.8978C50.2176 15.166 51.0732 15.1668 51.8357 14.8986C51.6747 14.894 51.5157 14.8685 51.3577 14.8403C51.7261 14.6433 52.0473 14.3542 52.2583 13.9953C52.0761 13.6734 51.8863 13.3556 51.7094 13.0307C51.972 13.2953 52.2186 13.5753 52.4751 13.8458C52.882 13.757 53.2554 13.5466 53.5571 13.2655C53.5358 13.4222 53.5116 13.5792 53.4661 13.7315C53.9671 13.0973 54.2336 12.2877 54.2056 11.4836C54.1559 11.6403 54.0771 11.7852 53.9974 11.9288C53.9169 11.5233 53.7398 11.1318 53.4564 10.8244C53.0941 10.8945 52.7332 10.9737 52.3696 11.0381C52.7024 10.8753 53.0447 10.7318 53.3814 10.5773C53.4244 10.1688 53.3345 9.75343 53.1568 9.38439C53.3112 9.45726 53.4672 9.52987 53.6038 9.63343C53.1385 8.95124 52.4259 8.43699 51.6231 8.2148C51.7672 8.31041 51.8829 8.43863 52.0076 8.55644C52.0067 8.56247 52.0051 8.5748 52.0043 8.5811L51.977 8.55973C51.5734 8.50329 51.1534 8.55973 50.7792 8.71973C50.734 9.08055 50.6979 9.44247 50.6504 9.80302C50.5924 9.44411 50.5657 9.08055 50.5163 8.72028C50.133 8.55398 49.7032 8.50631 49.2896 8.55918C49.4084 8.43589 49.5281 8.31178 49.671 8.21452C48.8671 8.43617 48.1545 8.95206 47.6887 9.63452V9.63452Z" fill="#1D1D1B"/>
<path d="M50.6471 9.96634C51.1693 10.3384 51.6893 10.7137 52.212 11.0852C52.0168 11.6913 51.8125 12.2943 51.6168 12.9C50.9717 12.9041 50.3265 12.9006 49.6814 12.902C49.4821 12.2968 49.2819 11.6921 49.0834 11.0866C49.6048 10.7135 50.1264 10.3403 50.6471 9.96634V9.96634Z" fill="#1D1D1B"/>
<path d="M43.7024 13.1866C43.7906 13.1356 43.8881 13.1989 43.9114 13.2885C44.5102 14.6901 45.7655 15.7973 47.2428 16.2301C47.332 16.2433 47.4016 16.329 47.3639 16.4173C46.9036 17.8786 46.4409 19.3394 45.9789 20.8C45.9631 20.8907 45.8623 20.9362 45.7796 20.8978C44.6112 20.5463 43.5083 19.9847 42.5401 19.2496C41.1374 18.1901 40.0197 16.7657 39.3344 15.1592V15.0962C39.3624 15.0501 39.4043 15.0148 39.4557 14.9962C40.872 14.3948 42.2861 13.7877 43.7024 13.1866V13.1866Z" fill="#0090D7"/>
<path d="M56.0266 13.7638C56.061 13.7575 56.096 13.7564 56.1315 13.7602C57.6677 13.8802 59.2042 13.9967 60.7405 14.1156C60.8257 14.1123 60.8951 14.1896 60.8776 14.2734C60.7394 16.2559 59.9801 18.1876 58.7423 19.7534C58.1502 20.5057 57.4495 21.1745 56.6681 21.7334C56.6068 21.7871 56.5079 21.7671 56.4666 21.7C55.5841 20.5145 54.7022 19.3285 53.8202 18.1424C53.7708 18.0687 53.6984 18.0049 53.6767 17.9172C53.6639 17.837 53.7408 17.7923 53.7961 17.7518C55.0161 16.8759 55.8162 15.46 55.9311 13.9756C55.9358 13.8983 55.9336 13.7907 56.0266 13.7638V13.7638Z" fill="#FEED01"/>
<path d="M52.1996 17.0564C52.269 17.023 52.342 17.0726 52.3747 17.1326C53.2367 18.4011 54.1019 19.6674 54.9633 20.9361C55.0369 21.0263 54.9569 21.1326 54.8673 21.1704C52.9091 22.4723 50.4859 23.0671 48.138 22.8331C47.5398 22.7745 46.9466 22.6654 46.3681 22.5046C46.2892 22.4898 46.2448 22.4016 46.2739 22.3296C46.6853 20.8531 47.0998 19.3775 47.5123 17.9016C47.527 17.8085 47.6331 17.7649 47.7158 17.8043C48.8637 18.1285 50.1209 18.0468 51.2191 17.5863C51.565 17.4463 51.8873 17.2572 52.1996 17.0564V17.0564Z" fill="#00963F"/>
<path d="M39.4108 25.4351C39.8608 25.4345 40.3108 25.4348 40.7608 25.4351C40.7605 26.754 40.7611 28.0729 40.7608 29.3921C41.3049 29.3923 41.849 29.3918 42.3931 29.3923C42.3931 29.7808 42.3945 30.1696 42.3925 30.5581C41.3987 30.5584 40.4052 30.5584 39.4117 30.5581C39.4097 28.8504 39.4114 27.1427 39.4108 25.4351V25.4351Z" fill="white"/>
<path d="M47.803 25.4345C48.253 25.435 48.703 25.4347 49.1529 25.4347C49.1532 26.7539 49.1529 28.0728 49.1532 29.392C49.6973 29.3936 50.2417 29.3887 50.7861 29.3945C50.7849 29.7819 50.7861 30.1693 50.7855 30.5567C49.7914 30.5564 48.7971 30.5564 47.803 30.5564C47.803 28.8493 47.8027 27.1419 47.803 25.4345V25.4345Z" fill="white"/>
<path d="M43.4981 26.7394C43.8315 26.4942 44.2479 26.3619 44.6637 26.3718C44.9124 26.374 45.1631 26.429 45.3807 26.5498C45.5409 26.6359 45.6822 26.7509 45.8179 26.8698C45.8177 26.7304 45.8179 26.5912 45.8179 26.452C46.2327 26.4518 46.6474 26.4518 47.0621 26.452C47.0619 27.8203 47.0624 29.1882 47.0619 30.5564C46.641 30.5567 46.2202 30.5564 45.7993 30.5564C45.7988 30.4244 45.7985 30.2923 45.7993 30.1605C45.4637 30.4849 44.994 30.6685 44.5243 30.6575C44.0891 30.654 43.6469 30.5183 43.3135 30.2364C42.9853 29.9652 42.7771 29.5737 42.6844 29.1655C42.6081 28.8205 42.5898 28.4603 42.6522 28.112C42.7502 27.5731 43.0495 27.0657 43.4981 26.7394V26.7394ZM44.6237 27.5507C44.4186 27.5975 44.229 27.7129 44.1002 27.8781C43.8495 28.1964 43.8345 28.6529 44.0016 29.012C44.1154 29.2622 44.3478 29.4597 44.6218 29.5167C45.0401 29.6079 45.5159 29.4219 45.7263 29.0466C45.9706 28.6222 45.8751 28.0194 45.4754 27.7189C45.2378 27.5364 44.9138 27.4844 44.6237 27.5507V27.5507Z" fill="white"/>
<path d="M54.0939 26.5937C54.4806 26.3682 54.9578 26.3205 55.3914 26.4205C55.7034 26.4915 55.971 26.6833 56.1881 26.9099C56.1878 26.7573 56.1878 26.6044 56.1884 26.4518C56.589 26.452 56.9898 26.4515 57.3907 26.452C57.391 27.497 57.3907 28.5419 57.3907 29.5871C57.386 29.8696 57.4071 30.1542 57.3615 30.4345C57.298 30.8515 57.0853 31.2482 56.7544 31.5181C56.3769 31.832 55.8814 31.9756 55.3945 32H55.141C54.7257 31.9789 54.3063 31.8792 53.9518 31.6581C53.5612 31.4233 53.2794 31.0181 53.2186 30.5685C53.6886 30.5685 54.1586 30.5679 54.6286 30.5688C54.6894 30.6545 54.7521 30.743 54.842 30.8019C54.9906 30.9019 55.1796 30.9055 55.3531 30.9016C55.6063 30.8893 55.8841 30.8071 56.0346 30.5915C56.1662 30.4044 56.1326 30.1655 56.1298 29.9512C55.8769 30.1608 55.5777 30.3208 55.2537 30.3901C54.8928 30.4641 54.5081 30.412 54.1769 30.2545C53.7303 30.0427 53.4055 29.6282 53.2556 29.1679C53.0885 28.6564 53.1009 28.0899 53.2855 27.5847C53.4341 27.1789 53.713 26.812 54.0939 26.5937V26.5937ZM54.9764 27.4712C54.703 27.5455 54.4987 27.7789 54.419 28.0419C54.3071 28.4008 54.3512 28.8296 54.6091 29.1186C54.8595 29.4 55.2987 29.443 55.6346 29.2992C55.8392 29.212 56.0049 29.0452 56.0976 28.8463C56.2286 28.5726 56.2192 28.2463 56.1082 27.9679C56.0241 27.7567 55.8497 27.5822 55.6335 27.503C55.425 27.4274 55.191 27.4131 54.9764 27.4712Z" fill="white"/>
<path d="M58.8341 26.7235C59.2677 26.4123 59.8393 26.2967 60.3611 26.4192C60.6576 26.4901 60.9102 26.6712 61.1329 26.8704C61.1326 26.7307 61.1326 26.5912 61.1329 26.4518C61.5468 26.4518 61.9609 26.4518 62.3751 26.452V30.5567C61.954 30.5564 61.5329 30.5567 61.1121 30.5564C61.1121 30.4246 61.1115 30.2931 61.1123 30.1616C60.9638 30.3024 60.7923 30.4197 60.6038 30.5024C60.1158 30.7216 59.5358 30.7011 59.0473 30.4953C58.5987 30.306 58.255 29.9164 58.0896 29.4674C57.9269 29.0268 57.8861 28.5413 57.9721 28.0805C58.0762 27.5444 58.3822 27.0427 58.8341 26.7235V26.7235ZM59.92 27.5551C59.7424 27.5989 59.5778 27.694 59.4556 27.829C59.175 28.1364 59.1414 28.6066 59.3004 28.9783C59.399 29.2145 59.5972 29.4123 59.8454 29.492C60.2595 29.6257 60.7581 29.4693 61.0013 29.1077C61.2883 28.6887 61.2112 28.0548 60.8084 27.7337C60.5644 27.5359 60.2223 27.4803 59.92 27.5551V27.5551Z" fill="white"/>
<path d="M51.8096 24.6728C52.0167 24.6276 52.2426 24.6668 52.4172 24.7874C52.6426 24.9372 52.7717 25.2148 52.7373 25.4813C52.7073 25.7896 52.4655 26.063 52.1607 26.1348C51.8953 26.2054 51.5928 26.1208 51.4129 25.9139C51.1944 25.6734 51.1617 25.2923 51.3332 25.0178C51.4365 24.8457 51.6119 24.7175 51.8096 24.6728Z" fill="white"/>
<path d="M51.3442 26.452C51.7631 26.4518 52.1818 26.4518 52.6007 26.452V30.5564C52.182 30.5564 51.7631 30.5567 51.3445 30.5564C51.344 29.1882 51.3445 27.8203 51.3442 26.452Z" fill="white"/>
<rect x="67" width="17" height="8" rx="2" fill="#C9334E"/>
<path d="M69.7273 5.99999V2.38499H70.9748C71.2115 2.38499 71.4131 2.40749 71.5798 2.45249C71.7481 2.49749 71.8856 2.56166 71.9923 2.64499C72.1006 2.72833 72.1798 2.82916 72.2298 2.94749C72.2798 3.06583 72.3048 3.19916 72.3048 3.34749C72.3048 3.43249 72.2923 3.51416 72.2673 3.59249C72.2423 3.66916 72.2031 3.74166 72.1498 3.80999C72.0981 3.87666 72.0315 3.93749 71.9498 3.99249C71.8698 4.04749 71.774 4.09416 71.6623 4.13249C72.159 4.24416 72.4073 4.51249 72.4073 4.93749C72.4073 5.09083 72.3781 5.23249 72.3198 5.36249C72.2615 5.49249 72.1765 5.60499 72.0648 5.69999C71.9531 5.79333 71.8156 5.86666 71.6523 5.91999C71.489 5.97333 71.3023 5.99999 71.0923 5.99999H69.7273ZM70.3998 4.41499V5.47499H71.0823C71.2073 5.47499 71.3115 5.45999 71.3948 5.42999C71.4798 5.39999 71.5473 5.35999 71.5973 5.30999C71.649 5.25999 71.6856 5.20166 71.7073 5.13499C71.7306 5.06833 71.7423 4.99749 71.7423 4.92249C71.7423 4.84416 71.7298 4.77416 71.7048 4.71249C71.6798 4.64916 71.6406 4.59583 71.5873 4.55249C71.534 4.50749 71.4656 4.47333 71.3823 4.44999C71.299 4.42666 71.1981 4.41499 71.0798 4.41499H70.3998ZM70.3998 3.94999H70.9373C71.1656 3.94999 71.339 3.90833 71.4573 3.82499C71.5756 3.74166 71.6348 3.60916 71.6348 3.42749C71.6348 3.23916 71.5815 3.10499 71.4748 3.02499C71.3681 2.94499 71.2015 2.90499 70.9748 2.90499H70.3998V3.94999Z" fill="white"/>
<path d="M75.2641 2.38499V2.91999H73.6616V3.92249H74.9241V4.43999H73.6616V5.46249H75.2641V5.99999H72.9841V2.38499H75.2641Z" fill="white"/>
<path d="M78.393 2.38499V2.93749H77.3055V5.99999H76.633V2.93749H75.5405V2.38499H78.393Z" fill="white"/>
<path d="M81.6304 5.99999H81.1104C81.052 5.99999 81.0037 5.98583 80.9654 5.95749C80.9287 5.92749 80.902 5.89083 80.8854 5.84749L80.6154 5.10999H79.1179L78.8479 5.84749C78.8345 5.88583 78.8079 5.92083 78.7679 5.95249C78.7295 5.98416 78.682 5.99999 78.6254 5.99999H78.1029L79.5229 2.38499H80.2104L81.6304 5.99999ZM79.2904 4.63499H80.4429L80.0029 3.43249C79.9829 3.37916 79.9604 3.31666 79.9354 3.24499C79.912 3.17166 79.8887 3.09249 79.8654 3.00749C79.842 3.09249 79.8187 3.17166 79.7954 3.24499C79.7737 3.31833 79.752 3.38249 79.7304 3.43749L79.2904 4.63499Z" fill="white"/>
<defs>
<radialGradient id="paint0_radial_1237_40171" cx="0" cy="0" r="1" gradientUnits="userSpaceOnUse" gradientTransform="translate(14.8529 2.40521) scale(42.0506 37.0298)">
<stop stop-color="#C01617"/>
<stop offset="0.5051" stop-color="#BE181B"/>
<stop offset="1" stop-color="#C7120C"/>
</radialGradient>
</defs>
</svg>
