<svg width="248" height="48" viewBox="0 0 248 48" fill="none" xmlns="http://www.w3.org/2000/svg">
<path d="M99.6717 0H99.0162V48H99.6717V0Z" fill="white"/>
<path d="M129.841 17.6075C126.459 17.6075 123.713 20.4013 123.713 23.8271C123.713 27.2594 126.466 30.0466 129.841 30.0466C133.223 30.0466 135.97 27.2528 135.97 23.8271C135.97 20.4013 133.223 17.6075 129.841 17.6075Z" fill="white"/>
<path d="M163.937 31.0643H154.466V14.3148H158.752V27.2594H163.937V31.0643Z" fill="white"/>
<path d="M171.828 21.1397C169.921 21.1397 168.695 22.5831 168.695 24.3525C168.695 26.2151 169.855 27.745 171.697 27.745C173.473 27.745 174.955 26.4146 174.955 24.4656C174.955 22.4967 173.585 21.1397 171.828 21.1397ZM164.645 24.4191C164.645 20.6807 167.365 17.3747 171.035 17.3747C172.641 17.3747 173.65 17.9202 174.83 19.0177V17.6408H178.776V31.0643H174.765V29.7539C174.765 29.7539 173.329 31.3969 170.819 31.3969C167.155 31.3969 164.645 28.7228 164.645 24.4191Z" fill="white"/>
<path d="M190.606 31.0643H181.129V14.3148H185.415V27.2594H190.606V31.0643Z" fill="white"/>
<path d="M196.368 31.0643H192.383V17.6408H196.368V31.0643ZM191.996 14.2284C191.996 12.8714 193.064 11.7539 194.395 11.7539C195.725 11.7539 196.82 12.8248 196.82 14.1818C196.82 15.5588 195.725 16.6763 194.355 16.6763C193.045 16.6763 191.996 15.6053 191.996 14.2284Z" fill="white"/>
<path d="M204.751 20.8537C202.889 20.8537 201.965 22.4036 201.965 24.0665C201.965 25.796 202.974 27.2129 204.731 27.2129C206.723 27.2129 207.792 25.5965 207.792 24.0865C207.792 22.2971 206.809 20.8537 204.751 20.8537ZM198.085 24.0931C198.085 20.4612 200.359 17.3814 203.833 17.3814C205.504 17.3814 206.638 17.9268 207.772 19.1508V17.6408H211.593V29.4679C211.593 33.6186 208.526 35.7871 204.836 35.7871C201.598 35.7871 198.767 34.1242 198.341 31.1042H202.817C203.374 32.0222 203.931 32.1951 204.921 32.1951C206.311 32.1951 207.602 31.5432 207.602 30.0798C207.602 29.7273 207.621 29.4213 207.582 29.0754C206.809 29.7738 205.373 30.6253 203.807 30.6253C200.399 30.6319 198.085 27.745 198.085 24.0931Z" fill="white"/>
<path d="M220.488 21.1397C218.58 21.1397 217.361 22.5831 217.361 24.3525C217.361 26.2151 218.515 27.745 220.363 27.745C222.146 27.745 223.621 26.4146 223.621 24.4656C223.614 22.4967 222.244 21.1397 220.488 21.1397ZM213.304 24.4191C213.304 20.6807 216.024 17.3747 219.694 17.3747C221.307 17.3747 222.31 17.9202 223.489 19.0177V17.6408H227.435V31.0643H223.424V29.7539C223.424 29.7539 221.988 31.3969 219.478 31.3969C215.814 31.3969 213.304 28.7228 213.304 24.4191Z" fill="white"/>
<path d="M117.06 12.9978C117.028 13.0643 117.028 13.1441 117.073 13.2106C117.093 13.2439 117.119 13.2639 117.152 13.2772L123.562 17.0554L123.575 17.0621C123.641 17.102 123.726 17.0953 123.792 17.0488C123.811 17.0355 123.831 17.0155 123.844 16.9956C123.851 16.9889 123.857 16.9756 123.864 16.9623C124.454 15.898 125.279 14.9468 126.322 14.1951C127.37 13.4435 128.53 12.9712 129.723 12.7583C129.73 12.7583 129.743 12.7583 129.749 12.7517C129.776 12.745 129.802 12.7317 129.822 12.7184C129.887 12.6718 129.92 12.592 129.907 12.5122V12.4989L128.537 5.12195V5.10865C128.53 5.08204 128.517 5.04878 128.498 5.02217C128.452 4.96231 128.38 4.92905 128.308 4.9357C128.301 4.9357 128.294 4.9357 128.288 4.9357C126.027 5.35477 123.785 6.26608 121.779 7.70953C119.78 9.15299 118.201 10.969 117.06 12.9978Z" fill="#893A96"/>
<path d="M113.396 27.286C113.429 27.3526 113.495 27.4058 113.567 27.4124C113.6 27.4124 113.639 27.4058 113.665 27.3925L120.58 24.6852L120.593 24.6785C120.665 24.6519 120.718 24.5787 120.718 24.4989C120.718 24.4723 120.718 24.4457 120.711 24.4257C120.704 24.4124 120.704 24.4058 120.698 24.3925C120.252 23.2616 120.036 22.0111 120.115 20.714C120.193 19.4102 120.554 18.1929 121.137 17.122C121.144 17.1153 121.144 17.1087 121.15 17.102C121.163 17.0754 121.17 17.0488 121.17 17.0222C121.176 16.9357 121.131 16.8625 121.065 16.8226L121.052 16.816L114.524 13.2572L114.511 13.2506C114.484 13.2373 114.452 13.2306 114.425 13.2306C114.347 13.2306 114.281 13.2705 114.242 13.3304C114.235 13.337 114.235 13.3437 114.235 13.3437C113.134 15.3925 112.439 17.7406 112.289 20.2284C112.151 22.7162 112.551 25.1109 113.396 27.286Z" fill="#0065B1"/>
<path d="M122.186 39.02C122.258 39.0399 122.337 39.02 122.389 38.9601C122.415 38.9335 122.428 38.9002 122.441 38.867L124.644 31.6896L124.65 31.6763C124.67 31.6031 124.65 31.5166 124.591 31.4634C124.572 31.4435 124.552 31.4302 124.526 31.4235C124.513 31.4169 124.506 31.4169 124.493 31.4169C123.339 31.071 122.245 30.4656 121.288 29.5942C120.331 28.7228 119.616 27.6785 119.151 26.5477C119.151 26.541 119.145 26.5344 119.145 26.5211C119.131 26.4945 119.118 26.4745 119.099 26.4546C119.04 26.4013 118.954 26.388 118.882 26.4146L118.869 26.4213L112.066 29.408L112.053 29.4146C112.027 29.4279 112 29.4479 111.981 29.4679C111.928 29.5277 111.915 29.6075 111.941 29.6741C111.941 29.6807 111.948 29.6874 111.948 29.694C112.852 31.8426 114.229 33.8514 116.057 35.5144C117.886 37.184 119.984 38.3481 122.186 39.02Z" fill="#0A9BD7"/>
<path d="M136.638 39.3725C136.697 39.3259 136.73 39.2528 136.723 39.1729C136.717 39.1397 136.704 39.1064 136.684 39.0798L132.555 32.8337L132.542 32.8204C132.496 32.7605 132.417 32.7206 132.338 32.7339C132.312 32.7406 132.293 32.7472 132.266 32.7605C132.253 32.7672 132.247 32.7738 132.24 32.7805C131.25 33.4723 130.097 33.9645 128.832 34.1707C127.56 34.3836 126.315 34.2905 125.155 33.9512C125.148 33.9512 125.142 33.9446 125.129 33.9446C125.102 33.9379 125.076 33.9379 125.05 33.9446C124.971 33.9579 124.906 34.0177 124.886 34.0909L124.88 34.1042L122.907 41.3548V41.3681C122.9 41.4013 122.9 41.4279 122.907 41.4612C122.92 41.5344 122.972 41.5942 123.044 41.6208C123.051 41.6208 123.057 41.6275 123.064 41.6275C125.279 42.2594 127.691 42.4324 130.11 42.0266C132.528 41.6208 134.737 40.6896 136.638 39.3725Z" fill="#0FB05F"/>
<path d="M146.044 28.1707C146.044 28.0976 146.011 28.0244 145.939 27.9845C145.906 27.9645 145.873 27.9579 145.84 27.9579L138.454 27.3725H138.44C138.362 27.3659 138.29 27.4058 138.25 27.4789C138.237 27.4989 138.231 27.5255 138.224 27.5521C138.224 27.5654 138.224 27.5787 138.224 27.5854C138.146 28.8027 137.811 30.02 137.189 31.1574C136.566 32.3016 135.72 33.2395 134.737 33.9512C134.731 33.9579 134.724 33.9579 134.718 33.9645C134.698 33.9845 134.678 34.0044 134.665 34.0244C134.626 34.0976 134.632 34.184 134.678 34.2439L134.685 34.2572L139.063 40.3237L139.07 40.337C139.089 40.3636 139.109 40.3836 139.142 40.3969C139.207 40.4302 139.286 40.4235 139.352 40.3902C139.358 40.3902 139.358 40.3836 139.365 40.3836C141.226 39.0133 142.852 37.1973 144.044 35.0222C145.231 32.8337 145.886 30.5055 146.044 28.1707Z" fill="#FDDC2D"/>
<path d="M143.251 13.7029C143.192 13.6563 143.114 13.6364 143.042 13.663C143.009 13.6763 142.983 13.6962 142.956 13.7228L137.857 19.184L137.844 19.1973C137.792 19.2572 137.779 19.337 137.805 19.4168C137.818 19.4435 137.831 19.4634 137.844 19.4834C137.851 19.49 137.857 19.5033 137.87 19.51C138.755 20.3415 139.476 21.3725 139.955 22.5765C140.433 23.7871 140.623 25.0443 140.551 26.2683C140.551 26.2749 140.551 26.2882 140.551 26.2949C140.551 26.3215 140.558 26.3481 140.564 26.3747C140.597 26.4545 140.669 26.5011 140.741 26.5077H140.754L148.154 26.8736H148.167C148.2 26.8736 148.226 26.867 148.259 26.8536C148.331 26.8204 148.377 26.7539 148.383 26.6807C148.383 26.674 148.383 26.6674 148.383 26.6607C148.508 24.3259 148.141 21.9046 147.223 19.5964C146.312 17.2816 144.936 15.2927 143.251 13.7029Z" fill="#F68D32"/>
<path d="M130.293 6.97783C130.221 6.99114 130.156 7.04435 130.136 7.12418C130.123 7.15743 130.123 7.19735 130.13 7.23061L131.211 14.6741V14.6874C131.224 14.7605 131.277 14.8271 131.355 14.8537C131.381 14.8603 131.408 14.8603 131.427 14.8603C131.44 14.8603 131.454 14.8603 131.46 14.8537C132.646 14.6608 133.892 14.7206 135.124 15.0798C136.363 15.4457 137.451 16.071 138.349 16.8825C138.355 16.8891 138.362 16.8958 138.368 16.9024C138.388 16.9157 138.414 16.9291 138.441 16.9424C138.519 16.969 138.598 16.9424 138.65 16.8825L138.657 16.8692L143.507 11.1818L143.514 11.1685C143.533 11.1419 143.546 11.1153 143.553 11.0887C143.573 11.0155 143.546 10.9357 143.5 10.8825C143.494 10.8758 143.494 10.8758 143.487 10.8692C141.757 9.3326 139.653 8.12861 137.293 7.43681C134.96 6.73837 132.574 6.61198 130.293 6.97783Z" fill="#EE3435"/>
<path d="M134.292 27.3393C134.383 27.0865 134.416 26.7938 134.442 26.561C134.318 26.6807 134.187 26.7938 134.043 26.9002C133.623 27.2129 133.164 27.4124 132.725 27.5055L131.539 26.1951L131.526 26.2084L132.384 27.7517C132.161 28.1508 131.827 28.5366 131.401 28.8492C131.257 28.9557 131.113 29.0488 130.962 29.1286C131.185 29.1685 131.467 29.2284 131.735 29.2217C131.139 29.4346 130.503 29.5543 129.835 29.5543C129.166 29.5543 128.53 29.4346 127.934 29.2217C128.196 29.235 128.484 29.1685 128.707 29.1286C128.557 29.0488 128.412 28.9557 128.268 28.8492C127.842 28.5366 127.508 28.1508 127.285 27.7517L128.144 26.2084L128.131 26.1951L126.944 27.5055C126.505 27.4124 126.053 27.2062 125.627 26.9002C125.483 26.7938 125.352 26.6807 125.227 26.561C125.26 26.7938 125.286 27.0865 125.378 27.3393C124.637 26.3681 124.191 25.1508 124.191 23.8271C124.191 23.7672 124.191 23.7007 124.198 23.6408C124.263 23.9069 124.421 24.173 124.532 24.3858C124.558 24.2195 124.604 24.0466 124.657 23.8736C124.821 23.3614 125.076 22.9224 125.384 22.5765L127.082 22.9224L127.088 22.9024L125.502 22.1641C125.456 21.7118 125.502 21.2129 125.666 20.714C125.719 20.541 125.784 20.3814 125.863 20.2284C125.646 20.3348 125.358 20.4612 125.142 20.6475C125.882 19.5233 126.997 18.6852 128.308 18.3126C128.065 18.459 127.849 18.7051 127.678 18.8847C127.849 18.8581 128.019 18.8514 128.196 18.8514C128.72 18.8514 129.212 18.9645 129.625 19.1508L129.822 20.8936H129.841L130.038 19.1508C130.451 18.9645 130.936 18.8514 131.46 18.8514C131.637 18.8514 131.814 18.8648 131.978 18.8847C131.808 18.7051 131.598 18.459 131.349 18.3126C132.66 18.6852 133.774 19.5233 134.508 20.6408C134.298 20.4546 134.01 20.3282 133.793 20.2217C133.866 20.3747 133.931 20.541 133.99 20.7073C134.147 21.2129 134.2 21.7118 134.154 22.1641L132.574 22.8958L132.581 22.9157L134.279 22.5699C134.587 22.9091 134.842 23.3481 135.006 23.8603C135.058 24.0333 135.104 24.1996 135.131 24.3725C135.242 24.1663 135.393 23.9002 135.458 23.6342C135.458 23.694 135.465 23.7539 135.465 23.8138C135.478 25.1574 135.039 26.3681 134.292 27.3393ZM129.841 17.6075C126.459 17.6075 123.713 20.4013 123.713 23.8271C123.713 27.2594 126.466 30.0466 129.841 30.0466C133.223 30.0466 135.97 27.2528 135.97 23.8271C135.97 20.4013 133.223 17.6075 129.841 17.6075Z" fill="black"/>
<path d="M127.364 23.0155L128.314 25.9689H131.375L132.319 23.0155L129.841 21.1862L127.364 23.0155Z" fill="black"/>
<path d="M54.8203 12.2262C57.8091 11.7738 58.4646 10.204 58.4646 7.50332V4.66962C58.4646 1.68292 56.1116 0.186249 51.3924 0.186249C46.6733 0.186249 44.3203 1.68957 44.3203 4.66962V8.01552C44.3203 10.3636 44.8315 11.5942 47.5581 12.0665C44.8315 12.6785 44.3203 14.4013 44.3203 16.9157V20.5876C44.3203 23.6075 46.6733 25.1109 51.3924 25.1109C56.1116 25.1109 58.4646 23.6075 58.4646 20.5876V16.9556C58.4646 14.1818 57.8091 12.6053 54.8203 12.2262ZM51.3531 10.6563C50.311 10.6563 49.7997 10.1508 49.7997 9.15299V4.37694C49.7997 3.39911 50.311 2.93348 51.3531 2.93348C52.4149 2.93348 52.9458 3.41906 52.9458 4.37694V9.15299C52.9458 10.1508 52.4149 10.6563 51.3531 10.6563ZM51.3531 22.2106C50.311 22.2106 49.7997 21.7051 49.7997 20.7073V15.2993C49.7997 14.2683 50.311 13.7627 51.3531 13.7627C52.4149 13.7627 52.9458 14.2683 52.9458 15.2993V20.7073C52.9458 21.7051 52.4149 22.2106 51.3531 22.2106Z" fill="white"/>
<path d="M71.0423 12.2262C74.0311 11.7738 74.6865 10.204 74.6865 7.50332V4.66962C74.6865 1.68292 72.3335 0.186249 67.6078 0.186249C62.8822 0.186249 60.5292 1.68957 60.5292 4.66962V8.01552C60.5292 10.3636 61.0404 11.5942 63.767 12.0665C61.0404 12.6785 60.5292 14.4013 60.5292 16.9157V20.5876C60.5292 23.6075 62.8822 25.1109 67.6078 25.1109C72.3335 25.1109 74.6865 23.6075 74.6865 20.5876V16.9556C74.6865 14.1818 74.0311 12.6053 71.0423 12.2262ZM67.5751 10.6563C66.5329 10.6563 66.0151 10.1508 66.0151 9.15299V4.37694C66.0151 3.39911 66.5264 2.93348 67.5751 2.93348C68.6369 2.93348 69.1678 3.41906 69.1678 4.37694V9.15299C69.1809 10.1508 68.6565 10.6563 67.5751 10.6563ZM67.5751 22.2106C66.5329 22.2106 66.0151 21.7051 66.0151 20.7073V15.2993C66.0151 14.2683 66.5264 13.7627 67.5751 13.7627C68.6369 13.7627 69.1678 14.2683 69.1678 15.2993V20.7073C69.1809 21.7051 68.6565 22.2106 67.5751 22.2106Z" fill="white"/>
<path d="M25.0703 36.1929V35.7273C24.0544 35.6208 23.9888 35.5277 23.9626 34.3104L23.8446 29.3481C23.8184 28.2505 23.8708 28.1441 24.913 28.0377V27.5721H22.2978L19.7482 33.3791L17.2379 27.5721H14.544V28.0377C15.6648 28.1441 15.7566 28.3304 15.6517 29.8403L15.442 32.4545C15.3502 33.8448 15.2453 34.5366 15.1667 34.9623C15.088 35.4279 14.839 35.6674 14.1115 35.7339V36.1995H17.2379V35.7339C16.3792 35.6541 16.1171 35.5344 16.0646 34.9357C16.0122 34.5233 16.0122 33.9046 16.0646 32.8004L16.2219 29.3415H16.2744L18.9289 36.1064H19.2959L22.1733 29.2084H22.2388L22.265 34.3171C22.2781 35.5344 22.1995 35.6275 21.2229 35.7339V36.1995H25.0703V36.1929Z" fill="white"/>
<path d="M34.3774 36.1929V35.7273C33.5581 35.6208 33.3877 35.4479 32.9486 34.2838C32.1031 32.0022 31.2969 29.694 30.4645 27.3725L29.8025 27.5454L27.1349 34.3636C26.7023 35.4745 26.5515 35.6208 25.6929 35.7273L25.6798 36.1929H28.5965V35.7273C27.6461 35.6075 27.6199 35.4213 27.8034 34.7827C27.9607 34.2505 28.1311 33.7716 28.2753 33.3658H30.7725C30.9692 33.9113 31.1658 34.4634 31.2903 34.8625C31.5001 35.4479 31.4345 35.6075 30.6677 35.7273V36.1929H34.3774V36.1929ZM30.5103 32.6674H28.4785C28.8193 31.7228 29.1405 30.7716 29.5075 29.8004H29.5469L30.5103 32.6674Z" fill="white"/>
<path d="M44.0516 27.5721H40.8728V28.0377C41.8232 28.0909 42.0984 28.3171 42.164 28.8891C42.1902 29.2749 42.2688 29.9002 42.2688 31.0643V33.3991H42.2164L37.2417 27.5787H34.8362V28.0443C35.3803 28.0976 35.6817 28.204 35.9177 28.5233C36.1668 28.8293 36.193 29.082 36.193 29.9401V32.714C36.193 33.878 36.1143 34.4634 36.0619 34.9024C36.0095 35.4745 35.708 35.6873 34.9804 35.7406V36.2062H38.1724V35.7406C37.2089 35.7007 36.9861 35.4479 36.9205 34.8625C36.8812 34.4634 36.8156 33.878 36.8156 32.714V29.7273H36.855L42.2688 36.3326H42.8915V31.0643C42.8915 29.9002 42.9702 29.2749 43.0095 28.8625C43.075 28.2505 43.3503 28.0776 44.0516 28.0377V27.5721V27.5721Z" fill="white"/>
<path d="M50.0161 29.6275C49.9112 28.8027 49.8194 28.2239 49.767 27.7317C49.531 27.6386 48.7904 27.3725 47.958 27.3725C46.1097 27.3725 44.9758 28.51 44.9758 29.9734C44.9758 31.2439 45.9 31.9623 47.2436 32.6541C48.2202 33.1862 48.7904 33.6785 48.7904 34.4568C48.7904 35.2949 48.2857 35.847 47.4861 35.847C46.2342 35.847 45.4674 34.3636 45.2052 33.5122L44.7464 33.6585C44.8382 34.4701 45.0086 35.5809 45.1266 35.9135C45.3101 35.9933 45.5591 36.0998 45.9196 36.2062C46.3129 36.3259 46.7651 36.3925 47.237 36.3925C49.1378 36.3925 50.4028 35.2151 50.4028 33.6984C50.4028 32.388 49.4655 31.643 48.0957 30.9645C46.9486 30.3791 46.4833 29.9534 46.4833 29.2284C46.4833 28.4701 47.0142 27.918 47.7483 27.918C48.8166 27.918 49.2951 28.9024 49.5704 29.7339L50.0161 29.6275Z" fill="white"/>
<path d="M55.0695 36.1929V35.7273C54.106 35.6341 53.988 35.541 53.988 34.4301V29.3481C53.988 28.2239 54.106 28.1308 55.0695 28.0377V27.5721H51.1631V28.0377C52.1266 28.1308 52.2445 28.2239 52.2445 29.3481V34.4301C52.2445 35.541 52.1266 35.6341 51.1631 35.7273V36.1929H55.0695Z" fill="white"/>
<path d="M60.5816 27.3792C57.5994 27.3792 56.0132 29.6208 56.0132 31.9024C56.0132 34.4501 57.8222 36.3991 60.4243 36.3991C62.8691 36.3991 64.8878 34.663 64.8878 31.796C64.8878 29.1685 62.9477 27.3792 60.5816 27.3792ZM60.3457 27.9313C61.84 27.9313 62.8953 29.5211 62.8953 32.1619C62.8953 34.6031 61.8925 35.8337 60.6537 35.8337C58.9889 35.8337 57.9992 33.9113 57.9992 31.643C57.9992 29.3548 59.0282 27.9313 60.3457 27.9313Z" fill="white"/>
<path d="M74.6931 27.5721H71.5143V28.0377C72.4646 28.0909 72.7399 28.3171 72.8055 28.8891C72.8317 29.2749 72.9103 29.9002 72.9103 31.0643V33.3991H72.8579L67.8832 27.5787H65.4777V28.0443C66.0217 28.0976 66.3232 28.204 66.5592 28.5233C66.8083 28.8293 66.8345 29.082 66.8345 29.9401V32.714C66.8345 33.878 66.7558 34.4634 66.7034 34.9024C66.6509 35.4745 66.3494 35.6873 65.6219 35.7406V36.2062H68.8139V35.7406C67.8504 35.7007 67.6275 35.4479 67.562 34.8625C67.5227 34.4634 67.4571 33.878 67.4571 32.714V29.7273H67.4965L72.9103 36.3326H73.533V31.0643C73.533 29.9002 73.6116 29.2749 73.651 28.8625C73.7165 28.2505 73.9918 28.0776 74.6931 28.0377V27.5721V27.5721Z" fill="white"/>
<path d="M14.4916 0.545451C14.4916 0.345894 14.6489 0.186249 14.8455 0.186249H41.8952C42.0918 0.186249 42.2491 0.345894 42.2491 0.545451V24.9246C42.2491 25.1242 42.0918 25.2838 41.8952 25.2838H14.8455C14.6489 25.2838 14.4916 25.1242 14.4916 24.9246V0.545451Z" fill="#D4B372"/>
<path d="M15.8615 1.93569C15.8615 1.73614 16.0188 1.57649 16.2154 1.57649H40.5254C40.722 1.57649 40.8793 1.73614 40.8793 1.93569V23.5211C40.8793 23.7206 40.722 23.8803 40.5254 23.8803H16.2154C16.0188 23.8803 15.8615 23.7206 15.8615 23.5211V1.93569Z" fill="url(#paint0_radial_1237_40231)"/>
<path fill-rule="evenodd" clip-rule="evenodd" d="M25.2145 12.6319V20.5344C25.2145 20.7073 25.1686 20.8137 25.0178 20.8137C24.8671 20.8137 24.8015 20.7073 24.8015 20.5344V19.49H24.4148C24.1396 19.49 23.2416 20.1885 22.6779 20.6275C22.4944 20.7672 22.3502 20.8869 22.265 20.9468C21.6424 20.5809 20.8624 20.2084 20.2856 20.0089C20.1807 20.1086 20.089 20.1951 19.9972 20.2749C19.8137 20.4412 19.6761 20.5743 19.5778 20.6807C19.5384 20.7206 19.5122 20.7539 19.4794 20.7805C19.3942 20.8736 19.3483 20.9202 19.2959 20.9202C19.191 20.9202 19.06 20.7938 19.06 20.6807C19.06 20.5743 19.2959 20.3149 20.397 19.1774C21.1508 18.3925 21.4523 17.4612 21.4523 16.0244C21.4523 13.6497 20.4429 11.6275 19.2828 11.6275C18.8961 11.6275 18.6995 11.7805 18.6405 12.1729C18.6208 12.3725 18.5356 12.4324 18.4439 12.4324C18.2734 12.4324 18.1882 12.1463 18.1882 11.6674C18.1882 10.5765 18.942 9.71175 19.8661 9.71175C20.2987 9.71175 20.5871 9.90466 20.8427 10.071C21.059 10.2106 21.2425 10.3304 21.4588 10.3038V8.71397C21.4588 8.30155 21.3081 7.949 21.0066 7.68958C20.751 7.47007 19.4139 6.55876 18.9158 6.55876C18.8174 6.55876 18.7519 6.57871 18.6864 6.59867C18.6405 6.61197 18.5946 6.62528 18.5487 6.62528C18.4832 6.62528 18.4635 6.60532 18.4635 6.55876C18.4635 6.49889 18.4963 6.45898 18.5946 6.3459C18.6077 6.33259 18.6208 6.31264 18.6339 6.29933L20.3315 4.6031C20.3446 4.5898 20.3643 4.58315 20.3774 4.56984C20.4364 4.52328 20.4757 4.49667 20.5478 4.49667C20.8886 4.49667 21.8455 5.14856 22.619 5.68736C23.1564 6.05987 23.6152 6.37251 23.7266 6.37251C23.9298 6.37251 24.5459 5.9867 25.2079 5.56763C25.9879 5.07539 26.8399 4.53658 27.1742 4.53658C27.3315 4.53658 27.5019 4.66962 28.6031 5.57428L28.6096 5.58093C28.6817 5.6408 28.7538 5.70066 28.8325 5.76053C28.8849 5.80044 28.9504 5.86031 29.0291 5.92683C29.2585 6.11973 29.5731 6.39246 29.868 6.57206C30.2154 6.79157 30.2351 6.83149 30.2351 7.2439C30.4514 7.19734 30.6873 7.02439 32.0441 5.91353C32.4308 5.58758 33.5712 4.64967 33.6564 4.64967C33.7613 4.64967 34.7117 5.04213 36.1143 5.62749C36.5272 5.80044 36.5862 5.84701 36.5862 6.10643V17.3614C36.5862 17.7273 36.6321 17.8603 36.7829 17.9933C37.4252 18.5588 37.8184 18.7783 38.0347 18.7783C38.1003 18.7783 38.1855 18.7517 38.251 18.6918C38.3559 18.5388 38.3821 18.5188 38.4477 18.5188C38.5132 18.5188 38.5787 18.6053 38.5787 18.6918C38.5787 18.8248 37.6153 20.0421 36.619 20.8271C36.016 20.6075 34.987 19.8891 34.4036 19.2838C34.207 19.0643 34.1677 19.0244 34.1677 18.6519V10.5898C34.1677 9.65188 34.4626 9.01996 35.5441 7.56319C36.1078 6.82483 36.1471 6.60532 36.0357 6.60532C35.9832 6.60532 35.4982 6.94457 35.0591 7.25055C34.7576 7.45676 34.4823 7.65632 34.3774 7.71619C34.3315 7.68958 34.2857 7.66297 34.2398 7.63636C33.1845 7.02439 32.8437 6.82483 32.2407 6.82483C31.8999 6.82483 31.6574 6.99778 31.6574 7.21729V20.6075C31.6574 20.7805 31.5722 20.9135 31.4411 20.9135C31.3362 20.9135 31.2707 20.8071 31.2707 20.6341V19.6297C30.6677 19.7295 30.1302 20.2284 29.7763 20.561C29.5862 20.7406 29.4486 20.867 29.3765 20.867C29.1405 20.867 27.7444 19.1707 27.7444 19.0377V12.6319H25.2145V12.6319ZM24.8212 7.08426C24.8212 6.64523 24.7753 6.49889 24.6967 6.49889C24.5066 6.49889 23.8118 6.93792 23.8118 7.08426V13.1109C23.8118 16.0377 23.4841 16.3836 22.7369 17.1818C22.7238 17.1951 22.7107 17.2151 22.6911 17.2284C22.3437 17.5942 22.2585 17.6874 22.0029 17.9933C22.4551 18.6253 23.9626 18.9113 24.8212 18.8647V7.08426ZM27.7313 10.5698H25.2145V6.91131C25.2145 6.62528 25.339 6.47228 25.5815 6.47228C26.119 6.47228 27.7313 7.70953 27.7313 8.16851V10.5698ZM31.2641 7.47007C31.2641 7.4235 31.2445 7.40355 31.1789 7.40355C31.1134 7.40355 31.0085 7.45011 30.943 7.49002L30.4514 7.79601C30.1761 7.96896 30.0843 8.05543 30.0843 8.18847V10.3636C30.0843 10.5166 30.281 10.6231 30.4317 10.6231H31.2707V7.47007H31.2641ZM30.4448 12.592H31.2576V18.9047C30.4645 18.8381 30.0974 18.4257 30.0974 17.5543V13.0909C30.0974 12.765 30.2089 12.592 30.4448 12.592Z" fill="white"/>
<path d="M1.99907 43.9357C3.13297 43.9357 3.99814 44.7871 3.99814 45.8847C3.99814 46.9823 3.13297 47.827 1.99907 47.827C0.865171 47.827 0 46.9823 0 45.8847C0 44.7871 0.865171 43.9357 1.99907 43.9357ZM1.99907 47.0554C2.62828 47.0554 3.1133 46.5499 3.1133 45.8847C3.1133 45.2195 2.62828 44.714 1.99907 44.714C1.36985 44.714 0.884834 45.2195 0.884834 45.8847C0.884834 46.5499 1.36985 47.0554 1.99907 47.0554Z" fill="white"/>
<path d="M5.10583 44.0022H7.41296V44.7672H5.98411V45.5721H7.28843V46.337H5.98411V47.7672H5.10583V44.0022Z" fill="white"/>
<path d="M8.50098 44.0022H10.8081V44.7672H9.37926V45.5721H10.6836V46.337H9.37926V47.7672H8.50098V44.0022Z" fill="white"/>
<path d="M12.7809 44.0022V47.7672H11.9026V44.0022H12.7809Z" fill="white"/>
<path d="M13.9017 45.8847C13.9017 44.7871 14.7669 43.9357 15.9008 43.9357C16.4055 43.9357 16.8446 44.102 17.1986 44.3814L16.7529 45.0399C16.5169 44.8537 16.2416 44.7073 15.9008 44.7073C15.2716 44.7073 14.7866 45.2129 14.7866 45.8781C14.7866 46.5432 15.2716 47.0488 15.9008 47.0488C16.2351 47.0488 16.5562 46.8891 16.7856 46.6829L17.251 47.3348C16.8905 47.6475 16.4251 47.8204 15.9074 47.8204C14.7735 47.8271 13.9017 46.9823 13.9017 45.8847Z" fill="white"/>
<path d="M19.2107 44.0022V47.7672H18.3325V44.0022H19.2107Z" fill="white"/>
<path d="M22.4551 44.0022L23.7398 47.7672H22.8221L22.5796 46.9823H21.3671L21.1246 47.7672H20.207L21.4916 44.0022H22.4551ZM21.9766 44.9401L21.5637 46.2838H22.383L21.9766 44.9401Z" fill="white"/>
<path d="M24.7229 44.0022H25.6012V46.9956H27.0235V47.7672H24.7229V44.0022V44.0022Z" fill="white"/>
<path d="M31.5132 44.0022C32.2866 44.0022 32.8241 44.4944 32.8241 45.2262C32.8241 45.7583 32.5488 46.1574 32.09 46.3304L32.9224 47.7605H31.972L31.2379 46.4501H31.0151V47.7605H30.1499V43.9956H31.5132V44.0022ZM31.0151 44.714V45.7849H31.428C31.7623 45.7849 31.9589 45.5588 31.9589 45.2528C31.9589 44.9335 31.7623 44.7206 31.428 44.7206H31.0151V44.714Z" fill="white"/>
<path d="M33.9514 44.0022H36.311V44.7539H34.8297V45.4989H36.1864V46.2373H34.8297V47.0089H36.3569V47.7605H33.9514V44.0022Z" fill="white"/>
<path d="M38.2117 45.898C38.2117 46.5632 38.6967 47.082 39.3259 47.082C39.4898 47.082 39.6733 47.0355 39.8044 46.9556V46.3237H39.0769V45.6386H40.6827V47.3215C40.3288 47.6341 39.8503 47.827 39.3194 47.827C38.1855 47.827 37.3203 46.9756 37.3203 45.8847C37.3203 44.7871 38.1855 43.9357 39.3194 43.9357C39.8241 43.9357 40.2632 44.102 40.6171 44.3814L40.1714 45.0399C39.9355 44.8537 39.6602 44.7073 39.3194 44.7073C38.6967 44.714 38.2117 45.2195 38.2117 45.898Z" fill="white"/>
<path d="M42.8129 44.0022V47.7672H41.9346V44.0022H42.8129Z" fill="white"/>
<path d="M45.9393 43.9357C47.0732 43.9357 47.9384 44.7871 47.9384 45.8847C47.9384 46.9823 47.0732 47.827 45.9393 47.827C44.8054 47.827 43.9402 46.9756 43.9402 45.8847C43.9337 44.7871 44.8054 43.9357 45.9393 43.9357ZM45.9393 47.0554C46.5685 47.0554 47.0535 46.5499 47.0535 45.8847C47.0535 45.2195 46.5685 44.714 45.9393 44.714C45.3101 44.714 44.8251 45.2195 44.8251 45.8847C44.8185 46.5499 45.3035 47.0554 45.9393 47.0554Z" fill="white"/>
<path d="M49.046 44.0022H49.9702L51.2221 46.3969V44.0022H52.0348V47.7672H51.1106L49.8588 45.3725V47.7672H49.046V44.0022Z" fill="white"/>
<path d="M55.2595 44.0022L56.5442 47.7672H55.6266L55.3841 46.9823H54.1584L53.9159 47.7672H52.9983L54.2829 44.0022H55.2595ZM54.7811 44.9401L54.3681 46.2838H55.1874L54.7811 44.9401Z" fill="white"/>
<path d="M57.5273 44.0022H58.4056V46.9956H59.8279V47.7672H57.5273V44.0022Z" fill="white"/>
<path d="M63.826 46.51V47.7672H62.9478V44.0022H64.3176C65.0976 44.0022 65.6285 44.5211 65.6285 45.2528C65.6285 45.9845 65.0976 46.5033 64.3176 46.5033H63.826V46.51ZM64.2258 44.714H63.826V45.7982H64.2258C64.5601 45.7982 64.7633 45.5787 64.7633 45.2528C64.7633 44.9268 64.5601 44.714 64.2258 44.714Z" fill="white"/>
<path d="M68.6173 44.0022L69.9019 47.7672H68.9843L68.7418 46.9823H67.5161L67.2736 47.7672H66.356L67.6407 44.0022H68.6173ZM68.1322 44.9401L67.7193 46.2838H68.5386L68.1322 44.9401Z" fill="white"/>
<path d="M72.2549 44.0022C73.0283 44.0022 73.5657 44.4944 73.5657 45.2262C73.5657 45.7583 73.2905 46.1574 72.8317 46.3304L73.664 47.7605H72.7137L71.9796 46.4501H71.7633V47.7605H70.8981V43.9956H72.2549V44.0022ZM71.7502 44.714V45.7849H72.1631C72.4974 45.7849 72.694 45.5588 72.694 45.2528C72.694 44.9335 72.4974 44.7206 72.1631 44.7206H71.7502V44.714Z" fill="white"/>
<path d="M75.342 44.7738H74.4309V44.0022H77.1247V44.7738H76.2137V47.7672H75.3354V44.7738H75.342Z" fill="white"/>
<path d="M78.1669 44.0022H79.091L80.3429 46.3969V44.0022H81.1556V47.7672H80.2315L78.9796 45.3725V47.7672H78.1669V44.0022Z" fill="white"/>
<path d="M82.4534 44.0022H84.813V44.7539H83.3317V45.4989H84.6884V46.2373H83.3317V47.0089H84.8654V47.7605H82.4534V44.0022V44.0022Z" fill="white"/>
<path d="M87.3954 44.0022C88.1688 44.0022 88.7063 44.4944 88.7063 45.2262C88.7063 45.7583 88.431 46.1574 87.9722 46.3304L88.8046 47.7605H87.8542L87.1201 46.4501H86.8973V47.7605H86.0321V43.9956H87.3954V44.0022ZM86.8907 44.714V45.7849H87.3036C87.6379 45.7849 87.8345 45.5588 87.8345 45.2528C87.8345 44.9335 87.6379 44.7206 87.3036 44.7206H86.8907V44.714Z" fill="white"/>
<rect x="231" y="3" width="17" height="8" rx="2" fill="#C9334E"/>
<path d="M233.727 8.99999V5.38499H234.975C235.211 5.38499 235.413 5.40749 235.58 5.45249C235.748 5.49749 235.886 5.56166 235.992 5.64499C236.101 5.72833 236.18 5.82916 236.23 5.94749C236.28 6.06583 236.305 6.19916 236.305 6.34749C236.305 6.43249 236.292 6.51416 236.267 6.59249C236.242 6.66916 236.203 6.74166 236.15 6.80999C236.098 6.87666 236.031 6.93749 235.95 6.99249C235.87 7.04749 235.774 7.09416 235.662 7.13249C236.159 7.24416 236.407 7.51249 236.407 7.93749C236.407 8.09083 236.378 8.23249 236.32 8.36249C236.261 8.49249 236.176 8.60499 236.065 8.69999C235.953 8.79333 235.816 8.86666 235.652 8.91999C235.489 8.97333 235.302 8.99999 235.092 8.99999H233.727ZM234.4 7.41499V8.47499H235.082C235.207 8.47499 235.311 8.45999 235.395 8.42999C235.48 8.39999 235.547 8.35999 235.597 8.30999C235.649 8.25999 235.686 8.20166 235.707 8.13499C235.731 8.06833 235.742 7.99749 235.742 7.92249C235.742 7.84416 235.73 7.77416 235.705 7.71249C235.68 7.64916 235.641 7.59583 235.587 7.55249C235.534 7.50749 235.466 7.47333 235.382 7.44999C235.299 7.42666 235.198 7.41499 235.08 7.41499H234.4ZM234.4 6.94999H234.937C235.166 6.94999 235.339 6.90833 235.457 6.82499C235.576 6.74166 235.635 6.60916 235.635 6.42749C235.635 6.23916 235.581 6.10499 235.475 6.02499C235.368 5.94499 235.201 5.90499 234.975 5.90499H234.4V6.94999Z" fill="white"/>
<path d="M239.264 5.38499V5.91999H237.662V6.92249H238.924V7.43999H237.662V8.46249H239.264V8.99999H236.984V5.38499H239.264Z" fill="white"/>
<path d="M242.393 5.38499V5.93749H241.305V8.99999H240.633V5.93749H239.54V5.38499H242.393Z" fill="white"/>
<path d="M245.63 8.99999H245.11C245.052 8.99999 245.004 8.98583 244.965 8.95749C244.929 8.92749 244.902 8.89083 244.885 8.84749L244.615 8.10999H243.118L242.848 8.84749C242.835 8.88583 242.808 8.92083 242.768 8.95249C242.73 8.98416 242.682 8.99999 242.625 8.99999H242.103L243.523 5.38499H244.21L245.63 8.99999ZM243.29 7.63499H244.443L244.003 6.43249C243.983 6.37916 243.96 6.31666 243.935 6.24499C243.912 6.17166 243.889 6.09249 243.865 6.00749C243.842 6.09249 243.819 6.17166 243.795 6.24499C243.774 6.31833 243.752 6.38249 243.73 6.43749L243.29 7.63499Z" fill="white"/>
<defs>
<radialGradient id="paint0_radial_1237_40231" cx="0" cy="0" r="1" gradientUnits="userSpaceOnUse" gradientTransform="translate(28.9467 2.70797) scale(44.3761 39.5699)">
<stop stop-color="#BF2026"/>
<stop offset="0.5051" stop-color="#BE2126"/>
<stop offset="1" stop-color="#C62127"/>
</radialGradient>
</defs>
</svg>
