<?xml version="1.0" encoding="utf-8"?>
<!-- Generator: Adobe Illustrator 26.1.0, SVG Export Plug-In . SVG Version: 6.00 Build 0)  -->
<svg version="1.1" id="圖層_1" xmlns="http://www.w3.org/2000/svg" xmlns:xlink="http://www.w3.org/1999/xlink" x="0px" y="0px"
	 viewBox="0 0 743.4 192" style="enable-background:new 0 0 743.4 192;" xml:space="preserve">
<style type="text/css">
	.st0{fill:#222939;stroke:#FFFFFF;stroke-width:7;stroke-miterlimit:10;}
	.st1{fill:#FFFFFF;}
	.st2{clip-path:url(#SVGID_00000182529861935268087000000004768237886561769128_);fill:#C9334E;}
	.st3{fill:#222939;}
	.st4{enable-background:new    ;}
	.st5{fill:#999999;}
	.st6{fill:#F19021;}
</style>
<g>
	<path class="st0" d="M113.1,51c-0.1-0.6-0.2-1.1-0.2-1.7c-0.9-5.9-0.3-11.9,1.8-17.5l0.8-1.9c2.5-6.1-0.4-13.1-6.5-15.6h-0.1h-0.1
		c-4-1.7-8.7-1-12.1,1.7c-1.5,1.3-3,2.6-4.3,4.1c-2.4-4.1-5.1-8-8-11.7c-2.4-2.8-5.9-4.5-9.6-4.5H74c-3.9,0.2-7.4,2.4-9.5,5.7
		c-1.3,2-2,4.4-2,6.8c-0.3,4.4-0.3,8.7,0,13.1c-2.3-0.6-4.7-0.9-7.1-0.9h-0.2c-6.6,0.1-12,5.5-11.9,12.1c0,3.8,1.8,7.3,4.9,9.6
		l0.1,0.1c0.5,0.4,0.9,0.7,1.4,1c1,0.6,2,1.3,2.9,2.1c4.2,3.5,7.5,8,9.7,12.9c-15.2,12.6-25,31.7-25,53c0,38,30.8,68.8,68.8,68.8
		c38,0,68.8-30.8,68.8-68.8C174.9,83.7,147.8,54.4,113.1,51z"/>
	<path class="st1" d="M76.9,39.9v138.9h271.2l145.8-0.1c6.5-0.2,12-5,13-11.4l5.6-37.6c0.1-0.7,0.2-1.4,0.2-2.2
		c-0.1-1-0.2-1.9-0.4-2.7h81.4c13.5-0.9,17.9-15.2,18.6-19.4l6.3-45c0.8-5.2-0.7-10.5-4.1-14.5c-3.4-3.9-8.4-6.1-13.6-6H110.4H76.9z
		"/>
	<g>
		<g>
			<defs>
				<rect id="SVGID_1_" x="106.6" y="115.2" width="407.2" height="67.8"/>
			</defs>
			<clipPath id="SVGID_00000041294097506180625040000016220176060063605140_">
				<use xlink:href="#SVGID_1_"  style="overflow:visible;"/>
			</clipPath>
			<path style="clip-path:url(#SVGID_00000041294097506180625040000016220176060063605140_);fill:#C9334E;" d="M494.3,174.9
				l-646.6-0.1c-3.7,0.1-6.9-2.8-7-6.6l0,0c0-0.5,0-0.9,0.1-1.4l5.3-37.9c0.7-4.5,4.6-7.9,9.1-8l646.6,0.1c3.7-0.1,6.9,2.8,7,6.6
				l0,0c0,0.5,0,0.9-0.1,1.4l-5.3,37.9C502.7,171.4,498.8,174.7,494.3,174.9z"/>
		</g>
	</g>
	<path class="st3" d="M608.3,104.8l6.3-45c1.2-8.8-4.9-16-13.8-16H97.6v77h492.5C598.9,120.8,607.1,113.7,608.3,104.8z"/>
	<g>
		<g class="st4">
			<path class="st1" d="M206.6,132.5l-0.5,3.4h-9.6l-3.7,26.4h-4l3.7-26.4h-9.7l0.5-3.4H206.6z"/>
		</g>
		<g class="st4">
			<path class="st1" d="M234.4,147.4c-0.3,2.2-1,4.3-1.9,6.1c-1,1.9-2.2,3.5-3.7,4.8s-3.2,2.4-5.1,3.1c-1.9,0.7-4,1.1-6.2,1.1
				s-4.1-0.4-5.8-1.1c-1.7-0.7-3.1-1.8-4.2-3.1s-1.9-2.9-2.3-4.8c-0.4-1.9-0.5-3.9-0.2-6.1s1-4.3,1.9-6.1s2.2-3.5,3.7-4.8
				s3.2-2.4,5.1-3.2c1.9-0.7,4-1.1,6.1-1.1c2.2,0,4.1,0.4,5.8,1.1c1.7,0.7,3.1,1.8,4.2,3.2s1.9,3,2.3,4.8S234.7,145.2,234.4,147.4z
				 M230.3,147.4c0.3-1.8,0.2-3.5-0.1-4.9c-0.3-1.5-0.8-2.7-1.6-3.7s-1.8-1.8-3-2.3s-2.6-0.8-4.2-0.8s-3.1,0.3-4.5,0.8
				s-2.6,1.3-3.7,2.3s-1.9,2.2-2.7,3.7c-0.7,1.5-1.2,3.1-1.4,4.9c-0.3,1.8-0.2,3.5,0.1,4.9s0.8,2.7,1.6,3.7s1.8,1.8,3,2.3
				s2.6,0.8,4.2,0.8s3.1-0.3,4.5-0.8s2.6-1.3,3.7-2.3s1.9-2.2,2.6-3.7C229.5,150.9,230,149.2,230.3,147.4z"/>
			<path class="st1" d="M249.8,159.1c1.2,0,2.4-0.2,3.4-0.6c1-0.4,1.9-1,2.7-1.7c0.8-0.7,1.4-1.6,1.9-2.7c0.5-1,0.8-2.2,1-3.4
				l2.6-18.1h4l-2.6,18.1c-0.2,1.7-0.7,3.3-1.5,4.8c-0.8,1.5-1.7,2.7-2.9,3.8c-1.2,1.1-2.5,1.9-4.1,2.5s-3.2,0.9-5.1,0.9
				c-1.8,0-3.4-0.3-4.8-0.9s-2.5-1.5-3.4-2.5c-0.9-1.1-1.5-2.3-1.8-3.8s-0.4-3.1-0.1-4.8l2.6-18.1h4l-2.6,18.1
				c-0.2,1.2-0.2,2.4,0,3.4s0.6,1.9,1.2,2.7s1.3,1.3,2.2,1.8C247.5,158.9,248.6,159.1,249.8,159.1z"/>
			<path class="st1" d="M274.3,149.9l-1.8,12.4h-4l4.2-29.8h8.4c1.9,0,3.5,0.2,4.8,0.6c1.3,0.4,2.4,0.9,3.2,1.7s1.3,1.6,1.6,2.6
				s0.3,2.2,0.2,3.4c-0.1,1.1-0.5,2-0.9,3c-0.5,0.9-1.1,1.7-1.8,2.5s-1.6,1.3-2.6,1.9c-1,0.5-2.1,0.9-3.3,1.2
				c0.5,0.3,0.8,0.7,1.2,1.3l7,11.8h-3.6c-0.7,0-1.2-0.3-1.5-0.9l-6.2-10.6c-0.2-0.3-0.4-0.6-0.7-0.7c-0.3-0.1-0.7-0.2-1.2-0.2h-3
				L274.3,149.9L274.3,149.9z M274.8,146.9h4.2c1.2,0,2.2-0.1,3.2-0.4c0.9-0.3,1.7-0.7,2.4-1.2s1.2-1.1,1.6-1.9
				c0.4-0.7,0.7-1.5,0.8-2.4c0.3-1.8-0.1-3.1-1.2-4c-1-0.9-2.7-1.4-5-1.4h-4.4L274.8,146.9z"/>
			<path class="st1" d="M302,132.6c0.2,0.1,0.3,0.3,0.5,0.6l14.1,22.5c0-0.4,0-0.7,0.1-1c0-0.3,0.1-0.7,0.1-1l3-21.1h3.5l-4.2,29.8
				h-2c-0.3,0-0.6-0.1-0.8-0.2c-0.2-0.1-0.4-0.3-0.6-0.6l-14.1-22.4c0,0.3,0,0.7-0.1,1c0,0.3-0.1,0.6-0.1,0.9l-3,21.2h-3.5l4.2-29.8
				h2.1C301.6,132.5,301.8,132.6,302,132.6z"/>
			<path class="st1" d="M350.9,162.3h-3.1c-0.4,0-0.6-0.1-0.8-0.3s-0.3-0.4-0.4-0.7l-1.8-7.2h-13.4l-3.8,7.2
				c-0.1,0.2-0.3,0.5-0.6,0.7s-0.6,0.3-0.9,0.3H323l16.1-29.8h4.1L350.9,162.3z M332.9,151.2H344l-3-12.1c-0.2-0.7-0.4-1.7-0.5-2.8
				c-0.2,0.6-0.5,1.1-0.7,1.6s-0.4,0.9-0.6,1.3L332.9,151.2z"/>
			<path class="st1" d="M371.2,152.6c0.1,0.4,0.2,0.7,0.3,1.1c0.2-0.4,0.4-0.8,0.6-1.1s0.4-0.7,0.7-1.1l12.6-18.3
				c0.2-0.3,0.4-0.5,0.6-0.6s0.5-0.1,0.8-0.1h3l-4.2,29.8h-3.5l3.1-21.9c0-0.3,0.1-0.6,0.2-0.9s0.1-0.7,0.2-1l-12.8,18.6
				c-0.4,0.6-1,0.9-1.6,0.9h-0.6c-0.6,0-1.1-0.3-1.3-0.9l-7.8-18.7c0,0.4,0,0.7-0.1,1.1c0,0.3-0.1,0.7-0.1,1l-3.1,21.9h-3.5
				l4.2-29.8h3c0.4,0,0.6,0,0.8,0.1s0.3,0.3,0.5,0.6l7.7,18.3C371,151.9,371.1,152.2,371.2,152.6z"/>
			<path class="st1" d="M415.5,132.5l-0.5,3.3h-14.3l-1.4,9.9h11.6l-0.4,3.2h-11.6l-1.4,10.2h14.3l-0.5,3.3h-18.4l4.2-29.8
				L415.5,132.5L415.5,132.5z"/>
			<path class="st1" d="M424.1,132.6c0.2,0.1,0.3,0.3,0.5,0.6l14.1,22.5c0-0.4,0-0.7,0.1-1c0-0.3,0.1-0.7,0.1-1l3-21.1h3.5
				l-4.2,29.8h-2c-0.3,0-0.6-0.1-0.8-0.2c-0.2-0.1-0.4-0.3-0.6-0.6l-14.1-22.4c0,0.3,0,0.7-0.1,1c0,0.3-0.1,0.6-0.1,0.9l-3,21.2H417
				l4.2-29.8h2.1C423.7,132.5,424,132.6,424.1,132.6z"/>
			<path class="st1" d="M473,132.5l-0.5,3.4h-9.6l-3.7,26.4h-4l3.7-26.4h-9.7l0.5-3.4H473z"/>
		</g>
	</g>
	<g class="st4">
		<path class="st5" d="M232.3,83.7c-0.5,3.8-1.7,7.2-3.4,10.4c-1.7,3.2-3.9,5.9-6.5,8.2c-2.6,2.3-5.6,4.1-9,5.3
			c-3.4,1.3-7,1.9-10.9,1.9h-19.7l7.3-51.5h19.7c3.9,0,7.4,0.6,10.4,1.9s5.5,3,7.5,5.3c2,2.3,3.3,5,4.2,8.1
			C232.7,76.4,232.9,79.9,232.3,83.7z M222.5,83.7c0.4-2.8,0.4-5.4-0.1-7.6c-0.4-2.2-1.3-4.1-2.4-5.7c-1.2-1.6-2.7-2.7-4.6-3.6
			c-1.9-0.8-4.1-1.2-6.6-1.2h-10l-5.1,36.3h10c2.5,0,4.8-0.4,7-1.2c2.1-0.8,4-2,5.6-3.6s3-3.5,4-5.7C221.4,89,222.1,86.5,222.5,83.7
			z"/>
	</g>
	<g class="st4">
		<path class="st5" d="M279.7,109.4h-7.4c-0.8,0-1.5-0.2-2-0.6s-0.8-0.9-0.9-1.6L267,96.7h-21.3l-5.3,10.5c-0.3,0.5-0.7,1-1.3,1.5
			s-1.3,0.7-2.1,0.7h-7.4l27.5-51.5h9.8L279.7,109.4z M249.1,90h16.4l-3.8-17.1c-0.2-0.8-0.4-1.7-0.6-2.7c-0.2-1-0.4-2.2-0.5-3.4
			c-0.5,1.2-1,2.3-1.5,3.4c-0.5,1-0.9,2-1.3,2.7L249.1,90z"/>
		<path class="st5" d="M295.8,109.4h-9.6l7.3-51.5h9.6L295.8,109.4z"/>
	</g>
	<g class="st4">
		<path class="st5" d="M318.1,101.5h20.6l-1.1,7.9h-30.2l7.3-51.5h9.6L318.1,101.5z"/>
	</g>
	<g class="st4">
		<path class="st5" d="M361.9,89.4l-2.8,20h-9.6l2.8-20L338,57.9h8.4c0.8,0,1.5,0.2,1.9,0.6c0.4,0.4,0.8,0.9,1,1.5l7,17.2
			c0.4,1,0.7,2,1,2.9s0.5,1.8,0.7,2.7c0.4-0.9,0.9-1.8,1.4-2.7c0.5-0.9,1.1-1.9,1.8-2.9L373.1,60c0.3-0.5,0.8-1,1.4-1.5
			s1.3-0.7,2.1-0.7h8.5L361.9,89.4z"/>
		<path class="st5" d="M399.1,57.9h8.1c0.8,0,1.5,0.2,2,0.6c0.5,0.4,0.8,0.9,0.9,1.6l4.4,30.8c0.1,0.8,0.2,1.6,0.2,2.5
			c0.1,0.9,0.1,1.8,0.1,2.8c0.3-1,0.7-1.9,1-2.8c0.4-0.9,0.7-1.7,1.1-2.5l14.5-30.8c0.3-0.5,0.7-1,1.3-1.5c0.6-0.5,1.3-0.7,2.1-0.7
			h2.8c0.8,0,1.5,0.2,2,0.6c0.5,0.4,0.8,0.9,0.9,1.6l5.7,30.8c0.3,1.5,0.5,3.2,0.6,5.1c0.3-0.9,0.6-1.8,0.9-2.7
			c0.3-0.9,0.6-1.7,0.9-2.4l13.1-30.8c0.2-0.6,0.7-1.1,1.3-1.5c0.6-0.4,1.3-0.6,2.2-0.6h7.5l-23.3,51.5h-8.7l-6.3-35.2
			c-0.1-0.5-0.2-0.9-0.2-1.5c-0.1-0.5-0.2-1.1-0.2-1.7c-0.2,0.6-0.5,1.2-0.7,1.7s-0.4,1-0.7,1.5l-16.3,35.2h-8.7L399.1,57.9z"/>
		<path class="st5" d="M482,109.4h-9.6l7.3-51.5h9.6L482,109.4z"/>
		<path class="st5" d="M506.9,57.9c0.3,0,0.5,0.1,0.7,0.2s0.4,0.3,0.6,0.5s0.4,0.5,0.6,0.8L531,93.9c0-0.8,0.1-1.6,0.1-2.4
			c0.1-0.8,0.2-1.5,0.3-2.2l4.4-31.3h8.4l-7.3,51.5h-5c-0.8,0-1.4-0.1-1.8-0.4c-0.5-0.2-0.9-0.7-1.3-1.3l-22.1-34.3
			c0,0.8-0.1,1.5-0.2,2.3c-0.1,0.7-0.1,1.4-0.2,2l-4.5,31.6h-8.4l7.3-51.5h5C506.3,57.9,506.6,57.9,506.9,57.9z"/>
		<path class="st5" d="M581,67.3c-0.3,0.5-0.7,0.9-1.1,1.1c-0.4,0.2-0.8,0.3-1.3,0.3s-1-0.2-1.5-0.6s-1.2-0.8-1.9-1.2
			c-0.7-0.5-1.6-0.9-2.7-1.2c-1-0.4-2.3-0.6-3.8-0.6c-1.3,0-2.5,0.2-3.5,0.5s-1.9,0.8-2.7,1.3s-1.4,1.3-1.8,2
			c-0.4,0.8-0.7,1.7-0.9,2.6c-0.2,1.2,0,2.2,0.6,3s1.4,1.5,2.4,2.1s2.2,1.1,3.6,1.5s2.7,0.9,4.2,1.4c1.4,0.5,2.8,1.1,4.1,1.8
			s2.5,1.7,3.5,2.7s1.7,2.3,2.2,3.8s0.5,3.3,0.2,5.5c-0.3,2.3-1,4.5-2.1,6.5s-2.5,3.8-4.2,5.3s-3.8,2.7-6.1,3.6s-4.9,1.3-7.8,1.3
			c-1.6,0-3.2-0.2-4.8-0.5s-3-0.8-4.4-1.4s-2.6-1.3-3.8-2.1c-1.2-0.8-2.2-1.8-3-2.8l3.4-4.6c0.3-0.3,0.7-0.6,1.1-0.8
			c0.4-0.2,0.8-0.3,1.3-0.3c0.6,0,1.2,0.2,1.8,0.7s1.4,1,2.2,1.6c0.9,0.6,1.9,1.1,3.1,1.6c1.2,0.5,2.7,0.7,4.5,0.7
			c2.7,0,4.9-0.6,6.6-1.9c1.7-1.3,2.7-3.2,3-5.6c0.2-1.4,0-2.5-0.5-3.3c-0.6-0.9-1.4-1.6-2.4-2.2s-2.2-1.1-3.6-1.5
			c-1.4-0.4-2.8-0.8-4.2-1.3s-2.8-1-4.1-1.7s-2.5-1.5-3.4-2.6c-1-1.1-1.7-2.4-2.1-4c-0.5-1.6-0.5-3.6-0.2-5.9
			c0.3-1.9,0.9-3.7,1.9-5.5s2.3-3.4,3.9-4.7c1.6-1.4,3.6-2.5,5.8-3.3s4.7-1.2,7.3-1.2c3,0,5.8,0.5,8.2,1.4c2.4,1,4.4,2.3,6,4
			L581,67.3z"/>
	</g>
	<g class="st4">
		<path class="st1" d="M232.3,83.7c-0.5,3.8-1.7,7.2-3.4,10.4c-1.7,3.2-3.9,5.9-6.5,8.2c-2.6,2.3-5.6,4.1-9,5.3
			c-3.4,1.3-7,1.9-10.9,1.9h-19.7l7.3-51.5h19.7c3.9,0,7.4,0.6,10.4,1.9s5.5,3,7.5,5.3c2,2.3,3.3,5,4.2,8.1
			C232.7,76.4,232.9,79.9,232.3,83.7z M222.5,83.7c0.4-2.8,0.4-5.4-0.1-7.6c-0.4-2.2-1.3-4.1-2.4-5.7c-1.2-1.6-2.7-2.7-4.6-3.6
			c-1.9-0.8-4.1-1.2-6.6-1.2h-10l-5.1,36.3h10c2.5,0,4.8-0.4,7-1.2c2.1-0.8,4-2,5.6-3.6s3-3.5,4-5.7C221.4,89,222.1,86.5,222.5,83.7
			z"/>
	</g>
	<g class="st4">
		<path class="st1" d="M279.7,109.4h-7.4c-0.8,0-1.5-0.2-2-0.6s-0.8-0.9-0.9-1.6L267,96.7h-21.3l-5.3,10.5c-0.3,0.5-0.7,1-1.3,1.5
			s-1.3,0.7-2.1,0.7h-7.4l27.5-51.5h9.8L279.7,109.4z M249.1,90h16.4l-3.8-17.1c-0.2-0.8-0.4-1.7-0.6-2.7c-0.2-1-0.4-2.2-0.5-3.4
			c-0.5,1.2-1,2.3-1.5,3.4c-0.5,1-0.9,2-1.3,2.7L249.1,90z"/>
		<path class="st1" d="M295.8,109.4h-9.6l7.3-51.5h9.6L295.8,109.4z"/>
	</g>
	<g class="st4">
		<path class="st1" d="M318.1,101.5h20.6l-1.1,7.9h-30.2l7.3-51.5h9.6L318.1,101.5z"/>
	</g>
	<g class="st4">
		<path class="st1" d="M361.9,89.4l-2.8,20h-9.6l2.8-20L338,57.9h8.4c0.8,0,1.5,0.2,1.9,0.6c0.4,0.4,0.8,0.9,1,1.5l7,17.2
			c0.4,1,0.7,2,1,2.9s0.5,1.8,0.7,2.7c0.4-0.9,0.9-1.8,1.4-2.7c0.5-0.9,1.1-1.9,1.8-2.9L373.1,60c0.3-0.5,0.8-1,1.4-1.5
			s1.3-0.7,2.1-0.7h8.5L361.9,89.4z"/>
		<path class="st1" d="M399.1,57.9h8.1c0.8,0,1.5,0.2,2,0.6c0.5,0.4,0.8,0.9,0.9,1.6l4.4,30.8c0.1,0.8,0.2,1.6,0.2,2.5
			c0.1,0.9,0.1,1.8,0.1,2.8c0.3-1,0.7-1.9,1-2.8c0.4-0.9,0.7-1.7,1.1-2.5l14.5-30.8c0.3-0.5,0.7-1,1.3-1.5c0.6-0.5,1.3-0.7,2.1-0.7
			h2.8c0.8,0,1.5,0.2,2,0.6c0.5,0.4,0.8,0.9,0.9,1.6l5.7,30.8c0.3,1.5,0.5,3.2,0.6,5.1c0.3-0.9,0.6-1.8,0.9-2.7
			c0.3-0.9,0.6-1.7,0.9-2.4l13.1-30.8c0.2-0.6,0.7-1.1,1.3-1.5c0.6-0.4,1.3-0.6,2.2-0.6h7.5l-23.3,51.5h-8.7l-6.3-35.2
			c-0.1-0.5-0.2-0.9-0.2-1.5c-0.1-0.5-0.2-1.1-0.2-1.7c-0.2,0.6-0.5,1.2-0.7,1.7s-0.4,1-0.7,1.5l-16.3,35.2h-8.7L399.1,57.9z"/>
		<path class="st1" d="M482,109.4h-9.6l7.3-51.5h9.6L482,109.4z"/>
		<path class="st1" d="M506.9,57.9c0.3,0,0.5,0.1,0.7,0.2s0.4,0.3,0.6,0.5s0.4,0.5,0.6,0.8L531,93.9c0-0.8,0.1-1.6,0.1-2.4
			c0.1-0.8,0.2-1.5,0.3-2.2l4.4-31.3h8.4l-7.3,51.5h-5c-0.8,0-1.4-0.1-1.8-0.4c-0.5-0.2-0.9-0.7-1.3-1.3l-22.1-34.3
			c0,0.8-0.1,1.5-0.2,2.3c-0.1,0.7-0.1,1.4-0.2,2l-4.5,31.6h-8.4l7.3-51.5h5C506.3,57.9,506.6,57.9,506.9,57.9z"/>
		<path class="st1" d="M581,67.3c-0.3,0.5-0.7,0.9-1.1,1.1c-0.4,0.2-0.8,0.3-1.3,0.3s-1-0.2-1.5-0.6s-1.2-0.8-1.9-1.2
			c-0.7-0.5-1.6-0.9-2.7-1.2c-1-0.4-2.3-0.6-3.8-0.6c-1.3,0-2.5,0.2-3.5,0.5s-1.9,0.8-2.7,1.3s-1.4,1.3-1.8,2
			c-0.4,0.8-0.7,1.7-0.9,2.6c-0.2,1.2,0,2.2,0.6,3s1.4,1.5,2.4,2.1s2.2,1.1,3.6,1.5s2.7,0.9,4.2,1.4c1.4,0.5,2.8,1.1,4.1,1.8
			s2.5,1.7,3.5,2.7s1.7,2.3,2.2,3.8s0.5,3.3,0.2,5.5c-0.3,2.3-1,4.5-2.1,6.5s-2.5,3.8-4.2,5.3s-3.8,2.7-6.1,3.6s-4.9,1.3-7.8,1.3
			c-1.6,0-3.2-0.2-4.8-0.5s-3-0.8-4.4-1.4s-2.6-1.3-3.8-2.1c-1.2-0.8-2.2-1.8-3-2.8l3.4-4.6c0.3-0.3,0.7-0.6,1.1-0.8
			c0.4-0.2,0.8-0.3,1.3-0.3c0.6,0,1.2,0.2,1.8,0.7s1.4,1,2.2,1.6c0.9,0.6,1.9,1.1,3.1,1.6c1.2,0.5,2.7,0.7,4.5,0.7
			c2.7,0,4.9-0.6,6.6-1.9c1.7-1.3,2.7-3.2,3-5.6c0.2-1.4,0-2.5-0.5-3.3c-0.6-0.9-1.4-1.6-2.4-2.2s-2.2-1.1-3.6-1.5
			c-1.4-0.4-2.8-0.8-4.2-1.3s-2.8-1-4.1-1.7s-2.5-1.5-3.4-2.6c-1-1.1-1.7-2.4-2.1-4c-0.5-1.6-0.5-3.6-0.2-5.9
			c0.3-1.9,0.9-3.7,1.9-5.5s2.3-3.4,3.9-4.7c1.6-1.4,3.6-2.5,5.8-3.3s4.7-1.2,7.3-1.2c3,0,5.8,0.5,8.2,1.4c2.4,1,4.4,2.3,6,4
			L581,67.3z"/>
	</g>
	<g>
		<path class="st3" d="M113.1,51c-0.1-0.6-0.2-1.1-0.2-1.7c-0.9-5.9-0.3-11.9,1.8-17.5l0.8-1.9c2.5-6.1-0.4-13.1-6.5-15.6h-0.1h-0.1
			c-4-1.7-8.7-1-12.1,1.7c-1.5,1.3-3,2.6-4.3,4.1c-2.4-4.1-5.1-8-8-11.7c-2.4-2.8-5.9-4.5-9.6-4.5H74c-3.9,0.2-7.4,2.4-9.5,5.7
			c-1.3,2-2,4.4-2,6.8c-0.3,4.4-0.3,8.7,0,13.1c-2.3-0.6-4.7-0.9-7.1-0.9h-0.2c-6.6,0.1-12,5.5-11.9,12.1c0,3.8,1.8,7.3,4.9,9.6
			l0.1,0.1c0.5,0.4,0.9,0.7,1.4,1c1,0.6,2,1.3,2.9,2.1c4.2,3.5,7.5,8,9.7,12.9c-15.2,12.6-25,31.7-25,53c0,38,30.8,68.8,68.8,68.8
			c38,0,68.8-30.8,68.8-68.8C174.9,83.7,147.8,54.4,113.1,51z"/>
		<g>
			<path class="st6" d="M114.6,76.8c-17.7,1.1-9.7,24.1,9.8,22.9C143.5,98.5,133.4,75.7,114.6,76.8z"/>
			<path class="st6" d="M107.1,62.6c-31.4,0-56.9,25.5-56.9,56.9c0,31.4,25.5,56.9,56.9,56.9c31.4,0,56.9-25.5,56.9-56.9
				C164.1,88.1,138.6,62.6,107.1,62.6z M107.1,170.5c-28.1,0-50.9-22.8-50.9-50.9c0-28.1,22.8-50.9,50.9-50.9
				c28.1,0,50.9,22.8,50.9,50.9C158.1,147.7,135.3,170.5,107.1,170.5z"/>
			<g>
				<path class="st6" d="M105.4,22.9C91.9,33.1,94.3,48.8,94.3,48.8s-8.5-22.1-19.5-35.5c-1.5,17.4,4,40.3,4,40.3
					s-6.9-14.3-23.8-15.1c14,8.1,19.5,22.6,20.7,26.5c8.1-5,17.6-8,27.8-8.4C102.2,53,98.3,37.7,105.4,22.9z"/>
			</g>
			<path class="st1" d="M68.5,125.1V137h-5v-30.7H74c3.5,0,6.2,0.8,8,2.5c1.8,1.7,2.7,4,2.7,6.9c0,2.9-0.9,5.2-2.7,6.8
				c-1.8,1.7-4.5,2.5-7.9,2.5H68.5z M79.6,115.8c0-1.7-0.5-3.1-1.5-4c-1-0.9-2.5-1.4-4.7-1.4h-5v10.7h5
				C77.6,121.1,79.6,119.3,79.6,115.8z"/>
			<path class="st1" d="M93.2,133.2h10.6v3.9H88.2v-30.7h5V133.2z"/>
			<path class="st1" d="M126.5,130.4h-13l-2.3,6.7h-5.3l11.3-30.2h5.7l11.3,30.2h-5.3L126.5,130.4z M125.1,126.6l-5.1-14.3
				l-5.1,14.3H125.1z"/>
			<path class="st1" d="M154.1,106.3l-10.2,19.5V137h-5v-11.2l-10.3-19.5h5.7l7,14.2l7-14.2H154.1z"/>
		</g>
	</g>
</g>
</svg>
