<svg width="99" height="30" viewBox="0 0 99 30" fill="none" xmlns="http://www.w3.org/2000/svg">
<path d="M6.77086 14.76C5.78864 13.1091 4.87957 11.573 4.29441 10.1102C4.09588 9.51455 3.94959 8.9294 3.85555 8.36514C3.52118 6.75598 3.66747 5.80511 4.27352 4.50941C4.28397 4.47807 4.30486 4.45717 4.31531 4.42582C4.60789 4.25864 5.0154 4.1019 5.47517 4.0601C6.50963 3.95561 8.25464 4.21684 8.92338 6.09768C9.62347 8.08302 8.1188 11.9596 6.77086 14.76ZM13.1344 3.55854C13.0717 3.43316 12.8209 2.96294 12.7373 2.80621C12.7164 2.77486 12.706 2.75396 12.706 2.75396C11.6193 0.758175 11.5775 1.13434 10.8983 1.0194C10.8774 1.0194 10.846 1.00896 10.8251 0.998507C10.0519 0.810423 8.7144 0.308865 8.06655 0.0685349C7.39781 -0.171797 5.6319 0.35066 4.49295 0.465601C4.20037 0.496948 3.98094 0.549192 3.8033 0.611887C3.28085 0.810421 3.14501 1.16569 2.93603 1.44782C2.81064 1.615 2.71659 1.66725 2.60165 1.68815H2.59121C1.70303 2.00163 -0.386799 4.59301 0.0625143 8.15616C0.0938618 8.50098 0.167006 8.84581 0.261048 9.18018C1.12833 12.597 4.02274 17.1947 4.73328 18.4904C4.21082 19.7025 3.09276 22.1789 2.73749 24.5091C2.72704 24.5927 2.633 25.1256 2.633 25.5749C2.58076 26.7661 2.81064 27.8423 3.50028 28.626L3.63612 28.7723C3.99139 29.1171 4.39891 29.3366 4.81687 29.4724C5.41247 29.7232 5.86179 29.5873 6.2902 29.5142C6.48873 29.6291 6.68727 29.7232 6.89625 29.7963C8.1397 30.2247 9.52943 29.8799 10.1773 29.5142C11.055 29.2321 11.4521 28.7201 11.7029 27.9259C11.9536 27.1736 12.3403 25.648 11.473 23.3806C11.0864 22.3983 10.2922 20.8728 9.08012 18.6471L9.06967 18.6366C10.0414 16.7976 12.6433 12.2418 13.1135 10.9147C13.1344 10.8416 13.1553 10.7789 13.1866 10.7058C13.9703 8.69952 14.4823 6.03499 13.1344 3.55854Z" fill="white"/>
<path d="M6.03191 20.9393C5.74978 20.3959 5.13329 19.2152 5.0079 18.933C3.57636 21.7125 3.23154 24.8054 3.2002 25.7041C3.21064 26.3937 3.2002 27.4386 4.17197 27.8879C5.47811 26.122 3.20019 23.4889 6.03191 20.9393Z" fill="#ACA9A6"/>
<path d="M9.31305 11.6499C9.64742 9.98849 10.4834 8.57786 9.41754 6.2686C8.55027 4.36686 7.04559 3.68767 5.46777 4.05339C6.50224 3.9489 8.24724 4.21012 8.91599 6.09097C9.62653 8.0763 8.1114 11.9529 6.76347 14.7533C6.73212 14.816 6.70077 14.8891 6.66942 14.9518C7.32772 16.0908 7.86062 17.073 8.49802 18.2224C8.49802 18.2224 9.3653 16.8327 9.72057 16.1953C8.99958 14.5025 9.10407 12.6844 9.31305 11.6499Z" fill="#ACA9A6"/>
<path d="M13.4051 6.24731C13.4051 6.19507 13.4051 6.13237 13.4051 6.08013V6.06968C13.4051 6.04878 13.4051 6.02788 13.4051 5.99654C13.3947 5.74576 13.3738 5.53677 13.3529 5.35914C13.332 5.1815 13.3006 5.05611 13.2693 4.96207C13.1439 4.5859 12.8409 4.13659 12.5065 3.70817C11.8377 2.86179 11.0018 2.08856 10.9705 2.06766C10.9182 2.08856 10.866 2.11991 10.8033 2.15125C10.0927 2.57967 10.1032 3.16482 7.6163 1.97362C7.24013 1.79598 6.65498 1.91092 6.33105 1.93182C8.83885 3.78132 11.5974 3.70817 13.4051 6.24731Z" fill="#BCBAB7"/>
<path d="M11.4745 13.2667C11.5685 13.1204 11.6521 12.9846 11.7357 12.8696C11.8297 12.7129 11.9133 12.5666 11.9969 12.3994C12.0387 12.3263 12.0701 12.2531 12.1119 12.18C13.1359 10.132 13.418 7.72866 13.4076 6.24489C12.1328 2.53544 8.40242 4.18641 7.21122 1.87715C7.19032 1.87715 6.30215 1.92939 6.28125 1.92939C6.34394 2.00254 6.39619 2.07568 6.45889 2.14882C6.9291 2.69218 8.0367 3.78934 9.22791 4.06102C10.4191 4.34314 11.4222 4.51033 12.4253 6.01501C13.4285 7.51968 12.3626 9.63041 11.4222 11.6993C11.0461 12.5248 11.0043 13.3607 10.952 14.1758C11.1088 13.9668 11.1401 13.716 11.3177 13.4757C11.37 13.413 11.4222 13.3398 11.4745 13.2667Z" fill="#CCC9C6"/>
<path d="M12.426 6.02034C11.4229 4.51567 10.4198 4.34848 9.22857 4.06636C8.03737 3.78423 6.92976 2.68707 6.45955 2.15416C6.39686 2.08102 6.33416 2.00788 6.28192 1.93473C5.45643 2.01833 4.79814 2.67662 4.35927 3.61704C4.20254 3.94097 4.07715 4.29624 3.97266 4.67241C4.30703 4.39028 4.86083 4.1186 5.48778 4.05591C7.0656 3.70064 8.55983 4.37983 9.43755 6.27112C10.4929 8.58038 9.66743 9.99102 9.32261 11.6524C9.11363 12.6869 9.00914 14.505 9.74058 16.2083C9.99136 15.7589 10.2735 15.132 10.9631 14.1811C11.0154 13.3556 11.0572 12.5302 11.4333 11.7047C12.3633 9.6253 13.4396 7.51457 12.426 6.02034Z" fill="#BBB8B5"/>
<path d="M5.29274 18.6395C4.18513 20.1859 2.47147 28.4721 4.95837 28.19C8.8559 27.6466 5.80475 19.6948 5.29274 18.6395Z" fill="#9A9794"/>
<path d="M8.57397 17.8299C8.46948 17.6522 8.39634 17.5477 8.39634 17.5477C8.35454 17.4746 8.31274 17.4119 8.28139 17.3492C6.78717 14.6533 5.16755 12.3127 4.28982 10.108C4.10174 9.51235 3.945 8.9272 3.85096 8.36295C3.51659 6.75378 3.66288 5.80291 4.26893 4.50722C4.86453 3.25332 6.65133 1.68595 7.644 2.16661C9.79652 3.20107 10.0891 2.69951 10.6116 2.28155C10.6325 2.2711 10.6638 2.23975 10.6847 2.21885C10.6951 2.2084 10.7578 2.16661 10.7683 2.15616C16.4422 6.503 10.3712 14.9041 8.57397 17.8299ZM5.12576 28.0178C4.97947 28.0387 4.83318 28.0491 4.69734 28.0282C4.46746 27.9969 4.24803 27.9133 4.0286 27.7565C3.72557 27.5476 3.50614 27.2445 3.38075 26.8893C3.02548 25.8339 3.09862 23.7441 4.97947 19.0106C5.178 19.439 5.35564 19.8361 5.43923 20.0033C6.52594 22.1976 6.78717 24.2247 6.78717 25.4264C6.67223 26.952 5.95124 27.8715 5.12576 28.0178ZM13.1298 3.55634C13.0671 3.43095 12.8163 2.96074 12.7327 2.80401C12.7118 2.77266 12.7014 2.75176 12.7014 2.75176C11.6147 0.745527 11.5729 1.13214 10.8937 1.00675C10.8728 1.00675 10.8414 0.996307 10.8205 0.985857C10.0473 0.808222 8.72026 0.306662 8.07241 0.0663319C7.40367 -0.184448 5.63776 0.348461 4.49881 0.4634C4.20623 0.494749 3.9868 0.546993 3.80916 0.609688C3.28671 0.81867 3.15087 1.16349 2.94189 1.44562C2.8165 1.6128 2.72245 1.66505 2.60751 1.68595C2.60751 1.68595 2.60751 1.68595 2.59706 1.68595C1.70889 1.99942 -0.380939 4.59081 0.0683737 8.15396C0.0997211 8.49879 0.172865 8.84361 0.266907 9.17798C1.13419 12.5948 4.0286 17.1925 4.73914 18.4882C4.21668 19.7003 3.09862 22.1767 2.74335 24.5069C2.7329 24.5905 2.63886 25.1234 2.63886 25.5727C2.58662 26.7639 2.8165 27.8506 3.50614 28.6238C3.50614 28.6238 3.64198 28.7701 3.65243 28.7701C4.0077 29.1149 4.41521 29.3344 4.83318 29.4702C5.42878 29.721 5.87809 29.5851 6.30651 29.512C6.50504 29.6269 6.70357 29.721 6.91256 29.7941C8.156 30.2225 9.54574 29.8777 10.1936 29.512C11.0713 29.2299 11.4684 28.7179 11.7192 27.9237C11.9699 27.1714 12.3566 25.6458 11.4893 23.3784C11.0922 22.3961 10.3085 20.8706 9.09643 18.6449L9.08598 18.6344C10.0577 16.7954 12.6596 12.2396 13.1298 10.9125C13.1507 10.8394 13.1716 10.7767 13.2029 10.7036C13.9657 8.70777 14.4777 6.03279 13.1298 3.55634Z" fill="#EFECE8"/>
<path d="M10.7909 14.3317C10.7073 14.4676 10.4983 14.7706 10.2371 15.1572C9.58925 16.2544 8.97275 17.1843 8.57568 17.8322C8.71152 18.0412 9.0041 18.5218 9.12949 18.7517C9.10859 18.7204 9.09814 18.6995 9.08769 18.6681L9.07724 18.6577C9.13994 18.5427 9.21308 18.4069 9.28622 18.271C9.27578 17.5292 10.5401 14.9064 10.7909 14.3317Z" fill="#DAD7D3"/>
<path d="M8.06258 0.563489C7.58192 0.312709 6.97587 0.323158 6.39072 0.42765C6.21308 0.458997 5.78467 0.54259 5.78467 0.54259C5.78467 0.54259 6.6415 0.751573 7.32069 0.991903C7.75956 1.15909 8.50144 1.44122 9.38962 0.971005L9.41052 0.929209C9.01345 0.897861 8.51189 0.803819 8.06258 0.563489Z" fill="#BBB8B5"/>
<path d="M5.27019 0.764176C5.07166 0.83732 4.90447 0.910464 4.77908 0.973159C3.16992 1.86134 2.71015 2.74951 2.63701 2.82265C2.59521 3.13613 2.52207 3.36601 2.49072 3.75263C2.7833 3.90936 4.22528 3.62724 5.1866 2.8749C5.30154 2.77041 5.42693 2.67637 5.56277 2.59278C5.61501 2.55098 5.65681 2.53008 5.69861 2.49873C5.70906 2.49873 5.70906 2.48828 5.71951 2.47783C6.26286 1.98672 6.91071 0.785072 7.51676 1.0881C7.569 1.109 7.6108 1.12989 7.66304 1.15079C7.5899 1.10899 7.51676 1.0672 7.44361 1.0254C7.0152 0.795524 6.55544 0.628332 6.05388 0.628332C5.8031 0.617883 5.54187 0.670134 5.27019 0.764176Z" fill="url(#paint0_linear_261_11127)"/>
<path d="M2.89287 1.7589C2.81973 1.93653 2.75703 2.10372 2.72568 2.3336C2.69434 2.47989 2.67344 2.64707 2.64209 2.82471C3.65566 1.57081 4.67967 1.02746 4.78416 0.97521C4.8991 0.912515 5.22303 0.693084 5.36932 0.640838C4.27216 0.943863 3.65566 1.38273 2.99736 1.58126C2.97646 1.62306 2.91377 1.7171 2.89287 1.7589Z" fill="#F6F2EE"/>
<path d="M8.27741 2.1986C6.5951 1.25818 5.72782 2.44938 5.72782 2.45983L5.71737 2.48073C5.12177 3.01364 4.52617 3.75552 4.27539 4.51831C4.87099 3.26441 6.65779 1.69704 7.65046 2.1777C10.012 3.30621 10.1374 2.60612 10.7748 2.16726C10.315 2.43893 9.92838 3.11813 8.27741 2.1986Z" fill="#EBE7E3"/>
<path d="M10.6201 2.24258C9.51253 2.70234 8.77064 1.80372 7.66303 1.14542C7.62124 1.12452 7.56899 1.10363 7.51675 1.08273C6.74351 0.696111 5.43737 2.74414 5.44782 2.74414C5.6986 2.55606 6.60767 1.26036 8.28998 2.20079C9.94094 3.12031 10.1813 2.59785 10.6306 2.28438C10.6515 2.27393 10.7978 2.16944 10.7978 2.16944C10.7978 2.16944 10.641 2.22168 10.6201 2.24258Z" fill="#FFFBF7"/>
<path d="M5.19263 2.86706C4.2313 3.5985 2.78932 3.90153 2.49675 3.74479C2.36091 5.18677 2.04743 7.04672 2.37136 9.15744C2.5072 10.077 2.69528 11.0592 2.85202 12.0205C2.45495 8.92756 2.37136 5.21812 5.19263 2.86706Z" fill="#EFECE8"/>
<path d="M3.80028 0.621005C3.27783 0.829988 3.14199 1.17481 2.933 1.45694C2.80762 1.62412 2.71357 1.67637 2.59863 1.69727C2.68223 1.67637 2.77627 1.65547 2.88076 1.63457C3.17333 1.56143 3.42411 1.45694 3.71669 1.3211C3.98837 1.20616 4.28094 1.07032 4.66756 0.913581C4.88699 0.829988 5.33631 0.662802 5.57664 0.600107C5.81697 0.537412 6.45436 0.422471 6.48571 0.422471C6.48571 0.422471 6.72604 0.391124 6.80963 0.380675C6.77829 0.370225 4.13466 0.516514 3.80028 0.621005Z" fill="#EFECE8"/>
<path d="M10.551 28.8812C10.5301 28.9335 10.5092 28.9857 10.4778 29.0275C10.3838 29.2051 10.2897 29.3723 10.1748 29.5291C11.0525 29.2469 11.4496 28.7454 11.7004 27.9408C10.7704 28.9126 10.551 28.8812 10.551 28.8812Z" fill="#D2CFCB"/>
<path d="M8.5161 29.1402C7.81601 28.8372 7.25176 29.4328 6.89648 29.7985C8.13993 30.2269 9.52967 29.8821 10.1775 29.5164C10.282 29.3701 10.3865 29.2029 10.4805 29.0148C10.1148 29.6418 9.18485 29.4433 8.5161 29.1402Z" fill="#DEDBD7"/>
<path d="M6.35905 28.1016C6.71432 27.4015 6.9024 26.1372 6.79791 25.4266C6.68297 26.9418 5.95153 27.8613 5.12605 28.018C4.97976 28.0389 4.83348 28.0494 4.69764 28.0285C4.46776 27.9971 4.24832 27.9135 4.02889 27.7568C3.99755 27.7359 3.95575 27.7046 3.9244 27.6732C3.29745 27.4851 2.7959 26.9522 2.63916 26.3044C2.63916 26.2939 2.63916 26.2939 2.63916 26.2835C2.64961 26.388 2.66006 26.4925 2.67051 26.5969V26.6178C2.7123 26.9313 2.775 27.2343 2.86904 27.5165C3.55868 28.7913 5.55447 29.7003 6.35905 28.1016Z" fill="#EBE7E3"/>
<path d="M5.12217 28.0176C4.97588 28.0385 4.82959 28.049 4.69376 28.0281C4.46387 27.9967 4.24444 27.9131 4.02501 27.7564C3.85783 27.6415 3.72199 27.4952 3.60705 27.328C3.04279 26.7428 2.72932 25.6875 2.67708 24.9769V24.956C2.65618 25.1441 2.63528 25.3635 2.63528 25.5725C2.61438 26.0009 2.63528 26.4189 2.69797 26.816C2.69797 26.8264 2.69797 26.8264 2.69797 26.8369C3.32492 28.0281 5.06993 29.2193 6.22978 27.213C5.92675 27.6728 5.54014 27.9445 5.12217 28.0176Z" fill="#F2EFEA"/>
<path d="M12.6968 2.75191C11.6101 0.75612 11.5683 1.13229 10.8891 1.01735C9.96961 1.06959 8.94559 1.70699 7.6499 1.15319C9.46805 2.2399 10.9936 -0.100708 12.7177 2.80415L12.7386 2.84595C12.7282 2.8355 12.7282 2.82505 12.7177 2.8146C12.7177 2.7728 12.7073 2.75191 12.6968 2.75191Z" fill="#E7E4E0"/>
<path d="M4.82235 29.4927C5.28211 29.2105 5.66873 28.803 5.9822 28.3433C5.11492 29.1374 3.24453 28.8762 2.70117 26.8177C2.81611 27.5178 3.05644 28.1447 3.50576 28.6358C3.50576 28.6358 3.64159 28.7821 3.65204 28.7821C3.98641 29.1374 4.40438 29.3568 4.82235 29.4927Z" fill="#CCC9C6"/>
<path d="M8.065 0.0694894C7.39626 -0.18129 5.63036 0.351616 4.4914 0.466557C4.19883 0.497904 3.97939 0.55015 3.80176 0.612845C4.48095 0.466557 4.52275 0.612845 6.49763 0.393413C6.50808 0.393413 6.75886 0.372514 6.82156 0.362065C7.26042 0.330718 7.69928 0.362065 8.065 0.560599C8.51432 0.800929 8.94273 0.905421 9.3607 0.947217C9.8727 0.999463 10.3534 0.968115 10.8236 0.989014C10.0503 0.811378 8.7233 0.30982 8.065 0.0694894Z" fill="#F2EFEA"/>
<path d="M9.35604 0.949263L9.30379 0.98061C8.57235 1.37768 7.88271 1.18959 7.44385 1.02241C7.51699 1.0642 7.59014 1.106 7.66328 1.1478C8.95897 1.7016 9.98299 1.0642 10.9025 1.01196C10.8816 1.01196 10.8503 1.00151 10.8294 0.991059C10.3487 0.970161 9.86805 1.00151 9.35604 0.949263Z" fill="#EBE7E3"/>
<path d="M10.7907 23.4846C9.95474 19.7961 8.13659 17.3928 6.53787 15.4283C5.17948 13.7565 4.43759 11.9592 4.09277 10.3292C4.12412 10.7053 4.15547 11.0919 4.18681 11.489C4.50029 13.7565 5.33622 16.4419 7.82311 19.4826C10.0697 22.2516 10.5503 22.6278 10.7907 23.4846Z" fill="#FFFBF7"/>
<path d="M12.7681 2.881L12.789 2.94369C12.7994 2.95414 12.9457 3.30941 12.9457 3.33031C13.3637 4.31253 12.9352 5.12756 12.8516 5.2634C13.4577 7.40548 12.8203 9.85057 11.8381 12.0762C11.4097 13.048 11.4306 13.9257 11.3052 14.5422V14.5318C12.1202 13.0271 12.8621 11.5851 13.092 10.9373C13.1129 10.8641 13.1338 10.8014 13.1651 10.7283C13.9488 8.71162 14.4713 6.04709 13.1233 3.57064C13.0711 3.44525 12.883 3.07953 12.7681 2.881Z" fill="#EBE7E3"/>
<path d="M10.7793 2.15782C11.3749 2.61759 11.7929 3.16094 12.1481 3.69385C12.0227 2.84747 11.8138 2.00109 11.1032 2.07423C11.0092 2.08468 10.9256 2.09513 10.842 2.13693C10.842 2.13693 10.8315 2.12648 10.7793 2.15782Z" fill="#DEDBD7"/>
<path d="M12.979 3.30646C12.9685 3.29601 12.5506 2.68996 12.3207 2.43918C12.0595 2.15706 11.6833 1.98987 11.3489 2.00032C11.0459 2.01077 10.9205 2.09436 10.8265 2.13616C10.816 2.14661 10.7951 2.15706 10.7847 2.15706C11.8087 1.86448 11.9968 2.8467 12.1535 3.69308C12.4774 4.18419 12.7178 4.70665 12.8641 5.25C12.9163 5.14551 13.3552 4.26778 12.979 3.30646Z" fill="#CCC9C6"/>
<path d="M6.89804 29.8064C7.33691 29.4407 7.70262 29.0541 8.17284 29.0645C7.83846 29.0541 6.58457 29.3153 6.29199 29.5243C6.49053 29.6392 6.68906 29.7333 6.89804 29.8064Z" fill="#D2CFCB"/>
<path d="M11.1759 25.9858C11.1655 25.641 11.1237 25.2962 11.061 24.9722C10.9356 24.3139 10.7057 23.7079 10.3504 23.2063C9.04431 21.3673 5.90956 17.9713 5.10498 15.3277C5.34531 16.9891 4.93779 18.9849 5.60654 19.9567C5.83642 20.2492 6.05585 20.5314 6.25439 20.8135C7.84265 22.7152 9.7026 23.8124 9.63991 26.5187C9.60856 27.9502 9.1279 28.4623 8.42781 29.1205C8.45915 29.131 8.48005 29.1414 8.5114 29.1519C9.19059 29.4445 10.1101 29.643 10.4758 29.037C10.9565 28.0965 11.2282 27.2397 11.1759 25.9858Z" fill="#EFECE8"/>
<path d="M9.76734 26.7394C10.1853 23.2703 8.18952 21.4103 6.27733 19.2264C6.0579 18.9757 5.4205 18.704 5.67128 19.2787C6.74754 20.9715 7.46853 22.612 7.63572 23.3016C8.63884 27.335 7.54168 28.6098 6.29823 29.5293C6.59081 29.3203 7.8447 29.0486 8.17907 29.0695C8.26267 29.0695 8.34626 29.0904 8.4403 29.1218C9.015 28.5889 9.41207 28.3067 9.6315 27.4499C9.66285 27.335 9.6942 27.1991 9.72555 27.0529C9.72555 26.9484 9.74644 26.8543 9.76734 26.7394Z" fill="#E7E4E0"/>
<path d="M8.29069 24.2088C7.82048 22.3489 6.72332 19.4336 4.75888 16.8944C4.72754 16.9885 4.56035 17.5318 4.41406 17.9393C4.53945 18.1692 4.65439 18.3573 4.73799 18.5036C4.84248 18.7021 4.90517 18.838 4.98877 19.0261C5.1873 19.4545 5.36493 19.8515 5.44853 20.0187C6.53524 22.213 6.79647 24.2402 6.79647 25.4418C6.88006 26.9569 6.11727 28.6811 4.82158 29.4961C5.41718 29.7469 5.86649 29.611 6.29491 29.5379C7.35027 29.1408 9.29381 28.2422 8.29069 24.2088Z" fill="#F2EFEA"/>
<path d="M5.81976 1.92883C5.21371 2.22141 4.69126 2.64982 4.26284 3.14093C3.82398 3.63204 3.47916 4.19629 3.23883 4.80234C2.75817 6.02489 2.72682 7.37283 2.9358 8.66852C3.13433 9.97466 3.60455 11.2286 3.86577 12.5556C4.00161 13.2139 4.07476 13.8931 4.05386 14.5723C4.03296 15.2515 3.90757 15.9202 3.70904 16.5576C3.83443 15.8993 3.90757 15.2306 3.87622 14.5723C3.85533 13.914 3.74038 13.2557 3.58365 12.6183C3.42691 11.9809 3.22838 11.3435 3.04029 10.6957C2.85221 10.0478 2.67457 9.39996 2.57008 8.72077C2.46559 8.05202 2.42379 7.36238 2.48649 6.68318C2.51784 6.33836 2.57008 6.00399 2.65367 5.66962C2.73727 5.33525 2.84176 5.01132 2.9776 4.69785C3.24927 4.0709 3.64634 3.4962 4.127 3.01554C4.61811 2.54533 5.19281 2.14826 5.81976 1.92883Z" fill="#CCC9C6"/>
<path d="M4.45517 17.8862C4.59101 17.531 4.6746 17.1548 4.7164 16.7786C4.74775 16.4025 4.7582 16.0263 4.72685 15.6501C4.68505 14.8978 4.57011 14.1454 4.45517 13.3931C4.35068 12.6408 4.21484 11.8884 4.1208 11.1361C4.01631 10.3838 3.97451 9.62096 3.90137 8.86863L4.59101 13.3722C4.70595 14.1245 4.81044 14.8873 4.83134 15.6501C4.84179 16.0367 4.82089 16.4129 4.77909 16.7995C4.72685 17.1757 4.62236 17.5414 4.45517 17.8862Z" fill="#CCC9C6"/>
<path d="M2.56464 2.46963C2.41835 2.95029 2.28251 3.43095 2.18847 3.92206C2.08398 4.41317 2.01084 4.90427 1.95859 5.40583C1.8541 6.3985 1.8541 7.40162 1.95859 8.39429C2.05263 9.38695 2.28252 10.3587 2.53329 11.3305C2.65868 11.8112 2.78407 12.3023 2.89901 12.7934C3.0035 13.2845 3.09755 13.786 3.0871 14.2876C3.0662 13.786 2.95126 13.2949 2.81542 12.8143C2.69003 12.3336 2.54374 11.8529 2.4079 11.3723C2.12578 10.411 1.8959 9.42875 1.79141 8.42563C1.73916 7.92407 1.71826 7.42252 1.71826 6.91051C1.72871 6.40895 1.74961 5.90739 1.8123 5.40583C1.875 4.90427 1.96904 4.41317 2.09443 3.92206C2.23027 3.4205 2.37656 2.93984 2.56464 2.46963Z" fill="#CCC9C6"/>
<path d="M1.62644 2.88212C1.407 3.30008 1.26072 3.7494 1.13533 4.19871C1.00994 4.64802 0.926345 5.11823 0.863651 5.57799C0.738261 6.50797 0.727811 7.44839 0.821853 8.37836C0.915895 9.30834 1.14578 10.2279 1.5115 11.0742C1.69958 11.5027 1.91901 11.9206 2.12799 12.3386C2.33698 12.7566 2.57731 13.1641 2.79674 13.582C2.65045 13.3939 2.50416 13.2059 2.36832 13.0178C2.23249 12.8192 2.1071 12.6207 1.98171 12.4222C1.86677 12.2132 1.75183 12.0147 1.63689 11.7952C1.53239 11.5862 1.4279 11.3668 1.33386 11.1474C0.957693 10.2697 0.738261 9.32923 0.654668 8.38881C0.560626 7.43794 0.612871 6.48707 0.759159 5.5571C0.832303 5.08688 0.936794 4.62712 1.08308 4.17781C1.20847 3.73895 1.37566 3.28963 1.62644 2.88212Z" fill="#DEDBD7"/>
<path d="M2.64795 2.82422C3.07636 2.16592 3.67196 1.63302 4.31981 1.1837C4.64373 0.964272 4.999 0.776188 5.37517 0.640349C5.51101 0.598553 5.64685 0.556756 5.79314 0.535858C5.84538 0.525409 5.90808 0.525409 5.97077 0.514959C6.07526 0.514959 6.17976 0.504511 6.28425 0.525409C6.38874 0.535858 6.49323 0.567205 6.57682 0.598552C7.32916 0.87023 7.98746 1.31954 8.64575 1.72706C8.98012 1.92559 9.3145 2.12413 9.68021 2.23907C9.85785 2.30176 10.0564 2.33311 10.2445 2.32266C10.4326 2.31221 10.6206 2.24952 10.7878 2.15547C10.6311 2.27041 10.443 2.34356 10.2445 2.37491C10.0459 2.40625 9.8474 2.37491 9.64887 2.33311C9.26225 2.22862 8.91743 2.04053 8.57261 1.85245C7.89341 1.46583 7.24557 1.01652 6.51413 0.776188C6.42009 0.74484 6.33649 0.713493 6.24245 0.703044C6.14841 0.682146 6.06481 0.692595 5.97077 0.692595C5.78269 0.703044 5.60505 0.74484 5.41697 0.807535C5.05125 0.922476 4.71688 1.11056 4.3825 1.30909C4.05858 1.50763 3.74511 1.74796 3.45253 1.99874C3.15996 2.23907 2.88828 2.52119 2.64795 2.82422Z" fill="#CCC9C6"/>
<path d="M10.7793 2.15803C10.936 2.03264 11.1346 1.94905 11.3435 1.92815C11.5525 1.9177 11.7615 1.9595 11.9496 2.05354C12.284 2.22073 12.5243 2.46106 12.7228 2.79543C12.7333 2.80588 12.7437 2.83723 12.7646 2.87902C12.7751 2.89992 12.7855 2.92082 12.796 2.93127C13.005 3.31789 13.1408 3.69406 13.1512 4.10157C13.1721 4.50909 13.0781 4.9166 12.8587 5.25098C13.0363 4.90616 13.099 4.49864 13.0677 4.11202C13.0259 3.71495 12.9005 3.33878 12.7019 3.00441C12.5034 2.67004 12.2317 2.36701 11.8974 2.17893C11.7302 2.08489 11.5421 2.03264 11.354 2.02219C11.1555 2.01174 10.9674 2.06399 10.7793 2.15803Z" fill="#BBB8B5"/>
<path d="M4.89551 16.8075C5.08359 17.6748 5.36572 18.5107 5.77324 19.2944C5.97177 19.6915 6.1912 20.0676 6.44198 20.4333L6.81815 20.9767L7.00623 21.2484C7.06893 21.3424 7.12117 21.4365 7.18387 21.5305C7.4242 21.9067 7.63318 22.3037 7.82126 22.7008C8.00935 23.1083 8.16609 23.5263 8.28103 23.9547C8.39597 24.3831 8.49001 24.822 8.52136 25.2608C8.56315 25.6997 8.5736 25.8878 8.5527 26.3267C8.54225 25.8878 8.52136 25.6997 8.45866 25.2608C8.39597 24.822 8.31237 24.3936 8.17654 23.9756C8.0407 23.5576 7.87351 23.1501 7.69587 22.7531C7.49734 22.356 7.29881 21.9694 7.05848 21.6037C6.99578 21.5096 6.94354 21.4156 6.88084 21.3215L6.69276 21.0498C6.56737 20.8722 6.44198 20.6841 6.31659 20.5065C6.06581 20.1408 5.84638 19.7542 5.64785 19.3466C5.28213 18.5525 5.0209 17.6852 4.89551 16.8075Z" fill="#CCC9C6"/>
<path d="M4.65234 14.4317C4.71504 15.0273 4.87178 15.6125 5.04941 16.1872C5.22705 16.7619 5.44648 17.3157 5.69726 17.8591C6.20927 18.9458 6.84666 19.9698 7.69304 20.8162C7.90203 21.0251 8.12146 21.2446 8.31999 21.4745C8.51853 21.7043 8.69616 21.9551 8.86335 22.2059C9.18727 22.7179 9.4485 23.2717 9.60524 23.8569C9.87691 24.8391 9.91871 25.8735 9.74107 26.8662C9.70973 27.0543 9.66793 27.2528 9.61568 27.4409C9.73063 26.8453 9.79332 26.2497 9.77242 25.6541C9.75152 25.0585 9.66793 24.4629 9.4903 23.8882C9.31266 23.3135 9.07233 22.7702 8.74841 22.2686C8.58122 22.0178 8.40359 21.7775 8.2155 21.5581C8.01697 21.3282 7.80798 21.1296 7.58855 20.9102C6.74217 20.0325 6.08388 18.998 5.60322 17.9009C5.36289 17.3471 5.1539 16.7828 4.98672 16.1976C4.90312 15.9051 4.82998 15.6125 4.77773 15.3199C4.71504 15.0273 4.66279 14.7243 4.65234 14.4317Z" fill="#D2CFCB"/>
<path d="M11.8154 12.8694C12.1289 12.2633 12.3901 11.6259 12.6096 10.9885C12.8394 10.3511 13.0171 9.69285 13.1738 9.03455C13.3201 8.37626 13.4246 7.70751 13.4664 7.02832C13.4873 6.69394 13.4873 6.34912 13.4455 6.01475L13.4246 5.76397L13.3724 5.51319L13.3515 5.3878C13.341 5.34601 13.3201 5.30421 13.3097 5.26241L13.2261 5.02208C13.55 5.62813 13.6231 6.34912 13.6231 7.02832C13.6231 7.37314 13.6022 7.71796 13.55 8.06278C13.5082 8.4076 13.4455 8.74198 13.3724 9.07635C13.2261 9.74509 13.0275 10.4034 12.7663 11.0408C12.526 11.6886 12.2125 12.3051 11.8154 12.8694Z" fill="#FFFBF7"/>
<path d="M7.33872 25.8699C7.37007 24.4801 7.10884 23.1113 6.66998 21.8156C6.23111 20.5095 5.62506 19.2765 4.91452 18.0957C4.55925 17.5001 4.19353 16.915 3.84871 16.3089C3.50389 15.7029 3.16952 15.1073 2.84559 14.4908C2.2082 13.2682 1.60214 12.0143 1.15283 10.6977C1.43496 11.3351 1.72754 11.9516 2.06191 12.5577C2.37538 13.1742 2.70975 13.7802 3.05458 14.3758C3.73377 15.5775 4.44431 16.7582 5.1653 17.939C5.87584 19.1302 6.48189 20.3945 6.88941 21.732C7.08794 22.4008 7.24468 23.08 7.32827 23.7696C7.39097 24.4801 7.41186 25.1802 7.33872 25.8699Z" fill="#E1DEDA"/>
<g opacity="0.43">
<g opacity="0.43">
<g opacity="0.43">
<g opacity="0.43">
<g opacity="0.43">
<path opacity="0.43" d="M2.06142 12.571C2.37489 13.1875 2.70926 13.7936 3.05409 14.3892C3.18993 14.6399 3.33621 14.8803 3.47205 15.1311C3.87957 15.7789 4.33933 16.4476 4.84089 17.1059C7.1397 20.0944 8.58168 23.1246 7.54722 26.0608C7.35913 26.5938 7.45317 26.8445 7.6935 26.855H7.72485C8.38315 26.8236 10.0028 25.1622 10.0237 22.6544V22.529C10.0028 20.8049 9.23998 18.7047 6.92027 16.4685C3.30487 13.7204 1.15234 10.7006 1.15234 10.7006C1.43447 11.338 1.7375 11.9545 2.06142 12.571Z" fill="url(#paint1_linear_261_11127)"/>
</g>
</g>
</g>
</g>
</g>
<path d="M4.98094 19.0223C4.89735 18.8342 4.83465 18.6984 4.73016 18.4999C4.2077 19.712 3.08964 22.1884 2.73437 24.5186C2.72393 24.6022 2.62988 25.1351 2.62988 25.5844C2.64033 25.668 2.65078 25.7411 2.66123 25.8143C2.9747 27.1727 3.46581 27.4025 3.6748 27.4443C3.54941 27.2876 3.44492 27.11 3.38222 26.9114C3.0374 25.8456 3.11054 23.7558 4.98094 19.0223Z" fill="#F2EFEA"/>
<path d="M11.4719 23.3969C11.0748 22.4251 10.2912 20.8891 9.07906 18.6634L9.06861 18.6529L8.28493 17.3573C6.7907 14.6614 5.17108 12.3208 4.29336 10.116C4.10527 9.5204 3.94853 8.93525 3.85449 8.37099C3.85449 8.37099 3.85449 8.37099 3.85449 8.36055V8.3501C3.93809 8.89345 3.91719 9.45771 4.09482 10.3354C4.43964 11.9655 5.17108 13.7628 6.53992 15.4346C8.13864 17.399 9.95679 19.8024 10.8032 23.4909C10.9077 23.9611 11.0748 25.0269 11.1375 25.9987C11.2107 27.1794 10.9913 28.0049 10.5733 28.8827C10.5837 28.8931 10.8345 29.2379 11.5764 28.2035C11.6391 28.1094 11.6809 28.0258 11.7227 27.9318C11.9526 27.1794 12.3392 25.6539 11.4719 23.3969Z" fill="#FFFBF7"/>
<path d="M1.08984 5.53838C1.08984 6.14443 1.58095 6.646 2.19745 6.646C2.8035 6.646 3.30506 6.15488 3.30506 5.53838C3.30506 4.93233 2.81395 4.43078 2.19745 4.43078C1.58095 4.43078 1.08984 4.93233 1.08984 5.53838ZM2.34374 5.01593C2.2288 4.97413 2.1661 4.86964 2.1661 4.7547C2.17655 4.7547 2.187 4.7547 2.19745 4.7547C2.37509 4.7547 2.54227 4.8174 2.67811 4.92189C2.62587 4.99503 2.54227 5.03683 2.44823 5.03683C2.40643 5.03683 2.37509 5.02638 2.34374 5.01593ZM1.45556 5.25626C1.51826 5.07863 1.6541 4.94279 1.81083 4.84874C1.83173 4.89054 1.85263 4.94279 1.85263 4.99503C1.85263 5.15177 1.72724 5.27716 1.5705 5.27716C1.52871 5.27716 1.48691 5.26671 1.45556 5.25626ZM2.01982 5.82051L1.87353 5.54884C1.85263 5.51749 1.86308 5.48614 1.88398 5.45479L2.09296 5.23536C2.11386 5.21446 2.15566 5.20401 2.187 5.21446L2.45868 5.3503C2.49003 5.36075 2.51093 5.40254 2.50048 5.43389L2.45868 5.73692C2.45868 5.76827 2.42733 5.79961 2.39599 5.79961L2.09296 5.85186H2.08251C2.06161 5.86231 2.04072 5.84141 2.01982 5.82051ZM2.73036 5.59063C2.73036 5.45479 2.8244 5.33985 2.94979 5.30851C2.97069 5.38165 2.98114 5.45479 2.98114 5.52794C2.98114 5.64288 2.96024 5.74737 2.90799 5.85186C2.8035 5.82051 2.73036 5.71602 2.73036 5.59063ZM1.42422 5.72647C1.44512 5.71602 1.46601 5.71602 1.49736 5.71602C1.6541 5.71602 1.77949 5.84141 1.77949 5.99815C1.77949 6.06084 1.75859 6.12354 1.71679 6.16533C1.58095 6.06084 1.47646 5.90411 1.42422 5.72647ZM2.12431 6.32207C2.14521 6.18623 2.26015 6.07129 2.40644 6.07129C2.50048 6.07129 2.58407 6.12354 2.63632 6.18623C2.51093 6.26982 2.35419 6.32207 2.19745 6.32207C2.16611 6.32207 2.14521 6.32207 2.12431 6.32207Z" fill="url(#paint2_linear_261_11127)"/>
<path d="M2.32275 3.53209L2.57353 3.97095L3.0124 3.72017L2.76162 3.28131L2.32275 3.53209Z" fill="url(#paint3_linear_261_11127)"/>
<path d="M1.69629 7.50289L2.06201 7.85815L2.41728 7.49243L2.05156 7.13717L1.69629 7.50289Z" fill="url(#paint4_linear_261_11127)"/>
<path d="M9.11531 26.0711C9.07351 26.1234 9.05261 26.207 9.04217 26.3219C9.03172 26.4368 9.03172 26.5309 9.04217 26.6354C9.00037 26.5936 8.91677 26.5727 8.87498 26.604C8.88543 26.6458 8.90633 26.6876 8.90633 26.7399C8.90633 26.7712 8.90633 26.813 8.90633 26.8444C8.83318 26.8966 8.73914 26.9802 8.72869 27.116C8.72869 27.1369 8.72869 27.1578 8.72869 27.1787C8.69734 27.0847 8.6451 26.9907 8.6242 26.9175C8.6033 26.8444 8.5615 26.7817 8.51971 26.7399C8.50926 26.7294 8.48836 26.7294 8.47791 26.719C8.46746 26.7399 8.46746 26.7712 8.45701 26.7921C8.45701 26.8026 8.45701 26.813 8.44656 26.8339C8.41522 26.8026 8.39432 26.7817 8.37342 26.7608C8.35252 26.7503 8.33162 26.7399 8.31073 26.7399C8.25848 26.7294 8.24803 26.7399 8.24803 26.813C8.24803 26.8339 8.24803 26.8653 8.24803 26.8966C8.13309 26.8548 8.08084 26.9384 8.08084 26.9489C8.10174 26.9698 8.12264 26.9802 8.13309 27.022C8.13309 27.0533 8.12264 27.1056 8.11219 27.1474C8.08084 27.231 8.10174 27.3773 8.16444 27.4295C8.20623 27.4713 8.28983 27.4609 8.34207 27.4086C8.40477 27.3459 8.42566 27.1578 8.39432 27.0951C8.37342 27.0638 8.35252 27.0638 8.31073 27.0847C8.32117 27.1056 8.34207 27.1369 8.34207 27.1578C8.34207 27.1892 8.32117 27.231 8.28983 27.2623C8.25848 27.2937 8.22713 27.2937 8.19578 27.2728C8.15399 27.2205 8.15399 27.1369 8.19578 27.0638C8.20623 27.0429 8.23758 27.0011 8.24803 26.9906C8.31072 26.9489 8.38387 26.928 8.42567 26.9698C8.47791 27.0011 8.50926 27.0638 8.50926 27.1474C8.51971 27.2937 8.44656 27.534 8.44656 27.6803C8.44656 27.8161 8.55105 27.8684 8.666 27.8997C8.71824 27.9102 8.84363 27.9206 8.87498 27.9311C9.01082 27.9833 9.12576 27.9729 9.1989 27.8475C9.27205 27.7221 9.31384 27.4713 9.39744 27.3459C9.43923 27.2728 9.50193 27.231 9.55417 27.2205C9.60642 27.2101 9.66911 27.2519 9.70046 27.325C9.71091 27.3459 9.71091 27.3877 9.71091 27.4191C9.71091 27.5027 9.66911 27.5862 9.60642 27.6071C9.57507 27.6176 9.54373 27.6071 9.53328 27.5549C9.52283 27.5236 9.52283 27.4713 9.53328 27.44C9.54373 27.4191 9.57507 27.4086 9.59597 27.3877C9.57507 27.3459 9.55417 27.3355 9.52283 27.3564C9.46013 27.3877 9.39744 27.5654 9.42878 27.6489C9.44968 27.7221 9.52283 27.7639 9.57507 27.7534C9.65866 27.7325 9.73181 27.6176 9.74226 27.5236C9.75271 27.4818 9.76316 27.4295 9.7736 27.3982C9.7945 27.3668 9.8154 27.3668 9.84675 27.3564C9.84675 27.3564 9.84675 27.3459 9.8572 27.3459C9.8363 27.2519 9.7736 27.2623 9.72136 27.2414C9.73181 27.2101 9.74226 27.1892 9.75271 27.1683C9.78405 27.1056 9.78405 27.0847 9.73181 27.0742C9.71091 27.0638 9.69001 27.0638 9.65866 27.0638C9.62732 27.0638 9.59597 27.0847 9.56462 27.0951C9.57507 27.0742 9.57507 27.0638 9.57507 27.0533C9.57507 27.0324 9.58552 27.0011 9.58552 26.9802C9.57507 26.9802 9.57507 26.9802 9.56462 26.9802C9.55417 26.9802 9.54373 26.9802 9.53328 26.9802C9.48103 26.9906 9.44968 27.022 9.38699 27.0638C9.32429 27.0951 9.25115 27.1892 9.18845 27.2832C9.1989 27.2519 9.20935 27.2205 9.2198 27.1892C9.2616 27.0847 9.25115 27.022 9.20935 26.9698L9.16756 26.8966C9.16756 26.8862 9.178 26.8757 9.178 26.8548C9.1989 26.7817 9.23025 26.7294 9.2616 26.6667C9.25115 26.6249 9.16756 26.5831 9.11531 26.604C9.14666 26.51 9.16756 26.4055 9.16756 26.2906C9.16756 26.1861 9.13621 26.1129 9.11531 26.0607C9.11531 26.0502 9.10486 26.0502 9.09441 26.0502C9.13621 26.0502 9.12576 26.0607 9.11531 26.0711ZM7.10907 27.3564C7.08818 27.2937 7.07773 27.231 7.05683 27.1683C6.97324 27.1892 6.92099 27.2519 6.88964 27.3146C6.85829 27.3773 6.8374 27.4504 6.80605 27.5236C6.7747 27.4922 6.74336 27.4609 6.70156 27.44C6.59707 27.5654 6.57617 27.7012 6.67021 27.8475C6.7538 27.9729 6.8374 28.0878 6.93144 28.2027C7.03593 28.3281 7.14042 28.4535 7.14042 28.6312C7.15087 28.7879 7.06728 28.9237 6.93144 29.0387C6.82695 29.1327 6.70156 29.1641 6.55527 29.1641C6.55527 29.1641 6.53437 29.2059 6.53437 29.2163C6.54482 29.279 6.65976 29.2477 6.71201 29.2372C7.12997 29.1327 7.40165 28.8088 7.27626 28.4849C7.22402 28.3595 7.06728 28.1505 7.00458 28.0251C6.95234 27.9206 6.90009 27.8161 6.93144 27.7012C6.96279 27.5549 7.09863 27.4191 7.27626 27.4504C7.38075 27.4713 7.45389 27.5445 7.45389 27.6489C7.45389 27.7116 7.40165 27.7952 7.33896 27.8266C7.29716 27.8475 7.25536 27.8475 7.22402 27.8161C7.19267 27.7848 7.19267 27.7534 7.21357 27.7116C7.21357 27.7012 7.21357 27.7012 7.22402 27.6907C7.16132 27.6907 7.07773 27.7848 7.08818 27.8579C7.10907 27.9833 7.38075 28.0774 7.50614 27.9938C7.62108 27.9206 7.68378 27.743 7.64198 27.6071C7.60018 27.4713 7.53749 27.3982 7.4121 27.3564C7.40165 27.3459 7.3912 27.3459 7.38075 27.3355C7.40165 27.2728 7.42255 27.2101 7.45389 27.1578C7.44345 27.1578 7.433 27.1578 7.433 27.1578C7.26581 27.1474 7.18222 27.2414 7.10907 27.3564ZM8.0704 27.8579C7.9868 27.8893 7.89276 27.9938 7.87186 28.0565C7.91366 28.046 7.945 28.0356 7.9868 28.0251C8.05995 28.0147 8.11219 28.0565 8.12264 28.1192C8.13309 28.1819 8.09129 28.2863 8.0286 28.3386C7.93456 28.4222 7.83006 28.4953 7.72557 28.5685C7.61063 28.6521 7.55839 28.7566 7.55839 28.8819C7.56884 29.0387 7.70467 29.1536 7.72557 29.1745C7.51659 29.4357 7.27626 29.6552 7.02548 29.8537C7.09862 29.8746 7.16132 29.8955 7.23447 29.906C7.4539 29.7179 7.67333 29.5193 7.88231 29.2895C8.05995 29.3731 8.27938 29.3835 8.44656 29.2581C8.5615 29.1745 8.6033 29.07 8.65555 28.9655C8.68689 28.8819 8.71824 28.7983 8.73914 28.7148C8.78094 28.5998 8.86453 28.5058 8.94812 28.4744C9.03172 28.4431 9.07351 28.4849 9.08396 28.5894C9.08396 28.5998 9.08396 28.6207 9.08396 28.6416C9.13621 28.5685 9.1571 28.5058 9.178 28.4326C9.20935 28.3072 9.178 28.2341 9.12576 28.1818C9.06306 28.1192 8.95857 28.1192 8.85408 28.2027C8.81229 28.2341 8.76004 28.2968 8.71824 28.349C8.666 28.4222 8.6242 28.5058 8.59285 28.5789C8.46746 28.7461 8.36297 28.8506 8.30028 28.9133C8.37342 28.7983 8.43612 28.673 8.48836 28.5476C8.53016 28.4431 8.57195 28.3281 8.6033 28.2236C8.6033 28.2132 8.61375 28.1923 8.61375 28.1714C8.59285 28.1923 8.5824 28.1923 8.57195 28.2027C8.42567 28.3804 8.25848 28.5476 8.09129 28.7043C8.07039 28.7148 8.05995 28.7357 8.0495 28.7566C8.05995 28.673 8.12264 28.558 8.18533 28.464C8.20623 28.4431 8.23758 28.4117 8.25848 28.3908C8.33162 28.3072 8.38387 28.2132 8.42567 28.1192C8.47791 27.9938 8.43612 27.9206 8.36297 27.8684C8.32117 27.837 8.27938 27.8266 8.22713 27.8266C8.17489 27.8266 8.12264 27.837 8.0704 27.8579ZM6.38808 28.161C6.31494 28.161 6.16865 28.1505 6.16865 28.161C6.57617 28.3699 6.69111 28.6416 6.7538 28.9864C6.8374 28.9446 6.93144 28.6834 6.91054 28.5476C6.88964 28.3595 6.78515 28.2236 6.61797 28.0878C6.61797 28.1087 6.60752 28.1296 6.60752 28.1505C6.51347 28.1087 6.45078 28.0147 6.33584 27.9938C6.34629 28.0565 6.36719 28.1087 6.38808 28.161ZM10.0244 28.6521C10.0139 28.6521 10.0035 28.6416 9.99304 28.6416C9.91989 28.5998 9.62732 28.5371 9.47058 28.6939C9.36609 28.8088 9.2407 29.0909 9.42878 29.2163C9.47058 29.2477 9.51238 29.279 9.58552 29.2372C9.64822 29.2059 9.69001 29.1536 9.71091 29.0805C9.72136 29.07 9.72136 29.0596 9.72136 29.0387C9.71091 29.0491 9.70046 29.0491 9.70046 29.0596C9.63776 29.1223 9.60642 29.1432 9.57507 29.1223C9.54372 29.1014 9.52283 28.9969 9.55417 28.9342C9.64821 28.7775 9.8154 28.7148 9.899 28.767C9.96169 28.8088 9.98259 28.8924 9.93034 29.0282C9.86765 29.185 9.76316 29.2999 9.63777 29.3522C9.52283 29.4044 9.40788 29.4148 9.29294 29.4357C9.2198 29.4462 9.1571 29.4253 9.08396 29.4148C8.98992 29.3939 8.89588 29.3731 8.79139 29.4044C8.50926 29.488 8.18534 29.7388 7.99725 30C8.03905 30 8.0704 30 8.11219 30C8.16444 29.9373 8.22713 29.8746 8.30028 29.8224C8.51971 29.6552 8.72869 29.5716 8.92722 29.582C9.08396 29.5925 9.23025 29.6238 9.37654 29.6238C9.47058 29.6238 9.55417 29.6343 9.64821 29.6134C9.78405 29.5925 9.90944 29.488 10.0139 29.3104C9.98259 29.2999 9.94079 29.2999 9.90944 29.2895C10.0662 29.1536 10.1811 28.9864 10.2229 28.7775C10.1602 28.8192 10.0975 28.861 10.0348 28.8924C10.0766 28.8088 10.1184 28.7252 10.1393 28.6416C10.1707 28.558 10.1602 28.4849 10.1289 28.4431C10.108 28.5162 10.0662 28.5789 10.0244 28.6521ZM6.96279 29.2581C6.87919 29.3313 6.87919 29.4462 6.95234 29.5402C6.97324 29.5716 7.00458 29.6029 7.02548 29.6238C7.09862 29.5611 7.17177 29.4984 7.24491 29.4357C7.4121 29.3104 7.4539 29.1641 7.433 29.0073C7.42255 28.9655 7.4121 28.9342 7.4121 28.8924C7.24491 29.0282 7.09863 29.1432 6.96279 29.2581ZM6.23135 29.2999C6.14775 29.2999 6.07461 29.2895 6.00146 29.279C6.00146 29.2895 6.08506 29.3626 6.1373 29.4044C6.10596 29.4357 6.06416 29.4671 6.03281 29.488C6.38808 29.4775 6.65976 29.6447 6.93144 29.8119C6.90009 29.5925 6.58662 29.2999 6.2209 29.2477C6.2209 29.2686 6.23135 29.279 6.23135 29.2999ZM7.67333 29.7597C7.62108 29.8224 7.53749 29.8851 7.46434 29.9478C7.58973 29.9687 7.71512 29.9791 7.84051 29.9896C7.85096 29.9791 7.87186 29.9791 7.88231 29.9687C7.95545 29.9164 8.0077 29.8537 8.0704 29.791C8.11219 29.7492 8.14354 29.6865 8.18533 29.6447C8.22713 29.5925 8.26893 29.5507 8.31073 29.4984C8.0495 29.4984 7.84051 29.5716 7.67333 29.7597ZM9.02127 29.7492C8.80183 29.7701 8.55106 29.8746 8.32118 30C8.69734 29.9896 9.05261 29.9269 9.36609 29.8433C9.29295 29.7806 9.20935 29.7492 9.08396 29.7492C9.06306 29.7492 9.04216 29.7492 9.02127 29.7492Z" fill="url(#paint5_linear_261_11127)"/>
<path d="M6.82656 18.3078C6.81611 18.3078 6.80566 18.3182 6.80566 18.3287C6.80566 18.3914 6.82656 18.4645 6.88926 18.569C6.9624 18.6735 7.03555 18.7571 7.11914 18.8198C7.06689 18.8302 7.01465 18.9138 7.03554 18.9661C7.09824 19.0079 7.16093 19.0392 7.22363 19.0915C7.34902 19.1959 7.41171 19.1437 7.42216 19.0915C7.42216 19.0706 7.40127 19.0497 7.38037 19.0079C7.41171 19.0288 7.43261 19.0497 7.46396 19.0497C7.5162 19.0392 7.558 19.0079 7.5162 18.9243C7.49531 18.8825 7.45351 18.8302 7.43261 18.7884C7.41171 18.7362 7.40127 18.6944 7.38037 18.6526C7.31767 18.6526 7.25498 18.7048 7.24453 18.778C7.19228 18.6839 7.14004 18.5899 7.06689 18.4959C6.99375 18.4018 6.9206 18.3391 6.85791 18.3078H6.84746H6.82656ZM7.88192 18.7153C7.89237 18.8198 8.00732 18.9974 8.12226 19.1333C8.07001 19.0183 8.09091 18.9556 8.1327 18.9034C8.1536 18.8825 8.14315 18.8093 8.08046 18.7362C8.05956 18.7048 8.00732 18.6526 7.96552 18.6421C7.95507 18.6421 7.94462 18.6421 7.93417 18.6421C7.89237 18.6317 7.87148 18.6735 7.88192 18.7153ZM8.62381 18.8198C8.60292 18.8407 8.55067 18.8825 8.52977 19.0183C8.50887 18.987 8.44618 18.9347 8.42528 18.9138C8.41483 18.9347 8.40438 18.9452 8.39393 18.9661C8.37303 19.0288 8.38348 19.1124 8.42528 19.1959C8.49842 19.3422 8.59247 19.4885 8.67606 19.6348C8.8328 19.896 8.98953 20.1573 8.89549 20.3871C8.91639 20.3871 8.91639 20.3871 8.92684 20.3871C8.93729 20.3871 8.93729 20.3767 8.93729 20.3767C9.05223 20.2931 9.14627 20.1573 9.05223 19.9901C8.96864 19.8124 8.72831 19.6035 8.64471 19.4258C8.59247 19.3213 8.59247 19.2377 8.62381 19.1646C8.65516 19.1019 8.7492 19.0706 8.84325 19.081C8.86414 19.081 8.92684 19.1124 8.94774 19.1333C9.04178 19.1959 9.09402 19.29 9.08358 19.3736C9.07313 19.4154 9.03133 19.4363 8.97908 19.4258C8.93729 19.4154 8.88504 19.3736 8.86414 19.3422C8.84324 19.3109 8.8537 19.2691 8.8537 19.2377C8.78055 19.2273 8.7701 19.2377 8.75965 19.3004C8.75965 19.3945 8.86414 19.5199 8.97908 19.5512C9.08358 19.5826 9.17762 19.5303 9.19852 19.4572C9.22986 19.3527 9.19852 19.2482 9.10448 19.1646C9.06268 19.1228 9.01043 19.081 8.99998 19.0392C8.98953 18.9974 8.99998 18.9661 9.01043 18.9347C9.01043 18.9347 9.01043 18.9243 8.99998 18.9138C8.88504 18.8616 8.85369 18.9452 8.78055 18.987C8.75965 18.9556 8.73875 18.9243 8.72831 18.8929C8.69696 18.8407 8.68651 18.8198 8.66561 18.8198C8.65516 18.7884 8.64471 18.7989 8.62381 18.8198ZM7.69384 18.9661C7.67294 18.987 7.66249 19.0183 7.68339 19.0601C7.72519 19.1333 7.80878 19.2064 7.89237 19.2586C8.05956 19.3422 8.2163 19.4676 8.33124 19.6244C8.35214 19.6557 8.37304 19.6766 8.38348 19.708C8.28944 19.6139 8.1745 19.5199 8.07001 19.4258C7.95507 19.3318 7.85058 19.29 7.75654 19.29C7.72519 19.29 7.71474 19.3109 7.71474 19.3422C7.71474 19.4363 7.78788 19.5303 7.88192 19.6453C7.96552 19.7393 8.03866 19.8542 8.1327 19.9587C8.1118 19.9378 8.09091 19.9274 8.08046 19.9169C7.94462 19.8124 7.82968 19.6766 7.73564 19.5303C7.69384 19.4572 7.48486 19.1959 7.39082 19.3318C7.35947 19.3736 7.41171 19.4676 7.50575 19.5408C7.58935 19.6035 7.68339 19.6557 7.76698 19.7184C7.76698 19.8229 7.80878 19.8856 7.93417 19.9796C8.00731 20.0319 8.08046 20.0737 8.1536 20.1155C8.1745 20.1259 8.20585 20.1573 8.2163 20.1782C8.24765 20.2827 8.32079 20.3349 8.39393 20.3663C8.47752 20.408 8.55067 20.408 8.60291 20.408C8.65516 20.408 8.70741 20.3767 8.73876 20.3349C8.791 20.2722 8.82235 20.0946 8.7492 19.9483C8.72831 19.9065 8.67606 19.8542 8.63426 19.8124C8.60292 19.7811 8.58202 19.7602 8.56112 19.7184C8.51932 19.6348 8.46708 19.5408 8.41483 19.4572C8.33124 19.3422 8.2581 19.3004 8.1745 19.3109C8.10136 19.2168 8.03866 19.1437 7.96552 19.0601C7.89238 18.987 7.81923 18.9452 7.76698 18.9452C7.71474 18.9556 7.70429 18.9556 7.69384 18.9661ZM7.11914 19.7184C7.11914 19.8333 7.29677 19.8542 7.33857 19.8333C7.39082 19.8124 7.43261 19.7706 7.48486 19.7497C7.52665 19.7393 7.5789 19.7498 7.6416 19.7602C7.52665 19.6871 7.34902 19.6035 7.23408 19.6035C7.16094 19.6035 7.11914 19.6348 7.11914 19.7184ZM7.36992 19.9378C7.34902 19.9378 7.33857 19.9587 7.31767 19.9692C7.33857 20.0005 7.38037 20.0632 7.41171 20.0841C7.35947 20.0946 7.31767 20.0946 7.28633 20.1155C7.25498 20.1259 7.23408 20.1468 7.21318 20.1677C7.16093 20.2095 7.17138 20.2304 7.25498 20.2827C7.28632 20.3036 7.30722 20.3245 7.34902 20.3454C7.22363 20.4289 7.27588 20.5648 7.28633 20.5648C7.32812 20.5543 7.35947 20.5439 7.39082 20.5648C7.43261 20.5857 7.47441 20.6275 7.50575 20.6797C7.5789 20.7738 7.68339 20.8156 7.78788 20.7947C7.86103 20.7738 7.91327 20.6797 7.89237 20.5752C7.87148 20.4603 7.74608 20.3454 7.66249 20.3349C7.61025 20.3349 7.5998 20.3558 7.5998 20.4185C7.63115 20.4289 7.67294 20.4185 7.70429 20.4394C7.73564 20.4707 7.76698 20.523 7.77743 20.5648C7.78788 20.617 7.76698 20.6588 7.72519 20.6693C7.64159 20.6797 7.54755 20.6275 7.49531 20.523C7.47441 20.4916 7.45351 20.4394 7.45351 20.408C7.45351 20.3036 7.48486 20.22 7.558 20.1991C7.63114 20.1677 7.71474 20.1782 7.81923 20.2304C7.98642 20.3245 8.1954 20.5752 8.36259 20.6797C8.51932 20.7738 8.66561 20.7006 8.75965 20.5857L8.7701 20.5752C8.7701 20.5752 8.7701 20.5648 8.7701 20.5439C8.52977 20.617 8.28944 20.4498 8.03866 20.2722C7.90282 20.1782 7.76698 20.0841 7.6207 20.0005C7.558 19.9587 7.50576 19.9483 7.44306 19.9483C7.41171 19.9274 7.39082 19.9274 7.36992 19.9378ZM9.3657 20.0528C9.24031 20.1155 9.18807 20.2931 9.30301 20.523C9.33436 20.5752 9.3657 20.6379 9.4075 20.6902C9.56424 20.8887 9.73142 21.0454 9.90906 21.2022C10.0135 21.3067 10.1076 21.4112 10.2121 21.5261C10.4629 21.8082 10.4211 22.1426 10.4315 22.1635C10.5465 21.9754 10.6405 21.7873 10.5465 21.4948C10.4838 21.3067 10.3584 21.1813 10.233 21.0768C10.1389 20.9932 10.0344 20.9201 9.92996 20.8365C9.79412 20.732 9.70007 20.5752 9.70007 20.4394C9.70007 20.314 9.77322 20.2722 9.91951 20.314C9.9404 20.314 9.95085 20.3245 9.9822 20.3349C9.92996 20.2304 9.83591 20.1677 9.75232 20.1155C9.65828 20.0632 9.58513 20.0423 9.51199 20.0423C9.4493 20.0214 9.4075 20.0423 9.3657 20.0528ZM9.15672 20.8365C9.33436 21.129 9.48064 21.4321 9.61648 21.7351C9.68963 21.8814 9.79412 22.0277 9.88816 22.153C9.91951 22.2053 9.99265 22.2157 10.0553 22.2262C10.0971 22.2366 10.118 22.2471 10.1494 22.2889C10.4629 22.8636 10.7136 23.4696 10.9122 24.0548C10.9226 24.0757 10.9226 24.107 10.9122 24.1175C10.8286 24.2951 10.8808 24.4205 10.9644 24.5355C11.0376 24.6295 11.1734 24.8071 11.2152 24.8071C11.2256 24.7026 11.2361 24.5877 11.2361 24.4832C11.2361 24.3892 11.2361 24.2847 11.2048 24.1906C11.1839 24.1384 11.1316 24.107 11.0898 24.0652C11.0585 24.0339 11.0167 24.013 11.0062 23.9712C10.7972 23.3965 10.5465 22.8009 10.2225 22.2366C10.1912 22.174 10.1807 22.1426 10.2016 22.0799C10.233 21.9859 10.2016 21.8709 10.1494 21.7664C10.0031 21.5052 9.79412 21.2962 9.58514 21.1186C9.45975 21.0036 9.32391 20.9096 9.18807 20.8051C9.16717 20.7947 9.15672 20.7842 9.12537 20.7633C9.13582 20.7947 9.14627 20.8156 9.15672 20.8365ZM8.58202 20.9723C8.47753 21.0559 8.41483 21.1708 8.43573 21.3589C8.44618 21.4843 8.52977 21.6724 8.62381 21.7246C8.62381 21.6619 8.62381 21.6097 8.63426 21.5575C8.65516 21.453 8.72831 21.4007 8.8328 21.4112C8.91639 21.4216 9.04178 21.5366 9.08358 21.641C9.15672 21.8187 9.20897 21.9859 9.26121 22.1635C9.32391 22.362 9.43885 22.4874 9.61648 22.5292C9.75232 22.5606 9.88816 22.5397 10.0135 22.477C9.9613 22.4456 9.90906 22.4143 9.86726 22.3934C9.72097 22.3098 9.62693 22.1635 9.55379 21.9859C9.45974 21.7664 9.37615 21.547 9.25076 21.3485C9.16717 21.2126 9.06268 21.0872 8.95819 20.9932C8.88504 20.9305 8.8119 20.8992 8.7492 20.8992C8.68651 20.9201 8.62381 20.941 8.58202 20.9723ZM7.46396 22.362C7.36992 22.3516 7.28633 22.3307 7.18183 22.3202C7.15049 22.4352 7.20273 22.5292 7.26543 22.6233C7.32812 22.7069 7.41171 22.7696 7.48486 22.8531C7.43261 22.874 7.36992 22.9054 7.30722 22.9263C7.40126 23.1353 7.558 23.2398 7.81923 23.2084C8.02821 23.1875 8.22675 23.1353 8.42528 23.0935C8.65516 23.0412 8.87459 22.989 9.09403 23.083C9.30301 23.1666 9.4284 23.3547 9.49109 23.595C9.54334 23.7831 9.51199 23.9608 9.4284 24.1488C9.4284 24.1593 9.4702 24.1906 9.48064 24.2011C9.50154 24.1279 9.58513 24.0025 9.60603 23.9294C9.72097 23.3338 9.32391 22.9158 8.8328 22.8845C8.64471 22.8636 8.44618 22.8949 8.24764 22.8949C8.09091 22.8949 7.92372 22.8949 7.78788 22.8009C7.6207 22.6755 7.52665 22.4247 7.67294 22.2157C7.75653 22.1008 7.90282 22.0486 8.03866 22.1113C8.12225 22.1531 8.1954 22.268 8.1954 22.3725C8.1954 22.4352 8.1745 22.4979 8.12226 22.5188C8.07001 22.5397 8.01776 22.5188 7.98642 22.4665C7.97597 22.4561 7.97597 22.4561 7.96552 22.4456C7.93417 22.5292 7.99686 22.686 8.09091 22.7173C8.25809 22.7696 8.41483 22.5606 8.38348 22.3516C8.35214 22.1635 8.26854 22.0068 8.10136 21.9336C7.92372 21.85 7.76698 21.8814 7.63115 22.0172C7.6207 22.0277 7.5998 22.0381 7.58935 22.059C7.51621 21.9859 7.46396 21.9232 7.40126 21.8605C7.28632 22.0172 7.34902 22.1844 7.46396 22.362ZM8.39393 22.6755C8.58202 22.6651 8.7701 22.4352 8.68651 22.2157C8.62381 22.059 8.43573 21.9232 8.28944 21.8396C8.50887 22.1008 8.60291 22.3934 8.39393 22.6755ZM10.7659 23.0099C10.8286 23.1248 10.8704 23.2502 10.9226 23.3652C11.1003 23.2607 11.2257 23.0412 11.1525 22.8114C11.1107 22.6964 11.048 22.5815 10.9853 22.477C10.9435 22.3934 10.8808 22.3202 10.8286 22.2471C10.7763 22.174 10.7345 22.0904 10.6927 22.0068C10.5883 22.362 10.5883 22.6964 10.7659 23.0099ZM10.0867 23.4592C10.1494 23.6159 10.3166 23.6682 10.4733 23.6159C10.5256 23.595 10.5778 23.5741 10.6196 23.5532C10.5674 23.4174 10.5151 23.3025 10.4629 23.1666C10.3688 22.8845 10.1912 22.7487 9.9613 22.7069C9.90906 22.6964 9.84636 22.6964 9.78367 22.686C9.90906 22.9576 9.99265 23.2084 10.0867 23.4592ZM8.12226 23.4278C8.1536 23.4487 8.1745 23.4592 8.1954 23.4696C8.09091 23.5741 7.93417 23.6159 7.85058 23.7727C7.94462 23.7727 8.01776 23.7727 8.10136 23.7727C8.05956 23.8667 7.98642 24.0652 7.99687 24.0652C8.46708 23.6055 8.91639 23.5846 9.41795 23.6577C9.39705 23.5219 9.08358 23.2816 8.88504 23.2293C8.82235 23.2189 8.75965 23.2084 8.70741 23.2084C8.50887 23.2189 8.32079 23.3025 8.12226 23.4278ZM11.1212 23.5846C11.2465 23.5323 11.3719 23.4905 11.4973 23.4592C11.4869 23.4383 11.4764 23.4174 11.4764 23.3965C11.4555 23.3443 11.4346 23.292 11.4033 23.2293C11.2779 23.3234 11.1734 23.4592 11.1212 23.5846ZM11.1421 23.8981C11.1316 23.8981 11.1316 23.9085 11.1212 23.9294C11.3092 23.9608 11.3824 24.1279 11.4137 24.3265C11.5287 24.2951 11.5705 24.2011 11.6227 24.1175C11.6645 24.1593 11.7063 24.2011 11.7481 24.2324C11.7063 24.0966 11.6645 23.9503 11.6227 23.804C11.6018 23.804 11.5705 23.804 11.5496 23.804C11.4033 23.7936 11.2779 23.8354 11.1421 23.8981ZM9.48064 24.5564C9.50154 24.5564 9.52244 24.5564 9.55379 24.5564C9.51199 24.6608 9.47019 24.7653 9.41795 24.8594C9.4284 24.8594 9.57469 24.7862 9.65828 24.734C9.67918 24.7967 9.70008 24.8594 9.73142 24.9116C9.88816 24.4101 10.2434 24.1279 10.5987 23.8354C10.5674 23.8354 10.5465 23.8249 10.5151 23.8249C10.1912 23.8458 9.71053 24.1175 9.48064 24.5564ZM10.6509 24.222C10.5256 24.3265 10.4106 24.4414 10.3479 24.6086C10.2852 24.7653 10.3061 24.8907 10.4002 24.9952C10.5256 24.8803 10.6196 24.7653 10.5778 24.6191C10.6614 24.6191 10.745 24.6086 10.8495 24.5982C10.7763 24.431 10.7241 24.2742 10.8286 24.0966C10.8181 24.0966 10.8181 24.0861 10.8077 24.0861C10.7659 24.1279 10.7032 24.1697 10.6509 24.222ZM11.3824 24.4414C11.4451 24.5459 11.4869 24.6504 11.56 24.7235C11.6018 24.7862 11.675 24.8176 11.769 24.7862C11.8004 24.7758 11.8421 24.7444 11.863 24.7026C11.8526 24.6608 11.8422 24.619 11.8317 24.5773C11.769 24.5877 11.7168 24.5459 11.675 24.5146C11.6018 24.4623 11.5391 24.431 11.4346 24.431C11.4242 24.4414 11.4033 24.4414 11.3824 24.4414ZM10.7241 24.9639C10.7032 25.0475 10.6614 25.1206 10.5465 25.1415C10.5883 25.2042 10.6614 25.2146 10.7345 25.2146C10.8077 25.2042 10.8599 25.152 10.8913 25.0997C10.9435 25.0161 10.9435 24.9012 10.9331 24.8176C10.9226 24.7653 10.9122 24.7131 10.9017 24.6713C10.8077 24.7549 10.7554 24.8489 10.7241 24.9639ZM11.5078 25.0997C11.5914 25.152 11.7272 25.0893 11.8004 24.943C11.6854 24.9743 11.6436 24.9012 11.5809 24.8385C11.5287 24.7862 11.4555 24.7549 11.3928 24.7026C11.351 24.8594 11.4137 25.0475 11.5078 25.0997ZM11.0167 25.0788C11.0167 25.1624 11.0167 25.2355 10.9435 25.3087C11.0167 25.3296 11.0898 25.3087 11.1525 25.2564C11.2152 25.2146 11.2361 25.152 11.2256 25.0893C11.2152 24.9743 11.1316 24.8385 11.0271 24.7862C11.0271 24.8907 11.0062 24.9952 11.0167 25.0788ZM11.3719 25.4132C11.3824 25.4341 11.3928 25.4341 11.4137 25.4341H11.4242C11.4346 25.4341 11.4555 25.4236 11.4764 25.4132C11.5287 25.3818 11.5496 25.3505 11.5391 25.3087C11.5182 25.1938 11.4346 25.1206 11.3301 25.0475C11.3197 25.1938 11.3092 25.3191 11.3719 25.4132Z" fill="url(#paint6_linear_261_11127)"/>
<path d="M54.9776 20.8449C54.5032 20.8449 54.3069 20.2069 54.3069 18.4728C54.3069 17.5731 54.7486 17.3441 55.9918 17.3441C56.319 17.3441 56.5808 17.3441 56.8261 17.3441C56.4335 18.5873 55.8937 20.8449 54.9776 20.8449ZM52.442 19.6507C52.442 20.1087 52.491 20.5013 52.5728 20.8285H45.9639C45.0805 20.8285 44.5243 20.6322 44.5243 19.8143V17.5567H46.5855C46.7491 17.0496 46.8636 16.5916 46.9291 16.1008H44.5079C44.5243 15.4137 44.5734 14.7921 44.6225 14.0723C43.8372 14.3504 43.2156 14.6776 42.7085 15.2501V16.1008H41.6452C41.5634 16.7061 41.5634 17.1641 41.5306 17.5567H42.7085V19.9288C42.7085 21.581 43.7064 22.3008 45.0805 22.3008H54.0615C55.1575 22.3008 56.0082 21.4011 56.8261 19.3562V22.3008H58.6256V16.1008C57.8077 16.0354 57.0715 15.9863 56.2536 15.9863C54.0288 15.9863 52.442 16.9187 52.442 19.6507ZM61.8974 18.9636V18.3583C61.8974 17.5731 61.8483 16.886 61.7338 16.1008H59.9834C60.0325 16.886 60.0979 17.5567 60.0979 18.3583V22.3008H61.8974C61.8974 20.0924 62.6008 17.5731 64.4821 17.8512C64.4821 17.4586 64.433 16.5589 64.3185 15.9863C62.9443 16.1172 62.2736 17.3277 61.8974 18.9636ZM37.081 20.8449C36.6066 20.8449 36.4103 20.2069 36.4103 18.4728C36.4103 17.5731 36.852 17.3441 38.0953 17.3441C38.4225 17.3441 38.6842 17.3441 38.9459 17.3441C38.537 18.5873 37.9971 20.8449 37.081 20.8449ZM34.5454 19.6507C34.5454 21.5156 35.2161 22.4153 36.1159 22.4153C37.2283 22.4153 38.0953 21.4338 38.9296 19.3562V22.3008H40.7291V16.1008C39.9111 16.0354 39.175 15.9863 38.357 15.9863C36.1322 15.9863 34.5454 16.9187 34.5454 19.6507ZM93.2736 16.7879C93.2736 15.2501 92.2103 14.3177 90.2963 14.3177C89.2329 14.3177 88.4641 14.5467 87.9897 14.7757C87.7116 15.152 87.5971 15.5937 87.4335 16.2971C88.1533 16.019 88.8567 15.79 89.9037 15.79C90.7543 15.79 91.425 16.1499 91.425 17.1478C91.425 18.2111 90.7543 18.9963 87.139 21.0902C87.139 21.3193 87.1554 21.761 87.2535 22.3335H93.2081C93.3717 21.8264 93.4862 21.3683 93.5517 20.8776H88.4641C90.9997 19.9778 93.2736 19.0617 93.2736 16.7879ZM30.2921 20.5668L30.194 20.5177C29.1143 19.9451 27.6584 19.0618 27.6584 17.4586C27.6584 15.9863 28.6072 15.2992 29.7359 15.2992C30.9956 15.2992 31.7644 16.1826 31.7644 17.7367C31.7808 18.8327 31.1919 19.7815 30.2921 20.5668ZM33.7438 22.4153L30.7829 20.8285C32.4679 20.2232 33.6948 19.0127 33.6948 17.3114C33.6948 15.0211 31.9771 13.8596 29.7523 13.8596C27.7074 13.8596 25.7607 15.1684 25.7607 17.6876C25.7607 19.8143 27.3803 21.0902 29.1634 22.0227L34.889 25C34.8726 23.6913 34.7254 22.9388 33.7438 22.4153ZM75.9169 21.7446C75.4097 21.7446 73.8393 20.714 73.8393 17.9657C73.8393 16.6079 74.6245 15.7736 75.9169 15.7736C77.2092 15.7736 77.9944 16.6243 77.9944 17.9657C78.0108 20.714 76.424 21.7446 75.9169 21.7446ZM75.9169 14.3013C73.6593 14.3013 71.9744 15.6591 71.9744 17.8512C71.9744 20.7303 74.739 22.4153 75.9169 22.4153C77.0947 22.4153 79.8593 20.7303 79.8593 17.8512C79.8593 15.6591 78.1744 14.3013 75.9169 14.3013ZM75.9496 17.3768C75.557 17.6549 75.2134 17.9821 74.919 18.3583C75.2134 18.7346 75.557 19.0618 75.9496 19.3399C76.3422 19.0618 76.6857 18.7346 76.9802 18.3583C76.6857 17.9821 76.3422 17.6549 75.9496 17.3768ZM86.2884 16.7879C86.2884 15.2501 85.225 14.3177 83.2947 14.3177C82.2314 14.3177 81.4625 14.5467 80.9881 14.7757C80.7264 15.152 80.5955 15.5937 80.4319 16.2971C81.1517 16.019 81.8551 15.79 82.9184 15.79C83.7691 15.79 84.4398 16.1499 84.4398 17.1478C84.4398 18.2111 83.7691 18.9963 80.1538 21.0902C80.1538 21.3193 80.1702 21.761 80.2683 22.3335H86.2393C86.4029 21.8264 86.5174 21.3683 86.5828 20.8776H81.4952C84.0308 19.9778 86.2884 19.0617 86.2884 16.7879ZM71.0747 16.7879C71.0747 15.2501 70.0113 14.3177 68.0974 14.3177C67.034 14.3177 66.2652 14.5467 65.7908 14.7757C65.5127 15.152 65.3982 15.5937 65.2346 16.2971C65.9544 16.019 66.6578 15.79 67.7047 15.79C68.5554 15.79 69.2261 16.1499 69.2261 17.1478C69.2261 18.2111 68.5554 18.9963 64.9401 21.0902C64.9401 21.3193 64.9565 21.761 65.0546 22.3335H71.0256C71.1892 21.8264 71.3037 21.3683 71.3691 20.8776H66.2815C68.8171 19.9778 71.0747 19.0617 71.0747 16.7879Z" fill="white"/>
<path d="M86.4539 11.6582C86.1921 11.7236 85.914 11.7891 85.6196 11.8381C85.3087 11.9036 84.9325 11.9199 84.4744 11.9199C84.0328 11.9199 83.5747 11.8545 83.1167 11.74C82.6586 11.6255 82.2496 11.4292 81.8898 11.1511C81.5299 10.8893 81.219 10.5294 80.99 10.0877C80.761 9.64605 80.6465 9.12257 80.6465 8.48457C80.6465 7.91201 80.7446 7.38853 80.9409 6.9632C81.1373 6.52151 81.399 6.16162 81.7425 5.86716C82.0861 5.5727 82.495 5.36004 82.9531 5.21281C83.4275 5.06558 83.9346 5.00014 84.4744 5.00014C84.818 5.00014 85.1615 5.03286 85.4723 5.0983C85.7995 5.16373 86.1267 5.24553 86.4539 5.34368L86.3066 6.78326C86.0122 6.61967 85.7341 6.50515 85.456 6.42336C85.1779 6.34157 84.8834 6.30885 84.5726 6.30885C84.2454 6.30885 83.9673 6.35792 83.7056 6.47243C83.4438 6.58695 83.2312 6.73418 83.0512 6.91412C82.8713 7.11043 82.7241 7.33946 82.6259 7.6012C82.5277 7.86294 82.4787 8.15739 82.4787 8.46821C82.4787 8.79539 82.5277 9.08985 82.6423 9.35159C82.7568 9.61333 82.904 9.82599 83.1003 10.0223C83.2966 10.2022 83.5256 10.3495 83.8037 10.4313C84.0818 10.5294 84.3763 10.5785 84.7035 10.5785C84.9979 10.5785 85.2924 10.5458 85.5705 10.4803C85.8649 10.4149 86.1267 10.3331 86.3721 10.235L86.4539 11.6582Z" fill="white"/>
<path d="M92.8613 9.26076C92.8613 9.71881 92.7959 10.1114 92.6487 10.455C92.5014 10.7821 92.3051 11.0602 92.0434 11.2729C91.7817 11.4856 91.4708 11.6491 91.1109 11.7637C90.751 11.8782 90.3584 11.9272 89.9168 11.9272C89.4914 11.9272 89.0825 11.8782 88.7226 11.7637C88.3627 11.6655 88.0518 11.5019 87.7901 11.2729C87.5284 11.0602 87.3321 10.7821 87.1848 10.455C87.0376 10.1278 86.9722 9.73517 86.9722 9.26076V5.12198H88.7553V8.9663C88.7553 9.19532 88.7716 9.39163 88.8044 9.58794C88.8371 9.78424 88.9025 9.94783 88.9843 10.1114C89.0661 10.2586 89.1806 10.3732 89.3278 10.4713C89.4751 10.5531 89.655 10.6022 89.884 10.6022C90.1131 10.6022 90.3094 10.5531 90.4566 10.4713C90.6038 10.3895 90.7183 10.275 90.8001 10.1114C90.8819 9.96419 90.9474 9.78424 90.9801 9.58794C91.0128 9.39163 91.0291 9.17897 91.0291 8.9663V5.12198H92.8123V9.26076H92.8613Z" fill="white"/>
<path d="M95.5312 8.21112H95.9892C96.1364 8.21112 96.2837 8.19476 96.4145 8.16204C96.5454 8.12933 96.6599 8.08024 96.7581 8.01481C96.8562 7.94937 96.938 7.85122 96.9871 7.72035C97.0362 7.60584 97.0689 7.45861 97.0689 7.27866C97.0689 7.09872 97.0362 6.96785 96.9871 6.85334C96.9217 6.73883 96.8562 6.64067 96.7581 6.57523C96.6599 6.5098 96.5454 6.46072 96.4145 6.42801C96.2837 6.39529 96.1364 6.37893 95.9892 6.37893H95.5312V8.21112ZM93.748 5.1193H95.8747C96.9053 5.1193 97.6578 5.29924 98.1486 5.64278C98.6393 6.00267 98.8684 6.54252 98.8684 7.31138C98.8684 7.98209 98.6393 8.52194 98.1649 8.89819C97.6905 9.27444 97.0525 9.47075 96.2182 9.47075H95.5312V11.8101H93.748V5.1193Z" fill="white"/>
<path d="M43.5205 5.12175H45.3363L46.2034 10.2584H46.2197L47.1194 5.12175H49.377L50.3094 10.2584H50.3258L51.1928 5.12175H52.9268L51.4382 11.7961H49.1479L48.1991 6.65948H48.1828L47.2994 11.7961H44.9928L43.5205 5.12175Z" fill="white"/>
<path d="M54.8268 8.45918C54.8268 8.73728 54.8595 8.99902 54.9086 9.26076C54.9577 9.5225 55.0558 9.75153 55.1704 9.94783C55.2849 10.1441 55.4485 10.3077 55.6448 10.4222C55.8411 10.5368 56.0701 10.6022 56.3318 10.6022C56.5936 10.6022 56.8226 10.5368 57.0189 10.4222C57.2152 10.3077 57.3624 10.1441 57.4933 9.94783C57.6078 9.75153 57.706 9.5225 57.755 9.26076C57.8041 8.99902 57.8368 8.73728 57.8368 8.45918C57.8368 8.18108 57.8041 7.90298 57.755 7.64124C57.6896 7.3795 57.6078 7.15048 57.4933 6.95417C57.3788 6.75786 57.2152 6.61064 57.0189 6.49613C56.8226 6.38161 56.5936 6.33254 56.3318 6.33254C56.0701 6.33254 55.8411 6.38161 55.6448 6.49613C55.4485 6.61064 55.3012 6.77422 55.1704 6.95417C55.0558 7.15048 54.9577 7.3795 54.9086 7.64124C54.8595 7.90298 54.8268 8.18108 54.8268 8.45918ZM52.9946 8.45918C52.9946 7.91934 53.0601 7.44493 53.2073 7.0196C53.3545 6.59428 53.5672 6.23439 53.8453 5.93993C54.1234 5.64547 54.4833 5.41644 54.8923 5.25286C55.3176 5.08927 55.792 5.00747 56.3482 5.00747C56.888 5.00747 57.3788 5.08927 57.8041 5.25286C58.2294 5.41644 58.573 5.64547 58.8511 5.93993C59.1292 6.23439 59.3418 6.59428 59.4891 7.0196C59.6363 7.44493 59.7017 7.9357 59.7017 8.45918C59.7017 8.98266 59.6363 9.47343 59.4891 9.89876C59.3418 10.3241 59.1292 10.684 58.8511 10.9948C58.573 11.2893 58.2131 11.5183 57.8041 11.6819C57.3952 11.8455 56.9044 11.9272 56.3645 11.9272C55.8083 11.9272 55.3339 11.8455 54.925 11.6819C54.516 11.5183 54.1561 11.2893 53.878 10.9948C53.5999 10.7003 53.3872 10.3241 53.24 9.89876C53.0764 9.47343 52.9946 8.99902 52.9946 8.45918Z" fill="white"/>
<path d="M62.1435 7.90128H62.6179C62.7651 7.90128 62.9123 7.90128 63.0596 7.88492C63.2231 7.86856 63.354 7.8522 63.4849 7.78676C63.6158 7.73769 63.7139 7.65589 63.7957 7.55774C63.8775 7.45959 63.9266 7.31236 63.9266 7.11605C63.9266 6.96882 63.8939 6.83795 63.8121 6.7398C63.7466 6.64165 63.6485 6.55985 63.534 6.51078C63.4195 6.4617 63.2722 6.42898 63.125 6.41262C62.9614 6.39626 62.7978 6.3799 62.6342 6.3799H62.1598V7.90128H62.1435ZM60.3604 5.12028H63.534C63.8284 5.12028 64.1065 5.153 64.3683 5.21843C64.63 5.28387 64.859 5.39838 65.0553 5.52925C65.2516 5.67648 65.4152 5.84006 65.5134 6.05273C65.6279 6.26539 65.677 6.51078 65.677 6.80523C65.677 7.24692 65.5788 7.62318 65.3662 7.90128C65.1535 8.17938 64.8263 8.37568 64.401 8.4902V8.50655C64.5482 8.53927 64.6464 8.6047 64.7445 8.6865C64.8263 8.76829 64.9081 8.86644 64.9735 8.99732C65.039 9.12819 65.088 9.25906 65.1535 9.42265C65.2026 9.58623 65.2844 9.76618 65.3662 9.97884L66.0205 11.7947H64.172L63.7957 10.5841C63.7139 10.2897 63.6158 10.0606 63.5503 9.8807C63.4685 9.70075 63.3867 9.55352 63.2886 9.43901C63.1904 9.32449 63.0923 9.25906 62.9778 9.20998C62.8633 9.16091 62.716 9.14455 62.5524 9.14455H62.1762V11.811H60.3931V5.12028H60.3604Z" fill="white"/>
<path d="M66.7715 5.1215H68.5546V10.4872H71.3029V11.8123H66.7715V5.1215Z" fill="white"/>
<path d="M73.7104 10.4818H74.3974C75.0681 10.4818 75.5753 10.3182 75.9352 9.9747C76.295 9.63116 76.475 9.14039 76.475 8.46968C76.475 7.79897 76.295 7.29185 75.9352 6.96467C75.5753 6.62114 75.0681 6.45755 74.3974 6.45755H73.7104V10.4818ZM71.9272 5.11612H74.3647C74.9536 5.11612 75.4771 5.1652 75.9679 5.26335C76.4586 5.3615 76.8676 5.54145 77.2111 5.80319C77.5547 6.04858 77.8328 6.39211 78.0291 6.81744C78.2254 7.24277 78.3235 7.78261 78.3235 8.42061C78.3235 9.04224 78.2254 9.56572 78.0291 10.0074C77.8328 10.4327 77.5547 10.7763 77.2111 11.038C76.8676 11.2998 76.4423 11.4961 75.9515 11.6106C75.4607 11.7251 74.9373 11.7905 74.3647 11.7905H71.9272V5.11612Z" fill="white"/>
<path fill-rule="evenodd" clip-rule="evenodd" d="M21.9688 5.12175V11.7961H24.0463V9.3914H25.5513L26.0912 7.93546H24.0463V6.57768H26.5656L27.0891 5.12175H21.9688Z" fill="white"/>
<path fill-rule="evenodd" clip-rule="evenodd" d="M27.728 11.8083H29.8056V5.13394H27.728V11.8083Z" fill="white"/>
<path fill-rule="evenodd" clip-rule="evenodd" d="M31.2451 5.12175V11.7961H33.3227V9.3914H34.8113L35.3512 7.93546H33.3227V6.57768H35.8419L36.3654 5.12175H31.2451Z" fill="white"/>
<path fill-rule="evenodd" clip-rule="evenodd" d="M39.609 9.61626L38.7747 6.83526L37.9731 9.61626H39.609ZM42.3246 11.8083H40.2306L39.9525 10.9086H37.6132L37.3515 11.8083H35.3066L37.7441 5.13394H39.9035L42.3246 11.8083Z" fill="white"/>
<defs>
<linearGradient id="paint0_linear_261_11127" x1="3.31656" y1="3.0019" x2="6.01031" y2="1.25689" gradientUnits="userSpaceOnUse">
<stop stop-color="#FAF6F2"/>
<stop offset="1" stop-color="#FFFBF7"/>
</linearGradient>
<linearGradient id="paint1_linear_261_11127" x1="8.29231" y1="27.4118" x2="5.62045" y2="16.4237" gradientUnits="userSpaceOnUse">
<stop stop-color="#FAF6F2"/>
<stop offset="0.5124" stop-color="#FFFBF7"/>
<stop offset="0.6773" stop-color="#FFFBF7"/>
<stop offset="0.901" stop-color="#EBE7E3"/>
<stop offset="1" stop-color="#CCC9C6"/>
</linearGradient>
<linearGradient id="paint2_linear_261_11127" x1="3.32078" y1="3.58806" x2="1.51806" y2="6.69944" gradientUnits="userSpaceOnUse">
<stop stop-color="#791426"/>
<stop offset="0.5347" stop-color="#AF1C3B"/>
<stop offset="1" stop-color="#791426"/>
</linearGradient>
<linearGradient id="paint3_linear_261_11127" x1="2.85221" y1="3.31541" x2="1.04937" y2="6.427" gradientUnits="userSpaceOnUse">
<stop stop-color="#791426"/>
<stop offset="0.5347" stop-color="#AF1C3B"/>
<stop offset="1" stop-color="#791426"/>
</linearGradient>
<linearGradient id="paint4_linear_261_11127" x1="4.06844" y1="4.02219" x2="2.26577" y2="7.13347" gradientUnits="userSpaceOnUse">
<stop stop-color="#791426"/>
<stop offset="0.5347" stop-color="#AF1C3B"/>
<stop offset="1" stop-color="#791426"/>
</linearGradient>
<linearGradient id="paint5_linear_261_11127" x1="4.13011" y1="38.1582" x2="10.9325" y2="22.0027" gradientUnits="userSpaceOnUse">
<stop stop-color="#791426"/>
<stop offset="0.5347" stop-color="#AF1C3B"/>
<stop offset="1" stop-color="#791426"/>
</linearGradient>
<linearGradient id="paint6_linear_261_11127" x1="3.99916" y1="11.0704" x2="11.929" y2="28.8181" gradientUnits="userSpaceOnUse">
<stop stop-color="#791426"/>
<stop offset="0.5347" stop-color="#AF1C3B"/>
<stop offset="1" stop-color="#791426"/>
</linearGradient>
</defs>
</svg>
