<svg width="475" height="57" viewBox="0 0 475 57" fill="none" xmlns="http://www.w3.org/2000/svg">
<g clip-path="url(#clip0_261_11128)">
<path d="M28.5212 27.6863L31.6324 30.8293L34.7426 27.6863L31.6324 24.5558L28.5212 27.6863ZM14.4471 27.6863L17.1763 30.4453L19.917 27.6863L17.1763 24.9397L14.4471 27.6863ZM0.37207 27.6863L2.75586 30.0855L5.13965 27.6863L2.75682 25.288L0.373035 27.6863H0.37207ZM56.6588 27.6863L60.5321 31.5972L64.417 27.6863L60.5321 23.7888L56.6588 27.6863ZM42.5837 27.6863L46.1001 31.2132L49.5923 27.6863L46.1001 24.1718L42.5837 27.6863ZM92.0413 27.0148C91.9063 24.7223 91.0979 22.5206 89.7173 20.6854C88.34 18.8556 86.4498 17.4765 84.287 16.7233C82.1296 15.9721 79.7971 15.8817 77.5881 16.4638C75.3753 17.0483 73.3863 18.2777 71.8741 19.9956C70.3572 21.7191 69.3829 23.8522 69.0736 26.1273C68.7627 28.4041 69.1298 30.7221 70.129 32.7915C71.1252 34.856 72.7111 36.5789 74.6863 37.7423C76.6557 38.902 78.9263 39.4478 81.2077 39.31C82.7232 39.2172 84.2055 38.8257 85.5692 38.158C86.933 37.4903 88.1512 36.5595 89.154 35.4193C91.1871 33.1083 92.2249 30.0875 92.0413 27.0148ZM83.0435 19.6261C84.8946 20.2269 86.4734 21.4633 87.5005 23.1164C87.0691 23.4188 86.5612 23.5933 86.0351 23.62C85.5447 23.6449 85.0557 23.5485 84.6115 23.3393C84.1673 23.1302 83.7815 22.8147 83.4882 22.4209C83.1926 22.0262 82.9977 21.5655 82.9203 21.0785C82.843 20.5915 82.8856 20.0929 83.0445 19.6261H83.0435ZM74.01 32.5686C73.0021 31.253 72.4126 29.665 72.3179 28.0104V27.2676C72.9131 27.3062 73.4823 27.5271 73.9521 27.8975C74.421 28.268 74.7683 28.7725 74.9487 29.3446C75.1283 29.9166 75.1326 30.5293 74.9612 31.1038C74.7898 31.6784 74.4505 32.1885 73.9868 32.5686H74.01ZM73.6531 22.9727C74.6938 21.3427 76.2762 20.1321 78.1216 19.5538C78.2045 19.7988 78.2566 20.0525 78.2759 20.3101C78.3221 21.1027 78.0534 21.8814 77.5283 22.4768C77.269 22.7705 76.9543 23.0099 76.6021 23.1814C76.25 23.353 75.8674 23.4532 75.4763 23.4763C74.8229 23.5407 74.167 23.3801 73.6174 23.0209L73.6531 22.9727ZM81.0417 35.7589C79.8853 35.8242 78.7281 35.6443 77.646 35.2312C77.8293 34.6157 78.2045 34.0765 78.7168 33.6935C79.2279 33.3105 79.8493 33.1036 80.488 33.1036C81.1266 33.1036 81.7481 33.3105 82.2592 33.6935C82.7705 34.0765 83.1467 34.6157 83.33 35.2312C82.5872 35.538 81.8048 35.7329 81.0051 35.8071L81.0417 35.7589ZM83.9021 27.0987L82.8535 30.1096C82.7991 30.2772 82.6919 30.4227 82.5479 30.5243C82.4039 30.6259 82.2308 30.678 82.0547 30.673L78.8847 30.6016C78.7091 30.6012 78.5384 30.5435 78.3986 30.4373C78.2588 30.3311 78.1575 30.1822 78.11 30.0131L77.1926 26.955C77.1451 26.7855 77.1518 26.6055 77.2117 26.44C77.2715 26.2744 77.3815 26.1318 77.5264 26.0318L80.1243 24.2085C80.267 24.1069 80.4378 24.0522 80.6129 24.0522C80.7881 24.0522 80.9589 24.1069 81.1016 24.2085L83.6156 26.1398C83.766 26.2539 83.8728 26.416 83.9185 26.5992C83.9641 26.7824 83.9457 26.9757 83.8664 27.147L83.9021 27.0987ZM87.3461 32.1123C86.8158 31.7753 86.4056 31.2793 86.174 30.6952C85.9425 30.1103 85.9003 29.4675 86.0535 28.8575C86.2067 28.2474 86.5474 27.7007 87.0277 27.2946C87.5074 26.8908 88.103 26.6499 88.7285 26.6067C88.7285 26.7273 88.7285 26.8479 88.7883 26.9666C88.8872 28.8141 88.3671 30.6419 87.3104 32.1606L87.3461 32.1123Z" fill="#FF004C"/>
</g>
<path d="M121.252 27.5537C119.418 24.4717 117.721 21.6042 116.629 18.8733C116.258 17.7614 115.985 16.6691 115.809 15.6157C115.185 12.6117 115.458 10.8366 116.59 8.41777C116.609 8.35925 116.648 8.32024 116.668 8.26172C117.214 7.94962 117.975 7.65702 118.833 7.57899C120.764 7.38392 124.022 7.87159 125.27 11.3828C126.577 15.089 123.768 22.326 121.252 27.5537ZM133.131 6.64267C133.014 6.4086 132.546 5.5308 132.39 5.2382C132.351 5.17968 132.332 5.14066 132.332 5.14066C130.303 1.41491 130.225 2.11714 128.957 1.90257C128.918 1.90257 128.859 1.88306 128.82 1.86356C127.377 1.51244 124.88 0.576126 123.671 0.127472C122.422 -0.321178 119.126 0.654148 116.999 0.868721C116.453 0.927242 116.043 1.02477 115.712 1.14181C114.737 1.51244 114.483 2.17566 114.093 2.70234C113.859 3.01445 113.683 3.11198 113.469 3.151H113.449C111.791 3.73619 107.89 8.57383 108.729 15.2256C108.787 15.8693 108.924 16.513 109.099 17.1372C110.718 23.5159 116.122 32.0988 117.448 34.5176C116.473 36.7804 114.385 41.4034 113.722 45.7534C113.703 45.9094 113.527 46.9043 113.527 47.7431C113.43 49.9668 113.859 51.976 115.146 53.439L115.4 53.7121C116.063 54.3558 116.824 54.7654 117.604 55.019C118.716 55.4872 119.555 55.2336 120.354 55.0971C120.725 55.3116 121.096 55.4872 121.486 55.6237C123.807 56.4235 126.401 55.7798 127.611 55.0971C129.249 54.5704 129.991 53.6145 130.459 52.132C130.927 50.7276 131.649 47.8796 130.03 43.6467C129.308 41.8131 127.825 38.9651 125.563 34.8102L125.543 34.7907C127.357 31.3575 132.214 22.8527 133.092 20.3753C133.131 20.2388 133.17 20.1217 133.229 19.9852C134.692 16.2399 135.648 11.2657 133.131 6.64267Z" fill="white"/>
<path d="M119.872 39.0882C119.346 38.0738 118.195 35.8696 117.961 35.3429C115.288 40.5317 114.644 46.3056 114.586 47.9832C114.605 49.2706 114.586 51.2213 116.4 52.0601C118.838 48.7634 114.586 43.8478 119.872 39.0882Z" fill="#ACA9A6"/>
<path d="M125.998 21.7472C126.622 18.6457 128.182 16.0123 126.193 11.7013C124.574 8.1511 121.765 6.88317 118.819 7.5659C120.75 7.37084 124.008 7.8585 125.257 11.3697C126.583 15.0759 123.755 22.3129 121.238 27.5407C121.18 27.6577 121.121 27.7942 121.063 27.9113C122.292 30.0375 123.286 31.8711 124.476 34.0168C124.476 34.0168 126.095 31.4225 126.759 30.2326C125.413 27.0725 125.608 23.6784 125.998 21.7472Z" fill="#ACA9A6"/>
<path d="M133.637 11.6619C133.637 11.5643 133.637 11.4473 133.637 11.3498V11.3303C133.637 11.2912 133.637 11.2522 133.637 11.1937C133.617 10.7255 133.578 10.3354 133.539 10.0038C133.5 9.67219 133.442 9.43811 133.383 9.26255C133.149 8.56032 132.583 7.72153 131.959 6.92176C130.711 5.34173 129.15 3.89824 129.092 3.85923C128.994 3.89824 128.897 3.95676 128.779 4.01528C127.453 4.81505 127.473 5.90742 122.83 3.68367C122.128 3.35205 121.035 3.56663 120.431 3.60564C125.112 7.05831 130.262 6.92176 133.637 11.6619Z" fill="#BCBAB7"/>
<path d="M130.032 24.7658C130.207 24.4927 130.363 24.2391 130.519 24.0246C130.695 23.732 130.851 23.4589 131.007 23.1468C131.085 23.0102 131.144 22.8737 131.222 22.7371C133.133 18.9138 133.66 14.4273 133.64 11.6574C131.261 4.73254 124.297 7.81458 122.073 3.50363C122.034 3.50363 120.376 3.60116 120.337 3.60116C120.454 3.73771 120.551 3.87425 120.669 4.0108C121.546 5.02514 123.614 7.07333 125.838 7.58051C128.062 8.10718 129.934 8.41929 131.807 11.2282C133.679 14.0372 131.69 17.9775 129.934 21.8398C129.232 23.3808 129.154 24.9414 129.056 26.4629C129.349 26.0728 129.407 25.6046 129.739 25.1559C129.837 25.0389 129.934 24.9024 130.032 24.7658Z" fill="#CCC9C6"/>
<path d="M131.809 11.2379C129.936 8.42896 128.063 8.11685 125.84 7.59017C123.616 7.06349 121.548 5.0153 120.67 4.02046C120.553 3.88392 120.436 3.74737 120.339 3.61083C118.798 3.76688 117.569 4.9958 116.75 6.75139C116.457 7.35609 116.223 8.01932 116.028 8.72156C116.652 8.19488 117.686 7.68771 118.856 7.57067C121.802 6.90744 124.591 8.17537 126.23 11.7061C128.2 16.017 126.659 18.6504 126.015 21.752C125.625 23.6831 125.43 27.0773 126.795 30.2568C127.264 29.4181 127.79 28.2477 129.078 26.4726C129.175 24.9315 129.253 23.3905 129.956 21.8495C131.692 17.9677 133.701 14.0273 131.809 11.2379Z" fill="#BBB8B5"/>
<path d="M118.492 34.7958C116.424 37.6828 113.225 53.1515 117.867 52.6248C125.143 51.6105 119.447 36.7659 118.492 34.7958Z" fill="#9A9794"/>
<path d="M124.618 33.285C124.423 32.9534 124.286 32.7583 124.286 32.7583C124.208 32.6218 124.13 32.5047 124.071 32.3877C121.282 27.355 118.258 22.9855 116.62 18.8696C116.269 17.7578 115.976 16.6654 115.801 15.612C115.176 12.608 115.45 10.8329 116.581 8.4141C117.693 6.07331 121.028 3.14732 122.882 4.04462C126.9 5.97577 127.446 5.03946 128.421 4.25919C128.46 4.23969 128.519 4.18117 128.558 4.14215C128.577 4.12265 128.695 4.04462 128.714 4.02511C139.306 12.1399 127.973 27.8232 124.618 33.285ZM118.18 52.3039C117.907 52.343 117.634 52.3625 117.381 52.3235C116.952 52.2649 116.542 52.1089 116.132 51.8163C115.567 51.4261 115.157 50.8605 114.923 50.1972C114.26 48.2271 114.396 44.3257 117.907 35.4893C118.278 36.289 118.61 37.0303 118.766 37.3424C120.794 41.4388 121.282 45.223 121.282 47.4663C121.067 50.3143 119.721 52.0309 118.18 52.3039ZM133.123 6.639C133.005 6.40492 132.537 5.52712 132.381 5.23452C132.342 5.176 132.323 5.13699 132.323 5.13699C130.294 1.39172 130.216 2.11346 128.948 1.87939C128.909 1.87939 128.851 1.85988 128.812 1.84038C127.368 1.50877 124.891 0.572445 123.681 0.123795C122.433 -0.344364 119.136 0.650475 117.01 0.865047C116.464 0.923569 116.054 1.0211 115.723 1.13814C114.747 1.52827 114.494 2.17199 114.104 2.69867C113.869 3.01077 113.694 3.1083 113.479 3.14732C113.479 3.14732 113.479 3.14732 113.46 3.14732C111.802 3.73251 107.9 8.57015 108.739 15.2219C108.798 15.8656 108.934 16.5093 109.11 17.1335C110.729 23.5122 116.132 32.0951 117.459 34.5139C116.483 36.7767 114.396 41.3998 113.733 45.7497C113.713 45.9058 113.538 46.9006 113.538 47.7394C113.44 49.9632 113.869 51.9918 115.157 53.4353C115.157 53.4353 115.411 53.7084 115.43 53.7084C116.093 54.3521 116.854 54.7618 117.634 55.0154C118.746 55.4835 119.585 55.2299 120.385 55.0934C120.755 55.308 121.126 55.4835 121.516 55.6201C123.837 56.4198 126.432 55.7761 127.641 55.0934C129.28 54.5667 130.021 53.6109 130.489 52.1284C130.957 50.7239 131.679 47.8759 130.06 43.643C129.319 41.8094 127.856 38.9614 125.593 34.8065L125.573 34.787C127.388 31.3539 132.245 22.849 133.123 20.3716C133.162 20.2351 133.201 20.1181 133.259 19.9815C134.683 16.2558 135.639 11.2621 133.123 6.639Z" fill="#EFECE8"/>
<path d="M128.756 26.7541C128.599 27.0077 128.209 27.5734 127.722 28.2951C126.512 30.3433 125.361 32.0794 124.62 33.2888C124.874 33.6789 125.42 34.5762 125.654 35.0054C125.615 34.9469 125.595 34.9078 125.576 34.8493L125.556 34.8298C125.673 34.6152 125.81 34.3617 125.947 34.1081C125.927 32.7231 128.287 27.8269 128.756 26.7541Z" fill="#DAD7D3"/>
<path d="M123.662 1.05287C122.765 0.584712 121.633 0.604218 120.541 0.799284C120.209 0.857804 119.41 1.01386 119.41 1.01386C119.41 1.01386 121.009 1.40399 122.277 1.85264C123.096 2.16475 124.481 2.69143 126.139 1.81363L126.178 1.7356C125.437 1.67708 124.501 1.50152 123.662 1.05287Z" fill="#BBB8B5"/>
<path d="M118.449 1.42413C118.078 1.56067 117.766 1.69722 117.532 1.81426C114.528 3.47232 113.67 5.13037 113.533 5.26692C113.455 5.85212 113.319 6.28127 113.26 7.00301C113.806 7.29561 116.498 6.76893 118.293 5.36445C118.508 5.16939 118.742 4.99384 118.995 4.83778C119.093 4.75976 119.171 4.72074 119.249 4.66222C119.268 4.66222 119.268 4.64271 119.288 4.6232C120.302 3.70639 121.512 1.46314 122.643 2.02883C122.74 2.06784 122.818 2.10685 122.916 2.14586C122.779 2.06784 122.643 1.98982 122.506 1.91179C121.707 1.48265 120.848 1.17053 119.912 1.17053C119.444 1.15103 118.956 1.24857 118.449 1.42413Z" fill="url(#paint0_linear_261_11128)"/>
<path d="M114.011 3.28328C113.875 3.61489 113.758 3.92699 113.699 4.35614C113.641 4.62923 113.601 4.94134 113.543 5.27295C115.435 2.93216 117.347 1.91782 117.542 1.82028C117.756 1.70324 118.361 1.2936 118.634 1.19607C116.586 1.76176 115.435 2.58104 114.206 2.95167C114.167 3.02969 114.05 3.20525 114.011 3.28328Z" fill="#F6F2EE"/>
<path d="M124.064 4.10313C120.923 2.34754 119.304 4.57129 119.304 4.5908L119.285 4.62981C118.173 5.62464 117.061 7.00961 116.593 8.43359C117.705 6.0928 121.04 3.16681 122.893 4.06412C127.302 6.17083 127.536 4.86389 128.726 4.04461C127.868 4.55178 127.146 5.81971 124.064 4.10313Z" fill="#EBE7E3"/>
<path d="M128.437 4.18551C126.369 5.0438 124.984 3.36623 122.916 2.13732C122.838 2.0983 122.741 2.05929 122.643 2.02028C121.2 1.29853 118.761 5.12183 118.781 5.12183C119.249 4.77071 120.946 2.35189 124.087 4.10748C127.169 5.82406 127.617 4.84873 128.456 4.26354C128.495 4.24403 128.768 4.04896 128.768 4.04896C128.768 4.04896 128.476 4.1465 128.437 4.18551Z" fill="#FFFBF7"/>
<path d="M118.305 5.35119C116.51 6.71665 113.818 7.28234 113.272 6.98974C113.018 9.68165 112.433 13.1538 113.038 17.0942C113.291 18.8107 113.642 20.6444 113.935 22.439C113.194 16.665 113.038 9.74017 118.305 5.35119Z" fill="#EFECE8"/>
<path d="M115.705 1.15855C114.73 1.54868 114.476 2.1924 114.086 2.71907C113.852 3.03118 113.676 3.12871 113.462 3.16772C113.618 3.12871 113.794 3.0897 113.989 3.05068C114.535 2.91414 115.003 2.71907 115.549 2.46549C116.056 2.25091 116.602 1.99733 117.324 1.70473C117.734 1.54868 118.573 1.23657 119.021 1.11953C119.47 1.00249 120.66 0.78792 120.718 0.78792C120.718 0.78792 121.167 0.7294 121.323 0.709894C121.265 0.690387 116.329 0.96348 115.705 1.15855Z" fill="#EFECE8"/>
<path d="M128.308 53.9156C128.269 54.0131 128.23 54.1107 128.172 54.1887C127.996 54.5203 127.821 54.8324 127.606 55.125C129.245 54.5983 129.986 53.662 130.454 52.16C128.718 53.9741 128.308 53.9156 128.308 53.9156Z" fill="#D2CFCB"/>
<path d="M124.509 54.3992C123.202 53.8335 122.149 54.9454 121.486 55.6281C123.807 56.4279 126.402 55.7842 127.611 55.1014C127.806 54.8284 128.001 54.5163 128.177 54.1651C127.494 55.3355 125.758 54.9649 124.509 54.3992Z" fill="#DEDBD7"/>
<path d="M120.482 52.4602C121.145 51.1533 121.496 48.793 121.301 47.4666C121.087 50.295 119.721 52.0116 118.18 52.3042C117.907 52.3432 117.634 52.3627 117.38 52.3237C116.951 52.2652 116.542 52.1091 116.132 51.8165C116.073 51.7775 115.995 51.719 115.937 51.6605C114.767 51.3094 113.83 50.3145 113.538 49.1051C113.538 49.0856 113.538 49.0856 113.538 49.0661C113.557 49.2612 113.577 49.4562 113.596 49.6513V49.6903C113.674 50.2755 113.791 50.8412 113.967 51.3679C115.254 53.7477 118.98 55.4448 120.482 52.4602Z" fill="#EBE7E3"/>
<path d="M118.174 52.3026C117.901 52.3416 117.628 52.3611 117.374 52.3221C116.945 52.2636 116.535 52.1076 116.126 51.815C115.814 51.6004 115.56 51.3273 115.345 51.0152C114.292 49.9228 113.707 47.9526 113.609 46.6262V46.5872C113.57 46.9383 113.531 47.3479 113.531 47.7381C113.492 48.5378 113.531 49.3181 113.648 50.0594C113.648 50.0789 113.648 50.0789 113.648 50.0984C114.819 52.3221 118.076 54.5459 120.241 50.8006C119.676 51.6589 118.954 52.1661 118.174 52.3026Z" fill="#F2EFEA"/>
<path d="M132.314 5.13645C130.285 1.41069 130.207 2.11293 128.939 1.89836C127.223 1.99589 125.311 3.18579 122.892 2.15194C126.286 4.18063 129.134 -0.188847 132.353 5.23399L132.392 5.31201C132.372 5.29251 132.372 5.273 132.353 5.25349C132.353 5.17547 132.333 5.13645 132.314 5.13645Z" fill="#E7E4E0"/>
<path d="M117.613 55.0557C118.471 54.529 119.193 53.7682 119.778 52.9099C118.159 54.3924 114.668 53.9048 113.653 50.062C113.868 51.3689 114.317 52.5393 115.155 53.4561C115.155 53.4561 115.409 53.7292 115.428 53.7292C116.053 54.3924 116.833 54.8021 117.613 55.0557Z" fill="#CCC9C6"/>
<path d="M123.667 0.12839C122.418 -0.339769 119.122 0.655068 116.995 0.869641C116.449 0.92816 116.04 1.02569 115.708 1.14273C116.976 0.869641 117.054 1.14273 120.741 0.733094C120.76 0.733094 121.228 0.694081 121.345 0.674574C122.165 0.616055 122.984 0.674575 123.667 1.0452C124.505 1.49385 125.305 1.68892 126.086 1.76694C127.041 1.86448 127.939 1.80596 128.816 1.84497C127.373 1.51336 124.896 0.577042 123.667 0.12839Z" fill="#F2EFEA"/>
<path d="M126.076 1.77155L125.978 1.83007C124.613 2.57132 123.325 2.22021 122.506 1.9081C122.642 1.98613 122.779 2.06415 122.915 2.14218C125.334 3.17603 127.246 1.98613 128.963 1.88859C128.924 1.88859 128.865 1.86909 128.826 1.84958C127.929 1.81057 127.031 1.86909 126.076 1.77155Z" fill="#EBE7E3"/>
<path d="M128.755 43.8406C127.195 36.9547 123.801 32.4682 120.816 28.801C118.28 25.6799 116.895 22.3248 116.251 19.2818C116.31 19.984 116.369 20.7058 116.427 21.447C117.012 25.6799 118.573 30.6931 123.215 36.3695C127.409 41.5388 128.307 42.241 128.755 43.8406Z" fill="#FFFBF7"/>
<path d="M132.446 5.37712L132.485 5.49416C132.504 5.51367 132.777 6.17689 132.777 6.21591C133.558 8.04953 132.758 9.57104 132.602 9.82463C133.733 13.8235 132.543 18.388 130.71 22.5429C129.91 24.357 129.949 25.9956 129.715 27.1465V27.127C131.236 24.318 132.621 21.6261 133.05 20.4167C133.089 20.2802 133.129 20.1631 133.187 20.0266C134.65 16.2618 135.625 11.2876 133.109 6.66456C133.011 6.43048 132.66 5.74775 132.446 5.37712Z" fill="#EBE7E3"/>
<path d="M128.733 4.02731C129.845 4.8856 130.625 5.89994 131.288 6.89478C131.054 5.31474 130.664 3.73471 129.338 3.87125C129.162 3.89076 129.006 3.91027 128.85 3.98829C128.85 3.98829 128.83 3.96879 128.733 4.02731Z" fill="#DEDBD7"/>
<path d="M132.84 6.17207C132.821 6.15256 132.04 5.02118 131.611 4.55302C131.123 4.02634 130.421 3.71424 129.797 3.73374C129.231 3.75325 128.997 3.9093 128.822 3.98733C128.802 4.00683 128.763 4.02634 128.744 4.02634C130.655 3.48016 131.006 5.31378 131.299 6.89381C131.904 7.81062 132.352 8.78595 132.625 9.80029C132.723 9.60523 133.542 7.96667 132.84 6.17207Z" fill="#CCC9C6"/>
<path d="M121.487 55.6421C122.307 54.9594 122.989 54.2376 123.867 54.2571C123.243 54.2376 120.902 54.7253 120.356 55.1154C120.727 55.33 121.097 55.5055 121.487 55.6421Z" fill="#D2CFCB"/>
<path d="M129.473 48.5102C129.453 47.8665 129.375 47.2228 129.258 46.6181C129.024 45.3891 128.595 44.2578 127.932 43.3214C125.494 39.8883 119.642 33.5486 118.14 28.6135C118.588 31.715 117.828 35.4408 119.076 37.2549C119.505 37.8011 119.915 38.3278 120.285 38.8544C123.25 42.4046 126.723 44.4528 126.606 49.505C126.547 52.1774 125.65 53.1333 124.343 54.3622C124.401 54.3817 124.44 54.4012 124.499 54.4207C125.767 54.9669 127.483 55.3375 128.166 54.2061C129.063 52.4505 129.571 50.851 129.473 48.5102Z" fill="#EFECE8"/>
<path d="M126.844 49.9165C127.624 43.4403 123.898 39.9681 120.329 35.8913C119.919 35.4231 118.729 34.9159 119.197 35.9888C121.206 39.1489 122.552 42.2114 122.864 43.4988C124.737 51.0284 122.689 53.4082 120.368 55.1248C120.914 54.7346 123.255 54.2275 123.879 54.2665C124.035 54.2665 124.191 54.3055 124.366 54.364C125.439 53.3692 126.181 52.8425 126.59 51.2429C126.649 51.0284 126.707 50.7748 126.766 50.5017C126.766 50.3066 126.805 50.1311 126.844 49.9165Z" fill="#E7E4E0"/>
<path d="M124.089 45.1921C123.211 41.72 121.163 36.2776 117.495 31.5375C117.437 31.7131 117.125 32.7274 116.852 33.4882C117.086 33.9173 117.3 34.2685 117.456 34.5415C117.651 34.9122 117.768 35.1658 117.924 35.5169C118.295 36.3166 118.627 37.0579 118.783 37.37C120.811 41.4664 121.299 45.2507 121.299 47.4939C121.455 50.3224 120.031 53.541 117.612 55.0625C118.724 55.5306 119.563 55.2771 120.363 55.1405C122.333 54.3993 125.961 52.7217 124.089 45.1921Z" fill="#F2EFEA"/>
<path d="M119.475 3.59946C118.344 4.14565 117.369 4.94541 116.569 5.86222C115.75 6.77903 115.106 7.83239 114.657 8.96377C113.76 11.246 113.701 13.7624 114.092 16.1812C114.462 18.6195 115.34 20.9603 115.828 23.4377C116.081 24.6666 116.218 25.9345 116.179 27.2024C116.14 28.4704 115.906 29.7188 115.535 30.9087C115.769 29.6798 115.906 28.4314 115.847 27.2024C115.808 25.9735 115.594 24.7446 115.301 23.5547C115.008 22.3648 114.638 21.1749 114.287 19.9655C113.935 18.7561 113.604 17.5467 113.409 16.2787C113.214 15.0303 113.136 13.7429 113.253 12.475C113.311 11.8312 113.409 11.207 113.565 10.5828C113.721 9.95861 113.916 9.3539 114.17 8.76871C114.677 7.59831 115.418 6.52545 116.315 5.62815C117.232 4.75035 118.305 4.0091 119.475 3.59946Z" fill="#CCC9C6"/>
<path d="M116.928 33.3892C117.181 32.7259 117.338 32.0237 117.416 31.3215C117.474 30.6192 117.494 29.917 117.435 29.2147C117.357 27.8103 117.142 26.4058 116.928 25.0013C116.733 23.5968 116.479 22.1924 116.304 20.7879C116.109 19.3834 116.031 17.9594 115.894 16.555L117.181 24.9623C117.396 26.3668 117.591 27.7908 117.63 29.2147C117.65 29.9365 117.611 30.6387 117.533 31.3605C117.435 32.0627 117.24 32.7454 116.928 33.3892Z" fill="#CCC9C6"/>
<path d="M113.399 4.6104C113.126 5.50771 112.872 6.40501 112.697 7.32182C112.502 8.23863 112.365 9.15544 112.267 10.0918C112.072 11.9449 112.072 13.8175 112.267 15.6706C112.443 17.5238 112.872 19.3379 113.34 21.152C113.574 22.0493 113.809 22.9661 114.023 23.8829C114.218 24.7997 114.394 25.736 114.374 26.6724C114.335 25.736 114.121 24.8192 113.867 23.9219C113.633 23.0246 113.36 22.1273 113.106 21.23C112.58 19.4354 112.15 17.6018 111.955 15.7292C111.858 14.7928 111.819 13.8565 111.819 12.9007C111.838 11.9644 111.877 11.0281 111.994 10.0918C112.111 9.15544 112.287 8.23863 112.521 7.32182C112.775 6.38551 113.048 5.4882 113.399 4.6104Z" fill="#CCC9C6"/>
<path d="M111.647 5.37998C111.238 6.16025 110.965 6.99903 110.731 7.83781C110.497 8.6766 110.34 9.55439 110.223 10.4127C109.989 12.1488 109.97 13.9044 110.145 15.6405C110.321 17.3765 110.75 19.0931 111.433 20.6732C111.784 21.4729 112.194 22.2532 112.584 23.0335C112.974 23.8137 113.423 24.5745 113.832 25.3547C113.559 25.0036 113.286 24.6525 113.032 24.3014C112.779 23.9308 112.545 23.5601 112.311 23.1895C112.096 22.7994 111.882 22.4287 111.667 22.0191C111.472 21.629 111.277 21.2193 111.101 20.8097C110.399 19.1711 109.989 17.4156 109.833 15.66C109.658 13.8849 109.755 12.1098 110.028 10.3737C110.165 9.49587 110.36 8.63758 110.633 7.7988C110.867 6.97952 111.179 6.14074 111.647 5.37998Z" fill="#DEDBD7"/>
<path d="M113.556 5.27124C114.355 4.04232 115.467 3.04749 116.677 2.2087C117.281 1.79907 117.945 1.44795 118.647 1.19436C118.9 1.11633 119.154 1.03831 119.427 0.999295C119.525 0.979788 119.642 0.979788 119.759 0.960282C119.954 0.960282 120.149 0.940775 120.344 0.979789C120.539 0.999295 120.734 1.05781 120.89 1.11633C122.295 1.62351 123.524 2.46229 124.752 3.22305C125.377 3.59367 126.001 3.9643 126.684 4.17887C127.015 4.29591 127.386 4.35443 127.737 4.33492C128.088 4.31542 128.439 4.19838 128.751 4.02282C128.459 4.23739 128.108 4.37394 127.737 4.43246C127.366 4.49098 126.996 4.43246 126.625 4.35443C125.903 4.15936 125.26 3.80824 124.616 3.45713C123.348 2.73538 122.139 1.8966 120.773 1.44795C120.598 1.38943 120.441 1.33091 120.266 1.3114C120.09 1.27239 119.934 1.29189 119.759 1.29189C119.408 1.3114 119.076 1.38943 118.725 1.50647C118.042 1.72104 117.418 2.07216 116.794 2.44278C116.189 2.81341 115.604 3.26206 115.058 3.73022C114.511 4.17887 114.004 4.70555 113.556 5.27124Z" fill="#CCC9C6"/>
<path d="M128.733 4.02756C129.026 3.79348 129.397 3.63743 129.787 3.59842C130.177 3.57891 130.567 3.65694 130.918 3.8325C131.542 4.1446 131.991 4.59325 132.362 5.21746C132.381 5.23697 132.401 5.29549 132.44 5.37352C132.459 5.41253 132.479 5.45154 132.498 5.47105C132.888 6.19279 133.142 6.89503 133.161 7.65579C133.2 8.41655 133.025 9.1773 132.615 9.80151C132.947 9.1578 133.064 8.39704 133.005 7.67529C132.927 6.93404 132.693 6.23181 132.323 5.60759C131.952 4.98338 131.445 4.41769 130.821 4.06657C130.508 3.89102 130.157 3.79348 129.806 3.77398C129.436 3.75447 129.085 3.852 128.733 4.02756Z" fill="#BBB8B5"/>
<path d="M117.75 31.3755C118.101 32.9945 118.628 34.5551 119.389 36.0181C119.759 36.7593 120.169 37.4615 120.637 38.1443L121.339 39.1586L121.69 39.6658C121.807 39.8414 121.905 40.0169 122.022 40.1925C122.471 40.8947 122.861 41.636 123.212 42.3772C123.563 43.138 123.856 43.9182 124.07 44.718C124.285 45.5178 124.46 46.337 124.519 47.1563C124.597 47.9756 124.616 48.3267 124.577 49.146C124.558 48.3267 124.519 47.9756 124.402 47.1563C124.285 46.337 124.129 45.5373 123.875 44.757C123.621 43.9767 123.309 43.216 122.978 42.4747C122.607 41.7335 122.237 41.0117 121.788 40.329C121.671 40.1535 121.573 39.9779 121.456 39.8023L121.105 39.2952C120.871 38.9636 120.637 38.6124 120.403 38.2808C119.935 37.5981 119.525 36.8764 119.154 36.1156C118.472 34.6331 117.984 33.014 117.75 31.3755Z" fill="#CCC9C6"/>
<path d="M117.297 26.9404C117.414 28.0522 117.707 29.1446 118.038 30.2175C118.37 31.2903 118.779 32.3242 119.248 33.3385C120.203 35.3672 121.393 37.2789 122.973 38.8589C123.363 39.249 123.773 39.6587 124.144 40.0878C124.514 40.517 124.846 40.9851 125.158 41.4533C125.763 42.4091 126.25 43.4429 126.543 44.5353C127.05 46.3689 127.128 48.3001 126.797 50.1532C126.738 50.5043 126.66 50.875 126.563 51.2261C126.777 50.1142 126.894 49.0023 126.855 47.8904C126.816 46.7786 126.66 45.6667 126.328 44.5938C125.997 43.521 125.548 42.5066 124.943 41.5703C124.631 41.1021 124.3 40.6535 123.949 40.2439C123.578 39.8147 123.188 39.4441 122.778 39.0345C121.198 37.3959 119.969 35.4647 119.072 33.4165C118.623 32.3827 118.233 31.3293 117.921 30.237C117.765 29.6908 117.628 29.1446 117.531 28.5984C117.414 28.0522 117.316 27.4865 117.297 26.9404Z" fill="#D2CFCB"/>
<path d="M130.668 24.0242C131.254 22.8928 131.741 21.7029 132.151 20.513C132.58 19.3231 132.912 18.0942 133.204 16.8652C133.477 15.6363 133.672 14.3879 133.75 13.12C133.79 12.4958 133.79 11.8521 133.711 11.2278L133.672 10.7597L133.575 10.2915L133.536 10.0574C133.516 9.97942 133.477 9.90139 133.458 9.82337L133.302 9.37472C133.907 10.5061 134.043 11.8521 134.043 13.12C134.043 13.7637 134.004 14.4074 133.907 15.0511C133.829 15.6949 133.711 16.3191 133.575 16.9433C133.302 18.1917 132.931 19.4206 132.444 20.6105C131.995 21.8199 131.41 22.9708 130.668 24.0242Z" fill="#FFFBF7"/>
<path d="M122.312 48.2932C122.371 45.6988 121.883 43.1435 121.064 40.7247C120.244 38.2863 119.113 35.9845 117.787 33.7803C117.123 32.6684 116.441 31.5761 115.797 30.4447C115.153 29.3133 114.529 28.2014 113.924 27.0505C112.734 24.7683 111.603 22.4275 110.764 19.9696C111.291 21.1595 111.837 22.3104 112.461 23.4418C113.046 24.5927 113.671 25.7241 114.314 26.836C115.582 29.0792 116.909 31.2835 118.255 33.4877C119.581 35.7115 120.713 38.0718 121.473 40.5686C121.844 41.817 122.137 43.0849 122.293 44.3724C122.41 45.6988 122.449 47.0058 122.312 48.2932Z" fill="#E1DEDA"/>
<g opacity="0.43">
<g opacity="0.43">
<g opacity="0.43">
<g opacity="0.43">
<g opacity="0.43">
<path opacity="0.43" d="M112.46 23.4668C113.045 24.6177 113.67 25.7491 114.313 26.8609C114.567 27.3291 114.84 27.7778 115.094 28.2459C115.854 29.4553 116.713 30.7037 117.649 31.9327C121.94 37.5115 124.632 43.1685 122.701 48.6498C122.35 49.6447 122.526 50.1128 122.974 50.1323H123.033C124.262 50.0738 127.285 46.9723 127.324 42.2907V42.0566C127.285 38.838 125.861 34.9172 121.531 30.7428C114.782 25.6125 110.763 19.9751 110.763 19.9751C111.29 21.165 111.856 22.3159 112.46 23.4668Z" fill="url(#paint1_linear_261_11128)"/>
</g>
</g>
</g>
</g>
</g>
<path d="M117.91 35.5094C117.754 35.1583 117.637 34.9047 117.442 34.534C116.466 36.7968 114.379 41.4199 113.716 45.7698C113.697 45.9259 113.521 46.9207 113.521 47.7595C113.541 47.9156 113.56 48.0521 113.58 48.1887C114.165 50.7245 115.082 51.1537 115.472 51.2317C115.238 50.9391 115.043 50.6075 114.925 50.2369C114.282 48.2472 114.418 44.3459 117.91 35.5094Z" fill="#F2EFEA"/>
<path d="M130.027 43.6773C129.286 41.8632 127.823 38.9957 125.56 34.8408L125.541 34.8213L124.078 32.4025C121.288 27.3698 118.265 23.0003 116.626 18.8844C116.275 17.7726 115.983 16.6802 115.807 15.6268C115.807 15.6268 115.807 15.6268 115.807 15.6073V15.5878C115.963 16.6022 115.924 17.6555 116.256 19.2941C116.899 22.3371 118.265 25.6922 120.82 28.8133C123.805 32.4805 127.199 36.967 128.779 43.8529C128.974 44.7307 129.286 46.7203 129.403 48.5345C129.54 50.7387 129.13 52.2797 128.35 53.9183C128.369 53.9378 128.838 54.5815 130.223 52.6503C130.34 52.4748 130.418 52.3187 130.496 52.1432C130.925 50.7387 131.646 47.8907 130.027 43.6773Z" fill="#FFFBF7"/>
<path d="M110.646 10.339C110.646 11.4704 111.563 12.4067 112.714 12.4067C113.846 12.4067 114.782 11.4899 114.782 10.339C114.782 9.20765 113.865 8.27134 112.714 8.27134C111.563 8.27134 110.646 9.20765 110.646 10.339ZM112.987 9.3637C112.773 9.28568 112.656 9.09061 112.656 8.87604C112.675 8.87604 112.695 8.87604 112.714 8.87604C113.046 8.87604 113.358 8.99308 113.611 9.18815C113.514 9.3247 113.358 9.40272 113.182 9.40272C113.104 9.40272 113.046 9.38321 112.987 9.3637ZM111.329 9.81236C111.446 9.48075 111.7 9.22716 111.992 9.0516C112.031 9.12963 112.07 9.22716 112.07 9.3247C112.07 9.6173 111.836 9.85137 111.544 9.85137C111.466 9.85137 111.388 9.83187 111.329 9.81236ZM112.383 10.8657L112.109 10.3585C112.07 10.3 112.09 10.2415 112.129 10.183L112.519 9.77335C112.558 9.73433 112.636 9.71482 112.695 9.73433L113.202 9.98792C113.26 10.0074 113.299 10.0854 113.28 10.144L113.202 10.7097C113.202 10.7682 113.143 10.8267 113.085 10.8267L112.519 10.9242H112.5C112.461 10.9437 112.422 10.9047 112.383 10.8657ZM113.709 10.4366C113.709 10.183 113.885 9.96842 114.119 9.9099C114.158 10.0464 114.177 10.183 114.177 10.3195C114.177 10.5341 114.138 10.7292 114.041 10.9242C113.846 10.8657 113.709 10.6706 113.709 10.4366ZM111.271 10.6902C111.31 10.6707 111.349 10.6706 111.407 10.6706C111.7 10.6706 111.934 10.9047 111.934 11.1973C111.934 11.3144 111.895 11.4314 111.817 11.5094C111.563 11.3144 111.368 11.0218 111.271 10.6902ZM112.578 11.802C112.617 11.5484 112.831 11.3339 113.104 11.3339C113.28 11.3339 113.436 11.4314 113.533 11.5484C113.299 11.7045 113.007 11.802 112.714 11.802C112.656 11.802 112.617 11.802 112.578 11.802Z" fill="url(#paint2_linear_261_11128)"/>
<path d="M112.948 6.59357L113.416 7.41284L114.236 6.94469L113.768 6.12541L112.948 6.59357Z" fill="url(#paint3_linear_261_11128)"/>
<path d="M111.778 14.0062L112.461 14.6694L113.124 13.9867L112.441 13.3235L111.778 14.0062Z" fill="url(#paint4_linear_261_11128)"/>
<path d="M125.627 48.6692C125.549 48.7667 125.51 48.9228 125.491 49.1373C125.471 49.3519 125.471 49.5275 125.491 49.7225C125.413 49.6445 125.257 49.6055 125.179 49.664C125.198 49.742 125.237 49.8201 125.237 49.9176C125.237 49.9761 125.237 50.0542 125.237 50.1127C125.101 50.2102 124.925 50.3663 124.906 50.6198C124.906 50.6589 124.906 50.6979 124.906 50.7369C124.847 50.5613 124.75 50.3858 124.711 50.2492C124.672 50.1127 124.594 49.9956 124.516 49.9176C124.496 49.8981 124.457 49.8981 124.438 49.8786C124.418 49.9176 124.418 49.9761 124.399 50.0151C124.399 50.0346 124.399 50.0541 124.379 50.0932C124.32 50.0346 124.281 49.9956 124.242 49.9566C124.203 49.9371 124.164 49.9176 124.125 49.9176C124.028 49.8981 124.008 49.9176 124.008 50.0542C124.008 50.0932 124.008 50.1517 124.008 50.2102C123.794 50.1322 123.696 50.2882 123.696 50.3077C123.735 50.3467 123.774 50.3663 123.794 50.4443C123.794 50.5028 123.774 50.6003 123.755 50.6784C123.696 50.8344 123.735 51.1075 123.852 51.205C123.93 51.2831 124.086 51.2636 124.184 51.166C124.301 51.049 124.34 50.6979 124.281 50.5808C124.242 50.5223 124.203 50.5223 124.125 50.5613C124.145 50.6003 124.184 50.6589 124.184 50.6979C124.184 50.7564 124.145 50.8344 124.086 50.8929C124.028 50.9515 123.969 50.9515 123.911 50.9124C123.833 50.8149 123.833 50.6589 123.911 50.5223C123.93 50.4833 123.989 50.4053 124.008 50.3858C124.125 50.3077 124.262 50.2687 124.34 50.3468C124.438 50.4053 124.496 50.5223 124.496 50.6784C124.516 50.9515 124.379 51.4001 124.379 51.6732C124.379 51.9268 124.574 52.0243 124.789 52.0828C124.886 52.1023 125.12 52.1218 125.179 52.1414C125.432 52.2389 125.647 52.2194 125.783 51.9853C125.92 51.7512 125.998 51.2831 126.154 51.049C126.232 50.9124 126.349 50.8344 126.447 50.8149C126.544 50.7954 126.661 50.8734 126.72 51.01C126.739 51.049 126.739 51.127 126.739 51.1855C126.739 51.3416 126.661 51.4976 126.544 51.5366C126.486 51.5562 126.427 51.5366 126.408 51.4391C126.388 51.3806 126.388 51.2831 126.408 51.2245C126.427 51.1855 126.486 51.166 126.525 51.127C126.486 51.049 126.447 51.0295 126.388 51.0685C126.271 51.127 126.154 51.4586 126.213 51.6147C126.252 51.7512 126.388 51.8293 126.486 51.8097C126.642 51.7707 126.778 51.5562 126.798 51.3806C126.817 51.3026 126.837 51.205 126.856 51.1465C126.895 51.088 126.934 51.088 126.993 51.0685C126.993 51.0685 126.993 51.049 127.012 51.049C126.973 50.8734 126.856 50.8929 126.759 50.8539C126.778 50.7954 126.798 50.7564 126.817 50.7174C126.876 50.6003 126.876 50.5613 126.778 50.5418C126.739 50.5223 126.7 50.5223 126.642 50.5223C126.583 50.5223 126.525 50.5613 126.466 50.5808C126.486 50.5418 126.486 50.5223 126.486 50.5028C126.486 50.4638 126.505 50.4053 126.505 50.3663C126.486 50.3663 126.486 50.3663 126.466 50.3663C126.447 50.3663 126.427 50.3663 126.408 50.3663C126.31 50.3858 126.252 50.4443 126.135 50.5223C126.018 50.5808 125.881 50.7564 125.764 50.9319C125.783 50.8734 125.803 50.8149 125.822 50.7564C125.901 50.5613 125.881 50.4443 125.803 50.3468L125.725 50.2102C125.725 50.1907 125.744 50.1712 125.744 50.1322C125.783 49.9956 125.842 49.8981 125.901 49.7811C125.881 49.703 125.725 49.625 125.627 49.664C125.686 49.4885 125.725 49.2934 125.725 49.0788C125.725 48.8838 125.666 48.7472 125.627 48.6497C125.627 48.6302 125.608 48.6302 125.588 48.6302C125.666 48.6302 125.647 48.6497 125.627 48.6692ZM121.882 51.0685C121.843 50.9515 121.824 50.8344 121.785 50.7174C121.629 50.7564 121.531 50.8734 121.473 50.9905C121.414 51.1075 121.375 51.2441 121.316 51.3806C121.258 51.3221 121.199 51.2636 121.121 51.2245C120.926 51.4586 120.887 51.7122 121.063 51.9853C121.219 52.2194 121.375 52.434 121.551 52.6485C121.746 52.8826 121.941 53.1167 121.941 53.4483C121.96 53.7409 121.804 53.9945 121.551 54.2091C121.355 54.3846 121.121 54.4431 120.848 54.4431C120.848 54.4431 120.809 54.5212 120.809 54.5407C120.829 54.6577 121.043 54.5992 121.141 54.5797C121.921 54.3846 122.428 53.7799 122.194 53.1752C122.097 52.9411 121.804 52.551 121.687 52.3169C121.59 52.1218 121.492 51.9268 121.551 51.7122C121.609 51.4391 121.863 51.1855 122.194 51.244C122.389 51.2831 122.526 51.4196 122.526 51.6147C122.526 51.7317 122.428 51.8878 122.311 51.9463C122.233 51.9853 122.155 51.9853 122.097 51.9268C122.038 51.8683 122.038 51.8097 122.077 51.7317C122.077 51.7122 122.077 51.7122 122.097 51.6927C121.98 51.6927 121.824 51.8683 121.843 52.0048C121.882 52.2389 122.389 52.4144 122.623 52.2584C122.838 52.1218 122.955 51.7902 122.877 51.5366C122.799 51.2831 122.682 51.1465 122.448 51.0685C122.428 51.049 122.409 51.049 122.389 51.0295C122.428 50.9124 122.467 50.7954 122.526 50.6979C122.506 50.6979 122.487 50.6979 122.487 50.6979C122.175 50.6784 122.019 50.8539 121.882 51.0685ZM123.677 52.0048C123.521 52.0633 123.345 52.2584 123.306 52.3754C123.384 52.3559 123.443 52.3364 123.521 52.3169C123.657 52.2974 123.755 52.3754 123.774 52.4925C123.794 52.6095 123.716 52.8046 123.599 52.9021C123.423 53.0582 123.228 53.1947 123.033 53.3313C122.818 53.4873 122.721 53.6824 122.721 53.9165C122.74 54.2091 122.994 54.4236 123.033 54.4626C122.643 54.9503 122.194 55.3599 121.726 55.7306C121.863 55.7696 121.98 55.8086 122.116 55.8281C122.526 55.477 122.936 55.1064 123.326 54.6772C123.657 54.8333 124.067 54.8528 124.379 54.6187C124.594 54.4626 124.672 54.2676 124.769 54.0725C124.828 53.9165 124.886 53.7604 124.925 53.6043C125.003 53.3898 125.159 53.2142 125.315 53.1557C125.471 53.0972 125.549 53.1752 125.569 53.3703C125.569 53.3898 125.569 53.4288 125.569 53.4678C125.666 53.3313 125.705 53.2142 125.744 53.0777C125.803 52.8436 125.744 52.707 125.647 52.6095C125.53 52.4925 125.335 52.4925 125.14 52.6485C125.062 52.707 124.964 52.8241 124.886 52.9216C124.789 53.0582 124.711 53.2142 124.652 53.3508C124.418 53.6629 124.223 53.8579 124.106 53.975C124.242 53.7604 124.359 53.5263 124.457 53.2922C124.535 53.0972 124.613 52.8826 124.672 52.6875C124.672 52.668 124.691 52.629 124.691 52.59C124.652 52.629 124.633 52.629 124.613 52.6485C124.34 52.9801 124.028 53.2922 123.716 53.5848C123.677 53.6043 123.657 53.6434 123.638 53.6824C123.657 53.5263 123.774 53.3118 123.891 53.1362C123.93 53.0972 123.989 53.0387 124.028 52.9996C124.164 52.8436 124.262 52.668 124.34 52.4925C124.438 52.2584 124.359 52.1218 124.223 52.0243C124.145 51.9658 124.067 51.9463 123.969 51.9463C123.872 51.9463 123.774 51.9658 123.677 52.0048ZM120.536 52.5705C120.4 52.5705 120.127 52.551 120.127 52.5705C120.887 52.9606 121.102 53.4678 121.219 54.1115C121.375 54.0335 121.551 53.5458 121.512 53.2922C121.473 52.9411 121.277 52.6875 120.965 52.434C120.965 52.473 120.946 52.512 120.946 52.551C120.77 52.473 120.653 52.2974 120.439 52.2584C120.458 52.3754 120.497 52.473 120.536 52.5705ZM127.324 53.4873C127.305 53.4873 127.285 53.4678 127.266 53.4678C127.129 53.3898 126.583 53.2727 126.291 53.5653C126.096 53.7799 125.862 54.3066 126.213 54.5407C126.291 54.5992 126.369 54.6577 126.505 54.5797C126.622 54.5212 126.7 54.4236 126.739 54.2871C126.759 54.2676 126.759 54.2481 126.759 54.2091C126.739 54.2286 126.72 54.2286 126.72 54.2481C126.603 54.3651 126.544 54.4041 126.486 54.3651C126.427 54.3261 126.388 54.131 126.447 54.014C126.622 53.7214 126.934 53.6043 127.09 53.7019C127.207 53.7799 127.246 53.936 127.149 54.1895C127.032 54.4821 126.837 54.6967 126.603 54.7943C126.388 54.8918 126.174 54.9113 125.959 54.9503C125.822 54.9698 125.705 54.9308 125.569 54.9113C125.393 54.8723 125.218 54.8333 125.023 54.8918C124.496 55.0478 123.891 55.516 123.54 56.0037C123.618 56.0037 123.677 56.0037 123.755 56.0037C123.852 55.8866 123.969 55.7696 124.106 55.672C124.516 55.3599 124.906 55.2039 125.276 55.2234C125.569 55.2429 125.842 55.3014 126.115 55.3014C126.291 55.3014 126.447 55.3209 126.622 55.2819C126.876 55.2429 127.11 55.0478 127.305 54.7162C127.246 54.6967 127.168 54.6967 127.11 54.6772C127.403 54.4236 127.617 54.1115 127.695 53.7214C127.578 53.7994 127.461 53.8774 127.344 53.936C127.422 53.7799 127.5 53.6239 127.539 53.4678C127.598 53.3118 127.578 53.1752 127.52 53.0972C127.481 53.2337 127.403 53.3508 127.324 53.4873ZM121.609 54.6187C121.453 54.7552 121.453 54.9698 121.59 55.1454C121.629 55.2039 121.687 55.2624 121.726 55.3014C121.863 55.1844 121.999 55.0673 122.136 54.9503C122.448 54.7162 122.526 54.4431 122.487 54.1505C122.467 54.0725 122.448 54.014 122.448 53.936C122.136 54.1895 121.863 54.4041 121.609 54.6187ZM120.244 54.6967C120.088 54.6967 119.951 54.6772 119.814 54.6577C119.814 54.6772 119.971 54.8138 120.068 54.8918C120.01 54.9503 119.931 55.0088 119.873 55.0478C120.536 55.0283 121.043 55.3404 121.551 55.6525C121.492 55.2429 120.907 54.6967 120.224 54.5992C120.224 54.6382 120.244 54.6577 120.244 54.6967ZM122.936 55.555C122.838 55.672 122.682 55.7891 122.545 55.9061C122.779 55.9451 123.014 55.9646 123.248 55.9842C123.267 55.9646 123.306 55.9646 123.326 55.9451C123.462 55.8476 123.56 55.7306 123.677 55.6135C123.755 55.5355 123.813 55.4185 123.891 55.3404C123.969 55.2429 124.047 55.1649 124.125 55.0673C123.638 55.0673 123.248 55.2039 122.936 55.555ZM125.452 55.5355C125.042 55.5745 124.574 55.7696 124.145 56.0037C124.847 55.9842 125.51 55.8671 126.096 55.7111C125.959 55.594 125.803 55.5355 125.569 55.5355C125.53 55.5355 125.491 55.5355 125.452 55.5355Z" fill="url(#paint5_linear_261_11128)"/>
<path d="M121.355 34.176C121.336 34.176 121.316 34.1955 121.316 34.215C121.316 34.332 121.355 34.4686 121.472 34.6637C121.609 34.8587 121.746 35.0148 121.902 35.1318C121.804 35.1513 121.707 35.3074 121.746 35.4049C121.863 35.4829 121.98 35.5415 122.097 35.639C122.331 35.8341 122.448 35.7365 122.467 35.639C122.467 35.6 122.428 35.561 122.389 35.4829C122.448 35.5219 122.487 35.561 122.545 35.561C122.643 35.5415 122.721 35.4829 122.643 35.3269C122.604 35.2489 122.526 35.1513 122.487 35.0733C122.448 34.9758 122.428 34.8977 122.389 34.8197C122.272 34.8197 122.155 34.9172 122.136 35.0538C122.038 34.8782 121.941 34.7027 121.804 34.5271C121.668 34.3515 121.531 34.2345 121.414 34.176H121.394H121.355ZM123.326 34.9368C123.345 35.1318 123.56 35.4634 123.774 35.717C123.677 35.5024 123.716 35.3854 123.794 35.2879C123.833 35.2489 123.813 35.1123 123.696 34.9758C123.657 34.9172 123.56 34.8197 123.482 34.8002C123.462 34.8002 123.443 34.8002 123.423 34.8002C123.345 34.7807 123.306 34.8587 123.326 34.9368ZM124.711 35.1318C124.672 35.1708 124.574 35.2488 124.535 35.5024C124.496 35.4439 124.379 35.3464 124.34 35.3074C124.32 35.3464 124.301 35.3659 124.281 35.4049C124.242 35.5219 124.262 35.678 124.34 35.8341C124.476 36.1071 124.652 36.3802 124.808 36.6533C125.101 37.141 125.393 37.6287 125.218 38.0578C125.257 38.0578 125.257 38.0578 125.276 38.0578C125.296 38.0578 125.296 38.0383 125.296 38.0383C125.51 37.8822 125.686 37.6287 125.51 37.3166C125.354 36.9849 124.906 36.5948 124.75 36.2632C124.652 36.0681 124.652 35.9121 124.711 35.7755C124.769 35.6585 124.945 35.6 125.12 35.6195C125.159 35.6195 125.276 35.678 125.315 35.717C125.491 35.8341 125.588 36.0096 125.569 36.1657C125.549 36.2437 125.471 36.2827 125.374 36.2632C125.296 36.2437 125.198 36.1657 125.159 36.1071C125.12 36.0486 125.14 35.9706 125.14 35.9121C125.003 35.8926 124.984 35.9121 124.964 36.0291C124.964 36.2047 125.159 36.4388 125.374 36.4973C125.569 36.5558 125.744 36.4583 125.783 36.3217C125.842 36.1266 125.783 35.9316 125.608 35.7755C125.53 35.6975 125.432 35.6195 125.413 35.5415C125.393 35.4634 125.413 35.4049 125.432 35.3464C125.432 35.3464 125.432 35.3269 125.413 35.3074C125.198 35.2098 125.14 35.3659 125.003 35.4439C124.964 35.3854 124.925 35.3269 124.906 35.2684C124.847 35.1708 124.828 35.1318 124.789 35.1318C124.769 35.0733 124.75 35.0928 124.711 35.1318ZM122.974 35.4049C122.935 35.4439 122.916 35.5024 122.955 35.5805C123.033 35.717 123.189 35.8536 123.345 35.9511C123.657 36.1072 123.95 36.3412 124.164 36.6338C124.203 36.6923 124.242 36.7314 124.262 36.7899C124.086 36.6143 123.872 36.4388 123.677 36.2632C123.462 36.0876 123.267 36.0096 123.092 36.0096C123.033 36.0096 123.013 36.0486 123.013 36.1071C123.013 36.2827 123.15 36.4583 123.326 36.6728C123.482 36.8484 123.618 37.063 123.794 37.258C123.755 37.219 123.716 37.1995 123.696 37.18C123.443 36.9849 123.228 36.7314 123.052 36.4583C122.974 36.3217 122.584 35.834 122.409 36.0876C122.35 36.1657 122.448 36.3412 122.623 36.4778C122.779 36.5948 122.955 36.6923 123.111 36.8094C123.111 37.0044 123.189 37.1215 123.423 37.297C123.56 37.3946 123.696 37.4726 123.833 37.5506C123.872 37.5701 123.93 37.6287 123.95 37.6677C124.008 37.8627 124.145 37.9603 124.281 38.0188C124.437 38.0968 124.574 38.0968 124.672 38.0968C124.769 38.0968 124.867 38.0383 124.925 37.9603C125.023 37.8432 125.081 37.5116 124.945 37.2385C124.906 37.1605 124.808 37.063 124.73 36.9849C124.672 36.9264 124.633 36.8874 124.594 36.8094C124.515 36.6533 124.418 36.4778 124.32 36.3217C124.164 36.1071 124.028 36.0291 123.872 36.0486C123.735 35.8731 123.618 35.7365 123.482 35.5805C123.345 35.4439 123.209 35.3659 123.111 35.3659C123.013 35.3854 122.994 35.3854 122.974 35.4049ZM121.902 36.8094C121.902 37.024 122.233 37.063 122.311 37.024C122.409 36.9849 122.487 36.9069 122.584 36.8679C122.662 36.8484 122.76 36.8679 122.877 36.8874C122.662 36.7509 122.331 36.5948 122.116 36.5948C121.98 36.5948 121.902 36.6533 121.902 36.8094ZM122.37 37.219C122.331 37.219 122.311 37.258 122.272 37.2775C122.311 37.3361 122.389 37.4531 122.448 37.4921C122.35 37.5116 122.272 37.5116 122.214 37.5506C122.155 37.5701 122.116 37.6091 122.077 37.6482C121.98 37.7262 121.999 37.7652 122.155 37.8627C122.214 37.9018 122.253 37.9408 122.331 37.9798C122.097 38.1358 122.194 38.3894 122.214 38.3894C122.292 38.3699 122.35 38.3504 122.409 38.3894C122.487 38.4284 122.565 38.5065 122.623 38.604C122.76 38.7795 122.955 38.8576 123.15 38.8186C123.287 38.7795 123.384 38.604 123.345 38.4089C123.306 38.1944 123.072 37.9798 122.916 37.9603C122.818 37.9603 122.799 37.9993 122.799 38.1163C122.857 38.1358 122.935 38.1163 122.994 38.1553C123.052 38.2139 123.111 38.3114 123.131 38.3894C123.15 38.487 123.111 38.565 123.033 38.5845C122.877 38.604 122.701 38.5065 122.604 38.3114C122.565 38.2529 122.526 38.1553 122.526 38.0968C122.526 37.9018 122.584 37.7457 122.721 37.7067C122.857 37.6482 123.013 37.6677 123.209 37.7652C123.521 37.9408 123.911 38.4089 124.223 38.604C124.515 38.7795 124.789 38.643 124.964 38.4284L124.984 38.4089C124.984 38.4089 124.984 38.3894 124.984 38.3504C124.535 38.487 124.086 38.1748 123.618 37.8432C123.365 37.6677 123.111 37.4921 122.838 37.3361C122.721 37.258 122.623 37.2385 122.506 37.2385C122.448 37.1995 122.409 37.1995 122.37 37.219ZM126.096 37.4336C125.861 37.5506 125.764 37.8822 125.978 38.3114C126.037 38.4089 126.096 38.526 126.174 38.6235C126.466 38.9941 126.778 39.2867 127.11 39.5793C127.305 39.7744 127.48 39.9694 127.676 40.184C128.144 40.7107 128.066 41.3349 128.085 41.3739C128.3 41.0228 128.475 40.6717 128.3 40.1255C128.183 39.7744 127.949 39.5403 127.715 39.3452C127.539 39.1892 127.344 39.0526 127.149 38.8966C126.895 38.7015 126.72 38.4089 126.72 38.1553C126.72 37.9213 126.856 37.8432 127.129 37.9213C127.168 37.9213 127.188 37.9408 127.246 37.9603C127.149 37.7652 126.973 37.6482 126.817 37.5506C126.642 37.4531 126.505 37.4141 126.369 37.4141C126.252 37.3751 126.174 37.4141 126.096 37.4336ZM125.705 38.8966C126.037 39.4428 126.31 40.0085 126.564 40.5742C126.7 40.8472 126.895 41.1203 127.071 41.3544C127.129 41.4519 127.266 41.4715 127.383 41.491C127.461 41.5105 127.5 41.53 127.559 41.608C128.144 42.6809 128.612 43.8122 128.982 44.9046C129.002 44.9436 129.002 45.0022 128.982 45.0217C128.826 45.3533 128.924 45.5874 129.08 45.8019C129.217 45.9775 129.47 46.3091 129.548 46.3091C129.568 46.114 129.587 45.8995 129.587 45.7044C129.587 45.5288 129.587 45.3338 129.529 45.1582C129.49 45.0607 129.392 45.0022 129.314 44.9241C129.256 44.8656 129.178 44.8266 129.158 44.7486C128.768 43.6757 128.3 42.5638 127.695 41.5105C127.637 41.3934 127.617 41.3349 127.656 41.2179C127.715 41.0423 127.656 40.8277 127.559 40.6327C127.285 40.145 126.895 39.7549 126.505 39.4233C126.271 39.2087 126.017 39.0331 125.764 38.8381C125.725 38.8186 125.705 38.7991 125.647 38.76C125.666 38.8186 125.686 38.8576 125.705 38.8966ZM124.633 39.1502C124.437 39.3062 124.32 39.5208 124.359 39.8719C124.379 40.106 124.535 40.4571 124.711 40.5546C124.711 40.4376 124.711 40.3401 124.73 40.2425C124.769 40.0475 124.906 39.9499 125.101 39.9695C125.257 39.989 125.491 40.2035 125.569 40.3986C125.705 40.7302 125.803 41.0423 125.9 41.3739C126.017 41.7446 126.232 41.9786 126.564 42.0567C126.817 42.1152 127.071 42.0762 127.305 41.9591C127.207 41.9006 127.11 41.8421 127.032 41.8031C126.759 41.647 126.583 41.3739 126.447 41.0423C126.271 40.6327 126.115 40.223 125.881 39.8524C125.725 39.5988 125.53 39.3647 125.335 39.1892C125.198 39.0721 125.062 39.0136 124.945 39.0136C124.828 39.0526 124.711 39.0917 124.633 39.1502ZM122.545 41.7445C122.37 41.725 122.214 41.686 122.019 41.6665C121.96 41.8811 122.058 42.0567 122.175 42.2322C122.292 42.3883 122.448 42.5053 122.584 42.6614C122.487 42.7004 122.37 42.7589 122.253 42.7979C122.428 43.188 122.721 43.3831 123.209 43.3246C123.599 43.2856 123.969 43.188 124.34 43.11C124.769 43.0125 125.179 42.9149 125.588 43.0905C125.978 43.2466 126.213 43.5977 126.33 44.0463C126.427 44.3975 126.369 44.7291 126.213 45.0802C126.213 45.0997 126.291 45.1582 126.31 45.1777C126.349 45.0412 126.505 44.8071 126.544 44.6705C126.759 43.5587 126.017 42.7784 125.101 42.7199C124.75 42.6809 124.379 42.7394 124.008 42.7394C123.716 42.7394 123.404 42.7394 123.15 42.5638C122.838 42.3297 122.662 41.8616 122.935 41.4715C123.092 41.2569 123.365 41.1594 123.618 41.2764C123.774 41.3544 123.911 41.569 123.911 41.7641C123.911 41.8811 123.872 41.9981 123.774 42.0371C123.677 42.0762 123.579 42.0371 123.521 41.9396C123.501 41.9201 123.501 41.9201 123.482 41.9006C123.423 42.0567 123.54 42.3493 123.716 42.4078C124.028 42.5053 124.32 42.1152 124.262 41.725C124.203 41.3739 124.047 41.0813 123.735 40.9448C123.404 40.7887 123.111 40.8472 122.857 41.1008C122.838 41.1203 122.799 41.1398 122.779 41.1789C122.643 41.0423 122.545 40.9253 122.428 40.8082C122.214 41.1008 122.331 41.4129 122.545 41.7445ZM124.281 42.3297C124.633 42.3102 124.984 41.8811 124.828 41.4715C124.711 41.1789 124.359 40.9253 124.086 40.7692C124.496 41.2569 124.672 41.8031 124.281 42.3297ZM128.709 42.954C128.826 43.1685 128.904 43.4026 129.002 43.6172C129.334 43.4221 129.568 43.0125 129.431 42.5833C129.353 42.3688 129.236 42.1542 129.119 41.9591C129.041 41.8031 128.924 41.6665 128.826 41.53C128.729 41.3934 128.651 41.2374 128.573 41.0813C128.378 41.7446 128.378 42.3688 128.709 42.954ZM127.441 43.7927C127.559 44.0853 127.871 44.1829 128.163 44.0853C128.261 44.0463 128.358 44.0073 128.436 43.9683C128.339 43.7147 128.241 43.5001 128.144 43.2466C127.968 42.7199 127.637 42.4663 127.207 42.3883C127.11 42.3688 126.993 42.3688 126.876 42.3493C127.11 42.8564 127.266 43.3246 127.441 43.7927ZM123.774 43.7342C123.833 43.7732 123.872 43.7927 123.911 43.8123C123.716 44.0073 123.423 44.0853 123.267 44.3779C123.443 44.3779 123.579 44.3779 123.735 44.3779C123.657 44.5535 123.521 44.9241 123.54 44.9241C124.418 44.0658 125.257 44.0268 126.193 44.1634C126.154 43.9098 125.569 43.4611 125.198 43.3636C125.081 43.3441 124.964 43.3246 124.867 43.3246C124.496 43.3441 124.145 43.5001 123.774 43.7342ZM129.373 44.0268C129.607 43.9293 129.841 43.8513 130.075 43.7927C130.055 43.7537 130.036 43.7147 130.036 43.6757C129.997 43.5782 129.958 43.4806 129.899 43.3636C129.665 43.5392 129.47 43.7927 129.373 44.0268ZM129.412 44.612C129.392 44.612 129.392 44.6315 129.373 44.6705C129.724 44.7291 129.86 45.0412 129.919 45.4118C130.133 45.3533 130.211 45.1777 130.309 45.0217C130.387 45.0997 130.465 45.1777 130.543 45.2362C130.465 44.9826 130.387 44.7096 130.309 44.4365C130.27 44.4365 130.211 44.4365 130.172 44.4365C129.899 44.417 129.665 44.495 129.412 44.612ZM126.31 45.8409C126.349 45.8409 126.388 45.8409 126.447 45.8409C126.369 46.036 126.291 46.2311 126.193 46.4066C126.213 46.4066 126.486 46.2701 126.642 46.1725C126.681 46.2896 126.72 46.4066 126.778 46.5042C127.071 45.5678 127.734 45.0412 128.397 44.495C128.339 44.495 128.3 44.4755 128.241 44.4755C127.637 44.5145 126.739 45.0217 126.31 45.8409ZM128.495 45.2167C128.261 45.4118 128.046 45.6264 127.929 45.9385C127.812 46.2311 127.851 46.4651 128.027 46.6602C128.261 46.4456 128.436 46.2311 128.358 45.958C128.514 45.958 128.67 45.9385 128.865 45.919C128.729 45.6069 128.631 45.3143 128.826 44.9826C128.807 44.9826 128.807 44.9631 128.787 44.9631C128.709 45.0412 128.592 45.1192 128.495 45.2167ZM129.86 45.6264C129.977 45.8214 130.055 46.0165 130.192 46.153C130.27 46.2701 130.406 46.3286 130.582 46.2701C130.641 46.2506 130.719 46.1921 130.758 46.114C130.738 46.036 130.719 45.958 130.699 45.8799C130.582 45.8995 130.485 45.8214 130.406 45.7629C130.27 45.6654 130.153 45.6069 129.958 45.6069C129.938 45.6264 129.899 45.6264 129.86 45.6264ZM128.631 46.6017C128.592 46.7577 128.514 46.8943 128.3 46.9333C128.378 47.0503 128.514 47.0699 128.651 47.0699C128.787 47.0503 128.885 46.9528 128.943 46.8553C129.041 46.6992 129.041 46.4847 129.022 46.3286C129.002 46.2311 128.982 46.1335 128.963 46.0555C128.787 46.2116 128.69 46.3871 128.631 46.6017ZM130.094 46.8553C130.25 46.9528 130.504 46.8358 130.641 46.5627C130.426 46.6212 130.348 46.4847 130.231 46.3676C130.133 46.2701 129.997 46.2116 129.88 46.114C129.802 46.4066 129.919 46.7577 130.094 46.8553ZM129.178 46.8163C129.178 46.9723 129.178 47.1089 129.041 47.2454C129.178 47.2844 129.314 47.2454 129.431 47.1479C129.548 47.0699 129.587 46.9528 129.568 46.8358C129.548 46.6212 129.392 46.3676 129.197 46.2701C129.197 46.4651 129.158 46.6602 129.178 46.8163ZM129.841 47.4405C129.86 47.4795 129.88 47.4795 129.919 47.4795H129.938C129.958 47.4795 129.997 47.46 130.036 47.4405C130.133 47.382 130.172 47.3234 130.153 47.2454C130.114 47.0308 129.958 46.8943 129.763 46.7577C129.743 47.0308 129.724 47.2649 129.841 47.4405Z" fill="url(#paint6_linear_261_11128)"/>
<path d="M243.119 44.3688C241.791 44.3688 241.241 42.5823 241.241 37.7267C241.241 35.2073 242.478 34.566 245.959 34.566C246.875 34.566 247.608 34.566 248.295 34.566C247.196 38.0473 245.684 44.3688 243.119 44.3688ZM236.019 41.0248C236.019 42.3074 236.156 43.4068 236.385 44.323H217.879C215.405 44.323 213.848 43.7733 213.848 41.4829V35.1615H219.62C220.078 33.7414 220.398 32.4588 220.582 31.0846H213.802C213.848 29.1607 213.985 27.42 214.123 25.4045C211.924 26.1832 210.183 27.0993 208.763 28.7026V31.0846H205.786C205.557 32.7795 205.557 34.0621 205.465 35.1615H208.763V41.8036C208.763 46.4301 211.558 48.4457 215.405 48.4457H240.554C243.623 48.4457 246.005 45.9262 248.295 40.2003V48.4457H253.334V31.0846C251.044 30.9014 248.982 30.764 246.692 30.764C240.462 30.764 236.019 33.375 236.019 41.0248ZM262.496 39.1009V37.406C262.496 35.2073 262.358 33.2834 262.037 31.0846H257.136C257.273 33.2834 257.457 35.1615 257.457 37.406V48.4457H262.496C262.496 42.2616 264.465 35.2073 269.733 35.986C269.733 34.8866 269.596 32.3672 269.275 30.764C265.427 31.1304 263.549 34.5202 262.496 39.1009ZM193.005 44.3688C191.677 44.3688 191.127 42.5823 191.127 37.7267C191.127 35.2073 192.364 34.566 195.846 34.566C196.762 34.566 197.495 34.566 198.228 34.566C197.082 38.0473 195.571 44.3688 193.005 44.3688ZM185.905 41.0248C185.905 46.2469 187.783 48.7663 190.303 48.7663C193.418 48.7663 195.846 46.0179 198.182 40.2003V48.4457H203.221V31.0846C200.93 30.9014 198.869 30.764 196.578 30.764C190.349 30.764 185.905 33.375 185.905 41.0248ZM350.354 33.0085C350.354 28.7026 347.377 26.0916 342.017 26.0916C339.04 26.0916 336.887 26.7329 335.559 27.3742C334.78 28.4278 334.459 29.6646 334.001 31.6343C336.017 30.8556 337.986 30.2143 340.918 30.2143C343.3 30.2143 345.178 31.222 345.178 34.0163C345.178 36.9938 343.3 39.1925 333.177 45.0559C333.177 45.6972 333.222 46.934 333.497 48.5373H350.171C350.629 47.1172 350.95 45.8346 351.133 44.4604H336.887C343.987 41.941 350.354 39.3758 350.354 33.0085ZM173.995 43.5901L173.72 43.4526C170.697 41.8494 166.62 39.3758 166.62 34.8866C166.62 30.764 169.277 28.84 172.438 28.84C175.965 28.84 178.118 31.3136 178.118 35.6653C178.164 38.7345 176.515 41.3913 173.995 43.5901ZM183.661 48.7663L175.37 44.323C180.088 42.6281 183.523 39.2383 183.523 34.4744C183.523 28.0613 178.714 24.809 172.484 24.809C166.758 24.809 161.307 28.4736 161.307 35.5279C161.307 41.4829 165.842 45.0559 170.835 47.6669L186.867 56.0039C186.821 52.3393 186.409 50.2321 183.661 48.7663ZM301.753 46.8882C300.333 46.8882 295.935 44.0023 295.935 36.3067C295.935 32.5046 298.134 30.1684 301.753 30.1684C305.371 30.1684 307.57 32.5504 307.57 36.3067C307.616 44.0023 303.173 46.8882 301.753 46.8882ZM301.753 26.0458C295.431 26.0458 290.713 29.8478 290.713 35.986C290.713 44.0481 298.454 48.7663 301.753 48.7663C305.051 48.7663 312.792 44.0481 312.792 35.986C312.792 29.8478 308.074 26.0458 301.753 26.0458ZM301.844 34.6576C300.745 35.4363 299.783 36.3525 298.958 37.406C299.783 38.4596 300.745 39.3758 301.844 40.1545C302.944 39.3758 303.906 38.4596 304.73 37.406C303.906 36.3525 302.944 35.4363 301.844 34.6576ZM330.795 33.0085C330.795 28.7026 327.817 26.0916 322.412 26.0916C319.434 26.0916 317.281 26.7329 315.953 27.3742C315.22 28.4278 314.854 29.6646 314.395 31.6343C316.411 30.8556 318.381 30.2143 321.358 30.2143C323.74 30.2143 325.618 31.222 325.618 34.0163C325.618 36.9938 323.74 39.1925 313.617 45.0559C313.617 45.6972 313.663 46.934 313.937 48.5373H330.657C331.115 47.1172 331.436 45.8346 331.619 44.4604H317.373C324.473 41.941 330.795 39.3758 330.795 33.0085ZM288.194 33.0085C288.194 28.7026 285.216 26.0916 279.857 26.0916C276.879 26.0916 274.726 26.7329 273.398 27.3742C272.619 28.4278 272.298 29.6646 271.84 31.6343C273.856 30.8556 275.826 30.2143 278.757 30.2143C281.139 30.2143 283.017 31.222 283.017 34.0163C283.017 36.9938 281.139 39.1925 271.016 45.0559C271.016 45.6972 271.062 46.934 271.336 48.5373H288.056C288.514 47.1172 288.835 45.8346 289.018 44.4604H274.772C281.872 41.941 288.194 39.3758 288.194 33.0085Z" fill="white"/>
<path d="M331.259 18.6438C330.526 18.827 329.747 19.0102 328.923 19.1477C328.052 19.3309 326.999 19.3767 325.716 19.3767C324.479 19.3767 323.197 19.1935 321.914 18.8728C320.631 18.5522 319.486 18.0025 318.478 17.2237C317.471 16.4908 316.6 15.4831 315.959 14.2463C315.318 13.0095 314.997 11.5436 314.997 9.75713C314.997 8.15386 315.272 6.68801 315.822 5.49702C316.371 4.26021 317.104 3.25246 318.066 2.42792C319.028 1.60338 320.173 1.00789 321.456 0.595619C322.784 0.183352 324.204 0.000112534 325.716 0.000112534C326.678 0.000112534 327.64 0.0917301 328.51 0.27496C329.426 0.458191 330.343 0.687227 331.259 0.962074L330.846 4.99314C330.022 4.53507 329.243 4.21441 328.464 3.98537C327.686 3.75634 326.861 3.66471 325.991 3.66471C325.075 3.66471 324.296 3.80214 323.563 4.12279C322.83 4.44344 322.235 4.85572 321.731 5.3596C321.227 5.90929 320.815 6.5506 320.54 7.28352C320.265 8.01644 320.128 8.84097 320.128 9.71132C320.128 10.6275 320.265 11.452 320.586 12.1849C320.906 12.9178 321.319 13.5133 321.868 14.063C322.418 14.5669 323.059 14.9792 323.838 15.2082C324.617 15.4831 325.441 15.6205 326.357 15.6205C327.182 15.6205 328.006 15.5289 328.785 15.3456C329.61 15.1624 330.343 14.9334 331.03 14.6585L331.259 18.6438Z" fill="white"/>
<path d="M349.202 11.9316C349.202 13.2142 349.019 14.3136 348.607 15.2755C348.194 16.1917 347.645 16.9704 346.912 17.5659C346.179 18.1614 345.308 18.6195 344.301 18.9401C343.293 19.2608 342.194 19.3982 340.957 19.3982C339.766 19.3982 338.621 19.2608 337.613 18.9401C336.605 18.6653 335.735 18.2072 335.002 17.5659C334.269 16.9704 333.719 16.1917 333.307 15.2755C332.895 14.3594 332.711 13.26 332.711 11.9316V0.342258H337.704V11.107C337.704 11.7483 337.75 12.298 337.842 12.8477C337.933 13.3974 338.117 13.8555 338.346 14.3136C338.575 14.7258 338.895 15.0465 339.308 15.3213C339.72 15.5504 340.224 15.6878 340.865 15.6878C341.506 15.6878 342.056 15.5504 342.468 15.3213C342.881 15.0923 343.201 14.7716 343.43 14.3136C343.659 13.9013 343.843 13.3974 343.934 12.8477C344.026 12.298 344.072 11.7025 344.072 11.107V0.342258H349.065V11.9316H349.202Z" fill="white"/>
<path d="M356.678 8.99143H357.96C358.372 8.99143 358.785 8.94562 359.151 8.85401C359.518 8.76239 359.838 8.62496 360.113 8.44173C360.388 8.2585 360.617 7.98366 360.754 7.6172C360.892 7.29655 360.983 6.88427 360.983 6.38039C360.983 5.8765 360.892 5.51006 360.754 5.1894C360.571 4.86875 360.388 4.5939 360.113 4.41067C359.838 4.22744 359.518 4.09002 359.151 3.9984C358.785 3.90679 358.372 3.86097 357.96 3.86097H356.678V8.99143ZM351.685 0.333797H357.64C360.525 0.333797 362.633 0.837671 364.007 1.79963C365.381 2.8074 366.022 4.31905 366.022 6.47201C366.022 8.35012 365.381 9.86178 364.053 10.9153C362.724 11.9689 360.938 12.5186 358.601 12.5186H356.678V19.0691H351.685V0.333797Z" fill="white"/>
<path d="M211.039 0.341049H216.124L218.552 14.7246H218.597L221.117 0.341049H227.438L230.049 14.7246H230.095L232.523 0.341049H237.378L233.21 19.0305H226.797L224.14 4.64695H224.094L221.621 19.0305H215.162L211.039 0.341049Z" fill="white"/>
<path d="M242.697 9.68701C242.697 10.4657 242.788 11.1987 242.926 11.9316C243.063 12.6645 243.338 13.3058 243.659 13.8555C243.979 14.4052 244.438 14.8633 244.987 15.1839C245.537 15.5046 246.178 15.6878 246.911 15.6878C247.644 15.6878 248.285 15.5046 248.835 15.1839C249.385 14.8633 249.797 14.4052 250.163 13.8555C250.484 13.3058 250.759 12.6645 250.896 11.9316C251.034 11.1987 251.125 10.4657 251.125 9.68701C251.125 8.90828 251.034 8.12955 250.896 7.39663C250.713 6.66371 250.484 6.0224 250.163 5.47271C249.843 4.92302 249.385 4.51076 248.835 4.19011C248.285 3.86945 247.644 3.73203 246.911 3.73203C246.178 3.73203 245.537 3.86945 244.987 4.19011C244.438 4.51076 244.025 4.96883 243.659 5.47271C243.338 6.0224 243.063 6.66371 242.926 7.39663C242.788 8.12955 242.697 8.90828 242.697 9.68701ZM237.566 9.68701C237.566 8.17536 237.75 6.84693 238.162 5.65594C238.574 4.46494 239.17 3.45719 239.948 2.63265C240.727 1.80812 241.735 1.16681 242.88 0.708731C244.071 0.250656 245.399 0.0216179 246.957 0.0216179C248.469 0.0216179 249.843 0.250656 251.034 0.708731C252.225 1.16681 253.187 1.80812 253.966 2.63265C254.744 3.45719 255.34 4.46494 255.752 5.65594C256.164 6.84693 256.347 8.22117 256.347 9.68701C256.347 11.1528 256.164 12.5271 255.752 13.7181C255.34 14.9091 254.744 15.9168 253.966 16.7872C253.187 17.6117 252.179 18.253 251.034 18.7111C249.889 19.1692 248.514 19.3982 247.003 19.3982C245.445 19.3982 244.117 19.1692 242.972 18.7111C241.827 18.253 240.819 17.6117 240.04 16.7872C239.261 15.9626 238.666 14.9091 238.254 13.7181C237.795 12.5271 237.566 11.1987 237.566 9.68701Z" fill="white"/>
<path d="M263.184 8.12328H264.513C264.925 8.12328 265.337 8.12328 265.75 8.07747C266.208 8.03166 266.574 7.98585 266.941 7.80262C267.307 7.6652 267.582 7.43617 267.811 7.16132C268.04 6.88647 268.177 6.4742 268.177 5.92451C268.177 5.51224 268.086 5.14579 267.857 4.87094C267.674 4.5961 267.399 4.36706 267.078 4.22964C266.757 4.09222 266.345 4.0006 265.933 3.95479C265.475 3.90898 265.017 3.86317 264.559 3.86317H263.23V8.12328H263.184ZM258.191 0.335995H267.078C267.903 0.335995 268.681 0.427612 269.414 0.610842C270.147 0.794073 270.788 1.11472 271.338 1.48118C271.888 1.89345 272.346 2.35152 272.621 2.94702C272.941 3.54252 273.079 4.22963 273.079 5.05417C273.079 6.29097 272.804 7.34455 272.209 8.12328C271.613 8.90201 270.697 9.4517 269.506 9.77236V9.81815C269.918 9.90977 270.193 10.093 270.468 10.322C270.697 10.5511 270.926 10.8259 271.109 11.1924C271.292 11.5588 271.43 11.9253 271.613 12.3834C271.75 12.8415 271.979 13.3453 272.209 13.9408L274.041 19.0255H268.865L267.811 15.6357C267.582 14.8112 267.307 14.1699 267.124 13.666C266.895 13.1621 266.666 12.7498 266.391 12.4292C266.116 12.1085 265.841 11.9253 265.521 11.7879C265.2 11.6505 264.788 11.6047 264.33 11.6047H263.276V19.0713H258.283V0.335995H258.191Z" fill="white"/>
<path d="M276.144 0.341122H281.137V15.366H288.833V19.0764H276.144V0.341122Z" fill="white"/>
<path d="M295.576 15.3513H297.5C299.378 15.3513 300.798 14.8932 301.806 13.9312C302.814 12.9693 303.317 11.595 303.317 9.71692C303.317 7.83881 302.814 6.41878 301.806 5.50263C300.798 4.54067 299.378 4.08259 297.5 4.08259H295.576V15.3513ZM290.583 0.326363H297.408C299.057 0.326363 300.523 0.463783 301.897 0.738628C303.272 1.01347 304.417 1.51736 305.379 2.25029C306.341 2.9374 307.12 3.89935 307.669 5.09035C308.219 6.28135 308.494 7.79301 308.494 9.5795C308.494 11.3202 308.219 12.786 307.669 14.0228C307.12 15.2138 306.341 16.1758 305.379 16.9087C304.417 17.6416 303.226 18.1913 301.852 18.512C300.477 18.8326 299.012 19.0159 297.408 19.0159H290.583V0.326363Z" fill="white"/>
<path fill-rule="evenodd" clip-rule="evenodd" d="M150.689 0.341049V19.0305H156.507V12.2968H160.721L162.233 8.21994H156.507V4.41792H163.561L165.027 0.341049H150.689Z" fill="white"/>
<path fill-rule="evenodd" clip-rule="evenodd" d="M166.816 19.0649H172.633V0.375435H166.816V19.0649Z" fill="white"/>
<path fill-rule="evenodd" clip-rule="evenodd" d="M176.663 0.341049V19.0305H182.48V12.2968H186.649L188.16 8.21994H182.48V4.41792H189.535L191 0.341049H176.663Z" fill="white"/>
<path fill-rule="evenodd" clip-rule="evenodd" d="M200.086 12.9267L197.75 5.13942L195.505 12.9267H200.086ZM207.69 19.0649H201.827L201.048 16.5455H194.497L193.765 19.0649H188.039L194.864 0.375435H200.91L207.69 19.0649Z" fill="white"/>
<g clip-path="url(#clip1_261_11128)">
<path d="M446.113 27.6863L443.001 30.8293L439.891 27.6863L443.001 24.5558L446.113 27.6863ZM460.187 27.6863L457.458 30.4453L454.717 27.6863L457.458 24.9397L460.187 27.6863ZM474.262 27.6863L471.878 30.0855L469.494 27.6863L471.877 25.288L474.261 27.6863H474.262ZM417.975 27.6863L414.102 31.5972L410.217 27.6863L414.102 23.7888L417.975 27.6863ZM432.05 27.6863L428.534 31.2132L425.041 27.6863L428.534 24.1718L432.05 27.6863ZM382.592 27.0148C382.727 24.7223 383.536 22.5206 384.916 20.6854C386.294 18.8556 388.184 17.4765 390.347 16.7233C392.504 15.9721 394.837 15.8817 397.046 16.4638C399.258 17.0483 401.247 18.2777 402.76 19.9956C404.277 21.7191 405.251 23.8522 405.56 26.1273C405.871 28.4041 405.504 30.7221 404.505 32.7915C403.509 34.856 401.923 36.5789 399.948 37.7423C397.978 38.902 395.707 39.4478 393.426 39.31C391.911 39.2172 390.428 38.8257 389.065 38.158C387.701 37.4903 386.483 36.5595 385.48 35.4193C383.447 33.1083 382.409 30.0875 382.592 27.0148ZM391.59 19.6261C389.739 20.2269 388.16 21.4633 387.133 23.1164C387.565 23.4188 388.073 23.5933 388.599 23.62C389.089 23.6449 389.578 23.5485 390.022 23.3393C390.467 23.1302 390.852 22.8147 391.146 22.4209C391.441 22.0262 391.636 21.5655 391.713 21.0785C391.791 20.5915 391.748 20.0929 391.589 19.6261H391.59ZM400.624 32.5686C401.632 31.253 402.221 29.665 402.316 28.0104V27.2676C401.721 27.3062 401.151 27.5271 400.682 27.8975C400.213 28.268 399.866 28.7725 399.685 29.3446C399.506 29.9166 399.501 30.5293 399.673 31.1038C399.844 31.6784 400.183 32.1885 400.647 32.5686H400.624ZM400.981 22.9727C399.94 21.3427 398.358 20.1321 396.512 19.5538C396.429 19.7988 396.377 20.0525 396.358 20.3101C396.312 21.1027 396.58 21.8814 397.106 22.4768C397.365 22.7705 397.68 23.0099 398.032 23.1814C398.384 23.353 398.766 23.4532 399.157 23.4763C399.811 23.5407 400.467 23.3801 401.016 23.0209L400.981 22.9727ZM393.592 35.7589C394.749 35.8242 395.906 35.6443 396.988 35.2312C396.805 34.6157 396.429 34.0765 395.917 33.6935C395.406 33.3105 394.784 33.1036 394.146 33.1036C393.507 33.1036 392.886 33.3105 392.375 33.6935C391.863 34.0765 391.487 34.6157 391.304 35.2312C392.047 35.538 392.829 35.7329 393.629 35.8071L393.592 35.7589ZM390.732 27.0987L391.78 30.1096C391.835 30.2772 391.942 30.4227 392.086 30.5243C392.23 30.6259 392.403 30.678 392.579 30.673L395.749 30.6016C395.925 30.6012 396.095 30.5435 396.235 30.4373C396.375 30.3311 396.476 30.1822 396.524 30.0131L397.441 26.955C397.489 26.7855 397.482 26.6055 397.422 26.44C397.362 26.2744 397.252 26.1318 397.107 26.0318L394.509 24.2085C394.367 24.1069 394.196 24.0522 394.021 24.0522C393.846 24.0522 393.675 24.1069 393.532 24.2085L391.018 26.1398C390.868 26.2539 390.761 26.416 390.715 26.5992C390.67 26.7824 390.688 26.9757 390.767 27.147L390.732 27.0987ZM387.288 32.1123C387.818 31.7753 388.228 31.2793 388.46 30.6952C388.691 30.1103 388.733 29.4675 388.58 28.8575C388.427 28.2474 388.086 27.7007 387.606 27.2946C387.126 26.8908 386.531 26.6499 385.905 26.6067C385.905 26.7273 385.905 26.8479 385.845 26.9666C385.747 28.8141 386.267 30.6419 387.323 32.1606L387.288 32.1123Z" fill="#FF004C"/>
</g>
<defs>
<linearGradient id="paint0_linear_261_11128" x1="114.802" y1="5.60153" x2="119.831" y2="2.34393" gradientUnits="userSpaceOnUse">
<stop stop-color="#FAF6F2"/>
<stop offset="1" stop-color="#FFFBF7"/>
</linearGradient>
<linearGradient id="paint1_linear_261_11128" x1="124.092" y1="51.1717" x2="119.104" y2="30.6591" gradientUnits="userSpaceOnUse">
<stop stop-color="#FAF6F2"/>
<stop offset="0.5124" stop-color="#FFFBF7"/>
<stop offset="0.6773" stop-color="#FFFBF7"/>
<stop offset="0.901" stop-color="#EBE7E3"/>
<stop offset="1" stop-color="#CCC9C6"/>
</linearGradient>
<linearGradient id="paint2_linear_261_11128" x1="114.811" y1="6.69815" x2="111.446" y2="12.5065" gradientUnits="userSpaceOnUse">
<stop stop-color="#791426"/>
<stop offset="0.5347" stop-color="#AF1C3B"/>
<stop offset="1" stop-color="#791426"/>
</linearGradient>
<linearGradient id="paint3_linear_261_11128" x1="113.937" y1="6.18908" x2="110.571" y2="11.9978" gradientUnits="userSpaceOnUse">
<stop stop-color="#791426"/>
<stop offset="0.5347" stop-color="#AF1C3B"/>
<stop offset="1" stop-color="#791426"/>
</linearGradient>
<linearGradient id="paint4_linear_261_11128" x1="116.206" y1="7.5084" x2="112.841" y2="13.3166" gradientUnits="userSpaceOnUse">
<stop stop-color="#791426"/>
<stop offset="0.5347" stop-color="#AF1C3B"/>
<stop offset="1" stop-color="#791426"/>
</linearGradient>
<linearGradient id="paint5_linear_261_11128" x1="116.321" y1="71.2336" x2="129.02" y2="41.0742" gradientUnits="userSpaceOnUse">
<stop stop-color="#791426"/>
<stop offset="0.5347" stop-color="#AF1C3B"/>
<stop offset="1" stop-color="#791426"/>
</linearGradient>
<linearGradient id="paint6_linear_261_11128" x1="116.077" y1="20.6652" x2="130.881" y2="53.7968" gradientUnits="userSpaceOnUse">
<stop stop-color="#791426"/>
<stop offset="0.5347" stop-color="#AF1C3B"/>
<stop offset="1" stop-color="#791426"/>
</linearGradient>
<clipPath id="clip0_261_11128">
<rect y="15.9431" width="92.6118" height="24.1176" rx="12.0588" fill="white"/>
</clipPath>
<clipPath id="clip1_261_11128">
<rect width="92.6118" height="24.1176" rx="12.0588" transform="matrix(-1 0 0 1 474.634 15.9431)" fill="white"/>
</clipPath>
</defs>
</svg>
