<svg width="12" height="13" viewBox="0 0 12 13" fill="none" xmlns="http://www.w3.org/2000/svg">
<path d="M11.6179 12.1179C11.1083 12.6274 10.2852 12.6274 9.77572 12.1179L6 8.34213L2.22428 12.1179C1.71475 12.6274 0.891671 12.6274 0.382145 12.1179C-0.127382 11.6083 -0.127382 10.7852 0.382145 10.2757L4.15787 6.5L0.382145 2.72428C-0.127382 2.21475 -0.127382 1.39167 0.382145 0.882145C0.891671 0.372618 1.71475 0.372618 2.22428 0.882145L6 4.65787L9.77572 0.882145C10.2852 0.372618 11.1083 0.372618 11.6179 0.882145C12.1274 1.39167 12.1274 2.21475 11.6179 2.72428L7.84213 6.5L11.6179 10.2757C12.1143 10.7722 12.1143 11.6083 11.6179 12.1179Z" fill="#90949C"/>
</svg>
