<svg width="110" height="112" viewBox="0 0 110 112" fill="none" xmlns="http://www.w3.org/2000/svg">
<path d="M126 -90.1011C195.59 -90.1011 252 -33.6434 252 36.0049C252 105.653 195.59 162.111 126 162.111C56.4102 162.111 0 105.653 0 36.0049C0 -33.6434 56.4102 -90.1011 126 -90.1011ZM147.042 86.4473H104.958L87.57 110.37L94.5504 131.883C104.702 135.211 115.318 136.901 126 136.89C136.975 136.89 147.546 135.124 157.45 131.883L164.417 110.37L147.029 86.4473H147.042ZM41.5044 21.7801L25.2252 33.5963L25.2 36.0049C25.2 57.8212 32.1174 78.0108 43.8732 94.5181H67.9392L84.609 71.5668L71.6562 31.5912L41.5044 21.7801ZM210.496 21.7801L180.344 31.5912L167.391 71.5668L184.048 94.5181H208.114C220.296 77.4457 226.831 56.9838 226.8 36.0049L226.762 33.6089L210.496 21.7801ZM126 4.9324L96.4656 26.3956L107.755 61.2261H144.232L155.522 26.3956L126 4.9324ZM154.867 -60.6805L138.6 -48.8266V-17.0857L172.544 7.59322L200.756 -1.57468L207.736 -23.0505C194.728 -41.0727 176.146 -54.299 154.867 -60.6805ZM97.1208 -60.6805C75.8446 -54.2932 57.2664 -41.0625 44.2638 -23.0379L51.2442 -1.57468L79.4556 7.59322L113.4 -17.0857V-48.8266L97.1208 -60.6805Z" fill="#FF004C" fill-opacity="0.22"/>
</svg>
