<svg width="157" height="112" viewBox="0 0 157 112" fill="none" xmlns="http://www.w3.org/2000/svg">
<path d="M31 -90.1011C100.59 -90.1011 157 -33.6434 157 36.0049C157 105.653 100.59 162.111 31 162.111C-38.5898 162.111 -95 105.653 -95 36.0049C-95 -33.6434 -38.5898 -90.1011 31 -90.1011ZM52.042 86.4473H9.958L-7.43 110.37L-0.4496 131.883C9.70198 135.211 20.3179 136.901 31 136.89C41.9746 136.89 52.546 135.124 62.4496 131.883L69.4174 110.37L52.0294 86.4473H52.042ZM-53.4956 21.7801L-69.7748 33.5963L-69.8 36.0049C-69.8 57.8212 -62.8826 78.0108 -51.1268 94.5181H-27.0608L-10.391 71.5668L-23.3438 31.5912L-53.4956 21.7801ZM115.496 21.7801L85.3438 31.5912L72.391 71.5668L89.0482 94.5181H113.114C125.296 77.4457 131.831 56.9838 131.8 36.0049L131.762 33.6089L115.496 21.7801ZM31 4.9324L1.46561 26.3956L12.7552 61.2261H49.2322L60.5218 26.3956L31 4.9324ZM59.8666 -60.6805L43.6 -48.8266V-17.0857L77.5444 7.59322L105.756 -1.57468L112.736 -23.0505C99.7284 -41.0727 81.1457 -54.299 59.8666 -60.6805ZM2.1208 -60.6805C-19.1554 -54.2932 -37.7336 -41.0625 -50.7362 -23.0379L-43.7558 -1.57468L-15.5444 7.59322L18.4 -17.0857V-48.8266L2.1208 -60.6805Z" fill="#FF004C" fill-opacity="0.22"/>
</svg>
