<svg width="57" height="49" viewBox="0 0 57 49" fill="none" xmlns="http://www.w3.org/2000/svg">
<path fill-rule="evenodd" clip-rule="evenodd" d="M43.7425 23.3999C43.6285 23.3999 43.5398 23.3089 43.5398 23.1919V19.4084C43.5398 18.6023 43.7045 17.8612 44.0211 17.1981C44.3378 16.548 44.7558 15.9499 45.2498 15.4169C45.7438 14.8838 46.3138 14.3897 46.9345 13.9347C47.5425 13.5013 48.1463 13.0766 48.7459 12.6605C49.2272 12.3311 49.6916 12.0104 50.1392 11.6984C50.5699 11.3863 50.9626 11.0743 51.2919 10.7493C51.6212 10.4372 51.8872 10.1122 52.0899 9.80013C52.2672 9.51409 52.3686 9.20205 52.3686 8.90301V5.58758C52.3686 5.31454 52.2672 5.08051 52.0772 4.88549C51.8872 4.69046 51.6592 4.59945 51.3932 4.59945H48.5939C48.3025 4.59945 48.0745 4.69046 47.8972 4.88549C47.7072 5.08051 47.6185 5.31454 47.6185 5.58758V7.77186C47.6185 7.87588 47.5298 7.97989 47.4158 7.97989H43.7425C43.6285 7.97989 43.5398 7.87588 43.5398 7.77186V5.58758C43.5398 4.88549 43.6791 4.2094 43.9451 3.58532C44.2111 2.96124 44.5785 2.40216 45.0345 1.9341C45.4905 1.46604 46.0225 1.08899 46.6305 0.815957C47.2512 0.542921 47.9098 0.399902 48.6192 0.399902H51.4059C52.0899 0.399902 52.7359 0.542921 53.3566 0.815957C53.9646 1.08899 54.4966 1.46604 54.9526 1.9341C55.4086 2.40216 55.7759 2.96124 56.0419 3.58532C56.3206 4.2094 56.4473 4.88549 56.4473 5.58758V8.90301C56.4473 9.78713 56.2826 10.6062 55.9406 11.3343C55.5986 12.0364 55.1553 12.6995 54.6106 13.2716C54.0786 13.8437 53.4832 14.3767 52.8372 14.8448C52.2166 15.3128 51.5959 15.7549 50.9879 16.171C50.5657 16.457 50.1477 16.7387 49.7339 17.0161C49.3412 17.2891 48.9739 17.5621 48.6699 17.8482C48.3532 18.1212 48.0999 18.4073 47.9099 18.6673C47.7916 18.8493 47.7072 19.027 47.6565 19.2004H56.3079C56.422 19.2004 56.5106 19.2914 56.5106 19.4084V23.1919C56.5106 23.3089 56.422 23.3999 56.3079 23.3999H43.7425ZM29.3783 23.3999C29.2643 23.3999 29.1756 23.3089 29.1756 23.1919V19.4084C29.1756 18.6023 29.3403 17.8612 29.657 17.1981C29.9736 16.548 30.3916 15.9499 30.8983 15.4169C31.3923 14.8838 31.9497 14.3897 32.5703 13.9347C33.1783 13.5013 33.7821 13.0766 34.3817 12.6605C34.863 12.3311 35.3275 12.0104 35.775 11.6984C36.2057 11.3863 36.5984 11.0743 36.9277 10.7493C37.2571 10.4372 37.5231 10.1122 37.7257 9.80013C37.9157 9.51409 38.0044 9.20205 38.0044 8.90301V5.58758C38.0044 5.31454 37.9157 5.08051 37.7131 4.88549C37.5231 4.69046 37.2951 4.59945 37.0291 4.59945H34.2297C33.951 4.59945 33.723 4.69046 33.533 4.88549C33.3557 5.08051 33.267 5.31454 33.267 5.58758V7.77186C33.267 7.87588 33.1657 7.97989 33.0643 7.97989H29.3783C29.2643 7.97989 29.1756 7.87588 29.1756 7.77186V5.58758C29.1756 4.88549 29.315 4.2094 29.581 3.58532C29.847 2.96124 30.2143 2.40216 30.6703 1.9341C31.1263 1.46604 31.671 1.08899 32.279 0.815957C32.887 0.542921 33.5583 0.399902 34.255 0.399902H37.0417C37.7257 0.399902 38.3844 0.542921 38.9924 0.815957C39.6004 1.08899 40.1451 1.46604 40.6011 1.9341C41.0444 2.40216 41.4118 2.96124 41.6904 3.58532C41.9564 4.2094 42.0958 4.88549 42.0958 5.58758V8.90301C42.0958 9.78713 41.9184 10.6062 41.5764 11.3343C41.2344 12.0364 40.7911 12.6995 40.2464 13.2716C39.7144 13.8437 39.1191 14.3767 38.4731 14.8448C37.8651 15.3128 37.2317 15.7549 36.6237 16.171C36.2015 16.457 35.7877 16.7387 35.3824 17.0161C34.977 17.2891 34.6224 17.5621 34.3057 17.8482C34.0017 18.1212 33.7483 18.4073 33.5583 18.6673C33.4317 18.8493 33.3472 19.027 33.305 19.2004H41.9438C42.0578 19.2004 42.1465 19.2914 42.1465 19.4084V23.1919C42.1465 23.3089 42.0578 23.3999 41.9438 23.3999H29.3783ZM19.9542 23.3999C19.2448 23.3999 18.5862 23.2569 17.9782 22.9838C17.3702 22.7108 16.8255 22.3338 16.3695 21.8657C15.9135 21.3976 15.5461 20.8386 15.2801 20.2145C15.0141 19.5904 14.8748 18.9013 14.8748 18.1862V5.58758C14.8748 4.88549 15.0141 4.2094 15.2801 3.58532C15.5461 2.96124 15.9135 2.40216 16.3695 1.9341C16.8255 1.46604 17.3702 1.08899 17.9782 0.815957C18.5862 0.542921 19.2575 0.399902 19.9542 0.399902H22.7156C23.4122 0.399902 24.0836 0.542921 24.6916 0.815957C25.2996 1.08899 25.8443 1.46604 26.3003 1.9341C26.7436 2.40216 27.1109 2.96124 27.3896 3.58532C27.6556 4.2094 27.7949 4.88549 27.7949 5.58758V18.1862C27.7949 18.9013 27.6556 19.5904 27.3896 20.2145C27.1109 20.8386 26.7436 21.3976 26.3003 21.8657C25.8443 22.3338 25.2996 22.7108 24.6916 22.9838C24.0836 23.2569 23.4122 23.3999 22.7156 23.3999H19.9542ZM19.9542 4.59945C19.6628 4.59945 19.4348 4.69046 19.2322 4.88549C19.0422 5.08051 18.9535 5.31454 18.9535 5.58758V18.1862C18.9535 18.4723 19.0422 18.7193 19.2322 18.9143C19.4348 19.1093 19.6628 19.2004 19.9542 19.2004H22.7029C22.9816 19.2004 23.2222 19.1093 23.4122 18.9143C23.6022 18.7193 23.6909 18.4723 23.6909 18.1862V5.58758C23.6909 5.31454 23.6022 5.08051 23.4122 4.88549C23.2222 4.69046 22.9816 4.59945 22.7029 4.59945H19.9542ZM0.713289 23.3999C0.599288 23.3999 0.51062 23.3089 0.51062 23.1919V19.4084C0.51062 18.6023 0.662622 17.8612 0.991959 17.1981C1.30863 16.548 1.72663 15.9499 2.22064 15.4039C2.71465 14.8838 3.28465 14.3897 3.89266 13.9347C4.50911 13.5013 5.11712 13.0766 5.71668 12.6605C6.18958 12.3311 6.6498 12.0104 7.09736 11.6984C7.5407 11.3863 7.93337 11.0743 8.26271 10.7493C8.59205 10.4372 8.85805 10.1122 9.04805 9.80013C9.23806 9.51409 9.33939 9.21505 9.33939 8.90301V5.58758C9.33939 5.31454 9.23806 5.08051 9.04805 4.88549C8.85805 4.69046 8.63005 4.59945 8.36405 4.59945H5.56468C5.27334 4.59945 5.04534 4.69046 4.86801 4.88549C4.678 5.08051 4.58934 5.31454 4.58934 5.58758V7.77186C4.58934 7.87588 4.50067 7.97989 4.38667 7.97989H0.713289C0.599288 7.97989 0.51062 7.87588 0.51062 7.77186V5.58758C0.51062 4.88549 0.637288 4.2094 0.915958 3.58532C1.18196 2.96124 1.5493 2.40216 2.0053 1.9341C2.44864 1.46604 2.99332 1.08899 3.60132 0.815957C4.222 0.542921 4.88067 0.399902 5.59001 0.399902H8.36405C9.04805 0.399902 9.70673 0.542921 10.3274 0.815957C10.9354 1.08899 11.4674 1.46604 11.9234 1.9341C12.3794 2.40216 12.7468 2.96124 13.0128 3.58532C13.2788 4.2094 13.4181 4.88549 13.4181 5.58758V8.90301C13.4181 9.78713 13.2534 10.6062 12.8988 11.3343C12.5694 12.0364 12.1261 12.6995 11.5814 13.2716C11.0367 13.8437 10.4414 14.3767 9.80806 14.8448C9.18739 15.3128 8.56672 15.7549 7.95871 16.171C7.53648 16.457 7.11848 16.7387 6.70469 17.0161C6.31202 17.2891 5.94468 17.5621 5.62801 17.8482C5.32401 18.1212 5.07067 18.3943 4.88067 18.6673C4.754 18.8493 4.66956 19.027 4.62734 19.2004H13.2788C13.3928 19.2004 13.4814 19.2914 13.4814 19.4084V23.1919C13.4814 23.3089 13.3928 23.3999 13.2788 23.3999H0.713289Z" fill="url(#paint0_linear_811_125080)"/>
<path fill-rule="evenodd" clip-rule="evenodd" d="M7.44104 28.751L8.78321 30.102L10.1254 28.751L8.78321 27.3999L7.44104 28.751ZM13.0757 28.751L14.4179 30.102L15.76 28.751L14.4179 27.3999L13.0757 28.751ZM20.0524 30.102L18.7102 28.751L20.0524 27.3999L21.3946 28.751L20.0524 30.102ZM24.3575 28.751L25.687 30.102L27.0292 28.751L25.687 27.3999L24.3575 28.751ZM31.3343 30.102L29.9921 28.751L31.3343 27.3999L32.6764 28.751L31.3343 30.102ZM35.6267 28.751L36.9689 30.102L38.3111 28.751L36.9689 27.3999L35.6267 28.751ZM42.6035 30.102L41.2613 28.751L42.6035 27.3999L43.9456 28.751L42.6035 30.102ZM46.8959 28.751L48.2381 30.102L49.5803 28.751L48.2381 27.3999L46.8959 28.751Z" fill="#FCCA3E"/>
<path fill-rule="evenodd" clip-rule="evenodd" d="M13.6645 40.8318C14.2807 40.1605 14.5888 39.2046 14.5888 37.964C14.5888 36.7234 14.2849 35.7675 13.6771 35.0962C13.0693 34.4334 12.1914 34.1021 11.0434 34.1021C9.90384 34.1021 9.02594 34.4334 8.40972 35.0962C7.7935 35.7505 7.48539 36.7022 7.48539 37.9513C7.48539 39.2004 7.7935 40.1605 8.40972 40.8318C9.0175 41.4946 9.89118 41.826 11.0308 41.826C12.1788 41.826 13.0567 41.4946 13.6645 40.8318ZM9.61261 39.8631C9.30028 39.4383 9.14412 38.8052 9.14412 37.964C9.14412 37.1228 9.3045 36.4898 9.62527 36.0649C9.94604 35.64 10.4188 35.4276 11.0434 35.4276C12.3012 35.4276 12.9301 36.2731 12.9301 37.964C12.9301 39.655 12.297 40.5004 11.0308 40.5004C10.4061 40.5004 9.93338 40.288 9.61261 39.8631ZM2.09139 41.7238H3.63616V38.7668H6.16856V37.4668H3.63616V35.5294H6.35849V34.2166H2.09139V41.7238ZM22.8951 37.964C22.8951 39.2046 22.5912 40.1605 21.9834 40.8318C21.3672 41.4946 20.4893 41.826 19.3497 41.826C18.2101 41.826 17.3322 41.4946 16.716 40.8318C16.1082 40.1605 15.8043 39.2004 15.8043 37.9513C15.8043 36.7022 16.1082 35.7505 16.716 35.0962C17.3322 34.4334 18.2143 34.1021 19.3624 34.1021C20.5104 34.1021 21.3841 34.4334 21.9834 35.0962C22.5912 35.7675 22.8951 36.7234 22.8951 37.964ZM17.4631 37.964C17.4631 38.8052 17.6192 39.4383 17.9316 39.8631C18.2439 40.288 18.7166 40.5004 19.3497 40.5004C20.6075 40.5004 21.2363 39.655 21.2363 37.964C21.2363 36.2731 20.6117 35.4276 19.3624 35.4276C18.7293 35.4276 18.2523 35.64 17.9316 36.0649C17.6192 36.4898 17.4631 37.1228 17.4631 37.964ZM25.744 41.7238H27.3268V35.5422H29.34V34.2166H23.7181V35.5422H25.744V41.7238ZM30.4923 34.2166H32.8094C33.873 34.2166 34.6412 34.3695 35.1139 34.6754C35.5951 34.9813 35.8357 35.4614 35.8357 36.1157C35.8357 36.5661 35.7301 36.9357 35.5191 37.2246C35.3081 37.5135 35.0295 37.6877 34.6834 37.7472V37.7982C35.1561 37.9001 35.498 38.0998 35.709 38.3972C35.9201 38.6861 36.0256 39.0727 36.0256 39.5571C36.0256 40.2368 35.7808 40.7679 35.2912 41.1503C34.7931 41.5327 34.1221 41.7238 33.2779 41.7238H30.4923V34.2166ZM32.075 37.1991H32.9994C33.4214 37.1991 33.7295 37.1311 33.9237 36.9952C34.1178 36.8592 34.2149 36.6383 34.2149 36.3324C34.2149 36.0435 34.1094 35.8353 33.8984 35.7078C33.6873 35.5889 33.3581 35.5294 32.9107 35.5294H32.075V37.1991ZM32.075 38.4609V40.411H33.1007C33.5396 40.411 33.8646 40.3261 34.0756 40.1561C34.2782 39.9947 34.3795 39.7398 34.3795 39.3914C34.3795 38.7711 33.9364 38.4609 33.05 38.4609H32.075ZM41.5336 39.9393L42.078 41.7238H43.7747L41.141 34.191H39.2037L36.57 41.7238H38.2794L38.8239 39.9393H41.5336ZM40.318 35.8607C40.3855 36.0731 40.6683 36.9866 41.1664 38.601H39.2164C39.7482 36.8761 40.0732 35.7927 40.1914 35.3509C40.2167 35.4783 40.2589 35.6483 40.318 35.8607ZM44.7244 41.7238V34.2166H46.2945V40.411H49.3207V41.7238H44.7244ZM50.6249 34.2166V41.7238H55.2212V40.411H52.195V34.2166H50.6249ZM4.092 44.4129C3.70369 44.4129 3.39981 44.5616 3.18033 44.859C2.9693 45.1564 2.86378 45.5685 2.86378 46.0954C2.86378 47.1915 3.27319 47.7396 4.092 47.7396C4.43809 47.7396 4.85172 47.6503 5.33287 47.4719V48.3514C4.93613 48.5213 4.48874 48.6063 3.9907 48.6063C3.28163 48.6063 2.73716 48.3896 2.3573 47.9563C1.98588 47.5229 1.80017 46.8984 1.80017 46.0826C1.80017 45.5728 1.89303 45.1267 2.07874 44.7443C2.26444 44.3534 2.53035 44.056 2.87644 43.8521C3.22254 43.6482 3.62772 43.5462 4.092 43.5462C4.56471 43.5462 5.04165 43.6609 5.5228 43.8904L5.18093 44.7443C5.00366 44.6508 4.82217 44.5744 4.63646 44.5149C4.45075 44.4469 4.26926 44.4129 4.092 44.4129ZM9.34673 48.5428H10.385V43.623H9.34673V45.5476H7.40944V43.623H6.37115V48.5428H7.40944V46.4143H9.34673V48.5428ZM14.6015 48.5427L14.2469 47.3701H12.4742L12.1197 48.5427H11.0054L12.7275 43.5974H13.9937L15.7284 48.5427H14.6015ZM13.9937 46.4907L13.4365 44.6935C13.3943 44.5491 13.3648 44.4386 13.3479 44.3621C13.2804 44.651 13.0693 45.3605 12.7148 46.4907H13.9937ZM17.2351 44.6809L18.4127 48.5428H19.3624L20.6159 44.6809H20.6412C20.6159 45.3012 20.6032 45.6835 20.6032 45.828C20.5948 45.9724 20.5906 46.0999 20.5906 46.2104V48.5428H21.5655V43.623H20.1474L18.9192 47.383H18.9065L17.7543 43.623H16.3361V48.5428H17.2605V46.2486C17.2605 45.9852 17.2394 45.4626 17.1972 44.6809H17.2351ZM26.1745 45.1525C26.1745 45.6793 26.0099 46.0829 25.6807 46.3633C25.3515 46.6437 24.883 46.7839 24.2752 46.7839H23.8321V48.5428H22.7938V43.623H24.3512C24.9421 43.623 25.3937 43.7504 25.7061 44.0053C26.0184 44.2603 26.1745 44.6426 26.1745 45.1525ZM23.8321 45.9299H24.1739C24.4863 45.9299 24.7226 45.8662 24.883 45.7388C25.0434 45.6113 25.1236 45.4286 25.1236 45.1907C25.1236 44.9443 25.0561 44.7616 24.921 44.6426C24.7859 44.5322 24.5791 44.4769 24.3006 44.4769H23.8321V45.9299ZM27.0862 43.623V48.5428H28.1245V43.623H27.0862ZM33.797 46.0699C33.797 46.8856 33.5944 47.5101 33.1893 47.9435C32.7925 48.3854 32.2185 48.6063 31.4672 48.6063C30.7159 48.6063 30.1419 48.3854 29.7452 47.9435C29.34 47.5101 29.1374 46.8814 29.1374 46.0571C29.1374 45.2414 29.34 44.6169 29.7452 44.1835C30.1504 43.7586 30.7244 43.5462 31.4672 43.5462C32.2185 43.5462 32.7967 43.7629 33.2019 44.1963C33.5987 44.6296 33.797 45.2541 33.797 46.0699ZM30.2263 46.0699C30.2263 46.6222 30.3319 47.0343 30.5429 47.3062C30.7455 47.5866 31.0536 47.7268 31.4672 47.7268C32.2945 47.7268 32.7081 47.1745 32.7081 46.0699C32.7081 44.9652 32.2945 44.4129 31.4672 44.4129C31.062 44.4129 30.7539 44.5489 30.5429 44.8208C30.3319 45.1012 30.2263 45.5176 30.2263 46.0699ZM37.8235 48.5428H39.1404V43.623H38.2034V45.9427C38.2034 46.2061 38.2203 46.6607 38.254 47.3065H38.2414L36.1142 43.623H34.81V48.5428H35.7343V46.2231C35.7343 45.9427 35.7132 45.4753 35.671 44.8211H35.6963L37.8235 48.5428ZM43.2556 47.166C43.2556 47.6164 43.0952 47.969 42.7744 48.2239C42.4621 48.4788 42.0231 48.6063 41.4575 48.6063C40.9342 48.6063 40.4699 48.5086 40.0647 48.3131V47.3445C40.4024 47.4889 40.6852 47.5909 40.9131 47.6504C41.141 47.7098 41.3478 47.7396 41.5335 47.7396C41.7614 47.7396 41.9345 47.6971 42.0527 47.6121C42.1793 47.5271 42.2426 47.3954 42.2426 47.217C42.2426 47.1235 42.213 47.0386 42.154 46.9621C42.1033 46.8856 42.0273 46.8134 41.926 46.7454C41.8247 46.6774 41.6137 46.567 41.2929 46.414C40.9891 46.2696 40.7654 46.1336 40.6219 46.0061C40.4699 45.8787 40.3475 45.7257 40.2547 45.5473C40.1702 45.3774 40.128 45.1777 40.128 44.9482C40.128 44.5149 40.2758 44.1708 40.5712 43.9158C40.8582 43.6694 41.2634 43.5462 41.7868 43.5462C42.04 43.5462 42.2806 43.576 42.5085 43.6354C42.7364 43.6949 42.977 43.7799 43.2302 43.8904L42.901 44.7061C42.6393 44.5956 42.4241 44.5191 42.2553 44.4767C42.0864 44.4342 41.9176 44.4129 41.7488 44.4129C41.5546 44.4129 41.4027 44.4597 41.2929 44.5531C41.1916 44.6466 41.141 44.7656 41.141 44.91C41.141 45.0035 41.1621 45.0842 41.2043 45.1522C41.2465 45.2202 41.314 45.2881 41.4069 45.3561C41.4998 45.4156 41.7192 45.5303 42.0653 45.7002C42.5212 45.9212 42.8335 46.1421 43.0023 46.363C43.1711 46.584 43.2556 46.8516 43.2556 47.166ZM47.1175 48.5428H48.1431V43.623H47.1175V45.5476H45.1802V43.623H44.1419V48.5428H45.1802V46.4143H47.1175V48.5428ZM49.384 48.5428V43.623H50.4222V48.5428H49.384ZM54.5248 46.3633C54.854 46.0829 55.0186 45.6793 55.0186 45.1525C55.0186 44.6426 54.8667 44.2603 54.5628 44.0053C54.2505 43.7504 53.7988 43.623 53.2079 43.623H51.6505V48.5428H52.6888V46.7839H53.132C53.7313 46.7839 54.1956 46.6437 54.5248 46.3633ZM53.018 45.9299H52.6888V44.4769H53.1573C53.4359 44.4769 53.6427 44.5322 53.7777 44.6426C53.9128 44.7616 53.9803 44.9443 53.9803 45.1907C53.9803 45.4286 53.9001 45.6113 53.7397 45.7388C53.5794 45.8662 53.3388 45.9299 53.018 45.9299Z" fill="url(#paint1_radial_811_125080)"/>
<path fill-rule="evenodd" clip-rule="evenodd" d="M13.6645 40.8318C14.2807 40.1605 14.5888 39.2046 14.5888 37.964C14.5888 36.7234 14.2849 35.7675 13.6771 35.0962C13.0693 34.4334 12.1914 34.1021 11.0434 34.1021C9.90384 34.1021 9.02594 34.4334 8.40972 35.0962C7.7935 35.7505 7.48539 36.7022 7.48539 37.9513C7.48539 39.2004 7.7935 40.1605 8.40972 40.8318C9.0175 41.4946 9.89118 41.826 11.0308 41.826C12.1788 41.826 13.0567 41.4946 13.6645 40.8318ZM9.61261 39.8631C9.30028 39.4383 9.14412 38.8052 9.14412 37.964C9.14412 37.1228 9.3045 36.4898 9.62527 36.0649C9.94604 35.64 10.4188 35.4276 11.0434 35.4276C12.3012 35.4276 12.9301 36.2731 12.9301 37.964C12.9301 39.655 12.297 40.5004 11.0308 40.5004C10.4061 40.5004 9.93338 40.288 9.61261 39.8631ZM2.09139 41.7238H3.63616V38.7668H6.16856V37.4668H3.63616V35.5294H6.35849V34.2166H2.09139V41.7238ZM22.8951 37.964C22.8951 39.2046 22.5912 40.1605 21.9834 40.8318C21.3672 41.4946 20.4893 41.826 19.3497 41.826C18.2101 41.826 17.3322 41.4946 16.716 40.8318C16.1082 40.1605 15.8043 39.2004 15.8043 37.9513C15.8043 36.7022 16.1082 35.7505 16.716 35.0962C17.3322 34.4334 18.2143 34.1021 19.3624 34.1021C20.5104 34.1021 21.3841 34.4334 21.9834 35.0962C22.5912 35.7675 22.8951 36.7234 22.8951 37.964ZM17.4631 37.964C17.4631 38.8052 17.6192 39.4383 17.9316 39.8631C18.2439 40.288 18.7166 40.5004 19.3497 40.5004C20.6075 40.5004 21.2363 39.655 21.2363 37.964C21.2363 36.2731 20.6117 35.4276 19.3624 35.4276C18.7293 35.4276 18.2523 35.64 17.9316 36.0649C17.6192 36.4898 17.4631 37.1228 17.4631 37.964ZM25.744 41.7238H27.3268V35.5422H29.34V34.2166H23.7181V35.5422H25.744V41.7238ZM30.4923 34.2166H32.8094C33.873 34.2166 34.6412 34.3695 35.1139 34.6754C35.5951 34.9813 35.8357 35.4614 35.8357 36.1157C35.8357 36.5661 35.7301 36.9357 35.5191 37.2246C35.3081 37.5135 35.0295 37.6877 34.6834 37.7472V37.7982C35.1561 37.9001 35.498 38.0998 35.709 38.3972C35.9201 38.6861 36.0256 39.0727 36.0256 39.5571C36.0256 40.2368 35.7808 40.7679 35.2912 41.1503C34.7931 41.5327 34.1221 41.7238 33.2779 41.7238H30.4923V34.2166ZM32.075 37.1991H32.9994C33.4214 37.1991 33.7295 37.1311 33.9237 36.9952C34.1178 36.8592 34.2149 36.6383 34.2149 36.3324C34.2149 36.0435 34.1094 35.8353 33.8984 35.7078C33.6873 35.5889 33.3581 35.5294 32.9107 35.5294H32.075V37.1991ZM32.075 38.4609V40.411H33.1007C33.5396 40.411 33.8646 40.3261 34.0756 40.1561C34.2782 39.9947 34.3795 39.7398 34.3795 39.3914C34.3795 38.7711 33.9364 38.4609 33.05 38.4609H32.075ZM41.5336 39.9393L42.078 41.7238H43.7747L41.141 34.191H39.2037L36.57 41.7238H38.2794L38.8239 39.9393H41.5336ZM40.318 35.8607C40.3855 36.0731 40.6683 36.9866 41.1664 38.601H39.2164C39.7482 36.8761 40.0732 35.7927 40.1914 35.3509C40.2167 35.4783 40.2589 35.6483 40.318 35.8607ZM44.7244 41.7238V34.2166H46.2945V40.411H49.3207V41.7238H44.7244ZM50.6249 34.2166V41.7238H55.2212V40.411H52.195V34.2166H50.6249ZM4.092 44.4129C3.70369 44.4129 3.39981 44.5616 3.18033 44.859C2.9693 45.1564 2.86378 45.5685 2.86378 46.0954C2.86378 47.1915 3.27319 47.7396 4.092 47.7396C4.43809 47.7396 4.85172 47.6503 5.33287 47.4719V48.3514C4.93613 48.5213 4.48874 48.6063 3.9907 48.6063C3.28163 48.6063 2.73716 48.3896 2.3573 47.9563C1.98588 47.5229 1.80017 46.8984 1.80017 46.0826C1.80017 45.5728 1.89303 45.1267 2.07874 44.7443C2.26444 44.3534 2.53035 44.056 2.87644 43.8521C3.22254 43.6482 3.62772 43.5462 4.092 43.5462C4.56471 43.5462 5.04165 43.6609 5.5228 43.8904L5.18093 44.7443C5.00366 44.6508 4.82217 44.5744 4.63646 44.5149C4.45075 44.4469 4.26926 44.4129 4.092 44.4129ZM9.34673 48.5428H10.385V43.623H9.34673V45.5476H7.40944V43.623H6.37115V48.5428H7.40944V46.4143H9.34673V48.5428ZM14.6015 48.5427L14.2469 47.3701H12.4742L12.1197 48.5427H11.0054L12.7275 43.5974H13.9937L15.7284 48.5427H14.6015ZM13.9937 46.4907L13.4365 44.6935C13.3943 44.5491 13.3648 44.4386 13.3479 44.3621C13.2804 44.651 13.0693 45.3605 12.7148 46.4907H13.9937ZM17.2351 44.6809L18.4127 48.5428H19.3624L20.6159 44.6809H20.6412C20.6159 45.3012 20.6032 45.6835 20.6032 45.828C20.5948 45.9724 20.5906 46.0999 20.5906 46.2104V48.5428H21.5655V43.623H20.1474L18.9192 47.383H18.9065L17.7543 43.623H16.3361V48.5428H17.2605V46.2486C17.2605 45.9852 17.2394 45.4626 17.1972 44.6809H17.2351ZM26.1745 45.1525C26.1745 45.6793 26.0099 46.0829 25.6807 46.3633C25.3515 46.6437 24.883 46.7839 24.2752 46.7839H23.8321V48.5428H22.7938V43.623H24.3512C24.9421 43.623 25.3937 43.7504 25.7061 44.0053C26.0184 44.2603 26.1745 44.6426 26.1745 45.1525ZM23.8321 45.9299H24.1739C24.4863 45.9299 24.7226 45.8662 24.883 45.7388C25.0434 45.6113 25.1236 45.4286 25.1236 45.1907C25.1236 44.9443 25.0561 44.7616 24.921 44.6426C24.7859 44.5322 24.5791 44.4769 24.3006 44.4769H23.8321V45.9299ZM27.0862 43.623V48.5428H28.1245V43.623H27.0862ZM33.797 46.0699C33.797 46.8856 33.5944 47.5101 33.1893 47.9435C32.7925 48.3854 32.2185 48.6063 31.4672 48.6063C30.7159 48.6063 30.1419 48.3854 29.7452 47.9435C29.34 47.5101 29.1374 46.8814 29.1374 46.0571C29.1374 45.2414 29.34 44.6169 29.7452 44.1835C30.1504 43.7586 30.7244 43.5462 31.4672 43.5462C32.2185 43.5462 32.7967 43.7629 33.2019 44.1963C33.5987 44.6296 33.797 45.2541 33.797 46.0699ZM30.2263 46.0699C30.2263 46.6222 30.3319 47.0343 30.5429 47.3062C30.7455 47.5866 31.0536 47.7268 31.4672 47.7268C32.2945 47.7268 32.7081 47.1745 32.7081 46.0699C32.7081 44.9652 32.2945 44.4129 31.4672 44.4129C31.062 44.4129 30.7539 44.5489 30.5429 44.8208C30.3319 45.1012 30.2263 45.5176 30.2263 46.0699ZM37.8235 48.5428H39.1404V43.623H38.2034V45.9427C38.2034 46.2061 38.2203 46.6607 38.254 47.3065H38.2414L36.1142 43.623H34.81V48.5428H35.7343V46.2231C35.7343 45.9427 35.7132 45.4753 35.671 44.8211H35.6963L37.8235 48.5428ZM43.2556 47.166C43.2556 47.6164 43.0952 47.969 42.7744 48.2239C42.4621 48.4788 42.0231 48.6063 41.4575 48.6063C40.9342 48.6063 40.4699 48.5086 40.0647 48.3131V47.3445C40.4024 47.4889 40.6852 47.5909 40.9131 47.6504C41.141 47.7098 41.3478 47.7396 41.5335 47.7396C41.7614 47.7396 41.9345 47.6971 42.0527 47.6121C42.1793 47.5271 42.2426 47.3954 42.2426 47.217C42.2426 47.1235 42.213 47.0386 42.154 46.9621C42.1033 46.8856 42.0273 46.8134 41.926 46.7454C41.8247 46.6774 41.6137 46.567 41.2929 46.414C40.9891 46.2696 40.7654 46.1336 40.6219 46.0061C40.4699 45.8787 40.3475 45.7257 40.2547 45.5473C40.1702 45.3774 40.128 45.1777 40.128 44.9482C40.128 44.5149 40.2758 44.1708 40.5712 43.9158C40.8582 43.6694 41.2634 43.5462 41.7868 43.5462C42.04 43.5462 42.2806 43.576 42.5085 43.6354C42.7364 43.6949 42.977 43.7799 43.2302 43.8904L42.901 44.7061C42.6393 44.5956 42.4241 44.5191 42.2553 44.4767C42.0864 44.4342 41.9176 44.4129 41.7488 44.4129C41.5546 44.4129 41.4027 44.4597 41.2929 44.5531C41.1916 44.6466 41.141 44.7656 41.141 44.91C41.141 45.0035 41.1621 45.0842 41.2043 45.1522C41.2465 45.2202 41.314 45.2881 41.4069 45.3561C41.4998 45.4156 41.7192 45.5303 42.0653 45.7002C42.5212 45.9212 42.8335 46.1421 43.0023 46.363C43.1711 46.584 43.2556 46.8516 43.2556 47.166ZM47.1175 48.5428H48.1431V43.623H47.1175V45.5476H45.1802V43.623H44.1419V48.5428H45.1802V46.4143H47.1175V48.5428ZM49.384 48.5428V43.623H50.4222V48.5428H49.384ZM54.5248 46.3633C54.854 46.0829 55.0186 45.6793 55.0186 45.1525C55.0186 44.6426 54.8667 44.2603 54.5628 44.0053C54.2505 43.7504 53.7988 43.623 53.2079 43.623H51.6505V48.5428H52.6888V46.7839H53.132C53.7313 46.7839 54.1956 46.6437 54.5248 46.3633ZM53.018 45.9299H52.6888V44.4769H53.1573C53.4359 44.4769 53.6427 44.5322 53.7777 44.6426C53.9128 44.7616 53.9803 44.9443 53.9803 45.1907C53.9803 45.4286 53.9001 45.6113 53.7397 45.7388C53.5794 45.8662 53.3388 45.9299 53.018 45.9299Z" fill="url(#paint2_linear_811_125080)"/>
<defs>
<linearGradient id="paint0_linear_811_125080" x1="20.4699" y1="33.4299" x2="49.2038" y2="-7.0399" gradientUnits="userSpaceOnUse">
<stop offset="0.0742951" stop-color="#D9D9D9"/>
<stop offset="0.2113" stop-color="white"/>
<stop offset="0.336942" stop-color="#AFAFAF"/>
<stop offset="0.454972" stop-color="white"/>
<stop offset="0.691789" stop-color="white"/>
<stop offset="0.777614" stop-color="#CDCCCC"/>
<stop offset="0.864066" stop-color="white"/>
<stop offset="0.958446" stop-color="#D3D3D3"/>
</linearGradient>
<radialGradient id="paint1_radial_811_125080" cx="0" cy="0" r="1" gradientUnits="userSpaceOnUse" gradientTransform="translate(924.325 831.785) scale(878.4 1283.1)">
<stop stop-color="#BEBEBE"/>
<stop offset="0.3" stop-color="#FEFEFE"/>
<stop offset="0.5" stop-color="#CBCCCC"/>
<stop offset="0.7" stop-color="#8D8D8D"/>
<stop offset="0.9" stop-color="#BEBEBE"/>
<stop offset="1" stop-color="#BEBEBE"/>
</radialGradient>
<linearGradient id="paint2_linear_811_125080" x1="20.8402" y1="54.9314" x2="35.6047" y2="23.4748" gradientUnits="userSpaceOnUse">
<stop offset="0.0742951" stop-color="#D9D9D9"/>
<stop offset="0.2113" stop-color="white"/>
<stop offset="0.336942" stop-color="#AFAFAF"/>
<stop offset="0.454972" stop-color="white"/>
<stop offset="0.691789" stop-color="white"/>
<stop offset="0.777614" stop-color="#CDCCCC"/>
<stop offset="0.864066" stop-color="white"/>
<stop offset="0.958446" stop-color="#D3D3D3"/>
</linearGradient>
</defs>
</svg>
