<svg width="95" height="76" viewBox="0 0 95 76" fill="none" xmlns="http://www.w3.org/2000/svg">
<path fill-rule="evenodd" clip-rule="evenodd" d="M73.2663 38.5146C73.0749 38.5146 72.926 38.3648 72.926 38.1721V31.9425C72.926 30.6152 73.2025 29.395 73.7342 28.3032C74.2658 27.2328 74.9677 26.2481 75.7971 25.3703C76.6265 24.4926 77.5835 23.6791 78.6256 22.9299C79.6464 22.2163 80.6601 21.517 81.6667 20.8319C82.4749 20.2896 83.2547 19.7615 84.0061 19.2478C84.7292 18.734 85.3885 18.2202 85.9414 17.685C86.4943 17.1712 86.941 16.636 87.2812 16.1222C87.579 15.6513 87.7491 15.1375 87.7491 14.6451V9.18617C87.7491 8.73661 87.579 8.35128 87.26 8.03016C86.941 7.70905 86.5582 7.55919 86.1115 7.55919H81.4115C80.9224 7.55919 80.5396 7.70905 80.2419 8.03016C79.9229 8.35128 79.774 8.73661 79.774 9.18617V12.7827C79.774 12.9539 79.6251 13.1252 79.4337 13.1252H73.2663C73.0749 13.1252 72.926 12.9539 72.926 12.7827V9.18617C72.926 8.03016 73.16 6.91697 73.6066 5.8894C74.0532 4.86183 74.6699 3.94131 75.4355 3.17063C76.2011 2.39996 77.0943 1.77914 78.1152 1.32958C79.1572 0.880015 80.2631 0.644531 81.4541 0.644531H86.1328C87.2812 0.644531 88.3658 0.880015 89.4079 1.32958C90.4287 1.77914 91.3219 2.39996 92.0876 3.17063C92.8532 3.94131 93.4699 4.86183 93.9165 5.8894C94.3844 6.91697 94.5971 8.03016 94.5971 9.18617V14.6451C94.5971 16.1008 94.3206 17.4495 93.7464 18.6483C93.1722 19.8044 92.4278 20.8961 91.5134 21.8381C90.6201 22.78 89.6206 23.6577 88.536 24.4284C87.4939 25.1991 86.4518 25.9269 85.431 26.612C84.7221 27.0829 84.0203 27.5468 83.3256 28.0035C82.6663 28.453 82.0496 28.9026 81.5391 29.3736C81.0075 29.8231 80.5821 30.2941 80.2631 30.7222C80.0646 31.022 79.9229 31.3145 79.8378 31.6H94.3631C94.5545 31.6 94.7034 31.7498 94.7034 31.9425V38.1721C94.7034 38.3648 94.5545 38.5146 94.3631 38.5146H73.2663ZM49.1495 38.5146C48.9581 38.5146 48.8093 38.3648 48.8093 38.1721V31.9425C48.8093 30.6152 49.0858 29.395 49.6174 28.3032C50.1491 27.2328 50.8509 26.2481 51.7016 25.3703C52.531 24.4926 53.4667 23.6791 54.5088 22.9299C55.5296 22.2163 56.5434 21.517 57.55 20.8319C58.3581 20.2896 59.1379 19.7615 59.8894 19.2478C60.6124 18.734 61.2717 18.2202 61.8247 17.685C62.3776 17.1712 62.8242 16.636 63.1645 16.1222C63.4835 15.6513 63.6324 15.1375 63.6324 14.6451V9.18617C63.6324 8.73661 63.4835 8.35128 63.1432 8.03016C62.8242 7.70905 62.4414 7.55919 61.9948 7.55919H57.2948C56.8269 7.55919 56.4441 7.70905 56.1251 8.03016C55.8274 8.35128 55.6785 8.73661 55.6785 9.18617V12.7827C55.6785 12.9539 55.5084 13.1252 55.3382 13.1252H49.1495C48.9581 13.1252 48.8093 12.9539 48.8093 12.7827V9.18617C48.8093 8.03016 49.0432 6.91697 49.4898 5.8894C49.9364 4.86183 50.5532 3.94131 51.3188 3.17063C52.0844 2.39996 52.9989 1.77914 54.0197 1.32958C55.0405 0.880015 56.1676 0.644531 57.3373 0.644531H62.0161C63.1645 0.644531 64.2704 0.880015 65.2912 1.32958C66.312 1.77914 67.2265 2.39996 67.9921 3.17063C68.7364 3.94131 69.3532 4.86183 69.821 5.8894C70.2677 6.91697 70.5016 8.03016 70.5016 9.18617V14.6451C70.5016 16.1008 70.2038 17.4495 69.6296 18.6483C69.0554 19.8044 68.3111 20.8961 67.3966 21.8381C66.5034 22.78 65.5039 23.6577 64.4192 24.4284C63.3984 25.1991 62.3351 25.9269 61.3143 26.612C60.6054 27.0829 59.9106 27.5468 59.2301 28.0035C58.5495 28.453 57.9541 28.9026 57.4224 29.3736C56.912 29.8231 56.4867 30.2941 56.1676 30.7222C55.955 31.022 55.8132 31.3145 55.7423 31.6H70.2464C70.4378 31.6 70.5867 31.7498 70.5867 31.9425V38.1721C70.5867 38.3648 70.4378 38.5146 70.2464 38.5146H49.1495ZM33.3269 38.5146C32.136 38.5146 31.0301 38.2791 30.0093 37.8296C28.9885 37.38 28.074 36.7592 27.3084 35.9885C26.5428 35.2178 25.926 34.2973 25.4794 33.2697C25.0328 32.2422 24.7989 31.1076 24.7989 29.9302V9.18617C24.7989 8.03016 25.0328 6.91697 25.4794 5.8894C25.926 4.86183 26.5428 3.94131 27.3084 3.17063C28.074 2.39996 28.9885 1.77914 30.0093 1.32958C31.0301 0.880015 32.1572 0.644531 33.3269 0.644531H37.9631C39.1328 0.644531 40.26 0.880015 41.2808 1.32958C42.3016 1.77914 43.2161 2.39996 43.9817 3.17063C44.726 3.94131 45.3428 4.86183 45.8106 5.8894C46.2572 6.91697 46.4912 8.03016 46.4912 9.18617V29.9302C46.4912 31.1076 46.2572 32.2422 45.8106 33.2697C45.3428 34.2973 44.726 35.2178 43.9817 35.9885C43.2161 36.7592 42.3016 37.38 41.2808 37.8296C40.26 38.2791 39.1328 38.5146 37.9631 38.5146H33.3269ZM33.3269 7.55919C32.8378 7.55919 32.455 7.70905 32.1147 8.03016C31.7957 8.35128 31.6468 8.73661 31.6468 9.18617V29.9302C31.6468 30.4011 31.7957 30.8079 32.1147 31.129C32.455 31.4501 32.8378 31.6 33.3269 31.6H37.9419C38.4097 31.6 38.8138 31.4501 39.1328 31.129C39.4518 30.8079 39.6007 30.4011 39.6007 29.9302V9.18617C39.6007 8.73661 39.4518 8.35128 39.1328 8.03016C38.8138 7.70905 38.4097 7.55919 37.9419 7.55919H33.3269ZM1.0224 38.5146C0.830998 38.5146 0.682129 38.3648 0.682129 38.1721V31.9425C0.682129 30.6152 0.937333 29.395 1.49027 28.3032C2.02195 27.2328 2.72376 26.248 3.55317 25.3489C4.38258 24.4926 5.3396 23.6791 6.36041 22.9299C7.3954 22.2163 8.41622 21.517 9.42285 20.8319C10.2168 20.2896 10.9895 19.7615 11.741 19.2478C12.4853 18.734 13.1446 18.2202 13.6975 17.685C14.2505 17.1712 14.6971 16.636 15.0161 16.1222C15.3351 15.6513 15.5052 15.1589 15.5052 14.6451V9.18617C15.5052 8.73661 15.3351 8.35128 15.0161 8.03016C14.6971 7.70905 14.3143 7.55919 13.8676 7.55919H9.16765C8.67851 7.55919 8.2957 7.70905 7.99797 8.03016C7.67896 8.35128 7.53009 8.73661 7.53009 9.18617V12.7827C7.53009 12.9539 7.38122 13.1252 7.18982 13.1252H1.0224C0.830998 13.1252 0.682129 12.9539 0.682129 12.7827V9.18617C0.682129 8.03016 0.894799 6.91697 1.36267 5.8894C1.80928 4.86183 2.42602 3.94131 3.19163 3.17063C3.93598 2.39996 4.85045 1.77914 5.87127 1.32958C6.91335 0.880015 8.01923 0.644531 9.21018 0.644531H13.8676C15.0161 0.644531 16.1219 0.880015 17.164 1.32958C18.1848 1.77914 19.0781 2.39996 19.8437 3.17063C20.6093 3.94131 21.226 4.86183 21.6726 5.8894C22.1192 6.91697 22.3532 8.03016 22.3532 9.18617V14.6451C22.3532 16.1008 22.0767 17.4495 21.4812 18.6483C20.9283 19.8044 20.1839 20.8961 19.2695 21.8381C18.355 22.78 17.3554 23.6577 16.2921 24.4284C15.25 25.1991 14.2079 25.9269 13.1871 26.612C12.4782 27.0829 11.7764 27.5468 11.0817 28.0035C10.4224 28.453 9.80566 28.9026 9.27398 29.3736C8.76358 29.8231 8.33824 30.2727 8.01923 30.7222C7.80656 31.022 7.66478 31.3145 7.59389 31.6H22.1192C22.3106 31.6 22.4595 31.7498 22.4595 31.9425V38.1721C22.4595 38.3648 22.3106 38.5146 22.1192 38.5146H1.0224Z" fill="url(#paint0_linear_1554_135813)"/>
<path fill-rule="evenodd" clip-rule="evenodd" d="M12.3044 44.7839L14.5587 47.0531L16.813 44.7839L14.5587 42.5146L12.3044 44.7839ZM21.7683 44.7839L24.0226 47.0531L26.2769 44.7839L24.0226 42.5146L21.7683 44.7839ZM33.4864 47.0531L31.2321 44.7839L33.4864 42.5146L35.7407 44.7839L33.4864 47.0531ZM40.7172 44.7839L42.9502 47.0531L45.2045 44.7839L42.9502 42.5146L40.7172 44.7839ZM52.4352 47.0531L50.1809 44.7839L52.4352 42.5146L54.6895 44.7839L52.4352 47.0531ZM59.6448 44.7839L61.8991 47.0531L64.1534 44.7839L61.8991 42.5146L59.6448 44.7839ZM71.3628 47.0531L69.1085 44.7839L71.3628 42.5146L73.6171 44.7839L71.3628 47.0531ZM78.5723 44.7839L80.8266 47.0531L83.0809 44.7839L80.8266 42.5146L78.5723 44.7839Z" fill="#FCCA3E"/>
<path fill-rule="evenodd" clip-rule="evenodd" d="M22.7572 62.356C23.7922 61.2285 24.3097 59.6229 24.3097 57.5392C24.3097 55.4556 23.7993 53.85 22.7785 52.7225C21.7576 51.6093 20.2831 51.0527 18.3549 51.0527C16.4409 51.0527 14.9664 51.6093 13.9314 52.7225C12.8964 53.8215 12.3789 55.4199 12.3789 57.5178C12.3789 59.6158 12.8964 61.2285 13.9314 62.356C14.9522 63.4692 16.4196 64.0258 18.3337 64.0258C20.2619 64.0258 21.7364 63.4692 22.7572 62.356ZM15.9518 60.729C15.4272 60.0154 15.1649 58.9522 15.1649 57.5392C15.1649 56.1263 15.4343 55.0631 15.973 54.3495C16.5118 53.6359 17.3058 53.2791 18.3549 53.2791C20.4674 53.2791 21.5237 54.6992 21.5237 57.5392C21.5237 60.3793 20.4604 61.7994 18.3337 61.7994C17.2845 61.7994 16.4905 61.4426 15.9518 60.729ZM3.31921 63.8542H5.91378V58.8876H10.1672V56.7041H5.91378V53.4501H10.4862V51.2451H3.31921V63.8542ZM38.2608 57.5392C38.2608 59.6229 37.7504 61.2285 36.7296 62.356C35.6946 63.4692 34.2201 64.0258 32.3061 64.0258C30.392 64.0258 28.9175 63.4692 27.8825 62.356C26.8617 61.2285 26.3513 59.6158 26.3513 57.5178C26.3513 55.4199 26.8617 53.8215 27.8825 52.7225C28.9175 51.6093 30.3991 51.0527 32.3273 51.0527C34.2555 51.0527 35.723 51.6093 36.7296 52.7225C37.7504 53.85 38.2608 55.4556 38.2608 57.5392ZM29.1373 57.5392C29.1373 58.9522 29.3996 60.0154 29.9242 60.729C30.4488 61.4426 31.2427 61.7994 32.3061 61.7994C34.4186 61.7994 35.4748 60.3793 35.4748 57.5392C35.4748 54.6992 34.4257 53.2791 32.3273 53.2791C31.264 53.2791 30.4629 53.6359 29.9242 54.3495C29.3996 55.0631 29.1373 56.1263 29.1373 57.5392ZM43.0459 63.8542H45.7043V53.4715H49.0857V51.2451H39.6432V53.4715H43.0459V63.8542ZM51.021 51.2451H54.9129C56.6993 51.2451 57.9895 51.502 58.7834 52.0158C59.5916 52.5296 59.9957 53.3359 59.9957 54.4349C59.9957 55.1913 59.8184 55.8121 59.464 56.2973C59.1095 56.7826 58.6417 57.0751 58.0604 57.175V57.2607C58.8543 57.4319 59.4285 57.7673 59.783 58.2668C60.1374 58.7521 60.3147 59.4014 60.3147 60.2149C60.3147 61.3567 59.9035 62.2486 59.0812 62.8909C58.2447 63.5331 57.1175 63.8542 55.6997 63.8542H51.021V51.2451ZM53.6794 56.2545H55.2319C55.9408 56.2545 56.4582 56.1403 56.7843 55.912C57.1104 55.6836 57.2735 55.3126 57.2735 54.7988C57.2735 54.3135 57.0963 53.9639 56.7418 53.7498C56.3874 53.55 55.8344 53.4501 55.083 53.4501H53.6794V56.2545ZM53.6794 58.3739V61.6492H55.402C56.1392 61.6492 56.6851 61.5065 57.0395 61.2211C57.3798 60.9499 57.55 60.5218 57.55 59.9366C57.55 58.8948 56.8056 58.3739 55.3169 58.3739H53.6794ZM69.5658 60.857L70.4803 63.8541H73.33L68.9065 51.2021H65.6527L61.2291 63.8541H64.1002L65.0146 60.857H69.5658ZM67.5241 54.0065C67.6376 54.3633 68.1125 55.8976 68.949 58.6092H65.6739C66.5671 55.712 67.113 53.8924 67.3115 53.1502C67.354 53.3643 67.4249 53.6498 67.5241 54.0065ZM74.925 63.8542V51.2451H77.5621V61.6492H82.645V63.8542H74.925ZM84.8354 51.2451V63.8542H92.5554V61.6492H87.4726V51.2451H84.8354ZM6.6794 68.3708C6.02721 68.3708 5.51681 68.6205 5.14818 69.12C4.79373 69.6195 4.6165 70.3117 4.6165 71.1966C4.6165 73.0376 5.30414 73.9581 6.6794 73.9581C7.2607 73.9581 7.95542 73.8083 8.76356 73.5086V74.9857C8.0972 75.2712 7.34576 75.4139 6.50926 75.4139C5.31831 75.4139 4.40383 75.0499 3.76582 74.3221C3.14199 73.5942 2.83008 72.5452 2.83008 71.1752C2.83008 70.3188 2.98604 69.5696 3.29795 68.9274C3.60987 68.2709 4.05647 67.7713 4.63777 67.4288C5.21907 67.0863 5.89961 66.915 6.6794 66.915C7.47337 66.915 8.27442 67.1077 9.08257 67.493L8.50836 68.9274C8.21062 68.7704 7.90579 68.6419 7.59388 68.542C7.28196 68.4278 6.97714 68.3708 6.6794 68.3708ZM15.5052 75.3073H17.2491V67.0439H15.5052V70.2765H12.2513V67.0439H10.5074V75.3073H12.2513V71.7322H15.5052V75.3073ZM24.331 75.3071L23.7355 73.3376H20.7581L20.1626 75.3071H18.2911L21.1834 67.001H23.3101L26.2237 75.3071H24.331ZM23.3101 71.8605L22.3744 68.842C22.3035 68.5994 22.2539 68.4139 22.2255 68.2854C22.1121 68.7707 21.7577 69.9624 21.1622 71.8605H23.3101ZM28.7545 68.8208L30.7323 75.3073H32.3273L34.4327 68.8208H34.4753C34.4327 69.8626 34.4115 70.5048 34.4115 70.7475C34.3973 70.9901 34.3902 71.2042 34.3902 71.3897V75.3073H36.0278V67.0439H33.6459L31.583 73.3592H31.5617L29.6264 67.0439H27.2445V75.3073H28.797V71.4539C28.797 71.0115 28.7616 70.1338 28.6907 68.8208H28.7545ZM43.769 69.6129C43.769 70.4977 43.4925 71.1756 42.9396 71.6466C42.3866 72.1176 41.5997 72.353 40.5789 72.353H39.8346V75.3073H38.0907V67.0439H40.7065C41.699 67.0439 42.4575 67.258 42.9821 67.6862C43.5067 68.1143 43.769 68.7566 43.769 69.6129ZM39.8346 70.9187H40.4088C40.9334 70.9187 41.3304 70.8117 41.5997 70.5976C41.8691 70.3835 42.0038 70.0767 42.0038 69.6771C42.0038 69.2632 41.8904 68.9564 41.6636 68.7566C41.4367 68.571 41.0893 68.4783 40.6215 68.4783H39.8346V70.9187ZM45.3002 67.0439V75.3073H47.0441V67.0439H45.3002ZM56.5716 71.1537C56.5716 72.5238 56.2313 73.5728 55.5508 74.3007C54.8844 75.0428 53.9203 75.4139 52.6585 75.4139C51.3966 75.4139 50.4325 75.0428 49.7662 74.3007C49.0856 73.5728 48.7454 72.5167 48.7454 71.1323C48.7454 69.7623 49.0856 68.7133 49.7662 67.9854C50.4467 67.2718 51.4108 66.915 52.6585 66.915C53.9203 66.915 54.8915 67.279 55.5721 68.0068C56.2384 68.7347 56.5716 69.7837 56.5716 71.1537ZM50.5743 71.1537C50.5743 72.0814 50.7515 72.7736 51.106 73.2303C51.4463 73.7013 51.9638 73.9367 52.6585 73.9367C54.0479 73.9367 54.7426 73.0091 54.7426 71.1537C54.7426 69.2984 54.0479 68.3708 52.6585 68.3708C51.9779 68.3708 51.4604 68.5991 51.106 69.0558C50.7515 69.5268 50.5743 70.2261 50.5743 71.1537ZM63.3345 75.3073H65.5463V67.0439H63.9725V70.9401C63.9725 71.3826 64.0009 72.1461 64.0576 73.2307H64.0363L60.4635 67.0439H58.2729V75.3073H59.8254V71.4111C59.8254 70.9401 59.79 70.1552 59.7191 69.0563H59.7616L63.3345 75.3073ZM72.458 72.9948C72.458 73.7512 72.1886 74.3435 71.6499 74.7716C71.1253 75.1998 70.388 75.4139 69.4381 75.4139C68.5591 75.4139 67.7793 75.2497 67.0988 74.9215V73.2945C67.6659 73.5371 68.1408 73.7084 68.5236 73.8083C68.9064 73.9082 69.2538 73.9581 69.5657 73.9581C69.9485 73.9581 70.2392 73.8868 70.4377 73.7441C70.6503 73.6014 70.7567 73.3801 70.7567 73.0804C70.7567 72.9234 70.7071 72.7807 70.6078 72.6523C70.5227 72.5238 70.3951 72.4025 70.225 72.2884C70.0549 72.1742 69.7004 71.9886 69.1617 71.7318C68.6512 71.4891 68.2755 71.2608 68.0345 71.0467C67.7793 70.8326 67.5737 70.5757 67.4178 70.276C67.276 69.9906 67.2051 69.6552 67.2051 69.2699C67.2051 68.542 67.4532 67.964 67.9494 67.5359C68.4315 67.122 69.112 66.915 69.9911 66.915C70.4164 66.915 70.8205 66.965 71.2033 67.0649C71.5861 67.1648 71.9902 67.3075 72.4155 67.493L71.8626 68.8631C71.423 68.6776 71.0615 68.5492 70.7779 68.4778C70.4944 68.4064 70.2108 68.3708 69.9273 68.3708C69.6012 68.3708 69.346 68.4493 69.1617 68.6062C68.9915 68.7632 68.9064 68.963 68.9064 69.2057C68.9064 69.3626 68.9419 69.4982 69.0128 69.6124C69.0837 69.7266 69.1971 69.8407 69.3531 69.9549C69.509 70.0548 69.8776 70.2475 70.4589 70.5329C71.2245 70.904 71.7491 71.2751 72.0327 71.6461C72.3163 72.0172 72.458 72.4667 72.458 72.9948ZM78.9445 75.3073H80.6671V67.0439H78.9445V70.2765H75.6907V67.0439H73.9468V75.3073H75.6907V71.7322H78.9445V75.3073ZM82.7513 75.3073V67.0439H84.4952V75.3073H82.7513ZM91.3857 71.6466C91.9387 71.1756 92.2151 70.4977 92.2151 69.6129C92.2151 68.7566 91.9599 68.1143 91.4495 67.6862C90.9249 67.258 90.1664 67.0439 89.174 67.0439H86.5581V75.3073H88.302V72.353H89.0463C90.053 72.353 90.8328 72.1176 91.3857 71.6466ZM88.8549 70.9187H88.302V68.4783H89.0889C89.5567 68.4783 89.9041 68.571 90.131 68.7566C90.3578 68.9564 90.4712 69.2632 90.4712 69.6771C90.4712 70.0767 90.3365 70.3835 90.0672 70.5976C89.7978 70.8117 89.3937 70.9187 88.8549 70.9187Z" fill="url(#paint1_radial_1554_135813)"/>
<path fill-rule="evenodd" clip-rule="evenodd" d="M22.7572 62.356C23.7922 61.2285 24.3097 59.6229 24.3097 57.5392C24.3097 55.4556 23.7993 53.85 22.7785 52.7225C21.7576 51.6093 20.2831 51.0527 18.3549 51.0527C16.4409 51.0527 14.9664 51.6093 13.9314 52.7225C12.8964 53.8215 12.3789 55.4199 12.3789 57.5178C12.3789 59.6158 12.8964 61.2285 13.9314 62.356C14.9522 63.4692 16.4196 64.0258 18.3337 64.0258C20.2619 64.0258 21.7364 63.4692 22.7572 62.356ZM15.9518 60.729C15.4272 60.0154 15.1649 58.9522 15.1649 57.5392C15.1649 56.1263 15.4343 55.0631 15.973 54.3495C16.5118 53.6359 17.3058 53.2791 18.3549 53.2791C20.4674 53.2791 21.5237 54.6992 21.5237 57.5392C21.5237 60.3793 20.4604 61.7994 18.3337 61.7994C17.2845 61.7994 16.4905 61.4426 15.9518 60.729ZM3.31921 63.8542H5.91378V58.8876H10.1672V56.7041H5.91378V53.4501H10.4862V51.2451H3.31921V63.8542ZM38.2608 57.5392C38.2608 59.6229 37.7504 61.2285 36.7296 62.356C35.6946 63.4692 34.2201 64.0258 32.3061 64.0258C30.392 64.0258 28.9175 63.4692 27.8825 62.356C26.8617 61.2285 26.3513 59.6158 26.3513 57.5178C26.3513 55.4199 26.8617 53.8215 27.8825 52.7225C28.9175 51.6093 30.3991 51.0527 32.3273 51.0527C34.2555 51.0527 35.723 51.6093 36.7296 52.7225C37.7504 53.85 38.2608 55.4556 38.2608 57.5392ZM29.1373 57.5392C29.1373 58.9522 29.3996 60.0154 29.9242 60.729C30.4488 61.4426 31.2427 61.7994 32.3061 61.7994C34.4186 61.7994 35.4748 60.3793 35.4748 57.5392C35.4748 54.6992 34.4257 53.2791 32.3273 53.2791C31.264 53.2791 30.4629 53.6359 29.9242 54.3495C29.3996 55.0631 29.1373 56.1263 29.1373 57.5392ZM43.0459 63.8542H45.7043V53.4715H49.0857V51.2451H39.6432V53.4715H43.0459V63.8542ZM51.021 51.2451H54.9129C56.6993 51.2451 57.9895 51.502 58.7834 52.0158C59.5916 52.5296 59.9957 53.3359 59.9957 54.4349C59.9957 55.1913 59.8184 55.8121 59.464 56.2973C59.1095 56.7826 58.6417 57.0751 58.0604 57.175V57.2607C58.8543 57.4319 59.4285 57.7673 59.783 58.2668C60.1374 58.7521 60.3147 59.4014 60.3147 60.2149C60.3147 61.3567 59.9035 62.2486 59.0812 62.8909C58.2447 63.5331 57.1175 63.8542 55.6997 63.8542H51.021V51.2451ZM53.6794 56.2545H55.2319C55.9408 56.2545 56.4582 56.1403 56.7843 55.912C57.1104 55.6836 57.2735 55.3126 57.2735 54.7988C57.2735 54.3135 57.0963 53.9639 56.7418 53.7498C56.3874 53.55 55.8344 53.4501 55.083 53.4501H53.6794V56.2545ZM53.6794 58.3739V61.6492H55.402C56.1392 61.6492 56.6851 61.5065 57.0395 61.2211C57.3798 60.9499 57.55 60.5218 57.55 59.9366C57.55 58.8948 56.8056 58.3739 55.3169 58.3739H53.6794ZM69.5658 60.857L70.4803 63.8541H73.33L68.9065 51.2021H65.6527L61.2291 63.8541H64.1002L65.0146 60.857H69.5658ZM67.5241 54.0065C67.6376 54.3633 68.1125 55.8976 68.949 58.6092H65.6739C66.5671 55.712 67.113 53.8924 67.3115 53.1502C67.354 53.3643 67.4249 53.6498 67.5241 54.0065ZM74.925 63.8542V51.2451H77.5621V61.6492H82.645V63.8542H74.925ZM84.8354 51.2451V63.8542H92.5554V61.6492H87.4726V51.2451H84.8354ZM6.6794 68.3708C6.02721 68.3708 5.51681 68.6205 5.14818 69.12C4.79373 69.6195 4.6165 70.3117 4.6165 71.1966C4.6165 73.0376 5.30414 73.9581 6.6794 73.9581C7.2607 73.9581 7.95542 73.8083 8.76356 73.5086V74.9857C8.0972 75.2712 7.34576 75.4139 6.50926 75.4139C5.31831 75.4139 4.40383 75.0499 3.76582 74.3221C3.14199 73.5942 2.83008 72.5452 2.83008 71.1752C2.83008 70.3188 2.98604 69.5696 3.29795 68.9274C3.60987 68.2709 4.05647 67.7713 4.63777 67.4288C5.21907 67.0863 5.89961 66.915 6.6794 66.915C7.47337 66.915 8.27442 67.1077 9.08257 67.493L8.50836 68.9274C8.21062 68.7704 7.90579 68.6419 7.59388 68.542C7.28196 68.4278 6.97714 68.3708 6.6794 68.3708ZM15.5052 75.3073H17.2491V67.0439H15.5052V70.2765H12.2513V67.0439H10.5074V75.3073H12.2513V71.7322H15.5052V75.3073ZM24.331 75.3071L23.7355 73.3376H20.7581L20.1626 75.3071H18.2911L21.1834 67.001H23.3101L26.2237 75.3071H24.331ZM23.3101 71.8605L22.3744 68.842C22.3035 68.5994 22.2539 68.4139 22.2255 68.2854C22.1121 68.7707 21.7577 69.9624 21.1622 71.8605H23.3101ZM28.7545 68.8208L30.7323 75.3073H32.3273L34.4327 68.8208H34.4753C34.4327 69.8626 34.4115 70.5048 34.4115 70.7475C34.3973 70.9901 34.3902 71.2042 34.3902 71.3897V75.3073H36.0278V67.0439H33.6459L31.583 73.3592H31.5617L29.6264 67.0439H27.2445V75.3073H28.797V71.4539C28.797 71.0115 28.7616 70.1338 28.6907 68.8208H28.7545ZM43.769 69.6129C43.769 70.4977 43.4925 71.1756 42.9396 71.6466C42.3866 72.1176 41.5997 72.353 40.5789 72.353H39.8346V75.3073H38.0907V67.0439H40.7065C41.699 67.0439 42.4575 67.258 42.9821 67.6862C43.5067 68.1143 43.769 68.7566 43.769 69.6129ZM39.8346 70.9187H40.4088C40.9334 70.9187 41.3304 70.8117 41.5997 70.5976C41.8691 70.3835 42.0038 70.0767 42.0038 69.6771C42.0038 69.2632 41.8904 68.9564 41.6636 68.7566C41.4367 68.571 41.0893 68.4783 40.6215 68.4783H39.8346V70.9187ZM45.3002 67.0439V75.3073H47.0441V67.0439H45.3002ZM56.5716 71.1537C56.5716 72.5238 56.2313 73.5728 55.5508 74.3007C54.8844 75.0428 53.9203 75.4139 52.6585 75.4139C51.3966 75.4139 50.4325 75.0428 49.7662 74.3007C49.0856 73.5728 48.7454 72.5167 48.7454 71.1323C48.7454 69.7623 49.0856 68.7133 49.7662 67.9854C50.4467 67.2718 51.4108 66.915 52.6585 66.915C53.9203 66.915 54.8915 67.279 55.5721 68.0068C56.2384 68.7347 56.5716 69.7837 56.5716 71.1537ZM50.5743 71.1537C50.5743 72.0814 50.7515 72.7736 51.106 73.2303C51.4463 73.7013 51.9638 73.9367 52.6585 73.9367C54.0479 73.9367 54.7426 73.0091 54.7426 71.1537C54.7426 69.2984 54.0479 68.3708 52.6585 68.3708C51.9779 68.3708 51.4604 68.5991 51.106 69.0558C50.7515 69.5268 50.5743 70.2261 50.5743 71.1537ZM63.3345 75.3073H65.5463V67.0439H63.9725V70.9401C63.9725 71.3826 64.0009 72.1461 64.0576 73.2307H64.0363L60.4635 67.0439H58.2729V75.3073H59.8254V71.4111C59.8254 70.9401 59.79 70.1552 59.7191 69.0563H59.7616L63.3345 75.3073ZM72.458 72.9948C72.458 73.7512 72.1886 74.3435 71.6499 74.7716C71.1253 75.1998 70.388 75.4139 69.4381 75.4139C68.5591 75.4139 67.7793 75.2497 67.0988 74.9215V73.2945C67.6659 73.5371 68.1408 73.7084 68.5236 73.8083C68.9064 73.9082 69.2538 73.9581 69.5657 73.9581C69.9485 73.9581 70.2392 73.8868 70.4377 73.7441C70.6503 73.6014 70.7567 73.3801 70.7567 73.0804C70.7567 72.9234 70.7071 72.7807 70.6078 72.6523C70.5227 72.5238 70.3951 72.4025 70.225 72.2884C70.0549 72.1742 69.7004 71.9886 69.1617 71.7318C68.6512 71.4891 68.2755 71.2608 68.0345 71.0467C67.7793 70.8326 67.5737 70.5757 67.4178 70.276C67.276 69.9906 67.2051 69.6552 67.2051 69.2699C67.2051 68.542 67.4532 67.964 67.9494 67.5359C68.4315 67.122 69.112 66.915 69.9911 66.915C70.4164 66.915 70.8205 66.965 71.2033 67.0649C71.5861 67.1648 71.9902 67.3075 72.4155 67.493L71.8626 68.8631C71.423 68.6776 71.0615 68.5492 70.7779 68.4778C70.4944 68.4064 70.2108 68.3708 69.9273 68.3708C69.6012 68.3708 69.346 68.4493 69.1617 68.6062C68.9915 68.7632 68.9064 68.963 68.9064 69.2057C68.9064 69.3626 68.9419 69.4982 69.0128 69.6124C69.0837 69.7266 69.1971 69.8407 69.3531 69.9549C69.509 70.0548 69.8776 70.2475 70.4589 70.5329C71.2245 70.904 71.7491 71.2751 72.0327 71.6461C72.3163 72.0172 72.458 72.4667 72.458 72.9948ZM78.9445 75.3073H80.6671V67.0439H78.9445V70.2765H75.6907V67.0439H73.9468V75.3073H75.6907V71.7322H78.9445V75.3073ZM82.7513 75.3073V67.0439H84.4952V75.3073H82.7513ZM91.3857 71.6466C91.9387 71.1756 92.2151 70.4977 92.2151 69.6129C92.2151 68.7566 91.9599 68.1143 91.4495 67.6862C90.9249 67.258 90.1664 67.0439 89.174 67.0439H86.5581V75.3073H88.302V72.353H89.0463C90.053 72.353 90.8328 72.1176 91.3857 71.6466ZM88.8549 70.9187H88.302V68.4783H89.0889C89.5567 68.4783 89.9041 68.571 90.131 68.7566C90.3578 68.9564 90.4712 69.2632 90.4712 69.6771C90.4712 70.0767 90.3365 70.3835 90.0672 70.5976C89.7978 70.8117 89.3937 70.9187 88.8549 70.9187Z" fill="url(#paint2_linear_1554_135813)"/>
<defs>
<linearGradient id="paint0_linear_1554_135813" x1="34.1927" y1="55.0293" x2="81.1928" y2="-12.4707" gradientUnits="userSpaceOnUse">
<stop offset="0.0742951" stop-color="#D9D9D9"/>
<stop offset="0.2113" stop-color="white"/>
<stop offset="0.336942" stop-color="#AFAFAF"/>
<stop offset="0.454972" stop-color="white"/>
<stop offset="0.691789" stop-color="white"/>
<stop offset="0.777614" stop-color="#CDCCCC"/>
<stop offset="0.864066" stop-color="white"/>
<stop offset="0.958446" stop-color="#D3D3D3"/>
</linearGradient>
<radialGradient id="paint1_radial_1554_135813" cx="0" cy="0" r="1" gradientUnits="userSpaceOnUse" gradientTransform="translate(1552.29 1390.83) scale(1475.35 2155.08)">
<stop stop-color="#BEBEBE"/>
<stop offset="0.3" stop-color="#FEFEFE"/>
<stop offset="0.5" stop-color="#CBCCCC"/>
<stop offset="0.7" stop-color="#8D8D8D"/>
<stop offset="0.9" stop-color="#BEBEBE"/>
<stop offset="1" stop-color="#BEBEBE"/>
</radialGradient>
<linearGradient id="paint2_linear_1554_135813" x1="34.8095" y1="86.0375" x2="59.6078" y2="33.2033" gradientUnits="userSpaceOnUse">
<stop offset="0.0742951" stop-color="#D9D9D9"/>
<stop offset="0.2113" stop-color="white"/>
<stop offset="0.336942" stop-color="#AFAFAF"/>
<stop offset="0.454972" stop-color="white"/>
<stop offset="0.691789" stop-color="white"/>
<stop offset="0.777614" stop-color="#CDCCCC"/>
<stop offset="0.864066" stop-color="white"/>
<stop offset="0.958446" stop-color="#D3D3D3"/>
</linearGradient>
</defs>
</svg>
