<svg width="95" height="75" viewBox="0 0 95 75" fill="none" xmlns="http://www.w3.org/2000/svg">
<path fill-rule="evenodd" clip-rule="evenodd" d="M73.0842 37.8911C72.8928 37.8911 72.7439 37.7413 72.7439 37.5486V31.319C72.7439 29.9917 73.0204 28.7715 73.552 27.6797C74.0837 26.6093 74.7855 25.6246 75.6149 24.7469C76.4443 23.8692 77.4014 23.0557 78.4434 22.3064C79.4643 21.5928 80.478 20.8935 81.4846 20.2084C82.2928 19.6661 83.0725 19.1381 83.824 18.6243C84.5471 18.1105 85.2063 17.5967 85.7593 17.0615C86.3122 16.5477 86.7588 16.0126 87.0991 15.4988C87.3968 15.0278 87.567 14.514 87.567 14.0216V8.5627C87.567 8.11314 87.3968 7.7278 87.0778 7.40669C86.7588 7.08557 86.376 6.93572 85.9294 6.93572H81.2294C80.7403 6.93572 80.3575 7.08557 80.0597 7.40669C79.7407 7.7278 79.5919 8.11314 79.5919 8.5627V12.1592C79.5919 12.3304 79.443 12.5017 79.2516 12.5017H73.0842C72.8928 12.5017 72.7439 12.3304 72.7439 12.1592V8.5627C72.7439 7.40669 72.9778 6.29349 73.4244 5.26593C73.871 4.23836 74.4878 3.31783 75.2534 2.54716C76.019 1.77648 76.9122 1.15566 77.933 0.706101C78.9751 0.256541 80.081 0.0210571 81.2719 0.0210571H85.9507C87.0991 0.0210571 88.1837 0.256541 89.2258 0.706101C90.2466 1.15566 91.1398 1.77648 91.9054 2.54716C92.671 3.31783 93.2878 4.23836 93.7344 5.26593C94.2023 6.29349 94.4149 7.40669 94.4149 8.5627V14.0216C94.4149 15.4774 94.1385 16.826 93.5643 18.0249C92.9901 19.1809 92.2457 20.2727 91.3312 21.2146C90.438 22.1565 89.4385 23.0343 88.3539 23.8049C87.3118 24.5756 86.2697 25.3035 85.2489 25.9885C84.54 26.4595 83.8382 26.9233 83.1434 27.38C82.4842 27.8296 81.8674 28.2791 81.357 28.7501C80.8253 29.1996 80.4 29.6706 80.081 30.0988C79.8825 30.3985 79.7407 30.691 79.6557 30.9765H94.181C94.3724 30.9765 94.5213 31.1263 94.5213 31.319V37.5486C94.5213 37.7413 94.3724 37.8911 94.181 37.8911H73.0842ZM48.9674 37.8911C48.776 37.8911 48.6272 37.7413 48.6272 37.5486V31.319C48.6272 29.9917 48.9036 28.7715 49.4353 27.6797C49.967 26.6093 50.6688 25.6246 51.5195 24.7469C52.3489 23.8692 53.2846 23.0557 54.3267 22.3064C55.3475 21.5928 56.3612 20.8935 57.3679 20.2084C58.176 19.6661 58.9558 19.1381 59.7072 18.6243C60.4303 18.1105 61.0896 17.5967 61.6425 17.0615C62.1955 16.5477 62.6421 16.0126 62.9823 15.4988C63.3014 15.0278 63.4502 14.514 63.4502 14.0216V8.5627C63.4502 8.11314 63.3014 7.7278 62.9611 7.40669C62.6421 7.08557 62.2593 6.93572 61.8127 6.93572H57.1127C56.6448 6.93572 56.262 7.08557 55.943 7.40669C55.6453 7.7278 55.4964 8.11314 55.4964 8.5627V12.1592C55.4964 12.3304 55.3262 12.5017 55.1561 12.5017H48.9674C48.776 12.5017 48.6272 12.3304 48.6272 12.1592V8.5627C48.6272 7.40669 48.8611 6.29349 49.3077 5.26593C49.7543 4.23836 50.371 3.31783 51.1367 2.54716C51.9023 1.77648 52.8167 1.15566 53.8376 0.706101C54.8584 0.256541 55.9855 0.0210571 57.1552 0.0210571H61.8339C62.9824 0.0210571 64.0882 0.256541 65.109 0.706101C66.1299 1.15566 67.0443 1.77648 67.81 2.54716C68.5543 3.31783 69.171 4.23836 69.6389 5.26593C70.0855 6.29349 70.3195 7.40669 70.3195 8.5627V14.0216C70.3195 15.4774 70.0217 16.826 69.4475 18.0249C68.8733 19.1809 68.129 20.2727 67.2145 21.2146C66.3213 22.1565 65.3217 23.0343 64.2371 23.8049C63.2163 24.5756 62.1529 25.3035 61.1321 25.9885C60.4232 26.4595 59.7285 26.9233 59.048 27.38C58.3674 27.8296 57.7719 28.2791 57.2403 28.7501C56.7299 29.1996 56.3045 29.6706 55.9855 30.0988C55.7729 30.3985 55.6311 30.691 55.5602 30.9765H70.0643C70.2557 30.9765 70.4045 31.1263 70.4045 31.319V37.5486C70.4045 37.7413 70.2557 37.8911 70.0643 37.8911H48.9674ZM33.1448 37.8911C31.9538 37.8911 30.848 37.6557 29.8271 37.2061C28.8063 36.7565 27.8919 36.1357 27.1262 35.365C26.3606 34.5944 25.7439 33.6738 25.2973 32.6463C24.8507 31.6187 24.6167 30.4841 24.6167 29.3067V8.5627C24.6167 7.40669 24.8507 6.29349 25.2973 5.26593C25.7439 4.23836 26.3606 3.31783 27.1262 2.54716C27.8919 1.77648 28.8063 1.15566 29.8271 0.706101C30.848 0.256541 31.9751 0.0210571 33.1448 0.0210571H37.781C38.9507 0.0210571 40.0778 0.256541 41.0986 0.706101C42.1195 1.15566 43.0339 1.77648 43.7995 2.54716C44.5439 3.31783 45.1606 4.23836 45.6285 5.26593C46.0751 6.29349 46.309 7.40669 46.309 8.5627V29.3067C46.309 30.4841 46.0751 31.6187 45.6285 32.6463C45.1606 33.6738 44.5439 34.5944 43.7995 35.365C43.0339 36.1357 42.1195 36.7565 41.0986 37.2061C40.0778 37.6557 38.9507 37.8911 37.781 37.8911H33.1448ZM33.1448 6.93572C32.6557 6.93572 32.2729 7.08557 31.9326 7.40669C31.6136 7.7278 31.4647 8.11314 31.4647 8.5627V29.3067C31.4647 29.7777 31.6136 30.1844 31.9326 30.5055C32.2729 30.8266 32.6557 30.9765 33.1448 30.9765H37.7597C38.2276 30.9765 38.6317 30.8266 38.9507 30.5055C39.2697 30.1844 39.4186 29.7777 39.4186 29.3067V8.5627C39.4186 8.11314 39.2697 7.7278 38.9507 7.40669C38.6317 7.08557 38.2276 6.93572 37.7597 6.93572H33.1448ZM0.840272 37.8911C0.648869 37.8911 0.5 37.7413 0.5 37.5486V31.319C0.5 29.9917 0.755204 28.7715 1.30814 27.6797C1.83982 26.6093 2.54163 25.6246 3.37104 24.7255C4.20045 23.8692 5.15747 23.0557 6.17828 22.3064C7.21327 21.5928 8.23409 20.8935 9.24072 20.2084C10.0347 19.6661 10.8074 19.1381 11.5588 18.6243C12.3032 18.1105 12.9624 17.5967 13.5154 17.0615C14.0683 16.5477 14.5149 16.0126 14.8339 15.4988C15.1529 15.0278 15.3231 14.5354 15.3231 14.0216V8.5627C15.3231 8.11314 15.1529 7.7278 14.8339 7.40669C14.5149 7.08557 14.1321 6.93572 13.6855 6.93572H8.98552C8.49638 6.93572 8.11357 7.08557 7.81584 7.40669C7.49683 7.7278 7.34796 8.11314 7.34796 8.5627V12.1592C7.34796 12.3304 7.1991 12.5017 7.00769 12.5017H0.840272C0.648869 12.5017 0.5 12.3304 0.5 12.1592V8.5627C0.5 7.40669 0.71267 6.29349 1.18054 5.26593C1.62715 4.23836 2.24389 3.31783 3.0095 2.54716C3.75385 1.77648 4.66833 1.15566 5.68914 0.706101C6.73122 0.256541 7.8371 0.0210571 9.02805 0.0210571H13.6855C14.8339 0.0210571 15.9398 0.256541 16.9819 0.706101C18.0027 1.15566 18.8959 1.77648 19.6615 2.54716C20.4271 3.31783 21.0439 4.23836 21.4905 5.26593C21.9371 6.29349 22.171 7.40669 22.171 8.5627V14.0216C22.171 15.4774 21.8946 16.826 21.2991 18.0249C20.7462 19.1809 20.0018 20.2727 19.0873 21.2146C18.1729 22.1565 17.1733 23.0343 16.11 23.8049C15.0679 24.5756 14.0258 25.3035 13.005 25.9885C12.2961 26.4595 11.5943 26.9233 10.8995 27.38C10.2403 27.8296 9.62353 28.2791 9.09186 28.7501C8.58145 29.1996 8.15611 29.6492 7.8371 30.0988C7.62443 30.3985 7.48265 30.691 7.41176 30.9765H21.9371C22.1285 30.9765 22.2774 31.1263 22.2774 31.319V37.5486C22.2774 37.7413 22.1285 37.8911 21.9371 37.8911H0.840272Z" fill="url(#paint0_linear_796_143096)"/>
<path fill-rule="evenodd" clip-rule="evenodd" d="M12.1223 44.1603L14.3766 46.4295L16.6309 44.1603L14.3766 41.8911L12.1223 44.1603ZM21.5862 44.1603L23.8405 46.4295L26.0948 44.1603L23.8405 41.8911L21.5862 44.1603ZM33.3042 46.4295L31.0499 44.1603L33.3042 41.8911L35.5585 44.1603L33.3042 46.4295ZM40.535 44.1603L42.7681 46.4295L45.0224 44.1603L42.7681 41.8911L40.535 44.1603ZM52.2531 46.4295L49.9988 44.1603L52.2531 41.8911L54.5074 44.1603L52.2531 46.4295ZM59.4626 44.1603L61.7169 46.4295L63.9712 44.1603L61.7169 41.8911L59.4626 44.1603ZM71.1807 46.4295L68.9264 44.1603L71.1807 41.8911L73.435 44.1603L71.1807 46.4295ZM78.3902 44.1603L80.6445 46.4295L82.8988 44.1603L80.6445 41.8911L78.3902 44.1603Z" fill="#FCCA3E"/>
<path fill-rule="evenodd" clip-rule="evenodd" d="M22.5751 61.7328C23.6101 60.6053 24.1275 58.9998 24.1275 56.9161C24.1275 54.8324 23.6171 53.2268 22.5963 52.0994C21.5755 50.9862 20.101 50.4296 18.1728 50.4296C16.2588 50.4296 14.7843 50.9862 13.7493 52.0994C12.7143 53.1983 12.1968 54.7967 12.1968 56.8947C12.1968 58.9926 12.7143 60.6053 13.7493 61.7328C14.7701 62.846 16.2375 63.4026 18.1515 63.4026C20.0797 63.4026 21.5542 62.846 22.5751 61.7328ZM15.7696 60.1058C15.245 59.3922 14.9827 58.329 14.9827 56.9161C14.9827 55.5032 15.2521 54.4399 15.7909 53.7263C16.3297 53.0128 17.1236 52.656 18.1728 52.656C20.2853 52.656 21.3416 54.076 21.3416 56.9161C21.3416 59.7562 20.2782 61.1762 18.1515 61.1762C17.1024 61.1762 16.3084 60.8194 15.7696 60.1058ZM3.13708 63.231H5.73166V58.2645H9.98505V56.0809H5.73166V52.8269H10.3041V50.6219H3.13708V63.231ZM38.0787 56.9161C38.0787 58.9998 37.5683 60.6053 36.5475 61.7328C35.5125 62.846 34.038 63.4026 32.1239 63.4026C30.2099 63.4026 28.7354 62.846 27.7004 61.7328C26.6796 60.6053 26.1692 58.9926 26.1692 56.8947C26.1692 54.7967 26.6796 53.1983 27.7004 52.0994C28.7354 50.9862 30.217 50.4296 32.1452 50.4296C34.0734 50.4296 35.5408 50.9862 36.5475 52.0994C37.5683 53.2268 38.0787 54.8324 38.0787 56.9161ZM28.9552 56.9161C28.9552 58.329 29.2175 59.3922 29.742 60.1058C30.2666 60.8194 31.0606 61.1762 32.1239 61.1762C34.2365 61.1762 35.2927 59.7562 35.2927 56.9161C35.2927 54.076 34.2435 52.656 32.1452 52.656C31.0819 52.656 30.2808 53.0128 29.742 53.7263C29.2175 54.4399 28.9552 55.5032 28.9552 56.9161ZM42.8638 63.231H45.5221V52.8483H48.9036V50.6219H39.4611V52.8483H42.8638V63.231ZM50.8389 50.6219H54.7307C56.5171 50.6219 57.8073 50.8788 58.6013 51.3926C59.4095 51.9064 59.8135 52.7128 59.8135 53.8117C59.8135 54.5681 59.6363 55.1889 59.2819 55.6741C58.9274 56.1594 58.4595 56.452 57.8782 56.5519V56.6375C58.6722 56.8088 59.2464 57.1441 59.6009 57.6437C59.9553 58.1289 60.1325 58.7783 60.1325 59.5917C60.1325 60.7335 59.7214 61.6255 58.899 62.2677C58.0625 62.9099 56.9354 63.231 55.5176 63.231H50.8389V50.6219ZM53.4972 55.6313H55.0497C55.7586 55.6313 56.2761 55.5172 56.6022 55.2888C56.9283 55.0605 57.0914 54.6894 57.0914 54.1756C57.0914 53.6904 56.9141 53.3407 56.5597 53.1266C56.2052 52.9268 55.6523 52.8269 54.9009 52.8269H53.4972V55.6313ZM53.4972 57.7507V61.0261H55.2199C55.9571 61.0261 56.503 60.8833 56.8574 60.5979C57.1977 60.3267 57.3678 59.8986 57.3678 59.3134C57.3678 58.2716 56.6235 57.7507 55.1348 57.7507H53.4972ZM69.3837 60.2338L70.2981 63.2309H73.1479L68.7244 50.579H65.4705L61.047 63.2309H63.918L64.8325 60.2338H69.3837ZM67.342 53.3834C67.4554 53.7402 67.9304 55.2744 68.7669 57.986H65.4918C66.385 55.0889 66.9309 53.2692 67.1293 52.5271C67.1719 52.7411 67.2428 53.0266 67.342 53.3834ZM74.7429 63.231V50.6219H77.38V61.0261H82.4628V63.231H74.7429ZM84.6533 50.6219V63.231H92.3732V61.0261H87.2904V50.6219H84.6533ZM6.49727 67.7476C5.84508 67.7476 5.33468 67.9973 4.96605 68.4969C4.6116 68.9964 4.43437 69.6885 4.43437 70.5734C4.43437 72.4145 5.12201 73.335 6.49727 73.335C7.07857 73.335 7.77329 73.1851 8.58143 72.8854V74.3625C7.91507 74.648 7.16364 74.7907 6.32713 74.7907C5.13618 74.7907 4.2217 74.4268 3.5837 73.6989C2.95986 72.9711 2.64795 71.9221 2.64795 70.552C2.64795 69.6957 2.80391 68.9464 3.11582 68.3042C3.42774 67.6477 3.87434 67.1482 4.45564 66.8057C5.03694 66.4631 5.71748 66.2919 6.49727 66.2919C7.29124 66.2919 8.09229 66.4845 8.90044 66.8699L8.32623 68.3042C8.02849 68.1472 7.72367 68.0188 7.41175 67.9189C7.09983 67.8047 6.79501 67.7476 6.49727 67.7476ZM15.3231 74.6841H17.0669V66.4208H15.3231V69.6533H12.0692V66.4208H10.3253V74.6841H12.0692V71.109H15.3231V74.6841ZM24.1488 74.684L23.5534 72.7145H20.576L19.9805 74.684H18.109L21.0013 66.3778H23.128L26.0416 74.684H24.1488ZM23.128 71.2373L22.1923 68.2189C22.1214 67.9762 22.0718 67.7907 22.0434 67.6623C21.93 68.1475 21.5755 69.3392 20.98 71.2373H23.128ZM28.5723 68.1976L30.5502 74.6841H32.1452L34.2506 68.1976H34.2931C34.2506 69.2394 34.2293 69.8817 34.2293 70.1243C34.2152 70.3669 34.2081 70.581 34.2081 70.7665V74.6841H35.8456V66.4208H33.4637L31.4008 72.736H31.3796L29.4443 66.4208H27.0624V74.6841H28.6149V70.8307C28.6149 70.3883 28.5794 69.5106 28.5085 68.1976H28.5723ZM43.5868 68.9897C43.5868 69.8745 43.3104 70.5524 42.7574 71.0234C42.2045 71.4944 41.4176 71.7299 40.3968 71.7299H39.6525V74.6841H37.9086V66.4208H40.5244C41.5169 66.4208 42.2754 66.6349 42.8 67.063C43.3246 67.4912 43.5868 68.1334 43.5868 68.9897ZM39.6525 70.2956H40.2267C40.7513 70.2956 41.1482 70.1885 41.4176 69.9744C41.687 69.7604 41.8217 69.4535 41.8217 69.0539C41.8217 68.64 41.7083 68.3332 41.4814 68.1334C41.2546 67.9479 40.9072 67.8551 40.4393 67.8551H39.6525V70.2956ZM45.118 66.4208V74.6841H46.8619V66.4208H45.118ZM56.3895 70.5306C56.3895 71.9007 56.0492 72.9496 55.3687 73.6775C54.7023 74.4196 53.7382 74.7907 52.4764 74.7907C51.2145 74.7907 50.2504 74.4196 49.584 73.6775C48.9035 72.9496 48.5632 71.8935 48.5632 70.5092C48.5632 69.1391 48.9035 68.0901 49.584 67.3623C50.2646 66.6487 51.2287 66.2919 52.4764 66.2919C53.7382 66.2919 54.7094 66.6558 55.3899 67.3837C56.0563 68.1115 56.3895 69.1605 56.3895 70.5306ZM50.3922 70.5306C50.3922 71.4582 50.5694 72.1504 50.9239 72.6071C51.2641 73.0781 51.7816 73.3136 52.4764 73.3136C53.8658 73.3136 54.5605 72.3859 54.5605 70.5306C54.5605 68.6752 53.8658 67.7476 52.4764 67.7476C51.7958 67.7476 51.2783 67.9759 50.9239 68.4326C50.5694 68.9036 50.3922 69.6029 50.3922 70.5306ZM63.1524 74.6841H65.3641V66.4208H63.7904V70.317C63.7904 70.7594 63.8187 71.5229 63.8754 72.6076H63.8542L60.2813 66.4208H58.0908V74.6841H59.6433V70.7879C59.6433 70.317 59.6079 69.532 59.537 68.4331H59.5795L63.1524 74.6841ZM72.2759 72.3716C72.2759 73.128 72.0065 73.7203 71.4678 74.1485C70.9432 74.5766 70.2059 74.7907 69.256 74.7907C68.377 74.7907 67.5972 74.6266 66.9166 74.2983V72.6713C67.4837 72.914 67.9587 73.0852 68.3415 73.1851C68.7243 73.285 69.0717 73.335 69.3836 73.335C69.7664 73.335 70.0571 73.2636 70.2555 73.1209C70.4682 72.9782 70.5745 72.757 70.5745 72.4573C70.5745 72.3003 70.5249 72.1576 70.4257 72.0291C70.3406 71.9007 70.213 71.7794 70.0429 71.6652C69.8727 71.551 69.5183 71.3655 68.9795 71.1086C68.4691 70.866 68.0934 70.6376 67.8524 70.4235C67.5972 70.2095 67.3916 69.9526 67.2356 69.6529C67.0938 69.3674 67.023 69.032 67.023 68.6467C67.023 67.9188 67.2711 67.3408 67.7673 66.9127C68.2494 66.4988 68.9299 66.2919 69.8089 66.2919C70.2343 66.2919 70.6384 66.3418 71.0212 66.4417C71.404 66.5416 71.808 66.6843 72.2334 66.8699L71.6804 68.24C71.2409 68.0544 70.8794 67.926 70.5958 67.8546C70.3123 67.7833 70.0287 67.7476 69.7451 67.7476C69.419 67.7476 69.1638 67.8261 68.9795 67.9831C68.8094 68.1401 68.7243 68.3399 68.7243 68.5825C68.7243 68.7395 68.7598 68.8751 68.8307 68.9892C68.9015 69.1034 69.015 69.2176 69.1709 69.3318C69.3269 69.4317 69.6955 69.6243 70.2768 69.9098C71.0424 70.2808 71.567 70.6519 71.8506 71.023C72.1341 71.394 72.2759 71.8436 72.2759 72.3716ZM78.7624 74.6841H80.485V66.4208H78.7624V69.6533H75.5085V66.4208H73.7646V74.6841H75.5085V71.109H78.7624V74.6841ZM82.5692 74.6841V66.4208H84.313V74.6841H82.5692ZM91.2036 71.0234C91.7565 70.5524 92.033 69.8745 92.033 68.9897C92.033 68.1334 91.7778 67.4912 91.2674 67.063C90.7428 66.6349 89.9843 66.4208 88.9918 66.4208H86.376V74.6841H88.1199V71.7299H88.8642C89.8708 71.7299 90.6506 71.4944 91.2036 71.0234ZM88.6728 70.2956H88.1199V67.8551H88.9067C89.3746 67.8551 89.722 67.9479 89.9488 68.1334C90.1757 68.3332 90.2891 68.64 90.2891 69.0539C90.2891 69.4535 90.1544 69.7604 89.885 69.9744C89.6156 70.1885 89.2116 70.2956 88.6728 70.2956Z" fill="url(#paint1_radial_796_143096)"/>
<path fill-rule="evenodd" clip-rule="evenodd" d="M22.5751 61.7328C23.6101 60.6053 24.1275 58.9998 24.1275 56.9161C24.1275 54.8324 23.6171 53.2268 22.5963 52.0994C21.5755 50.9862 20.101 50.4296 18.1728 50.4296C16.2588 50.4296 14.7843 50.9862 13.7493 52.0994C12.7143 53.1983 12.1968 54.7967 12.1968 56.8947C12.1968 58.9926 12.7143 60.6053 13.7493 61.7328C14.7701 62.846 16.2375 63.4026 18.1515 63.4026C20.0797 63.4026 21.5542 62.846 22.5751 61.7328ZM15.7696 60.1058C15.245 59.3922 14.9827 58.329 14.9827 56.9161C14.9827 55.5032 15.2521 54.4399 15.7909 53.7263C16.3297 53.0128 17.1236 52.656 18.1728 52.656C20.2853 52.656 21.3416 54.076 21.3416 56.9161C21.3416 59.7562 20.2782 61.1762 18.1515 61.1762C17.1024 61.1762 16.3084 60.8194 15.7696 60.1058ZM3.13708 63.231H5.73166V58.2645H9.98505V56.0809H5.73166V52.8269H10.3041V50.6219H3.13708V63.231ZM38.0787 56.9161C38.0787 58.9998 37.5683 60.6053 36.5475 61.7328C35.5125 62.846 34.038 63.4026 32.1239 63.4026C30.2099 63.4026 28.7354 62.846 27.7004 61.7328C26.6796 60.6053 26.1692 58.9926 26.1692 56.8947C26.1692 54.7967 26.6796 53.1983 27.7004 52.0994C28.7354 50.9862 30.217 50.4296 32.1452 50.4296C34.0734 50.4296 35.5408 50.9862 36.5475 52.0994C37.5683 53.2268 38.0787 54.8324 38.0787 56.9161ZM28.9552 56.9161C28.9552 58.329 29.2175 59.3922 29.742 60.1058C30.2666 60.8194 31.0606 61.1762 32.1239 61.1762C34.2365 61.1762 35.2927 59.7562 35.2927 56.9161C35.2927 54.076 34.2435 52.656 32.1452 52.656C31.0819 52.656 30.2808 53.0128 29.742 53.7263C29.2175 54.4399 28.9552 55.5032 28.9552 56.9161ZM42.8638 63.231H45.5221V52.8483H48.9036V50.6219H39.4611V52.8483H42.8638V63.231ZM50.8389 50.6219H54.7307C56.5171 50.6219 57.8073 50.8788 58.6013 51.3926C59.4095 51.9064 59.8135 52.7128 59.8135 53.8117C59.8135 54.5681 59.6363 55.1889 59.2819 55.6741C58.9274 56.1594 58.4595 56.452 57.8782 56.5519V56.6375C58.6722 56.8088 59.2464 57.1441 59.6009 57.6437C59.9553 58.1289 60.1325 58.7783 60.1325 59.5917C60.1325 60.7335 59.7214 61.6255 58.899 62.2677C58.0625 62.9099 56.9354 63.231 55.5176 63.231H50.8389V50.6219ZM53.4972 55.6313H55.0497C55.7586 55.6313 56.2761 55.5172 56.6022 55.2888C56.9283 55.0605 57.0914 54.6894 57.0914 54.1756C57.0914 53.6904 56.9141 53.3407 56.5597 53.1266C56.2052 52.9268 55.6523 52.8269 54.9009 52.8269H53.4972V55.6313ZM53.4972 57.7507V61.0261H55.2199C55.9571 61.0261 56.503 60.8833 56.8574 60.5979C57.1977 60.3267 57.3678 59.8986 57.3678 59.3134C57.3678 58.2716 56.6235 57.7507 55.1348 57.7507H53.4972ZM69.3837 60.2338L70.2981 63.2309H73.1479L68.7244 50.579H65.4705L61.047 63.2309H63.918L64.8325 60.2338H69.3837ZM67.342 53.3834C67.4554 53.7402 67.9304 55.2744 68.7669 57.986H65.4918C66.385 55.0889 66.9309 53.2692 67.1293 52.5271C67.1719 52.7411 67.2428 53.0266 67.342 53.3834ZM74.7429 63.231V50.6219H77.38V61.0261H82.4628V63.231H74.7429ZM84.6533 50.6219V63.231H92.3732V61.0261H87.2904V50.6219H84.6533ZM6.49727 67.7476C5.84508 67.7476 5.33468 67.9973 4.96605 68.4969C4.6116 68.9964 4.43437 69.6885 4.43437 70.5734C4.43437 72.4145 5.12201 73.335 6.49727 73.335C7.07857 73.335 7.77329 73.1851 8.58143 72.8854V74.3625C7.91507 74.648 7.16364 74.7907 6.32713 74.7907C5.13618 74.7907 4.2217 74.4268 3.5837 73.6989C2.95986 72.9711 2.64795 71.9221 2.64795 70.552C2.64795 69.6957 2.80391 68.9464 3.11582 68.3042C3.42774 67.6477 3.87434 67.1482 4.45564 66.8057C5.03694 66.4631 5.71748 66.2919 6.49727 66.2919C7.29124 66.2919 8.09229 66.4845 8.90044 66.8699L8.32623 68.3042C8.02849 68.1472 7.72367 68.0188 7.41175 67.9189C7.09983 67.8047 6.79501 67.7476 6.49727 67.7476ZM15.3231 74.6841H17.0669V66.4208H15.3231V69.6533H12.0692V66.4208H10.3253V74.6841H12.0692V71.109H15.3231V74.6841ZM24.1488 74.684L23.5534 72.7145H20.576L19.9805 74.684H18.109L21.0013 66.3778H23.128L26.0416 74.684H24.1488ZM23.128 71.2373L22.1923 68.2189C22.1214 67.9762 22.0718 67.7907 22.0434 67.6623C21.93 68.1475 21.5755 69.3392 20.98 71.2373H23.128ZM28.5723 68.1976L30.5502 74.6841H32.1452L34.2506 68.1976H34.2931C34.2506 69.2394 34.2293 69.8817 34.2293 70.1243C34.2152 70.3669 34.2081 70.581 34.2081 70.7665V74.6841H35.8456V66.4208H33.4637L31.4008 72.736H31.3796L29.4443 66.4208H27.0624V74.6841H28.6149V70.8307C28.6149 70.3883 28.5794 69.5106 28.5085 68.1976H28.5723ZM43.5868 68.9897C43.5868 69.8745 43.3104 70.5524 42.7574 71.0234C42.2045 71.4944 41.4176 71.7299 40.3968 71.7299H39.6525V74.6841H37.9086V66.4208H40.5244C41.5169 66.4208 42.2754 66.6349 42.8 67.063C43.3246 67.4912 43.5868 68.1334 43.5868 68.9897ZM39.6525 70.2956H40.2267C40.7513 70.2956 41.1482 70.1885 41.4176 69.9744C41.687 69.7604 41.8217 69.4535 41.8217 69.0539C41.8217 68.64 41.7083 68.3332 41.4814 68.1334C41.2546 67.9479 40.9072 67.8551 40.4393 67.8551H39.6525V70.2956ZM45.118 66.4208V74.6841H46.8619V66.4208H45.118ZM56.3895 70.5306C56.3895 71.9007 56.0492 72.9496 55.3687 73.6775C54.7023 74.4196 53.7382 74.7907 52.4764 74.7907C51.2145 74.7907 50.2504 74.4196 49.584 73.6775C48.9035 72.9496 48.5632 71.8935 48.5632 70.5092C48.5632 69.1391 48.9035 68.0901 49.584 67.3623C50.2646 66.6487 51.2287 66.2919 52.4764 66.2919C53.7382 66.2919 54.7094 66.6558 55.3899 67.3837C56.0563 68.1115 56.3895 69.1605 56.3895 70.5306ZM50.3922 70.5306C50.3922 71.4582 50.5694 72.1504 50.9239 72.6071C51.2641 73.0781 51.7816 73.3136 52.4764 73.3136C53.8658 73.3136 54.5605 72.3859 54.5605 70.5306C54.5605 68.6752 53.8658 67.7476 52.4764 67.7476C51.7958 67.7476 51.2783 67.9759 50.9239 68.4326C50.5694 68.9036 50.3922 69.6029 50.3922 70.5306ZM63.1524 74.6841H65.3641V66.4208H63.7904V70.317C63.7904 70.7594 63.8187 71.5229 63.8754 72.6076H63.8542L60.2813 66.4208H58.0908V74.6841H59.6433V70.7879C59.6433 70.317 59.6079 69.532 59.537 68.4331H59.5795L63.1524 74.6841ZM72.2759 72.3716C72.2759 73.128 72.0065 73.7203 71.4678 74.1485C70.9432 74.5766 70.2059 74.7907 69.256 74.7907C68.377 74.7907 67.5972 74.6266 66.9166 74.2983V72.6713C67.4837 72.914 67.9587 73.0852 68.3415 73.1851C68.7243 73.285 69.0717 73.335 69.3836 73.335C69.7664 73.335 70.0571 73.2636 70.2555 73.1209C70.4682 72.9782 70.5745 72.757 70.5745 72.4573C70.5745 72.3003 70.5249 72.1576 70.4257 72.0291C70.3406 71.9007 70.213 71.7794 70.0429 71.6652C69.8727 71.551 69.5183 71.3655 68.9795 71.1086C68.4691 70.866 68.0934 70.6376 67.8524 70.4235C67.5972 70.2095 67.3916 69.9526 67.2356 69.6529C67.0938 69.3674 67.023 69.032 67.023 68.6467C67.023 67.9188 67.2711 67.3408 67.7673 66.9127C68.2494 66.4988 68.9299 66.2919 69.8089 66.2919C70.2343 66.2919 70.6384 66.3418 71.0212 66.4417C71.404 66.5416 71.808 66.6843 72.2334 66.8699L71.6804 68.24C71.2409 68.0544 70.8794 67.926 70.5958 67.8546C70.3123 67.7833 70.0287 67.7476 69.7451 67.7476C69.419 67.7476 69.1638 67.8261 68.9795 67.9831C68.8094 68.1401 68.7243 68.3399 68.7243 68.5825C68.7243 68.7395 68.7598 68.8751 68.8307 68.9892C68.9015 69.1034 69.015 69.2176 69.1709 69.3318C69.3269 69.4317 69.6955 69.6243 70.2768 69.9098C71.0424 70.2808 71.567 70.6519 71.8506 71.023C72.1341 71.394 72.2759 71.8436 72.2759 72.3716ZM78.7624 74.6841H80.485V66.4208H78.7624V69.6533H75.5085V66.4208H73.7646V74.6841H75.5085V71.109H78.7624V74.6841ZM82.5692 74.6841V66.4208H84.313V74.6841H82.5692ZM91.2036 71.0234C91.7565 70.5524 92.033 69.8745 92.033 68.9897C92.033 68.1334 91.7778 67.4912 91.2674 67.063C90.7428 66.6349 89.9843 66.4208 88.9918 66.4208H86.376V74.6841H88.1199V71.7299H88.8642C89.8708 71.7299 90.6506 71.4944 91.2036 71.0234ZM88.6728 70.2956H88.1199V67.8551H88.9067C89.3746 67.8551 89.722 67.9479 89.9488 68.1334C90.1757 68.3332 90.2891 68.64 90.2891 69.0539C90.2891 69.4535 90.1544 69.7604 89.885 69.9744C89.6156 70.1885 89.2116 70.2956 88.6728 70.2956Z" fill="url(#paint2_linear_796_143096)"/>
<defs>
<linearGradient id="paint0_linear_796_143096" x1="34.0106" y1="54.4058" x2="81.0106" y2="-13.0942" gradientUnits="userSpaceOnUse">
<stop offset="0.0742951" stop-color="#D9D9D9"/>
<stop offset="0.2113" stop-color="white"/>
<stop offset="0.336942" stop-color="#AFAFAF"/>
<stop offset="0.454972" stop-color="white"/>
<stop offset="0.691789" stop-color="white"/>
<stop offset="0.777614" stop-color="#CDCCCC"/>
<stop offset="0.864066" stop-color="white"/>
<stop offset="0.958446" stop-color="#D3D3D3"/>
</linearGradient>
<radialGradient id="paint1_radial_796_143096" cx="0" cy="0" r="1" gradientUnits="userSpaceOnUse" gradientTransform="translate(1552.11 1390.21) scale(1475.35 2155.08)">
<stop stop-color="#BEBEBE"/>
<stop offset="0.3" stop-color="#FEFEFE"/>
<stop offset="0.5" stop-color="#CBCCCC"/>
<stop offset="0.7" stop-color="#8D8D8D"/>
<stop offset="0.9" stop-color="#BEBEBE"/>
<stop offset="1" stop-color="#BEBEBE"/>
</radialGradient>
<linearGradient id="paint2_linear_796_143096" x1="34.6274" y1="85.4143" x2="59.4257" y2="32.5801" gradientUnits="userSpaceOnUse">
<stop offset="0.0742951" stop-color="#D9D9D9"/>
<stop offset="0.2113" stop-color="white"/>
<stop offset="0.336942" stop-color="#AFAFAF"/>
<stop offset="0.454972" stop-color="white"/>
<stop offset="0.691789" stop-color="white"/>
<stop offset="0.777614" stop-color="#CDCCCC"/>
<stop offset="0.864066" stop-color="white"/>
<stop offset="0.958446" stop-color="#D3D3D3"/>
</linearGradient>
</defs>
</svg>
