<svg width="66" height="44" viewBox="0 0 66 44" fill="none" xmlns="http://www.w3.org/2000/svg">
<g clip-path="url(#clip0_859_130356)">
<path d="M66 0H0V44H66V0Z" fill="#00008B"/>
<path d="M0 0L33 16.5L0 0ZM33 0L0 16.5L33 0Z" fill="black"/>
<path fill-rule="evenodd" clip-rule="evenodd" d="M12.8101 8.24998L-0.738281 1.47578L0.737524 -1.47583L16.4996 6.40522L32.2617 -1.47583L33.7375 1.47578L20.1891 8.24998L33.7375 15.0242L32.2617 17.9758L16.4996 10.0947L0.737524 17.9758L-0.738281 15.0242L12.8101 8.24998Z" fill="white"/>
<path d="M0 0L33 16.5L0 0ZM33 0L0 16.5L33 0Z" fill="black"/>
<path fill-rule="evenodd" clip-rule="evenodd" d="M14.0401 8.24998L-0.492188 0.983853L0.491682 -0.983887L16.4997 7.02015L32.5078 -0.983887L33.4917 0.983853L18.9594 8.24998L33.4917 15.5161L32.5078 17.4839L16.4997 9.47982L0.491682 17.4839L-0.492188 15.5161L14.0401 8.24998Z" fill="#FF0000"/>
<path d="M16.5 0V19.25V0ZM0 8.25H38.5H0Z" fill="black"/>
<path fill-rule="evenodd" clip-rule="evenodd" d="M13.75 5.5V0H19.25V5.5H38.5V11H19.25V19.25H13.75V11H0V5.5H13.75Z" fill="white"/>
<path d="M16.5 0V19.25V0ZM0 8.25H38.5H0Z" fill="black"/>
<path fill-rule="evenodd" clip-rule="evenodd" d="M14.85 6.6V0H18.15V6.6H38.5V9.9H18.15V19.25H14.85V9.9H0V6.6H14.85Z" fill="#FF0000"/>
<path d="M0 16.5H33V0H44V22H0V16.5Z" fill="#00008B"/>
<path d="M16.4997 24.7999L17.4543 27.7678L20.3698 26.6637L18.6446 29.2604L21.3256 30.8514L18.2198 31.1216L18.6474 34.2097L16.4997 31.9499L14.352 34.2097L14.7797 31.1216L11.6738 30.8514L14.3549 29.2604L12.6297 26.6637L15.5452 27.7678L16.4997 24.7999Z" fill="white"/>
<path d="M49.4992 30.1428L49.9538 31.5561L51.3421 31.0303L50.5206 32.2668L51.7973 33.0245L50.3183 33.1531L50.5219 34.6237L49.4992 33.5476L48.4765 34.6237L48.6802 33.1531L47.2012 33.0245L48.4779 32.2668L47.6563 31.0303L49.0447 31.5561L49.4992 30.1428Z" fill="white"/>
<path d="M41.2492 17.0803L41.7038 18.4936L43.0921 17.9678L42.2706 19.2043L43.5473 19.962L42.0683 20.0906L42.2719 21.5612L41.2492 20.4851L40.2265 21.5612L40.4302 20.0906L38.9512 19.962L40.2279 19.2043L39.4063 17.9678L40.7947 18.4936L41.2492 17.0803Z" fill="white"/>
<path d="M49.4992 8.14282L49.9538 9.55609L51.3421 9.03031L50.5206 10.2668L51.7973 11.0245L50.3183 11.1531L50.5219 12.6237L49.4992 11.5476L48.4765 12.6237L48.6802 11.1531L47.2012 11.0245L48.4779 10.2668L47.6563 9.03031L49.0447 9.55609L49.4992 8.14282Z" fill="white"/>
<path d="M56.8332 14.8804L57.2877 16.2936L58.6761 15.7679L57.8546 17.0044L59.1312 17.762L57.6523 17.8907L57.8559 19.3612L56.8332 18.2851L55.8105 19.3612L56.0141 17.8907L54.5352 17.762L55.8118 17.0044L54.9903 15.7679L56.3787 16.2936L56.8332 14.8804Z" fill="white"/>
<path d="M52.7999 21.5L53.1591 22.3806L54.1076 22.4501L53.3811 23.0638L53.6081 23.9874L52.7999 23.4861L51.9917 23.9874L52.2187 23.0638L51.4922 22.4501L52.4407 22.3806L52.7999 21.5Z" fill="white"/>
</g>
<defs>
<clipPath id="clip0_859_130356">
<rect width="66" height="44" fill="white"/>
</clipPath>
</defs>
</svg>
