<svg width="66" height="44" viewBox="0 0 66 44" fill="none" xmlns="http://www.w3.org/2000/svg">
<rect width="66" height="44" fill="#009B3A"/>
<path d="M33.0066 23.0923H32.9922V23.1067H33.0066V23.0923Z" fill="#009B3A"/>
<path d="M5.64648 22.0366L33.0365 39.5266L60.4265 22.0366L33.0365 4.54663L5.64648 22.0366Z" fill="#FEDF00"/>
<path d="M33.0363 33.5866C39.4152 33.5866 44.5863 28.4155 44.5863 22.0366C44.5863 15.6577 39.4152 10.4866 33.0363 10.4866C26.6574 10.4866 21.4863 15.6577 21.4863 22.0366C21.4863 28.4155 26.6574 33.5866 33.0363 33.5866Z" fill="#002776"/>
<path fill-rule="evenodd" clip-rule="evenodd" d="M21.8535 19.1375C23.3567 18.8725 24.8899 18.7367 26.437 18.7367C32.9595 18.7367 39.2331 21.1504 44.0637 25.4831C44.2481 24.8927 44.3863 24.2818 44.4742 23.6549C39.4417 19.429 33.0601 17.0867 26.437 17.0867C25.1014 17.0867 23.7757 17.1819 22.4688 17.3687C22.2179 17.9358 22.0114 18.5268 21.8535 19.1375Z" fill="white"/>
<path fill-rule="evenodd" clip-rule="evenodd" d="M23.1859 18.6604C23.3162 18.6444 23.4341 18.5715 23.5137 18.4578C23.5933 18.3441 23.628 18.1989 23.6102 18.0542C23.5924 17.9094 23.5236 17.7769 23.4189 17.6858C23.3142 17.5948 23.1822 17.5526 23.0519 17.5686C22.9216 17.5846 22.8036 17.6574 22.7241 17.7711C22.6445 17.8848 22.6098 18.03 22.6276 18.1748C22.6454 18.3196 22.7142 18.4521 22.8189 18.5431C22.9236 18.6342 23.0556 18.6764 23.1859 18.6604ZM23.161 18.4576C23.2375 18.4482 23.3065 18.4031 23.3527 18.3321C23.3989 18.2611 23.4186 18.1701 23.4074 18.0791C23.3963 17.988 23.3551 17.9045 23.2931 17.8468C23.2311 17.7891 23.1533 17.7619 23.0768 17.7713C23.0002 17.7807 22.9313 17.8259 22.8851 17.8969C22.8388 17.9679 22.8192 18.0589 22.8303 18.1499C22.8415 18.2409 22.8826 18.3245 22.9446 18.3822C23.0067 18.4399 23.0845 18.467 23.161 18.4576Z" fill="#009B3A"/>
<path fill-rule="evenodd" clip-rule="evenodd" d="M25.4762 18.4743L25.9947 18.4653C26.0566 18.4642 26.1177 18.4509 26.1745 18.4262C26.2312 18.4016 26.2826 18.3659 26.3256 18.3214C26.3686 18.2769 26.4024 18.2243 26.4251 18.1667C26.4478 18.1091 26.4589 18.0476 26.4578 17.9857L26.4551 17.8286C26.454 17.7667 26.4408 17.7056 26.4161 17.6488C26.3914 17.5921 26.3558 17.5407 26.3112 17.4977C26.2667 17.4547 26.2141 17.4209 26.1565 17.3982C26.0989 17.3755 26.0374 17.3644 25.9755 17.3655L25.457 17.3745L25.4762 18.4743ZM25.6769 18.2665L25.9754 18.2613C26.0546 18.2599 26.13 18.2271 26.185 18.1702C26.24 18.1132 26.2701 18.0367 26.2688 17.9576L26.2671 17.8633C26.2657 17.7841 26.233 17.7087 26.176 17.6537C26.119 17.5987 26.0425 17.5686 25.9634 17.57L25.6649 17.5752L25.6769 18.2665Z" fill="#009B3A"/>
<path d="M27.3679 18.4777L28.3573 18.5123L28.3644 18.3081L27.5634 18.2802L27.5733 17.9975L28.2015 18.0194L28.2081 17.831L27.5799 17.809L27.5876 17.5892L28.3414 17.6155L28.3485 17.4113L27.4062 17.3784L27.3679 18.4777Z" fill="#009B3A"/>
<path d="M28.2674 18.5199L28.4553 18.5363L28.521 17.7849L28.6744 18.5555L28.8466 18.5706L29.1315 17.8383L29.0658 18.5897L29.2536 18.6062L29.3495 17.5104L29.0756 17.4864L28.7907 18.2186L28.6372 17.448L28.3633 17.4241L28.2674 18.5199Z" fill="#009B3A"/>
<path d="M30.5472 18.777L31.3602 18.9167L31.3922 18.7309L30.765 18.6231L30.8075 18.3753L31.3186 18.4631L31.3505 18.2772L30.8395 18.1894L30.8688 18.0191L31.4766 18.1235L31.5085 17.9377L30.7148 17.8013L30.5472 18.777Z" fill="#009B3A"/>
<path fill-rule="evenodd" clip-rule="evenodd" d="M32.6367 19.1873L32.8345 19.2384L32.9368 18.8429L33.3628 18.953C33.4515 18.976 33.5458 18.9627 33.6248 18.9162C33.7038 18.8697 33.7611 18.7937 33.784 18.7049C33.807 18.6161 33.7937 18.5219 33.7472 18.4429C33.7007 18.3639 33.6246 18.3066 33.5359 18.2836L32.9273 18.1262L32.6367 19.1873ZM32.9879 18.6451L33.3987 18.7513C33.435 18.7607 33.4736 18.7553 33.5059 18.7363C33.5382 18.7172 33.5616 18.6861 33.571 18.6498C33.5804 18.6135 33.575 18.5749 33.556 18.5426C33.5369 18.5103 33.5058 18.4869 33.4695 18.4775L33.0587 18.3712L32.9879 18.6451Z" fill="#009B3A"/>
<path fill-rule="evenodd" clip-rule="evenodd" d="M35.7776 20.1507C35.9006 20.1967 36.0388 20.1865 36.1619 20.1224C36.285 20.0583 36.3828 19.9455 36.4339 19.8089C36.485 19.6723 36.4852 19.523 36.4343 19.3938C36.3835 19.2647 36.2859 19.1663 36.1629 19.1204C36.0399 19.0744 35.9017 19.0846 35.7786 19.1487C35.6555 19.2128 35.5577 19.3256 35.5066 19.4622C35.4555 19.5988 35.4554 19.7481 35.5062 19.8772C35.557 20.0064 35.6547 20.1047 35.7776 20.1507ZM35.8492 19.9594C35.9214 19.9864 36.0034 19.9781 36.0772 19.9365C36.151 19.8949 36.2105 19.8232 36.2426 19.7374C36.2747 19.6515 36.2768 19.5584 36.2484 19.4786C36.2201 19.3987 36.1636 19.3387 36.0913 19.3117C36.0191 19.2847 35.9371 19.2929 35.8633 19.3346C35.7896 19.3762 35.7301 19.4479 35.698 19.5337C35.6658 19.6196 35.6637 19.7127 35.6921 19.7925C35.7205 19.8723 35.777 19.9324 35.8492 19.9594Z" fill="#009B3A"/>
<path d="M39.5716 21.9198L40.4332 22.4073L40.5338 22.2295L39.8363 21.8348L39.9756 21.5887L40.5227 21.8982L40.6155 21.7341L40.0685 21.4245L40.1768 21.2331L40.8333 21.6045L40.9339 21.4267L40.1133 20.9624L39.5716 21.9198Z" fill="#009B3A"/>
<path d="M40.7468 22.2145C40.6877 22.3073 40.7476 22.4107 40.8801 22.4951C41.0126 22.5795 41.1029 22.5765 41.141 22.5169C41.2613 22.3281 40.5658 22.0526 40.7802 21.7234C40.965 21.4406 41.2812 21.6607 41.4005 21.7367C41.5198 21.8127 41.7113 22.0092 41.5624 22.2357L41.3603 22.107C41.4236 22.0076 41.354 21.912 41.248 21.8445C41.1453 21.779 41.0619 21.7492 41.0006 21.8453C40.8981 21.9989 41.5798 22.2888 41.3708 22.6168C41.2168 22.8586 40.9487 22.753 40.7698 22.6391C40.6174 22.542 40.3896 22.3131 40.538 22.0815L40.7468 22.2145Z" fill="#009B3A"/>
<path d="M41.9275 22.995C41.8636 23.0845 41.918 23.1909 42.0459 23.2821C42.1739 23.3734 42.2642 23.3751 42.3054 23.3176C42.4354 23.1353 41.7552 22.8238 41.9865 22.5063C42.1859 22.2335 42.4902 22.4698 42.6054 22.552C42.7205 22.6341 42.9015 22.8404 42.7409 23.0588L42.5458 22.9197C42.6142 22.8237 42.5498 22.7246 42.4474 22.6516C42.3483 22.5809 42.2665 22.5467 42.2003 22.6395C42.0899 22.7875 42.7555 23.1127 42.5297 23.4293C42.3631 23.6628 42.1009 23.5433 41.9282 23.4201C41.7811 23.3152 41.5656 23.0747 41.726 22.8512L41.9275 22.995Z" fill="#009B3A"/>
<path fill-rule="evenodd" clip-rule="evenodd" d="M43.0425 24.2603C43.1452 24.342 43.2798 24.3751 43.4167 24.3521C43.5535 24.3292 43.6814 24.2522 43.7722 24.138C43.863 24.0239 43.9093 23.8819 43.9009 23.7434C43.8924 23.6049 43.83 23.4812 43.7272 23.3995C43.6245 23.3177 43.4899 23.2847 43.353 23.3076C43.2162 23.3306 43.0883 23.4076 42.9975 23.5217C42.9067 23.6359 42.8604 23.7778 42.8688 23.9164C42.8773 24.0549 42.9397 24.1786 43.0425 24.2603ZM43.1696 24.1004C43.23 24.1484 43.3105 24.166 43.3936 24.1492C43.4766 24.1324 43.5553 24.0826 43.6124 24.0109C43.6694 23.9391 43.7002 23.8512 43.6979 23.7665C43.6956 23.6819 43.6604 23.6073 43.6001 23.5593C43.5397 23.5113 43.4592 23.4938 43.3762 23.5106C43.2931 23.5274 43.2144 23.5772 43.1573 23.6489C43.1003 23.7207 43.0695 23.8086 43.0718 23.8932C43.0741 23.9779 43.1093 24.0524 43.1696 24.1004Z" fill="#009B3A"/>
</svg>
