<svg width="66" height="44" viewBox="0 0 66 44" fill="none" xmlns="http://www.w3.org/2000/svg">
<g clip-path="url(#clip0_859_134881)">
<rect x="-0.146484" width="66" height="44" fill="#D52B1E"/>
<rect x="16.5" width="33" height="44" fill="white"/>
<path d="M33.3089 29.7142L33.6177 35.4933H32.3828L32.6915 29.7142C32.696 29.6192 32.6786 29.5244 32.6406 29.4368C32.6026 29.3492 32.5449 29.271 32.4718 29.208C32.3988 29.1451 32.3122 29.0989 32.2184 29.0729C32.1246 29.047 32.0261 29.0419 31.93 29.058L26.0371 30.0691L26.8329 27.9263C26.8652 27.841 26.8693 27.748 26.8447 27.6603C26.8201 27.5727 26.768 27.4947 26.6957 27.4374L20.2402 22.3347L21.6946 21.6718C21.7928 21.6265 21.8707 21.5477 21.9137 21.4503C21.9566 21.3529 21.9617 21.2436 21.9278 21.1428L20.6518 17.3124L24.3701 18.0825C24.4708 18.103 24.5757 18.0889 24.667 18.0425C24.7583 17.9961 24.8303 17.9203 24.8709 17.828L25.5912 16.174L28.4931 19.2142C28.5594 19.2825 28.6467 19.328 28.7417 19.3438C28.8368 19.3596 28.9346 19.3449 29.0204 19.3019C29.1062 19.2589 29.1754 19.1899 29.2176 19.1053C29.2598 19.0207 29.2728 18.9249 29.2546 18.8325L27.8551 11.7878L30.0984 13.0535C30.151 13.0836 30.2095 13.1029 30.2701 13.11C30.3307 13.1172 30.3921 13.1122 30.4507 13.0952C30.5092 13.0783 30.5635 13.0498 30.6103 13.0115C30.6571 12.9732 30.6953 12.926 30.7226 12.8727L33.0002 8.50659L35.2778 12.8727C35.3051 12.926 35.3434 12.9732 35.3901 13.0115C35.4369 13.0498 35.4913 13.0783 35.5498 13.0952C35.6083 13.1122 35.6698 13.1172 35.7304 13.11C35.791 13.1029 35.8494 13.0836 35.9021 13.0535L38.1454 11.7878L36.7459 18.8325C36.7277 18.9249 36.7407 19.0207 36.7829 19.1053C36.8251 19.1899 36.8943 19.2589 36.9801 19.3019C37.0659 19.3449 37.1636 19.3596 37.2587 19.3438C37.3538 19.328 37.441 19.2825 37.5074 19.2142L40.4093 16.174L41.1296 17.828C41.1702 17.9203 41.2422 17.9961 41.3335 18.0425C41.4247 18.0889 41.5296 18.103 41.6304 18.0825L45.3486 17.3124L44.0726 21.1428C44.0388 21.2436 44.0438 21.3529 44.0868 21.4503C44.1297 21.5477 44.2076 21.6265 44.3059 21.6718L45.7602 22.3347L39.3048 27.4374C39.2325 27.4947 39.1804 27.5727 39.1558 27.6603C39.1311 27.748 39.1353 27.841 39.1676 27.9263L39.9633 30.0691L34.0704 29.058C33.9744 29.0419 33.8758 29.047 33.7821 29.0729C33.6883 29.0989 33.6017 29.1451 33.5286 29.208C33.4556 29.271 33.3979 29.3492 33.3599 29.4368C33.3219 29.5244 33.3045 29.6192 33.3089 29.7142Z" fill="#D52B1E"/>
</g>
<defs>
<clipPath id="clip0_859_134881">
<rect width="66" height="44" fill="white"/>
</clipPath>
</defs>
</svg>
