<svg width="66" height="44" viewBox="0 0 66 44" fill="none" xmlns="http://www.w3.org/2000/svg">
<g clip-path="url(#clip0_859_127850)">
<path d="M71 0H-6V44H71V0Z" fill="#DA0000"/>
<path d="M71 0H-6V29.3333H71V0Z" fill="white"/>
<path d="M35.7958 23.3171C36.1011 22.3774 36.1218 21.3685 35.8553 20.4171C35.5888 19.4657 35.047 18.6143 34.298 17.97C35.9617 20.432 35.3617 23.7572 32.9755 25.4895L33.1415 21.3875V18.1579C32.8828 18.0341 32.6598 17.8468 32.4931 17.6134C32.3261 17.8464 32.103 18.0337 31.8448 18.1579V21.3875L32.0107 25.4895C29.6245 23.7572 29.024 20.432 30.6882 17.97C29.9393 18.6144 29.3975 19.4657 29.131 20.4171C28.8646 21.3685 28.8852 22.3774 29.1905 23.3171C29.5939 24.5631 30.4705 25.6007 31.6316 26.2066C30.9438 26.4582 30.2126 26.5695 29.4811 26.534C30.3133 26.8054 31.2022 26.853 32.0585 26.6719L32.0657 26.8445L32.4931 27.4334L32.9206 26.845L32.9277 26.6725C33.7841 26.8535 34.673 26.806 35.5051 26.5346C34.7736 26.5697 34.0425 26.4584 33.3546 26.2071C34.5156 25.6009 35.3922 24.5631 35.7958 23.3171Z" fill="#DA0000"/>
<path d="M37.4248 19.8386C37.1433 19.3516 36.7668 18.9262 36.3178 18.5875C35.8687 18.2489 35.3561 18.0039 34.8105 17.8672C37.2358 19.6908 37.7242 23.1352 35.9006 25.5604L35.8913 25.5725C36.855 25.0154 37.5579 24.0984 37.8455 23.0231C38.1331 21.9478 37.9817 20.8023 37.4248 19.8386Z" fill="#DA0000"/>
<path d="M30.1774 17.8678C29.3666 18.071 28.635 18.5115 28.0761 19.1331C27.5173 19.7546 27.1568 20.5288 27.0407 21.3566C26.9246 22.1843 27.0583 23.0278 27.4245 23.7791C27.7908 24.5304 28.373 25.1553 29.0966 25.5736L29.0873 25.5615C27.2637 23.1352 27.7516 19.6908 30.1774 17.8678Z" fill="#DA0000"/>
<path d="M31.3888 17.5645C31.474 17.6244 31.5701 17.667 31.6717 17.6898C31.7734 17.7126 31.8785 17.7151 31.9811 17.6972C32.0837 17.6794 32.1818 17.6415 32.2697 17.5857C32.3577 17.5299 32.4338 17.4574 32.4937 17.3722C32.6054 17.5314 32.7717 17.644 32.9609 17.6886C33.1502 17.7332 33.3493 17.7067 33.5203 17.6141C33.6913 17.5215 33.8223 17.3693 33.8884 17.1864C33.9545 17.0035 33.9511 16.8027 33.8788 16.6222C33.8503 16.7724 33.7766 16.9102 33.6675 17.0173C33.5585 17.1243 33.4193 17.1955 33.2686 17.2212C33.1179 17.2469 32.963 17.2259 32.8246 17.1611C32.6862 17.0963 32.5709 16.9907 32.4943 16.8584C32.4178 16.9909 32.3025 17.0968 32.1641 17.1619C32.0256 17.2269 31.8705 17.248 31.7197 17.2222C31.5689 17.1965 31.4296 17.1252 31.3206 17.0179C31.2115 16.9106 31.1379 16.7725 31.1097 16.6222C31.0433 16.7877 31.0347 16.9709 31.0853 17.1419C31.136 17.3129 31.2429 17.4618 31.3888 17.5645Z" fill="#DA0000"/>
<path d="M71 0H-6V14.6667H71V0Z" fill="#239F40"/>
</g>
<defs>
<clipPath id="clip0_859_127850">
<rect width="66" height="44" fill="white"/>
</clipPath>
</defs>
</svg>
