<svg width="66" height="44" viewBox="0 0 66 44" fill="none" xmlns="http://www.w3.org/2000/svg">
<path d="M66 0H0V44H66V0Z" fill="white"/>
<path fill-rule="evenodd" clip-rule="evenodd" d="M23.8065 15.971C25.4251 13.5439 27.9417 11.8592 30.8025 11.2875C33.6633 10.7159 36.634 11.3041 39.0612 12.9228C41.4883 14.5415 43.173 17.058 43.7446 19.9188C44.3163 22.7796 43.7281 25.7504 42.1094 28.1775" fill="#C60C30"/>
<path fill-rule="evenodd" clip-rule="evenodd" d="M42.2248 28.0295C40.6061 30.4566 38.0896 32.1413 35.2287 32.7129C32.3679 33.2846 29.3972 32.6964 26.9701 31.0777C24.543 29.459 22.8583 26.9425 22.2866 24.0816C21.715 21.2208 22.3032 18.2501 23.9219 15.823" fill="#003478"/>
<path fill-rule="evenodd" clip-rule="evenodd" d="M32.9501 22.0591C33.7594 20.8456 35.0177 20.0032 36.4481 19.7174C37.8785 19.4316 39.3639 19.7257 40.5775 20.535C41.791 21.3443 42.6334 22.6026 42.9192 24.033C43.205 25.4634 42.9109 26.9488 42.1016 28.1624" fill="#003478"/>
<path fill-rule="evenodd" clip-rule="evenodd" d="M33.1768 21.7524C32.3675 22.966 31.1092 23.8083 29.6788 24.0941C28.2484 24.38 26.7631 24.0859 25.5495 23.2765C24.3359 22.4672 23.4936 21.2089 23.2078 19.7785C22.9219 18.3481 23.2161 16.8627 24.0254 15.6492" fill="#C60C30"/>
<path d="M11.6721 14.3707L17.7656 5.23389L16.2428 4.21831L10.1493 13.3551L11.6721 14.3707Z" fill="black"/>
<path d="M16.2386 17.4168L22.332 8.28003L20.8092 7.26445L14.7158 16.4013L16.2386 17.4168Z" fill="black"/>
<path d="M13.9554 15.8941L20.0488 6.75732L18.526 5.74174L12.4326 14.8786L13.9554 15.8941Z" fill="black"/>
<path d="M50.8204 33.3371L53.6133 29.1494L52.0905 28.1338L49.2976 32.3215L50.8204 33.3371Z" fill="black"/>
<path d="M47.5196 38.2863L50.3125 34.0986L48.7897 33.0831L45.9968 37.2708L47.5196 38.2863Z" fill="black"/>
<path d="M53.1056 34.8606L55.8984 30.6729L54.3756 29.6573L51.5828 33.845L53.1056 34.8606Z" fill="black"/>
<path d="M48.5372 31.8139L51.3301 27.6262L49.8073 26.6106L47.0144 30.7983L48.5372 31.8139Z" fill="black"/>
<path d="M45.2365 36.7629L48.0293 32.5752L46.5065 31.5596L43.7137 35.7473L45.2365 36.7629Z" fill="black"/>
<path d="M49.8048 39.8098L52.5977 35.6221L51.0749 34.6065L48.282 38.7942L49.8048 39.8098Z" fill="black"/>
<path d="M47.9237 11.5117L45.1309 7.32397L43.6081 8.33955L46.4009 12.5273L47.9237 11.5117Z" fill="black"/>
<path d="M51.2245 16.4609L48.4316 12.2732L46.9088 13.2888L49.7017 17.4765L51.2245 16.4609Z" fill="black"/>
<path d="M55.7928 13.414L53 9.22632L51.4772 10.2419L54.27 14.4296L55.7928 13.414Z" fill="black"/>
<path d="M52.4921 8.46505L49.6992 4.27734L48.1764 5.29292L50.9693 9.48063L52.4921 8.46505Z" fill="black"/>
<path d="M53.5075 14.9376L47.4141 5.80078L45.8913 6.81636L51.9847 15.9532L53.5075 14.9376Z" fill="black"/>
<path d="M15.8126 34.0088L18.6055 38.1965L20.1283 37.181L17.3354 32.9933L15.8126 34.0088Z" fill="black"/>
<path d="M12.5118 29.0599L15.3047 33.2476L16.8275 32.232L14.0346 28.0443L12.5118 29.0599Z" fill="black"/>
<path d="M10.2268 30.5832L16.3203 39.72L17.8431 38.7044L11.7496 29.5676L10.2268 30.5832Z" fill="black"/>
<path d="M14.7952 27.5365L20.8887 36.6733L22.4115 35.6578L16.318 26.521L14.7952 27.5365Z" fill="black"/>
</svg>
