<svg width="66" height="44" viewBox="0 0 66 44" fill="none" xmlns="http://www.w3.org/2000/svg">
<path d="M0 0H66V44H0V0Z" fill="#C1272D"/>
<path fill-rule="evenodd" clip-rule="evenodd" d="M33.0004 11.0005L35.4699 18.601H43.4617L36.9961 23.2985L39.4656 30.8988L33.0004 26.2015L26.5352 30.8988L29.0046 23.2985L22.5391 18.601H30.5308L33.0004 11.0005ZM30.1911 19.6468H25.7575L29.3444 22.2527L30.1911 19.6468ZM30.2339 22.899L31.2906 19.6468H34.7101L35.7668 22.899L33.0004 24.9089L30.2339 22.899ZM29.8941 23.9448L28.5242 28.161L32.1108 25.5552L29.8941 23.9448ZM33.8899 25.5552L37.4765 28.161L36.1066 23.9448L33.8899 25.5552ZM36.6564 22.2527L40.2432 19.6468H35.8096L36.6564 22.2527ZM34.3703 18.601H31.6304L33.0004 14.3846L34.3703 18.601Z" fill="#006233"/>
</svg>
