<svg width="66" height="44" viewBox="0 0 66 44" fill="none" xmlns="http://www.w3.org/2000/svg">
<path d="M66 0H0V44H66V0Z" fill="#FF0000"/>
<path d="M26.4 0H0V44H26.4V0Z" fill="#006600"/>
<path fill-rule="evenodd" clip-rule="evenodd" d="M35.0057 28.8242C31.6826 28.7241 16.4443 19.2124 16.3398 17.6977L17.1813 16.2944C18.6928 18.4907 34.2709 27.741 35.801 27.4132L35.0057 28.8238" fill="#FFFF00"/>
<path fill-rule="evenodd" clip-rule="evenodd" d="M17.1806 16.263C17.1913 16.2626 17.2014 16.2678 17.2075 16.2766C17.3936 16.5469 17.7989 16.9291 18.3726 17.3917C18.9454 17.8535 19.6832 18.3932 20.5313 18.9785C22.2275 20.1489 24.3636 21.5005 26.5006 22.7733C28.6375 24.0461 30.7748 25.2399 32.4732 26.0949C33.3224 26.5224 34.0614 26.865 34.6354 27.0903C34.9225 27.203 35.1676 27.2861 35.3643 27.336C35.5625 27.3862 35.7068 27.4012 35.7947 27.3824C35.8068 27.3798 35.8193 27.3846 35.8267 27.3946C35.834 27.4045 35.8348 27.4179 35.8287 27.4287L35.0352 28.8361C35.0304 28.8479 35.0186 28.8561 35.0051 28.8557C34.5842 28.843 33.9785 28.6818 33.2432 28.409C32.5069 28.1359 31.6377 27.7498 30.6884 27.2848C28.7897 26.3548 26.5693 25.1086 24.4497 23.8184C22.3302 22.5281 20.3109 21.1935 18.8147 20.0865C18.0667 19.5331 17.4488 19.036 17.0143 18.6296C16.7972 18.4264 16.6251 18.2453 16.5055 18.0905C16.387 17.9372 16.3159 17.8047 16.3087 17.6999C16.3082 17.6935 16.3098 17.687 16.3131 17.6815L17.1545 16.2782C17.1601 16.2691 17.1699 16.2633 17.1806 16.263ZM34.9877 28.792L35.7431 27.4523C35.6432 27.4579 35.5098 27.4378 35.3489 27.3971C35.1486 27.3463 34.9007 27.2622 34.6124 27.149C34.0357 26.9226 33.2948 26.5791 32.4448 26.1512C30.7447 25.2953 28.6061 24.1007 26.4683 22.8274C24.3305 21.5541 22.1931 20.2018 20.4955 19.0303C19.6467 18.4446 18.9075 17.9039 18.3331 17.4408C17.7863 16.9999 17.3862 16.6273 17.1838 16.352L16.3724 17.7051C16.3819 17.789 16.4419 17.9051 16.5554 18.0519C16.6721 18.2029 16.8414 18.3815 17.0574 18.5836C17.4893 18.9876 18.105 19.483 18.8522 20.0358C20.3464 21.1414 22.364 22.475 24.4825 23.7645C26.6009 25.0541 28.8197 26.2992 30.7161 27.2282C31.6643 27.6926 32.5315 28.0778 33.2651 28.3499C33.9881 28.6182 34.5784 28.7754 34.9877 28.792Z" fill="black"/>
<path fill-rule="evenodd" clip-rule="evenodd" d="M17.0058 16.104C16.7077 16.9063 20.9822 19.549 26.1251 22.6769C31.2679 25.8047 35.7023 27.7376 36.031 27.4604C36.051 27.4246 36.1927 27.1809 36.1797 27.1828C36.1181 27.2757 35.9681 27.305 35.7341 27.2375C34.3447 26.8368 30.7209 25.1734 26.233 22.4519C21.7452 19.7301 17.8407 17.222 17.2338 16.1563C17.1916 16.0825 17.1615 15.9478 17.1676 15.843L17.1529 15.8428L17.0237 16.0686L17.0059 16.104H17.0058L17.0058 16.104ZM35.0854 28.8684C35.029 28.9706 34.924 28.974 34.7244 28.9521C33.4814 28.8145 29.7096 26.9803 25.2466 24.3087C20.0535 21.2001 15.7646 18.3676 16.2299 17.6273L16.3565 17.4035L16.3815 17.4112C15.9631 18.6658 24.8457 23.7448 25.3687 24.0686C30.5083 27.2528 34.8413 29.1123 35.2248 28.629L35.0853 28.8689V28.8687L35.0854 28.8684Z" fill="#FFFF00"/>
<path fill-rule="evenodd" clip-rule="evenodd" d="M17.1258 15.8271C17.1315 15.8172 17.1422 15.8111 17.1537 15.8113L17.1684 15.8115C17.177 15.8116 17.1852 15.8153 17.191 15.8216C17.1969 15.8279 17.1999 15.8363 17.1994 15.8448C17.1936 15.9444 17.2227 16.0729 17.2615 16.1407C17.41 16.4015 17.7635 16.7549 18.2851 17.1825C18.8056 17.6092 19.49 18.1071 20.2961 18.6571C21.9084 19.757 24.0058 21.0641 26.2497 22.425C30.737 25.1461 34.3579 26.8077 35.7432 27.2073C35.8577 27.2403 35.949 27.2488 36.0175 27.2391C36.0856 27.2295 36.1292 27.2024 36.1538 27.1654C36.1587 27.158 36.1665 27.153 36.1754 27.1517C36.181 27.1508 36.1898 27.1511 36.1983 27.1569C36.2065 27.1625 36.2099 27.1702 36.2112 27.175C36.2133 27.1827 36.212 27.1895 36.2117 27.1912L36.2117 27.1913C36.2107 27.1962 36.2088 27.2012 36.2074 27.2046C36.2042 27.2125 36.1991 27.223 36.1932 27.2347C36.1811 27.2583 36.1638 27.2902 36.1456 27.3228C36.1205 27.3678 36.0928 27.4164 36.0751 27.4473C36.0674 27.4607 36.0616 27.4708 36.0588 27.4758C36.0569 27.4791 36.0545 27.4821 36.0516 27.4845C36.0221 27.5094 35.9757 27.5179 35.9226 27.5182C35.8678 27.5186 35.7984 27.5101 35.7161 27.4936C35.5512 27.4608 35.3293 27.3952 35.0576 27.2995C34.5139 27.1079 33.767 26.7941 32.8703 26.3741C31.0766 25.534 28.6813 24.2683 26.1091 22.7039C23.5378 21.14 21.1826 19.6969 19.5075 18.5443C18.6701 17.9681 18.0015 17.4638 17.5605 17.0527C17.3402 16.8472 17.1753 16.6638 17.0748 16.5054C16.9752 16.3483 16.9339 16.2079 16.9766 16.093C16.9773 16.0911 16.9782 16.0892 16.9793 16.0875L16.9958 16.0545C16.9961 16.054 16.9963 16.0535 16.9966 16.053L17.1258 15.8271ZM17.0348 16.1174C17.0043 16.2029 17.0318 16.3198 17.1281 16.4716C17.2243 16.6234 17.3847 16.8025 17.6035 17.0066C18.0409 17.4144 18.7064 17.9166 19.5433 18.4924C21.2166 19.6437 23.5702 21.0859 26.1418 22.65C28.7123 24.2133 31.1056 25.478 32.897 26.317C33.7928 26.7365 34.5376 27.0494 35.0785 27.24C35.3491 27.3354 35.5678 27.3998 35.7284 27.4318C35.8088 27.4479 35.8734 27.4555 35.9222 27.4552C35.9677 27.4549 35.9939 27.4477 36.0071 27.4392C36.0107 27.4329 36.0157 27.4241 36.0217 27.4136C36.0393 27.3829 36.0655 27.337 36.0905 27.2921C36.0919 27.2897 36.0932 27.2873 36.0946 27.2849C36.0737 27.2925 36.0508 27.2981 36.0263 27.3015C35.9459 27.3129 35.8452 27.3023 35.7257 27.2679C34.3322 26.8659 30.7054 25.2007 26.217 22.4788C23.973 21.1179 21.8743 19.8101 20.2606 18.7092C19.4538 18.1587 18.7677 17.6596 18.2452 17.2313C17.7238 16.8039 17.3617 16.4441 17.2067 16.172M17.0348 16.1174L17.0518 16.0835L17.1387 15.9316C17.1472 16.0203 17.173 16.1129 17.2067 16.172M16.3294 17.388C16.3367 17.375 16.352 17.369 16.3662 17.3734L16.3911 17.3812C16.3992 17.3837 16.406 17.3893 16.4098 17.3969C16.4137 17.4044 16.4143 17.4132 16.4117 17.4212C16.3888 17.4899 16.3966 17.5751 16.4373 17.6776C16.4779 17.7798 16.5502 17.8962 16.6511 18.0248C16.853 18.2818 17.1658 18.5827 17.5562 18.9111C18.3369 19.5675 19.4231 20.3293 20.5397 21.0626C22.3568 22.2561 24.2507 23.3718 25.0353 23.834C25.215 23.9399 25.3365 24.0115 25.3856 24.0419C27.9545 25.6334 30.3215 26.8936 32.0936 27.6954C32.9799 28.0964 33.7165 28.3823 34.2548 28.5379C34.5242 28.6157 34.7425 28.6604 34.9044 28.671C34.9854 28.6763 35.0508 28.673 35.1008 28.6617C35.151 28.6504 35.1826 28.6319 35.2004 28.6095C35.2107 28.5965 35.2292 28.5937 35.2429 28.603C35.2565 28.6123 35.2607 28.6306 35.2524 28.6449L35.1129 28.8848C35.1124 28.8856 35.1119 28.8863 35.1114 28.8871C35.0782 28.9452 35.0299 28.9756 34.9647 28.9878C34.9013 28.9997 34.8207 28.9944 34.7213 28.9835C34.4062 28.9486 33.9341 28.8068 33.3356 28.5736C32.7364 28.3402 32.0081 28.0141 31.1795 27.609C29.5223 26.7988 27.4628 25.6719 25.2308 24.3357C22.6341 22.7814 20.2627 21.2955 18.5984 20.1055C17.7664 19.5106 17.1099 18.9888 16.6902 18.5687C16.4806 18.3588 16.3284 18.1727 16.2433 18.0143C16.1591 17.8574 16.1361 17.7185 16.2032 17.6112L16.3294 17.388ZM35.0603 28.8498L35.1373 28.7174C35.1299 28.7195 35.1224 28.7215 35.1146 28.7232C35.0565 28.7363 34.9845 28.7394 34.9003 28.7339C34.7317 28.7229 34.5084 28.6767 34.2373 28.5984C33.6948 28.4417 32.955 28.1544 32.0676 27.7529C30.2925 26.9497 27.9231 25.6881 25.3524 24.0955C25.3042 24.0656 25.184 23.9948 25.0058 23.8899C24.2236 23.429 22.3247 22.3104 20.5051 21.1153C19.3879 20.3816 18.2992 19.6182 17.5157 18.9593C17.1241 18.63 16.8074 18.3258 16.6016 18.0637C16.4987 17.9327 16.4225 17.8109 16.3787 17.7008C16.3512 17.6316 16.336 17.5658 16.3359 17.5045L16.2569 17.6441C16.2081 17.7217 16.2175 17.833 16.2988 17.9845C16.3796 18.1348 16.5267 18.3158 16.7348 18.5241C17.1507 18.9405 17.8038 19.4599 18.635 20.0542C20.2971 21.2427 22.6667 22.7274 25.2631 24.2817C27.4941 25.6172 29.552 26.7432 31.2072 27.5524C32.0348 27.957 32.7615 28.2823 33.3585 28.5149C33.9563 28.7478 34.4219 28.8869 34.7282 28.9208C34.8284 28.9318 34.9001 28.9358 34.9532 28.9259C35.0033 28.9165 35.035 28.8951 35.0581 28.8532C35.0588 28.852 35.0595 28.8509 35.0603 28.8498Z" fill="black"/>
<path fill-rule="evenodd" clip-rule="evenodd" d="M26.4188 18.6153C29.7449 18.589 33.8493 18.1608 36.2113 17.2194L35.7024 16.3925C34.3063 17.1653 30.1793 17.6734 26.3907 17.7494C21.9097 17.7082 18.7468 17.2909 17.162 16.2275L16.6816 17.108C19.5949 18.3408 22.5802 18.6026 26.4188 18.6154" fill="#FFFF00"/>
<path fill-rule="evenodd" clip-rule="evenodd" d="M17.1548 16.1967C17.1634 16.1946 17.1725 16.1962 17.1799 16.2011C17.9665 16.729 19.148 17.0983 20.6954 17.3404C22.2421 17.5824 24.1512 17.697 26.3908 17.7176C28.2839 17.6797 30.2614 17.5337 31.9397 17.3008C32.7789 17.1843 33.5429 17.0462 34.184 16.889C34.8256 16.7317 35.3421 16.5559 35.6874 16.3647C35.7022 16.3566 35.7207 16.3615 35.7295 16.3758L36.2384 17.2026C36.2433 17.2106 36.2444 17.2202 36.2415 17.2291C36.2386 17.2379 36.2319 17.245 36.2233 17.2484C33.8561 18.1919 29.748 18.6201 26.4216 18.6466C26.4207 18.6466 26.4199 18.6467 26.419 18.6467C22.5793 18.6339 19.5888 18.3721 16.6696 17.1368C16.6614 17.1334 16.6551 17.1266 16.6521 17.1182C16.6492 17.1098 16.65 17.1005 16.6542 17.0927L17.1346 16.2122C17.1389 16.2044 17.1462 16.1988 17.1548 16.1967ZM26.417 18.5836C26.4176 18.5836 26.4182 18.5836 26.4188 18.5836C29.7278 18.5574 33.8033 18.1332 36.1651 17.2037L35.6915 16.4343C35.3394 16.6239 34.8264 16.7964 34.199 16.9502C33.5552 17.1081 32.789 17.2466 31.9483 17.3632C30.2671 17.5965 28.287 17.7427 26.3916 17.7807L26.3907 17.7807V17.7807C24.1495 17.7601 22.2368 17.6454 20.6857 17.4027C19.1537 17.1629 17.9714 16.7979 17.1735 16.2726L16.7263 17.0923C19.6228 18.3107 22.5945 18.5708 26.417 18.5836Z" fill="black"/>
<path fill-rule="evenodd" clip-rule="evenodd" d="M36.3497 17.2379C36.2684 17.3679 34.728 17.8992 32.4587 18.2912C30.92 18.5258 28.913 18.7263 26.4083 18.7287C24.0286 18.731 22.0847 18.5616 20.613 18.3621C18.2309 17.9886 17.0014 17.4689 16.5469 17.2853C16.5903 17.1988 16.6183 17.1382 16.6602 17.0575C17.9686 17.5784 19.2038 17.8926 20.6509 18.1152C22.1129 18.3132 24.0334 18.485 26.4012 18.4828C28.8943 18.4803 30.8792 18.2645 32.409 18.0369C34.736 17.6616 36.0072 17.1786 36.1857 16.9543L36.3501 17.2379H36.3499H36.3497ZM35.9031 16.3994C35.6509 16.602 34.3941 17.0477 32.183 17.4008C30.7074 17.6123 28.8311 17.8016 26.4339 17.8039C24.1564 17.8061 22.2958 17.6527 20.8805 17.4465C18.635 17.1532 17.4398 16.6242 17.009 16.47C17.0518 16.3958 17.0955 16.3223 17.1403 16.2485C17.4756 16.4173 18.6289 16.8855 20.9052 17.2079C22.3044 17.4063 24.1679 17.5542 26.434 17.5519C28.8199 17.5494 30.6748 17.3565 32.1411 17.1461C34.3637 16.8404 35.5596 16.272 35.7412 16.1296L35.9032 16.3992V16.3995L35.9031 16.3994Z" fill="#FFFF00"/>
<path fill-rule="evenodd" clip-rule="evenodd" d="M35.7452 16.0987C35.7541 16.1003 35.7618 16.1057 35.7665 16.1134L35.9285 16.383C35.9315 16.3879 35.933 16.3935 35.933 16.3993V16.3995C35.933 16.409 35.9287 16.418 35.9213 16.424C35.9207 16.4245 35.92 16.425 35.9194 16.4254C35.8519 16.479 35.7229 16.5457 35.5365 16.6209C35.3474 16.6972 35.0965 16.7833 34.7847 16.8739C34.1612 17.0553 33.2929 17.2552 32.1863 17.432L32.1858 17.432C30.7089 17.6437 28.8311 17.8331 26.4322 17.8354C24.1535 17.8377 22.2914 17.6841 20.8745 17.4777C18.8871 17.2182 17.7203 16.774 17.1786 16.5678C17.1073 16.5406 17.0468 16.5176 16.9966 16.4997C16.9878 16.4965 16.9809 16.4896 16.9777 16.4808C16.9745 16.4721 16.9753 16.4623 16.98 16.4542C17.023 16.3799 17.0668 16.3062 17.1117 16.2322C17.1202 16.2181 17.1381 16.213 17.1528 16.2204C17.4842 16.3872 18.6341 16.8546 20.9079 17.1768L20.9079 17.1768C22.3055 17.3749 24.1675 17.5227 26.4323 17.5204C28.8164 17.5179 30.6698 17.3251 32.1349 17.115L32.1351 17.115C33.2446 16.9623 34.0973 16.7442 34.6949 16.5467C34.9937 16.4479 35.2287 16.3544 35.3999 16.2768C35.572 16.1989 35.6778 16.1379 35.7201 16.1049C35.7272 16.0993 35.7363 16.097 35.7452 16.0987ZM35.8599 16.3912L35.73 16.1751C35.6722 16.2137 35.5703 16.2688 35.4259 16.3342C35.2524 16.4128 35.0154 16.5072 34.7147 16.6065C34.1133 16.8053 33.2569 17.0242 32.1438 17.1774C30.6764 17.3879 28.8199 17.581 26.4323 17.5834C24.1649 17.5857 22.2999 17.4378 20.899 17.2392C18.6757 16.9242 17.5203 16.4701 17.1506 16.2896C17.1176 16.3441 17.0853 16.3986 17.0534 16.4532C17.0961 16.4689 17.145 16.4876 17.2004 16.5086C17.7417 16.7147 18.9028 17.1567 20.8829 17.4153L20.8834 17.4153L20.8834 17.4153C22.297 17.6213 24.1561 17.7746 26.4321 17.7724C28.8275 17.7701 30.7022 17.581 32.1766 17.3697C33.281 17.1933 34.1465 16.9939 34.7671 16.8134C35.0775 16.7232 35.3263 16.6378 35.5129 16.5625C35.6798 16.4951 35.7949 16.4367 35.8599 16.3912ZM36.1863 16.9228C36.1967 16.9236 36.2061 16.9295 36.2113 16.9385L36.3756 17.2221C36.3813 17.2319 36.3813 17.2439 36.3757 17.2537C36.3745 17.2557 36.3732 17.2575 36.3717 17.2592C36.3626 17.2714 36.3487 17.2827 36.3336 17.2929C36.3158 17.3051 36.2927 17.3183 36.2649 17.3325C36.2092 17.3609 36.1324 17.3943 36.0363 17.4316C35.8439 17.5063 35.5718 17.5974 35.2318 17.6966C34.5517 17.895 33.5981 18.1261 32.4624 18.3223L32.4618 18.3224C30.9216 18.5572 28.913 18.7578 26.4066 18.7603C24.0255 18.7625 22.0801 18.593 20.6071 18.3934L20.6065 18.3933L20.6065 18.3933C18.3021 18.032 17.0742 17.5339 16.5825 17.3344C16.5653 17.3274 16.5489 17.3208 16.5334 17.3145C16.5252 17.3112 16.5188 17.3046 16.5157 17.2964C16.5126 17.2882 16.5131 17.279 16.517 17.2711C16.5345 17.2363 16.5497 17.2053 16.5644 17.1753C16.5856 17.1319 16.6058 17.0906 16.6305 17.043C16.638 17.0286 16.6551 17.0222 16.6702 17.0282C17.976 17.5481 19.2087 17.8617 20.6537 18.084C22.1144 18.2819 24.0334 18.4535 26.3995 18.4513C28.8906 18.4488 30.8739 18.2332 32.4025 18.0058C33.5648 17.8183 34.4628 17.604 35.092 17.4089C35.4067 17.3113 35.6537 17.2186 35.8327 17.1366C35.9222 17.0956 35.9943 17.0576 36.0492 17.0231C36.1046 16.9883 36.1404 16.9585 36.1594 16.9346C36.1659 16.9265 36.176 16.9221 36.1863 16.9228ZM36.309 17.2329L36.1778 17.0064C36.1532 17.0289 36.1212 17.0523 36.0827 17.0765C36.0248 17.1129 35.9501 17.1522 35.859 17.1939C35.6767 17.2774 35.427 17.371 35.1107 17.4691C34.478 17.6653 33.5769 17.8802 32.4123 18.0681L32.4119 18.0681C30.881 18.2959 28.8945 18.5118 26.3996 18.5143C24.0301 18.5166 22.1082 18.3446 20.645 18.1465L20.6444 18.1464L20.6444 18.1464C19.2052 17.925 17.9746 17.613 16.6734 17.0973C16.6547 17.1341 16.6386 17.167 16.6216 17.2018C16.6112 17.223 16.6005 17.245 16.5886 17.2689C16.5944 17.2712 16.6003 17.2736 16.6063 17.2761C17.0957 17.4746 18.3187 17.9708 20.6159 18.331C22.0862 18.5302 24.0286 18.6995 26.4065 18.6973C28.9094 18.6948 30.9148 18.4945 32.452 18.2601C33.5853 18.0643 34.5365 17.8338 35.2142 17.6361C35.5531 17.5372 35.8233 17.4466 36.0135 17.3729C36.1087 17.3359 36.1833 17.3034 36.2362 17.2764C36.2628 17.2628 36.2833 17.251 36.2981 17.2409C36.3024 17.2379 36.3061 17.2352 36.309 17.2329Z" fill="black"/>
<path fill-rule="evenodd" clip-rule="evenodd" d="M15.497 22.6226C17.5428 23.7229 22.0865 24.2774 26.3863 24.3156C30.3013 24.3218 35.4017 23.7104 37.309 22.6997L37.2565 21.5984C36.6598 22.5309 31.1941 23.4254 26.3438 23.3887C21.4936 23.3522 16.9897 22.603 15.4883 21.6333L15.497 22.6223" fill="#FFFF00"/>
<path fill-rule="evenodd" clip-rule="evenodd" d="M37.2649 21.568C37.2782 21.5715 37.2876 21.5832 37.2883 21.5969L37.3407 22.6982C37.3413 22.7104 37.3348 22.7219 37.324 22.7276C36.365 23.2358 34.6081 23.6418 32.6052 23.9202C30.6008 24.1989 28.3455 24.3503 26.3865 24.3472L26.3863 24.3472C24.2353 24.3281 22.0229 24.1798 20.0921 23.8986C18.1623 23.6176 16.5103 23.2033 15.4823 22.6504C15.4713 22.6445 15.4653 22.633 15.4658 22.6213L15.457 21.6336C15.4569 21.622 15.4632 21.6113 15.4734 21.6057C15.4835 21.6001 15.4959 21.6005 15.5056 21.6068C16.2503 22.0878 17.7457 22.5168 19.6656 22.8299C21.5837 23.1427 23.9207 23.339 26.3444 23.3573C28.7677 23.3756 31.3449 23.1612 33.3904 22.8259C34.4133 22.6582 35.3023 22.4605 35.9724 22.2467C36.3075 22.1398 36.587 22.0291 36.8008 21.9167C37.0156 21.8037 37.1602 21.6909 37.2302 21.5814C37.2376 21.5699 37.2516 21.5644 37.2649 21.568ZM15.5286 22.6037C16.5476 23.1467 18.1831 23.5569 20.1012 23.8363C22.0286 24.1169 24.238 24.265 26.3868 24.2841C28.3428 24.2872 30.5951 24.136 32.5965 23.8578C34.5869 23.5811 36.3246 23.1794 37.2768 22.6812L37.2294 21.686C37.1419 21.7845 37.0058 21.8801 36.8302 21.9725C36.6119 22.0873 36.3286 22.1992 35.9916 22.3067C35.3175 22.5218 34.4251 22.7202 33.4006 22.8881C31.3515 23.224 28.7708 23.4386 26.3439 23.4203C23.9173 23.402 21.5772 23.2055 19.6554 22.8921C17.7761 22.5856 16.2923 22.1667 15.5206 21.6908L15.5286 22.6037Z" fill="black"/>
<path fill-rule="evenodd" clip-rule="evenodd" d="M37.4124 22.464L37.4125 22.7266C37.1258 23.0694 35.3284 23.5874 33.0744 23.9523C31.3589 24.2153 29.1224 24.4136 26.3356 24.4136C23.688 24.4136 21.5766 24.2249 19.9393 23.9735C17.3511 23.5966 15.6956 22.9366 15.3633 22.7396L15.3647 22.4333C16.363 23.0969 19.0674 23.5824 19.9756 23.731C21.6023 23.9807 23.7011 24.1681 26.3355 24.1681C29.1092 24.1681 31.3332 23.9711 33.0379 23.7098C34.655 23.4762 36.9587 22.8687 37.4123 22.4642H37.4124L37.4124 22.464ZM37.4135 21.5299L37.4136 21.7925C37.1269 22.1351 35.3295 22.6531 33.0755 23.0179C31.36 23.2809 29.1235 23.4793 26.3367 23.4793C23.6891 23.4793 21.5777 23.2907 19.9404 23.0391C17.3522 22.6624 15.6967 22.0025 15.3644 21.8054L15.3658 21.499C16.3641 22.1626 19.0685 22.6482 19.9767 22.7966C21.6034 23.0465 23.7022 23.2339 26.3366 23.2339C29.1103 23.2339 31.3343 23.0368 33.039 22.7753C34.6561 22.5417 36.9598 21.9342 37.4134 21.5297L37.4135 21.5299L37.4135 21.5299Z" fill="#FFFF00"/>
<path fill-rule="evenodd" clip-rule="evenodd" d="M26.3767 28.635C21.6717 28.607 17.6404 27.3525 16.7891 27.1452L17.4098 28.117C18.9135 28.7495 22.8465 29.6922 26.4218 29.5878C29.9972 29.4835 33.1219 29.2065 35.3239 28.1346L35.9604 27.1274C34.4598 27.8342 29.3529 28.6277 26.3766 28.635" fill="#FFFF00"/>
<path fill-rule="evenodd" clip-rule="evenodd" d="M35.9842 27.1066C35.9935 27.1171 35.9947 27.1325 35.9873 27.1443L35.3508 28.1514C35.3477 28.1564 35.3432 28.1603 35.3379 28.1629C33.129 29.2382 29.9977 29.515 26.423 29.6193C22.8432 29.7238 18.9057 28.7803 17.3979 28.146C17.392 28.1435 17.387 28.1393 17.3835 28.1339L16.7628 27.1622C16.7558 27.1513 16.7562 27.1373 16.7637 27.1269C16.7712 27.1164 16.7843 27.1115 16.7968 27.1146C16.8978 27.1392 17.0434 27.1784 17.2293 27.2286C18.6131 27.602 22.233 28.5787 26.3762 28.6035C26.3764 28.6035 26.3766 28.6035 26.3768 28.6035C27.8628 28.5999 29.8818 28.3999 31.7172 28.1124C33.554 27.8247 35.2015 27.4501 35.9472 27.099C35.9599 27.093 35.975 27.0961 35.9842 27.1066ZM26.3779 28.6665C26.3775 28.6665 26.3771 28.6665 26.3767 28.6665C22.2239 28.6418 18.595 27.6625 17.2126 27.2894C17.0701 27.2509 16.9515 27.2189 16.8586 27.1951L17.4314 28.0917C18.9376 28.7225 22.8575 29.6603 26.4211 29.5563C29.9929 29.4521 33.1077 29.1755 35.3023 28.1102L35.878 27.1993C35.0847 27.5418 33.4886 27.8988 31.727 28.1747C29.8902 28.4624 27.8681 28.6628 26.3779 28.6665Z" fill="black"/>
<path fill-rule="evenodd" clip-rule="evenodd" d="M35.5643 27.909C35.4708 28.0519 35.3754 28.1931 35.2787 28.3302C34.2401 28.6965 32.6036 29.0809 31.913 29.1931C30.5024 29.4837 28.3199 29.6984 26.3829 29.6994C22.215 29.6384 18.8034 28.8225 17.1983 28.1265L17.0688 27.9039L17.09 27.8704L17.3096 27.9556C20.1639 28.9767 23.3696 29.3841 26.4064 29.4573C28.3356 29.4641 30.2668 29.2362 31.8285 28.9569C34.2233 28.477 35.1917 28.1154 35.4888 27.9514L35.5643 27.909H35.5642L35.5643 27.909ZM36.1162 26.9987C36.1186 27.0015 36.1211 27.0043 36.1234 27.0073C36.0534 27.1253 35.9814 27.2454 35.9075 27.3661C35.3536 27.5641 33.8503 28.004 31.655 28.3109C30.2087 28.508 29.3096 28.6988 26.4324 28.7547C21.0407 28.6175 17.5499 27.5633 16.7206 27.3032L16.5977 27.0675C19.7223 27.8832 22.9141 28.4526 26.4325 28.5108C29.0649 28.4547 30.1849 28.2609 31.6193 28.0653C34.1791 27.6673 35.4688 27.2458 35.8559 27.1242C35.8511 27.1172 35.8453 27.1098 35.8389 27.1022L36.1165 26.9985L36.1162 26.9988L36.1162 26.9987Z" fill="#FFFF00"/>
<path fill-rule="evenodd" clip-rule="evenodd" d="M36.141 26.9823C36.141 26.9823 36.141 26.9822 36.141 26.9822C36.1333 26.9702 36.1183 26.9652 36.1049 26.9702L35.8274 27.0739C35.8181 27.0773 35.8112 27.0851 35.8087 27.0946C35.8076 27.0988 35.8074 27.103 35.8081 27.1072C35.8065 27.1077 35.8049 27.1082 35.8033 27.1087C35.3706 27.2453 34.0846 27.6512 31.6139 28.0354C31.4594 28.0564 31.3085 28.0775 31.159 28.0983C29.9212 28.271 28.778 28.4305 26.4315 28.4805C22.9163 28.4223 19.7272 27.8534 16.6043 27.0382C16.5927 27.0352 16.5805 27.0393 16.573 27.0486C16.5655 27.058 16.5643 27.0708 16.5698 27.0815L16.6927 27.3172C16.6965 27.3243 16.7029 27.3297 16.7105 27.3321C17.5415 27.5927 21.0353 28.6476 26.4306 28.7849L26.4306 28.7849L26.432 28.7849C28.8872 28.7372 29.9037 28.5913 31.0466 28.4271C31.244 28.3988 31.4452 28.3699 31.6581 28.3409L31.6583 28.3409C33.8554 28.0337 35.3607 27.5933 35.9167 27.3946C35.9232 27.3923 35.9288 27.3878 35.9324 27.3819C36.0063 27.2611 36.0784 27.1408 36.1484 27.0227C36.1548 27.012 36.1539 26.9985 36.1463 26.9887C36.1445 26.9864 36.1427 26.9842 36.141 26.9823ZM35.8844 27.1172C35.8857 27.1227 35.8854 27.1285 35.8835 27.1339C35.8804 27.143 35.8732 27.1501 35.864 27.153C35.8509 27.1571 35.8367 27.1616 35.8215 27.1664C35.3872 27.3035 34.0981 27.7103 31.6229 28.0952L31.6224 28.0953C31.4678 28.1163 31.3169 28.1374 31.1673 28.1583C29.9287 28.3311 28.7827 28.491 26.4322 28.541L26.431 28.5411V28.541C22.9343 28.4832 19.7602 27.9208 16.655 27.1139L16.7406 27.2781C17.5893 27.5438 21.0694 28.5879 26.4315 28.7244C28.8825 28.6768 29.8961 28.5312 31.0381 28.3672C31.2355 28.3389 31.4368 28.31 31.65 28.281C33.8302 27.9761 35.3265 27.5401 35.8863 27.3412C35.9458 27.2439 36.0042 27.1469 36.0612 27.0511L35.8844 27.1172ZM17.0634 27.8542C17.0711 27.842 17.0864 27.8369 17.0999 27.8422L17.3192 27.9272C20.1692 28.9468 23.3712 29.3539 26.4058 29.427C28.3325 29.4338 30.2616 29.2062 31.8219 28.9272C34.2163 28.4474 35.1804 28.0864 35.4731 27.925C35.4731 27.925 35.4731 27.9249 35.4732 27.9249L35.547 27.8835C35.5482 27.8827 35.5495 27.882 35.5508 27.8814L35.5509 27.8814C35.5601 27.8773 35.5705 27.8781 35.5788 27.883C35.5816 27.8847 35.5841 27.8868 35.5863 27.8893C35.5892 27.8927 35.5914 27.8968 35.5926 27.9014C35.595 27.9104 35.593 27.9198 35.5877 27.9269C35.4943 28.0696 35.3991 28.2106 35.3025 28.3477C35.2988 28.3528 35.2937 28.3567 35.2878 28.3588C34.2476 28.7255 32.61 29.1103 31.9175 29.2228C30.5045 29.5139 28.3203 29.7287 26.3819 29.7296L26.3815 29.7296C22.2106 29.6686 18.7949 28.8522 17.1853 28.1542C17.1794 28.1517 17.1744 28.1473 17.1712 28.1417L17.0417 27.9191C17.036 27.9093 17.0362 27.8972 17.0423 27.8877L17.0634 27.8542ZM35.4704 27.995C35.4006 28.0999 35.33 28.2035 35.2586 28.3049C34.2214 28.6695 32.5942 29.0516 31.9072 29.1632L31.9072 29.1632L31.906 29.1634C30.4977 29.4536 28.3174 29.6681 26.3821 29.6691C22.2251 29.6083 18.8227 28.7958 17.2185 28.1027L17.1061 27.9095L17.2977 27.9838L17.2977 27.9838L17.2984 27.984C20.1568 29.0067 23.366 29.4143 26.4047 29.4875V29.4875L26.4053 29.4875C28.3368 29.4943 30.2699 29.2662 31.8329 28.9867L31.8335 28.9865C34.1493 28.5225 35.1351 28.1684 35.4704 27.995Z" fill="black"/>
<path fill-rule="evenodd" clip-rule="evenodd" d="M36.1726 21.7534C36.1878 24.8484 34.604 27.6258 33.3282 28.8511C31.5233 30.5846 29.1303 31.6997 26.3356 31.7511C23.2149 31.8084 20.2724 29.7739 19.4831 28.8802C17.9401 27.1328 16.6838 24.9139 16.6435 21.9234C16.8346 18.5454 18.1607 16.1924 20.083 14.5789C22.0052 12.9653 24.5647 12.1794 26.6963 12.2356C29.1557 12.3005 32.0285 13.507 34.0136 15.9021C35.3141 17.4714 35.8773 19.1744 36.1726 21.7534ZM26.3621 11.1558C32.3555 11.1558 37.2847 16.0329 37.2847 22.0131C37.2847 27.9931 32.3555 32.8705 26.3621 32.8705C20.3688 32.8705 15.4805 27.9932 15.4805 22.0131C15.4805 16.0329 20.3688 11.1558 26.3621 11.1558Z" fill="#FFFF00"/>
<path fill-rule="evenodd" clip-rule="evenodd" d="M26.3624 11.1875C20.3864 11.1875 15.5122 16.0507 15.5122 22.0134C15.5122 27.976 20.3864 32.8393 26.3624 32.8393C32.3386 32.8393 37.2535 27.9758 37.2535 22.0134C37.2535 16.0508 32.3386 11.1875 26.3624 11.1875ZM26.3624 11.1245C20.3517 11.1245 15.4492 16.0157 15.4492 22.0134C15.4492 28.011 20.3517 32.9023 26.3624 32.9023C32.3729 32.9023 37.3165 28.011 37.3165 22.0134C37.3165 16.0156 32.3729 11.1245 26.3624 11.1245ZM26.6957 12.2674C24.5715 12.2114 22.0196 12.9948 20.1035 14.6033C18.1884 16.2109 16.8662 18.5553 16.6753 21.9244C16.7157 24.9046 17.9675 27.1162 19.507 28.8596C19.8982 29.3026 20.8275 30.0324 22.0495 30.6444C23.271 31.2561 24.7817 31.7484 26.3353 31.7198C29.1215 31.6686 31.5071 30.5571 33.3067 28.8287C34.5767 27.6089 36.156 24.8403 36.1414 21.7555C35.8465 19.1809 35.2845 17.485 33.9896 15.9225C32.0106 13.5346 29.1463 12.3321 26.6957 12.2674ZM20.063 14.555C21.9914 12.9362 24.5585 12.148 26.6974 12.2044C29.1656 12.2695 32.0471 13.4799 34.0382 15.8823C35.344 17.458 35.9086 19.1678 36.2042 21.7501C36.2043 21.7512 36.2044 21.7523 36.2044 21.7535C36.2197 24.8581 34.6316 27.6435 33.3503 28.8741C31.5401 30.6127 29.1396 31.7313 26.3365 31.7828C24.7694 31.8116 23.2484 31.3153 22.0212 30.7007C20.7945 30.0863 19.8579 29.3521 19.4598 28.9013C17.9134 27.1501 16.6526 24.9243 16.6123 21.9241C16.6122 21.9234 16.6123 21.9227 16.6123 21.9219C16.8039 18.5356 18.1338 16.1744 20.063 14.555Z" fill="black"/>
<path fill-rule="evenodd" clip-rule="evenodd" d="M26.3912 11.1187C32.39 11.1187 37.2824 16.0118 37.2824 22.0111C37.2824 28.0103 32.3898 32.9033 26.3912 32.9033C20.3925 32.9033 15.5 28.0104 15.5 22.0111C15.5 16.0118 20.3926 11.1187 26.3912 11.1187ZM15.7397 22.0111C15.7397 27.8697 20.5507 32.6637 26.3912 32.6637C32.2319 32.6637 37.0428 27.8697 37.0428 22.0111C37.0428 16.1523 32.2318 11.3583 26.3912 11.3583C20.5507 11.3583 15.7397 16.1525 15.7397 22.0111Z" fill="#FFFF00"/>
<path fill-rule="evenodd" clip-rule="evenodd" d="M26.3915 11.1502C20.4103 11.1502 15.5318 16.0292 15.5318 22.0111C15.5318 27.993 20.4101 32.8718 26.3915 32.8718C32.3727 32.8718 37.2512 27.9929 37.2512 22.0111C37.2512 16.0292 32.3728 11.1502 26.3915 11.1502ZM26.3915 11.0872C20.3754 11.0872 15.4688 15.9944 15.4688 22.0111C15.4688 28.0278 20.3753 32.9348 26.3915 32.9348C32.4075 32.9348 37.3142 28.0277 37.3142 22.0111C37.3142 15.9944 32.4076 11.0872 26.3915 11.0872ZM15.7084 22.0111C15.7084 16.1351 20.5335 11.3268 26.3915 11.3268C32.2494 11.3268 37.0746 16.1349 37.0746 22.0111C37.0746 27.8872 32.2495 32.6953 26.3915 32.6953C20.5335 32.6953 15.7084 27.8872 15.7084 22.0111ZM26.3915 11.3898C20.5683 11.3898 15.7715 16.17 15.7715 22.0111C15.7715 27.8523 20.5683 32.6322 26.3915 32.6322C32.2148 32.6322 37.0116 27.8523 37.0116 22.0111C37.0116 16.1698 32.2147 11.3898 26.3915 11.3898Z" fill="black"/>
<path fill-rule="evenodd" clip-rule="evenodd" d="M26.4001 12.0239C31.8705 12.0239 36.3763 16.5142 36.3763 22.0014C36.3763 27.4886 31.8704 31.9787 26.4001 31.9787C20.9298 31.9787 16.4238 27.4886 16.4238 22.0014C16.4238 16.5142 20.9299 12.0239 26.4001 12.0239ZM16.6634 22.0013C16.6634 27.3566 21.0611 31.7389 26.4001 31.7389C31.739 31.7389 36.1367 27.3566 36.1367 22.0013C36.1367 16.6458 31.7391 12.2636 26.4001 12.2636C21.0611 12.2636 16.6634 16.6458 16.6634 22.0013Z" fill="#FFFF00"/>
<path fill-rule="evenodd" clip-rule="evenodd" d="M26.4003 12.0555C20.9475 12.0555 16.4556 16.5317 16.4556 22.0014C16.4556 27.4712 20.9474 31.9472 26.4003 31.9472C31.8532 31.9472 36.345 27.4712 36.345 22.0014C36.345 16.5317 31.8534 12.0555 26.4003 12.0555ZM26.4003 11.9924C20.9128 11.9924 16.3926 16.4968 16.3926 22.0014C16.3926 27.5061 20.9126 32.0102 26.4003 32.0102C31.888 32.0102 36.4081 27.5061 36.4081 22.0014C36.4081 16.4968 31.8881 11.9924 26.4003 11.9924ZM16.6322 22.0013C16.6322 16.6284 21.044 12.2321 26.4003 12.2321C31.7568 12.2321 36.1685 16.6284 36.1685 22.0013C36.1685 27.3741 31.7567 31.7705 26.4003 31.7705C21.044 31.7705 16.6322 27.3741 16.6322 22.0013ZM26.4003 12.2951C21.0787 12.2951 16.6952 16.6633 16.6952 22.0013C16.6952 27.3392 21.0787 31.7075 26.4003 31.7075C31.7219 31.7075 36.1055 27.3392 36.1055 22.0013C36.1055 16.6633 31.722 12.2951 26.4003 12.2951Z" fill="black"/>
<path fill-rule="evenodd" clip-rule="evenodd" d="M26.8377 11.0747H25.9043L25.9054 32.9603H26.842L26.8377 11.0747Z" fill="#FFFF00"/>
<path fill-rule="evenodd" clip-rule="evenodd" d="M25.8823 11.0524C25.8882 11.0465 25.8962 11.0432 25.9046 11.0432H26.838C26.8554 11.0432 26.8695 11.0573 26.8695 11.0747L26.8738 32.9603C26.8738 32.9687 26.8705 32.9767 26.8646 32.9826C26.8586 32.9885 26.8506 32.9919 26.8423 32.9919H25.9057C25.8883 32.9919 25.8741 32.9777 25.8741 32.9603L25.873 11.0747C25.873 11.0664 25.8764 11.0584 25.8823 11.0524ZM25.9361 11.1062L25.9372 32.9288H26.8107L26.8065 11.1062H25.9361Z" fill="black"/>
<path fill-rule="evenodd" clip-rule="evenodd" d="M26.7447 10.95H26.9823L26.9843 33.0875H26.7466L26.7448 10.95H26.7447ZM25.8184 10.9501H26.0578L26.0581 33.0877H25.8185V10.9501H25.8184Z" fill="#FFFF00"/>
<path fill-rule="evenodd" clip-rule="evenodd" d="M26.7135 10.95C26.7135 10.9326 26.7276 10.9185 26.745 10.9185H26.9825C27 10.9185 27.0141 10.9326 27.0141 10.95L27.0161 33.0875C27.0161 33.0958 27.0128 33.1039 27.0069 33.1098C27.001 33.1157 26.9929 33.119 26.9846 33.119H26.7468C26.7294 33.119 26.7153 33.1049 26.7153 33.0875L26.7135 10.9523C26.7135 10.9516 26.7135 10.9508 26.7135 10.95ZM26.7766 10.9815L26.7783 33.056H26.9531L26.951 10.9815H26.7766ZM25.7871 10.9502C25.7871 10.9328 25.8012 10.9187 25.8186 10.9187H26.0581C26.0755 10.9187 26.0896 10.9328 26.0896 10.9502L26.0899 33.0877C26.0899 33.096 26.0866 33.1041 26.0807 33.11C26.0748 33.1159 26.0667 33.1192 26.0584 33.1192H25.8188C25.8014 33.1192 25.7873 33.1051 25.7873 33.0877V10.9532C25.7872 10.9522 25.7871 10.9512 25.7871 10.9502ZM25.8503 10.9817V33.0562H26.0269L26.0265 10.9817H25.8503Z" fill="black"/>
<path fill-rule="evenodd" clip-rule="evenodd" d="M37.2887 22.4326V21.6235L36.6298 21.0097L32.8898 20.0197L27.4998 19.4697L21.0098 19.7997L16.3898 20.8997L15.457 21.5905V22.3998L17.8198 21.3397L23.4298 20.4597H28.8198L32.7798 20.8997L35.5298 21.5597L37.2887 22.4326Z" fill="#FFFF00"/>
<path fill-rule="evenodd" clip-rule="evenodd" d="M27.4985 19.4385C27.5001 19.4384 27.5017 19.4385 27.5033 19.4386L32.8933 19.9886C32.8949 19.9888 32.8966 19.9891 32.8982 19.9895L36.6382 20.9795C36.6432 20.9809 36.6478 20.9834 36.6516 20.9869L37.3105 21.6007C37.3169 21.6067 37.3205 21.6151 37.3205 21.6238V22.4329C37.3205 22.4438 37.3149 22.4539 37.3056 22.4597C37.2963 22.4654 37.2847 22.466 37.275 22.4611L35.5193 21.5898L32.7747 20.9311L28.8183 20.4915H23.4326L17.8291 21.3705L15.4702 22.4289C15.4604 22.4332 15.4491 22.4324 15.4402 22.4266C15.4312 22.4207 15.4258 22.4108 15.4258 22.4001V21.5908C15.4258 21.5808 15.4305 21.5714 15.4385 21.5655L16.3713 20.8747C16.3748 20.8721 16.3787 20.8703 16.3828 20.8693L21.0028 19.7693C21.0047 19.7689 21.0066 19.7686 21.0085 19.7685L27.4985 19.4385ZM21.0146 19.8313L16.4037 20.9292L15.4888 21.6067V22.3514L17.8072 21.3113C17.8097 21.3101 17.8124 21.3093 17.8152 21.3089L23.4252 20.4289C23.4268 20.4286 23.4285 20.4285 23.4301 20.4285H28.8201C28.8213 20.4285 28.8224 20.4286 28.8236 20.4287L32.7836 20.8687C32.7842 20.8688 32.7849 20.8689 32.7856 20.869C32.7862 20.8691 32.7868 20.8692 32.7874 20.8694L35.5374 21.5294C35.5397 21.5299 35.542 21.5307 35.5441 21.5318L37.2575 22.3821V21.6375L36.6144 21.0384L32.8844 20.0511L27.4993 19.5016L21.0146 19.8313Z" fill="black"/>
<path fill-rule="evenodd" clip-rule="evenodd" d="M26.3947 20.3246C28.9669 20.3198 31.4624 20.5683 33.4419 20.9537C35.4845 21.3621 36.922 21.8728 37.4134 22.4465L37.4129 22.7306C36.8202 22.0167 34.8859 21.4933 33.3959 21.1941C31.4315 20.812 28.9527 20.5653 26.3947 20.57C23.6956 20.5751 21.1822 20.8307 19.2465 21.2084C17.6933 21.5166 15.6219 22.1288 15.3633 22.7327V22.437C15.5053 22.0189 17.0477 21.3942 19.2115 20.9611C21.1617 20.5808 23.6797 20.3295 26.3947 20.3246V20.3246ZM26.3958 19.3904C28.968 19.3858 31.4635 19.6343 33.443 20.0196C35.4856 20.4281 36.9231 20.9387 37.4145 21.5124L37.414 21.7964C36.8213 21.0827 34.887 20.5593 33.397 20.2602C31.4326 19.8779 28.9538 19.6311 26.3958 19.6361C23.6967 19.6409 21.1955 19.8968 19.2596 20.2742C17.7607 20.5584 15.6047 21.1949 15.3643 21.7988V21.5029C15.5063 21.0894 17.0799 20.4423 19.2126 20.027C21.1628 19.6467 23.6808 19.3956 26.3958 19.3905V19.3904Z" fill="#FFFF00"/>
<path fill-rule="evenodd" clip-rule="evenodd" d="M26.3976 19.422C26.3971 19.422 26.3967 19.422 26.3962 19.422C23.6829 19.4271 21.1669 19.6781 19.2189 20.0579L19.2189 20.0579C18.154 20.2653 17.2293 20.5305 16.5537 20.795C16.2158 20.9273 15.9411 21.0591 15.7425 21.183C15.6432 21.2449 15.5637 21.3045 15.505 21.3606C15.448 21.415 15.4124 21.4646 15.3961 21.5083V21.6799C15.4287 21.6353 15.47 21.5913 15.5185 21.5481C15.6055 21.4704 15.7173 21.3937 15.8481 21.3185C16.1098 21.1681 16.4506 21.0223 16.8297 20.887C17.588 20.6162 18.5033 20.3856 19.2539 20.2433C21.1919 19.8654 23.6951 19.6094 26.396 19.6046C28.9559 19.5996 31.4368 19.8465 33.4033 20.2293L33.4035 20.2293C34.1491 20.379 35.0067 20.5849 35.7525 20.8431C36.1254 20.9721 36.471 21.1144 36.7609 21.2696C37.0172 21.4068 37.2317 21.5548 37.3829 21.7139L37.3833 21.5241C37.1407 21.247 36.668 20.9811 35.9998 20.7336C35.3258 20.484 34.4575 20.2546 33.4372 20.0505C31.4603 19.6658 28.9673 19.4174 26.3976 19.422ZM26.3946 19.359C26.3951 19.359 26.3956 19.359 26.3961 19.359C28.9701 19.3543 31.4677 19.603 33.4493 19.9887L33.4494 19.9887C34.4716 20.1931 35.3434 20.4233 36.0216 20.6745C36.6986 20.9252 37.1874 21.1986 37.4387 21.4919C37.4436 21.4976 37.4463 21.5049 37.4463 21.5125L37.4458 21.7965C37.4457 21.8098 37.4374 21.8216 37.4249 21.8261C37.4124 21.8306 37.3985 21.8268 37.39 21.8166C37.2456 21.6427 37.0176 21.4784 36.7312 21.3252C36.4452 21.1721 36.1029 21.031 35.7319 20.9026C34.9899 20.6458 34.1355 20.4405 33.3912 20.2911C31.429 19.9092 28.9522 19.6627 26.3962 19.6676C23.6988 19.6725 21.1996 19.9281 19.2659 20.3052L19.2657 20.3052C18.5175 20.4471 17.6054 20.6769 16.8509 20.9463C16.4735 21.0811 16.1366 21.2254 15.8795 21.3731C15.751 21.447 15.6432 21.5213 15.5605 21.5951C15.4775 21.6692 15.4214 21.7413 15.3938 21.8105C15.3882 21.8246 15.3734 21.8327 15.3586 21.8298C15.3438 21.827 15.333 21.814 15.333 21.7989V21.5029C15.333 21.4994 15.3336 21.4959 15.3347 21.4926C15.3548 21.4342 15.3989 21.3747 15.4614 21.315C15.5243 21.255 15.6076 21.1929 15.7092 21.1295C15.9122 21.0028 16.1909 20.8694 16.5307 20.7363C17.2106 20.4701 18.1391 20.204 19.2069 19.9961C21.1589 19.6154 23.6784 19.3642 26.3946 19.359ZM33.4361 20.9847C31.4588 20.5997 28.9653 20.3514 26.3951 20.3561C26.3948 20.3561 26.3945 20.3561 26.3942 20.3561C23.6813 20.3611 21.1657 20.6122 19.2179 20.992C18.1373 21.2083 17.2126 21.4724 16.5409 21.7341C16.205 21.865 15.9333 21.995 15.7372 22.1176C15.6391 22.179 15.5607 22.2381 15.5028 22.294C15.4466 22.3482 15.4114 22.398 15.3951 22.4424V22.6169C15.4871 22.4924 15.6449 22.3716 15.8452 22.2559C16.1023 22.1074 16.436 21.9639 16.809 21.83C17.5553 21.5623 18.463 21.3318 19.2406 21.1775L19.2407 21.1775C21.1786 20.7994 23.694 20.5436 26.3949 20.5385C28.9548 20.5338 31.4357 20.7806 33.4022 21.1632L33.4024 21.1632C34.148 21.313 35.0056 21.5189 35.7514 21.7771C36.1243 21.9061 36.4699 22.0485 36.7598 22.2036C37.0161 22.3408 37.2306 22.4889 37.3818 22.648L37.3822 22.4583C37.1396 22.1811 36.6669 21.9152 35.9987 21.6677C35.3247 21.418 34.4564 21.1886 33.4361 20.9847ZM26.3958 20.2931C28.9695 20.2884 31.4668 20.537 33.4482 20.9228L33.4483 20.9228C34.4705 21.1272 35.3423 21.3574 36.0205 21.6086C36.6975 21.8593 37.1863 22.1327 37.4376 22.4261C37.4425 22.4318 37.4452 22.4391 37.4452 22.4466L37.4447 22.7307C37.4446 22.7439 37.4363 22.7558 37.4238 22.7603C37.4113 22.7648 37.3974 22.761 37.3889 22.7507C37.2445 22.5768 37.0165 22.4125 36.7301 22.2592C36.4441 22.1061 36.1018 21.965 35.7308 21.8366C34.9888 21.5798 34.1343 21.3745 33.39 21.225C31.4278 20.8433 28.951 20.5968 26.3951 20.6015C23.6977 20.6066 21.1864 20.8621 19.2529 21.2393C18.4773 21.3932 17.5728 21.623 16.8303 21.8894C16.459 22.0226 16.1293 22.1646 15.8767 22.3104C15.6225 22.4572 15.4528 22.6044 15.3925 22.7452C15.3866 22.7589 15.3719 22.7666 15.3572 22.7636C15.3426 22.7606 15.332 22.7477 15.332 22.7328V22.437C15.332 22.4335 15.3326 22.4301 15.3337 22.4268C15.3537 22.3679 15.3972 22.3083 15.459 22.2486C15.5211 22.1887 15.6034 22.127 15.7037 22.0642C15.9044 21.9387 16.1802 21.807 16.5181 21.6753C17.194 21.4119 18.1224 21.147 19.2056 20.9302L19.2058 20.9302C21.1582 20.5494 23.6782 20.298 26.3949 20.2931C26.3952 20.2931 26.3955 20.2931 26.3958 20.2931Z" fill="black"/>
<path fill-rule="evenodd" clip-rule="evenodd" d="M26.3438 14.6255C30.3972 14.6052 33.9327 15.1923 35.5503 16.0209L36.1403 17.0415C34.7344 16.2839 30.9201 15.496 26.3497 15.6139C22.6258 15.6368 18.6468 16.0238 16.6504 17.0889L17.3548 15.911C18.9932 15.0613 22.8572 14.6302 26.344 14.6257" fill="#FFFF00"/>
<path fill-rule="evenodd" clip-rule="evenodd" d="M26.3383 14.5942C24.595 14.5967 22.7574 14.7056 21.1504 14.9202C19.5433 15.1348 18.163 15.4555 17.3386 15.883C17.3334 15.8857 17.329 15.8898 17.326 15.8948L16.6217 17.0728C16.6144 17.085 16.6161 17.1005 16.6259 17.1107C16.6356 17.121 16.651 17.1235 16.6635 17.1168C17.6566 16.5869 19.1459 16.2245 20.8548 15.9918C22.5628 15.7593 24.4872 15.6568 26.3482 15.6454L26.3489 15.6454C28.6321 15.5865 30.7263 15.7539 32.4249 16.0305C34.1245 16.3073 35.4254 16.693 36.1236 17.0693C36.136 17.076 36.1514 17.0736 36.1612 17.0635C36.171 17.0534 36.1729 17.038 36.1659 17.0258L35.5758 16.0051C35.5728 15.9999 35.5683 15.9956 35.5629 15.9928C34.7497 15.5762 33.4575 15.2217 31.8636 14.9737C30.269 14.7257 28.3701 14.5839 26.342 14.594C26.3407 14.594 26.3395 14.5941 26.3383 14.5942ZM31.8539 15.036C30.264 14.7887 28.3699 14.6471 26.3462 14.657C26.3449 14.6572 26.3436 14.6573 26.3423 14.6573C24.6001 14.6595 22.7638 14.7684 21.1587 14.9827C19.5577 15.1965 18.1905 15.5148 17.3755 15.9349L16.7328 17.0098C17.7343 16.5025 19.1909 16.1547 20.8463 15.9294C22.5577 15.6964 24.4848 15.5938 26.3475 15.5824C28.6346 15.5234 30.7326 15.6911 32.4351 15.9683C34.0622 16.2333 35.3305 16.5988 36.0572 16.9637L35.5259 16.0447C34.7211 15.6345 33.4401 15.2828 31.8539 15.036Z" fill="black"/>
<path fill-rule="evenodd" clip-rule="evenodd" d="M26.3983 15.4681C28.7101 15.462 30.944 15.5924 32.7206 15.9129C34.3751 16.2209 35.953 16.683 36.1786 16.9316L36.3535 17.2407C35.8048 16.8824 34.4394 16.4835 32.6862 16.151C30.9255 15.8201 28.6932 15.7105 26.3942 15.7165C23.7848 15.7076 21.7575 15.8453 20.0176 16.1487C18.1775 16.493 16.9009 16.9849 16.5859 17.2186L16.7573 16.8918C17.3693 16.5796 18.3403 16.2033 19.9719 15.9096C21.7712 15.5809 23.82 15.4823 26.3984 15.4681H26.3983L26.3983 15.4681ZM26.3973 14.5349C28.6097 14.529 30.7942 14.6523 32.497 14.9584C33.84 15.2199 35.1681 15.628 35.6544 15.9912L35.9102 16.3977C35.4753 15.9143 33.8383 15.4562 32.3931 15.1996C30.7034 14.9082 28.6097 14.7928 26.3972 14.7744C24.0753 14.7809 21.9296 14.9231 20.2645 15.2263C18.676 15.5286 17.6509 15.8865 17.2172 16.166L17.4421 15.8264C18.0407 15.5113 19.0077 15.2219 20.2255 14.9853C21.9029 14.6799 24.0618 14.5414 26.3973 14.5349H26.3973Z" fill="#FFFF00"/>
<path fill-rule="evenodd" clip-rule="evenodd" d="M26.3959 14.5664C28.6073 14.5606 30.7895 14.6839 32.4895 14.9894L26.3959 14.5664ZM26.3955 14.5034C28.6088 14.4975 30.7954 14.6209 32.5009 14.9274L32.5013 14.9275C33.1738 15.0584 33.8428 15.2261 34.4049 15.4067C34.9658 15.5869 35.4239 15.781 35.6716 15.966C35.6747 15.9683 35.6774 15.9712 35.6794 15.9745L35.9352 16.381C35.944 16.3948 35.9406 16.413 35.9276 16.4229C35.9145 16.4328 35.8961 16.431 35.8851 16.4188C35.7806 16.3026 35.6011 16.1855 35.365 16.0711C35.1296 15.957 34.8405 15.8469 34.5192 15.7436C33.8767 15.5372 33.1076 15.3588 32.386 15.2307C30.6988 14.9397 28.6072 14.8244 26.3955 14.8059C24.0746 14.8124 21.931 14.9546 20.2686 15.2573C18.6805 15.5595 17.6608 15.9165 17.2326 16.1925C17.22 16.2006 17.2035 16.1987 17.1931 16.1881C17.1826 16.1775 17.181 16.161 17.1892 16.1486L17.4142 15.809C17.4171 15.8046 17.4211 15.801 17.4258 15.7986C18.0285 15.4813 18.9991 15.1912 20.2178 14.9544L20.2181 14.9543C21.8981 14.6485 24.0591 14.5099 26.3954 14.5034M32.4895 14.9894C33.1599 15.12 33.8264 15.287 34.3857 15.4667C34.9425 15.6456 35.3895 15.8358 35.6292 16.013L35.7668 16.2317C35.6645 16.1573 35.5378 16.0847 35.3925 16.0143C35.1535 15.8985 34.8615 15.7874 34.5385 15.6836C33.8925 15.4761 33.1205 15.2971 32.3969 15.1686L32.3968 15.1686C30.7046 14.8767 28.6088 14.7613 26.3958 14.7429L26.3955 14.7429C24.0726 14.7494 21.9248 14.8917 20.2572 15.1953L20.2569 15.1954C18.7976 15.4731 17.8095 15.7983 17.3177 16.0688L17.4623 15.8506C18.0572 15.5391 19.0176 15.2518 20.2296 15.0163C21.9044 14.7114 24.0612 14.5729 26.3958 14.5664M26.3955 15.4367C26.3958 15.4367 26.3962 15.4366 26.3965 15.4366C28.7093 15.4305 30.9453 15.5609 32.7245 15.882L32.7247 15.882C33.5529 16.0361 34.362 16.2289 34.9927 16.4143C35.3079 16.507 35.5791 16.5981 35.7859 16.6817C35.8893 16.7235 35.9771 16.7636 36.0465 16.8014C36.1152 16.8389 36.1684 16.8753 36.2002 16.9104C36.2018 16.9122 36.2032 16.9141 36.2043 16.9161L36.3792 17.2252C36.3864 17.2378 36.384 17.2537 36.3734 17.2637C36.3628 17.2736 36.3468 17.275 36.3346 17.2671C36.0643 17.0906 35.5896 16.9024 34.9609 16.7164C34.3331 16.5307 33.5546 16.3481 32.6787 16.182C30.921 15.8517 28.691 15.742 26.3926 15.748L26.3924 15.748C23.7842 15.7391 21.7589 15.8768 20.0215 16.1797C19.1029 16.3516 18.3252 16.5603 17.7381 16.755C17.1495 16.9503 16.756 17.1304 16.603 17.2439C16.5912 17.2527 16.5749 17.2521 16.5638 17.2425C16.5526 17.233 16.5495 17.217 16.5563 17.204L16.7278 16.8772C16.7308 16.8714 16.7355 16.8667 16.7413 16.8638C17.3564 16.55 18.3304 16.1728 19.9645 15.8786C21.7664 15.5494 23.8172 15.4508 26.3955 15.4367ZM26.3977 15.4997C26.3974 15.4997 26.3972 15.4997 26.3969 15.4997C23.8189 15.5138 21.7723 15.6124 19.9759 15.9406L19.9758 15.9406C18.3546 16.2325 17.3882 16.6057 16.7789 16.9154L16.6677 17.1274C16.8685 17.0111 17.229 16.8575 17.7182 16.6952C18.3082 16.4995 19.0888 16.2901 20.0101 16.1177L20.0105 16.1177C21.7528 15.8139 23.7821 15.6761 26.3925 15.685C28.6921 15.679 30.9268 15.7886 32.6903 16.1201L32.6904 16.1201C33.5677 16.2864 34.3484 16.4695 34.9788 16.656C35.5359 16.8208 35.9777 16.9888 36.265 17.1513L36.1513 16.9503C36.1263 16.9238 36.0815 16.8923 36.0163 16.8568C35.9498 16.8205 35.8644 16.7814 35.7623 16.7401C35.5581 16.6576 35.2891 16.5672 34.9749 16.4748C34.3466 16.29 33.5396 16.0978 32.7133 15.944C30.9396 15.624 28.7083 15.4936 26.3977 15.4997Z" fill="black"/>
<path fill-rule="evenodd" clip-rule="evenodd" d="M31.8074 26.5385C29.8034 26.1644 27.7958 26.1101 26.3935 26.1266C19.6388 26.2057 17.4567 27.5136 17.1904 27.9096L16.6855 27.0866C18.4053 25.8401 22.0836 25.141 26.4301 25.2125C28.6871 25.2495 30.6348 25.3994 32.2732 25.7167L31.8073 26.5387" fill="#FFFF00"/>
<path fill-rule="evenodd" clip-rule="evenodd" d="M16.726 27.0951L17.1915 27.8539C17.2795 27.7497 17.4657 27.6066 17.7747 27.4471C18.1247 27.2663 18.6356 27.0625 19.3488 26.8689C20.7753 26.4816 23.0123 26.1347 26.3915 26.0951C27.7896 26.0786 29.7899 26.1325 31.7894 26.5034L32.2225 25.7394C30.5955 25.4282 28.6642 25.2807 26.4279 25.244L26.4284 25.2125L26.4279 25.244C24.2564 25.2083 22.2524 25.3651 20.577 25.6863C18.9164 26.0046 17.5815 26.4839 16.726 27.0951ZM31.8336 26.5532L32.299 25.7323C32.304 25.7234 32.3044 25.7127 32.3002 25.7035C32.2959 25.6943 32.2875 25.6877 32.2775 25.6858C30.6365 25.368 28.6868 25.218 26.429 25.181C24.254 25.1453 22.2456 25.3022 20.5652 25.6244C18.8855 25.9464 17.5307 26.4339 16.6654 27.0611C16.652 27.0708 16.6484 27.0891 16.657 27.1031L17.1618 27.9261C17.1674 27.9352 17.1773 27.9409 17.188 27.9411C17.1988 27.9413 17.2089 27.9361 17.2148 27.9272C17.2768 27.8351 17.457 27.6821 17.8036 27.5031C18.1488 27.3248 18.6554 27.1224 19.3654 26.9297C20.7852 26.5442 23.0167 26.1977 26.3922 26.1581C27.7926 26.1416 29.7962 26.1959 31.796 26.5687C31.8095 26.5731 31.8246 26.5678 31.8323 26.5554C31.8328 26.5547 31.8332 26.554 31.8336 26.5532Z" fill="black"/>
<path fill-rule="evenodd" clip-rule="evenodd" d="M26.3544 26.0105C28.2334 26.0386 30.0777 26.1162 31.858 26.4482L31.7291 26.6758C30.0757 26.3706 28.313 26.2537 26.3607 26.2633C23.8678 26.2438 21.3464 26.4766 19.1512 27.1066C18.4586 27.2994 17.3119 27.7447 17.195 28.1126L17.0667 27.9012C17.1037 27.6837 17.7967 27.2322 19.0923 26.8682C21.6067 26.1482 23.9586 26.0268 26.3544 26.0104V26.0106L26.3544 26.0105ZM26.4396 25.065C28.3864 25.1013 30.3969 25.1914 32.351 25.5784L32.2168 25.8153C30.4521 25.465 28.7662 25.3482 26.4511 25.3126C23.9503 25.3172 21.2975 25.4955 18.8855 26.1967C18.1068 26.4235 16.7629 26.9139 16.7181 27.3022L16.5898 27.075C16.619 26.7224 17.7825 26.2623 18.8292 25.9579C21.2598 25.2512 23.9195 25.0695 26.4397 25.0649L26.4396 25.065Z" fill="#FFFF00"/>
<path fill-rule="evenodd" clip-rule="evenodd" d="M26.4401 25.0347C26.4396 25.0347 26.4391 25.0347 26.4386 25.0347C23.9173 25.0392 21.2544 25.221 18.8198 25.9288L18.8198 25.9288C18.2956 26.0812 17.7415 26.2729 17.3142 26.4709C17.1007 26.5699 16.9177 26.671 16.7857 26.7703C16.7197 26.82 16.6655 26.8699 16.6267 26.9196C16.5879 26.9692 16.563 27.0205 16.5587 27.0725C16.5582 27.0785 16.5595 27.0846 16.5625 27.0899L16.6907 27.3171C16.6972 27.3285 16.7102 27.3344 16.7231 27.3318C16.7359 27.3293 16.7456 27.3187 16.7471 27.3057C16.7518 27.2652 16.7738 27.2205 16.8144 27.1719C16.8547 27.1235 16.9118 27.0733 16.9828 27.0221C17.1249 26.9197 17.3194 26.8158 17.5381 26.7164C17.9753 26.5178 18.5045 26.3389 18.893 26.2257C21.3008 25.5257 23.9502 25.3474 26.4499 25.3429C28.7641 25.3784 30.4479 25.4952 32.2099 25.845C32.2227 25.8475 32.2357 25.8416 32.2421 25.8302L32.3764 25.5933C32.3812 25.5849 32.3816 25.5746 32.3775 25.5658C32.3735 25.557 32.3655 25.5506 32.3559 25.5487C30.3993 25.1612 28.3869 25.0711 26.4401 25.0347ZM26.4379 25.0952C23.919 25.0998 21.263 25.2815 18.8367 25.9869C18.3141 26.1389 17.7631 26.3295 17.3397 26.5258C17.1278 26.624 16.9491 26.723 16.8221 26.8187C16.7585 26.8665 16.7088 26.9127 16.6744 26.9569C16.6426 26.9975 16.625 27.0348 16.62 27.0687L16.7083 27.2251C16.7225 27.1939 16.7429 27.1632 16.7679 27.1331C16.8127 27.0795 16.874 27.0259 16.9475 26.973C17.0943 26.8672 17.2929 26.7614 17.5131 26.6614C17.9538 26.4611 18.4859 26.2813 18.8761 26.1677L18.8761 26.1676C21.2921 25.4653 23.9482 25.2869 26.4501 25.2824L26.4506 25.2824V25.2824C28.7571 25.3178 30.4408 25.4339 32.2002 25.7814L32.3031 25.6C30.3646 25.2203 28.3709 25.1313 26.4381 25.0952C26.438 25.0952 26.438 25.0952 26.4379 25.0952ZM26.3499 26.0406C26.3514 26.0408 26.3529 26.0408 26.3544 26.0408C28.2179 26.0686 30.0455 26.1453 31.8098 26.4702L31.7124 26.6421C30.0628 26.3394 28.3049 26.2235 26.3598 26.233C23.8652 26.2135 21.3408 26.4464 19.142 27.0775C18.7944 27.1742 18.333 27.3343 17.9434 27.5165C17.7486 27.6076 17.5708 27.7047 17.434 27.8027C17.3234 27.8819 17.2358 27.9642 17.1897 28.0473L17.0979 27.8958C17.1032 27.8769 17.1148 27.854 17.1346 27.8272C17.1579 27.7956 17.1914 27.7604 17.2355 27.722C17.3237 27.6453 17.4523 27.5583 17.621 27.4662C17.9584 27.282 18.4533 27.0789 19.0995 26.8973L19.0996 26.8973C21.6087 26.1788 23.9562 26.0572 26.3499 26.0406ZM26.3532 25.9801C26.3545 25.9801 26.3559 25.9802 26.3572 25.9803C28.2354 26.0084 30.0807 26.0861 31.8626 26.4184C31.8722 26.4202 31.8803 26.4265 31.8844 26.4354C31.8886 26.4442 31.8881 26.4546 31.8833 26.4631L31.7544 26.6906C31.7481 26.7019 31.7353 26.7078 31.7226 26.7055C30.0716 26.4007 28.3109 26.284 26.3599 26.2935L26.3595 26.2935C23.8683 26.274 21.35 26.5067 19.1586 27.1357L19.1583 27.1357C18.8133 27.2318 18.3551 27.3907 17.969 27.5713C17.7759 27.6616 17.6018 27.7569 17.4692 27.8519C17.3351 27.9479 17.2489 28.0398 17.2228 28.1218C17.2192 28.1331 17.2094 28.1413 17.1976 28.1427C17.1858 28.1441 17.1743 28.1385 17.1681 28.1283L17.0399 27.9168C17.0361 27.9106 17.0347 27.9032 17.0359 27.8961C17.0416 27.8624 17.0594 27.8272 17.0859 27.7913C17.1126 27.7551 17.1495 27.7166 17.1958 27.6763C17.2884 27.5958 17.421 27.5065 17.592 27.4131C17.9343 27.2262 18.4337 27.0216 19.083 26.8391C21.6014 26.118 23.9566 25.9966 26.3532 25.9801Z" fill="black"/>
<path fill-rule="evenodd" clip-rule="evenodd" d="M36.0352 27.2116L35.2235 28.471L32.8914 26.3998L26.8414 22.3298L20.0214 18.5898L16.4805 17.3787L17.2351 15.9795L17.4914 15.8398L19.6914 16.3898L26.9514 20.1298L31.1314 22.7698L34.6514 25.2998L36.0814 26.9498L36.0352 27.2116Z" fill="#FFFF00"/>
<path fill-rule="evenodd" clip-rule="evenodd" d="M17.4766 15.8122C17.4835 15.8084 17.4916 15.8074 17.4993 15.8093L19.6993 16.3593C19.7016 16.3599 19.7039 16.3607 19.7061 16.3618L26.9661 20.1018C26.9669 20.1023 26.9677 20.1027 26.9685 20.1032L31.1485 22.7432C31.149 22.7436 31.1495 22.7439 31.15 22.7443L34.67 25.2743C34.672 25.2757 34.6738 25.2774 34.6754 25.2792L36.1054 26.9292C36.1117 26.9364 36.1143 26.946 36.1127 26.9553L36.0665 27.2171C36.0657 27.2213 36.0642 27.2252 36.0619 27.2287L35.2502 28.4881C35.2452 28.4959 35.2371 28.501 35.228 28.5023C35.2189 28.5035 35.2097 28.5007 35.2028 28.4946L32.8723 26.4248L26.8252 22.3568L20.0089 18.6188L16.4705 17.4086C16.4618 17.4056 16.4548 17.3989 16.4514 17.3903C16.448 17.3816 16.4486 17.372 16.453 17.3638L17.2076 15.9646C17.2105 15.9592 17.2149 15.9548 17.2203 15.9519L17.4766 15.8122ZM17.4959 15.8734L17.2586 16.0028L16.5261 17.361L20.0318 18.56C20.0335 18.5606 20.0352 18.5614 20.0368 18.5622L26.8568 22.3022C26.8572 22.3025 26.8577 22.3027 26.8581 22.303C26.8585 22.3032 26.8589 22.3035 26.8592 22.3037L32.9092 26.3737C32.9104 26.3745 32.9115 26.3754 32.9126 26.3763L35.2172 28.4231L36.0055 27.1999L36.048 26.9592L34.6302 25.3233L31.114 22.796L26.936 20.1572L19.6804 16.4196L17.4959 15.8734Z" fill="black"/>
<path fill-rule="evenodd" clip-rule="evenodd" d="M16.352 17.4119C16.9731 16.9906 21.5373 19.0239 26.313 21.9036C31.0761 24.7915 35.6275 28.0549 35.2166 28.6656L35.0815 28.8782L35.0195 28.9271C35.0328 28.9176 35.1013 28.8338 35.0128 28.6074C34.8099 27.9397 31.5814 25.3634 26.2245 22.129C21.0023 19.015 16.65 17.1381 16.2148 17.6746L16.352 17.4118H16.3519L16.352 17.4119ZM36.2004 27.1938C36.5931 26.4181 32.3596 23.229 27.1109 20.1239C21.7414 17.0806 17.8715 15.2893 17.1647 15.8235L17.0076 16.1094C17.0063 16.1251 17.0133 16.0899 17.0465 16.0642C17.1751 15.9521 17.3881 15.9597 17.4842 15.9579C18.7014 15.9762 22.1776 17.5759 27.0549 20.372C29.192 21.6166 36.0827 26.036 36.0564 27.2788C36.0582 27.3856 36.0652 27.4076 36.025 27.4605L36.2003 27.1939V27.1937L36.2004 27.1938Z" fill="#FFFF00"/>
<path fill-rule="evenodd" clip-rule="evenodd" d="M20.4023 16.6033C22.1308 17.3654 24.4417 18.5747 27.1267 20.0965L27.1272 20.0968C29.7523 21.6498 32.124 23.224 33.7907 24.5074C34.6238 25.149 35.2819 25.7186 35.7073 26.1771C35.9199 26.4062 36.0757 26.6089 36.166 26.78C36.2552 26.9489 36.2851 27.0959 36.2292 27.2073C36.2285 27.2086 36.2278 27.21 36.227 27.2112L36.0706 27.449C36.0652 27.4589 36.0586 27.4689 36.0504 27.4796C36.0402 27.4931 36.021 27.496 36.0071 27.4862C35.9933 27.4764 35.9897 27.4574 35.999 27.4432L36.0163 27.4169C36.0217 27.4063 36.0242 27.3971 36.0255 27.3861C36.0274 27.3699 36.0269 27.3509 36.0261 27.3207C36.0258 27.3088 36.0254 27.2952 36.0252 27.2793L36.0252 27.2781C36.0267 27.2075 36.0035 27.1226 35.9551 27.024C35.9069 26.9257 35.8345 26.8158 35.7403 26.6957C35.5518 26.4556 35.278 26.1775 34.9407 25.8738C34.2663 25.2664 33.3418 24.5594 32.3489 23.8518C30.3633 22.4366 28.1072 21.0212 27.0394 20.3993C24.6013 19.0015 22.5138 17.9031 20.8841 17.1519C20.0692 16.7763 19.3692 16.4877 18.7973 16.2919C18.225 16.096 17.7836 15.994 17.4846 15.9895C17.4767 15.9896 17.4682 15.9897 17.4592 15.9898C17.4115 15.9902 17.3485 15.9908 17.2825 16.0009C17.2037 16.0128 17.1252 16.0376 17.0675 16.088C17.067 16.0884 17.0666 16.0888 17.0661 16.0892C17.0541 16.0985 17.0465 16.1097 17.0417 16.118C17.0406 16.12 17.0396 16.1219 17.0387 16.1236C17.0386 16.1237 17.0386 16.1238 17.0385 16.1239C17.0378 16.1251 17.0364 16.1279 17.035 16.13C17.0345 16.1307 17.0336 16.1321 17.0322 16.1336C17.0314 16.1346 17.0281 16.1384 17.0226 16.1412C17.0158 16.1448 17.0019 16.1481 16.9891 16.1385C16.9801 16.1318 16.9778 16.1228 16.9773 16.121L16.9773 16.1209C16.9761 16.1162 16.9762 16.1119 16.9762 16.111C16.9762 16.111 16.9762 16.111 16.9762 16.111C16.9763 16.1094 16.9764 16.1078 16.9765 16.1066C16.9769 16.1023 16.9782 16.098 16.9803 16.0942L17.1373 15.8083C17.1395 15.8044 17.1424 15.801 17.146 15.7983C17.2428 15.7252 17.3892 15.6947 17.5757 15.6986C17.7631 15.7024 17.9958 15.7411 18.27 15.8116C18.8186 15.9526 19.5382 16.2223 20.4023 16.6033ZM36.0888 27.3066L36.1729 27.1788C36.1731 27.1784 36.1733 27.178 36.1736 27.1776C36.214 27.0952 36.197 26.9737 36.1103 26.8094C36.0237 26.6455 35.8722 26.4475 35.6611 26.22C35.2392 25.7653 34.5844 25.1982 33.7522 24.5574C32.0882 23.276 29.7189 21.7033 27.0953 20.1512C24.4111 18.6298 22.1024 17.4218 20.3769 16.661C19.5139 16.2805 18.798 16.0124 18.2543 15.8726C17.9824 15.8027 17.7549 15.7653 17.5744 15.7616C17.3969 15.7579 17.2695 15.7869 17.1892 15.8447L17.1122 15.9849C17.1642 15.9604 17.2203 15.9466 17.2731 15.9385C17.3439 15.9278 17.412 15.9272 17.4596 15.9267C17.4685 15.9266 17.4766 15.9266 17.4839 15.9264L17.485 15.9264L17.485 15.9264C17.7945 15.9311 18.2439 16.0359 18.8177 16.2323C19.3924 16.429 20.0945 16.7185 20.9105 17.0947C22.5425 17.8469 24.6317 18.9464 27.0708 20.3447L27.071 20.3448C28.1403 20.9676 30.3981 22.3841 32.3855 23.8004C33.3791 24.5086 34.3059 25.2172 34.9829 25.8269C35.3213 26.1317 35.5982 26.4125 35.7899 26.6568C35.8857 26.7789 35.9608 26.8926 36.0117 26.9962C36.0623 27.0993 36.0898 27.1943 36.0882 27.2789C36.0884 27.2886 36.0886 27.2979 36.0888 27.3066ZM16.3366 17.3844C16.3307 17.3878 16.326 17.393 16.3232 17.3994L16.1872 17.6601C16.1797 17.6744 16.1843 17.6921 16.1978 17.701C16.2113 17.7099 16.2294 17.7071 16.2396 17.6945C16.2612 17.6679 16.2968 17.6464 16.3499 17.6325C16.4029 17.6186 16.4712 17.6128 16.5548 17.6158C16.7222 17.6217 16.9456 17.6625 17.2201 17.7368C17.7687 17.8854 18.515 18.1663 19.4121 18.5617C21.2058 19.3525 23.5982 20.5995 26.2085 22.156C28.8863 23.7728 31.0317 25.2248 32.5327 26.3559C33.2833 26.9214 33.8723 27.4064 34.2862 27.7914C34.4931 27.9839 34.6558 28.151 34.7728 28.2903C34.8906 28.4305 34.9596 28.5396 34.983 28.6166C34.983 28.6168 34.9831 28.6171 34.9832 28.6173C34.9834 28.6178 34.9835 28.6184 34.9838 28.6189C35.0635 28.823 35.0075 28.8937 35.0018 28.9009C35.0015 28.9013 35.0013 28.9015 35.0013 28.9015L35.0003 28.9023C34.9868 28.9129 34.9843 28.9323 34.9946 28.946C35.0049 28.9597 35.0242 28.9627 35.0381 28.9527C35.0391 28.952 35.0401 28.9513 35.0411 28.9504L35.1013 28.9029C35.1041 28.9007 35.1065 28.8981 35.1084 28.8951L35.2431 28.6832C35.2432 28.6831 35.2432 28.683 35.2433 28.6829C35.2749 28.6356 35.2809 28.5779 35.2678 28.5144C35.2549 28.4512 35.2227 28.3799 35.1745 28.3017C35.0781 28.1451 34.9132 27.9541 34.691 27.7351C34.2461 27.2966 33.5655 26.7402 32.7242 26.1133C31.0413 24.8593 28.7118 23.321 26.3297 21.8767L26.3296 21.8766C23.9408 20.4363 21.6047 19.2074 19.7877 18.3911C18.8793 17.9831 18.0999 17.6778 17.5081 17.5008C17.2124 17.4124 16.9624 17.3557 16.7661 17.3345C16.6679 17.3239 16.5823 17.3221 16.5106 17.3299C16.4402 17.3377 16.3811 17.3549 16.3366 17.3844ZM35.089 28.808L35.1903 28.6487L35.1908 28.648C35.2103 28.619 35.2169 28.5798 35.2061 28.5271C35.1952 28.474 35.1671 28.4098 35.1208 28.3347C35.0284 28.1846 34.8679 27.9979 34.6468 27.78C34.205 27.3446 33.5271 26.7902 32.6865 26.1638C31.0057 24.9115 28.678 23.3742 26.297 21.9306C23.91 20.4913 21.5762 19.2637 19.7619 18.4486C18.8546 18.0411 18.078 17.737 17.4901 17.5612C17.196 17.4733 16.9502 17.4178 16.7593 17.3972C16.6639 17.3868 16.5832 17.3854 16.5175 17.3926C16.4556 17.3994 16.4091 17.4137 16.3763 17.4338L16.2988 17.5824C16.31 17.5784 16.3217 17.5748 16.3339 17.5716C16.3949 17.5555 16.4699 17.5497 16.5571 17.5528C16.7314 17.559 16.9602 17.6011 17.2366 17.676C17.7896 17.8258 18.5393 18.1081 19.4375 18.504C21.2342 19.2961 23.629 20.5445 26.2409 22.1019L26.2411 22.102C28.9202 23.7196 31.0675 25.1729 32.5706 26.3055C33.3222 26.8718 33.9131 27.3582 34.3291 27.7452C34.5371 27.9387 34.7018 28.1077 34.8211 28.2497C34.9391 28.3902 35.0152 28.5072 35.0429 28.5971C35.0772 28.6853 35.0891 28.7547 35.089 28.808Z" fill="black"/>
<path d="M19.8668 23.2111C19.8668 25.0009 20.5997 26.6196 21.787 27.8027C22.9767 28.9882 24.5934 29.7364 26.386 29.7364C28.1879 29.7364 29.8232 29.0046 31.0078 27.8236C32.1924 26.6427 32.9265 25.0129 32.9269 23.2168H32.9266V14.506L19.8652 14.4905L19.8666 23.211H19.8668L19.8668 23.2111Z" fill="white"/>
<path fill-rule="evenodd" clip-rule="evenodd" d="M19.8281 14.4536L32.9633 14.4692V23.18H32.9635L32.9635 23.2168C32.9632 25.0232 32.2248 26.6623 31.0336 27.8497C29.8424 29.0373 28.1979 29.7733 26.3858 29.7733C24.5826 29.7733 22.9568 29.0207 21.7608 27.8288C20.575 26.6474 19.8398 25.0335 19.8298 23.248H19.8295L19.8281 14.4536ZM19.8731 23.2111L19.9032 23.2111L19.9019 14.5274L32.8895 14.5429V23.2537H32.8897C32.8794 25.0249 32.1514 26.6313 30.9815 27.7975C29.8036 28.9719 28.1775 29.6995 26.3858 29.6995C24.6037 29.6995 22.9962 28.9559 21.8128 27.7766C20.632 26.6001 19.9034 24.9906 19.9034 23.2111L19.8731 23.2111Z" fill="black"/>
<path d="M20.1115 23.2231V23.228C20.1115 24.9393 20.8201 26.4977 21.9568 27.629C23.0957 28.7626 24.6643 29.4674 26.3803 29.4674C28.1052 29.4674 29.6706 28.7677 30.8047 27.6385C31.9386 26.5093 32.6414 24.9509 32.6416 23.2337H32.6414V14.7828L20.119 14.7808L20.1113 23.223L20.1115 23.2231ZM30.1238 17.3109L30.1242 22.6889L30.1196 23.2578H30.1197C30.1197 23.4075 30.1107 23.5781 30.0932 23.7234C29.9915 24.5737 29.6004 25.3148 29.0213 25.8913C28.3433 26.5662 27.4075 26.9849 26.3761 26.9849C25.3501 26.9849 24.4358 26.5517 23.7549 25.8739C23.0565 25.1787 22.6516 24.2254 22.6516 23.2397L22.6502 17.2972L30.1236 17.3106L30.1238 17.3109L30.1238 17.3109Z" fill="#FF0000"/>
<path fill-rule="evenodd" clip-rule="evenodd" d="M20.0897 14.7529L32.6679 14.755V23.2058H32.6682L32.6682 23.2337C32.6679 24.9587 31.9619 26.5242 30.8231 27.6584C29.6839 28.7925 28.1115 29.4954 26.3789 29.4954C24.6552 29.4954 23.0796 28.7874 21.9357 27.6489C20.7976 26.5162 20.0867 24.957 20.0823 23.2442L20.082 23.2442L20.0897 14.7529ZM32.6123 23.2616H32.6121V14.8108L20.1455 14.8087L20.1379 23.2021L20.138 23.2021V23.2281C20.138 24.9315 20.8433 26.4829 21.9751 27.6094C23.1091 28.738 24.6707 29.4395 26.3789 29.4395C28.0962 29.4395 29.6546 28.743 30.7837 27.6188C31.9064 26.5008 32.6045 24.9601 32.6123 23.2616ZM22.6209 17.2693L30.1337 17.2828L30.1772 17.326L30.1503 17.3327L30.1507 22.689L30.1507 22.6892L30.1463 23.2458V23.2579C30.1463 23.4085 30.1372 23.5803 30.1196 23.7268C30.017 24.5838 29.6228 25.3306 29.0396 25.9112C28.3566 26.5911 27.4138 27.0129 26.3747 27.0129C25.3406 27.0129 24.4194 26.5762 23.7339 25.8937C23.0303 25.1934 22.6224 24.2331 22.6224 23.2398L22.6209 17.2693ZM30.0904 23.2858H30.0901L30.0949 22.689L30.0949 22.6887L30.0945 17.3386L22.6767 17.3252L22.6782 23.2398C22.6782 24.2179 23.0799 25.1641 23.7732 25.8542C24.4495 26.5274 25.357 26.957 26.3747 26.957C27.3984 26.957 28.3272 26.5416 29.0002 25.8716C29.5753 25.2992 29.9632 24.5637 30.0642 23.7202C30.0804 23.5851 30.0893 23.4275 30.0904 23.2858Z" fill="black"/>
<path d="M20.9219 16.9871C20.9367 16.3798 21.3676 16.236 21.3707 16.2339C21.3738 16.2319 21.8362 16.3887 21.8346 16.9927L20.9219 16.9871" fill="#FFFF00"/>
<path d="M20.5496 16.2458L20.4746 16.9437L20.9301 16.9447C20.9344 16.3673 21.3672 16.2712 21.3777 16.2734C21.3875 16.2728 21.8165 16.401 21.8279 16.9447H22.2845L22.2021 16.2415L20.5496 16.2456V16.2458L20.5496 16.2458Z" fill="#FFFF00"/>
<path fill-rule="evenodd" clip-rule="evenodd" d="M20.5262 16.2182L20.5234 16.2182V16.2439L20.4453 16.9711L20.9587 16.9722L20.9589 16.9449C20.961 16.664 21.0669 16.5031 21.171 16.4124C21.2234 16.3667 21.276 16.3383 21.3159 16.3215C21.3359 16.3131 21.3525 16.3076 21.3643 16.3044C21.3701 16.3028 21.3746 16.3017 21.3775 16.3012C21.3775 16.3012 21.3776 16.3012 21.3775 16.3012C21.3777 16.3012 21.3779 16.3012 21.3781 16.3013C21.3811 16.3021 21.3856 16.3035 21.3915 16.3056C21.4032 16.3098 21.4198 16.3165 21.4398 16.3263C21.4797 16.3458 21.5323 16.3774 21.585 16.4253C21.6898 16.5206 21.7962 16.6816 21.8017 16.9453L21.8023 16.9722H22.3168L22.2278 16.2139L20.5628 16.2181L20.53 16.1826L20.5262 16.2182ZM20.5718 16.3089L20.5065 16.9163L20.9044 16.9171C20.9132 16.637 21.0224 16.4689 21.1348 16.3709C21.192 16.3211 21.2494 16.2899 21.2936 16.2712L20.5784 16.273V16.3162L20.5718 16.3089ZM21.4513 16.2708C21.4554 16.2727 21.4596 16.2747 21.464 16.2768C21.5076 16.2982 21.5648 16.3326 21.622 16.3846C21.7333 16.4858 21.8434 16.6528 21.8558 16.9172H22.2549L22.1789 16.269L21.4513 16.2708Z" fill="black"/>
<path d="M20.4444 16.9465H22.3085C22.3478 16.9465 22.3799 16.9853 22.3799 17.0328C22.3799 17.0801 22.3478 17.1187 22.3085 17.1187H20.4444C20.4052 17.1187 20.373 17.0801 20.373 17.0328C20.373 16.9853 20.4052 16.9465 20.4444 16.9465Z" fill="#FFFF00"/>
<path fill-rule="evenodd" clip-rule="evenodd" d="M20.4446 16.9739C20.4251 16.9739 20.4007 16.9953 20.4007 17.0327C20.4007 17.0698 20.425 17.0911 20.4446 17.0911H22.3087C22.3282 17.0911 22.3526 17.0698 22.3526 17.0327C22.3526 16.9953 22.3281 16.9739 22.3087 16.9739H20.4446ZM20.3457 17.0327C20.3457 16.9752 20.3855 16.9189 20.4446 16.9189H22.3087C22.3678 16.9189 22.4076 16.9752 22.4076 17.0327C22.4076 17.0902 22.3677 17.1461 22.3087 17.1461H20.4446C20.3856 17.1461 20.3457 17.0902 20.3457 17.0327Z" fill="black"/>
<path d="M21.1211 16.9431C21.1231 16.5788 21.3699 16.4756 21.3712 16.4758C21.3713 16.4758 21.6288 16.5822 21.6309 16.9431H21.1211" fill="#FFFF00"/>
<path fill-rule="evenodd" clip-rule="evenodd" d="M21.3712 16.5063C21.3775 16.5096 21.3862 16.5145 21.3968 16.5213C21.4193 16.5358 21.4496 16.5589 21.48 16.5926C21.5372 16.656 21.5958 16.7583 21.6029 16.9157H21.1494C21.1561 16.7563 21.2125 16.6539 21.2673 16.5909C21.2965 16.5574 21.3255 16.5348 21.3471 16.5206C21.357 16.5141 21.3652 16.5094 21.3712 16.5063ZM21.1213 16.9432L21.0938 16.9431C21.0948 16.754 21.1596 16.6309 21.2258 16.5548C21.2588 16.517 21.2918 16.4911 21.3169 16.4746C21.3295 16.4664 21.3401 16.4604 21.3478 16.4565C21.3517 16.4545 21.3548 16.453 21.3572 16.452C21.3584 16.4515 21.3594 16.451 21.3604 16.4506C21.3608 16.4505 21.3614 16.4502 21.3621 16.45C21.3624 16.4499 21.363 16.4497 21.3638 16.4494C21.3642 16.4493 21.365 16.4491 21.3661 16.4489C21.3667 16.4488 21.368 16.4486 21.3688 16.4485C21.3693 16.4485 21.3703 16.4485 21.3713 16.4485C21.3717 16.4485 21.3721 16.4485 21.3725 16.4485C21.3736 16.4486 21.3747 16.4486 21.3756 16.4487L21.3756 16.449C21.3785 16.4495 21.3808 16.4501 21.3811 16.4502L21.3815 16.4504L21.3818 16.4505L21.3822 16.4506L21.383 16.451C21.3837 16.4513 21.3846 16.4517 21.3857 16.4522C21.3879 16.4532 21.3911 16.4547 21.395 16.4567C21.4028 16.4607 21.4136 16.4667 21.4266 16.4751C21.4524 16.4917 21.4867 16.5178 21.5209 16.5558C21.5897 16.6321 21.6575 16.7553 21.6585 16.9431L21.6587 16.9707H21.1213V16.9432Z" fill="black"/>
<path d="M20.4845 15.9553H22.2715C22.3091 15.9553 22.3399 15.9903 22.3399 16.0328C22.3399 16.0754 22.3091 16.1104 22.2715 16.1104H20.4845C20.4469 16.1104 20.416 16.0756 20.416 16.0328C20.416 15.9903 20.4469 15.9553 20.4845 15.9553Z" fill="#FFFF00"/>
<path fill-rule="evenodd" clip-rule="evenodd" d="M20.4847 15.983C20.4653 15.983 20.4437 16.0024 20.4437 16.033C20.4437 16.0638 20.4653 16.083 20.4847 16.083H22.2716C22.291 16.083 22.3126 16.0637 22.3126 16.033C22.3126 16.0024 22.2909 15.983 22.2716 15.983H20.4847ZM20.3887 16.033C20.3887 15.9786 20.4287 15.928 20.4847 15.928H22.2716C22.3276 15.928 22.3676 15.9786 22.3676 16.033C22.3676 16.0875 22.3275 16.138 22.2716 16.138H20.4847C20.4288 16.138 20.3887 16.0877 20.3887 16.033Z" fill="black"/>
<path d="M20.5225 16.1116H22.2317C22.2677 16.1116 22.2972 16.1464 22.2972 16.189C22.2972 16.2317 22.2677 16.2665 22.2317 16.2665H20.5225C20.4865 16.2665 20.457 16.2317 20.457 16.189C20.457 16.1464 20.4865 16.1116 20.5225 16.1116Z" fill="#FFFF00"/>
<path fill-rule="evenodd" clip-rule="evenodd" d="M20.5227 16.1392C20.506 16.1392 20.4847 16.1573 20.4847 16.1891C20.4847 16.2211 20.506 16.2391 20.5227 16.2391H22.2318C22.2485 16.2391 22.2698 16.2211 22.2698 16.1891C22.2698 16.1573 22.2485 16.1392 22.2318 16.1392H20.5227ZM20.4297 16.1891C20.4297 16.1359 20.4674 16.0842 20.5227 16.0842H22.2318C22.2872 16.0842 22.3248 16.1359 22.3248 16.1891C22.3248 16.2425 22.2872 16.2941 22.2318 16.2941H20.5227C20.4673 16.2941 20.4297 16.2425 20.4297 16.1891Z" fill="black"/>
<path d="M21.0744 14.9467L21.2093 14.947V15.0428H21.3078V14.9448L21.446 14.9453V15.0429H21.5448V14.9449H21.6831L21.6829 15.1662C21.6829 15.2009 21.655 15.2234 21.6226 15.2234H21.1373C21.1047 15.2234 21.0746 15.1973 21.0745 15.1655L21.0742 14.9468H21.0743L21.0744 14.9467Z" fill="#FFFF00"/>
<path fill-rule="evenodd" clip-rule="evenodd" d="M21.2804 14.9172L21.4736 14.9179V15.0154H21.5174V14.9174H21.7108L21.7105 15.1662C21.7105 15.1662 21.7105 15.1662 21.7105 15.1662M21.2804 14.9172V14.9448V14.9172ZM21.3354 14.9724V15.0703H21.1819V14.9744L21.1019 14.9743L21.1022 15.1654C21.1022 15.1654 21.1022 15.1654 21.1022 15.1654C21.1022 15.1796 21.1174 15.1959 21.1374 15.1959H21.6227C21.6426 15.1959 21.6555 15.1831 21.6555 15.1662L21.6557 14.9724H21.5724V15.0704H21.4186V14.9727L21.3354 14.9724ZM21.0625 14.9193L21.0626 14.9192L21.2369 14.9195V15.0153H21.2804V14.9448" fill="black"/>
<path d="M21.5815 15.2426L21.612 15.9522L21.1387 15.9505L21.17 15.2407L21.5815 15.2426" fill="#FFFF00"/>
<path fill-rule="evenodd" clip-rule="evenodd" d="M21.1431 15.2131L21.5811 15.2151L21.5809 15.2426L21.6084 15.2414L21.6401 15.9799L21.1094 15.9779L21.1431 15.2131ZM21.5546 15.27L21.1958 15.2684L21.1668 15.9231L21.5827 15.9246L21.5546 15.27Z" fill="black"/>
<path d="M21.0038 15.5715L21.0183 15.9541L20.5645 15.9543L20.5773 15.5716H21.0039H21.0038L21.0038 15.5715Z" fill="#FFFF00"/>
<path fill-rule="evenodd" clip-rule="evenodd" d="M20.5518 15.5439H21.0049L21.005 15.5658L21.0324 15.5704L21.0479 15.9814L20.5371 15.9817L20.5518 15.5439ZM20.9784 15.5989H20.6049L20.594 15.9267L20.9908 15.9265L20.9784 15.5989Z" fill="black"/>
<path d="M20.4943 15.2944L20.6262 15.2947V15.3907H20.7228V15.2925L20.858 15.2929V15.3907H20.9547V15.2925L21.0901 15.2928L21.0898 15.514C21.0898 15.5486 21.0625 15.5711 21.0309 15.5711H20.556C20.5242 15.5711 20.4946 15.5452 20.4945 15.5133L20.4941 15.2945H20.4942L20.4943 15.2944Z" fill="#FFFF00"/>
<path fill-rule="evenodd" clip-rule="evenodd" d="M20.6955 15.2649L20.8857 15.2655V15.3632H20.9274V15.265L21.1178 15.2653L21.1175 15.514C21.1175 15.5141 21.1175 15.514 21.1175 15.514M20.6955 15.2649V15.2925V15.2649ZM20.7505 15.3201V15.4182H20.5989V15.3221L20.5219 15.322L20.5222 15.5132C20.5222 15.5132 20.5222 15.5132 20.5222 15.5132C20.5222 15.5279 20.5374 15.5436 20.5562 15.5436H21.031C21.0496 15.5436 21.0625 15.5313 21.0625 15.514L21.0627 15.3202L20.9824 15.3201V15.4182H20.8307V15.3203L20.7505 15.3201ZM20.4785 15.267L20.4786 15.2668L20.6539 15.2673V15.3632H20.6955V15.2925" fill="black"/>
<path d="M21.3301 15.4671C21.3272 15.3981 21.4266 15.3973 21.4254 15.4671V15.6361H21.3301V15.4671" fill="black"/>
<path d="M20.7441 15.7124C20.7438 15.6457 20.8362 15.6444 20.835 15.7124V15.843H20.7442V15.7124" fill="black"/>
<path d="M25.5899 22.2647V22.2652C25.5899 22.5085 25.6833 22.7302 25.8332 22.8911C25.9834 23.0524 26.1902 23.1526 26.4164 23.1526C26.6438 23.1526 26.8502 23.0531 26.9997 22.8924C27.1491 22.7319 27.242 22.5105 27.242 22.2662V21.0817L25.5928 21.0803L25.5898 22.2646" fill="#003399"/>
<path d="M25.9681 21.6944C26.0584 21.6944 26.1316 21.6212 26.1316 21.5309C26.1316 21.4406 26.0584 21.3674 25.9681 21.3674C25.8779 21.3674 25.8047 21.4406 25.8047 21.5309C25.8047 21.6212 25.8779 21.6944 25.9681 21.6944Z" fill="white"/>
<path d="M26.8822 21.6951C26.9725 21.6951 27.0457 21.6219 27.0457 21.5316C27.0457 21.4413 26.9725 21.3682 26.8822 21.3682C26.7919 21.3682 26.7188 21.4413 26.7188 21.5316C26.7188 21.6219 26.7919 21.6951 26.8822 21.6951Z" fill="white"/>
<path d="M26.4252 22.1343C26.5154 22.1343 26.5886 22.0611 26.5886 21.9708C26.5886 21.8806 26.5154 21.8074 26.4252 21.8074C26.3349 21.8074 26.2617 21.8806 26.2617 21.9708C26.2617 22.0611 26.3349 22.1343 26.4252 22.1343Z" fill="white"/>
<path d="M25.9681 22.5943C26.0584 22.5943 26.1316 22.5211 26.1316 22.4308C26.1316 22.3405 26.0584 22.2673 25.9681 22.2673C25.8779 22.2673 25.8047 22.3405 25.8047 22.4308C25.8047 22.5211 25.8779 22.5943 25.9681 22.5943Z" fill="white"/>
<path d="M26.8822 22.593C26.9725 22.593 27.0457 22.5198 27.0457 22.4296C27.0457 22.3393 26.9725 22.2661 26.8822 22.2661C26.7919 22.2661 26.7188 22.3393 26.7188 22.4296C26.7188 22.5198 26.7919 22.593 26.8822 22.593Z" fill="white"/>
</svg>
