<svg width="66" height="44" viewBox="0 0 66 44" fill="none" xmlns="http://www.w3.org/2000/svg">
<path d="M0 0H66V44H0V0Z" fill="#006C35"/>
<path d="M42.6505 32.7072H41.7338C41.6319 32.8409 41.4728 33 41.3837 33C41.2755 33 40.9826 32.7008 40.9826 32.5926C40.9826 32.5098 41.1227 32.3507 41.25 32.2488V32.0006H24.6354C22.4456 32.0006 21.3571 31.9815 20.625 31.2494H41.25V31.0012C41.1291 30.9057 40.9826 30.7402 40.9826 30.6574C40.9826 30.5492 41.2755 30.25 41.3837 30.25C41.4919 30.25 41.7847 30.5492 41.7847 30.6574C41.7847 30.7402 41.6383 30.9057 41.5174 31.0012V31.2494H44.3183C45.0694 31.2494 45.375 31.3131 45.375 32.0006C45.375 32.7326 45.1777 32.8663 44.8657 32.8663C44.7575 32.8663 44.5793 32.86 44.4456 32.7072H43.3571C43.3283 32.7539 43.2793 32.7938 43.2164 32.8219C43.1535 32.85 43.0795 32.8651 43.0038 32.8651C42.928 32.8651 42.854 32.85 42.7911 32.8219C42.7282 32.7938 42.6792 32.7539 42.6505 32.7072ZM43.3571 32.478H44.3183C44.2674 32.338 44.2674 32.1916 44.3183 32.0006H41.5174V32.2488C41.5874 32.2998 41.6829 32.408 41.7338 32.478H42.6505C42.6792 32.4313 42.7282 32.3914 42.7911 32.3633C42.854 32.3351 42.928 32.3201 43.0038 32.3201C43.0795 32.3201 43.1535 32.3351 43.2164 32.3633C43.2793 32.3914 43.3283 32.4313 43.3571 32.478Z" fill="white"/>
<path d="M44.9427 21.0324C45.0064 21.1088 45.0446 21.1788 44.9363 21.3061C44.8345 21.3952 44.7645 21.4461 44.6562 21.5353C44.6117 21.6116 44.5799 21.7326 44.7263 21.7708C45.0064 21.8472 45.522 21.5162 45.522 21.5098C45.6302 21.4334 45.592 21.2934 45.5856 21.2934C45.522 21.2297 45.3883 21.2679 45.2992 21.2552C45.2546 21.2552 45.2292 21.1724 45.2928 21.0515C45.3501 20.9751 45.3756 20.9305 45.4138 20.8414C45.452 20.7523 45.4138 20.6886 45.261 20.6377C45.1019 20.6122 45.0382 20.625 44.8663 20.6377C44.7708 20.6568 44.739 20.7013 44.7199 20.8096C44.7263 20.9751 44.8345 20.9623 44.9427 21.0324ZM43.7332 17.0983C43.6441 17.2193 43.5804 17.3148 43.7523 17.4103C43.9306 17.4994 44.1979 17.7476 44.0833 18.0277C44.0197 18.2442 44.0833 18.416 44.2807 18.1041C44.4844 17.7795 44.3252 17.3912 44.1279 17.1429C43.956 16.9265 43.8414 16.971 43.7332 17.0983ZM49.0932 12.655C49.3351 12.8651 49.4688 12.8015 49.316 12.445C49.1377 12.0885 48.9659 11.7129 48.8067 11.3755C48.6348 11.0191 48.5903 11.1018 48.3929 11.3564C48.1701 11.6047 48.151 11.7957 48.2338 11.9421C48.6539 15.2714 48.8513 17.0092 48.8958 18.015C48.985 19.4791 48.6094 20.3003 47.1134 21.2424C46.6296 21.5544 46.0822 21.9108 47.2471 21.6371C48.3356 21.3761 49.5006 20.6886 49.5006 18.0596C49.5006 16.0798 49.0422 13.96 49.0932 12.655ZM47.3108 11.9803C47.1771 12.1903 47.2025 12.2349 47.3553 12.4641C47.5081 12.7187 47.6418 13.177 47.6418 13.5335C47.6418 13.89 47.7755 13.8454 47.8391 13.5144C47.9091 13.1961 47.8837 12.5723 47.6863 12.1331C47.489 11.6684 47.419 11.8339 47.3108 11.9803ZM48.5903 18.9126C48.5457 18.6197 48.4566 18.3269 48.0619 17.7667C47.6672 17.2193 47.3108 16.7164 46.9606 16.2326C46.8524 14.9785 46.6933 13.6354 46.6933 12.9288C46.8715 13.0943 47.0052 12.9288 46.9161 12.655C46.827 12.3813 46.6487 11.6493 46.5214 11.3373C46.4068 11.0381 46.2795 11.1018 46.1013 11.3755C45.9485 11.6493 45.8403 11.7766 45.9485 11.9803C45.9931 13.1961 46.1649 14.3738 46.3686 15.4369C46.0122 14.9785 45.6811 14.5393 45.3756 14.1383C45.3565 13.6799 45.3119 13.2216 45.2865 12.7569C45.4838 12.9033 45.5729 12.8651 45.4647 12.5914C45.3756 12.2986 45.1337 11.6875 45.0255 11.4201C44.9109 11.1464 44.8472 11.1464 44.6944 11.3564C44.4525 11.7129 44.3825 11.9612 44.5862 12.2986C44.6053 12.5914 44.6499 12.9033 44.669 13.177C44.4716 12.9288 44.2998 12.6741 44.1406 12.445C44.338 12.5468 44.4971 12.3813 44.2743 12.1903C44.077 12.0057 43.6568 11.6875 43.485 11.4583C43.2876 11.2291 43.1094 11.2291 43.1094 11.4392C43.1094 11.6493 43.1285 11.8339 43.1094 12.0248C43.0648 12.1903 43.0648 12.3622 43.3258 12.655C43.8351 13.2407 44.3189 13.8454 44.7836 14.412C44.9554 16.5063 45.07 17.8495 45.0255 18.6834C45 19.1863 44.8281 19.4791 44.5417 19.5619C44.2552 19.6701 43.9688 19.4791 43.7014 19.1035C43.2176 18.4351 43.0457 18.5625 42.6701 19.1481C42.3137 19.6892 42.0718 20.1539 41.8744 20.5486C41.7025 20.9241 41.3906 21.2615 41.1042 20.7586C40.8432 20.2557 40.7986 19.6892 40.8177 19.2945C40.8177 18.8935 40.7541 18.5816 40.6013 19.2118C40.2066 20.7586 40.4485 21.096 40.8877 21.427C41.4352 21.8917 41.6134 21.9299 41.8999 21.5353C42.4728 20.7777 42.6256 20.1093 42.9566 19.7338C43.2176 19.4409 43.2176 19.6701 43.3513 19.8165C43.6823 20.2112 43.9688 20.3576 44.4271 20.4213C44.8918 20.504 45.7257 20.1284 45.662 18.6643C45.6175 17.7858 45.5538 16.5891 45.4647 15.3159C45.9039 15.9016 46.2986 16.4236 46.6105 16.8437C46.7633 17.6776 46.8524 18.4351 46.8079 19.0399C46.7633 19.7338 46.9161 19.7338 47.0689 19.0208C47.1134 18.728 47.1134 18.1169 47.0498 17.3848C47.6418 18.1423 47.9919 18.6452 48.2338 19.0017C48.5012 19.4409 48.6539 19.8165 48.5903 18.9126ZM42.5556 17.2638C42.5556 17.1174 42.6256 17.0729 42.8866 16.8628C43.1094 16.6973 43.7269 16.2772 43.9242 16.0862C44.1215 15.9016 44.2743 15.7297 44.3189 15.9652C44.338 16.1944 44.3825 16.2772 44.1406 16.4045C43.8987 16.5063 43.2622 16.8819 43.0648 17.0283C42.842 17.2002 42.5556 17.4103 42.5556 17.2638ZM42.6256 14.6857C42.581 14.8767 42.3137 14.8767 42.3391 14.6666C42.3582 14.4566 42.3391 14.4947 42.3391 14.3292C42.3137 14.1637 42.5365 14.0555 42.6447 14.2019C42.7784 14.3483 43.0012 14.813 43.0648 14.9785C43.1539 15.1441 43.1985 15.1059 43.1985 14.8767C43.173 14.603 43.1285 14.3483 43.1539 14.1637C43.173 14.0555 43.2431 13.9282 43.3704 13.8263C43.5295 13.7245 43.6123 13.699 43.6823 13.89C43.7269 14.0555 43.8542 14.0746 43.7905 14.2274C43.7014 14.4311 43.5041 14.0173 43.3704 14.3101C43.3067 14.5202 43.3704 15.1059 43.3513 15.3159C43.3513 15.5005 43.2622 15.7743 43.1094 15.4623C43.0012 15.2523 42.842 14.8958 42.6256 14.6857ZM41.1042 12.9861C41.4161 13.1325 41.7471 13.2216 41.5052 12.8651C41.2569 12.5277 41.0596 11.9612 40.9323 11.541C40.7731 11.1273 40.735 11.1464 40.4867 11.5028C40.1175 12.0439 40.4485 12.5723 40.5312 13.1961C40.8432 15.4369 41.1487 17.7222 41.2378 18.3269C41.327 19.0017 41.4352 19.4409 41.2569 20.173C41.1933 20.4022 41.2824 20.4658 41.4352 20.1921C42.0527 19.0844 41.6325 18.1169 41.5689 17.493C41.4606 16.5254 41.1042 13.9728 41.0405 12.9479M39.5891 12.8842C39.761 13.0306 39.9647 13.0306 39.8501 12.7187C39.7419 12.4004 39.6528 12.0248 39.5446 11.6684C39.4363 11.3119 39.3663 11.2291 39.2326 11.3946C39.0799 11.5856 38.9716 11.6493 38.8634 11.7766C38.7488 11.8784 38.7297 12.1076 38.8634 12.3177C39.3472 15.4814 39.3663 16.8819 39.4363 18.0596C39.5 19.2309 39.6782 19.7719 38.908 20.5677C38.0677 21.427 37.5648 21.6371 37.1892 21.7199C36.7691 21.8344 36.5972 22 37.0492 22C38.526 22 38.6725 21.6053 39.2772 20.9687C39.7674 20.4531 40.0029 19.7974 39.9647 18.2442C39.9201 15.5196 39.5191 14.3483 39.5891 12.8842ZM35.5787 20.9878C35.8015 20.8605 35.9097 20.7586 36.0816 20.695C36.2598 20.6059 36.3935 20.6313 36.2598 20.9878C36.1262 21.4016 36.1962 21.5289 36.4826 21.427C36.7436 21.3443 36.8964 21.2361 37.1192 21.1533C37.3166 21.0706 37.5394 21.0706 37.2274 21.2997C36.9855 21.4907 36.6354 21.739 36.4381 21.7835C35.9988 21.8854 35.776 21.7199 35.8652 21.3825C35.9543 21.0706 36.0179 20.9432 35.7569 21.0515C35.445 21.1724 35.4705 21.0515 35.5787 20.9878ZM39.1244 13.8645C39.2072 14.1192 39.3218 14.2401 39.3854 13.9282C39.43 13.6545 39.5191 13.5717 39.5637 13.8645C39.6273 14.1574 39.8056 14.1192 39.8501 13.8454C39.9138 13.5717 40.0029 13.4253 40.0475 13.7181C40.092 14.03 40.0666 14.1383 40.022 14.2401C40.0029 14.3292 39.8247 14.4311 39.691 14.3038C39.5382 14.1765 39.4936 14.1765 39.3854 14.2847C39.1435 14.4947 39.0544 14.3483 39.0098 14.0555C38.9907 13.8009 39.0799 13.699 39.1244 13.8645ZM40.5949 19.1417C40.3976 18.1996 39.4936 16.6909 38.1505 14.7239C38.1123 14.2019 38.0868 13.7181 38.0868 13.2789C38.2841 13.489 38.4178 13.3616 38.3542 13.0879C38.2205 12.6105 38.0231 12.2094 37.7812 11.6684C37.6921 11.4392 37.4502 11.3755 37.342 11.7066C37.1829 12.1076 37.1638 12.1903 37.3611 12.4641C37.342 12.7569 37.4502 13.2598 37.4948 13.7181C37.2529 13.3807 36.941 12.967 36.6991 12.6105C37.0747 12.7569 37.2975 12.6487 36.9664 12.3177C36.6354 11.9612 36.1707 11.6047 35.8843 11.3501C35.5978 11.1018 35.4705 11.2673 35.515 11.4965C35.5341 11.732 35.5596 11.8975 35.5341 12.0821C35.515 12.2731 35.5787 12.4004 35.8652 12.5023C36.4381 13.2152 37.011 13.9473 37.5394 14.7048C37.603 15.3287 37.7367 16.0225 37.8003 16.5891C37.9786 17.9259 38.2396 19.6637 38.0231 20.4213C37.8449 20.9878 38.0231 21.2361 38.3096 20.3767C38.5706 19.5173 38.5451 18.7025 38.3733 17.423C38.3032 16.9265 38.2841 16.2963 38.2205 15.7106C39.1435 17.0665 39.9774 18.3651 40.353 19.2691C40.5503 19.7528 40.7286 19.8547 40.5949 19.1417ZM38.9462 11.4965C38.8571 11.6684 38.7934 11.7893 38.9653 11.9166C39.1435 12.0439 39.4109 12.3813 39.2963 12.7569C39.2326 13.0497 39.2963 13.2789 39.4936 12.8588C39.691 12.4195 39.5382 11.8975 39.3409 11.5601C39.1626 11.2673 39.0544 11.331 38.9462 11.4965ZM32.434 16.0671C32.3895 16.3599 32.4531 16.5445 32.5613 16.6909C32.6759 16.8373 32.8924 16.8182 32.9624 16.6527C33.026 16.4618 33.0706 16.4427 33.2043 16.5891C33.3571 16.7355 33.86 16.6082 33.6181 15.8761C33.5098 15.5833 33.4653 15.6469 33.4653 15.978C33.4653 16.5063 33.287 16.5063 33.0897 16.0034C33.026 15.8125 32.9369 15.8125 32.9178 16.0671C32.9178 16.5445 32.695 16.6082 32.5613 16.1244C32.5168 15.9207 32.4786 15.7488 32.434 16.0671ZM35.4705 16.8182C35.9288 16.7164 35.6678 16.6718 35.3559 16.4809C35.0312 16.2963 34.8976 16.2963 34.9167 16.5063C34.9421 16.6273 34.9421 16.7546 34.9867 16.9201C35.1395 16.8819 35.2922 16.8628 35.4705 16.8182ZM34.5666 15.7934C34.9167 15.3096 35.4896 15.456 36.1516 15.8952C36.8137 16.3344 36.5463 17.0283 35.9097 17.3848C35.7569 17.4675 35.5596 17.5503 35.3113 17.6331C35.3814 17.7795 35.2922 17.824 35.0949 17.6967C34.522 17.8877 33.7708 18.1614 33.2488 18.4288C33.8854 18.4733 36.5272 18.4288 37.0556 18.3651C37.5839 18.3269 37.4948 18.4097 37.342 18.8489C37.1829 19.2691 37.011 19.2245 36.5718 19.2881C35.8652 19.4155 34.8275 19.7083 34.0828 20.0011C33.3316 20.2939 33.599 20.8159 34.3692 21.0897C34.9612 21.2361 34.8976 21.2997 34.7894 21.6371C34.7002 21.949 34.7002 22.0318 33.9745 21.9299C32.1921 21.6562 31.5492 20.7141 31.2627 19.982C30.1678 21.4652 29.0856 22.2864 28.0735 22.0318C27.5706 21.9299 27.3287 21.4907 27.2841 20.9432C26.5775 21.2552 25.7627 21.5289 24.706 21.8217C24.4641 21.9045 24.2668 21.8026 24.5978 21.6562C25.298 21.3188 26.3993 20.7586 27.3032 20.1475C27.3924 19.7719 27.5897 19.25 27.787 18.868C27.8953 18.6388 27.9653 18.7216 27.9653 18.9126C27.9653 19.059 27.9207 19.4346 27.9398 19.7083C28.099 19.581 28.3154 19.46 28.4236 19.3518C29.0411 18.8298 29.7222 18.4924 29.2639 17.6585C29.0666 17.2766 28.9074 17.0092 28.8438 16.8373C28.4491 16.6909 28.5573 16.4809 28.7355 16.1244C28.9074 15.7743 28.9774 15.6851 29.3275 16.0862C29.8368 16.6527 29.9005 16.901 29.5503 16.8628C30.0978 18.1996 29.9641 18.8935 29.1111 19.6892C28.7101 20.0839 28.2963 20.4022 27.8125 20.6504C27.7679 21.0069 27.9207 21.3634 28.6209 21.2552C29.5503 21.1342 30.5816 19.982 31.0208 19.1035C30.8235 18.3651 30.3843 17.0474 30.1233 16.379C29.9896 16.0416 30.1233 15.8952 30.2315 15.6215C30.3652 15.3541 30.4288 15.1822 30.5816 15.5642C30.7344 15.9207 31.2182 16.8182 31.441 17.8877C31.6829 18.9571 31.6383 19.8738 32.2112 20.3767C32.4786 20.6059 32.8032 20.7586 33.1597 20.8414C32.8924 20.1284 33.4462 19.581 34.1719 19.3327C33.7326 18.9317 33.0451 18.9953 32.2749 18.9571C31.7083 18.9317 31.772 18.868 31.9248 18.3906C32.0775 17.9068 32.2558 17.8431 32.6759 17.6776C33.2488 17.4675 33.8154 17.2575 34.4138 17.092C34.0382 16.57 34.2801 16.188 34.5666 15.7934ZM31.7911 11.4965C31.6383 11.6429 31.6383 11.6684 31.772 11.853C31.9057 11.9994 32.103 12.4641 32.033 12.9415C32.0139 13.1516 32.0584 13.3616 32.1667 12.9861C32.2558 12.6105 32.2303 12.0821 32.1221 11.7702C32.0139 11.4583 31.8802 11.3755 31.7911 11.4965ZM28.7992 12.3177C28.4491 13.2598 28.4682 14.1574 29.1939 14.934C29.614 15.3732 29.9196 15.1631 30.0978 14.6794C30.2951 14.221 30.4288 13.7627 30.5625 13.4444C30.6898 13.1325 30.8044 13.1961 30.7789 13.489C30.7153 14.0746 30.6707 15.0167 31.2882 15.3732C31.9057 15.7297 32.8478 15.125 33.1788 14.4947C34.1719 15.7488 35.0503 15.1631 35.1586 13.9473C35.184 13.5717 35.0058 12.7569 34.8976 12.5277C34.7894 12.2731 34.853 12.2731 35.0058 12.4004C35.1586 12.5468 35.4259 12.6296 35.2922 12.2094C35.1395 11.8148 34.9612 11.5856 34.7193 11.3946C34.5029 11.2037 34.4583 11.3119 34.3692 11.4583C34.2801 11.6047 34.2992 11.6429 34.1719 11.7511C34.0382 11.8784 34.0573 11.9357 34.1719 12.1713C34.5411 13.0879 34.8976 14.4311 34.2992 14.5584C33.7517 14.6603 33.4016 13.5272 33.3762 13.0306C33.3571 12.3559 33.2679 11.7893 33.1343 11.4392C33.0388 11.21 32.9815 11.1018 32.9306 11.1018C32.8414 11.1018 32.7141 11.4647 32.6314 11.6047C32.5422 11.7511 32.6314 11.7893 32.695 12.0821C33.026 13.5526 32.9815 14.221 32.2749 14.5966C31.5747 14.9976 31.1991 14.6221 31.1991 14.1574C31.18 13.699 31.18 13.1325 31.2436 12.7123C31.2882 12.2922 31.3964 12.2349 31.2436 12.0248C31.0909 11.7893 30.9572 11.8784 30.7598 12.1458C30.3206 12.7314 29.8814 13.7181 29.7222 14.1765C29.5694 14.6603 29.2639 14.4947 29.0411 14.0937C28.7992 13.6163 28.8247 12.7569 28.9074 12.4195C28.9965 12.0821 28.952 11.9357 28.7992 12.3177ZM27.8953 11.9612C27.9398 11.8339 27.8316 11.7066 27.7425 11.8975C27.6788 12.0439 27.6534 12.1458 27.787 12.2349C27.8316 12.1458 27.8762 12.0439 27.8953 11.9612ZM27.3669 11.7702C27.6343 11.1209 28.5127 11.2037 28.2708 12.0439C28.2517 12.1713 28.1817 12.3368 28.099 12.5023C28.2263 12.6741 28.1626 12.8842 27.8953 12.8397C27.6088 13.2789 27.0613 13.7627 26.1128 14.1574C25.6736 14.3483 25.61 14.2019 25.941 14.011C26.5775 13.6163 27.1696 13.1325 27.5451 12.6296C27.2587 12.4004 27.2587 12.063 27.3669 11.7702ZM27.2141 14.0937C26.9531 14.412 26.7558 14.8703 27.125 15.1441C27.3287 15.3096 27.7425 15.125 27.8953 14.8067C28.0544 14.4756 27.9844 14.4311 27.7234 14.7048C27.3478 15.0995 26.9722 14.743 27.3669 14.2019C27.6343 13.8263 27.4815 13.7372 27.2141 14.0937ZM26.6221 18.7025C26.6667 18.8489 26.6412 19.1863 26.5775 19.3327C26.4884 19.5173 26.5775 19.6064 26.7112 19.3709C26.8385 19.1226 26.9277 18.8298 26.864 18.537C26.8385 18.3269 26.8385 18.2633 26.6412 18.1805C26.4248 18.0978 26.3547 18.2187 26.2911 18.3906C26.202 18.6006 26.3102 18.8298 26.6221 18.7025ZM23.2292 17.3211C22.8345 17.423 22.7708 17.2766 22.7899 17.0474C22.8154 16.8182 22.8345 16.7546 23.1019 16.8628C23.2101 16.901 23.3438 17.0474 23.4774 17.2384C23.3883 17.2575 23.2992 17.302 23.2292 17.3211ZM23.5602 16.379C23.1655 16.0034 22.8345 15.978 22.5035 16.4427C22.1979 16.8819 22.217 16.9838 22.2425 17.3848C22.2616 17.7795 22.1788 17.9259 22.5035 18.0341C22.8154 18.136 22.9491 18.0978 23.1464 18.0341C23.2992 17.9895 23.5156 17.9259 23.7384 17.8431C23.783 18.0532 23.7575 18.2824 23.6302 18.4542C22.8154 19.3709 21.5613 20.0457 21.0075 19.4346C20.702 19.1035 20.5683 18.5752 20.6574 17.9513C20.7465 17.423 20.5683 17.6585 20.5046 17.8431C20.3073 18.4542 20.2373 19.3327 20.5046 19.7719C20.8802 20.3767 21.4722 20.6504 22.4207 20.2557C23.3628 19.8547 24.2859 19.1417 24.2477 18.1614C24.2477 17.9704 24.2222 17.8049 24.2222 17.6776C24.3113 17.6331 24.4641 17.5312 24.5723 17.4866C24.5978 17.824 24.5532 18.2442 24.5723 18.5752C24.6169 19.6446 24.1777 19.9566 23.783 20.2557C23.2292 20.6695 22.4844 20.9432 21.8478 21.0515C20.3264 21.2552 19.9763 20.3385 19.9954 19.1035C19.9954 18.9126 20.0845 18.7853 20.0845 18.5115C20.0654 17.9895 19.9954 18.0723 19.8235 18.6006C19.6644 19.1035 19.467 20.2748 19.9763 21.2361C20.5046 22.2037 22.287 21.9299 23.6748 21.2997C25.037 20.6695 25.1898 19.4791 25.1262 18.2824C25.1262 17.9704 25.1007 17.6331 25.0816 17.2766C25.1262 17.2575 25.1453 17.2193 25.1707 17.1938C25.3681 17.8049 26.2911 17.6331 26.5775 17.2766C26.7303 17.1111 26.7303 17.092 26.864 17.2766C27.0613 17.5503 27.7425 17.6331 27.9207 17.2575C28.0735 16.8628 28.0544 16.4809 28.0098 16.188C27.9653 15.8952 27.8953 15.9207 27.6979 16.0671C27.4815 16.2326 27.6534 16.2517 27.6788 16.4618C27.7679 17.2575 27.0422 17.1938 26.9531 16.379C26.9086 15.8761 26.8194 16.0671 26.7558 16.2963C26.4439 17.2766 25.5399 17.4675 25.6291 16.3344C25.6545 16.0034 25.4317 16.1053 25.3235 16.2326C25.2153 16.3153 25.1262 16.4236 25.0179 16.4809C24.9479 15.5642 24.8843 14.5138 24.7697 13.2598C25.037 13.5717 25.2789 13.2152 25.1007 12.8588C24.9734 12.585 24.7697 11.9803 24.6424 11.6429C24.5278 11.3119 24.4641 11.4137 24.1777 11.6875C23.9167 11.9803 23.9612 12.0439 24.0885 12.3368C24.044 12.6932 24.114 13.0497 24.2031 13.7818C24.2668 14.3038 24.445 15.3923 24.5278 16.7737C24.4005 16.8373 24.2031 16.9647 24.0694 17.0283C23.9612 16.7991 23.8021 16.6082 23.5602 16.379ZM18.8304 19.0399C18.8495 19.25 18.8495 19.3964 18.8495 19.4791C18.8495 19.6255 18.7668 19.7719 18.7222 19.9566C18.4549 20.8605 18.8495 21.2997 19.0723 20.9623C19.2697 20.6313 19.3779 20.6695 19.3588 20.9432C19.3397 21.8472 18.4358 21.9045 18.3657 21.1533C18.2575 19.9566 18.544 19.7719 18.6331 19.3709C18.6968 19.1035 18.7859 18.8935 18.8304 19.0399ZM18.3657 17.7158C19.0087 16.9838 19.8235 16.6082 20.2373 16.4809C20.5046 16.3981 20.6383 16.2963 20.6383 16.5445C20.6574 16.7737 20.6383 16.7991 20.4155 16.8628C19.9062 16.9838 18.8495 17.4866 18.4994 17.7413C18.3275 17.8686 18.1047 18.015 18.3657 17.7158ZM21.956 11.4137C21.8924 11.5856 21.9369 11.7893 22.0451 11.9166C22.1534 12.063 22.3507 12.063 22.4844 11.9612C22.5926 11.8339 22.5926 11.8148 22.7072 11.9803C22.7708 12.1076 22.9873 12.063 23.0573 11.9357C23.1019 11.8339 23.1655 11.732 23.1019 11.5856C23.0318 11.4392 23.0318 11.4774 22.9873 11.6429C22.9491 11.9166 22.6817 11.853 22.6626 11.5219C22.6626 11.2037 22.5926 11.3755 22.5035 11.5856C22.3507 11.8975 22.1343 11.8339 22.1343 11.5601C22.1343 11.331 22.0642 11.14 21.956 11.4137ZM21.0075 15.8125C21.0775 16.57 21.294 17.9704 21.294 18.4542C21.3194 18.9571 21.3831 18.8107 21.5168 18.537C21.6505 18.2633 21.625 17.9704 21.6059 17.5694C21.5613 17.1556 21.5359 16.4618 21.4468 15.5196C21.625 15.3923 21.7778 15.1822 21.8478 15.0613C22.0197 14.743 22.0642 14.7685 22.1343 15.0167C22.2616 15.5196 22.7899 15.857 23.4965 15.3732C24.1586 14.934 23.8721 14.011 23.5856 13.0052C23.8275 13.0497 23.9167 12.8588 23.7575 12.6105C23.6939 12.4641 23.5602 12.3368 23.452 12.2094C23.3438 12.0821 23.2292 11.9803 23.1209 12.1076C23.0318 12.2349 22.9236 12.3368 22.86 12.4195C22.7899 12.5023 22.7899 12.585 22.8791 12.7951C23.1464 13.3807 23.3183 14.011 23.3628 14.3674C23.4329 14.7048 23.2992 14.7876 23.0573 14.7876C22.8154 14.7876 22.4844 14.7239 22.3507 14.221C22.217 13.7181 22.1534 13.489 22.1788 13.1516C22.1979 12.8206 22.2425 12.585 22.0006 12.254C21.7332 11.9166 21.7141 11.9803 21.6505 12.1458C21.6059 12.3368 21.5168 12.6105 21.6059 12.9224C21.7141 13.3807 21.7778 13.7818 21.8478 14.0555C21.8924 14.2401 21.6887 14.6412 21.4086 14.8512C21.3385 14.221 21.2303 13.3807 21.1858 12.7123C21.5613 12.585 21.364 12.1076 21.0521 11.5856C20.8356 11.1846 20.7465 11.3501 20.5938 11.6047C20.4346 11.853 20.5492 11.9612 20.6574 12.1713C20.5683 12.3368 20.7211 12.585 20.7911 13.0497C20.8102 13.3425 20.8802 14.1765 20.9439 14.9149C20.6383 14.9149 20.4601 14.7239 20.3519 14.4756C20.11 13.9473 20.1736 13.4699 20.2818 13.1516C20.3964 12.8397 20.5046 12.3559 20.3073 12.2349C20.1291 12.1076 19.8872 12.254 19.7344 12.4832C19.467 12.8588 19.2251 13.4062 19.206 13.9728C19.1806 14.2019 19.1169 14.6412 19.0087 14.8067C18.9196 14.9785 18.7668 14.9976 18.6076 14.743C18.3466 14.3483 18.2575 13.3425 18.283 12.8206C18.283 12.5659 18.213 12.5277 18.1238 12.8206C18.0475 13.0879 18.0156 13.3616 18.0156 13.6226C18.0156 14.3611 18.2321 15.0358 18.4103 15.3732C18.6522 15.8316 18.9641 15.7297 19.1806 15.3541C19.5116 14.7876 19.3779 14.2847 19.6898 13.4444C19.8681 12.9224 19.9317 13.3235 19.8681 13.6354C19.7089 14.4756 19.7535 15.8316 21.0075 15.8125ZM19.1169 12.5277C19.3397 11.9357 19.3588 11.4137 19.0978 11.6047C18.875 11.7702 18.7413 11.6047 18.9196 11.4137C19.136 11.14 19.4225 11.0572 19.4925 11.5219C19.5116 11.8784 19.2506 12.3177 19.1169 12.5277Z" fill="white"/>
</svg>
