<svg width="66" height="44" viewBox="0 0 66 44" fill="none" xmlns="http://www.w3.org/2000/svg">
<path d="M0 0H66V44H0V0Z" fill="#E70013"/>
<path d="M33 33C39.0751 33 44 28.0751 44 22C44 15.9249 39.0751 11 33 11C26.9249 11 22 15.9249 22 22C22 28.0751 26.9249 33 33 33Z" fill="white"/>
<path d="M33 30.25C37.5563 30.25 41.25 26.5563 41.25 22C41.25 17.4437 37.5563 13.75 33 13.75C28.4437 13.75 24.75 17.4437 24.75 22C24.75 26.5563 28.4437 30.25 33 30.25Z" fill="#E70013"/>
<path d="M35.1996 28.6C38.8447 28.6 41.7996 25.6451 41.7996 22C41.7996 18.3549 38.8447 15.4 35.1996 15.4C31.5545 15.4 28.5996 18.3549 28.5996 22C28.5996 25.6451 31.5545 28.6 35.1996 28.6Z" fill="white"/>
<path d="M30.25 22L39.2046 19.0905L33.671 26.708V17.292L39.204 24.9095L30.25 22Z" fill="#E70013"/>
</svg>
