<svg width="66" height="44" viewBox="0 0 66 44" fill="none" xmlns="http://www.w3.org/2000/svg">
<path d="M66 0H0V44H66V0Z" fill="#B22234"/>
<rect y="2.63989" width="66" height="2.64" fill="white"/>
<rect y="7.84668" width="66" height="2.56667" fill="white"/>
<rect y="12.9799" width="66" height="2.56665" fill="white"/>
<rect y="18.1133" width="66" height="2.64" fill="white"/>
<rect y="23.3198" width="66" height="2.56662" fill="white"/>
<rect y="28.4531" width="66" height="2.56667" fill="white"/>
<rect y="33.5867" width="66" height="2.64" fill="white"/>
<rect y="38.7932" width="66" height="2.56666" fill="white"/>
<path d="M26.4 0H0V18.6774H26.4V0Z" fill="#3C3B6E"/>
<path d="M2.24503 0.693848L2.87327 2.62458L1.22852 1.43132H3.26154L1.61679 2.62458L2.24503 0.693848Z" fill="white"/>
<path d="M6.62979 0.693848L7.25803 2.62458L5.61328 1.43132H7.6463L6.00155 2.62458L6.62979 0.693848Z" fill="white"/>
<path d="M11.0146 0.693848L11.6428 2.62458L9.99805 1.43132H12.0311L10.3863 2.62458L11.0146 0.693848Z" fill="white"/>
<path d="M15.3974 0.693848L16.0256 2.62458L14.3809 1.43132H16.4139L14.7691 2.62458L15.3974 0.693848Z" fill="white"/>
<path d="M19.7821 0.693848L20.4104 2.62458L18.7656 1.43132H20.7986L19.1539 2.62458L19.7821 0.693848Z" fill="white"/>
<path d="M24.1669 0.693848L24.7951 2.62458L23.1504 1.43132H25.1834L23.5387 2.62458L24.1669 0.693848Z" fill="white"/>
<path d="M2.24503 4.53601L2.87327 6.46674L1.22852 5.27348H3.26154L1.61679 6.46674L2.24503 4.53601Z" fill="white"/>
<path d="M6.62979 4.53613L7.25803 6.46687L5.61328 5.27361H7.6463L6.00155 6.46687L6.62979 4.53613Z" fill="white"/>
<path d="M11.0146 4.53613L11.6428 6.46687L9.99805 5.27361H12.0311L10.3863 6.46687L11.0146 4.53613Z" fill="white"/>
<path d="M15.3974 4.53601L16.0256 6.46674L14.3809 5.27348H16.4139L14.7691 6.46674L15.3974 4.53601Z" fill="white"/>
<path d="M19.7821 4.53601L20.4104 6.46674L18.7656 5.27348H20.7986L19.1539 6.46674L19.7821 4.53601Z" fill="white"/>
<path d="M24.1669 4.53613L24.7951 6.46687L23.1504 5.27361H25.1834L23.5387 6.46687L24.1669 4.53613Z" fill="white"/>
<path d="M2.24503 8.3783L2.87327 10.309L1.22852 9.11577H3.26154L1.61679 10.309L2.24503 8.3783Z" fill="white"/>
<path d="M6.62979 8.37842L7.25803 10.3092L5.61328 9.1159H7.6463L6.00155 10.3092L6.62979 8.37842Z" fill="white"/>
<path d="M11.0146 8.37817L11.6428 10.3089L9.99805 9.11565H12.0311L10.3863 10.3089L11.0146 8.37817Z" fill="white"/>
<path d="M15.3974 8.3783L16.0256 10.309L14.3809 9.11577H16.4139L14.7691 10.309L15.3974 8.3783Z" fill="white"/>
<path d="M19.7821 8.3783L20.4104 10.309L18.7656 9.11577H20.7986L19.1539 10.309L19.7821 8.3783Z" fill="white"/>
<path d="M24.1669 8.37842L24.7951 10.3092L23.1504 9.1159H25.1834L23.5387 10.3092L24.1669 8.37842Z" fill="white"/>
<path d="M2.24503 12.2205L2.87327 14.1512L1.22852 12.9579H3.26154L1.61679 14.1512L2.24503 12.2205Z" fill="white"/>
<path d="M6.62979 12.2205L7.25803 14.1512L5.61328 12.9579H7.6463L6.00155 14.1512L6.62979 12.2205Z" fill="white"/>
<path d="M11.0146 12.2205L11.6428 14.1512L9.99805 12.9579H12.0311L10.3863 14.1512L11.0146 12.2205Z" fill="white"/>
<path d="M15.3974 12.2205L16.0256 14.1512L14.3809 12.9579H16.4139L14.7691 14.1512L15.3974 12.2205Z" fill="white"/>
<path d="M19.7821 12.2205L20.4104 14.1512L18.7656 12.9579H20.7986L19.1539 14.1512L19.7821 12.2205Z" fill="white"/>
<path d="M24.1669 12.2205L24.7951 14.1512L23.1504 12.9579H25.1834L23.5387 14.1512L24.1669 12.2205Z" fill="white"/>
<path d="M2.24503 16.0627L2.87327 17.9935L1.22852 16.8002H3.26154L1.61679 17.9935L2.24503 16.0627Z" fill="white"/>
<path d="M6.62979 16.0627L7.25803 17.9935L5.61328 16.8002H7.6463L6.00155 17.9935L6.62979 16.0627Z" fill="white"/>
<path d="M11.0146 16.0627L11.6428 17.9935L9.99805 16.8002H12.0311L10.3863 17.9935L11.0146 16.0627Z" fill="white"/>
<path d="M15.3974 16.0627L16.0256 17.9935L14.3809 16.8002H16.4139L14.7691 17.9935L15.3974 16.0627Z" fill="white"/>
<path d="M19.7821 16.0627L20.4104 17.9935L18.7656 16.8002H20.7986L19.1539 17.9935L19.7821 16.0627Z" fill="white"/>
<path d="M24.1669 16.0627L24.7951 17.9935L23.1504 16.8002H25.1834L23.5387 17.9935L24.1669 16.0627Z" fill="white"/>
<path d="M4.43643 2.61499L5.06467 4.54572L3.41992 3.35246H5.45294L3.80819 4.54572L4.43643 2.61499Z" fill="white"/>
<path d="M8.81925 2.61499L9.44749 4.54572L7.80273 3.35246H9.83576L8.19101 4.54572L8.81925 2.61499Z" fill="white"/>
<path d="M13.204 2.61499L13.8323 4.54572L12.1875 3.35246H14.2205L12.5758 4.54572L13.204 2.61499Z" fill="white"/>
<path d="M17.5888 2.61499L18.217 4.54572L16.5723 3.35246H18.6053L16.9605 4.54572L17.5888 2.61499Z" fill="white"/>
<path d="M21.9735 2.61499L22.6018 4.54572L20.957 3.35246H22.99L21.3453 4.54572L21.9735 2.61499Z" fill="white"/>
<path d="M4.43643 6.45728L5.06467 8.388L3.41992 7.19475H5.45294L3.80819 8.388L4.43643 6.45728Z" fill="white"/>
<path d="M8.8212 6.45728L9.44944 8.38801L7.80469 7.19475H9.83771L8.19296 8.38801L8.8212 6.45728Z" fill="white"/>
<path d="M13.204 6.45703L13.8323 8.38775L12.1875 7.1945H14.2205L12.5758 8.38775L13.204 6.45703Z" fill="white"/>
<path d="M17.5888 6.45703L18.217 8.38776L16.5723 7.19451H18.6053L16.9605 8.38776L17.5888 6.45703Z" fill="white"/>
<path d="M21.9735 6.45703L22.6018 8.38775L20.957 7.1945H22.99L21.3453 8.38775L21.9735 6.45703Z" fill="white"/>
<path d="M4.43643 10.2994L5.06467 12.2302L3.41992 11.0369H5.45294L3.80819 12.2302L4.43643 10.2994Z" fill="white"/>
<path d="M8.81925 10.2994L9.44749 12.2302L7.80273 11.0369H9.83576L8.19101 12.2302L8.81925 10.2994Z" fill="white"/>
<path d="M13.204 10.2993L13.8323 12.23L12.1875 11.0368H14.2205L12.5758 12.23L13.204 10.2993Z" fill="white"/>
<path d="M17.5888 10.2993L18.217 12.23L16.5723 11.0368H18.6053L16.9605 12.23L17.5888 10.2993Z" fill="white"/>
<path d="M21.9735 10.2993L22.6018 12.23L20.957 11.0368H22.99L21.3453 12.23L21.9735 10.2993Z" fill="white"/>
<path d="M4.43643 14.1416L5.06467 16.0723L3.41992 14.8791H5.45294L3.80819 16.0723L4.43643 14.1416Z" fill="white"/>
<path d="M8.81925 14.1416L9.44749 16.0723L7.80273 14.8791H9.83576L8.19101 16.0723L8.81925 14.1416Z" fill="white"/>
<path d="M13.204 14.1416L13.8323 16.0723L12.1875 14.8791H14.2205L12.5758 16.0723L13.204 14.1416Z" fill="white"/>
<path d="M17.5888 14.1416L18.217 16.0723L16.5723 14.8791H18.6053L16.9605 16.0723L17.5888 14.1416Z" fill="white"/>
<path d="M21.9735 14.1416L22.6018 16.0723L20.957 14.8791H22.99L21.3453 16.0723L21.9735 14.1416Z" fill="white"/>
</svg>
