<svg width="66" height="44" viewBox="0 0 66 44" fill="none" xmlns="http://www.w3.org/2000/svg">
<g clip-path="url(#clip0_859_136926)">
<path d="M0 0H66V44H0V0Z" fill="white"/>
<path d="M24.4453 4.88892H66.0009V9.7778H24.4453V4.88892Z" fill="#0038A8"/>
<path d="M24.4453 14.6667H66.0009V19.5556H24.4453V14.6667Z" fill="#0038A8"/>
<path d="M0 24.4446H66V29.3335H0V24.4446Z" fill="#0038A8"/>
<path d="M0 34.2222H66V39.1111H0V34.2222Z" fill="#0038A8"/>
<path d="M11.6684 14.6125L12.4776 15.8209C9.15252 18.2271 11.1825 19.6501 8.82617 20.4203C10.2917 18.99 8.63246 18.7694 9.86725 15.7884" fill="#FCD116"/>
<path fill-rule="evenodd" clip-rule="evenodd" d="M11.6909 14.4949L12.5926 15.8414L12.5265 15.8892C11.7018 16.486 11.2132 17.0189 10.9059 17.4922C10.5989 17.9651 10.4701 18.3827 10.3696 18.7559C10.3584 18.7974 10.3476 18.8386 10.3368 18.8794C10.2517 19.2019 10.1726 19.5017 9.9921 19.763C9.78518 20.0624 9.45175 20.3044 8.85172 20.5006L8.50586 20.6136L8.76627 20.3595C9.12651 20.0079 9.28624 19.7389 9.35077 19.4908C9.41584 19.2408 9.38744 19.0021 9.34849 18.6964L9.34715 18.6859C9.30873 18.3844 9.26326 18.0276 9.30464 17.561C9.34649 17.0889 9.47677 16.5078 9.78825 15.7558L9.82066 15.6776L9.97712 15.7424L9.94471 15.8206C9.6388 16.5591 9.51344 17.1235 9.47332 17.5759C9.43357 18.0243 9.47712 18.3661 9.51546 18.667L9.51648 18.675C9.5548 18.9758 9.58925 19.2468 9.51466 19.5335C9.45891 19.7478 9.34406 19.9654 9.13629 20.212C9.49995 20.0518 9.71241 19.8699 9.85278 19.6667C10.0154 19.4314 10.0867 19.162 10.1732 18.8352C10.1839 18.795 10.1948 18.7539 10.2061 18.7119C10.3083 18.3323 10.4427 17.8948 10.7639 17.4C11.0763 16.9188 11.5627 16.3874 12.3612 15.8002L11.5502 14.5891L11.6909 14.4949Z" fill="#7B3F00"/>
<path d="M10.14 13.5212L9.8578 14.9478C5.80514 14.2981 6.23439 16.7397 4.02357 15.6181C6.07122 15.6431 5.10018 14.2957 8.08123 13.0609" fill="#FCD116"/>
<path fill-rule="evenodd" clip-rule="evenodd" d="M10.2396 13.4544L9.92511 15.0442L9.84446 15.0313C8.83933 14.8702 8.11704 14.9015 7.56507 15.0189C7.01364 15.1362 6.62726 15.3404 6.29232 15.5332C6.25507 15.5547 6.21828 15.5761 6.18182 15.5973C5.89363 15.7652 5.62567 15.9213 5.31324 15.9784C4.95519 16.0438 4.54829 15.9792 3.98531 15.6936L3.66072 15.5289L4.02466 15.5333C4.5277 15.5395 4.83401 15.4611 5.05959 15.3295C5.28712 15.1967 5.44164 15.0052 5.63599 14.7593L5.64559 14.7471C5.83661 14.5055 6.06194 14.2204 6.42344 13.9197C6.79103 13.6139 7.29688 13.294 8.04888 12.9825L8.12713 12.9501L8.19196 13.1066L8.1137 13.139C7.37518 13.445 6.88451 13.7565 6.53176 14.0499C6.18394 14.3392 5.96773 14.6128 5.77699 14.8541L5.76888 14.8643C5.5774 15.1066 5.40443 15.3244 5.14497 15.4758C4.9508 15.5891 4.71317 15.6628 4.39034 15.6906C4.76088 15.8346 5.03984 15.8562 5.28279 15.8118C5.56414 15.7603 5.80507 15.6203 6.09736 15.4504C6.13334 15.4295 6.17009 15.4081 6.2078 15.3864C6.54848 15.1903 6.95284 14.9759 7.52983 14.8532C8.09097 14.7338 8.81072 14.702 9.79057 14.8514L10.0734 13.4215L10.2396 13.4544Z" fill="#7B3F00"/>
<path d="M10.1406 13.5213L9.50214 13.4062L9.5087 13.4326C7.80526 13.8501 6.88034 14.5563 6.15588 15.093C5.79348 15.3612 5.48082 15.5894 5.14172 15.713C4.91714 15.7962 4.67609 15.8253 4.43816 15.7978C6.19666 16.4224 6.08022 14.3426 9.8585 14.9481L10.1406 13.5213Z" fill="#7B3F00"/>
<path fill-rule="evenodd" clip-rule="evenodd" d="M10.1843 13.4904L9.88734 14.9921L9.85064 14.9862C8.90945 14.8354 8.2128 14.8521 7.67006 14.9512C7.12764 15.0503 6.73707 15.232 6.40778 15.4139C6.32223 15.4611 6.24026 15.5088 6.16048 15.5551C5.93522 15.686 5.72747 15.8068 5.50597 15.88C5.20179 15.9806 4.87053 15.9929 4.4235 15.8341L4.10378 15.7205L4.44083 15.7595C4.67273 15.7863 4.90767 15.758 5.12656 15.6769L5.12676 15.6768C5.45966 15.5555 5.7678 15.331 6.13119 15.062C6.14824 15.0494 6.16541 15.0367 6.18269 15.0238C6.89527 14.4955 7.81287 13.8151 9.46022 13.4045L9.4486 13.3578L10.1843 13.4904ZM9.55215 13.4548L9.55367 13.4609L9.51611 13.4701C7.86024 13.8759 6.94423 14.5551 6.22831 15.086C6.21111 15.0987 6.19403 15.1114 6.17706 15.124C5.81568 15.3915 5.49851 15.6234 5.15325 15.7492C5.01657 15.7999 4.87393 15.8309 4.72955 15.8419C5.02421 15.9046 5.261 15.8798 5.48177 15.8068C5.69505 15.7363 5.89282 15.6214 6.11555 15.492C6.19658 15.4449 6.28092 15.3959 6.37052 15.3464C6.70422 15.1621 7.10287 14.9765 7.65621 14.8754C8.20207 14.7757 8.89663 14.7586 9.82613 14.9043L10.0934 13.5523L9.55215 13.4548Z" fill="#7B3F00"/>
<path fill-rule="evenodd" clip-rule="evenodd" d="M6.10655 14.9227C6.82605 14.3891 7.77312 13.6868 9.46862 13.2718L9.50889 13.4363C7.84664 13.8432 6.92179 14.529 6.20679 15.0593C6.19034 15.0715 6.174 15.0836 6.15776 15.0956C5.79802 15.3622 5.48029 15.5933 5.14277 15.7165C4.79938 15.8419 4.43908 15.8548 3.99525 15.6977L4.05176 15.538C4.46051 15.6827 4.78024 15.6685 5.08468 15.5574C5.39499 15.4441 5.6929 15.2292 6.05691 14.9595C6.07334 14.9473 6.08989 14.9351 6.10655 14.9227Z" fill="#7B3F00"/>
<path d="M12.2217 12.2223L11.0809 11.0815L5.94727 18.4967L13.3625 13.3631L12.2217 12.2223L5.94727 18.4967Z" fill="#FCD116"/>
<path fill-rule="evenodd" clip-rule="evenodd" d="M11.0697 10.95L13.4948 13.375L5.61328 18.8314L11.0697 10.95ZM12.1026 12.2224L11.0935 11.2132L6.55212 17.7729L12.1026 12.2224ZM6.67187 17.8926L12.2224 12.3421L13.2316 13.3513L6.67187 17.8926Z" fill="#7B3F00"/>
<path d="M9.83319 11.6688L8.62488 12.478C6.2186 9.15297 4.79566 11.183 4.02543 8.82661C5.45568 10.2922 5.68997 8.63562 8.67102 9.87042" fill="#FCD116"/>
<path fill-rule="evenodd" clip-rule="evenodd" d="M9.95039 11.6922L8.60384 12.594L8.55596 12.5278C7.95916 11.7031 7.42628 11.2145 6.95295 10.9072C6.48009 10.6003 6.06251 10.4714 5.68931 10.3709C5.64781 10.3598 5.60664 10.3489 5.56583 10.3381C5.24334 10.2531 4.94349 10.174 4.6822 9.99343C4.38275 9.78651 4.14075 9.45307 3.94462 8.85303L3.83153 8.50707L4.08574 8.76756C4.43723 9.12773 4.70715 9.28767 4.95648 9.35247C5.20795 9.41783 5.44838 9.38972 5.75582 9.35111L5.76715 9.34969C6.07015 9.31163 6.42836 9.26663 6.89584 9.30822C7.36914 9.35033 7.95112 9.48078 8.70313 9.79227L8.78138 9.82468L8.71655 9.98118L8.6383 9.94877C7.89978 9.64286 7.33458 9.51733 6.88083 9.47696C6.43151 9.43698 6.08822 9.4801 5.7858 9.51808L5.77692 9.51919C5.47437 9.55718 5.20174 9.59124 4.91387 9.51643C4.6986 9.46048 4.48019 9.34547 4.23319 9.13752C4.39338 9.50122 4.57535 9.71369 4.7785 9.85406C5.0138 10.0167 5.28319 10.088 5.61002 10.1745C5.65024 10.1852 5.69134 10.1961 5.73335 10.2074C6.11295 10.3096 6.55042 10.4439 7.04519 10.7652C7.52639 11.0775 8.05784 11.564 8.64505 12.3625L9.85613 11.5514L9.95039 11.6922Z" fill="#7B3F00"/>
<path d="M9.83204 11.6693L9.46193 11.1364L9.44791 11.1597C7.94821 10.2504 6.79484 10.0957 5.90307 9.96295C5.45711 9.89639 5.07469 9.83665 4.74752 9.68425C4.52986 9.58432 4.33887 9.43441 4.19009 9.24672C4.99182 10.9319 6.38018 9.37883 8.62363 12.4787L9.83204 11.6693Z" fill="#7B3F00"/>
<path fill-rule="evenodd" clip-rule="evenodd" d="M9.88605 11.6793L8.6142 12.5313L8.59241 12.5012C8.03356 11.729 7.52914 11.2482 7.07527 10.9345C6.62167 10.621 6.21699 10.4733 5.85555 10.3691C5.76164 10.342 5.66999 10.3177 5.58081 10.2941C5.32896 10.2274 5.09668 10.1658 4.88827 10.061C4.60206 9.91705 4.35911 9.69153 4.1553 9.26315L4.00953 8.95676L4.2203 9.22265C4.36532 9.40559 4.55147 9.5517 4.76362 9.6491L4.76381 9.64919C5.08499 9.7988 5.46159 9.85796 5.90876 9.9247M9.88605 11.6793L9.86369 11.6471L9.88605 11.6793ZM9.77803 11.6589L9.46425 11.2072L9.461 11.2126L9.42793 11.1925C7.97011 10.3086 6.84211 10.1412 5.96051 10.0103C5.93933 10.0072 5.9183 10.0041 5.89741 10.0009C5.45271 9.93457 5.06448 9.87425 4.73136 9.71911C4.59889 9.65827 4.47606 9.57939 4.3662 9.48507C4.53025 9.73772 4.71517 9.88767 4.92291 9.99216C5.12359 10.0931 5.34468 10.1517 5.59368 10.2177C5.68427 10.2417 5.77856 10.2667 5.87691 10.295C6.2432 10.4007 6.65636 10.5513 7.11909 10.8711C7.57557 11.1866 8.07876 11.6656 8.633 12.4259L9.77803 11.6589ZM9.43478 11.1067L9.4596 11.0654L9.86369 11.6471M9.43478 11.1067C7.97964 10.2321 6.84968 10.0644 5.97219 9.93413C5.9509 9.93097 5.92975 9.92783 5.90876 9.9247" fill="#7B3F00"/>
<path fill-rule="evenodd" clip-rule="evenodd" d="M5.98863 9.80816C6.87468 9.93963 8.04098 10.1127 9.53334 11.0181L9.44546 11.163C7.98238 10.2753 6.84344 10.1063 5.96294 9.9756C5.94268 9.97259 5.92256 9.96961 5.90257 9.96663C5.45972 9.90074 5.07162 9.8395 4.74583 9.68797C4.41437 9.5338 4.15048 9.28814 3.9477 8.86325L4.10058 8.79029C4.28733 9.1816 4.5234 9.39769 4.81727 9.53437C5.1168 9.67369 5.47939 9.7324 5.92751 9.79908C5.94773 9.80209 5.96811 9.80511 5.98863 9.80816Z" fill="#7B3F00"/>
<path d="M12.2227 12.2222V10.6089L3.34932 12.2222L12.2227 13.8356V12.2222H3.34932H12.2227Z" fill="#FCD116"/>
<path fill-rule="evenodd" clip-rule="evenodd" d="M12.3066 10.5076V13.9372L2.87511 12.2224L12.3066 10.5076ZM12.1372 10.7105L4.28794 12.1377H12.1372V10.7105ZM12.1372 12.3071H4.28794L12.1372 13.7342V12.3071Z" fill="#7B3F00"/>
<path d="M12.2227 12.2224V13.8357V12.2224H3.34933L12.2227 13.8357" fill="#7B3F00"/>
<path d="M10.923 10.141L9.49642 9.85876C10.1461 5.80609 7.70451 6.23535 8.82606 4.02453C8.80109 6.07217 10.2177 5.26487 11.4525 8.24593" fill="#FCD116"/>
<path fill-rule="evenodd" clip-rule="evenodd" d="M10.9895 10.2403L9.39971 9.92583L9.41264 9.84518C9.57377 8.84005 9.54246 8.11776 9.42504 7.56579C9.30775 7.01436 9.10358 6.62798 8.91073 6.29304C8.88929 6.25579 8.86786 6.219 8.84661 6.18254C8.67873 5.89435 8.52263 5.62639 8.46554 5.31396C8.40011 4.95591 8.46477 4.54901 8.75037 3.98603L8.91504 3.66144L8.9106 4.02538C8.90448 4.52745 8.98678 4.84465 9.12557 5.08642C9.26564 5.33044 9.46729 5.50577 9.72134 5.72031C9.72905 5.72682 9.7368 5.73336 9.74458 5.73992C10.2522 6.16836 10.9153 6.72804 11.5306 8.21334L11.563 8.29159L11.4065 8.35642L11.374 8.27816C10.7745 6.83067 10.1348 6.29088 9.63815 5.87177C9.62941 5.86439 9.62071 5.85705 9.61205 5.84974C9.36073 5.63751 9.13574 5.44442 8.97865 5.17075C8.86055 4.96502 8.78303 4.71823 8.75387 4.38971C8.60942 4.76092 8.58773 5.04027 8.63218 5.28351C8.68359 5.56486 8.82364 5.80579 8.99355 6.09808C9.01447 6.13406 9.03583 6.17081 9.05754 6.20851C9.25369 6.5492 9.468 6.95356 9.59074 7.53054C9.7101 8.09169 9.74194 8.81144 9.59253 9.79129L11.0224 10.0741L10.9895 10.2403Z" fill="#7B3F00"/>
<path d="M10.9223 10.1409L11.0374 9.50238L11.011 9.50895C10.5935 7.80551 9.88734 6.88058 9.35064 6.15612C9.08237 5.79372 8.8542 5.48106 8.73062 5.14196C8.64737 4.91739 8.61833 4.67633 8.64584 4.43841C8.02117 6.1969 10.101 6.08046 9.49546 9.85875L10.9223 10.1409Z" fill="#7B3F00"/>
<path fill-rule="evenodd" clip-rule="evenodd" d="M10.9537 10.1862L9.45198 9.88929L9.45786 9.85259C9.60871 8.91141 9.59201 8.21476 9.49288 7.67202C9.39381 7.1296 9.21208 6.73903 9.03021 6.40974C8.98295 6.32419 8.93532 6.24222 8.88896 6.16244C8.75805 5.93718 8.63732 5.72943 8.56408 5.50793C8.4635 5.20375 8.45117 4.87249 8.60997 4.42546L8.72355 4.10574L8.68457 4.44279C8.65775 4.67468 8.68607 4.90963 8.7672 5.12852L8.76728 5.12872C8.8886 5.46162 9.11306 5.76975 9.38206 6.13313M10.9537 10.1862L10.9607 10.1476L10.9537 10.1862ZM10.8918 10.0954L10.9893 9.55411L10.9832 9.55563L10.974 9.51807C10.5682 7.86219 9.88897 6.94619 9.35812 6.23026C9.34537 6.21307 9.3327 6.19599 9.32013 6.17902C9.05261 5.81764 8.82074 5.50047 8.69489 5.15521C8.64424 5.01853 8.61316 4.87589 8.60218 4.73151C8.53953 5.02617 8.56426 5.26296 8.63726 5.48373C8.70778 5.69701 8.82269 5.89478 8.9521 6.11751C8.99919 6.19854 9.04819 6.28288 9.09768 6.37247C9.28199 6.70617 9.46764 7.10483 9.56871 7.65817C9.6684 8.20403 9.68547 8.89858 9.53978 9.82808L10.8918 10.0954ZM11.0396 9.46218L11.0863 9.45056L10.9607 10.1476M11.0396 9.46218C10.629 7.81483 9.94863 6.89723 9.42025 6.18465C9.40743 6.16737 9.39469 6.15019 9.38206 6.13313" fill="#7B3F00"/>
<path fill-rule="evenodd" clip-rule="evenodd" d="M9.52188 6.10753C10.0554 6.82703 10.7578 7.7741 11.1728 9.46959L11.0082 9.50987C10.6014 7.84762 9.91553 6.92277 9.38531 6.20776C9.37312 6.19131 9.361 6.17497 9.34897 6.15874C9.08242 5.79899 8.85129 5.48127 8.72807 5.14375C8.60271 4.80036 8.58982 4.44005 8.74688 3.99623L8.90657 4.05274C8.76193 4.46149 8.77606 4.78121 8.8872 5.08566C9.00049 5.39597 9.21536 5.69387 9.48508 6.05789C9.49725 6.07432 9.50952 6.09086 9.52188 6.10753Z" fill="#7B3F00"/>
<path d="M12.2225 12.2223L13.3633 11.0815L5.94809 5.94795L11.0817 13.3631L12.2225 12.2223L5.94809 5.94795L12.2225 12.2223Z" fill="#FCD116"/>
<path fill-rule="evenodd" clip-rule="evenodd" d="M13.4941 11.0696L11.069 13.4947L5.61248 5.61305L13.4941 11.0696ZM13.2308 11.0933L6.67139 6.55217L12.2217 12.1025L13.2308 11.0933ZM12.1019 12.2223L6.5516 6.67196L11.0928 13.2314L12.1019 12.2223Z" fill="#7B3F00"/>
<path d="M12.2227 12.2224L11.0819 13.3632L12.2227 12.2224L5.94828 5.94802L11.0819 13.3632" fill="#7B3F00"/>
<path d="M12.7767 9.8323L11.9675 8.62399C15.2925 6.21772 13.2625 4.79478 15.6189 4.02455C14.1533 5.4548 15.8041 5.69067 14.5693 8.67172" fill="#FCD116"/>
<path fill-rule="evenodd" clip-rule="evenodd" d="M12.7533 9.94975L11.8516 8.6032L11.9177 8.55531C12.7424 7.95851 13.231 7.42564 13.5383 6.95231C13.8452 6.47945 13.9741 6.06187 14.0746 5.68867C14.0857 5.64717 14.0966 5.606 14.1074 5.56519C14.1924 5.2427 14.2715 4.94285 14.4521 4.68156C14.659 4.38211 14.9924 4.14011 15.5925 3.94398L15.9384 3.83089L15.6779 4.0851C15.3178 4.4366 15.1574 4.70666 15.0921 4.95623C15.0262 5.20791 15.0537 5.44858 15.0915 5.75617L15.0931 5.76859C15.1304 6.07153 15.1745 6.42961 15.1324 6.89663C15.0898 7.37003 14.959 7.95208 14.6475 8.70407L14.6151 8.78232L14.4586 8.71749L14.491 8.63924C14.7969 7.9007 14.9228 7.33537 14.9637 6.88143C15.0042 6.43247 14.9619 6.08924 14.9246 5.78687L14.9234 5.77687C14.8861 5.47407 14.8528 5.2013 14.9282 4.91333C14.9846 4.69803 15.0999 4.47959 15.3079 4.23259C14.9442 4.39277 14.7318 4.57473 14.5914 4.77786C14.4288 5.01316 14.3575 5.28255 14.271 5.60937C14.2603 5.6496 14.2494 5.6907 14.2381 5.73271C14.1359 6.11231 14.0016 6.54978 13.6804 7.04455C13.368 7.52575 12.8815 8.0572 12.083 8.6444L12.8941 9.85549L12.7533 9.94975Z" fill="#7B3F00"/>
<path d="M12.7758 9.83204L13.3086 9.46193L13.2853 9.44791C14.1947 7.94821 14.3494 6.79484 14.4821 5.90307C14.5487 5.45711 14.6084 5.07469 14.7608 4.74752C14.8608 4.52986 15.0107 4.33887 15.1984 4.19009C13.5132 4.99182 15.0662 6.38018 11.9664 8.62362L12.7758 9.83204Z" fill="#7B3F00"/>
<path fill-rule="evenodd" clip-rule="evenodd" d="M12.7662 9.88605L11.9143 8.61419L11.9444 8.5924C12.7166 8.03355 13.1974 7.52913 13.5111 7.07526C13.8246 6.62166 13.9722 6.21698 14.0765 5.85554C14.1035 5.76163 14.1278 5.66998 14.1515 5.58079C14.2182 5.32894 14.2797 5.09667 14.3845 4.88826C14.5285 4.60204 14.754 4.3591 15.1824 4.15529L15.4888 4.00952L15.2229 4.22029C15.04 4.3653 14.8939 4.55145 14.7965 4.7636L14.7964 4.76379C14.6468 5.08498 14.5876 5.46158 14.5209 5.90874M12.7662 9.88605L12.7984 9.86369L12.7662 9.88605ZM12.7866 9.77802L13.2384 9.46425L13.233 9.46099L13.253 9.42793C14.1369 7.9701 14.3044 6.8421 14.4352 5.96049C14.4384 5.93932 14.4415 5.91829 14.4446 5.89739C14.511 5.45269 14.5713 5.06447 14.7265 4.73134C14.7873 4.59888 14.8662 4.47604 14.9605 4.36618C14.7078 4.53024 14.5579 4.71516 14.4534 4.92289C14.3525 5.12357 14.2939 5.34466 14.2279 5.59367C14.2039 5.68426 14.1789 5.77855 14.1505 5.87689C14.0449 6.24318 13.8943 6.65635 13.5745 7.11909C13.259 7.57557 12.7799 8.07876 12.0197 8.633L12.7866 9.77802ZM13.3389 9.43478L13.3802 9.4596L12.7984 9.86369M13.3389 9.43478C14.2135 7.97963 14.3812 6.84967 14.5114 5.97218C14.5146 5.95089 14.5177 5.92974 14.5209 5.90874" fill="#7B3F00"/>
<path fill-rule="evenodd" clip-rule="evenodd" d="M14.6367 5.98887C14.5052 6.87492 14.3321 8.04123 13.4267 9.53358L13.2819 9.44571C14.1696 7.98262 14.3386 6.84369 14.4692 5.96318C14.4722 5.94292 14.4752 5.9228 14.4782 5.90282C14.5441 5.45996 14.6053 5.07186 14.7569 4.74607C14.911 4.41461 15.1567 4.15072 15.5816 3.94794L15.6545 4.10082C15.2632 4.28757 15.0471 4.52365 14.9105 4.81751C14.7711 5.11704 14.7124 5.47963 14.6457 5.92775C14.6427 5.94797 14.6397 5.96835 14.6367 5.98887Z" fill="#7B3F00"/>
<path d="M12.2226 12.2224H13.8359L12.2226 3.34909L10.6093 12.2224H12.2226V3.34909V12.2224Z" fill="#FCD116"/>
<path fill-rule="evenodd" clip-rule="evenodd" d="M13.9375 12.3069H10.5079L12.2227 2.87538L13.9375 12.3069ZM13.7345 12.1375L12.3074 4.28821V12.1375H13.7345ZM12.138 12.1375V4.28821L10.7108 12.1375H12.138Z" fill="#7B3F00"/>
<path d="M12.2227 12.2224H10.6093H12.2227V3.34907L10.6093 12.2224" fill="#7B3F00"/>
<path d="M14.3018 10.9236L14.584 9.49696C18.6366 10.1466 18.2074 7.70505 20.4182 8.82659C18.3706 8.80163 19.2828 10.1558 16.3018 11.3906" fill="#FCD116"/>
<path fill-rule="evenodd" clip-rule="evenodd" d="M14.2022 10.9903L14.5167 9.40049L14.5973 9.41342C15.6024 9.57455 16.3247 9.54323 16.8767 9.42582C17.4281 9.30852 17.8145 9.10435 18.1495 8.91151C18.1867 8.89006 18.2235 8.86863 18.26 8.84739C18.5481 8.6795 18.8161 8.52341 19.1285 8.46631C19.4866 8.40088 19.8935 8.46555 20.4565 8.75115L20.7811 8.91581L20.4171 8.91138C19.9143 8.90525 19.6039 8.98393 19.3724 9.11661C19.139 9.25042 18.977 9.44345 18.7755 9.68989C18.7705 9.69601 18.7655 9.70216 18.7604 9.70834C18.5634 9.94933 18.3318 10.2326 17.9683 10.5311C17.5954 10.8372 17.0861 11.1575 16.3341 11.4689L16.2558 11.5013L16.191 11.3448L16.2693 11.3124C17.0078 11.0065 17.5024 10.6944 17.8608 10.4001C18.2112 10.1125 18.4339 9.84014 18.6307 9.59937C18.6353 9.59378 18.6398 9.58821 18.6444 9.58265C18.8434 9.33932 19.0236 9.12131 19.2882 8.96965C19.4863 8.85607 19.727 8.78203 20.0515 8.75413C19.6809 8.61014 19.4019 8.58856 19.159 8.63295C18.8776 8.68437 18.6367 8.82442 18.3444 8.99433C18.3084 9.01524 18.2717 9.03661 18.234 9.05832C17.8933 9.25447 17.4889 9.46878 16.9119 9.59151C16.3508 9.71088 15.6311 9.74272 14.6512 9.59331L14.3683 11.0232L14.2022 10.9903Z" fill="#7B3F00"/>
<path d="M14.3008 10.9233L14.9393 11.0383L14.9327 11.0119C16.6361 10.5945 17.5611 9.88832 18.2855 9.35162C18.6479 9.08334 18.9606 8.85517 19.2997 8.73159C19.5243 8.64835 19.7653 8.6193 20.0032 8.64681C18.2448 8.02214 18.3612 10.102 14.5829 9.49644L14.3008 10.9233Z" fill="#7B3F00"/>
<path fill-rule="evenodd" clip-rule="evenodd" d="M14.2552 10.9545L14.5521 9.45271L14.5888 9.45859C15.53 9.60944 16.2266 9.59274 16.7694 9.49362C17.3118 9.39454 17.7024 9.21281 18.0317 9.03094C18.1172 8.98369 18.1992 8.93605 18.279 8.88969C18.5042 8.75879 18.712 8.63805 18.9335 8.56481C19.2377 8.46423 19.5689 8.45191 20.0159 8.6107L20.3357 8.72428L19.9986 8.6853C19.7667 8.65849 19.5318 8.6868 19.3129 8.76793L19.3127 8.76801C18.9798 8.88933 18.6717 9.11379 18.3083 9.38279M14.2552 10.9545L14.2938 10.9614L14.2552 10.9545ZM14.346 10.8925L14.8873 10.9901L14.8858 10.9839L14.9233 10.9747C16.5792 10.5689 17.4952 9.8897 18.2111 9.35885C18.2283 9.3461 18.2454 9.33343 18.2624 9.32086C18.6238 9.05334 18.9409 8.82147 19.2862 8.69563C19.4229 8.64497 19.5655 8.6139 19.7099 8.60291C19.4152 8.54026 19.1784 8.56499 18.9577 8.63799C18.7444 8.70852 18.5466 8.82342 18.3239 8.95284C18.2429 8.99992 18.1585 9.04892 18.0689 9.09841C17.7352 9.28272 17.3366 9.46837 16.7832 9.56944C16.2374 9.66914 15.5428 9.6862 14.6133 9.54052L14.346 10.8925ZM14.9792 11.0403L14.9908 11.087L14.2938 10.9614M14.9792 11.0403C16.6266 10.6298 17.5442 9.94937 18.2568 9.42098C18.274 9.40816 18.2912 9.39543 18.3083 9.38279" fill="#7B3F00"/>
<path fill-rule="evenodd" clip-rule="evenodd" d="M18.3349 9.52188C17.6154 10.0554 16.6683 10.7578 14.9728 11.1728L14.9325 11.0082C16.5948 10.6014 17.5196 9.91554 18.2346 9.38532C18.2511 9.37312 18.2674 9.361 18.2836 9.34897C18.6434 9.08242 18.9611 8.8513 19.2986 8.72808C19.642 8.60271 20.0023 8.58982 20.4462 8.74688L20.3896 8.90657C19.9809 8.76193 19.6612 8.77606 19.3567 8.8872C19.0464 9.00049 18.7485 9.21537 18.3845 9.48508C18.3681 9.49726 18.3515 9.50952 18.3349 9.52188Z" fill="#7B3F00"/>
<path d="M12.2205 12.2222L13.3613 13.363L18.4949 5.94784L11.0797 11.0814L12.2205 12.2222L18.4949 5.94784L12.2205 12.2222Z" fill="#FCD116"/>
<path fill-rule="evenodd" clip-rule="evenodd" d="M13.373 13.4946L10.9479 11.0695L18.8296 5.61297L13.373 13.4946ZM13.3493 13.2313L17.8905 6.67188L12.3402 12.2222L13.3493 13.2313ZM12.2204 12.1024L17.7707 6.55209L11.2112 11.0932L12.2204 12.1024Z" fill="#7B3F00"/>
<path d="M12.2207 12.2224L11.0799 11.0816L12.2207 12.2224L18.4951 5.94801L11.0799 11.0816" fill="#7B3F00"/>
<path d="M14.6113 12.7756L15.8196 11.9665C18.2258 15.2915 19.6488 13.2615 20.419 15.6179C18.9888 14.1523 18.7203 15.7922 15.7392 14.5574" fill="#FCD116"/>
<path fill-rule="evenodd" clip-rule="evenodd" d="M14.4941 12.7523L15.8406 11.8505L15.8885 11.9167C16.4853 12.7414 17.0182 13.23 17.4915 13.5372C17.9643 13.8442 18.3819 13.9731 18.7551 14.0735C18.7966 14.0847 18.8378 14.0956 18.8786 14.1063C19.2011 14.1914 19.5009 14.2705 19.7622 14.451C20.0617 14.658 20.3037 14.9914 20.4998 15.5914L20.6129 15.9374L20.3587 15.6769C20.0073 15.3169 19.7352 15.1557 19.4824 15.0894C19.2274 15.0224 18.9824 15.0486 18.6708 15.0851L18.6555 15.0869C18.3492 15.1228 17.988 15.1652 17.5195 15.1222C17.0432 15.0785 16.4591 14.9471 15.7071 14.6356L15.6289 14.6032L15.6937 14.4467L15.772 14.4791C16.5105 14.785 17.0779 14.9116 17.535 14.9535C17.9857 14.9949 18.3324 14.9542 18.6382 14.9184L18.6511 14.9169C18.9581 14.8809 19.2347 14.8492 19.5254 14.9255C19.743 14.9826 19.9633 15.0986 20.2113 15.3072C20.0511 14.9433 19.8691 14.7308 19.6659 14.5904C19.4306 14.4278 19.1612 14.3565 18.8344 14.27C18.7942 14.2593 18.7531 14.2484 18.7111 14.2371C18.3315 14.1349 17.894 14.0005 17.3992 13.6793C16.918 13.3669 16.3866 12.8805 15.7994 12.082L14.5883 12.8931L14.4941 12.7523Z" fill="#7B3F00"/>
<path d="M14.6113 12.7753L14.9814 13.3082L14.9954 13.2849C16.4951 14.1942 17.6485 14.3489 18.5403 14.4816C18.9862 14.5482 19.3687 14.6079 19.6958 14.7603C19.9135 14.8603 20.1045 15.0102 20.2533 15.1979C19.4515 13.5127 18.0632 15.0657 15.8197 11.9659L14.6113 12.7753Z" fill="#7B3F00"/>
<path fill-rule="evenodd" clip-rule="evenodd" d="M14.5573 12.765L15.8292 11.9131L15.851 11.9432C16.4098 12.7154 16.9142 13.1962 17.3681 13.5098C17.8217 13.8233 18.2264 13.971 18.5878 14.0752C18.6817 14.1023 18.7734 14.1266 18.8626 14.1502C19.1144 14.217 19.3467 14.2785 19.5551 14.3833C19.8413 14.5273 20.0843 14.7528 20.2881 15.1812L20.4338 15.4876L20.2231 15.2217C20.078 15.0388 19.8919 14.8926 19.6797 14.7952L19.6796 14.7951C19.3584 14.6455 18.9818 14.5864 18.5346 14.5196C18.5136 14.5165 18.4925 14.5134 18.4712 14.5102C17.5937 14.38 16.4637 14.2122 15.0086 13.3377L14.9838 13.3789L14.5573 12.765ZM14.9791 13.2371L14.9824 13.2317L15.0154 13.2518C16.4733 14.1357 17.6013 14.3032 18.4829 14.434C18.504 14.4372 18.5251 14.4403 18.546 14.4434C18.9907 14.5098 19.3789 14.5701 19.712 14.7252C19.8445 14.7861 19.9673 14.8649 20.0772 14.9593C19.9131 14.7066 19.7282 14.5567 19.5205 14.4522C19.3198 14.3512 19.0987 14.2926 18.8497 14.2267C18.7591 14.2027 18.6648 14.1777 18.5665 14.1493C18.2002 14.0437 17.787 13.8931 17.3243 13.5733C16.8678 13.2578 16.3646 12.7787 15.8104 12.0184L14.6653 12.7854L14.9791 13.2371Z" fill="#7B3F00"/>
<path fill-rule="evenodd" clip-rule="evenodd" d="M18.4547 14.6364C17.5687 14.505 16.4024 14.3319 14.91 13.4264L14.9979 13.2816C16.461 14.1693 17.5999 14.3383 18.4804 14.469C18.5007 14.472 18.5208 14.475 18.5408 14.478C18.9836 14.5439 19.3717 14.6051 19.6975 14.7566C20.029 14.9108 20.2928 15.1565 20.4956 15.5813L20.3427 15.6543C20.156 15.263 19.9199 15.0469 19.6261 14.9102C19.3265 14.7709 18.9639 14.7122 18.5158 14.6455C18.4956 14.6425 18.4752 14.6395 18.4547 14.6364Z" fill="#7B3F00"/>
<path d="M12.2207 12.2221V13.8354L21.094 12.2221L12.2207 10.6088V12.2221H21.094H12.2207Z" fill="#FCD116"/>
<path fill-rule="evenodd" clip-rule="evenodd" d="M12.1367 13.937V10.5074L21.5683 12.2222L12.1367 13.937ZM12.3061 13.734L20.1554 12.3069H12.3061V13.734ZM12.3061 12.1375H20.1554L12.3061 10.7104V12.1375Z" fill="#7B3F00"/>
<path d="M12.2207 12.2222V10.6088V12.2222H21.094L12.2207 10.6088" fill="#7B3F00"/>
<path d="M13.5196 14.3035L14.9462 14.5857C14.2966 18.6384 16.7382 18.2091 15.6166 20.4199C15.6416 18.3723 14.2934 19.3206 13.0586 16.3396" fill="#FCD116"/>
<path fill-rule="evenodd" clip-rule="evenodd" d="M13.4531 14.2041L15.043 14.5186L15.03 14.5993C14.8689 15.6044 14.9002 16.3267 15.0176 16.8787C15.1349 17.4301 15.3391 17.8165 15.5319 18.1514C15.5534 18.1887 15.5748 18.2255 15.5961 18.2619C15.7639 18.5501 15.92 18.8181 15.9771 19.1305C16.0426 19.4885 15.9779 19.8954 15.6923 20.4584L15.5276 20.783L15.5321 20.4191C15.5382 19.9161 15.4598 19.6082 15.328 19.3803C15.1949 19.1505 15.003 18.9931 14.7572 18.796C14.7523 18.7921 14.7474 18.7882 14.7425 18.7842C14.5013 18.5909 14.2172 18.3632 13.9176 18.001C13.6119 17.6313 13.292 17.1241 12.9805 16.3722L12.9481 16.2939L13.1046 16.2291L13.137 16.3073C13.4429 17.0459 13.7546 17.5381 14.0482 17.893C14.3366 18.2418 14.6094 18.4605 14.8503 18.6535L14.8632 18.6639C15.1056 18.8583 15.3232 19.034 15.4746 19.2955C15.5878 19.4912 15.6616 19.7299 15.6894 20.0534C15.8333 19.6828 15.8549 19.4039 15.8105 19.1609C15.7591 18.8796 15.619 18.6387 15.4491 18.3464C15.4282 18.3104 15.4068 18.2736 15.3851 18.2359C15.189 17.8953 14.9747 17.4909 14.8519 16.9139C14.7326 16.3528 14.7007 15.633 14.8501 14.6532L13.4203 14.3703L13.4531 14.2041Z" fill="#7B3F00"/>
<path d="M13.5211 14.3035L13.406 14.942L13.4324 14.9354C13.8499 16.6388 14.556 17.5638 15.0927 18.2882C15.361 18.6506 15.5892 18.9633 15.7128 19.3024C15.796 19.527 15.8251 19.768 15.7976 20.0059C16.4222 18.2474 14.3423 18.3639 14.9479 14.5856L13.5211 14.3035Z" fill="#7B3F00"/>
<path fill-rule="evenodd" clip-rule="evenodd" d="M13.4896 14.2581L14.9914 14.555L14.9855 14.5917C14.8346 15.5329 14.8514 16.2296 14.9505 16.7723C15.0496 17.3148 15.2313 17.7053 15.4132 18.0346C15.4604 18.1202 15.508 18.2021 15.5544 18.2819C15.6853 18.5072 15.806 18.7149 15.8793 18.9364C15.9799 19.2406 15.9922 19.5719 15.8334 20.0189L15.7198 20.3386L15.7588 20.0016C15.7856 19.7697 15.7573 19.5347 15.6762 19.3158L15.6761 19.3156C15.5548 18.9827 15.3303 18.6746 15.0613 18.3112M13.4896 14.2581L13.4827 14.2967L13.4896 14.2581ZM13.5516 14.3489L13.454 14.8902L13.4602 14.8887L13.4694 14.9263C13.8752 16.5822 14.5544 17.4982 15.0852 18.2141C15.098 18.2313 15.1107 18.2484 15.1232 18.2653C15.3908 18.6267 15.6226 18.9439 15.7485 19.2891C15.7991 19.4258 15.8302 19.5685 15.8412 19.7128C15.9038 19.4182 15.8791 19.1814 15.8061 18.9606C15.7356 18.7473 15.6207 18.5496 15.4913 18.3268C15.4442 18.2458 15.3952 18.1615 15.3457 18.0719C15.1614 17.7382 14.9757 17.3395 14.8747 16.7862C14.775 16.2403 14.7579 15.5458 14.9036 14.6163L13.5516 14.3489ZM13.4038 14.9822L13.3571 14.9938L13.4827 14.2967M13.4038 14.9822C13.8143 16.6295 14.4947 17.5471 15.0231 18.2597C15.0359 18.277 15.0487 18.2942 15.0613 18.3112" fill="#7B3F00"/>
<path fill-rule="evenodd" clip-rule="evenodd" d="M14.9215 18.3371C14.3879 17.6176 13.6856 16.6705 13.2706 14.975L13.4351 14.9347C13.842 16.597 14.5278 17.5218 15.058 18.2368C15.0702 18.2533 15.0824 18.2696 15.0944 18.2858C15.3609 18.6456 15.5921 18.9633 15.7153 19.3008C15.8406 19.6442 15.8535 20.0045 15.6965 20.4484L15.5368 20.3919C15.6814 19.9831 15.6673 19.6634 15.5562 19.3589C15.4429 19.0486 15.228 18.7507 14.9583 18.3867C14.9461 18.3703 14.9338 18.3537 14.9215 18.3371Z" fill="#7B3F00"/>
<path d="M12.2209 12.2222L11.0801 13.363L18.4953 18.4966L13.3617 11.0814L12.2209 12.2222L18.4953 18.4966L12.2209 12.2222Z" fill="#FCD116"/>
<path fill-rule="evenodd" clip-rule="evenodd" d="M10.9492 13.375L13.3743 10.9499L18.8309 18.8315L10.9492 13.375ZM11.2125 13.3513L17.772 17.8924L12.2217 12.3421L11.2125 13.3513ZM12.3415 12.2223L17.8918 17.7726L13.3506 11.2132L12.3415 12.2223Z" fill="#7B3F00"/>
<path d="M12.2207 12.2224L13.3615 11.0816L12.2207 12.2224L18.4951 18.4968L13.3615 11.0816" fill="#7B3F00"/>
<path d="M11.6686 14.6125L11.1358 14.9827L11.1591 14.9967C10.2498 16.4964 10.0951 17.6497 9.96233 18.5415C9.89577 18.9875 9.83603 19.3699 9.68363 19.6971C9.5837 19.9147 9.43378 20.1057 9.24609 20.2545C10.9312 19.4528 9.37821 18.0644 12.4781 15.821L11.6686 14.6125Z" fill="#7B3F00"/>
<path fill-rule="evenodd" clip-rule="evenodd" d="M11.6795 14.5583L12.5314 15.8302L12.5013 15.852C11.7291 16.4108 11.2483 16.9152 10.9347 17.3691C10.6212 17.8227 10.4735 18.2274 10.3693 18.5888C10.3422 18.6827 10.3179 18.7744 10.2943 18.8636C10.2276 19.1154 10.166 19.3477 10.0612 19.5561C9.91722 19.8423 9.6917 20.0853 9.26332 20.2891L8.95703 20.4348L9.22284 20.2241C9.40577 20.0791 9.55189 19.8929 9.64929 19.6808L9.64938 19.6806C9.79899 19.3594 9.85816 18.9828 9.9249 18.5356C9.92802 18.5146 9.93116 18.4935 9.93432 18.4722C10.0646 17.5947 10.2323 16.4647 11.1069 15.0096L11.0656 14.9848L11.6795 14.5583ZM11.2074 14.9801L11.2128 14.9834L11.1927 15.0164C10.3088 16.4743 10.1413 17.6023 10.0105 18.4839C10.0073 18.5051 10.0042 18.5261 10.0011 18.547C9.93474 18.9917 9.87442 19.3799 9.71927 19.713C9.65843 19.8455 9.57953 19.9684 9.48518 20.0783C9.73788 19.9142 9.88785 19.7292 9.99235 19.5215C10.0933 19.3208 10.1519 19.0997 10.2179 18.8507C10.2419 18.7601 10.2669 18.6658 10.2952 18.5675C10.4009 18.2012 10.5515 17.788 10.8713 17.3253C11.1868 16.8688 11.6658 16.3656 12.4261 15.8114L11.6591 14.6663L11.2074 14.9801Z" fill="#7B3F00"/>
<path fill-rule="evenodd" clip-rule="evenodd" d="M9.80695 18.4558C9.93843 17.5698 10.1115 16.4035 11.0169 14.9111L11.1617 14.999C10.274 16.4621 10.105 17.601 9.97434 18.4815C9.97134 18.5018 9.96835 18.5219 9.96538 18.5419C9.89948 18.9847 9.83824 19.3728 9.68671 19.6986C9.53255 20.0301 9.28689 20.294 8.862 20.4967L8.78906 20.3439C9.18038 20.1572 9.39647 19.9211 9.53316 19.6272C9.67248 19.3277 9.73119 18.9651 9.79787 18.517C9.80088 18.4967 9.80391 18.4764 9.80695 18.4558Z" fill="#7B3F00"/>
<path d="M12.2208 12.2224H10.6074L12.2208 21.0957L13.8341 12.2224H12.2208V21.0957V12.2224Z" fill="#FCD116"/>
<path fill-rule="evenodd" clip-rule="evenodd" d="M10.5059 12.1377H13.9355L12.2207 21.5691L10.5059 12.1377ZM10.7088 12.307L12.136 20.1567V12.307H10.7088ZM12.3053 12.307V20.1567L13.7325 12.307H12.3053Z" fill="#7B3F00"/>
<path d="M12.2227 12.2224H13.836H12.2227V21.0957L13.836 12.2224" fill="#7B3F00"/>
<path d="M12.2217 12.2224L13.3625 13.3632L12.2217 12.2224L5.94727 18.4968L13.3625 13.3632" fill="#7B3F00"/>
<path d="M12.2214 15.1799C13.8549 15.1799 15.1792 13.8557 15.1792 12.2222C15.1792 10.5886 13.8549 9.2644 12.2214 9.2644C10.5879 9.2644 9.26367 10.5886 9.26367 12.2222C9.26367 13.8557 10.5879 15.1799 12.2214 15.1799Z" fill="#FCD116"/>
<path fill-rule="evenodd" clip-rule="evenodd" d="M12.2221 9.34904C10.6354 9.34904 9.34904 10.6353 9.34904 12.2221C9.34904 13.8089 10.6354 15.0952 12.2221 15.0952C13.8089 15.0952 15.0952 13.8089 15.0952 12.2221C15.0952 10.6353 13.8089 9.34904 12.2221 9.34904ZM9.17969 12.2221C9.17969 10.5418 10.5418 9.17969 12.2221 9.17969C13.9024 9.17969 15.2645 10.5418 15.2645 12.2221C15.2645 13.9024 13.9024 15.2645 12.2221 15.2645C10.5418 15.2645 9.17969 13.9024 9.17969 12.2221Z" fill="#7B3F00"/>
<path d="M14.4001 11.0392C14.2119 11.2543 14.1043 10.8779 13.4321 10.8779C12.7599 10.8779 12.6523 11.2812 12.5448 11.2005C12.4372 11.1199 13.1094 10.6359 13.3246 10.609C13.5397 10.5821 14.1581 10.7972 14.4001 11.0392ZM13.6203 11.2812C13.8086 11.4425 13.6472 11.7921 13.459 11.7921C13.2708 11.7921 12.9212 11.4694 13.0826 11.2543" fill="#7B3F00"/>
<path d="M12.7324 11.5232C12.7593 11.2005 13.0282 11.1467 13.4584 11.1467C13.8886 11.1467 14.0769 11.4694 14.2382 11.5501C14.05 11.5501 13.8886 11.2812 13.4584 11.2812C13.0282 11.2812 13.0282 11.2812 12.7324 11.5501V11.5232ZM12.8131 11.6038C12.9206 11.4425 13.0551 11.7652 13.3509 11.7652C13.6466 11.7652 13.808 11.6845 13.9962 11.5501C14.1844 11.4156 13.7273 11.8727 13.4315 11.8727C13.1358 11.8727 12.7324 11.7114 12.8131 11.6038Z" fill="#7B3F00"/>
<path d="M10.7151 11.2544C10.5807 11.3082 10.3656 11.577 10.7151 11.7652C10.4462 11.577 10.6613 11.3082 10.7151 11.2544Z" fill="#7B3F00"/>
<path d="M13.7266 11.2544C13.7803 11.3082 13.9955 11.577 13.7266 11.7652C14.0761 11.577 13.861 11.3082 13.7266 11.2544Z" fill="#7B3F00"/>
<path d="M11.7915 12.4106C11.5495 12.4644 11.6301 12.814 11.415 12.8409C11.1999 12.8678 11.0924 13.1098 11.1193 13.0829C11.2537 12.9753 11.5495 12.8946 11.7646 12.8946C11.9798 12.8946 12.0335 13.0291 12.2218 13.0291C12.41 13.0291 12.4637 12.8946 12.6789 12.8946C12.894 12.8946 13.1898 12.9753 13.3242 13.0829C13.3511 13.1098 13.2436 12.8678 13.0285 12.8409C12.8134 12.814 12.894 12.4644 12.652 12.4106C12.652 12.5182 12.7326 12.4913 12.7595 12.6526C12.7595 12.7871 12.5175 12.7871 12.4637 12.6526C12.5175 12.8677 12.3562 12.8677 12.2218 12.8677C12.0873 12.8677 11.926 12.8677 11.9798 12.6526C11.926 12.7871 11.684 12.7871 11.684 12.6526C11.7109 12.4913 11.7915 12.5182 11.7915 12.4106Z" fill="#7B3F00"/>
<path d="M10.9578 13.3247C10.7427 13.486 10.689 13.5667 10.6621 13.7549C10.7266 13.6421 10.7583 13.5957 10.8072 13.5293C10.7943 13.5238 10.7831 13.5186 10.7697 13.513C10.7854 13.5148 10.7994 13.5173 10.8145 13.5194C10.847 13.4754 10.8759 13.4374 10.9578 13.3247V13.3247Z" fill="#7B3F00"/>
<path d="M10.814 13.5193C10.8132 13.5203 10.8113 13.5229 10.8105 13.5239C10.8442 13.5317 10.8798 13.5354 10.9172 13.5355C10.8844 13.5297 10.8498 13.5243 10.814 13.5193H10.814Z" fill="#7B3F00"/>
<path d="M10.916 13.5356C11.0837 13.5652 11.2153 13.6038 11.336 13.6428C11.4865 13.6317 11.6941 13.5936 12.2199 13.5936C12.7458 13.5936 12.9534 13.6317 13.1039 13.6428C13.2245 13.6038 13.3562 13.5652 13.5239 13.5356C13.2276 13.5366 12.8327 13.3247 12.6502 13.3247C12.4351 13.3247 12.3813 13.3785 12.2199 13.3785C12.0586 13.3785 12.0048 13.3247 11.7897 13.3247C11.6072 13.3247 11.2123 13.5367 10.916 13.5356Z" fill="#7B3F00"/>
<path d="M13.5254 13.5355C13.5628 13.5354 13.5984 13.5317 13.6321 13.5239C13.6313 13.5229 13.6294 13.5203 13.6287 13.5193C13.5928 13.5243 13.5582 13.5297 13.5254 13.5355H13.5254Z" fill="#7B3F00"/>
<path d="M13.6297 13.5194C13.6448 13.5173 13.6588 13.5149 13.6744 13.513C13.661 13.5186 13.6499 13.5237 13.6369 13.5293C13.6859 13.5957 13.7176 13.6421 13.7821 13.7549C13.7552 13.5667 13.7014 13.486 13.4863 13.3247C13.5683 13.4374 13.5972 13.4754 13.6297 13.5194V13.5194Z" fill="#7B3F00"/>
<path d="M13.6355 13.5294C13.6352 13.5289 13.6344 13.5279 13.6341 13.5276C13.3535 13.6357 13.2547 13.6541 13.105 13.643C12.8501 13.7254 12.6399 13.8089 12.2211 13.8089C11.8022 13.8089 11.5921 13.7254 11.3371 13.643C11.1874 13.6541 11.0886 13.6357 10.808 13.5276C10.8077 13.5281 10.807 13.5292 10.8066 13.5294C11.6513 13.893 11.559 14.0239 12.2211 14.0239C12.8831 14.0239 12.7908 13.893 13.6355 13.5294H13.6355Z" fill="#7B3F00"/>
<path d="M10.8084 13.5274C10.809 13.5266 10.8103 13.5247 10.8109 13.524C10.7968 13.5207 10.7827 13.5178 10.7695 13.5129C10.7849 13.519 10.7941 13.5219 10.8084 13.5274Z" fill="#7B3F00"/>
<path d="M13.6353 13.5274C13.6496 13.5219 13.6588 13.519 13.6741 13.5129C13.6609 13.5177 13.6468 13.5207 13.6328 13.524C13.6334 13.5248 13.6347 13.5266 13.6353 13.5274V13.5274Z" fill="#7B3F00"/>
<path d="M10.0433 11.0392C10.2315 11.2543 10.339 10.8779 11.0113 10.8779C11.6835 10.8779 11.791 11.2812 11.8986 11.2005C12.0061 11.1199 11.3339 10.6359 11.1188 10.609C10.9037 10.5821 10.2853 10.7972 10.0433 11.0392ZM10.823 11.2812C10.6348 11.4425 10.7961 11.7921 10.9844 11.7921C11.1726 11.7921 11.5221 11.4694 11.3608 11.2543" fill="#7B3F00"/>
<path d="M11.7109 11.5232C11.684 11.2005 11.4152 11.1467 10.9849 11.1467C10.5547 11.1467 10.3665 11.4694 10.2052 11.5501C10.3934 11.5501 10.5547 11.2812 10.9849 11.2812C11.4152 11.2812 11.4152 11.2812 11.7109 11.5501V11.5232ZM11.6303 11.6038C11.5227 11.4425 11.3883 11.7652 11.0925 11.7652C10.7967 11.7652 10.6354 11.6845 10.4472 11.5501C10.2589 11.4156 10.716 11.8727 11.0118 11.8727C11.3076 11.8727 11.7109 11.7114 11.6303 11.6038Z" fill="#7B3F00"/>
<path d="M12.2209 14.2659C12.0864 14.2659 11.7369 14.3465 12.2209 14.3465C12.7049 14.3465 12.3553 14.2659 12.2209 14.2659Z" fill="#7B3F00"/>
</g>
<defs>
<clipPath id="clip0_859_136926">
<rect width="66" height="44" fill="white"/>
</clipPath>
</defs>
</svg>
