<svg width="66" height="44" viewBox="0 0 66 44" fill="none" xmlns="http://www.w3.org/2000/svg">
<g clip-path="url(#clip0_859_128553)">
<path d="M69.3333 0H-4V44H69.3333V0Z" fill="#00B140"/>
<path d="M69.3333 0H-4V22H69.3333V0Z" fill="white"/>
<path d="M18.6115 10.4332C16.2299 10.7941 10.1946 11.3612 7.83984 10.9746L8.29999 12.083C12.1972 11.7221 15.9321 12.9852 19.3965 11.6706L18.6115 10.4332Z" fill="#C8102E" stroke="black" stroke-width="0.15"/>
<path d="M9.38275 13.1398C7.89404 12.7017 5.43126 10.1497 5.02539 8.60303C6.18909 9.40201 8.9767 10.4332 9.97811 10.3302C9.65327 10.5622 8.84131 11.1807 8.21884 11.2581C8.51674 11.8253 9.0849 12.547 9.38275 13.1398Z" fill="#C8102E" stroke="black" stroke-width="0.15"/>
<path d="M14.1719 12.3665C14.6051 12.9594 16.8784 12.7145 18.0285 11.9929L17.7173 11.4901L17.4873 11.9155L17.1219 11.516L17.0273 12.1474L16.3913 11.6835L16.2829 12.2378L15.877 11.7479L15.7283 12.3538L15.1327 11.8896L14.9028 12.5213C14.7231 12.3082 14.6227 12.0396 14.6185 11.7609C14.3885 11.851 14.199 12.1474 14.1719 12.3665Z" fill="#C8102E" stroke="black" stroke-width="0.15"/>
<path d="M14.3613 10.4461C14.3613 10.6007 14.5508 11.052 14.9028 11.1807C14.9163 10.9875 14.6726 10.5363 14.8215 10.3431L15.1328 10.6266L15.2276 10.0852L15.647 10.3817L15.6875 9.75021L16.1206 10.0337V9.33777C15.4168 9.402 14.5508 10.2141 14.3613 10.4461Z" fill="#C8102E" stroke="black" stroke-width="0.15"/>
<path d="M58.2812 17.4706C58.0985 17.0582 57.5302 16.5556 57.0295 16.2462C57.2249 15.7885 57.5297 15.0643 57.8342 14.3144C57.0764 14.4691 55.5004 14.5835 54.5801 14.4804C56.3121 12.8307 59.9388 9.42792 61.1297 7.88123C60.6967 9.99498 61.0215 14.7381 61.8875 16.3878C60.9672 16.027 59.9036 15.2797 59.3083 14.4548C58.9572 15.639 58.5265 16.9294 58.288 17.4576" fill="#C8102E"/>
<path d="M58.2812 17.4706C58.0985 17.0582 57.5302 16.5556 57.0295 16.2462C57.2249 15.7885 57.5297 15.0643 57.8342 14.3144C57.0764 14.4691 55.5004 14.5835 54.5801 14.4804C56.3121 12.8307 59.9388 9.42792 61.1297 7.88123C60.6967 9.99498 61.0215 14.7381 61.8875 16.3878C60.9672 16.027 59.9036 15.2797 59.3083 14.4548C58.9572 15.639 58.5265 16.9294 58.288 17.4576" stroke="black" stroke-width="0.15"/>
<path d="M24.4847 8.42256C24.5929 8.96396 24.6198 9.37637 25.0259 9.53098C25.4318 9.68576 26.3249 9.99495 26.8933 10.9231C26.2167 10.7426 25.2694 10.4848 25.1882 11.1035C25.111 11.6924 25.3821 11.675 25.8378 11.7736C26.4332 11.9025 27.0016 12.5985 27.0287 13.5266C26.5414 13.2431 25.8648 13.0111 25.4318 13.0111C24.9987 13.0111 24.8769 13.0883 24.7688 13.6038C24.5901 14.4542 24.9177 14.5061 25.3236 14.5576C25.7296 14.6091 26.5957 14.9959 26.6498 16.4137C26.1896 16.0269 25.2667 15.8115 24.7011 15.7177C24.3898 15.6662 24.3357 15.8208 24.2952 16.3622C24.2545 16.9035 24.3222 17.084 24.8634 17.2386C25.4048 17.3933 26.0273 17.7799 26.1896 18.6048C25.6753 18.3728 24.8634 18.4502 24.6198 18.5532C24.3763 18.6563 24.2443 19.2325 24.7586 20.3408C25.8654 19.9839 27.0076 19.7475 28.1653 19.6358C30.7233 19.3793 30.114 17.6769 30.114 14.9959C30.114 12.315 35.7432 9.32483 44.2956 4.58171C42.2387 9.5825 45.0535 9.11853 46.6231 8.55151C48.1929 7.98428 51.8737 6.54085 54.7425 5.35504C50.791 7.88119 48.7882 10.5622 52.2525 11.7479C47.8139 13.0883 45.757 16.7487 48.1929 19.0688C46.5318 18.5084 44.2299 19.5657 43.2658 21.038C44.9979 20.8832 48.3551 21.2857 50.4121 21.8528C52.3707 22.3927 55.6041 21.7604 55.9087 20.0967C55.9248 20.0128 55.9331 19.9276 55.9333 19.8421C55.9333 19.2621 55.784 18.8242 55.5553 18.5051C55.0522 17.803 54.1707 17.651 53.687 17.651C52.9832 17.651 52.2525 17.9345 52.2525 18.4243C52.2525 18.9142 52.6856 19.1203 53.5516 19.1203C54.0252 19.1203 54.7552 19.1987 55.5553 18.5051C55.784 18.8242 55.9333 19.2621 55.9333 19.8421C55.9326 19.9264 55.924 20.0104 55.9076 20.0931C55.1504 20.5019 54.3037 20.7168 53.4432 20.7185C51.7111 20.7185 50.0874 20.0482 50.0874 18.2439C50.0874 16.4395 52.0359 15.4083 53.6057 15.4083C55.7708 15.4083 58.802 16.2332 58.802 19.5327C58.802 23.7088 53.0532 25.6619 49.643 25.6619C50.2147 26.1188 50.8586 26.5444 51.5488 26.802C53.9641 27.7043 56.0957 28.8127 56.8535 30.5142C55.9333 30.5142 54.4176 29.7924 53.7139 29.0705C55.6626 31.339 53.2991 35.5119 53.5516 36.9071C53.8221 38.402 55.6626 37.4741 55.6626 38.6342C55.6626 39.6652 54.58 39.4847 54.1741 39.0208C53.768 38.5568 52.4666 38.167 51.7924 38.6342C51.197 39.0466 50.2769 39.2528 49.8708 38.8403C49.465 38.4279 47.9764 38.5825 47.354 39.1497C46.7315 39.7167 45.862 39.761 45.5947 39.3302C45.3085 38.8688 45.3817 38.3078 46.5395 38.1136C46.0252 37.5979 44.458 38.4794 44.1875 37.4999C43.9929 36.7961 44.4039 36.4687 45.757 36.5718C45.6217 36.2368 44.6205 36.0822 44.7556 35.386C44.891 34.69 45.6732 34.2592 46.5961 35.283C49.0589 38.0154 50.1956 36.4946 51.0345 35.3088C50.764 34.69 51.0617 34.2776 51.576 33.8911C51.3053 33.4528 51.4676 32.8342 51.657 32.4218C51.2511 32.1898 51.0076 31.1586 51.4406 30.7977C51.0886 30.7977 50.5474 30.4109 50.5474 29.7408C50.0646 30.0343 49.4455 29.9712 49.0319 29.5862C48.5177 29.8697 47.1645 29.9213 46.569 29.3025C45.757 29.6119 44.3226 29.5345 43.9439 28.9416C43.2293 29.1222 41.9139 28.5291 41.6434 27.8847C41.2259 27.8544 40.8205 27.7312 40.4568 27.524C39.3744 28.2974 37.9085 29.7924 39.3699 30.9266C40.8315 32.0609 43.8626 31.1327 43.9168 33.9683C43.213 33.4012 41.9139 33.5558 41.4809 32.9888C40.0195 35.051 37.9085 36.9327 34.7961 37.706C35.2561 37.9896 36.0952 38.0154 36.4198 37.9896C37.0947 37.936 37.6648 38.4794 37.1507 39.1238C36.6364 39.7684 35.5809 39.2269 34.9585 38.6857C34.0627 37.9065 33.4699 38.3505 33.2263 38.5309C32.9828 38.7114 32.658 38.8147 32.225 38.402C31.7919 37.9896 31.3859 38.2733 31.1695 38.5309C30.8177 38.9498 30.0057 37.9896 28.7067 39.1238C28.0821 39.6692 26.5957 38.9693 27.191 38.17C26.5685 38.3248 25.4676 37.4636 26.3791 36.6235C27.2182 35.8502 28.8149 37.6289 30.114 37.1132C29.822 36.7593 29.2135 36.1038 27.9488 35.9533C27.2992 35.8759 27.1842 35.1563 27.4887 34.6385C27.8676 33.9941 29.0315 34.4324 29.8163 35.4378C30.4345 36.2297 31.2507 36.2368 32.0896 36.0822C32.679 35.7079 33.5917 35.6954 33.9978 35.8243C33.9978 35.4378 34.6336 35.1025 35.1207 35.1025C35.0938 34.587 35.2561 34.123 36.0411 33.9941C36.1065 33.9834 36.1741 33.9729 36.2439 33.9666C35.6972 33.9916 35.1672 33.7744 34.7953 33.3727C33.7112 33.6373 32.5101 33.1274 32.3336 32.1524C30.62 32.033 30.4496 30.3038 30.8718 29.7408C30.9062 29.6943 30.9448 29.6511 30.9872 29.6117C30.4772 29.9952 29.8254 30.1727 29.0194 29.8934C28.2618 30.9233 26.9431 31.3729 25.7142 31.0202C25.3734 31.5352 24.8544 31.9061 24.2568 32.0617C24.3073 32.6865 24.1726 33.3944 23.3479 34.2261C23.5643 33.0918 22.0488 32.731 22.3737 30.8751C22.2653 32.2155 18.1786 34.4324 17.529 37.371C18.1245 37.6289 18.7741 37.8091 19.18 37.7319C20.2009 37.5375 20.5332 38.5568 20.2355 38.9693C19.9378 39.3817 19.0987 39.5878 18.747 39.2269C18.3952 38.8662 17.6643 39.3558 17.3125 38.6857C16.9608 38.0154 15.9863 38.2474 15.5805 38.6857C15.1746 39.1238 13.8212 38.1185 12.847 39.1238C12.4825 39.4999 11.2503 39.8972 10.5194 39.691C9.78867 39.4847 9.35564 38.7629 9.59923 38.3764C9.11211 37.9381 9.10533 37.4013 9.57229 36.9327C9.39619 36.2754 9.97008 34.9764 10.939 35.4893C11.548 35.8114 13.7062 37.3324 15.5873 35.5923C17.2182 34.0648 16.2681 32.8409 17.3125 32.6794C17.1855 32.0592 17.5833 31.2875 18.0163 31.1327C17.8904 30.8755 17.8676 30.5799 17.9524 30.3064C17.7065 30.2874 17.4644 30.2344 17.233 30.1488C16.4219 30.3785 15.5843 30.5013 14.7414 30.5142C14.7414 31.1327 13.9837 32.6279 13.3341 33.3497C13.1177 27.6787 7.70483 27.1114 6.97394 22.6004C6.94701 23.2705 6.21612 23.9408 6.13505 24.5078C6.05379 25.0751 5.70201 25.5132 5.05238 25.2556C4.40297 24.9977 4.24046 23.915 4.8901 23.7604C5.53973 23.6056 5.41793 22.5746 5.82381 22.4457C6.22968 22.3167 6.29737 21.9043 6.13505 21.3888C5.97254 20.8733 6.21612 20.2546 6.37863 19.868C6.54091 19.4812 6.29737 18.8368 5.729 18.6048C5.16079 18.3728 4.97135 17.8058 5.18777 17.316C4.59241 16.9035 4.76218 16.0122 5.56666 15.8467C6.56807 15.6404 6.54091 17.2127 7.10929 17.3934C7.02826 17.084 7.13645 16.4911 7.38003 16.1043C7.0552 15.434 7.46128 14.8929 8.1107 14.8929C9.24746 14.8929 8.86852 16.6972 8.59783 17.2644C8.97675 16.7487 9.57229 16.1559 10.0323 16.5685C10.4924 16.9807 10.4173 17.8422 9.92402 18.218C9.51797 18.5274 8.67908 19.0172 8.92265 19.5586C9.40978 20.3835 9.70741 21.3629 9.76173 22.6261C10.4383 23.116 10.8713 23.683 10.8713 24.147C11.3177 24.1728 12.1729 24.5256 12.2922 25.0235C12.8334 24.9718 13.6417 25.0753 13.8753 25.552C14.0514 25.4617 14.5209 25.4316 14.8052 25.4572C14.8062 25.0546 14.9462 24.6646 15.2015 24.3533C14.2814 23.3736 14.3084 21.8271 15.2557 21.2084C14.986 20.5662 15.0933 19.3782 15.9863 18.7594C15.967 18.1148 16.1488 17.2644 17.0418 16.7231C16.9065 16.0269 17.3667 15.0733 17.9351 15.0218C17.7997 14.3515 17.9019 13.5242 18.6867 13.1374C18.5019 12.9435 18.4058 12.6816 18.4213 12.4142C17.0446 12.6977 16.5066 13.5002 16.0676 14.2485C16.0135 13.9391 15.9322 13.5267 15.7427 13.2173C15.7427 14.0163 15.1203 14.3 15.0933 15.4084C14.6332 14.9444 14.4709 14.1967 14.4978 13.6812C14.5194 13.2686 13.7943 12.8822 14.0107 12.1604C15.0933 13.1142 17.2856 11.0262 19.18 11.6964C17.3125 7.95864 15.9594 9.76295 15.0121 10.4076C14.0648 11.052 13.3882 10.0982 13.4966 9.47946C12.2245 9.19594 10.7088 9.24746 9.058 9.55685C10.2758 8.03583 13.1447 7.36572 15.2557 7.52033C16.1758 5.89642 17.2856 6.12842 18.368 6.283C19.0758 6.38426 19.9024 6.38646 20.7226 6.34706C21.2369 4.98081 24.2409 4.83956 24.5388 3.75684C24.8095 3.96298 24.645 4.73874 24.3743 5.40881C25.1568 5.18574 25.8287 4.94749 26.0542 4.47868C26.1896 4.91678 25.9732 6.10255 25.6753 6.46347C25.984 6.38116 26.3034 6.3464 26.6226 6.36038C25.6753 6.87588 24.4847 7.64924 24.2952 7.77816C24.1057 7.90707 23.9973 8.16473 24.4847 8.42256C23.9432 8.52565 22.4278 9.04136 21.8053 8.62891L24.4847 8.42256Z" fill="#C8102E"/>
<path d="M24.4847 8.42256C24.5929 8.96396 24.6198 9.37637 25.0259 9.53098C25.4318 9.68576 26.3249 9.99495 26.8933 10.9231C26.2167 10.7426 25.2694 10.4848 25.1882 11.1035C25.111 11.6924 25.3821 11.675 25.8378 11.7736C26.4332 11.9025 27.0016 12.5985 27.0287 13.5266C26.5414 13.2431 25.8648 13.0111 25.4318 13.0111C24.9987 13.0111 24.8769 13.0883 24.7688 13.6038C24.5901 14.4542 24.9177 14.5061 25.3236 14.5576C25.7296 14.6091 26.5957 14.9959 26.6498 16.4137C26.1896 16.0269 25.2667 15.8115 24.7011 15.7177C24.3898 15.6662 24.3357 15.8208 24.2952 16.3621C24.2545 16.9035 24.3222 17.084 24.8634 17.2386C25.4048 17.3933 26.0273 17.7799 26.1896 18.6048C25.6753 18.3728 24.8634 18.4502 24.6198 18.5532C24.3763 18.6563 24.2443 19.2325 24.7586 20.3408C25.8654 19.9839 27.0076 19.7475 28.1653 19.6358C30.7233 19.3793 30.114 17.6769 30.114 14.9959C30.114 12.315 35.7432 9.32483 44.2956 4.58171C42.2387 9.5825 45.0535 9.11853 46.6231 8.55151C48.1929 7.98428 51.8737 6.54085 54.7425 5.35504C50.791 7.88119 48.7882 10.5622 52.2525 11.7479C47.8139 13.0883 45.757 16.7487 48.1929 19.0688C46.5318 18.5084 44.2299 19.5657 43.2658 21.038C44.9979 20.8832 48.3551 21.2857 50.4121 21.8528C52.3707 22.3927 55.6041 21.7604 55.9087 20.0967C55.9248 20.0128 55.9331 19.9276 55.9333 19.8421M24.4847 8.42256C23.9973 8.16473 24.1057 7.90707 24.2952 7.77816C24.4847 7.64924 25.6753 6.87588 26.6226 6.36038C26.3034 6.3464 25.984 6.38116 25.6753 6.46347C25.9732 6.10255 26.1896 4.91678 26.0542 4.47868C25.8287 4.94749 25.1568 5.18574 24.3743 5.40881C24.645 4.73874 24.8095 3.96298 24.5388 3.75684C24.2409 4.83956 21.2369 4.98081 20.7226 6.34706C19.9024 6.38646 19.0758 6.38426 18.368 6.283C17.2856 6.12842 16.1758 5.89642 15.2557 7.52033C13.1447 7.36572 10.2758 8.03583 9.058 9.55685C10.7088 9.24746 12.2245 9.19594 13.4966 9.47946C13.3882 10.0982 14.0648 11.052 15.0121 10.4076C15.9594 9.76295 17.3125 7.95864 19.18 11.6964C17.2856 11.0262 15.0933 13.1142 14.0107 12.1604C13.7943 12.8822 14.5194 13.2686 14.4978 13.6812C14.4709 14.1967 14.6332 14.9444 15.0933 15.4084C15.1203 14.3 15.7427 14.0163 15.7427 13.2173C15.9322 13.5267 16.0135 13.9391 16.0676 14.2485C16.5066 13.5002 17.0446 12.6977 18.4213 12.4142C18.4058 12.6816 18.5019 12.9435 18.6867 13.1374C17.9019 13.5242 17.7997 14.3515 17.9351 15.0218C17.3667 15.0733 16.9065 16.0269 17.0418 16.7231C16.1488 17.2644 15.967 18.1148 15.9863 18.7594C15.0933 19.3782 14.986 20.5662 15.2557 21.2084C14.3084 21.8271 14.2814 23.3736 15.2015 24.3533C14.9462 24.6646 14.8062 25.0546 14.8052 25.4572C14.5209 25.4316 14.0514 25.4617 13.8753 25.552C13.6417 25.0753 12.8334 24.9718 12.2922 25.0235C12.1729 24.5256 11.3177 24.1728 10.8713 24.147C10.8713 23.683 10.4383 23.116 9.76173 22.6261C9.70741 21.3629 9.40978 20.3835 8.92265 19.5586C8.67908 19.0172 9.51797 18.5274 9.92402 18.218C10.4173 17.8422 10.4924 16.9807 10.0323 16.5685C9.57229 16.1559 8.97675 16.7487 8.59782 17.2644C8.86852 16.6972 9.24746 14.8929 8.1107 14.8929C7.46128 14.8929 7.0552 15.434 7.38003 16.1043C7.13645 16.4911 7.02826 17.084 7.10929 17.3934C6.54091 17.2127 6.56807 15.6404 5.56666 15.8467C4.76218 16.0122 4.59241 16.9035 5.18777 17.316C4.97135 17.8058 5.16079 18.3728 5.729 18.6048C6.29737 18.8368 6.54091 19.4812 6.37863 19.868C6.21612 20.2546 5.97254 20.8733 6.13505 21.3888C6.29737 21.9043 6.22968 22.3167 5.82381 22.4457C5.41793 22.5746 5.53973 23.6056 4.8901 23.7604C4.24046 23.915 4.40297 24.9977 5.05238 25.2555C5.70201 25.5132 6.05379 25.0751 6.13505 24.5078C6.21612 23.9408 6.94701 23.2705 6.97394 22.6004C7.70483 27.1114 13.1177 27.6787 13.3341 33.3497C13.9837 32.6279 14.7414 31.1327 14.7414 30.5142C15.5843 30.5013 16.4219 30.3785 17.233 30.1488C17.4644 30.2344 17.7065 30.2874 17.9524 30.3064C17.8676 30.5799 17.8904 30.8755 18.0163 31.1327C17.5833 31.2875 17.1855 32.0592 17.3125 32.6794C16.2681 32.8409 17.2182 34.0649 15.5873 35.5923C13.7062 37.3324 11.548 35.8114 10.939 35.4893C9.97008 34.9764 9.39619 36.2754 9.57229 36.9327C9.10533 37.4013 9.11211 37.9381 9.59923 38.3764C9.35564 38.7629 9.78867 39.4847 10.5194 39.691C11.2503 39.8972 12.4825 39.4999 12.847 39.1238C13.8212 38.1185 15.1746 39.1238 15.5805 38.6857C15.9863 38.2474 16.9608 38.0154 17.3125 38.6857C17.6643 39.3558 18.3952 38.8662 18.747 39.2269C19.0987 39.5878 19.9378 39.3817 20.2355 38.9693C20.5332 38.5568 20.2009 37.5375 19.18 37.7319C18.7741 37.8091 18.1245 37.6289 17.529 37.371C18.1786 34.4324 22.2653 32.2155 22.3737 30.8751C22.0488 32.731 23.5643 33.0918 23.3479 34.2261C24.1726 33.3944 24.3073 32.6865 24.2568 32.0617C24.8544 31.9061 25.3734 31.5352 25.7142 31.0202C26.9431 31.3729 28.2618 30.9233 29.0194 29.8934C29.8254 30.1727 30.4772 29.9952 30.9872 29.6117C30.9448 29.6511 30.9062 29.6943 30.8718 29.7408C30.4496 30.3038 30.62 32.033 32.3336 32.1524C32.5101 33.1274 33.7112 33.6373 34.7953 33.3727C35.1672 33.7744 35.6972 33.9916 36.2439 33.9666C36.1741 33.9729 36.1065 33.9834 36.0411 33.9941C35.2561 34.123 35.0938 34.587 35.1207 35.1025C34.6336 35.1025 33.9978 35.4378 33.9978 35.8243C33.5917 35.6954 32.679 35.7079 32.0896 36.0822C31.2507 36.2368 30.4345 36.2297 29.8163 35.4378C29.0315 34.4324 27.8676 33.9941 27.4887 34.6385C27.1842 35.1563 27.2992 35.8759 27.9488 35.9533C29.2135 36.1038 29.822 36.7593 30.114 37.1132C28.8149 37.6289 27.2182 35.8502 26.3791 36.6235C25.4676 37.4636 26.5685 38.3248 27.191 38.17C26.5957 38.9693 28.0821 39.6692 28.7067 39.1238C30.0057 37.9896 30.8177 38.9498 31.1695 38.5309C31.3859 38.2733 31.7919 37.9896 32.225 38.402C32.658 38.8147 32.9828 38.7114 33.2263 38.5309C33.4699 38.3505 34.0627 37.9065 34.9585 38.6857C35.5809 39.2269 36.6364 39.7684 37.1507 39.1238C37.6648 38.4794 37.0947 37.936 36.4198 37.9896C36.0952 38.0154 35.2561 37.9896 34.7961 37.706C37.9085 36.9327 40.0195 35.051 41.4809 32.9888C41.9139 33.5558 43.213 33.4012 43.9168 33.9683C43.8626 31.1327 40.8315 32.0609 39.3699 30.9266C37.9085 29.7924 39.3744 28.2974 40.4568 27.524C40.8205 27.7312 41.2259 27.8544 41.6434 27.8847C41.9139 28.5291 43.2293 29.1222 43.9439 28.9416C44.3226 29.5345 45.757 29.6119 46.569 29.3025C47.1645 29.9213 48.5177 29.8697 49.0319 29.5862C49.4455 29.9712 50.0646 30.0343 50.5474 29.7408C50.5474 30.4109 51.0886 30.7977 51.4406 30.7977C51.0076 31.1586 51.2511 32.1898 51.657 32.4218C51.4676 32.8342 51.3053 33.4528 51.576 33.8911C51.0617 34.2776 50.764 34.69 51.0345 35.3088C50.1956 36.4946 49.0589 38.0154 46.5961 35.283C45.6732 34.2592 44.891 34.69 44.7556 35.386C44.6205 36.0822 45.6217 36.2368 45.757 36.5718C44.4039 36.4687 43.9929 36.7961 44.1875 37.4999C44.458 38.4794 46.0252 37.5979 46.5395 38.1136C45.3817 38.3078 45.3085 38.8688 45.5947 39.3302C45.862 39.761 46.7315 39.7167 47.354 39.1497C47.9764 38.5825 49.465 38.4279 49.8708 38.8403C50.2769 39.2528 51.197 39.0466 51.7924 38.6342C52.4666 38.167 53.768 38.5568 54.1741 39.0208C54.58 39.4847 55.6626 39.6652 55.6626 38.6342C55.6626 37.4741 53.8221 38.402 53.5516 36.9071C53.2991 35.5119 55.6626 31.339 53.7139 29.0705C54.4176 29.7924 55.9333 30.5142 56.8535 30.5142C56.0957 28.8127 53.9641 27.7043 51.5488 26.802C50.8586 26.5444 50.2147 26.1188 49.643 25.6619C53.0532 25.6619 58.802 23.7088 58.802 19.5327C58.802 16.2332 55.7708 15.4083 53.6057 15.4083C52.0359 15.4083 50.0874 16.4395 50.0874 18.2439C50.0874 20.0482 51.7111 20.7185 53.4432 20.7185C54.3037 20.7168 55.1504 20.5019 55.9076 20.0931C55.924 20.0104 55.9326 19.9264 55.9333 19.8421M24.4847 8.42256C23.9432 8.52565 22.4278 9.04136 21.8053 8.62891M55.9333 19.8421C55.9333 19.2621 55.784 18.8242 55.5553 18.5051M55.5553 18.5051C55.0522 17.803 54.1707 17.651 53.687 17.651C52.9832 17.651 52.2525 17.9345 52.2525 18.4243C52.2525 18.9142 52.6856 19.1203 53.5516 19.1203C54.0251 19.1203 54.7552 19.1987 55.5553 18.5051Z" stroke="black" stroke-width="0.15"/>
<path d="M3.91406 15.3954C4.63117 14.9055 5.61177 15.2677 5.82202 15.9883C5.95737 16.4522 5.13529 16.7968 5.0642 16.3621C4.96956 15.7821 4.57708 15.4212 3.91406 15.3954Z" fill="#C8102E" stroke="black" stroke-width="0.15"/>
<path d="M6.72656 13.8968C7.56121 13.6234 8.39159 14.2379 8.37612 14.9858C8.36613 15.4671 7.47483 15.5726 7.53766 15.1369C7.62143 14.5553 7.35412 14.1025 6.72656 13.8968Z" fill="#C8102E" stroke="black" stroke-width="0.15"/>
<path d="M9.83148 15.2163C10.6275 15.579 10.7667 16.5718 10.2049 17.0946C9.84317 17.431 9.13032 16.9107 9.49604 16.6419C9.98404 16.2837 10.127 15.7821 9.83148 15.2163Z" fill="#C8102E" stroke="black" stroke-width="0.15"/>
<path d="M3.49219 25.6354C4.18679 26.1538 5.18268 25.8319 5.42496 25.1203C5.5809 24.6623 4.77467 24.2848 4.68452 24.7162C4.56403 25.2917 4.15581 25.6365 3.49219 25.6354Z" fill="#C8102E" stroke="black" stroke-width="0.15"/>
<path d="M8.38086 36.0597C8.67172 35.2662 9.69263 35.0249 10.2999 35.4992C10.6907 35.8047 10.2262 36.5369 9.90563 36.2202C9.47773 35.7976 8.93881 35.7174 8.38086 36.0597Z" fill="#C8102E" stroke="black" stroke-width="0.15"/>
<path d="M7.4668 38.194C7.51516 37.3548 8.69606 36.8274 9.4176 37.1226C9.88226 37.3128 9.64932 38.139 9.24897 37.9194C8.71496 37.6266 7.90321 37.7177 7.4668 38.194Z" fill="#C8102E" stroke="black" stroke-width="0.15"/>
<path d="M8.75132 40.1744C8.44856 39.3849 9.07764 38.5823 9.86305 38.5829C10.3686 38.5833 10.4963 39.43 10.0377 39.3785C9.42581 39.3097 8.95541 39.5731 8.75132 40.1744Z" fill="#C8102E" stroke="black" stroke-width="0.15"/>
<path d="M21.4788 39.4696C21.5834 38.635 20.7774 37.9914 20.0132 38.1635C19.5212 38.2745 19.6009 39.1264 20.0348 38.9761C20.614 38.7754 21.1353 38.9288 21.4788 39.4696Z" fill="#C8102E" stroke="black" stroke-width="0.15"/>
<path d="M26.3635 39.736C26.1823 38.9134 26.9255 38.2047 27.7027 38.3122C28.2031 38.3813 28.2025 39.2367 27.7561 39.1234C27.1608 38.972 26.6559 39.1684 26.3635 39.736Z" fill="#C8102E" stroke="black" stroke-width="0.15"/>
<path d="M38.5381 39.535C38.6057 38.6968 37.7722 38.0859 37.0162 38.2886C36.5295 38.4191 36.6467 39.2672 37.0737 39.0997C37.6436 38.876 38.171 39.0084 38.5381 39.535Z" fill="#C8102E" stroke="black" stroke-width="0.15"/>
<path d="M24.9172 37.9906C24.7878 37.1593 25.6539 36.4437 26.4229 36.5951C26.9181 36.6926 26.7842 37.5965 26.3457 37.4581C25.7608 37.2732 25.2444 37.4407 24.9172 37.9906Z" fill="#C8102E" stroke="black" stroke-width="0.15"/>
<path d="M26.0508 35.5987C26.0991 34.7595 27.0986 34.2244 27.8202 34.5198C28.2846 34.71 27.9626 35.57 27.5624 35.3504C27.0284 35.0573 26.4872 35.1226 26.0508 35.5987Z" fill="#C8102E" stroke="black" stroke-width="0.15"/>
<path d="M44.6857 40.1742C44.5046 39.3515 45.2477 38.6428 46.0249 38.7503C46.5254 38.8197 46.5248 39.675 46.0784 39.5617C45.483 39.4103 44.9781 39.6067 44.6857 40.1742Z" fill="#C8102E" stroke="black" stroke-width="0.15"/>
<path d="M56.7787 39.7806C56.9661 38.9591 56.228 38.2454 55.45 38.3478C54.9492 38.4137 54.9436 39.2691 55.3906 39.1586C55.9872 39.0113 56.4908 39.2109 56.7787 39.7806Z" fill="#C8102E" stroke="black" stroke-width="0.15"/>
<path d="M43.1269 38.2676C42.9994 37.436 43.7874 36.7724 44.5561 36.9256C45.051 37.0242 44.9946 37.8779 44.5567 37.7383C43.9722 37.5522 43.4554 37.7185 43.1269 38.2676Z" fill="#C8102E" stroke="black" stroke-width="0.15"/>
<path d="M43.5781 35.9979C43.5945 35.1574 44.4853 34.625 45.2175 34.8953C45.6889 35.0693 45.4876 35.9029 45.0792 35.6974C44.5343 35.4229 43.9961 35.507 43.5781 35.9979Z" fill="#C8102E" stroke="black" stroke-width="0.15"/>
<path d="M46.621 8.55151C44.5641 9.22179 36.6072 12.2119 35.1458 12.6759C33.6844 13.1399 32.9266 13.2431 32.0605 15.1505" stroke="black" stroke-width="0.15"/>
<path d="M42.7788 6.33447C37.5826 9.53094 33.3605 12.3149 32.1696 14.9443C30.9788 17.5736 31.06 19.1718 28.1641 19.6358" stroke="black" stroke-width="0.15"/>
<path d="M19.8281 24.5852C21.1272 23.1416 23.8335 21.3888 26.4317 21.2858C25.9252 22.0699 25.4904 22.8982 25.1326 23.7604" stroke="black" stroke-width="0.15"/>
<path d="M25.0781 24.7398C25.7278 23.9149 27.3514 22.1621 28.38 21.4403C27.8929 22.8324 27.0809 26.1319 27.514 28.4002C27.7844 26.235 28.9753 22.8839 30.2203 20.9763C31.1406 23.0901 32.3854 26.0804 32.3854 27.988C32.6561 25.7195 32.1149 21.8012 31.3029 20.1C33.5221 21.1825 36.2828 24.2759 37.4736 26.1835C36.6617 23.5025 33.9011 20.2545 32.4395 19.2233C36.0662 19.8421 41.3168 22.0591 43.2652 23.7088C40.0718 20.8733 36.1744 18.6563 33.414 17.6251C37.7442 17.2644 45.8636 18.1923 48.191 19.0688C44.7809 17.2127 37.7442 16.2332 33.5221 16.491C37.9608 14.6865 45.8636 12.6243 52.2507 11.7479C47.379 12.0056 41.1001 13.2431 34.6589 14.635C37.5277 12.7789 46.4048 9.27329 48.5158 8.65454" stroke="black" stroke-width="0.15"/>
<path d="M21.127 7.31419C21.5135 6.09751 23.0907 5.77458 24.3726 5.40881" stroke="black" stroke-width="0.15"/>
<path d="M23.2648 8.21642C22.1824 8.13903 21.9899 7.77265 22.5882 7.36567C22.9671 7.10784 23.7519 6.69539 24.2934 6.64387C24.158 6.61821 23.7791 6.51495 23.5896 6.48929C24.158 6.25728 25.1053 5.92207 25.4299 5.61267" stroke="black" stroke-width="0.15"/>
<path d="M22.0062 6.25732C21.5921 6.29308 21.1573 6.32602 20.7207 6.34705" stroke="black" stroke-width="0.15"/>
<path d="M19.2058 12.3149C18.9417 12.3281 18.679 12.3613 18.4199 12.4142" stroke="black" stroke-width="0.15"/>
<path d="M14.803 25.4573C14.7925 26.1987 15.0593 26.9174 15.5511 27.4724C15.9842 27.9363 18.6366 28.0911 18.7448 27.2145" stroke="black" stroke-width="0.15"/>
<path d="M15.1992 24.3532C16.1194 25.3327 19.0964 24.7398 19.0964 24.0182" stroke="black" stroke-width="0.15"/>
<path d="M15.2539 21.2084C15.5787 21.9817 19.0429 22.6777 19.097 21.7754" stroke="black" stroke-width="0.15"/>
<path d="M15.9844 18.7594C16.0115 19.6617 19.1664 20.2477 19.2593 19.5843" stroke="black" stroke-width="0.15"/>
<path d="M17.041 16.7231C17.1764 17.4191 19.2604 18.0894 19.5581 17.78" stroke="black" stroke-width="0.15"/>
<path d="M17.9336 15.0217C18.0322 15.5106 19.5303 15.9497 20.0446 15.7692" stroke="black" stroke-width="0.15"/>
<path d="M18.6855 13.1375C18.9926 13.4925 19.5883 13.8229 20.6133 13.9906" stroke="black" stroke-width="0.15"/>
<path fill-rule="evenodd" clip-rule="evenodd" d="M13.7986 8.95799C13.6757 9.10521 13.5591 9.24481 13.5473 9.48207L13.4414 9.4768C13.455 9.20321 13.5928 9.03863 13.7147 8.89303C13.7224 8.88381 13.7301 8.87467 13.7376 8.86558C13.8019 8.78831 13.8582 8.7161 13.8947 8.63193C13.9305 8.54931 13.9479 8.453 13.929 8.32734L14.0339 8.31165C14.0556 8.45666 14.0357 8.57302 13.992 8.67406C13.9489 8.77354 13.8835 8.85597 13.8192 8.93335C13.8123 8.9416 13.8055 8.9498 13.7986 8.95799Z" fill="black"/>
<path d="M19.1777 11.6964C19.3672 11.9799 19.8543 12.5728 19.9084 13.0111C20.1791 12.8048 20.3955 12.3664 20.4768 12.1603C20.7353 12.3753 20.9237 12.6625 21.018 12.9852C21.1264 12.6758 21.3159 12.1345 21.3428 11.7994C21.7305 11.8854 22.0922 12.062 22.3983 12.3149C22.4524 11.9799 22.2901 11.5416 22.0194 11.3611C22.3186 11.3735 22.6161 11.3115 22.8855 11.1807C22.696 10.923 22.3983 10.5878 22.1007 10.4332C22.3714 10.3558 22.7501 10.0466 22.9126 9.91767C22.669 9.81463 22.236 9.58245 21.9653 9.45371C22.1276 9.29893 22.263 8.98978 22.3442 8.75757" stroke="black" stroke-width="0.15"/>
<path fill-rule="evenodd" clip-rule="evenodd" d="M14.5323 7.542C14.5669 7.49116 14.6199 7.45459 14.6854 7.45459V7.5606C14.6631 7.5606 14.6399 7.57235 14.62 7.60165C14.5997 7.63142 14.5853 7.6767 14.5846 7.73221C14.5831 7.84199 14.6357 7.98411 14.7851 8.09677L14.7851 8.09678C14.8566 8.15075 14.9047 8.24193 14.9322 8.34335C14.9601 8.44599 14.9687 8.56557 14.956 8.68449C14.9309 8.91978 14.8195 9.16948 14.5846 9.27051L14.5428 9.17312C14.7274 9.09371 14.8274 8.89016 14.8506 8.67324C14.862 8.56607 14.854 8.45982 14.8299 8.37112C14.8055 8.28121 14.7665 8.21555 14.7212 8.18142C14.5458 8.04916 14.4766 7.87553 14.4786 7.7308C14.4795 7.65904 14.4981 7.59237 14.5323 7.542Z" fill="black"/>
<path d="M21.0193 12.9852C19.8287 15.6145 18.7325 20.6025 19.1114 24.2114" stroke="black" stroke-width="0.15"/>
<path d="M20.3965 29.1479C20.3965 29.6893 21.2897 29.7924 21.2625 28.5035" stroke="black" stroke-width="0.15"/>
<path d="M21.1816 29.1479C21.2898 29.6119 22.21 29.715 22.0205 28.3488" stroke="black" stroke-width="0.15"/>
<path d="M20.8027 29.5088C20.8568 30.5141 21.5334 30.4626 21.5875 29.5088" stroke="black" stroke-width="0.15"/>
<path d="M22.0469 28.8127C22.3174 29.4315 23.0752 29.1221 22.8588 27.7559" stroke="black" stroke-width="0.15"/>
<path d="M22.8867 28.3487C23.1846 28.8644 23.8881 28.452 23.9694 27.5497" stroke="black" stroke-width="0.15"/>
<path d="M19.3675 25.4875C18.9031 25.9719 18.3703 27.0593 19.0155 28.0911C19.3946 28.6967 20.4366 29.032 20.5448 28.6711" stroke="black" stroke-width="0.15"/>
<path d="M19.0159 28.0911C18.5964 28.1555 17.9794 29.0119 18.2852 29.8309C18.5018 30.4109 19.7468 30.7591 19.9362 30.3337" stroke="black" stroke-width="0.15"/>
<path d="M31.7363 28.8126C33.0895 28.9674 34.8759 28.091 34.9841 26.338" stroke="black" stroke-width="0.15"/>
<path d="M34.8223 27.163C35.5801 27.627 37.1499 27.7818 37.7993 26.5959" stroke="black" stroke-width="0.15"/>
<path d="M35.5249 27.5238C34.8211 29.0705 34.1836 30.7138 35.633 31.906C36.8239 32.8857 37.7084 31.4253 39.1515 32.8857C39.5845 33.3238 39.0702 34.1487 34.7129 36.5461" stroke="black" stroke-width="0.15"/>
<path d="M13.8739 25.552C14.1582 26.1319 14.1311 27.2662 13.5898 27.1114" stroke="black" stroke-width="0.15"/>
<path d="M9.59766 38.3764C10.5178 37.036 11.6043 38.1191 12.3852 37.8865" stroke="black" stroke-width="0.15"/>
<path d="M16.7831 7.73938C16.6206 8.11321 17.0528 8.6362 17.4597 8.68044C17.9333 8.73196 18.6098 8.43552 18.4611 7.95864" fill="white"/>
<path d="M16.7831 7.73938C16.6206 8.11321 17.0528 8.6362 17.4597 8.68044C17.9333 8.73196 18.6098 8.43552 18.4611 7.95864" stroke="black" stroke-width="0.15"/>
<path d="M16.3086 7.77818C16.5521 7.45587 19.394 8.47415 20.5306 7.75231" stroke="black" stroke-width="0.15"/>
<path d="M7.10765 17.3933C6.99946 17.6251 7.04 18.3083 7.45964 18.6822" stroke="black" stroke-width="0.15"/>
<path d="M27.1895 38.1701C27.4061 37.9125 28.2074 37.6522 28.7998 37.7965C29.3817 37.9381 30.4237 37.7449 31.1002 37.4871" stroke="black" stroke-width="0.15"/>
<path d="M21.0192 12.9852C20.7487 15.5114 21.3576 19.3911 22.9138 21.1182" stroke="black" stroke-width="0.15"/>
<path d="M20.2012 15.2281C20.2457 17.476 20.8236 20.1449 21.9661 21.614" stroke="black" stroke-width="0.15"/>
<path d="M19.5762 17.6779C19.8011 19.379 20.3075 21.0895 21.1078 22.2005" stroke="black" stroke-width="0.15"/>
<path d="M19.1836 20.2598C19.4539 21.2693 19.8345 22.1958 20.3287 22.8926" stroke="black" stroke-width="0.15"/>
<path d="M19.0449 22.7029C19.197 23.0278 19.3774 23.3387 19.584 23.632" stroke="black" stroke-width="0.15"/>
<path d="M20.9637 14.5576C20.8827 15.3568 20.3684 15.9754 19.9082 16.3363" stroke="black" stroke-width="0.15"/>
<path d="M21.0187 15.6663C20.9376 16.4652 20.3693 17.1871 19.625 17.5351" stroke="black" stroke-width="0.15"/>
<path d="M21.1806 16.7745C21.0993 17.5736 20.2873 18.5532 19.3672 18.9913" stroke="black" stroke-width="0.15"/>
<path d="M21.3967 17.8829C21.3157 18.6822 20.2602 19.8936 19.1855 20.2824" stroke="black" stroke-width="0.15"/>
<path d="M21.7362 18.9913C21.425 20.0741 20.18 21.3373 19.084 21.6208" stroke="black" stroke-width="0.15"/>
<path d="M22.223 20.1C22.1418 20.899 20.4774 22.523 19.043 22.987" stroke="black" stroke-width="0.15"/>
<path d="M12.2897 25.0236C12.4656 25.7581 11.8836 26.4284 11.5859 26.2479" stroke="black" stroke-width="0.15"/>
<path d="M15.3898 27.5755C12.575 27.0083 10.4822 26.0634 9.32745 23.8634C9.02959 23.2964 9.81457 23.1416 9.76048 22.6261" stroke="black" stroke-width="0.15"/>
<path d="M8.92099 19.5586C8.43387 18.7337 8.32546 17.8314 8.59616 17.2644" stroke="black" stroke-width="0.15"/>
<path d="M10.869 24.147C10.869 24.6111 10.287 25.2038 10.084 24.9848" stroke="black" stroke-width="0.15"/>
<path d="M15.5508 27.4723C15.2264 28.2228 15.8537 29.6559 17.2304 30.1488" stroke="black" stroke-width="0.15"/>
<path d="M18.2855 29.8309C18.1231 29.9466 18.0051 30.1144 17.9512 30.3064" stroke="black" stroke-width="0.15"/>
<path d="M19.3959 31.3647C19.1522 31.7515 18.2051 31.468 18.0156 31.1327" stroke="black" stroke-width="0.15"/>
<path d="M15.5853 35.5924C14.4377 36.6671 13.2687 36.7277 11.8708 36.8813C10.4633 37.036 10.071 36.4302 9.57031 36.9328" stroke="black" stroke-width="0.15"/>
<path d="M24.754 27.5238C24.9165 28.2457 24.8622 28.9675 24.2127 30.0502C23.8542 30.6475 24.1939 31.2919 24.2556 32.0617" stroke="black" stroke-width="0.15"/>
<path d="M30.9863 29.6117C31.6067 29.1453 32.0162 28.376 32.2241 27.7817" stroke="black" stroke-width="0.15"/>
<path d="M29.0176 29.8934C29.7234 28.9735 29.8336 27.7284 29.3002 26.699" stroke="black" stroke-width="0.15"/>
<path d="M25.7129 31.0202C26.1289 30.4083 26.3778 29.5367 26.3778 28.4003" stroke="black" stroke-width="0.15"/>
<path d="M17.3105 32.6794C17.4188 33.2078 18.2579 33.4399 18.3932 33.1822" stroke="black" stroke-width="0.15"/>
<path d="M24.0225 26.467C24.0225 26.9825 23.4813 27.3693 23.0752 27.0599C23.1293 27.8074 22.5611 28.0396 22.1551 27.6787C22.2363 28.7356 21.3162 28.8386 20.7206 28.0137C20.0441 31.1843 17.7707 33.5559 17.6082 35.1026C17.5541 35.4635 16.1061 35.3604 16.485 34.3036" stroke="black" stroke-width="0.15"/>
<path d="M33.848 29.3799C33.036 29.2833 31.608 29.0457 30.9863 29.6117" stroke="black" stroke-width="0.15"/>
<path d="M34.1721 31.803C33.4217 32.0865 32.8153 32.1861 32.332 32.1524" stroke="black" stroke-width="0.15"/>
<path d="M36.2422 33.9666C36.9901 33.9387 37.7614 33.4651 38.0691 32.2928" stroke="black" stroke-width="0.15"/>
<path d="M34.793 33.3727C35.4205 33.2237 35.9533 32.8114 36.2552 32.2413" stroke="black" stroke-width="0.15"/>
<path d="M38.4749 34.2261C38.0038 34.0843 37.0091 33.8971 36.2422 33.9666" stroke="black" stroke-width="0.15"/>
<path d="M35.7959 35.9533C36.0936 35.7985 35.6065 35.1025 35.1191 35.1025" stroke="black" stroke-width="0.15"/>
<path d="M30.1133 37.1131C30.8024 36.8317 31.4639 36.4865 32.0889 36.0822" stroke="black" stroke-width="0.15"/>
<path d="M33.9961 35.8243C34.3636 35.9411 34.9027 36.3914 34.7132 36.5461" stroke="black" stroke-width="0.15"/>
<path d="M37.4746 26.1835C37.9076 26.9053 38.7194 27.3692 39.802 26.9053C39.8782 27.1227 40.1356 27.3458 40.4559 27.524" stroke="black" stroke-width="0.15"/>
<path d="M43.4557 26.0031C43.9972 26.4155 43.0499 27.9363 41.6426 27.8848" stroke="black" stroke-width="0.15"/>
<path d="M51.0335 35.3089C51.2212 35.7379 51.9267 35.6954 52.1974 35.3089C52.5065 34.8671 53.0634 33.5043 52.7386 30.7718C52.4138 28.0395 49.6533 27.6787 46.4597 27.0599C43.266 26.4413 42.4541 25.4617 41.8047 23.6573" stroke="black" stroke-width="0.15"/>
<path d="M51.5742 33.8911C51.8447 34.3292 52.6026 34.2262 52.7108 33.7878" stroke="black" stroke-width="0.15"/>
<path d="M51.6562 32.4218C52.0623 32.6538 52.8471 32.5764 52.8199 32.0609" stroke="black" stroke-width="0.15"/>
<path d="M51.4395 30.7977C51.7912 30.7977 52.7385 30.8492 52.6844 30.4368" stroke="black" stroke-width="0.15"/>
<path d="M50.5449 29.7409C50.8426 29.5345 51.6817 28.6581 51.2215 28.4003" stroke="black" stroke-width="0.15"/>
<path d="M49.0312 29.5863C49.5453 29.3026 50.1137 27.8333 49.4912 27.7043" stroke="black" stroke-width="0.15"/>
<path d="M46.5664 29.3025C47.3783 28.9931 48.1362 27.3949 47.5949 27.2919" stroke="black" stroke-width="0.15"/>
<path d="M43.9414 28.9416C45.2674 28.6065 45.6735 26.9053 45.1592 26.7505" stroke="black" stroke-width="0.15"/>
<path d="M45.7559 36.5718C47.137 36.6771 47.894 37.371 48.4352 37.6545" stroke="black" stroke-width="0.15"/>
<path d="M45.4316 22.5746C46.69 22.4586 47.9271 24.2916 49.6422 25.6619" stroke="black" stroke-width="0.15"/>
<path d="M59.3066 14.4547C59.5434 13.6561 59.7418 12.9058 59.829 12.4697" stroke="black" stroke-width="0.15"/>
<path d="M46.5371 38.1137C46.8601 38.0627 47.1868 38.0385 47.5139 38.0414" stroke="black" stroke-width="0.15"/>
<path d="M58.7999 11.851C58.6171 12.3444 58.2239 13.3488 57.832 14.3143" stroke="black" stroke-width="0.15"/>
<path d="M24.7571 20.3408C22.3701 21.1247 19.8982 22.6297 18.3125 25.4101C19.1786 25.6162 20.8565 25.4101 21.6144 25.1523C21.6685 25.8225 21.6685 26.699 21.6685 27.2662C22.4263 26.699 23.3465 25.8741 24.0502 25.668C23.9959 26.338 23.9959 27.5238 23.9959 27.988C25.0245 26.9568 26.973 26.8537 27.5144 28.4002C27.9474 26.1319 31.5198 26.0289 32.3858 27.988C33.3603 26.1835 35.8502 25.5131 37.4741 26.1835C38.1776 24.2759 41.2629 23.2449 43.2656 23.7088C42.6018 22.8349 42.7204 21.8685 43.2644 21.038" stroke="black" stroke-width="0.15"/>
<path fill-rule="evenodd" clip-rule="evenodd" d="M17.1183 7.75118C17.0921 7.74656 17.0654 7.75569 17.0475 7.77536C17.0296 7.79504 17.0231 7.8225 17.0301 7.84814C17.1108 8.14063 17.2238 8.3176 17.3625 8.40379C17.5055 8.49265 17.6569 8.47393 17.7838 8.42012C17.9094 8.36688 18.0206 8.27598 18.0984 8.20175C18.1377 8.16414 18.1697 8.12969 18.1919 8.10454C18.203 8.09195 18.2117 8.08163 18.2177 8.07435L18.2247 8.06579L18.2267 8.06338L18.2268 8.06318C18.2362 8.05156 18.2423 8.03714 18.2437 8.02124C18.2472 7.98119 18.2195 7.94511 18.1799 7.93814L17.1183 7.75118Z" fill="black"/>
</g>
<defs>
<clipPath id="clip0_859_128553">
<rect width="66" height="44" fill="white"/>
</clipPath>
</defs>
</svg>
