<svg width="93" height="25" viewBox="0 0 93 25" fill="none" xmlns="http://www.w3.org/2000/svg">
<g clip-path="url(#clip0_796_142453)">
<path d="M64.0903 12.1432L60.9792 15.2862L57.869 12.1432L60.9792 9.01269L64.0903 12.1432ZM78.1644 12.1432L75.4353 14.9022L72.6946 12.1432L75.4353 9.39664L78.1644 12.1432ZM92.2395 12.1432L89.8557 14.5424L87.4719 12.1432L89.8547 9.7449L92.2385 12.1432H92.2395ZM35.9528 12.1432L32.0795 16.0541L28.1946 12.1432L32.0795 8.24575L35.9528 12.1432ZM50.0278 12.1432L46.5115 15.6701L43.0192 12.1432L46.5115 8.62874L50.0278 12.1432ZM0.570259 11.4717C0.705276 9.17921 1.51368 6.97748 2.89423 5.14229C4.27159 3.31253 6.16174 1.93345 8.32456 1.18024C10.4819 0.42898 12.8144 0.338622 15.0235 0.920737C17.2363 1.50517 19.2253 2.73456 20.7374 4.45253C22.2544 6.17603 23.2287 8.30911 23.538 10.5842C23.8489 12.861 23.4818 15.179 22.4826 17.2484C21.4863 19.3129 19.9004 21.0358 17.9253 22.1993C15.9559 23.3589 13.6852 23.9047 11.4039 23.7669C9.88834 23.6741 8.40606 23.2826 7.04234 22.6149C5.67862 21.9472 4.46036 21.0165 3.45762 19.8762C1.42442 17.5652 0.386642 14.5444 0.570259 11.4717ZM9.56807 4.08304C7.71695 4.68382 6.13812 5.92022 5.11112 7.57335C5.5425 7.87569 6.05042 8.05023 6.57652 8.07693C7.06689 8.10179 7.55583 8.00538 8.00006 7.79622C8.44429 7.58707 8.83009 7.27162 9.12334 6.8778C9.41898 6.48316 9.61391 6.02236 9.69125 5.53536C9.76858 5.04836 9.72596 4.54985 9.5671 4.08304H9.56807ZM18.6016 17.0255C19.6095 15.7099 20.199 14.1219 20.2937 12.4673V11.7245C19.6984 11.7631 19.1293 11.984 18.6595 12.3544C18.1906 12.7249 17.8433 13.2294 17.6629 13.8015C17.4833 14.3735 17.4789 14.9862 17.6503 15.5607C17.8217 16.1353 18.1611 16.6454 18.6247 17.0255H18.6016ZM18.9585 7.42961C17.9177 5.79966 16.3354 4.58901 14.49 4.01069C14.407 4.25573 14.3549 4.50944 14.3356 4.76702C14.2895 5.55959 14.5582 6.33832 15.0833 6.93375C15.3426 7.22737 15.6573 7.46682 16.0095 7.63835C16.3616 7.80987 16.7442 7.91007 17.1352 7.93318C17.7887 7.99764 18.4445 7.83699 18.9942 7.47784L18.9585 7.42961ZM11.5698 20.2158C12.7263 20.2811 13.8835 20.1012 14.9656 19.6881C14.7823 19.0726 14.407 18.5334 13.8948 18.1504C13.3837 17.7674 12.7622 17.5605 12.1236 17.5605C11.4849 17.5605 10.8635 17.7674 10.3524 18.1504C9.84108 18.5334 9.46484 19.0726 9.28156 19.6881C10.0244 19.9949 10.8067 20.1898 11.6065 20.2641L11.5698 20.2158ZM8.70948 11.5557L9.75811 14.5665C9.81247 14.7341 9.91969 14.8796 10.0637 14.9812C10.2077 15.0828 10.3807 15.1349 10.5569 15.1299L13.7269 15.0585C13.9025 15.0581 14.0731 15.0004 14.213 14.8942C14.3528 14.788 14.4541 14.6391 14.5016 14.47L15.419 11.4119C15.4664 11.2424 15.4598 11.0624 15.3999 10.8969C15.3401 10.7314 15.2301 10.5887 15.0852 10.4887L12.4873 8.6654C12.3446 8.56377 12.1738 8.50916 11.9986 8.50916C11.8235 8.50916 11.6527 8.56377 11.51 8.6654L8.99599 10.5967C8.8456 10.7108 8.73873 10.8729 8.69311 11.0561C8.64749 11.2393 8.66586 11.4326 8.74518 11.6039L8.70948 11.5557ZM5.26548 16.5692C5.79578 16.2322 6.20601 15.7362 6.43759 15.1521C6.66909 14.5672 6.71123 13.9244 6.55806 13.3144C6.40488 12.7043 6.06414 12.1576 5.58383 11.7515C5.10418 11.3477 4.50858 11.1068 3.88306 11.0637C3.88306 11.1842 3.88306 11.3048 3.82324 11.4235C3.72437 13.271 4.24445 15.0988 5.30118 16.6175L5.26548 16.5692Z" fill="#FF004C"/>
</g>
<defs>
<clipPath id="clip0_796_142453">
<rect width="92.6118" height="24.1176" rx="12.0588" transform="matrix(-1 0 0 1 92.6118 0.400024)" fill="white"/>
</clipPath>
</defs>
</svg>
