<svg width="94" height="25" viewBox="0 0 94 25" fill="none" xmlns="http://www.w3.org/2000/svg">
<g clip-path="url(#clip0_796_142451)">
<path d="M28.9115 12.1432L32.0226 15.2862L35.1328 12.1432L32.0226 9.01269L28.9115 12.1432V12.1432ZM14.8374 12.1432L17.5665 14.9022L20.3072 12.1432L17.5665 9.39664L14.8374 12.1432V12.1432ZM0.762299 12.1432L3.14609 14.5424L5.52987 12.1432L3.14705 9.7449L0.763263 12.1432H0.762299ZM57.049 12.1432L60.9223 16.0541L64.8072 12.1432L60.9223 8.24575L57.049 12.1432V12.1432ZM42.974 12.1432L46.4903 15.6701L49.9826 12.1432L46.4903 8.62874L42.974 12.1432V12.1432ZM92.4315 11.4717C92.2965 9.17921 91.4881 6.97748 90.1076 5.14229C88.7302 3.31253 86.8401 1.93345 84.6772 1.18024C82.5199 0.42898 80.1874 0.338622 77.9783 0.920737C75.7655 1.50517 73.7765 2.73456 72.2644 4.45253C70.7474 6.17603 69.7731 8.30911 69.4638 10.5842C69.1529 12.861 69.52 15.179 70.5192 17.2484C71.5155 19.3129 73.1014 21.0358 75.0765 22.1993C77.0459 23.3589 79.3166 23.9047 81.5979 23.7669C83.1135 23.6741 84.5957 23.2826 85.9595 22.6149C87.3232 21.9472 88.5414 21.0165 89.5442 19.8762C91.5774 17.5652 92.6152 14.5444 92.4315 11.4717V11.4717ZM83.4337 4.08304C85.2848 4.68382 86.8637 5.92022 87.8907 7.57335C87.4593 7.87569 86.9514 8.05023 86.4253 8.07693C85.9349 8.10179 85.446 8.00538 85.0017 7.79622C84.5575 7.58707 84.1717 7.27162 83.8785 6.8778C83.5828 6.48316 83.3879 6.02236 83.3106 5.53536C83.2332 5.04836 83.2758 4.54985 83.4347 4.08304H83.4337ZM74.4002 17.0255C73.3923 15.7099 72.8028 14.1219 72.7081 12.4673V11.7245C73.3034 11.7631 73.8725 11.984 74.3423 12.3544C74.8112 12.7249 75.1585 13.2294 75.3389 13.8015C75.5185 14.3735 75.5229 14.9862 75.3515 15.5607C75.1801 16.1353 74.8407 16.6454 74.3771 17.0255H74.4002ZM74.0433 7.42961C75.0841 5.79966 76.6664 4.58901 78.5118 4.01069C78.5948 4.25573 78.6469 4.50944 78.6662 4.76702C78.7124 5.55959 78.4436 6.33832 77.9185 6.93375C77.6592 7.22737 77.3445 7.46682 76.9923 7.63835C76.6402 7.80987 76.2576 7.91007 75.8666 7.93318C75.2131 7.99764 74.5573 7.83699 74.0076 7.47784L74.0433 7.42961V7.42961ZM81.432 20.2158C80.2755 20.2811 79.1183 20.1012 78.0362 19.6881C78.2195 19.0726 78.5948 18.5334 79.107 18.1504C79.6181 17.7674 80.2396 17.5605 80.8782 17.5605C81.5169 17.5605 82.1383 17.7674 82.6494 18.1504C83.1607 18.5334 83.537 19.0726 83.7202 19.6881C82.9774 19.9949 82.1951 20.1898 81.3953 20.2641L81.432 20.2158ZM84.2923 11.5557L83.2437 14.5665C83.1893 14.7341 83.0821 14.8796 82.9381 14.9812C82.7941 15.0828 82.6211 15.1349 82.4449 15.1299L79.2749 15.0585C79.0993 15.0581 78.9287 15.0004 78.7888 14.8942C78.649 14.788 78.5477 14.6391 78.5002 14.47L77.5828 11.4119C77.5354 11.2424 77.542 11.0624 77.6019 10.8969C77.6617 10.7314 77.7717 10.5887 77.9166 10.4887L80.5145 8.6654C80.6572 8.56377 80.828 8.50916 81.0032 8.50916C81.1783 8.50916 81.3491 8.56377 81.4918 8.6654L84.0058 10.5967C84.1562 10.7108 84.2631 10.8729 84.3087 11.0561C84.3543 11.2393 84.3359 11.4326 84.2566 11.6039L84.2923 11.5557V11.5557ZM87.7363 16.5692C87.206 16.2322 86.7958 15.7362 86.5642 15.1521C86.3327 14.5672 86.2906 13.9244 86.4437 13.3144C86.5969 12.7043 86.9377 12.1576 87.418 11.7515C87.8976 11.3477 88.4932 11.1068 89.1187 11.0637C89.1187 11.1842 89.1187 11.3048 89.1786 11.4235C89.2774 13.271 88.7574 15.0988 87.7006 16.6175L87.7363 16.5692V16.5692Z" fill="#FF004C"/>
</g>
<defs>
<clipPath id="clip0_796_142451">
<rect x="0.390015" y="0.400024" width="92.6118" height="24.1176" rx="12.0588" fill="white"/>
</clipPath>
</defs>
</svg>
