<svg width="12" height="12" viewBox="0 0 12 12" fill="none" xmlns="http://www.w3.org/2000/svg">
<path d="M11.6179 11.6179C11.1083 12.1274 10.2852 12.1274 9.77572 11.6179L6 7.84213L2.22428 11.6179C1.71475 12.1274 0.891671 12.1274 0.382145 11.6179C-0.127382 11.1083 -0.127382 10.2852 0.382145 9.77572L4.15787 6L0.382145 2.22428C-0.127382 1.71475 -0.127382 0.891671 0.382145 0.382145C0.891671 -0.127382 1.71475 -0.127382 2.22428 0.382145L6 4.15787L9.77572 0.382145C10.2852 -0.127382 11.1083 -0.127382 11.6179 0.382145C12.1274 0.891671 12.1274 1.71475 11.6179 2.22428L7.84213 6L11.6179 9.77572C12.1143 10.2722 12.1143 11.1083 11.6179 11.6179Z" fill="#90949C"/>
</svg>
