<svg width="77" height="20" viewBox="0 0 77 20" fill="none" xmlns="http://www.w3.org/2000/svg">
<path d="M32.9657 15.8449C32.4919 15.8449 32.2959 15.2069 32.2959 13.4728C32.2959 12.5731 32.737 12.3441 33.9786 12.3441C34.3054 12.3441 34.5668 12.3441 34.8119 12.3441C34.4198 13.5874 33.8806 15.8449 32.9657 15.8449ZM30.4334 14.6507C30.4334 15.1087 30.4824 15.5013 30.5641 15.8285H23.9637C23.0815 15.8285 22.526 15.6322 22.526 14.8143V12.5568H24.5845C24.7479 12.0496 24.8623 11.5916 24.9276 11.1008H22.5096C22.526 10.4138 22.575 9.79212 22.624 9.07234C21.8398 9.35043 21.219 9.67761 20.7125 10.2502V11.1008H19.6506C19.5689 11.7061 19.5689 12.1641 19.5362 12.5568H20.7125V14.9288C20.7125 16.581 21.7091 17.3008 23.0815 17.3008H32.0508C33.1454 17.3008 33.995 16.4011 34.8119 14.3562V17.3008H36.609V11.1008C35.7921 11.0354 35.0569 10.9863 34.24 10.9863C32.0181 10.9863 30.4334 11.9188 30.4334 14.6507ZM39.8765 13.9636V13.3583C39.8765 12.5731 39.8275 11.886 39.7131 11.1008H37.965C38.014 11.886 38.0794 12.5568 38.0794 13.3583V17.3008H39.8765C39.8765 15.0924 40.579 12.5731 42.4579 12.8512C42.4579 12.4586 42.4088 11.5589 42.2945 10.9863C40.9221 11.1172 40.2523 12.3277 39.8765 13.9636ZM15.0924 15.8449C14.6186 15.8449 14.4225 15.2069 14.4225 13.4728C14.4225 12.5731 14.8636 12.3441 16.1053 12.3441C16.4321 12.3441 16.6935 12.3441 16.9549 12.3441C16.5464 13.5874 16.0073 15.8449 15.0924 15.8449ZM12.56 14.6507C12.56 16.5156 13.2299 17.4153 14.1285 17.4153C15.2394 17.4153 16.1053 16.4338 16.9385 14.3562V17.3008H18.7357V11.1008C17.9188 11.0354 17.1836 10.9863 16.3667 10.9863C14.1448 10.9863 12.56 11.9188 12.56 14.6507ZM71.212 11.7879C71.212 10.2502 70.1501 9.31772 68.2386 9.31772C67.1767 9.31772 66.4088 9.54674 65.935 9.77577C65.6573 10.152 65.5429 10.5937 65.3795 11.2971C66.0984 11.019 66.8009 10.79 67.8465 10.79C68.696 10.79 69.3659 11.1499 69.3659 12.1478C69.3659 13.2111 68.696 13.9963 65.0854 16.0902C65.0854 16.3193 65.1018 16.761 65.1998 17.3335H71.1467C71.3101 16.8264 71.4244 16.3684 71.4898 15.8776H66.4088C68.9411 14.9779 71.212 14.0618 71.212 11.7879ZM8.31227 15.5668L8.21424 15.5177C7.13596 14.9451 5.68191 14.0618 5.68191 12.4586C5.68191 10.9863 6.62949 10.2992 7.75679 10.2992C9.01478 10.2992 9.78265 11.1826 9.78265 12.7367C9.79899 13.8327 9.21084 14.7815 8.31227 15.5668ZM11.7595 17.4153L8.8024 15.8285C10.4852 15.2232 11.7105 14.0127 11.7105 12.3114C11.7105 10.0211 9.99504 8.85967 7.77313 8.85967C5.73093 8.85967 3.78675 10.1684 3.78675 12.6876C3.78675 14.8143 5.40417 16.0903 7.18497 17.0227L12.9031 20C12.8868 18.6913 12.7398 17.9388 11.7595 17.4153ZM53.8778 16.7446C53.3714 16.7446 51.803 15.714 51.803 12.9657C51.803 11.6079 52.5872 10.7736 53.8778 10.7736C55.1685 10.7736 55.9527 11.6243 55.9527 12.9657C55.9691 15.714 54.3843 16.7446 53.8778 16.7446ZM53.8778 9.30136C51.6232 9.30136 49.9405 10.6591 49.9405 12.8512C49.9405 15.7304 52.7015 17.4153 53.8778 17.4153C55.0541 17.4153 57.8152 15.7304 57.8152 12.8512C57.8152 10.6591 56.1324 9.30136 53.8778 9.30136ZM53.9105 12.3768C53.5184 12.6549 53.1753 12.9821 52.8812 13.3583C53.1753 13.7346 53.5184 14.0618 53.9105 14.3399C54.3026 14.0618 54.6457 13.7346 54.9398 13.3583C54.6457 12.9821 54.3026 12.6549 53.9105 12.3768ZM64.2359 11.7879C64.2359 10.2502 63.1739 9.31772 61.2461 9.31772C60.1842 9.31772 59.4163 9.54674 58.9425 9.77577C58.6811 10.152 58.5504 10.5937 58.387 11.2971C59.1059 11.019 59.8084 10.79 60.8703 10.79C61.7199 10.79 62.3897 11.1499 62.3897 12.1478C62.3897 13.2111 61.7199 13.9963 58.1093 16.0902C58.1093 16.3193 58.1256 16.761 58.2236 17.3335H64.1869C64.3502 16.8264 64.4646 16.3684 64.53 15.8776H59.449C61.9813 14.9779 64.2359 14.0618 64.2359 11.7879ZM49.0419 11.7879C49.0419 10.2502 47.98 9.31772 46.0685 9.31772C45.0065 9.31772 44.2387 9.54674 43.7649 9.77577C43.4871 10.152 43.3728 10.5937 43.2094 11.2971C43.9282 11.019 44.6308 10.79 45.6764 10.79C46.5259 10.79 47.1958 11.1499 47.1958 12.1478C47.1958 13.2111 46.5259 13.9963 42.9153 16.0902C42.9153 16.3193 42.9316 16.761 43.0297 17.3335H48.9929C49.1563 16.8264 49.2706 16.3684 49.336 15.8776H44.255C46.7873 14.9779 49.0419 14.0618 49.0419 11.7879Z" fill="#9A1033"/>
<path d="M64.4015 6.65794C64.1401 6.72337 63.8624 6.78881 63.5683 6.83788C63.2579 6.90332 62.8821 6.91968 62.4247 6.91968C61.9836 6.91968 61.5261 6.85424 61.0686 6.73973C60.6112 6.62522 60.2028 6.42891 59.8433 6.15081C59.4839 5.88907 59.1735 5.52918 58.9448 5.08749C58.716 4.64581 58.6017 4.12233 58.6017 3.48434C58.6017 2.91178 58.6997 2.38829 58.8957 1.96297C59.0918 1.52128 59.3532 1.16139 59.6963 0.866932C60.0394 0.572474 60.4478 0.35981 60.9053 0.212581C61.3791 0.0653524 61.8855 -8.58307e-05 62.4247 -8.58307e-05C62.7678 -8.58307e-05 63.1108 0.0326328 63.4213 0.0980678C63.748 0.163503 64.0748 0.245297 64.4015 0.34345L64.2545 1.78302C63.9604 1.61944 63.6827 1.50492 63.4049 1.42313C63.1272 1.34134 62.8331 1.30862 62.5227 1.30862C62.1959 1.30862 61.9182 1.35769 61.6568 1.4722C61.3954 1.58672 61.183 1.73395 61.0033 1.91389C60.8236 2.1102 60.6765 2.33922 60.5785 2.60096C60.4805 2.8627 60.4315 3.15716 60.4315 3.46798C60.4315 3.79515 60.4805 4.08961 60.5949 4.35135C60.7092 4.61309 60.8563 4.82575 61.0523 5.02206C61.2484 5.20201 61.4771 5.34923 61.7548 5.43103C62.0326 5.52918 62.3266 5.57826 62.6534 5.57826C62.9475 5.57826 63.2415 5.54554 63.5193 5.4801C63.8134 5.41467 64.0748 5.33287 64.3198 5.23472L64.4015 6.65794Z" fill="#9A1033"/>
<path d="M70.801 4.26089C70.801 4.71894 70.7356 5.11154 70.5886 5.45508C70.4415 5.78225 70.2455 6.06035 69.9841 6.27302C69.7227 6.48568 69.4123 6.64927 69.0528 6.76378C68.6934 6.87829 68.3013 6.92737 67.8602 6.92737C67.4354 6.92737 67.027 6.87829 66.6676 6.76378C66.3081 6.66563 65.9977 6.50204 65.7363 6.27302C65.4749 6.06035 65.2789 5.78225 65.1318 5.45508C64.9848 5.1279 64.9194 4.7353 64.9194 4.26089V0.122119H66.7002V3.96643C66.7002 4.19545 66.7166 4.39176 66.7492 4.58807C66.7819 4.78437 66.8473 4.94796 66.929 5.11154C67.0106 5.25877 67.125 5.37329 67.272 5.47144C67.4191 5.55323 67.5988 5.60231 67.8275 5.60231C68.0562 5.60231 68.2523 5.55323 68.3993 5.47144C68.5464 5.38964 68.6607 5.27513 68.7424 5.11154C68.8241 4.96431 68.8895 4.78437 68.9221 4.58807C68.9548 4.39176 68.9712 4.17909 68.9712 3.96643V0.122119H70.752V4.26089H70.801Z" fill="#9A1033"/>
<path d="M73.4671 3.21088H73.9246C74.0716 3.21088 74.2186 3.19453 74.3494 3.16181C74.4801 3.12909 74.5944 3.08001 74.6924 3.01457C74.7905 2.94914 74.8722 2.85099 74.9212 2.72012C74.9702 2.60561 75.0029 2.45838 75.0029 2.27843C75.0029 2.09848 74.9702 1.96762 74.9212 1.8531C74.8558 1.73859 74.7905 1.64044 74.6924 1.575C74.5944 1.50957 74.4801 1.46049 74.3494 1.42777C74.2186 1.39506 74.0716 1.3787 73.9246 1.3787H73.4671V3.21088ZM71.6863 0.119072H73.8102C74.8395 0.119072 75.591 0.299016 76.0811 0.64255C76.5713 1.00244 76.8 1.54229 76.8 2.31115C76.8 2.98186 76.5713 3.5217 76.0975 3.89795C75.6237 4.2742 74.9865 4.47051 74.1533 4.47051H73.4671V6.80981H71.6863V0.119072Z" fill="#9A1033"/>
<path d="M21.5241 0.121766H23.3376L24.2035 5.25842H24.2198L25.1184 0.121766H27.373L28.3042 5.25842H28.3206L29.1865 0.121766H30.9182L29.4315 6.79614H27.1443L26.1967 1.65949H26.1803L25.2981 6.79614H22.9945L21.5241 0.121766Z" fill="#9A1033"/>
<path d="M32.8151 3.45931C32.8151 3.73741 32.8478 3.99915 32.8968 4.26089C32.9458 4.52263 33.0438 4.75166 33.1582 4.94796C33.2726 5.14427 33.4359 5.30785 33.632 5.42236C33.828 5.53688 34.0568 5.60231 34.3182 5.60231C34.5796 5.60231 34.8083 5.53688 35.0043 5.42236C35.2004 5.30785 35.3474 5.14427 35.4781 4.94796C35.5925 4.75166 35.6905 4.52263 35.7395 4.26089C35.7886 3.99915 35.8212 3.73741 35.8212 3.45931C35.8212 3.18121 35.7886 2.90311 35.7395 2.64137C35.6742 2.37963 35.5925 2.15061 35.4781 1.9543C35.3638 1.758 35.2004 1.61077 35.0043 1.49626C34.8083 1.38175 34.5796 1.33267 34.3182 1.33267C34.0568 1.33267 33.828 1.38175 33.632 1.49626C33.4359 1.61077 33.2889 1.77436 33.1582 1.9543C33.0438 2.15061 32.9458 2.37963 32.8968 2.64137C32.8478 2.90311 32.8151 3.18121 32.8151 3.45931ZM30.9853 3.45931C30.9853 2.91947 31.0506 2.44507 31.1977 2.01974C31.3447 1.59441 31.5571 1.23452 31.8349 0.940063C32.1126 0.645606 32.472 0.416581 32.8805 0.252993C33.3052 0.0894055 33.779 0.00761175 34.3345 0.00761175C34.8736 0.00761175 35.3638 0.0894055 35.7886 0.252993C36.2133 0.416581 36.5564 0.645606 36.8342 0.940063C37.1119 1.23452 37.3243 1.59441 37.4713 2.01974C37.6184 2.44507 37.6837 2.93583 37.6837 3.45931C37.6837 3.98279 37.6184 4.47355 37.4713 4.89888C37.3243 5.32421 37.1119 5.6841 36.8342 5.99492C36.5564 6.28938 36.197 6.5184 35.7886 6.68199C35.3801 6.84557 34.89 6.92737 34.3508 6.92737C33.7954 6.92737 33.3216 6.84557 32.9131 6.68199C32.5047 6.5184 32.1453 6.28938 31.8675 5.99492C31.5898 5.70046 31.3774 5.32421 31.2304 4.89888C31.067 4.47355 30.9853 3.99915 30.9853 3.45931Z" fill="#9A1033"/>
<path d="M40.1221 2.90104H40.5959C40.7429 2.90104 40.89 2.90104 41.037 2.88468C41.2004 2.86832 41.3311 2.85196 41.4618 2.78653C41.5925 2.73745 41.6905 2.65566 41.7722 2.55751C41.8539 2.45935 41.9029 2.31212 41.9029 2.11582C41.9029 1.96859 41.8702 1.83772 41.7885 1.73957C41.7232 1.64141 41.6252 1.55962 41.5108 1.51055C41.3964 1.46147 41.2494 1.42875 41.1024 1.41239C40.939 1.39603 40.7756 1.37967 40.6122 1.37967H40.1384V2.90104H40.1221ZM38.3413 0.120049H41.5108C41.8049 0.120049 42.0826 0.152767 42.344 0.218203C42.6054 0.283638 42.8341 0.398148 43.0302 0.529018C43.2263 0.676248 43.3896 0.839832 43.4877 1.0525C43.602 1.26516 43.651 1.51054 43.651 1.805C43.651 2.24669 43.553 2.62294 43.3406 2.90104C43.1282 3.17914 42.8015 3.37545 42.3767 3.48996V3.50631C42.5237 3.53903 42.6218 3.60447 42.7198 3.68626C42.8015 3.76806 42.8832 3.86621 42.9485 3.99708C43.0139 4.12795 43.0629 4.25882 43.1282 4.42241C43.1772 4.586 43.2589 4.76594 43.3406 4.97861L43.9941 6.79443H42.148L41.7722 5.58388C41.6905 5.28942 41.5925 5.0604 41.5271 4.88046C41.4455 4.70051 41.3638 4.55328 41.2657 4.43877C41.1677 4.32426 41.0697 4.25882 40.9553 4.20975C40.841 4.16067 40.6939 4.14431 40.5305 4.14431H40.1548V6.81079H38.374V0.120049H38.3413Z" fill="#9A1033"/>
<path d="M44.7443 0.121758H46.5251V5.48744H49.2698V6.8125H44.7443V0.121758Z" fill="#9A1033"/>
<path d="M51.6749 5.48207H52.3611C53.031 5.48207 53.5374 5.31848 53.8968 4.97494C54.2563 4.63141 54.436 4.14064 54.436 3.46993C54.436 2.79922 54.2563 2.2921 53.8968 1.96493C53.5374 1.62139 53.031 1.4578 52.3611 1.4578H51.6749V5.48207ZM49.8941 0.116381H52.3284C52.9166 0.116381 53.4394 0.165456 53.9295 0.263609C54.4196 0.361762 54.8281 0.541712 55.1712 0.803452C55.5143 1.04883 55.792 1.39237 55.9881 1.81769C56.1841 2.24302 56.2821 2.78287 56.2821 3.42086C56.2821 4.04249 56.1841 4.56597 55.9881 5.00766C55.792 5.43299 55.5143 5.77653 55.1712 6.03827C54.8281 6.30001 54.4033 6.49631 53.9132 6.61082C53.4231 6.72534 52.9003 6.79077 52.3284 6.79077H49.8941V0.116381Z" fill="#9A1033"/>
<path fill-rule="evenodd" clip-rule="evenodd" d="M0 0.121766V6.79614H2.07488V4.39141H3.57794L4.11708 2.93547H2.07488V1.5777H4.59087L5.11367 0.121766H0Z" fill="#9A1033"/>
<path fill-rule="evenodd" clip-rule="evenodd" d="M5.75156 6.80811H7.82644V0.133715H5.75156V6.80811Z" fill="#9A1033"/>
<path fill-rule="evenodd" clip-rule="evenodd" d="M9.26362 0.121766V6.79614H11.3385V4.39141H12.8252L13.3644 2.93547H11.3385V1.5777H13.8545L14.3773 0.121766H9.26362Z" fill="#9A1033"/>
<path fill-rule="evenodd" clip-rule="evenodd" d="M17.6176 4.61651L16.7844 1.83552L15.9839 4.61651H17.6176ZM20.3297 6.80859H18.2385L17.9607 5.90886H15.6245L15.3631 6.80859H13.3209L15.7552 0.134203H17.9117L20.3297 6.80859Z" fill="#9A1033"/>
</svg>
