<svg width="100" height="100" viewBox="0 0 100 100" fill="none" xmlns="http://www.w3.org/2000/svg">
<rect x="1" y="1" width="98" height="98" rx="49" fill="#334155" stroke="white" stroke-width="2"/>
<mask id="mask0_794_140769" style="mask-type:alpha" maskUnits="userSpaceOnUse" x="5" y="5" width="90" height="90">
<rect x="5.69232" y="5.69238" width="88.6154" height="88.6154" rx="44.3077" fill="#334155"/>
</mask>
<g mask="url(#mask0_794_140769)">
<path d="M94.3077 5.69238H50V94.3078H94.3077V5.69238Z" fill="#FF0000"/>
<path d="M50 5.69238H5.69232V94.3078H50V5.69238Z" fill="#006600"/>
<path fill-rule="evenodd" clip-rule="evenodd" d="M71.4761 66.7517C63.2962 66.5053 25.7865 43.0919 25.5293 39.3634L27.6006 35.9092C31.3212 41.3154 69.6673 64.0854 73.4337 63.2785L71.4761 66.7506" fill="#FFFF00"/>
<path fill-rule="evenodd" clip-rule="evenodd" d="M27.5989 35.8322C27.6253 35.8314 27.6503 35.844 27.6652 35.8657C28.1232 36.5312 29.121 37.472 30.5332 38.6106C31.9431 39.7474 33.7591 41.0759 35.8468 42.5165C40.022 45.3976 45.2802 48.7245 50.5404 51.8576C55.8007 54.9908 61.0616 57.9293 65.2422 60.0339C67.3326 61.0863 69.1516 61.9295 70.5646 62.4842C71.2713 62.7616 71.8747 62.9662 72.359 63.0888C72.8468 63.2124 73.2019 63.2495 73.4182 63.2032C73.448 63.1968 73.4789 63.2085 73.4969 63.2331C73.515 63.2576 73.517 63.2905 73.502 63.3171L71.5488 66.7814C71.5369 66.8106 71.5079 66.8307 71.4746 66.8297C70.4386 66.7985 68.9478 66.4017 67.1376 65.7303C65.3253 65.058 63.1856 64.1074 60.8488 62.9628C56.1752 60.6735 50.7095 57.606 45.4921 54.4301C40.2748 51.2542 35.3043 47.969 31.6213 45.244C29.7801 43.8817 28.2591 42.6583 27.1897 41.6578C26.6551 41.1577 26.2317 40.7117 25.9372 40.3307C25.6456 39.9533 25.4705 39.6273 25.4527 39.3693C25.4516 39.3534 25.4554 39.3376 25.4635 39.324L27.5348 35.8698C27.5484 35.8472 27.5725 35.833 27.5989 35.8322ZM71.4318 66.673L73.2912 63.3752C73.0454 63.389 72.7171 63.3396 72.3209 63.2392C71.8278 63.1143 71.2176 62.9072 70.5079 62.6286C69.0885 62.0714 67.2647 61.2258 65.1724 60.1725C60.9875 58.0657 55.7232 55.1252 50.461 51.9909C45.1988 48.8566 39.9375 45.5278 35.7587 42.6442C33.6694 41.2025 31.8498 39.8715 30.4358 38.7314C29.0898 37.6462 28.105 36.729 27.6069 36.0513L25.6096 39.3821C25.633 39.5885 25.7807 39.8744 26.06 40.2358C26.3472 40.6075 26.764 41.0471 27.2957 41.5445C28.3588 42.5391 29.8743 43.7584 31.7136 45.1193C35.3917 47.8407 40.3581 51.1233 45.5728 54.2976C50.7875 57.4719 56.249 60.5369 60.9171 62.8235C63.2512 63.9668 65.3859 64.9149 67.1916 65.5848C68.9714 66.245 70.4244 66.6321 71.4318 66.673Z" fill="black"/>
<path fill-rule="evenodd" clip-rule="evenodd" d="M27.1653 35.4407C26.4315 37.4156 36.9533 43.9206 49.6128 51.6202C62.2718 59.3193 73.1873 64.0772 73.9964 63.3949C74.0458 63.3068 74.3945 62.7069 74.3625 62.7117C74.2108 62.9402 73.8417 63.0124 73.2657 62.8464C69.8456 61.8599 60.9254 57.7654 49.8783 51.0663C38.8315 44.3666 29.2203 38.1928 27.7264 35.5696C27.6225 35.3879 27.5485 35.0562 27.5636 34.7983L27.5273 34.7977L27.2092 35.3537L27.1655 35.4408H27.1653L27.1653 35.4407ZM71.6689 66.8608C71.5301 67.1124 71.2715 67.1208 70.7803 67.0668C67.7206 66.7282 58.4362 62.2133 47.4503 55.6368C34.6673 47.9849 24.11 41.0126 25.2554 39.1903L25.567 38.6394L25.6284 38.6585C24.5985 41.7466 46.4635 54.2489 47.7507 55.046C60.4022 62.884 71.068 67.4611 72.0119 66.2716L71.6685 66.8621V66.8616L71.6689 66.8608Z" fill="#FFFF00"/>
<path fill-rule="evenodd" clip-rule="evenodd" d="M27.4608 34.7598C27.4748 34.7352 27.501 34.7203 27.5293 34.7207L27.5656 34.7213C27.5867 34.7216 27.6068 34.7305 27.6212 34.746C27.6356 34.7615 27.6431 34.7822 27.6419 34.8033C27.6276 35.0483 27.6992 35.3647 27.7946 35.5317C28.1602 36.1736 29.0304 37.0434 30.3144 38.0961C31.5956 39.1464 33.2802 40.3719 35.2646 41.7258C39.2332 44.4333 44.3962 47.6508 49.9194 51.0005C60.9652 57.6988 69.8783 61.7889 73.2882 62.7724C73.57 62.8536 73.7947 62.8745 73.9633 62.8507C74.1309 62.8271 74.2383 62.7605 74.2988 62.6694C74.3109 62.6511 74.3302 62.6388 74.3519 62.6356C74.3658 62.6335 74.3876 62.6342 74.4084 62.6484C74.4286 62.6622 74.4369 62.6812 74.4401 62.6928C74.4454 62.712 74.4421 62.7286 74.4413 62.7327L74.4413 62.733C74.4389 62.7451 74.4342 62.7574 74.4308 62.7659C74.4229 62.7852 74.4105 62.811 74.3958 62.8398C74.3662 62.8981 74.3234 62.9765 74.2787 63.0568C74.217 63.1675 74.1486 63.2871 74.1051 63.3632C74.0862 63.3962 74.072 63.4211 74.065 63.4334C74.0605 63.4415 74.0545 63.4488 74.0474 63.4548C73.9747 63.5161 73.8604 63.5371 73.7297 63.5378C73.5948 63.5386 73.4241 63.5177 73.2214 63.4773C72.8155 63.3964 72.2693 63.2351 71.6005 62.9994C70.2622 62.5278 68.4237 61.7552 66.2164 60.7214C61.8012 58.6535 55.9051 55.5379 49.5734 51.6871C43.2442 47.8376 37.4468 44.2852 33.3235 41.4482C31.2622 40.0299 29.6162 38.7884 28.5308 37.7764C27.9885 37.2708 27.5827 36.8193 27.3352 36.4292C27.0901 36.0426 26.9884 35.6969 27.0934 35.4142C27.0952 35.4094 27.0974 35.4049 27.1 35.4007L27.1407 35.3195C27.1413 35.3182 27.142 35.3169 27.1427 35.3157L27.4608 34.7598ZM27.2367 35.4742C27.1617 35.6847 27.2293 35.9724 27.4663 36.3461C27.7033 36.7198 28.098 37.1607 28.6366 37.6629C29.7133 38.6668 31.3515 39.903 33.4114 41.3203C37.5304 44.1544 43.3238 47.7044 49.6541 51.5545C55.9814 55.4027 61.8725 58.5156 66.2822 60.5809C68.4872 61.6137 70.3205 62.3839 71.652 62.8531C72.3181 63.0878 72.8564 63.2464 73.2517 63.3251C73.4496 63.3646 73.6088 63.3834 73.7288 63.3827C73.8408 63.382 73.9053 63.3643 73.9378 63.3432C73.9466 63.3277 73.9589 63.3061 73.9738 63.2802C74.017 63.2046 74.0816 63.0918 74.1432 62.9813C74.1465 62.9753 74.1498 62.9694 74.1531 62.9635C74.1016 62.9822 74.0454 62.9958 73.985 63.0044C73.7872 63.0323 73.5393 63.0062 73.2452 62.9215C69.8148 61.932 60.8874 57.8331 49.839 51.1332C44.3154 47.7832 39.1493 44.564 35.1771 41.8539C33.1911 40.499 31.5023 39.2705 30.2161 38.216C28.9327 37.164 28.0413 36.2783 27.6599 35.6087M27.2367 35.4742L27.2784 35.3909L27.4924 35.017C27.5133 35.2353 27.5768 35.4632 27.6599 35.6087M25.5003 38.6018C25.5183 38.57 25.5561 38.555 25.5909 38.5659L25.6523 38.585C25.6722 38.5912 25.6888 38.6052 25.6983 38.6237C25.7078 38.6423 25.7094 38.6638 25.7028 38.6836C25.6464 38.8527 25.6657 39.0624 25.7659 39.3146C25.866 39.5664 26.0438 39.8528 26.2923 40.1692C26.7892 40.802 27.5591 41.5427 28.5203 42.351C30.4418 43.9667 33.1155 45.8419 35.8641 47.6471C40.3371 50.5849 44.9989 53.3312 46.9302 54.469C47.3726 54.7297 47.6718 54.9059 47.7925 54.9806C54.116 58.8982 59.9423 62.0003 64.3046 63.974C66.4861 64.961 68.2993 65.6649 69.6245 66.0477C70.2876 66.2392 70.8248 66.3493 71.2234 66.3754C71.4227 66.3885 71.5837 66.3802 71.7068 66.3525C71.8304 66.3248 71.9082 66.2792 71.9521 66.2239C71.9774 66.1921 72.023 66.1852 72.0566 66.2081C72.0902 66.231 72.1004 66.276 72.0799 66.3112L71.7365 66.9017C71.7354 66.9036 71.7342 66.9055 71.733 66.9073C71.6513 67.0502 71.5323 67.1253 71.372 67.1553C71.2157 67.1845 71.0173 67.1714 70.7728 67.1445C69.9971 67.0587 68.835 66.7097 67.3619 66.1357C65.8869 65.561 64.0941 64.7584 62.0545 63.7613C57.9753 61.767 52.9057 58.993 47.4114 55.704C41.0196 51.8778 35.1822 48.2204 31.0855 45.2911C29.0376 43.8268 27.4216 42.5423 26.3885 41.5082C25.8724 40.9916 25.4978 40.5335 25.2884 40.1436C25.081 39.7573 25.0246 39.4154 25.1896 39.1512L25.5003 38.6018ZM71.6071 66.8156L71.7967 66.4896C71.7786 66.4949 71.76 66.4996 71.7409 66.5039C71.5979 66.5361 71.4206 66.5438 71.2132 66.5302C70.7984 66.5031 70.2487 66.3895 69.5814 66.1967C68.2459 65.8109 66.425 65.1037 64.2406 64.1154C59.8711 62.1384 54.0388 59.0329 47.7108 55.1126C47.5922 55.0391 47.2962 54.8647 46.8577 54.6064C44.9322 53.4721 40.258 50.7185 35.7789 47.7768C33.029 45.9708 30.3491 44.0915 28.4204 42.4697C27.4564 41.6591 26.677 40.9103 26.1703 40.2651C25.917 39.9426 25.7294 39.6429 25.6217 39.3719C25.554 39.2015 25.5167 39.0394 25.5164 38.8885L25.322 39.2322C25.2019 39.4233 25.2249 39.6972 25.4251 40.0702C25.6238 40.4402 25.9859 40.8857 26.4983 41.3985C27.522 42.4233 29.1295 43.7018 31.1757 45.1649C35.267 48.0903 41.0998 51.7451 47.4911 55.5709C52.9827 58.8583 58.0483 61.63 62.1226 63.6219C64.1599 64.6179 65.9485 65.4185 67.4182 65.9911C68.8897 66.5645 70.0356 66.9068 70.7898 66.9903C71.0364 67.0174 71.2129 67.0271 71.3435 67.0027C71.4668 66.9797 71.545 66.9271 71.6019 66.8239C71.6035 66.821 71.6052 66.8182 71.6071 66.8156Z" fill="black"/>
<path fill-rule="evenodd" clip-rule="evenodd" d="M50.3379 41.6218C58.5252 41.5571 68.6284 40.503 74.4426 38.1857L73.1899 36.1504C69.7533 38.0525 59.5946 39.3033 50.2687 39.4904C39.2387 39.3889 31.453 38.3618 27.552 35.7443L26.3695 37.9116C33.5406 40.9461 40.889 41.5906 50.338 41.622" fill="#FFFF00"/>
<path fill-rule="evenodd" clip-rule="evenodd" d="M27.533 35.6693C27.5542 35.6642 27.5765 35.6681 27.5947 35.6803C29.531 36.9796 32.4393 37.8885 36.2484 38.4846C40.0556 39.0804 44.7549 39.3624 50.2677 39.4132C54.9277 39.3197 59.7953 38.9604 63.9265 38.3871C65.9923 38.1004 67.873 37.7603 69.451 37.3735C71.0303 36.9863 72.3017 36.5535 73.1517 36.083C73.188 36.0629 73.2336 36.0749 73.2554 36.1102L74.5081 38.1455C74.5201 38.165 74.5229 38.1888 74.5157 38.2106C74.5085 38.2323 74.492 38.2497 74.4707 38.2582C68.6438 40.5806 58.5317 41.6346 50.3435 41.6998C50.3414 41.6999 50.3393 41.7 50.3372 41.7C40.8856 41.6686 33.5244 41.0242 26.3387 37.9835C26.3185 37.975 26.3029 37.9583 26.2957 37.9376C26.2885 37.9169 26.2903 37.8941 26.3008 37.8749L27.4833 35.7075C27.4938 35.6884 27.5118 35.6745 27.533 35.6693ZM50.3321 41.5448C50.3337 41.5447 50.3352 41.5447 50.3367 41.5447C58.4819 41.4803 68.514 40.4361 74.3275 38.1481L73.1618 36.2542C72.295 36.7208 71.0324 37.1456 69.488 37.5242C67.9033 37.9127 66.017 38.2536 63.9478 38.5408C59.8094 39.1151 54.9352 39.4747 50.2697 39.5683L50.2674 39.5684V39.5684C44.7507 39.5176 40.0425 39.2354 36.2244 38.6379C32.4534 38.0478 29.543 37.1491 27.579 35.8562L26.4781 37.8739C33.6081 40.8731 40.923 41.5133 50.3321 41.5448Z" fill="black"/>
<path fill-rule="evenodd" clip-rule="evenodd" d="M74.7797 38.2316C74.5796 38.5516 70.7877 39.8593 65.2017 40.8243C61.4142 41.4017 56.4738 41.8953 50.3084 41.9013C44.4508 41.9068 39.6658 41.4899 36.0432 40.9989C30.1794 40.0795 27.153 38.8002 26.0342 38.3482C26.1412 38.1354 26.2099 37.9861 26.3131 37.7874C29.5339 39.0698 32.5744 39.8431 36.1363 40.3911C39.7351 40.8785 44.4625 41.3014 50.2911 41.2959C56.4278 41.2897 61.3138 40.7586 65.0794 40.1984C70.8075 39.2745 73.9365 38.0855 74.376 37.5334L74.7805 38.2316H74.78H74.7797ZM73.6803 36.1677C73.0594 36.6663 69.9659 37.7633 64.5231 38.6326C60.8908 39.1532 56.2722 39.6191 50.3714 39.6248C44.7654 39.6303 40.1853 39.2525 36.7016 38.7451C31.1741 38.0232 28.2322 36.7209 27.1716 36.3413C27.2771 36.1588 27.3846 35.9778 27.4949 35.7961C28.3202 36.2116 31.1592 37.3641 36.7623 38.1578C40.2065 38.6462 44.7936 39.0101 50.3717 39.0044C56.2447 38.9984 60.8106 38.5235 64.42 38.0057C69.8909 37.253 72.8347 35.8539 73.2817 35.5035L73.6805 36.1672V36.1677L73.6803 36.1677Z" fill="#FFFF00"/>
<path fill-rule="evenodd" clip-rule="evenodd" d="M73.2963 35.4277C73.3181 35.4317 73.3372 35.4449 73.3487 35.464L73.7475 36.1276C73.7547 36.1397 73.7585 36.1535 73.7585 36.1676V36.1681C73.7585 36.1916 73.7479 36.2138 73.7297 36.2285C73.7281 36.2298 73.7266 36.2309 73.7249 36.2321C73.5589 36.3638 73.2414 36.5281 72.7824 36.7133C72.317 36.9011 71.6994 37.1129 70.932 37.3361C69.3971 37.7824 67.2598 38.2746 64.5358 38.7096L64.5346 38.7098C60.8992 39.2308 56.277 39.6971 50.3719 39.7028C44.7628 39.7083 40.1791 39.3303 36.6914 38.8223C31.7994 38.1834 28.9272 37.09 27.5939 36.5825C27.4183 36.5156 27.2693 36.4589 27.1459 36.4147C27.1243 36.407 27.1072 36.39 27.0992 36.3684C27.0913 36.3468 27.0934 36.3228 27.1049 36.3029C27.2108 36.1199 27.3185 35.9384 27.4291 35.7563C27.4501 35.7217 27.4942 35.709 27.5303 35.7272C28.3462 36.138 31.1766 37.2886 36.7736 38.0815L36.7736 38.0815C40.2138 38.5693 44.7973 38.933 50.3721 38.9273C56.2407 38.9213 60.8029 38.4467 64.4094 37.9294L64.4099 37.9293C67.1408 37.5536 69.2399 37.0166 70.7109 36.5305C71.4465 36.2874 72.0247 36.0571 72.4463 35.8662C72.87 35.6743 73.1304 35.5243 73.2343 35.4429C73.2518 35.4292 73.2744 35.4236 73.2963 35.4277ZM73.5785 36.1477L73.2589 35.6159C73.1165 35.7108 72.8658 35.8465 72.5103 36.0075C72.0832 36.201 71.4997 36.4332 70.7596 36.6778C69.2793 37.167 67.1711 37.706 64.4313 38.083C60.8191 38.6011 56.2495 39.0764 50.3722 39.0824C44.7908 39.0881 40.2 38.724 36.7519 38.2351C31.2789 37.4597 28.435 36.3419 27.5248 35.8977C27.4437 36.0319 27.3642 36.1659 27.2857 36.3005C27.3907 36.3391 27.5111 36.3849 27.6475 36.4369C28.9798 36.944 31.838 38.032 36.7121 38.6686L36.7133 38.6687L36.7133 38.6687C40.1929 39.1756 44.7692 39.5532 50.3718 39.5477C56.2681 39.5419 60.8827 39.0764 64.512 38.5563C67.2304 38.1221 69.3611 37.6312 70.8887 37.1871C71.6526 36.965 72.265 36.7547 72.7243 36.5694C73.1353 36.4036 73.4185 36.2598 73.5785 36.1477ZM74.3821 37.4564C74.4077 37.4583 74.4307 37.4727 74.4436 37.4949L74.8481 38.1932C74.862 38.2172 74.862 38.2468 74.8482 38.2708C74.8454 38.2757 74.842 38.2802 74.8383 38.2843C74.816 38.3144 74.7817 38.3421 74.7447 38.3674C74.7008 38.3973 74.6439 38.4299 74.5755 38.4648C74.4385 38.5348 74.2494 38.617 74.0127 38.7088C73.5391 38.8925 72.8695 39.1168 72.0326 39.361C70.3584 39.8494 68.0111 40.4182 65.2154 40.9012L65.2139 40.9014C61.4228 41.4794 56.4785 41.9734 50.3089 41.9793C44.4476 41.9848 39.6591 41.5676 36.0332 41.0762L36.0316 41.076L36.0316 41.076C30.3594 40.1866 27.3368 38.9605 26.1266 38.4695C26.0841 38.4523 26.0437 38.4359 26.0056 38.4205C25.9855 38.4124 25.9697 38.3962 25.9621 38.376C25.9544 38.3557 25.9556 38.3331 25.9654 38.3137C26.0084 38.228 26.0458 38.1517 26.0819 38.0778C26.1341 37.9711 26.1838 37.8694 26.2447 37.7521C26.2631 37.7168 26.3053 37.7011 26.3423 37.7158C29.5566 38.9956 32.5911 39.7675 36.1479 40.3148C39.7435 40.8017 44.4671 41.2243 50.2915 41.2188C56.4233 41.2126 61.3053 40.682 65.068 40.1222C67.9291 39.6607 70.1395 39.1332 71.6884 38.6528C72.463 38.4125 73.071 38.1844 73.5117 37.9827C73.7321 37.8818 73.9095 37.788 74.0445 37.7032C74.1808 37.6176 74.269 37.5442 74.3157 37.4855C74.3317 37.4654 74.3566 37.4545 74.3821 37.4564ZM74.6841 38.2197L74.3611 37.6621C74.3005 37.7175 74.2217 37.7751 74.127 37.8346C73.9844 37.9242 73.8005 38.0211 73.5763 38.1237C73.1276 38.3291 72.513 38.5595 71.7344 38.801C70.177 39.2841 67.959 39.813 65.0922 40.2754L65.0913 40.2756C61.3228 40.8362 56.4329 41.3678 50.2916 41.374C44.4592 41.3795 39.7283 40.9562 36.1264 40.4684L36.125 40.4682L36.125 40.4682C32.5824 39.9232 29.5532 39.1553 26.3504 37.886C26.3042 37.9764 26.2646 38.0575 26.2228 38.143C26.1972 38.1953 26.1708 38.2494 26.1416 38.3082C26.1558 38.314 26.1704 38.3199 26.1852 38.3259C27.3898 38.8146 30.4003 40.0359 36.0549 40.9226C39.6741 41.4131 44.4554 41.8297 50.3088 41.8242C56.4696 41.8182 61.4059 41.325 65.1898 40.7482C67.9797 40.2662 70.321 39.6987 71.9891 39.212C72.8234 38.9687 73.4885 38.7457 73.9566 38.5641C74.1909 38.4733 74.3745 38.3932 74.505 38.3267C74.5703 38.2933 74.6208 38.2641 74.6572 38.2392C74.6679 38.2319 74.6768 38.2254 74.6841 38.2197Z" fill="black"/>
<path fill-rule="evenodd" clip-rule="evenodd" d="M23.4538 51.4868C28.4895 54.1953 39.6742 55.5602 50.2583 55.6542C59.8952 55.6695 72.45 54.1645 77.1449 51.6766L77.0157 48.9657C75.5468 51.2611 62.0928 53.4629 50.1537 53.3727C38.2147 53.2827 27.1281 51.4386 23.4323 49.0515L23.4538 51.4861" fill="#FFFF00"/>
<path fill-rule="evenodd" clip-rule="evenodd" d="M77.0359 48.8913C77.0686 48.9 77.0918 48.9288 77.0934 48.9626L77.2226 51.6735C77.224 51.7035 77.208 51.7317 77.1814 51.7457C74.8208 52.9967 70.4961 53.9962 65.5658 54.6815C60.632 55.3674 55.0805 55.74 50.2584 55.7324L50.2579 55.7324C44.963 55.6854 39.5173 55.3205 34.7645 54.6283C30.0141 53.9365 25.9477 52.9167 23.4173 51.5557C23.3902 51.5412 23.3753 51.5129 23.3765 51.4842L23.355 49.0528C23.3548 49.0242 23.3702 48.9979 23.3952 48.9841C23.4202 48.9704 23.4507 48.9714 23.4747 48.9869C25.3077 50.1709 28.9887 51.2269 33.7145 51.9975C38.4362 52.7675 44.1886 53.2507 50.1546 53.2957C56.1197 53.3408 62.4636 52.8132 67.4987 51.9878C70.0165 51.5751 72.205 51.0882 73.8544 50.562C74.6793 50.2989 75.3673 50.0265 75.8936 49.7497C76.4222 49.4717 76.7781 49.1939 76.9506 48.9244C76.9688 48.896 77.0033 48.8826 77.0359 48.8913ZM23.5313 51.4408C26.0396 52.7775 30.0654 53.7872 34.7868 54.4748C39.5313 55.1657 44.9698 55.5303 50.259 55.5772C55.0738 55.5848 60.618 55.2127 65.5444 54.5279C70.444 53.8468 74.7214 52.8579 77.0653 51.6316L76.9485 49.1818C76.7332 49.4244 76.3982 49.6595 75.9658 49.887C75.4285 50.1696 74.7312 50.4452 73.9016 50.7098C72.2422 51.2392 70.0456 51.7275 67.5238 52.1409C62.48 52.9677 56.1273 53.496 50.1534 53.4509C44.1804 53.4058 38.42 52.922 33.6896 52.1507C29.0636 51.3963 25.411 50.3652 23.5114 49.1936L23.5313 51.4408Z" fill="black"/>
<path fill-rule="evenodd" clip-rule="evenodd" d="M77.4003 51.0962L77.4006 51.7427C76.6949 52.5864 72.2706 53.8616 66.7222 54.7596C62.4996 55.407 56.9943 55.8953 50.1344 55.8953C43.6172 55.8953 38.4201 55.4306 34.3897 54.8118C28.0187 53.8841 23.9437 52.2595 23.1257 51.7746L23.1292 51.0205C25.5864 52.6542 32.2436 53.8492 34.4791 54.215C38.4832 54.8297 43.6495 55.2908 50.1342 55.2908C56.9619 55.2908 62.4363 54.8058 66.6324 54.1627C70.613 53.5877 76.2837 52.0923 77.4001 51.0966H77.4003L77.4003 51.0962ZM77.403 48.7968L77.4033 49.4433C76.6977 50.2865 72.2733 51.5617 66.7249 52.4596C62.5023 53.107 56.997 53.5953 50.1371 53.5953C43.6199 53.5953 38.4228 53.1311 34.3924 52.5119C28.0215 51.5846 23.9464 49.96 23.1284 49.475L23.132 48.7208C25.5891 50.3542 32.2463 51.5495 34.4818 51.9148C38.4859 52.5299 43.6522 52.9913 50.1369 52.9913C56.9646 52.9913 62.439 52.5061 66.6351 51.8625C70.6157 51.2875 76.2864 49.7921 77.4028 48.7963L77.403 48.7969L77.403 48.7968Z" fill="#FFFF00"/>
<path fill-rule="evenodd" clip-rule="evenodd" d="M50.2345 66.2861C38.6532 66.2171 28.7298 63.1292 26.6343 62.6188L28.1623 65.0109C31.8637 66.5679 41.5448 68.8884 50.3456 68.6314C59.1467 68.3747 66.8382 67.6929 72.2585 65.0542L73.8252 62.5752C70.1314 64.3149 57.5606 66.2682 50.2344 66.2861" fill="#FFFF00"/>
<path fill-rule="evenodd" clip-rule="evenodd" d="M73.8824 62.5244C73.9053 62.5502 73.9083 62.588 73.8899 62.6172L72.3232 65.0962C72.3154 65.1084 72.3045 65.1182 72.2915 65.1245C66.8542 67.7715 59.1464 68.4528 50.347 68.7095C41.5351 68.9668 31.843 66.6443 28.1314 65.083C28.1169 65.0769 28.1046 65.0665 28.0961 65.0532L26.568 62.6611C26.551 62.6344 26.5519 62.6 26.5703 62.5743C26.5887 62.5485 26.621 62.5365 26.6518 62.544C26.9005 62.6046 27.2588 62.7013 27.7165 62.8247C31.1227 63.7438 40.0331 66.1479 50.2318 66.2091C50.2323 66.2091 50.2328 66.2091 50.2333 66.2091C53.8911 66.2001 58.8611 65.7079 63.3791 65.0002C67.9003 64.292 71.9558 63.37 73.7912 62.5056C73.8224 62.4909 73.8596 62.4985 73.8824 62.5244ZM50.2362 66.3642C50.2352 66.3642 50.2342 66.3643 50.2332 66.3643C40.0109 66.3033 31.0781 63.8927 27.6752 62.9744C27.3245 62.8797 27.0325 62.8009 26.8039 62.7422L28.2138 64.9493C31.9215 66.5019 41.5704 68.8105 50.3425 68.5544C59.1346 68.2979 66.8017 67.617 72.2038 64.9947L73.6208 62.7525C71.6681 63.5957 67.7392 64.4743 63.4031 65.1535C58.8816 65.8617 53.9044 66.3551 50.2362 66.3642Z" fill="black"/>
<path fill-rule="evenodd" clip-rule="evenodd" d="M72.8463 64.4999C72.6161 64.8517 72.3813 65.1991 72.1433 65.5368C69.5867 66.4383 65.5584 67.3847 63.8585 67.6607C60.3862 68.3762 55.0139 68.9046 50.2459 68.907C39.9864 68.7568 31.5885 66.7485 27.6377 65.0353L27.319 64.4873L27.371 64.4049L27.9116 64.6145C34.9376 67.1282 42.8286 68.131 50.3037 68.3111C55.0525 68.3278 59.8064 67.7668 63.6505 67.0793C69.5454 65.8982 71.929 65.0079 72.6603 64.6044L72.8463 64.5H72.8461L72.8463 64.4999ZM74.2048 62.2593C74.2107 62.2662 74.2167 62.2729 74.2224 62.2803C74.0503 62.5709 73.8728 62.8665 73.6911 63.1636C72.3276 63.651 68.6272 64.7337 63.2235 65.4893C59.6631 65.9743 57.4501 66.444 50.3676 66.5816C37.0959 66.2439 28.503 63.6489 26.4617 63.0088L26.1591 62.4285C33.8506 64.4364 41.7072 65.838 50.3681 65.9812C56.8478 65.8432 59.6045 65.3661 63.1354 64.8847C69.4364 63.9049 72.6112 62.8675 73.564 62.568C73.5521 62.5508 73.538 62.5327 73.5223 62.5141L74.2054 62.2588L74.2049 62.2593L74.2048 62.2593Z" fill="#FFFF00"/>
<path fill-rule="evenodd" clip-rule="evenodd" d="M74.2684 62.2177C74.2684 62.2176 74.2683 62.2175 74.2683 62.2174C74.2494 62.1879 74.2124 62.1755 74.1795 62.1878L73.4963 62.4431C73.4736 62.4516 73.4565 62.4706 73.4503 62.494C73.4477 62.5043 73.4472 62.5149 73.4489 62.5251C73.445 62.5263 73.4411 62.5276 73.4371 62.5288C72.372 62.865 69.2064 63.8641 63.1248 64.8098C62.7443 64.8617 62.373 64.9135 62.005 64.9648C58.9581 65.3899 56.1441 65.7825 50.368 65.9056C41.7153 65.7624 33.8651 64.362 26.178 62.3553C26.1495 62.3478 26.1193 62.3579 26.101 62.3809C26.0826 62.4039 26.0796 62.4356 26.0932 62.4617L26.3957 63.042C26.4049 63.0595 26.4206 63.0727 26.4395 63.0786C28.4851 63.7201 37.085 66.3169 50.3658 66.6548L50.3658 66.6549L50.3692 66.6549C56.4128 66.5375 58.915 66.1782 61.7283 65.7742C62.2142 65.7044 62.7094 65.6333 63.2337 65.5619L63.2339 65.5619C68.6422 64.8056 72.3476 63.7218 73.7163 63.2325C73.7323 63.2268 73.7459 63.2158 73.7548 63.2012C73.9367 62.9038 74.1143 62.6079 74.2866 62.317C74.3022 62.2907 74.3001 62.2575 74.2814 62.2334C74.2771 62.2278 74.2725 62.2224 74.2684 62.2177ZM73.6366 62.5497C73.6398 62.5632 73.6392 62.5775 73.6346 62.5909C73.627 62.6133 73.6091 62.6308 73.5865 62.6379C73.5542 62.648 73.5194 62.659 73.4819 62.6708C72.4128 63.0082 69.2396 64.0097 63.1469 64.9571L63.1456 64.9573C62.7651 65.0091 62.3936 65.061 62.0255 65.1123C58.9765 65.5377 56.1555 65.9313 50.3698 66.0545L50.3669 66.0546V66.0545C41.7595 65.9122 33.9465 64.5279 26.3028 62.5416L26.5135 62.9458C28.6027 63.5999 37.1691 66.1699 50.368 66.5059C56.4013 66.3887 58.8963 66.0304 61.7075 65.6267C62.1934 65.557 62.6888 65.4858 63.2135 65.4143C68.5802 64.6639 72.2635 63.5908 73.6415 63.1011C73.7879 62.8615 73.9315 62.6228 74.0719 62.387L73.6366 62.5497ZM27.3082 64.3639C27.3272 64.3338 27.3648 64.3214 27.398 64.3343L27.9377 64.5436C34.9531 67.0533 42.8349 68.0555 50.3048 68.2355C55.0474 68.2521 59.7961 67.6918 63.6367 67.005C69.5307 65.824 71.9039 64.9356 72.6243 64.5381C72.6243 64.5381 72.6244 64.538 72.6245 64.538L72.8061 64.4361C72.8092 64.4341 72.8123 64.4324 72.8157 64.4309L72.8158 64.4308C72.8385 64.4207 72.8641 64.4226 72.8846 64.4348C72.8914 64.4389 72.8976 64.4441 72.903 64.4504C72.9102 64.4587 72.9156 64.4688 72.9185 64.48C72.9243 64.5022 72.9194 64.5252 72.9065 64.5429C72.6766 64.8941 72.4421 65.2411 72.2043 65.5785C72.1953 65.5912 72.1827 65.6007 72.1682 65.6059C69.6077 66.5087 65.5767 67.4558 63.8721 67.7328C60.394 68.4493 55.0174 68.9779 50.246 68.9804L50.2449 68.9803C39.9783 68.83 31.5701 66.8205 27.6082 65.1025C27.5936 65.0961 27.5815 65.0853 27.5735 65.0716L27.2547 64.5235C27.2407 64.4995 27.2413 64.4698 27.2561 64.4463L27.3082 64.3639ZM72.6175 64.7105C72.4459 64.9686 72.2719 65.2236 72.0962 65.4733C69.5433 66.3708 65.5379 67.3114 63.8467 67.5861L63.8467 67.586L63.8436 67.5866C60.3772 68.3009 55.0102 68.829 50.2465 68.8314C40.0139 68.6816 31.6388 66.6818 27.6899 64.9755L27.4132 64.4999L27.8848 64.6828L27.8848 64.6828L27.8866 64.6835C34.9226 67.2007 42.8222 68.2042 50.302 68.3844V68.3844L50.3036 68.3844C55.0579 68.4011 59.8164 67.8395 63.6637 67.1515L63.6652 67.1512C69.3657 66.009 71.7923 65.1372 72.6175 64.7105Z" fill="black"/>
<path fill-rule="evenodd" clip-rule="evenodd" d="M74.3435 49.3475C74.381 56.9662 70.4823 63.8028 67.3419 66.8189C62.8991 71.086 57.0086 73.8308 50.1294 73.9572C42.4477 74.0983 35.2046 69.0904 33.2618 66.8904C29.4635 62.5892 26.371 57.1273 26.2719 49.7662C26.7424 41.4511 30.0067 35.6591 34.7383 31.6872C39.47 27.7153 45.7703 25.7809 51.0173 25.9192C57.0711 26.079 64.1428 29.0488 69.0291 34.9445C72.2304 38.8073 73.6167 42.9994 74.3435 49.3475ZM50.1947 23.2611C64.9475 23.2611 77.081 35.2665 77.081 49.9868C77.081 64.7069 64.9475 76.7128 50.1947 76.7128C35.4418 76.7128 23.4091 64.7072 23.4091 49.9868C23.4091 35.2665 35.4418 23.2611 50.1947 23.2611Z" fill="#FFFF00"/>
<path fill-rule="evenodd" clip-rule="evenodd" d="M50.1955 23.3391C35.4853 23.3391 23.4874 35.3099 23.4874 49.9873C23.4874 64.6646 35.4853 76.6357 50.1955 76.6357C64.9061 76.6357 77.0043 64.664 77.0043 49.9873C77.0043 35.3103 64.9061 23.3391 50.1955 23.3391ZM50.1955 23.184C35.3999 23.184 23.3323 35.2239 23.3323 49.9873C23.3323 64.7506 35.3999 76.7908 50.1955 76.7908C64.9907 76.7908 77.1594 64.7507 77.1594 49.9873C77.1594 35.2235 64.9907 23.184 50.1955 23.184ZM51.016 25.9972C45.7872 25.8593 39.5056 27.7878 34.789 31.747C30.0749 35.7042 26.8202 41.4751 26.3503 49.7683C26.4498 57.1042 29.5311 62.5482 33.3208 66.8395C34.2837 67.9299 36.5712 69.7264 39.579 71.2328C42.5859 72.7387 46.3045 73.9503 50.1288 73.8801C56.9871 73.754 62.8593 71.0179 67.289 66.7634C70.4153 63.7609 74.3028 56.9459 74.2668 49.3526C73.5409 43.015 72.1577 38.8405 68.9702 34.9945C64.0987 29.1165 57.0483 26.1564 51.016 25.9972ZM34.6893 31.6282C39.4361 27.6436 45.755 25.7033 51.0201 25.8421C57.0956 26.0025 64.1886 28.9819 69.0897 34.8955C72.3042 38.7741 73.6937 42.9827 74.4214 49.3392C74.4217 49.342 74.4219 49.3448 74.4219 49.3476C74.4596 56.9898 70.5505 63.8462 67.3965 66.8753C62.9406 71.1549 57.0317 73.9084 50.1316 74.0352C46.2742 74.1061 42.5304 72.8844 39.5096 71.3715C36.4898 69.8592 34.1843 68.0518 33.2045 66.9422C29.3978 62.6317 26.2946 57.1526 26.1951 49.7676C26.1951 49.7658 26.1951 49.764 26.1952 49.7622C26.6669 41.4267 29.9405 35.6144 34.6893 31.6282Z" fill="black"/>
<path fill-rule="evenodd" clip-rule="evenodd" d="M50.2677 23.1691C65.0339 23.1691 77.0769 35.2137 77.0769 49.9812C77.0769 64.7484 65.0336 76.7927 50.2677 76.7927C35.5016 76.7927 23.4586 64.7487 23.4586 49.9812C23.4586 35.2137 35.5019 23.1691 50.2677 23.1691ZM24.0486 49.9813C24.0486 64.4025 35.891 76.2031 50.2677 76.2031C64.6448 76.2031 76.4871 64.4025 76.4871 49.9813C76.4871 35.5596 64.6445 23.7589 50.2677 23.7589C35.891 23.7589 24.0486 35.5601 24.0486 49.9813Z" fill="#FFFF00"/>
<path fill-rule="evenodd" clip-rule="evenodd" d="M50.2682 23.2471C35.5452 23.2471 23.5367 35.257 23.5367 49.9816C23.5367 64.7062 35.5449 76.7156 50.2682 76.7156C64.9912 76.7156 76.9998 64.706 76.9998 49.9816C76.9998 35.257 64.9915 23.2471 50.2682 23.2471ZM50.2682 23.0919C35.4595 23.0919 23.3815 35.1713 23.3815 49.9816C23.3815 64.7919 35.4592 76.8707 50.2682 76.8707C65.0769 76.8707 77.1549 64.7916 77.1549 49.9816C77.1549 35.1713 65.0772 23.0919 50.2682 23.0919ZM23.9715 49.9817C23.9715 35.5176 35.8487 23.6818 50.2682 23.6818C64.6877 23.6818 76.5652 35.5171 76.5652 49.9817C76.5652 64.4458 64.688 76.2811 50.2682 76.2811C35.8487 76.2811 23.9715 64.4458 23.9715 49.9817ZM50.2682 23.8369C35.9342 23.8369 24.1267 35.6035 24.1267 49.9817C24.1267 64.36 35.9342 76.126 50.2682 76.126C64.6025 76.126 76.41 64.36 76.41 49.9817C76.41 35.6029 64.6022 23.8369 50.2682 23.8369Z" fill="black"/>
<path fill-rule="evenodd" clip-rule="evenodd" d="M50.2895 25.3975C63.7552 25.3975 74.8464 36.4505 74.8464 49.9573C74.8464 63.4644 63.7549 74.5169 50.2895 74.5169C36.8242 74.5169 25.7327 63.4644 25.7327 49.9573C25.7327 36.4505 36.8245 25.3975 50.2895 25.3975ZM26.3224 49.9571C26.3224 63.1395 37.1475 73.9267 50.2895 73.9267C63.4316 73.9267 74.2567 63.1395 74.2567 49.9571C74.2567 36.7745 63.4319 25.9873 50.2895 25.9873C37.1475 25.9873 26.3224 36.7745 26.3224 49.9571Z" fill="#FFFF00"/>
<path fill-rule="evenodd" clip-rule="evenodd" d="M50.29 25.4756C36.8677 25.4756 25.8107 36.494 25.8107 49.9579C25.8107 63.422 36.8674 74.4399 50.29 74.4399C63.7126 74.4399 74.7693 63.422 74.7693 49.9579C74.7693 36.494 63.7129 25.4756 50.29 25.4756ZM50.29 25.3204C36.7822 25.3204 25.6556 36.4082 25.6556 49.9579C25.6556 63.5079 36.7819 74.595 50.29 74.595C63.7982 74.595 74.9245 63.5079 74.9245 49.9579C74.9245 36.4082 63.7984 25.3204 50.29 25.3204ZM26.2453 49.9577C26.2453 36.7321 37.1052 25.9103 50.29 25.9103C63.4751 25.9103 74.3347 36.7321 74.3347 49.9577C74.3347 63.183 63.4749 74.0049 50.29 74.0049C37.1052 74.0049 26.2453 63.183 26.2453 49.9577ZM50.29 26.0654C37.1907 26.0654 26.4005 36.818 26.4005 49.9577C26.4005 63.0972 37.1907 73.8497 50.29 73.8497C63.3893 73.8497 74.1796 63.0972 74.1796 49.9577C74.1796 36.818 63.3896 26.0654 50.29 26.0654Z" fill="black"/>
<path fill-rule="evenodd" clip-rule="evenodd" d="M51.3691 23.0609H49.0715L49.0742 76.9332H51.3797L51.3691 23.0609Z" fill="#FFFF00"/>
<path fill-rule="evenodd" clip-rule="evenodd" d="M49.0172 23.0066C49.0317 22.9921 49.0514 22.9839 49.072 22.9839H51.3696C51.4125 22.9839 51.4472 23.0186 51.4472 23.0614L51.4578 76.9337C51.4578 76.9543 51.4496 76.974 51.4351 76.9886C51.4205 77.0031 51.4008 77.0113 51.3802 77.0113H49.0747C49.0319 77.0113 48.9972 76.9766 48.9972 76.9337L48.9944 23.0615C48.9944 23.0409 49.0026 23.0212 49.0172 23.0066ZM49.1496 23.139L49.1523 76.8562H51.3026L51.2921 23.139H49.1496Z" fill="black"/>
<path fill-rule="evenodd" clip-rule="evenodd" d="M51.139 22.754H51.7238L51.7288 77.2464H51.1435L51.1392 22.754H51.139ZM48.8587 22.7545H49.4481L49.4489 77.2468H48.8591V22.7545H48.8587Z" fill="#FFFF00"/>
<path fill-rule="evenodd" clip-rule="evenodd" d="M51.0621 22.7545C51.0621 22.7116 51.0969 22.6769 51.1397 22.6769H51.7245C51.7673 22.6769 51.8021 22.7116 51.8021 22.7544L51.8071 77.2468C51.8071 77.2674 51.7989 77.2871 51.7844 77.3016C51.7698 77.3162 51.7501 77.3244 51.7295 77.3244H51.1442C51.1014 77.3244 51.0666 77.2896 51.0666 77.2468L51.0623 22.7603C51.0622 22.7584 51.0621 22.7564 51.0621 22.7545ZM51.2175 22.832L51.2218 77.1692H51.6519L51.6469 22.832H51.2175ZM48.7819 22.7549C48.7819 22.7121 48.8166 22.6774 48.8595 22.6774H49.4488C49.4917 22.6774 49.5264 22.7121 49.5264 22.7549L49.5272 77.2473C49.5272 77.2679 49.519 77.2876 49.5045 77.3021C49.4899 77.3167 49.4702 77.3249 49.4496 77.3249H48.8598C48.817 77.3249 48.7822 77.2901 48.7822 77.2473V22.7624C48.782 22.76 48.7819 22.7575 48.7819 22.7549ZM48.9374 22.8325V77.1697H49.3721L49.3713 22.8325H48.9374Z" fill="black"/>
<path fill-rule="evenodd" clip-rule="evenodd" d="M77.0946 51.0193V49.0277L75.4727 47.5168L66.2665 45.0799L52.9988 43.7261L37.0234 44.5384L25.6511 47.2461L23.355 48.9465V50.9386L29.1711 48.3292L42.9804 46.163H56.2481L65.9957 47.2461L72.765 48.8707L77.0946 51.0193Z" fill="#FFFF00"/>
<path fill-rule="evenodd" clip-rule="evenodd" d="M52.9956 43.649C52.9996 43.6488 53.0035 43.6489 53.0075 43.6493L66.2751 45.0032C66.2792 45.0036 66.2832 45.0043 66.2871 45.0054L75.4933 47.4423C75.5056 47.4456 75.517 47.4518 75.5263 47.4605L77.1482 48.9714C77.164 48.9861 77.1729 49.0067 77.1729 49.0282V51.0198C77.1729 51.0467 77.159 51.0716 77.1362 51.0858C77.1134 51.0999 77.0849 51.1012 77.0608 51.0893L72.7391 48.9446L65.9831 47.3231L56.2445 46.2411H42.9872L29.1942 48.4047L23.3875 51.0099C23.3635 51.0206 23.3357 51.0185 23.3136 51.0042C23.2915 50.9899 23.2782 50.9654 23.2782 50.9391V48.947C23.2782 48.9224 23.2899 48.8993 23.3096 48.8846L25.6057 47.1842C25.6141 47.1779 25.6237 47.1735 25.6339 47.1711L37.0062 44.4633C37.0108 44.4623 37.0155 44.4616 37.0203 44.4613L52.9956 43.649ZM37.0352 44.6159L25.6853 47.3183L23.4333 48.986V50.8192L29.1401 48.2589C29.1464 48.2561 29.1531 48.2541 29.1599 48.253L42.9691 46.0869C42.9731 46.0862 42.9771 46.0859 42.9811 46.0859H56.2488C56.2517 46.0859 56.2545 46.0861 56.2574 46.0864L66.0051 47.1695C66.0067 47.1697 66.0083 47.1699 66.01 47.1702C66.0115 47.1704 66.0131 47.1708 66.0146 47.1711L72.7838 48.7958C72.7895 48.7971 72.795 48.7991 72.8002 48.8017L77.0178 50.8947V49.0619L75.4348 47.5873L66.2533 45.1569L52.9976 43.8043L37.0352 44.6159Z" fill="black"/>
<path fill-rule="evenodd" clip-rule="evenodd" d="M50.2776 45.8295C56.609 45.8178 62.7519 46.4294 67.6244 47.3781C72.6523 48.3833 76.1907 49.6406 77.4005 51.0528L77.3992 51.752C75.9402 49.9946 71.1788 48.7063 67.5112 47.9698C62.6758 47.0292 56.5741 46.4219 50.2776 46.4336C43.6335 46.446 37.4466 47.0753 32.6819 48.0049C28.8587 48.7636 23.7598 50.2707 23.1232 51.7573V51.0292C23.4728 50.0002 27.2695 48.4625 32.5958 47.3963C37.3963 46.4601 43.5945 45.8416 50.2776 45.8295V45.8295ZM50.2803 43.5301C56.6117 43.5186 62.7546 44.1304 67.6271 45.0787C72.655 46.0843 76.1934 47.3412 77.4032 48.7533L77.4019 49.4525C75.9429 47.6956 71.1815 46.4072 67.5139 45.671C62.6785 44.7298 56.5768 44.1226 50.2803 44.1347C43.6362 44.1467 37.4794 44.7764 32.7141 45.7056C29.0246 46.405 23.7176 47.9718 23.1257 49.4584V48.7298C23.4753 47.7121 27.3489 46.1192 32.5985 45.0969C37.399 44.1608 43.5972 43.5428 50.2803 43.5301V43.5301Z" fill="#FFFF00"/>
<path fill-rule="evenodd" clip-rule="evenodd" d="M50.2846 43.6083C50.2834 43.6084 50.2822 43.6084 50.281 43.6084C43.6021 43.621 37.4089 44.2387 32.6139 45.1737L32.6139 45.1737C29.9925 45.6842 27.7164 46.3369 26.0534 46.988C25.2216 47.3137 24.5454 47.6381 24.0566 47.9431C23.8122 48.0956 23.6164 48.2421 23.4719 48.3802C23.3316 48.5142 23.2439 48.6362 23.2038 48.744V49.1664C23.2842 49.0565 23.3859 48.9483 23.5052 48.8418C23.7194 48.6506 23.9946 48.4617 24.3166 48.2766C24.9607 47.9065 25.7997 47.5476 26.7327 47.2144C28.5992 46.5478 30.8523 45.9803 32.7 45.6301C37.4706 44.6999 43.6322 44.0698 50.2807 44.0578C56.5818 44.0456 62.6886 44.6533 67.5293 45.5955L67.5297 45.5956C69.3652 45.964 71.4762 46.471 73.312 47.1064C74.2299 47.424 75.0806 47.7743 75.7943 48.1563C76.4252 48.4939 76.953 48.8583 77.3252 49.2499L77.3261 48.7828C76.7292 48.1006 75.5656 47.4462 73.9206 46.837C72.2615 46.2225 70.1243 45.6578 67.6127 45.1555C62.7464 44.2084 56.61 43.5971 50.2846 43.6083ZM50.2771 43.4533C50.2783 43.4532 50.2795 43.4532 50.2807 43.4532C56.6167 43.4417 62.7647 44.0539 67.6425 45.0032L67.6429 45.0033C70.159 45.5065 72.3049 46.0731 73.9745 46.6915C75.6407 47.3086 76.8441 47.9815 77.4627 48.7035C77.4748 48.7176 77.4814 48.7356 77.4814 48.7541L77.48 49.4534C77.4799 49.486 77.4594 49.5151 77.4287 49.5262C77.398 49.5373 77.3636 49.5279 77.3427 49.5028C76.9872 49.0747 76.4261 48.6704 75.7211 48.2931C75.017 47.9163 74.1746 47.5691 73.2613 47.253C71.4349 46.6209 69.3315 46.1155 67.4995 45.7477C62.6694 44.8077 56.5727 44.2008 50.281 44.213C43.6413 44.2249 37.4895 44.8542 32.7295 45.7824L32.7291 45.7825C30.8873 46.1316 28.6422 46.6972 26.7849 47.3605C25.856 47.6923 25.0267 48.0475 24.3939 48.4112C24.0775 48.593 23.8121 48.7758 23.6085 48.9576C23.4042 49.1399 23.2661 49.3175 23.1983 49.4878C23.1845 49.5224 23.1481 49.5423 23.1116 49.5353C23.075 49.5283 23.0486 49.4963 23.0486 49.4591V48.7305C23.0486 48.7219 23.05 48.7134 23.0528 48.7053C23.1022 48.5615 23.2108 48.4151 23.3647 48.268C23.5194 48.1202 23.7246 47.9674 23.9745 47.8115C24.4744 47.4996 25.1602 47.1711 25.9968 46.8435C27.6704 46.1882 29.9559 45.5333 32.5842 45.0215C37.3892 44.0845 43.591 43.4661 50.2771 43.4533ZM67.61 47.4549C62.7428 46.5072 56.6049 45.8961 50.2783 45.9077C50.2775 45.9077 50.2768 45.9077 50.2761 45.9077C43.5982 45.92 37.4059 46.5381 32.6114 47.473C29.9514 48.0055 27.6753 48.6554 26.0219 49.2996C25.195 49.6219 24.5261 49.9418 24.0435 50.2438C23.8021 50.3948 23.6091 50.5402 23.4666 50.6778C23.3283 50.8114 23.2415 50.9338 23.2013 51.0431V51.4728C23.4278 51.1662 23.8162 50.8688 24.3094 50.584C24.9423 50.2186 25.7637 49.8653 26.6819 49.5358C28.5188 48.8767 30.7532 48.3094 32.6673 47.9295L32.6676 47.9295C37.4377 46.9988 43.6294 46.3691 50.278 46.3567C56.5791 46.345 62.6859 46.9527 67.5266 47.8944L67.527 47.8945C69.3625 48.263 71.4735 48.77 73.3093 49.4054C74.2272 49.7231 75.0779 50.0735 75.7916 50.4555C76.4225 50.7932 76.9503 51.1576 77.3225 51.5493L77.3234 51.0823C76.7264 50.4 75.5628 49.7455 73.9179 49.1362C72.2588 48.5217 70.1216 47.957 67.61 47.4549ZM50.2801 45.7526C56.6154 45.741 62.7625 46.353 67.6398 47.3027L67.6402 47.3027C70.1563 47.8057 72.3022 48.3723 73.9718 48.9907C75.638 49.6079 76.8414 50.2809 77.46 51.003C77.4721 51.0171 77.4787 51.035 77.4786 51.0536L77.4773 51.7528C77.4772 51.7854 77.4567 51.8146 77.426 51.8256C77.3953 51.8367 77.3609 51.8273 77.34 51.8022C76.9845 51.374 76.4234 50.9696 75.7183 50.5923C75.0143 50.2154 74.1718 49.8682 73.2586 49.5521C71.4321 48.9199 69.3286 48.4145 67.4965 48.0466C62.6665 47.107 56.5699 46.5002 50.2783 46.5119C43.6386 46.5243 37.4569 47.1531 32.6975 48.0817C30.7884 48.4606 28.5618 49.0261 26.7343 49.6818C25.8203 50.0098 25.0086 50.3594 24.387 50.7184C23.7612 51.0797 23.3435 51.4419 23.1951 51.7885C23.1806 51.8223 23.1442 51.8413 23.1082 51.8339C23.0721 51.8265 23.0462 51.7948 23.0462 51.7579V51.0298C23.0462 51.0214 23.0476 51.0129 23.0503 51.0049C23.0996 50.8599 23.2067 50.7131 23.3588 50.5662C23.5116 50.4187 23.7142 50.2668 23.9612 50.1123C24.4552 49.8032 25.1339 49.4792 25.9656 49.1551C27.6296 48.5067 29.9149 47.8546 32.5811 47.3209L32.5815 47.3208C37.3874 46.3836 43.5905 45.7647 50.278 45.7526C50.2787 45.7526 50.2794 45.7526 50.2801 45.7526Z" fill="black"/>
<path fill-rule="evenodd" clip-rule="evenodd" d="M50.1508 31.8012C60.1284 31.7513 68.8312 33.1963 72.8128 35.2359L74.2652 37.7483C70.8045 35.8833 61.4155 33.944 50.1654 34.234C40.9987 34.2904 31.2042 35.2432 26.29 37.865L28.0239 34.9654C32.057 32.8739 41.5683 31.8128 50.1511 31.8017" fill="#FFFF00"/>
<path fill-rule="evenodd" clip-rule="evenodd" d="M50.1414 31.7246C45.85 31.7305 41.3268 31.9987 37.371 32.527C33.4151 33.0552 30.0175 33.8446 27.9881 34.897C27.9753 34.9036 27.9647 34.9136 27.9573 34.926L26.2234 37.8257C26.2055 37.8556 26.2098 37.8938 26.2338 37.919C26.2578 37.9442 26.2957 37.9503 26.3265 37.9339C28.7711 36.6297 32.437 35.7375 36.6434 35.1648C40.8479 34.5924 45.5846 34.3402 50.1658 34.312L50.1673 34.312C55.7875 34.1672 60.9425 34.5791 65.1237 35.2601C69.3073 35.9413 72.5094 36.8908 74.2282 37.8171C74.2588 37.8335 74.2965 37.8277 74.3207 37.8028C74.3449 37.7779 74.3496 37.74 74.3322 37.71L72.8799 35.1975C72.8724 35.1846 72.8613 35.1741 72.8481 35.1673C70.8462 34.1418 67.6655 33.2691 63.7421 32.6587C59.817 32.0481 55.1427 31.6991 50.1503 31.724C50.1473 31.724 50.1443 31.7242 50.1414 31.7246ZM63.7182 32.812C59.8047 32.2032 55.1422 31.8547 50.1607 31.8791C50.1575 31.8795 50.1544 31.8797 50.1512 31.8797C45.8626 31.8853 41.3425 32.1532 37.3916 32.6807C33.4507 33.207 30.0852 33.9905 28.0791 35.0246L26.497 37.6705C28.9623 36.4219 32.5477 35.5658 36.6225 35.0111C40.8353 34.4375 45.5788 34.1851 50.164 34.1569C55.7936 34.0118 60.958 34.4245 65.1487 35.1069C69.154 35.7592 72.276 36.6589 74.0647 37.5572L72.757 35.295C70.7759 34.2852 67.6226 33.4195 63.7182 32.812Z" fill="black"/>
<path fill-rule="evenodd" clip-rule="evenodd" d="M50.2849 33.876C55.9757 33.861 61.4745 34.1819 65.8477 34.9709C69.9203 35.7289 73.8042 36.8665 74.3596 37.4783L74.7901 38.2392C73.4395 37.3573 70.0785 36.3753 65.7629 35.5569C61.429 34.7424 55.934 34.4725 50.2749 34.4874C43.8518 34.4654 38.8615 34.8045 34.5787 35.5512C30.0493 36.3987 26.9067 37.6095 26.1315 38.1848L26.5535 37.3805C28.0598 36.612 30.4498 35.6857 34.4662 34.9626C38.8951 34.1535 43.9385 33.9109 50.2853 33.876H50.2851L50.2849 33.876ZM50.2825 31.5787C55.7285 31.5644 61.1057 31.8679 65.2972 32.6214C68.603 33.2649 71.8723 34.2696 73.0694 35.1637L73.6991 36.1643C72.6285 34.9743 68.5989 33.8467 65.0415 33.215C60.8822 32.4977 55.7284 32.2137 50.2824 32.1684C44.567 32.1844 39.2851 32.5344 35.1865 33.2807C31.2763 34.0248 28.753 34.9057 27.6853 35.5937L28.2391 34.7579C29.7125 33.9823 32.0927 33.27 35.0904 32.6875C39.2193 31.9357 44.5337 31.5947 50.2827 31.5787H50.2825Z" fill="#FFFF00"/>
<path fill-rule="evenodd" clip-rule="evenodd" d="M50.2815 31.6555C55.725 31.6412 61.0965 31.9446 65.2813 32.6968L50.2815 31.6555ZM50.2807 31.5004C55.7288 31.486 61.1112 31.7896 65.3093 32.5442L65.3104 32.5444C66.9658 32.8667 68.6126 33.2794 69.9962 33.7239C71.3769 34.1675 72.5044 34.6453 73.1142 35.1007C73.1218 35.1064 73.1283 35.1135 73.1334 35.1216L73.7631 36.1222C73.7846 36.1563 73.7764 36.2011 73.7442 36.2254C73.7121 36.2497 73.6667 36.2453 73.6398 36.2154C73.3824 35.9292 72.9407 35.6409 72.3595 35.3593C71.78 35.0785 71.0684 34.8075 70.2775 34.5534C68.6958 34.0451 66.8027 33.606 65.0265 33.2907C60.8735 32.5744 55.7248 32.2905 50.2805 32.2451C44.5677 32.2612 39.2912 32.6111 35.199 33.3562C31.29 34.1001 28.7798 34.9789 27.7257 35.6582C27.6949 35.6781 27.6543 35.6736 27.6285 35.6475C27.6027 35.6213 27.5988 35.5807 27.619 35.5501L28.1728 34.7143C28.18 34.7035 28.1898 34.6946 28.2013 34.6885C29.6849 33.9075 32.0742 33.1934 35.0739 32.6106L35.0748 32.6104C39.2101 31.8575 44.5294 31.5164 50.2804 31.5004M65.2813 32.6968C66.9316 33.0181 68.5721 33.4294 69.9487 33.8716C71.3194 34.312 72.4197 34.7803 73.0098 35.2165L73.3486 35.7547C73.0966 35.5717 72.7848 35.3929 72.4272 35.2197C71.8389 34.9346 71.12 34.6611 70.325 34.4056C68.7349 33.8947 66.8345 33.4541 65.0534 33.1379L65.0531 33.1378C60.8876 32.4194 55.7289 32.1354 50.2814 32.09L50.2805 32.09C44.5628 32.106 39.2759 32.4562 35.1709 33.2036L35.1703 33.2037C31.5782 33.8873 29.1458 34.6879 27.9353 35.3537L28.2911 34.8166C29.7555 34.0499 32.1196 33.3427 35.1031 32.763C39.2256 32.0124 44.5347 31.6715 50.2813 31.6555M50.2807 33.7977C50.2815 33.7977 50.2823 33.7977 50.2831 33.7977C55.9761 33.7826 61.4801 34.1036 65.8598 34.8938L65.8603 34.8939C67.8988 35.2733 69.8905 35.7478 71.4429 36.2042C72.2189 36.4324 72.8864 36.6565 73.3955 36.8624C73.65 36.9653 73.8661 37.0641 74.0369 37.1572C74.2061 37.2493 74.337 37.339 74.4154 37.4254C74.4193 37.4297 74.4226 37.4344 74.4255 37.4394L74.856 38.2002C74.8737 38.2313 74.8677 38.2705 74.8416 38.295C74.8155 38.3195 74.7761 38.3229 74.7461 38.3034C74.0809 37.869 72.9123 37.4056 71.3648 36.9479C69.8194 36.4908 67.903 36.0413 65.747 35.6324C61.4203 34.8192 55.931 34.5493 50.2735 34.5642L50.2731 34.5642C43.8527 34.5422 38.8675 34.8812 34.5909 35.6268C32.3296 36.0499 30.4152 36.5636 28.9701 37.0429C27.5212 37.5235 26.5527 37.9669 26.1761 38.2463C26.1471 38.2679 26.1069 38.2665 26.0795 38.2429C26.052 38.2194 26.0444 38.18 26.0612 38.148L26.4831 37.3437C26.4906 37.3294 26.5023 37.3179 26.5166 37.3106C28.0306 36.5382 30.4281 35.6097 34.4506 34.8855C38.8859 34.0753 43.9341 33.8326 50.2807 33.7977ZM50.2861 33.9528C50.2854 33.9528 50.2848 33.9528 50.2841 33.9528C43.9382 33.9877 38.9005 34.2303 34.4785 35.0381L34.4783 35.0382C30.4878 35.7566 28.1089 36.6753 26.609 37.4376L26.3353 37.9594C26.8295 37.6732 27.7171 37.2951 28.9212 36.8957C30.3735 36.414 32.2949 35.8986 34.5628 35.4742L34.5638 35.474C38.8525 34.7262 43.8476 34.387 50.2733 34.409C55.9339 34.3942 61.4346 34.664 65.7757 35.4799L65.7758 35.48C67.9353 35.8895 69.8571 36.3401 71.4088 36.7991C72.7801 37.2047 73.8677 37.6183 74.5748 38.0183L74.2949 37.5236C74.2333 37.4583 74.1231 37.3808 73.9627 37.2934C73.7989 37.2042 73.5887 37.1078 73.3373 37.0062C72.8347 36.803 72.1726 36.5805 71.3991 36.3531C69.8526 35.8983 67.8662 35.425 65.8322 35.0465C61.4661 34.2588 55.9736 33.9379 50.2861 33.9528Z" fill="black"/>
<path fill-rule="evenodd" clip-rule="evenodd" d="M63.6009 61.1257C58.6681 60.2049 53.7262 60.0712 50.2745 60.1118C33.6473 60.3066 28.2761 63.5259 27.6206 64.5007L26.3779 62.4749C30.6111 59.4065 39.6654 57.6858 50.3645 57.8618C55.9202 57.9528 60.7144 58.3217 64.7475 59.1029L63.6006 61.1263" fill="#FFFF00"/>
<path fill-rule="evenodd" clip-rule="evenodd" d="M26.4803 62.4962L27.6261 64.3641C27.8426 64.1076 28.3011 63.7554 29.0616 63.3626C29.9231 62.9176 31.1809 62.4159 32.9365 61.9393C36.4476 60.9861 41.9541 60.1321 50.2722 60.0346C53.7136 59.9941 58.6375 60.1267 63.5593 61.0397L64.6254 59.159C60.6206 58.3931 55.8667 58.0299 50.3619 57.9398L50.3632 57.8622L50.3619 57.9398C45.0165 57.8519 40.0836 58.2378 35.9597 59.0283C31.8719 59.8119 28.586 60.9918 26.4803 62.4962ZM63.6682 61.1624L64.8137 59.1415C64.826 59.1198 64.8271 59.0935 64.8166 59.0708C64.8062 59.0481 64.7854 59.0319 64.7609 59.0271C60.7215 58.2448 55.9223 57.8757 50.3644 57.7847C45.0106 57.6966 40.0668 58.083 35.9305 58.8759C31.7959 59.6685 28.4611 60.8686 26.331 62.4125C26.2982 62.4363 26.2892 62.4813 26.3104 62.5159L27.553 64.5416C27.5669 64.5641 27.5912 64.5781 27.6176 64.5786C27.6439 64.5792 27.6688 64.5663 27.6835 64.5444C27.836 64.3177 28.2796 63.9411 29.1328 63.5004C29.9824 63.0615 31.2295 62.5635 32.9771 62.089C36.4722 61.1402 41.965 60.2871 50.274 60.1897C53.7212 60.1492 58.6531 60.2827 63.5756 61.2006C63.6088 61.2112 63.646 61.1983 63.665 61.1678C63.6661 61.1661 63.6672 61.1642 63.6682 61.1624Z" fill="black"/>
<path fill-rule="evenodd" clip-rule="evenodd" d="M50.1781 59.8268C54.8033 59.8958 59.3433 60.0868 63.7255 60.904L63.4081 61.4642C59.3382 60.713 54.9994 60.4254 50.1938 60.4488C44.0573 60.4009 37.8507 60.974 32.4473 62.5248C30.7423 62.9993 27.9197 64.0954 27.6319 65.0012L27.3162 64.4806C27.4072 63.9452 29.1131 62.8341 32.3022 61.9381C38.4914 60.1657 44.2807 59.8669 50.1781 59.8263V59.8269L50.1781 59.8268ZM50.388 57.4992C55.18 57.5887 60.1289 57.8103 64.9391 58.7631L64.6086 59.3463C60.2649 58.484 56.1148 58.1965 50.4162 58.1088C44.2603 58.12 37.7304 58.559 31.7933 60.2851C29.8765 60.8434 26.5682 62.0505 26.458 63.0063L26.1423 62.447C26.2142 61.579 29.078 60.4466 31.6547 59.6971C37.6376 57.9576 44.1845 57.5104 50.3881 57.4991L50.388 57.4992Z" fill="#FFFF00"/>
<path fill-rule="evenodd" clip-rule="evenodd" d="M50.3917 57.4235C50.3905 57.4235 50.3893 57.4235 50.3881 57.4235C44.1819 57.4347 37.6268 57.882 31.634 59.6244L31.634 59.6244C30.3438 59.9997 28.9798 60.4713 27.928 60.9588C27.4025 61.2024 26.9519 61.4513 26.627 61.6958C26.4645 61.8181 26.3312 61.9409 26.2356 62.0633C26.1402 62.1854 26.0788 62.3116 26.0682 62.4397C26.067 62.4545 26.0703 62.4694 26.0776 62.4824L26.3933 63.0417C26.4092 63.0698 26.4413 63.0845 26.4729 63.0781C26.5045 63.0717 26.5284 63.0456 26.5321 63.0136C26.5436 62.914 26.5979 62.8039 26.6976 62.6843C26.7969 62.5653 26.9373 62.4417 27.1123 62.3156C27.4621 62.0635 27.9407 61.8079 28.4791 61.5632C29.5552 61.0741 30.8578 60.6339 31.8142 60.3553C37.7412 58.6322 44.2627 58.1933 50.4159 58.1821C56.1122 58.2697 60.2571 58.5571 64.5943 59.4181C64.6258 59.4244 64.6577 59.4097 64.6735 59.3818L65.004 58.7986C65.0158 58.7778 65.0169 58.7526 65.007 58.7309C64.997 58.7092 64.9772 58.6935 64.9537 58.6889C60.1374 57.7349 55.1838 57.5131 50.3917 57.4235ZM50.3863 57.5724C44.186 57.5837 37.648 58.031 31.6756 59.7674C30.3891 60.1416 29.0329 60.6108 27.9906 61.0939C27.4691 61.3356 27.0293 61.5794 26.7165 61.8148C26.5601 61.9325 26.4378 62.0464 26.3529 62.155C26.2748 62.2551 26.2314 62.3469 26.2192 62.4302L26.4365 62.8152C26.4714 62.7384 26.5216 62.6629 26.5832 62.5889C26.6934 62.4569 26.8445 62.325 27.0252 62.1948C27.3866 61.9343 27.8754 61.674 28.4175 61.4276C29.5023 60.9346 30.8122 60.4921 31.7726 60.2124L31.7726 60.2123C37.7197 58.4834 44.2577 58.0444 50.4162 58.0332L50.4175 58.0331V58.0332C56.095 58.1205 60.2396 58.4061 64.5705 59.2616L64.8236 58.815C60.052 57.8804 55.1444 57.6613 50.3867 57.5724C50.3866 57.5724 50.3865 57.5724 50.3863 57.5724ZM50.1697 59.8996C50.1733 59.9 50.177 59.9002 50.1806 59.9001C54.7678 59.9686 59.2666 60.1573 63.6094 60.957L63.3696 61.3802C59.309 60.635 54.982 60.3499 50.194 60.3732C44.0535 60.3252 37.8396 60.8986 32.4272 62.4519C31.5715 62.69 30.4358 63.084 29.4767 63.5326C28.9973 63.7568 28.5597 63.9958 28.2228 64.2371C27.9506 64.432 27.735 64.6346 27.6216 64.8392L27.3955 64.4664C27.4086 64.4197 27.4372 64.3633 27.4858 64.2974C27.5432 64.2197 27.6256 64.1328 27.7342 64.0384C27.9513 63.8497 28.2678 63.6355 28.6832 63.4087C29.5136 62.9553 30.7319 62.4554 32.3224 62.0085L32.3228 62.0084C38.499 60.2398 44.2775 59.9404 50.1697 59.8996ZM50.1777 59.7506C50.1811 59.7506 50.1844 59.7508 50.1876 59.7512C54.8108 59.8204 59.3532 60.0117 63.7393 60.8296C63.7629 60.834 63.783 60.8496 63.7931 60.8714C63.8033 60.8932 63.8023 60.9186 63.7904 60.9395L63.4731 61.4997C63.4574 61.5273 63.426 61.542 63.3948 61.5362C59.3307 60.7861 54.9968 60.4987 50.1943 60.5221L50.1933 60.5221C44.0612 60.4741 37.8623 61.047 32.4679 62.5951L32.4674 62.5953C31.618 62.8317 30.4901 63.223 29.5398 63.6675C29.0645 63.8898 28.636 64.1244 28.3095 64.3582C27.9794 64.5945 27.7671 64.8208 27.703 65.0225C27.6942 65.0504 27.6699 65.0704 27.6409 65.0739C27.6119 65.0774 27.5835 65.0636 27.5684 65.0386L27.2527 64.518C27.2434 64.5027 27.2399 64.4846 27.2429 64.4669C27.257 64.3841 27.3007 64.2973 27.366 64.2089C27.4318 64.1199 27.5225 64.0251 27.6365 63.926C27.8644 63.7279 28.1908 63.5079 28.6119 63.278C29.4544 62.818 30.6836 62.3143 32.282 61.8652C38.4811 60.09 44.2784 59.7912 50.1777 59.7506Z" fill="black"/>
<path fill-rule="evenodd" clip-rule="evenodd" d="M74.0055 62.7831L72.0075 65.8832L66.2669 60.7849L51.3746 50.7664L34.5869 41.5602L25.8708 38.5791L27.7283 35.1349L28.3592 34.791L33.7746 36.1449L51.6454 45.351L61.9346 51.8495L70.5992 58.0772L74.1192 62.1387L74.0055 62.7831Z" fill="#FFFF00"/>
<path fill-rule="evenodd" clip-rule="evenodd" d="M28.3229 34.722C28.3399 34.7127 28.3599 34.7101 28.3788 34.7148L33.7942 36.0687C33.8 36.0701 33.8056 36.0722 33.8109 36.075L51.6817 45.2811C51.6837 45.2822 51.6856 45.2833 51.6876 45.2845L61.9768 51.783C61.9781 51.7838 61.9794 51.7847 61.9806 51.7856L70.6453 58.0133C70.6502 58.0168 70.6546 58.0209 70.6586 58.0254L74.1786 62.087C74.1939 62.1046 74.2004 62.1283 74.1964 62.1513L74.0826 62.7957C74.0809 62.8059 74.077 62.8156 74.0715 62.8242L72.0735 65.9243C72.0612 65.9433 72.0412 65.956 72.0188 65.9591C71.9963 65.9622 71.9737 65.9553 71.9567 65.9403L66.22 60.8454L51.335 50.8318L34.5562 41.6306L25.8465 38.6516C25.8249 38.6442 25.8077 38.6277 25.7994 38.6065C25.7911 38.5852 25.7925 38.5614 25.8033 38.5413L27.6608 35.0972C27.6679 35.0839 27.6788 35.0731 27.692 35.0659L28.3229 34.722ZM28.3705 34.8727L27.7864 35.1911L25.9834 38.5344L34.6128 41.4859C34.617 41.4874 34.6211 41.4892 34.625 41.4913L51.4127 50.6975C51.4138 50.6981 51.4149 50.6987 51.4159 50.6994C51.4169 50.6999 51.4178 50.7005 51.4187 50.7011L66.311 60.7196C66.3139 60.7215 66.3166 60.7236 66.3192 60.7259L71.9921 65.7642L73.9326 62.7533L74.0372 62.1607L70.5473 58.1339L61.892 51.9129L51.6076 45.4175L33.7478 36.217L28.3705 34.8727Z" fill="black"/>
<path fill-rule="evenodd" clip-rule="evenodd" d="M25.557 38.6598C27.0858 37.6229 38.3208 42.6279 50.0765 49.7163C61.801 56.8251 73.0043 64.858 71.993 66.3613L71.6604 66.8845L71.5078 67.0049C71.5405 66.9815 71.7091 66.7754 71.4913 66.2181C70.9917 64.5744 63.0447 58.2328 49.8585 50.2711C37.0038 42.6059 26.2905 37.986 25.2194 39.3066L25.557 38.6596H25.5568L25.557 38.6598ZM74.4145 62.7384C75.3811 60.829 64.9603 52.9788 52.0403 45.3356C38.8233 37.8445 29.2974 33.435 27.5574 34.7498L27.1708 35.4536C27.1675 35.4923 27.1849 35.4056 27.2666 35.3426C27.583 35.0665 28.1074 35.0851 28.344 35.0808C31.3401 35.1257 39.8969 39.0636 51.9025 45.9463C57.163 49.01 74.1248 59.8884 74.0601 62.9476C74.0646 63.2105 74.0818 63.2647 73.9829 63.3949L74.4144 62.7386V62.7381L74.4145 62.7384Z" fill="#FFFF00"/>
<path fill-rule="evenodd" clip-rule="evenodd" d="M35.526 36.6699C39.7806 38.5459 45.469 41.5225 52.0783 45.2685L52.0796 45.2692C58.5413 49.0919 64.3794 52.967 68.482 56.1261C70.5329 57.7054 72.1526 59.1076 73.1998 60.2362C73.7231 60.8001 74.1066 61.299 74.3289 61.7201C74.5485 62.136 74.6221 62.4978 74.4844 62.772C74.4829 62.7753 74.4811 62.7786 74.479 62.7817L74.0941 63.3671C74.0809 63.3914 74.0645 63.4159 74.0445 63.4422C74.0192 63.4755 73.972 63.4828 73.9379 63.4586C73.9038 63.4345 73.8949 63.3876 73.9179 63.3527L73.9605 63.2878C73.9738 63.2619 73.9798 63.2392 73.983 63.2122C73.9878 63.1723 73.9866 63.1255 73.9846 63.0511C73.9838 63.0219 73.9829 62.9884 73.9823 62.9493L73.9823 62.9464C73.986 62.7724 73.9289 62.5635 73.8098 62.3208C73.691 62.0788 73.513 61.8083 73.2811 61.5127C72.8172 60.9216 72.1431 60.2371 71.3129 59.4894C69.6529 57.9945 67.3771 56.2541 64.933 54.5122C60.0453 51.0289 54.492 47.5447 51.8635 46.0139C45.8619 42.5732 40.7235 39.8693 36.7119 38.0202C34.7061 37.0957 32.983 36.3853 31.5753 35.9034C30.1664 35.4212 29.08 35.1701 28.3438 35.1588C28.3245 35.1592 28.3037 35.1594 28.2815 35.1596C28.1639 35.1608 28.0089 35.1623 27.8466 35.1869C27.6526 35.2163 27.4594 35.2775 27.3173 35.4014C27.3161 35.4025 27.3149 35.4034 27.3137 35.4044C27.2842 35.4272 27.2655 35.4549 27.2538 35.4752C27.2509 35.4803 27.2486 35.4847 27.2463 35.489C27.2461 35.4893 27.246 35.4895 27.2458 35.4899C27.2442 35.4929 27.2407 35.4996 27.2372 35.5048C27.236 35.5066 27.2337 35.51 27.2304 35.5137C27.2283 35.5162 27.2203 35.5255 27.2068 35.5324C27.1899 35.5412 27.1558 35.5493 27.1242 35.5256C27.1022 35.5092 27.0965 35.4871 27.0953 35.4826L27.0953 35.4825C27.0922 35.4708 27.0925 35.4602 27.0926 35.4582C27.0926 35.4581 27.0926 35.458 27.0926 35.4579C27.0927 35.454 27.093 35.4502 27.0932 35.4473C27.0942 35.4366 27.0973 35.4261 27.1025 35.4167L27.4891 34.7129C27.4944 34.7033 27.5016 34.695 27.5104 34.6884C27.7487 34.5083 28.1092 34.4333 28.5682 34.4428C29.0294 34.4524 29.6023 34.5475 30.2773 34.721C31.6276 35.0681 33.399 35.7321 35.526 36.6699ZM74.139 63.0164L74.3458 62.7018C74.3464 62.7008 74.347 62.6998 74.3475 62.6988C74.4471 62.496 74.4052 62.197 74.1917 61.7926C73.9787 61.389 73.6057 60.9017 73.0861 60.3417C72.0476 59.2225 70.4358 57.8265 68.3873 56.2491C64.2913 53.0951 58.4592 49.2236 52.0012 45.4031C45.3937 41.6582 39.7108 38.6847 35.4634 36.8119C33.3392 35.8753 31.5769 35.2153 30.2387 34.8713C29.5694 34.6993 29.0094 34.6071 28.565 34.5979C28.1281 34.5889 27.8145 34.6603 27.6169 34.8026L27.4273 35.1477C27.5553 35.0873 27.6934 35.0532 27.8233 35.0335C27.9976 35.0071 28.1652 35.0055 28.2824 35.0044C28.3042 35.0042 28.3243 35.004 28.3423 35.0037L28.3449 35.0036L28.3449 35.0037C29.1068 35.0151 30.213 35.2731 31.6255 35.7566C33.04 36.2408 34.7683 36.9535 36.7769 37.8793C40.7941 39.7311 45.9369 42.4374 51.9408 45.8794L51.9413 45.8796C54.5735 47.4126 60.131 50.8995 65.023 54.3859C67.4688 56.129 69.7502 57.8733 71.4167 59.3742C72.2498 60.1244 72.9313 60.8157 73.4031 61.4169C73.6391 61.7176 73.8239 61.9975 73.9491 62.2524C74.0736 62.5061 74.1415 62.7401 74.1374 62.9481C74.1378 62.9722 74.1384 62.9949 74.139 63.0164ZM25.5182 38.5926C25.5037 38.6008 25.492 38.6137 25.4852 38.6294L25.1503 39.2711C25.1319 39.3064 25.1432 39.35 25.1765 39.3718C25.2098 39.3937 25.2542 39.3868 25.2793 39.3559C25.3325 39.2903 25.4201 39.2376 25.5507 39.2033C25.6813 39.1691 25.8494 39.1548 26.0553 39.1621C26.4672 39.1767 27.0172 39.2771 27.6929 39.4601C29.0432 39.8257 30.8804 40.5172 33.0885 41.4906C37.5038 43.437 43.3929 46.5066 49.8182 50.338C56.4096 54.3178 61.6906 57.8921 65.3854 60.6762C67.233 62.0684 68.683 63.2622 69.7017 64.2097C70.211 64.6836 70.6115 65.0949 70.8995 65.4378C71.1895 65.783 71.3593 66.0516 71.4168 66.241C71.417 66.2416 71.4172 66.2422 71.4174 66.2428C71.4178 66.2441 71.4183 66.2454 71.4188 66.2467C71.6151 66.749 71.4771 66.9232 71.4632 66.9409C71.4625 66.9418 71.4621 66.9423 71.4621 66.9424L71.4595 66.9444C71.4264 66.9705 71.4202 67.0182 71.4455 67.0519C71.4708 67.0856 71.5184 67.0929 71.5527 67.0684C71.555 67.0667 71.5575 67.0648 71.56 67.0627L71.7082 66.9459C71.715 66.9405 71.7209 66.9339 71.7256 66.9266L72.0571 66.4051C72.0573 66.4048 72.0575 66.4045 72.0577 66.4042C72.1355 66.2879 72.1501 66.1457 72.1181 65.9896C72.0862 65.834 72.007 65.6584 71.8883 65.4658C71.651 65.0804 71.2452 64.6104 70.6982 64.0712C69.603 62.9918 67.9277 61.6221 65.8568 60.0791C61.7142 56.9924 55.98 53.2056 50.1164 49.6504L50.1162 49.6503C44.2363 46.1048 38.4858 43.0799 34.0131 41.0707C31.7771 40.0662 29.8585 39.3148 28.4019 38.8792C27.6738 38.6615 27.0585 38.5219 26.5754 38.4697C26.3337 38.4436 26.1229 38.4391 25.9464 38.4585C25.7732 38.4775 25.6277 38.52 25.5182 38.5926ZM71.678 66.7123L71.9273 66.3201L71.9284 66.3184C71.9765 66.2469 71.9927 66.1505 71.9661 66.0208C71.9393 65.8901 71.8701 65.732 71.7562 65.5472C71.5287 65.1778 71.1335 64.7181 70.5893 64.1817C69.5018 63.1099 67.8332 61.7452 65.7641 60.2035C61.6267 57.1207 55.897 53.3367 50.0361 49.7832C44.1604 46.2402 38.4155 43.2184 33.9495 41.2122C31.7163 40.209 29.8047 39.4606 28.3574 39.0278C27.6335 38.8114 27.0285 38.6747 26.5587 38.624C26.3238 38.5986 26.125 38.595 25.9633 38.6127C25.8111 38.6294 25.6965 38.6646 25.616 38.7142L25.425 39.0801C25.4526 39.07 25.4814 39.0611 25.5114 39.0533C25.6617 39.0138 25.8462 38.9995 26.0608 39.0071C26.49 39.0223 27.0532 39.1261 27.7334 39.3103C29.0948 39.679 30.9402 40.374 33.1511 41.3486C37.5738 43.2983 43.4687 46.3711 49.898 50.2049L49.8983 50.2051C56.4931 54.187 61.7787 57.7643 65.4788 60.5523C67.3287 61.9462 68.7833 63.1436 69.8073 64.0961C70.3193 64.5724 70.7247 64.9884 71.0183 65.338C71.3088 65.6838 71.4963 65.9719 71.5644 66.193C71.6489 66.4101 71.6782 66.5809 71.678 66.7123Z" fill="black"/>
<path d="M34.2064 52.9348C34.2064 57.3405 36.0105 61.3251 38.9332 64.2372C41.8616 67.1556 45.8411 68.9971 50.2538 68.9971C54.6893 68.9971 58.7145 67.1958 61.6304 64.2887C64.5464 61.382 66.3535 57.37 66.3543 52.9489H66.3537V31.507L34.2026 31.4688L34.2059 52.9348H34.2065L34.2064 52.9348Z" fill="white"/>
<path fill-rule="evenodd" clip-rule="evenodd" d="M34.1112 31.3781L66.4439 31.4165V52.8583H66.4445L66.4444 52.9491C66.4436 57.3954 64.6261 61.4302 61.6939 64.3531C58.7617 67.2764 54.7137 69.088 50.2532 69.088C45.8145 69.088 41.8124 67.2355 38.8685 64.3017C35.9497 61.3935 34.1399 57.4208 34.1153 53.0257H34.1146L34.1112 31.3781ZM34.222 52.9349L34.2961 52.9349L34.2927 31.5598L66.2624 31.5978V53.0398H66.2627C66.2373 57.3998 64.4454 61.354 61.5658 64.2246C58.6661 67.1154 54.6636 68.9065 50.2532 68.9065C45.8665 68.9065 41.9095 67.076 38.9967 64.1731C36.0901 61.2771 34.2965 57.3152 34.2965 52.935L34.222 52.9349Z" fill="black"/>
<path d="M34.8072 52.9651V52.9773C34.8072 57.1896 36.5514 61.0256 39.3494 63.8105C42.1529 66.6008 46.0141 68.3356 50.2381 68.3356C54.484 68.3356 58.3373 66.6133 61.129 63.8338C63.9201 61.0543 65.65 57.2181 65.6506 52.9911H65.65V32.189L34.8256 32.184L34.8068 52.965L34.8072 52.9651ZM59.4527 38.4119L59.4538 51.6501L59.4426 53.0504H59.4428C59.4428 53.4189 59.4206 53.839 59.3776 54.1967C59.1271 56.2896 58.1646 58.1139 56.739 59.533C55.0701 61.1944 52.7665 62.2248 50.2278 62.2248C47.7023 62.2248 45.4517 61.1585 43.7756 59.49C42.0563 57.7788 41.0598 55.4323 41.0598 53.0059L41.0562 38.3782L59.4523 38.4114L59.4528 38.4119L59.4527 38.4119Z" fill="#FF0000"/>
<path fill-rule="evenodd" clip-rule="evenodd" d="M34.7562 32.1151L65.7179 32.1201V52.9223H65.7185L65.7185 52.991C65.7179 57.2371 63.9801 61.0906 61.1767 63.8823C58.3727 66.6742 54.5022 68.4042 50.2373 68.4042C45.9942 68.4042 42.1159 66.6615 39.3001 63.8591C36.4987 61.0708 34.7487 57.2329 34.7378 53.0168L34.7372 53.0166L34.7562 32.1151ZM65.5809 53.0597H65.5806V32.2575L34.8935 32.2525L34.8747 52.913L34.8751 52.9132V52.9772C34.8751 57.1702 36.6112 60.9889 39.3971 63.7617C42.1884 66.5399 46.0324 68.2668 50.2373 68.2668C54.4643 68.2668 58.3004 66.5523 61.0797 63.785C63.8434 61.0329 65.5618 57.2404 65.5809 53.0597ZM40.9868 38.3092L59.4799 38.3426L59.5869 38.4488L59.5207 38.4654L59.5217 51.65L59.5217 51.6505L59.5108 53.0207V53.0503C59.5108 53.4211 59.4884 53.844 59.4451 54.2048C59.1926 56.3142 58.2223 58.1525 56.7867 59.5816C55.1054 61.2552 52.7847 62.2934 50.227 62.2934C47.6814 62.2934 45.4139 61.2185 43.7264 59.5386C41.9944 57.8147 40.9903 55.4508 40.9903 53.0058L40.9868 38.3092ZM59.3731 53.119H59.3726L59.3844 51.65L59.3844 51.6494L59.3833 38.4798L41.1242 38.4468L41.1277 53.0058C41.1277 55.4135 42.1167 57.7426 43.8233 59.4412C45.4879 61.0984 47.7217 62.156 50.227 62.156C52.7468 62.156 55.0331 61.1333 56.6898 59.4842C58.1053 58.0751 59.0602 56.2648 59.3087 54.1884C59.3487 53.8558 59.3706 53.4679 59.3731 53.119Z" fill="black"/>
<path d="M36.8046 37.6145C36.8411 36.1196 37.9019 35.7657 37.9095 35.7604C37.9171 35.7554 39.0552 36.1416 39.0514 37.6283L36.8046 37.6145" fill="#FFFF00"/>
<path d="M35.8891 35.7901L35.7045 37.5081L36.8256 37.5105C36.8364 36.0892 37.9017 35.8527 37.9274 35.858C37.9516 35.8566 39.0075 36.1722 39.0357 37.5105H40.1597L39.9567 35.7794L35.8892 35.7897V35.7902L35.8891 35.7901Z" fill="#FFFF00"/>
<path fill-rule="evenodd" clip-rule="evenodd" d="M35.8268 35.7223L35.82 35.7223V35.7857L35.6277 37.5757L36.8914 37.5785L36.8919 37.5111C36.8971 36.8198 37.1577 36.4237 37.4139 36.2004C37.543 36.0879 37.6724 36.018 37.7707 35.9766C37.8198 35.9559 37.8609 35.9425 37.8897 35.9345C37.9042 35.9305 37.9152 35.928 37.9224 35.9266C37.9223 35.9266 37.9225 35.9266 37.9224 35.9266C37.9227 35.9267 37.9233 35.9268 37.9237 35.9269C37.931 35.9289 37.9422 35.9324 37.9567 35.9376C37.9856 35.9479 38.0265 35.9643 38.0756 35.9883C38.1738 36.0364 38.3033 36.1141 38.433 36.2321C38.691 36.4667 38.9529 36.863 38.9665 37.5121L38.9679 37.5783H40.2343L40.0154 35.7117L35.9168 35.722L35.8362 35.6348L35.8268 35.7223ZM35.939 35.9457L35.7784 37.4407L36.7578 37.4428C36.7793 36.7533 37.0483 36.3395 37.325 36.0983C37.4657 35.9757 37.607 35.8989 37.7157 35.8529L35.9554 35.8573V35.9635L35.939 35.9457ZM38.1039 35.8519C38.114 35.8565 38.1244 35.8615 38.1351 35.8667C38.2426 35.9193 38.3833 36.0038 38.5241 36.1319C38.798 36.381 39.0692 36.7922 39.0997 37.4429H40.0821L39.895 35.8474L38.1039 35.8519Z" fill="black"/>
<path d="M35.6293 37.5142H40.2177C40.3144 37.5142 40.3935 37.6097 40.3935 37.7265C40.3935 37.843 40.3144 37.938 40.2177 37.938H35.6293C35.5326 37.938 35.4535 37.843 35.4535 37.7265C35.4535 37.6097 35.5326 37.5142 35.6293 37.5142Z" fill="#FFFF00"/>
<path fill-rule="evenodd" clip-rule="evenodd" d="M35.6285 37.582C35.5806 37.582 35.5205 37.6347 35.5205 37.7266C35.5205 37.8181 35.5804 37.8705 35.6285 37.8705H40.217C40.2651 37.8705 40.3251 37.8181 40.3251 37.7266C40.3251 37.6347 40.2649 37.582 40.217 37.582H35.6285ZM35.3851 37.7266C35.3851 37.585 35.483 37.4467 35.6285 37.4467H40.217C40.3625 37.4467 40.4604 37.585 40.4604 37.7266C40.4604 37.8683 40.3623 38.0059 40.217 38.0059H35.6285C35.4833 38.0059 35.3851 37.8683 35.3851 37.7266Z" fill="black"/>
<path d="M37.296 37.5071C37.301 36.6102 37.9085 36.3563 37.9116 36.3568C37.9118 36.3568 38.5458 36.6185 38.5508 37.5071H37.296" fill="#FFFF00"/>
<path fill-rule="evenodd" clip-rule="evenodd" d="M37.9116 36.4315C37.927 36.4396 37.9486 36.4516 37.9745 36.4683C38.03 36.5041 38.1046 36.5609 38.1795 36.6439C38.3203 36.8001 38.4645 37.0517 38.4818 37.4393H37.3656C37.3822 37.0468 37.5209 36.7947 37.6559 36.6398C37.7277 36.5574 37.7992 36.5016 37.8523 36.4667C37.8766 36.4507 37.8969 36.4392 37.9116 36.4315ZM37.2964 37.507L37.2286 37.5066C37.2312 37.0413 37.3907 36.7381 37.5538 36.5508C37.6349 36.4577 37.7162 36.3941 37.778 36.3535C37.8089 36.3332 37.835 36.3186 37.854 36.3089C37.8635 36.3041 37.8713 36.3004 37.8771 36.2978C37.88 36.2965 37.8826 36.2954 37.8849 36.2945C37.886 36.2941 37.8875 36.2935 37.8891 36.2929C37.8898 36.2927 37.8914 36.2921 37.8934 36.2916C37.8944 36.2913 37.8964 36.2907 37.8991 36.2902C37.9004 36.29 37.9037 36.2895 37.9057 36.2893C37.907 36.2892 37.9093 36.2892 37.9119 36.2892C37.9129 36.2893 37.9139 36.2892 37.9149 36.2893C37.9175 36.2894 37.9202 36.2896 37.9224 36.2898L37.9223 36.2904C37.9295 36.2916 37.9353 36.2931 37.9359 36.2934L37.9369 36.2938L37.9377 36.2941L37.9386 36.2944L37.9407 36.2953C37.9423 36.2961 37.9445 36.297 37.9473 36.2983C37.9528 36.3008 37.9605 36.3045 37.9701 36.3094C37.9893 36.3192 38.0161 36.334 38.0479 36.3546C38.1116 36.3956 38.1958 36.4599 38.28 36.5533C38.4495 36.7412 38.6163 37.0445 38.6189 37.5066L38.6193 37.5747H37.2964V37.507Z" fill="black"/>
<path d="M35.7254 35.0748H40.1241C40.2167 35.0748 40.2927 35.161 40.2927 35.2656C40.2927 35.3705 40.2167 35.4564 40.1241 35.4564H35.7254C35.6328 35.4564 35.5568 35.371 35.5568 35.2656C35.5568 35.161 35.6328 35.0748 35.7254 35.0748Z" fill="#FFFF00"/>
<path fill-rule="evenodd" clip-rule="evenodd" d="M35.725 35.1427C35.6774 35.1427 35.6241 35.1904 35.6241 35.2658C35.6241 35.3417 35.6772 35.3889 35.725 35.3889H40.1236C40.1712 35.3889 40.2245 35.3414 40.2245 35.2658C40.2245 35.1904 40.1712 35.1427 40.1236 35.1427H35.725ZM35.4887 35.2658C35.4887 35.132 35.5872 35.0073 35.725 35.0073H40.1236C40.2613 35.0073 40.3599 35.132 40.3599 35.2658C40.3599 35.3999 40.2613 35.5243 40.1236 35.5243H35.725C35.5874 35.5243 35.4887 35.4005 35.4887 35.2658Z" fill="black"/>
<path d="M35.8178 35.459H40.025C40.1136 35.459 40.1862 35.5447 40.1862 35.6496C40.1862 35.7547 40.1136 35.8404 40.025 35.8404H35.8178C35.7292 35.8404 35.6566 35.7547 35.6566 35.6496C35.6566 35.5447 35.7292 35.459 35.8178 35.459Z" fill="#FFFF00"/>
<path fill-rule="evenodd" clip-rule="evenodd" d="M35.8195 35.5281C35.7785 35.5281 35.726 35.5724 35.726 35.6509C35.726 35.7297 35.7785 35.774 35.8195 35.774H40.0267C40.0677 35.774 40.1202 35.7297 40.1202 35.6509C40.1202 35.5724 40.0678 35.5281 40.0267 35.5281H35.8195ZM35.5906 35.6509C35.5906 35.5198 35.6834 35.3927 35.8195 35.3927H40.0267C40.1629 35.3927 40.2556 35.5198 40.2556 35.6509C40.2556 35.7823 40.1629 35.9094 40.0267 35.9094H35.8195C35.6833 35.9094 35.5906 35.7823 35.5906 35.6509Z" fill="black"/>
<path d="M37.1771 32.5916L37.5093 32.5922V32.8281H37.7517V32.5869L38.0919 32.588V32.8283H38.335V32.587H38.6756L38.675 33.1318C38.675 33.2173 38.6062 33.2727 38.5265 33.2727H37.332C37.2518 33.2727 37.1778 33.2085 37.1775 33.1301L37.1767 32.5918H37.177L37.1771 32.5916Z" fill="#FFFF00"/>
<path fill-rule="evenodd" clip-rule="evenodd" d="M37.6847 32.5194L38.1604 32.5209V32.7609H38.2681V32.5198H38.7441L38.7434 33.1322C38.7434 33.1322 38.7434 33.1321 38.7434 33.1322M37.6847 32.5194V32.5873V32.5194ZM37.8201 32.6552V32.8962H37.4424V32.6602L37.2453 32.6598L37.246 33.1303C37.246 33.1303 37.246 33.1303 37.246 33.1303C37.2461 33.1653 37.2836 33.2054 37.3328 33.2054H38.5272C38.5762 33.2054 38.6081 33.174 38.6081 33.1322L38.6085 32.6551H38.4035V32.8963H38.025V32.6559L37.8201 32.6552ZM37.1483 32.5245L37.1486 32.5243L37.5777 32.525V32.7608H37.6847V32.5873" fill="black"/>
<path d="M38.4269 33.3203L38.5019 35.0672L37.3368 35.0629L37.414 33.3158L38.4269 33.3203" fill="#FFFF00"/>
<path fill-rule="evenodd" clip-rule="evenodd" d="M37.3504 33.2482L38.4284 33.253L38.4281 33.3207L38.4957 33.3178L38.5738 35.1355L37.2673 35.1307L37.3504 33.2482ZM38.3632 33.3881L37.4799 33.3841L37.4088 34.9958L38.4324 34.9996L38.3632 33.3881Z" fill="black"/>
<path d="M37.0061 34.1298L37.0417 35.0714L35.9246 35.0719L35.9561 34.1298H37.0063H37.0061L37.0061 34.1298Z" fill="#FFFF00"/>
<path fill-rule="evenodd" clip-rule="evenodd" d="M35.8909 34.0621H37.0063L37.0065 34.116L37.0739 34.1272L37.1122 35.139L35.8548 35.1397L35.8909 34.0621ZM36.9411 34.1975H36.0218L35.9948 35.0042L36.9716 35.0037L36.9411 34.1975Z" fill="black"/>
<path d="M35.7506 33.4476L36.0754 33.4484V33.6845H36.313V33.4429L36.6459 33.444V33.6847H36.8839V33.443L37.217 33.4435L37.2165 33.9882C37.2165 34.0733 37.1492 34.1287 37.0713 34.1287H35.9024C35.8241 34.1287 35.7512 34.0649 35.751 33.9863L35.7502 33.4478H35.7504L35.7506 33.4476Z" fill="#FFFF00"/>
<path fill-rule="evenodd" clip-rule="evenodd" d="M36.245 33.3751L36.7133 33.3766V33.6171H36.816V33.3754L37.2845 33.3761L37.2839 33.9884C37.2839 33.9884 37.2839 33.9884 37.2839 33.9884M36.245 33.3751V33.443V33.3751ZM36.3804 33.511V33.7524H36.0074V33.5161L35.8177 33.5156L35.8184 33.9863C35.8184 33.9863 35.8184 33.9863 35.8184 33.9863C35.8186 34.0225 35.8559 34.0612 35.9021 34.0612H37.071C37.1168 34.0612 37.1485 34.0309 37.1485 33.9884L37.149 33.5113L36.9514 33.511V33.7525H36.5779V33.5116L36.3804 33.511ZM35.711 33.3803L35.7112 33.3799L36.1428 33.381V33.617H36.245V33.443" fill="black"/>
<path d="M37.8094 33.8723C37.8022 33.7025 38.0468 33.7006 38.0439 33.8723V34.2884H37.8094V33.8724" fill="black"/>
<path d="M36.3654 34.4772C36.3646 34.3131 36.592 34.3098 36.5891 34.4772V34.7987H36.3655V34.4772" fill="black"/>
<path d="M48.2952 50.6058V50.6072C48.2952 51.2061 48.5252 51.7518 48.8941 52.1477C49.2638 52.5449 49.7729 52.7915 50.3297 52.7915C50.8895 52.7915 51.3976 52.5465 51.7656 52.1511C52.1333 51.7561 52.3619 51.2109 52.3619 50.6096V47.6939L48.3025 47.6906L48.2951 50.6057" fill="#003399"/>
<path d="M49.2262 49.2012C49.4485 49.2012 49.6286 49.0211 49.6286 48.7989C49.6286 48.5766 49.4485 48.3965 49.2262 48.3965C49.004 48.3965 48.8239 48.5766 48.8239 48.7989C48.8239 49.0211 49.004 49.2012 49.2262 49.2012Z" fill="white"/>
<path d="M51.4787 49.2038C51.7009 49.2038 51.881 49.0236 51.881 48.8014C51.881 48.5792 51.7009 48.399 51.4787 48.399C51.2564 48.399 51.0763 48.5792 51.0763 48.8014C51.0763 49.0236 51.2564 49.2038 51.4787 49.2038Z" fill="white"/>
<path d="M50.3502 50.2842C50.5724 50.2842 50.7525 50.1041 50.7525 49.8819C50.7525 49.6596 50.5724 49.4795 50.3502 49.4795C50.128 49.4795 49.9478 49.6596 49.9478 49.8819C49.9478 50.1041 50.128 50.2842 50.3502 50.2842Z" fill="white"/>
<path d="M49.2262 51.4174C49.4485 51.4174 49.6286 51.2373 49.6286 51.015C49.6286 50.7928 49.4485 50.6127 49.2262 50.6127C49.004 50.6127 48.8239 50.7928 48.8239 51.015C48.8239 51.2373 49.004 51.4174 49.2262 51.4174Z" fill="white"/>
<path d="M51.4763 51.4132C51.6985 51.4132 51.8786 51.2331 51.8786 51.0109C51.8786 50.7887 51.6985 50.6085 51.4763 50.6085C51.2541 50.6085 51.0739 50.7887 51.0739 51.0109C51.0739 51.2331 51.2541 51.4132 51.4763 51.4132Z" fill="white"/>
</g>
</svg>
