<svg width="48" height="48" viewBox="0 0 48 48" fill="none" xmlns="http://www.w3.org/2000/svg">
<mask id="mask0_617_79395" style="mask-type:alpha" maskUnits="userSpaceOnUse" x="0" y="0" width="48" height="48">
<rect width="48" height="48" rx="24" fill="#334155"/>
</mask>
<g mask="url(#mask0_617_79395)">
<path d="M48 0H24V48H48V0Z" fill="#FF0000"/>
<path d="M24 0H0V48H24V0Z" fill="#006600"/>
<path fill-rule="evenodd" clip-rule="evenodd" d="M35.6329 33.0739C31.2021 32.9405 10.8843 20.2582 10.745 18.2386L11.8669 16.3676C13.8823 19.2959 34.6531 31.6297 36.6932 31.1926L35.6328 33.0733" fill="#FFFF00"/>
<path fill-rule="evenodd" clip-rule="evenodd" d="M11.866 16.3257C11.8803 16.3253 11.8939 16.3321 11.902 16.3439C12.15 16.7043 12.6905 17.2139 13.4554 17.8307C14.2191 18.4464 15.2028 19.1661 16.3337 19.9464C18.5952 21.507 21.4434 23.309 24.2927 25.0061C27.142 26.7033 29.9917 28.295 32.2561 29.435C33.3885 30.005 34.3738 30.4617 35.1392 30.7622C35.5219 30.9125 35.8488 31.0233 36.1111 31.0897C36.3753 31.1566 36.5677 31.1768 36.6848 31.1516C36.701 31.1482 36.7177 31.1545 36.7275 31.1678C36.7373 31.1812 36.7384 31.199 36.7302 31.2134L35.6722 33.0899C35.6658 33.1057 35.6501 33.1166 35.632 33.116C35.0709 33.0991 34.2633 32.8842 33.2829 32.5205C32.3012 32.1563 31.1421 31.6414 29.8764 31.0214C27.3449 29.7814 24.3843 28.1199 21.5582 26.3996C18.7321 24.6793 16.0398 22.8998 14.0449 21.4238C13.0475 20.6858 12.2236 20.0232 11.6444 19.4812C11.3548 19.2103 11.1255 18.9688 10.966 18.7624C10.808 18.558 10.7131 18.3814 10.7035 18.2416C10.7029 18.233 10.705 18.2245 10.7094 18.2171L11.8313 16.3461C11.8387 16.3338 11.8518 16.3262 11.866 16.3257ZM35.6089 33.0311L36.616 31.2448C36.4829 31.2523 36.3051 31.2255 36.0904 31.1712C35.8233 31.1035 35.4928 30.9913 35.1084 30.8404C34.3396 30.5386 33.3517 30.0806 32.2184 29.51C29.9515 28.3689 27.1 26.7761 24.2497 25.0783C21.3993 23.3806 18.5495 21.5775 16.2859 20.0156C15.1542 19.2346 14.1686 18.5137 13.4027 17.8961C12.6736 17.3083 12.1402 16.8115 11.8704 16.4444L10.7885 18.2486C10.8012 18.3604 10.8812 18.5152 11.0325 18.711C11.188 18.9123 11.4138 19.1504 11.7018 19.4199C12.2776 19.9586 13.0986 20.6191 14.0948 21.3562C16.0871 22.8303 18.7773 24.6084 21.6019 26.3278C24.4265 28.0472 27.3848 29.7074 29.9134 30.946C31.1777 31.5653 32.334 32.0789 33.3121 32.4417C34.2761 32.7993 35.0632 33.009 35.6089 33.0311Z" fill="black"/>
<path fill-rule="evenodd" clip-rule="evenodd" d="M11.6311 16.1138C11.2336 17.1835 16.933 20.7071 23.7902 24.8777C30.6472 29.048 36.5597 31.6252 36.998 31.2556C37.0248 31.2079 37.2136 30.883 37.1963 30.8856C37.1141 31.0094 36.9142 31.0484 36.6022 30.9585C34.7496 30.4242 29.9179 28.2063 23.934 24.5776C17.9503 20.9487 12.7442 17.6045 11.9351 16.1836C11.8788 16.0852 11.8387 15.9055 11.8469 15.7658L11.8272 15.7655L11.6549 16.0666L11.6312 16.1139H11.6311L11.6311 16.1138ZM35.7372 33.133C35.6621 33.2693 35.522 33.2738 35.2559 33.2446C33.5986 33.0612 28.5696 30.6156 22.6189 27.0534C15.6947 22.9086 9.97621 19.1319 10.5966 18.1448L10.7654 17.8464L10.7986 17.8568C10.2408 19.5295 22.0843 26.3015 22.7816 26.7333C29.6344 30.9789 35.4118 33.4582 35.9231 32.8138L35.7371 33.1337V33.1334L35.7372 33.133Z" fill="#FFFF00"/>
<path fill-rule="evenodd" clip-rule="evenodd" d="M11.7912 15.7448C11.7988 15.7315 11.813 15.7234 11.8283 15.7236L11.848 15.7239C11.8595 15.7241 11.8704 15.7289 11.8782 15.7373C11.886 15.7457 11.89 15.757 11.8893 15.7684C11.8816 15.9011 11.9204 16.0725 11.9721 16.1629C12.1701 16.5106 12.6414 16.9818 13.337 17.5519C14.031 18.1209 14.9434 18.7847 16.0183 19.518C18.1679 20.9846 20.9646 22.7274 23.9563 24.5419C29.9395 28.1701 34.7674 30.3856 36.6144 30.9183C36.7671 30.9623 36.8888 30.9736 36.9801 30.9607C37.0709 30.9479 37.1291 30.9118 37.1618 30.8625C37.1684 30.8526 37.1789 30.8459 37.1906 30.8442C37.1981 30.8431 37.2099 30.8434 37.2212 30.8511C37.2322 30.8586 37.2366 30.8689 37.2384 30.8752C37.2412 30.8856 37.2395 30.8946 37.239 30.8968L37.239 30.897C37.2377 30.9035 37.2352 30.9102 37.2333 30.9148C37.229 30.9252 37.2223 30.9392 37.2144 30.9548C37.1983 30.9864 37.1752 31.0288 37.1509 31.0723C37.1175 31.1323 37.0805 31.1971 37.0569 31.2383C37.0467 31.2562 37.039 31.2697 37.0352 31.2764C37.0327 31.2808 37.0295 31.2847 37.0256 31.2879C36.9863 31.3211 36.9244 31.3325 36.8536 31.3329C36.7805 31.3334 36.688 31.322 36.5782 31.3001C36.3584 31.2563 36.0625 31.1689 35.7002 31.0413C34.9753 30.7858 33.9795 30.3673 32.7839 29.8074C30.3923 28.6873 27.1986 26.9996 23.7689 24.9137C20.3406 22.8286 17.2003 20.9044 14.9668 19.3677C13.8503 18.5994 12.9588 17.9269 12.3709 17.3788C12.0771 17.1049 11.8573 16.8604 11.7232 16.6491C11.5904 16.4397 11.5353 16.2524 11.5922 16.0993C11.5932 16.0967 11.5944 16.0942 11.5958 16.0919L11.6179 16.048C11.6182 16.0473 11.6186 16.0466 11.619 16.0459L11.7912 15.7448ZM11.6699 16.1318C11.6292 16.2458 11.6658 16.4016 11.7942 16.6041C11.9226 16.8065 12.1364 17.0453 12.4282 17.3173C13.0114 17.8611 13.8987 18.5307 15.0145 19.2984C17.2456 20.8336 20.3837 22.7565 23.8126 24.8419C27.2399 26.9264 30.4309 28.6125 32.8195 29.7312C34.0139 30.2907 35.0069 30.7078 35.7282 30.962C36.089 31.0891 36.3805 31.175 36.5947 31.2177C36.7019 31.2391 36.7881 31.2493 36.8531 31.2489C36.9137 31.2485 36.9487 31.2389 36.9663 31.2275C36.9711 31.2191 36.9777 31.2074 36.9858 31.1934C37.0092 31.1524 37.0442 31.0913 37.0775 31.0314C37.0793 31.0282 37.0811 31.025 37.0829 31.0218C37.055 31.0319 37.0246 31.0393 36.9919 31.044C36.8847 31.0591 36.7504 31.045 36.5911 30.9991C34.733 30.4631 29.8973 28.2428 23.9128 24.6137C20.9208 22.7992 18.1225 21.0554 15.9709 19.5875C14.8952 18.8535 13.9804 18.1881 13.2837 17.6169C12.5886 17.0471 12.1057 16.5673 11.8991 16.2046M11.6699 16.1318L11.6925 16.0867L11.8083 15.8841C11.8197 16.0024 11.8541 16.1258 11.8991 16.2046M10.7293 17.8259C10.7391 17.8087 10.7595 17.8006 10.7784 17.8064L10.8116 17.8168C10.8224 17.8202 10.8314 17.8277 10.8365 17.8378C10.8417 17.8478 10.8426 17.8595 10.839 17.8702C10.8085 17.9618 10.8189 18.0754 10.8732 18.212C10.9274 18.3484 11.0237 18.5035 11.1583 18.6749C11.4275 19.0176 11.8445 19.4189 12.3651 19.8567C13.406 20.7319 14.8542 21.7476 16.343 22.7254C18.7659 24.3167 21.2911 25.8043 22.3372 26.4206C22.5768 26.5618 22.7389 26.6573 22.8042 26.6978C26.2295 28.8198 29.3854 30.5001 31.7483 31.5692C32.9299 32.1038 33.9121 32.4851 34.6299 32.6924C34.9891 32.7962 35.2801 32.8558 35.496 32.8699C35.6039 32.877 35.6912 32.8725 35.7579 32.8575C35.8248 32.8425 35.8669 32.8178 35.8907 32.7879C35.9044 32.7706 35.9291 32.7669 35.9473 32.7793C35.9655 32.7917 35.971 32.8161 35.9599 32.8351L35.7739 33.155C35.7733 33.156 35.7727 33.1571 35.772 33.158C35.7277 33.2355 35.6633 33.2761 35.5765 33.2923C35.4918 33.3082 35.3844 33.3011 35.2519 33.2865C34.8317 33.24 34.2023 33.051 33.4043 32.7401C32.6054 32.4288 31.6343 31.9941 30.5295 31.454C28.3199 30.3737 25.5739 28.8711 22.5978 27.0896C19.1356 25.0171 15.9737 23.036 13.7546 21.4493C12.6454 20.6561 11.77 19.9604 11.2104 19.4002C10.9309 19.1204 10.728 18.8723 10.6145 18.661C10.5022 18.4518 10.4716 18.2666 10.561 18.1235L10.7293 17.8259ZM35.7038 33.1084L35.8065 32.9318C35.7967 32.9346 35.7866 32.9372 35.7763 32.9395C35.6988 32.957 35.6028 32.9611 35.4905 32.9538C35.2658 32.9391 34.968 32.8776 34.6066 32.7731C33.8832 32.5642 32.8969 32.1811 31.7136 31.6457C29.3468 30.5749 26.1876 28.8928 22.76 26.7692C22.6957 26.7294 22.5354 26.635 22.2979 26.4951C21.2549 25.8806 18.7231 24.3891 16.2969 22.7957C14.8074 21.8174 13.3558 20.7995 12.311 19.921C11.7889 19.4819 11.3667 19.0763 11.0922 18.7268C10.955 18.5521 10.8534 18.3898 10.7951 18.243C10.7584 18.1508 10.7382 18.0629 10.738 17.9812L10.6327 18.1674C10.5677 18.2709 10.5801 18.4193 10.6886 18.6213C10.7962 18.8217 10.9924 19.063 11.2699 19.3408C11.8244 19.8959 12.6951 20.5884 13.8035 21.3809C16.0196 22.9655 19.1791 24.9452 22.641 27.0175C25.6156 28.7981 28.3595 30.2995 30.5664 31.3785C31.6699 31.9179 32.6388 32.3516 33.4348 32.6618C34.2319 32.9723 34.8526 33.1578 35.2611 33.203C35.3947 33.2177 35.4903 33.223 35.561 33.2097C35.6278 33.1972 35.6702 33.1688 35.701 33.1129C35.7019 33.1113 35.7028 33.1098 35.7038 33.1084Z" fill="black"/>
<path fill-rule="evenodd" clip-rule="evenodd" d="M24.183 19.4619C28.6178 19.4268 34.0903 18.8558 37.2397 17.6007L36.5611 16.4982C34.6997 17.5285 29.197 18.206 24.1455 18.3073C18.1709 18.2524 13.9537 17.696 11.8406 16.2782L11.2001 17.4522C15.0844 19.0959 19.0648 19.445 24.183 19.462" fill="#FFFF00"/>
<path fill-rule="evenodd" clip-rule="evenodd" d="M11.8304 16.2375C11.8418 16.2347 11.854 16.2369 11.8638 16.2435C12.9126 16.9472 14.488 17.4396 16.5512 17.7625C18.6134 18.0852 21.1589 18.238 24.145 18.2655C26.6692 18.2148 29.3058 18.0202 31.5435 17.7096C32.6625 17.5544 33.6812 17.3702 34.536 17.1606C35.3914 16.9509 36.0801 16.7164 36.5405 16.4616C36.5602 16.4507 36.5849 16.4572 36.5966 16.4763L37.2752 17.5788C37.2817 17.5894 37.2832 17.6023 37.2793 17.614C37.2754 17.6258 37.2665 17.6353 37.255 17.6398C34.0987 18.8978 28.6213 19.4687 24.1861 19.504C24.1849 19.5041 24.1838 19.5041 24.1826 19.5041C19.063 19.4871 15.0757 19.1381 11.1835 17.491C11.1725 17.4864 11.1641 17.4774 11.1601 17.4662C11.1562 17.455 11.1573 17.4426 11.1629 17.4322L11.8035 16.2582C11.8091 16.2479 11.8189 16.2403 11.8304 16.2375ZM24.1799 19.4201C24.1807 19.42 24.1815 19.42 24.1824 19.42C28.5943 19.3851 34.0284 18.8195 37.1774 17.5802L36.546 16.5543C36.0764 16.8071 35.3925 17.0372 34.556 17.2422C33.6976 17.4527 32.6759 17.6373 31.5551 17.7929C29.3134 18.104 26.6732 18.2988 24.1461 18.3495L24.1449 18.3495V18.3495C21.1566 18.322 18.6064 18.1691 16.5382 17.8455C14.4956 17.5259 12.9191 17.0391 11.8553 16.3387L11.259 17.4317C15.121 19.0562 19.0833 19.403 24.1799 19.4201Z" fill="black"/>
<path fill-rule="evenodd" clip-rule="evenodd" d="M37.4223 17.6255C37.3139 17.7989 35.26 18.5072 32.2342 19.0299C30.1827 19.3427 27.5066 19.6101 24.167 19.6133C20.9941 19.6163 18.4022 19.3904 16.44 19.1245C13.2638 18.6265 11.6245 17.9335 11.0185 17.6887C11.0764 17.5734 11.1137 17.4926 11.1695 17.3849C12.9141 18.0796 14.5611 18.4984 16.4905 18.7953C18.4398 19.0593 21.0005 19.2884 24.1576 19.2854C27.4817 19.282 30.1283 18.9943 32.168 18.6909C35.2707 18.1904 36.9656 17.5464 37.2036 17.2473L37.4227 17.6255H37.4224H37.4223ZM36.8268 16.5076C36.4905 16.7776 34.8148 17.3719 31.8666 17.8427C29.8991 18.1247 27.3974 18.3771 24.2011 18.3802C21.1645 18.3832 18.6837 18.1785 16.7966 17.9036C13.8026 17.5126 12.2091 16.8073 11.6346 16.6016C11.6917 16.5028 11.7499 16.4047 11.8097 16.3063C12.2567 16.5314 13.7945 17.1556 16.8295 17.5856C18.6951 17.8501 21.1798 18.0472 24.2013 18.0441C27.3825 18.0409 29.8557 17.7836 31.8108 17.5032C34.7742 17.0955 36.3687 16.3376 36.6109 16.1478L36.8269 16.5073V16.5076L36.8268 16.5076Z" fill="#FFFF00"/>
<path fill-rule="evenodd" clip-rule="evenodd" d="M36.6188 16.1067C36.6306 16.1088 36.6409 16.116 36.6472 16.1263L36.8632 16.4858C36.8671 16.4923 36.8692 16.4998 36.8692 16.5074V16.5077C36.8692 16.5204 36.8634 16.5325 36.8535 16.5404C36.8527 16.5411 36.8518 16.5418 36.851 16.5424C36.761 16.6137 36.589 16.7027 36.3404 16.803C36.0883 16.9047 35.7538 17.0195 35.3381 17.1404C34.5067 17.3821 33.349 17.6487 31.8735 17.8844L31.8729 17.8845C29.9037 18.1667 27.4 18.4192 24.2014 18.4224C21.1631 18.4253 18.6803 18.2206 16.7912 17.9454C14.1413 17.5993 12.5855 17.0071 11.8633 16.7322C11.7682 16.6959 11.6875 16.6652 11.6207 16.6413C11.6089 16.6371 11.5997 16.6279 11.5954 16.6162C11.5911 16.6045 11.5922 16.5915 11.5985 16.5807C11.6558 16.4816 11.7142 16.3833 11.7741 16.2846C11.7854 16.2659 11.8093 16.259 11.8289 16.2689C12.2708 16.4914 13.804 17.1146 16.8357 17.5441L16.8357 17.5441C18.6991 17.8083 21.1818 18.0054 24.2015 18.0023C27.3803 17.999 29.8515 17.742 31.8051 17.4617L31.8053 17.4617C33.2846 17.2582 34.4215 16.9673 35.2184 16.704C35.6168 16.5723 35.93 16.4476 36.1584 16.3442C36.3879 16.2402 36.5289 16.159 36.5852 16.1149C36.5947 16.1075 36.6069 16.1045 36.6188 16.1067ZM36.7716 16.4966L36.5985 16.2086C36.5214 16.26 36.3856 16.3335 36.193 16.4207C35.9617 16.5255 35.6456 16.6513 35.2447 16.7838C34.4429 17.0488 33.301 17.3407 31.8169 17.5449C29.8603 17.8256 27.3851 18.0831 24.2016 18.0863C21.1783 18.0894 18.6916 17.8922 16.8239 17.6273C13.8594 17.2074 12.3189 16.6018 11.8259 16.3612C11.782 16.434 11.7389 16.5065 11.6964 16.5794C11.7532 16.6003 11.8185 16.6252 11.8923 16.6533C12.614 16.928 14.1622 17.5173 16.8024 17.8621L16.803 17.8622L16.803 17.8622C18.6878 18.1368 21.1666 18.3413 24.2013 18.3383C27.3952 18.3352 29.8948 18.0831 31.8606 17.8013C33.3331 17.5661 34.4872 17.3003 35.3147 17.0597C35.7285 16.9393 36.0602 16.8255 36.309 16.7251C36.5316 16.6353 36.685 16.5574 36.7716 16.4966ZM37.2069 17.2056C37.2208 17.2066 37.2333 17.2144 37.2402 17.2264L37.4593 17.6046C37.4669 17.6176 37.4669 17.6337 37.4594 17.6467C37.4579 17.6493 37.4561 17.6518 37.454 17.654C37.442 17.6703 37.4234 17.6853 37.4033 17.699C37.3796 17.7152 37.3488 17.7329 37.3117 17.7518C37.2375 17.7897 37.135 17.8342 37.0069 17.8839C36.7503 17.9834 36.3876 18.1049 35.9343 18.2372C35.0274 18.5017 33.756 18.8099 32.2416 19.0715L32.2408 19.0716C30.1873 19.3847 27.5091 19.6522 24.1673 19.6555C20.9924 19.6585 18.3986 19.4325 16.4346 19.1663L16.4338 19.1661L16.4338 19.1661C13.3613 18.6844 11.7241 18.0202 11.0685 17.7543C11.0455 17.745 11.0236 17.7361 11.003 17.7278C10.9921 17.7234 10.9836 17.7146 10.9794 17.7036C10.9753 17.6926 10.9759 17.6804 10.9812 17.6699C11.0045 17.6235 11.0248 17.5822 11.0443 17.5421C11.0726 17.4843 11.0995 17.4293 11.1325 17.3657C11.1425 17.3466 11.1653 17.3381 11.1854 17.3461C12.9264 18.0393 14.5701 18.4574 16.4967 18.7538C18.4444 19.0176 21.003 19.2465 24.1578 19.2435C27.4792 19.2402 30.1237 18.9527 32.1618 18.6495C33.7115 18.3995 34.9089 18.1138 35.7478 17.8536C36.1674 17.7235 36.4968 17.5999 36.7354 17.4906C36.8548 17.436 36.9509 17.3852 37.0241 17.3392C37.0979 17.2929 37.1457 17.2531 37.171 17.2213C37.1796 17.2104 37.1931 17.2045 37.2069 17.2056ZM37.3705 17.619L37.1956 17.317C37.1627 17.347 37.1201 17.3782 37.0687 17.4104C36.9915 17.4589 36.8919 17.5114 36.7704 17.567C36.5274 17.6783 36.1945 17.8031 35.7727 17.9339C34.9291 18.1955 33.7278 18.4821 32.1749 18.7325L32.1744 18.7326C30.1332 19.0363 27.4845 19.3242 24.1579 19.3276C20.9987 19.3305 18.4361 19.1013 16.4851 18.8371L16.4843 18.837L16.4843 18.8369C14.5654 18.5417 12.9246 18.1258 11.1897 17.4382C11.1647 17.4872 11.1433 17.5311 11.1206 17.5775C11.1068 17.6058 11.0925 17.6351 11.0766 17.6669C11.0844 17.6701 11.0922 17.6733 11.1003 17.6765C11.7528 17.9412 13.3834 18.6028 16.4463 19.083C18.4068 19.3487 20.9966 19.5744 24.1672 19.5714C27.5043 19.5682 30.1782 19.301 32.2278 18.9886C33.739 18.7275 35.0072 18.4201 35.9107 18.1565C36.3626 18.0247 36.7229 17.9039 36.9765 17.8056C37.1034 17.7563 37.2028 17.713 37.2735 17.6769C37.3089 17.6589 37.3362 17.643 37.356 17.6296C37.3617 17.6256 37.3666 17.6221 37.3705 17.619Z" fill="black"/>
<path fill-rule="evenodd" clip-rule="evenodd" d="M9.62077 24.8054C12.3485 26.2725 18.4068 27.0119 24.1399 27.0628C29.3599 27.071 36.1604 26.2559 38.7034 24.9082L38.6335 23.4398C37.8379 24.6831 30.5502 25.8758 24.0833 25.8269C17.6163 25.7782 11.611 24.7793 9.60916 23.4863L9.62081 24.805" fill="#FFFF00"/>
<path fill-rule="evenodd" clip-rule="evenodd" d="M38.6444 23.3994C38.6621 23.4041 38.6747 23.4197 38.6756 23.438L38.7455 24.9064C38.7463 24.9227 38.7376 24.9379 38.7232 24.9455C37.4445 25.6231 35.102 26.1645 32.4314 26.5358C29.759 26.9072 26.7519 27.1091 24.1399 27.105L24.1396 27.105C21.2716 27.0795 18.3218 26.8818 15.7474 26.5069C13.1743 26.1322 10.9716 25.5798 9.60098 24.8426C9.58634 24.8347 9.57826 24.8194 9.57889 24.8038L9.56726 23.4868C9.56713 23.4714 9.57548 23.4571 9.58902 23.4497C9.60256 23.4422 9.6191 23.4428 9.63208 23.4512C10.6249 24.0925 12.6188 24.6645 15.1787 25.0819C17.7362 25.499 20.8521 25.7607 24.0837 25.7851C27.3148 25.8095 30.7511 25.5237 33.4784 25.0766C34.8422 24.8531 36.0277 24.5894 36.9211 24.3043C37.3679 24.1618 37.7406 24.0143 38.0256 23.8643C38.312 23.7137 38.5048 23.5633 38.5982 23.4173C38.6081 23.4019 38.6268 23.3947 38.6444 23.3994ZM9.66273 24.7803C11.0214 25.5044 13.2021 26.0513 15.7595 26.4238C18.3294 26.798 21.2753 26.9955 24.1403 27.0209C26.7483 27.025 29.7514 26.8234 32.4199 26.4525C35.0738 26.0836 37.3907 25.548 38.6603 24.8837L38.5971 23.5567C38.4804 23.6881 38.299 23.8155 38.0648 23.9387C37.7737 24.0918 37.396 24.241 36.9467 24.3844C36.0478 24.6712 34.858 24.9357 33.492 25.1596C30.76 25.6074 27.3189 25.8936 24.0831 25.8691C20.8477 25.8447 17.7274 25.5827 15.1651 25.1649C12.6594 24.7563 10.6809 24.1977 9.65198 23.5631L9.66273 24.7803Z" fill="black"/>
<path fill-rule="evenodd" clip-rule="evenodd" d="M38.8418 24.5938L38.8419 24.944C38.4597 25.401 36.0632 26.0917 33.0578 26.5781C30.7706 26.9288 27.7885 27.1933 24.0727 27.1933C20.5426 27.1933 17.7275 26.9416 15.5444 26.6064C12.0934 26.1039 9.8861 25.2239 9.44302 24.9613L9.44496 24.5528C10.7759 25.4377 14.3819 26.085 15.5928 26.2831C17.7617 26.6161 20.5601 26.8659 24.0726 26.8659C27.771 26.8659 30.7363 26.6032 33.0092 26.2548C35.1653 25.9434 38.237 25.1333 38.8417 24.594H38.8418L38.8418 24.5938ZM38.8433 23.3483L38.8434 23.6984C38.4612 24.1552 36.0646 24.8459 33.0593 25.3323C30.772 25.683 27.79 25.9475 24.0742 25.9475C20.5441 25.9475 17.729 25.696 15.5458 25.3606C12.0949 24.8584 9.88757 23.9784 9.44449 23.7156L9.44643 23.3071C10.7774 24.1919 14.3834 24.8393 15.5943 25.0372C17.7632 25.3704 20.5616 25.6203 24.0741 25.6203C27.7724 25.6203 30.7377 25.3575 33.0106 25.0089C35.1668 24.6974 38.2384 23.8874 38.8431 23.348L38.8433 23.3483L38.8433 23.3483Z" fill="#FFFF00"/>
<path fill-rule="evenodd" clip-rule="evenodd" d="M24.127 32.8216C17.8538 32.7842 12.4786 31.1116 11.3435 30.8352L12.1712 32.1309C14.1762 32.9743 19.4201 34.2312 24.1872 34.092C28.9545 33.9529 33.1207 33.5836 36.0566 32.1543L36.9053 30.8115C34.9045 31.7539 28.0953 32.8119 24.1269 32.8216" fill="#FFFF00"/>
<path fill-rule="evenodd" clip-rule="evenodd" d="M36.9363 30.7841C36.9487 30.7981 36.9503 30.8186 36.9403 30.8344L36.0917 32.1772C36.0875 32.1838 36.0816 32.1891 36.0746 32.1925C33.1293 33.6263 28.9543 33.9953 24.1879 34.1344C19.4148 34.2737 14.1649 33.0157 12.1545 32.17C12.1466 32.1667 12.1399 32.1611 12.1353 32.1539L11.3077 30.8582C11.2984 30.8437 11.2989 30.8251 11.3089 30.8111C11.3189 30.7971 11.3363 30.7907 11.353 30.7947C11.4877 30.8275 11.6818 30.8799 11.9297 30.9468C13.7748 31.4446 18.6013 32.7469 24.1255 32.78C24.1258 32.78 24.1261 32.78 24.1264 32.78C26.1077 32.7751 28.7997 32.5085 31.247 32.1252C33.696 31.7416 35.8927 31.2421 36.8869 30.7739C36.9038 30.7659 36.9239 30.7701 36.9363 30.7841ZM24.1279 32.864C24.1274 32.864 24.1268 32.864 24.1263 32.864C18.5892 32.831 13.7506 31.5252 11.9074 31.0278C11.7174 30.9766 11.5592 30.9339 11.4354 30.9021L12.1991 32.0976C14.2074 32.9386 19.4339 34.1891 24.1855 34.0503C28.9479 33.9114 33.1009 33.5426 36.027 32.1222L36.7946 30.9076C35.7369 31.3644 33.6087 31.8403 31.26 32.2082C28.8108 32.5918 26.1148 32.859 24.1279 32.864Z" fill="black"/>
<path fill-rule="evenodd" clip-rule="evenodd" d="M36.375 31.8541C36.2504 32.0446 36.1232 32.2328 35.9943 32.4157C34.6095 32.904 32.4275 33.4167 31.5067 33.5662C29.6258 33.9537 26.7158 34.24 24.1332 34.2413C18.576 34.1599 14.0271 33.0721 11.8871 32.1441L11.7144 31.8472L11.7426 31.8026L12.0355 31.9162C15.8412 33.2777 20.1155 33.8209 24.1645 33.9185C26.7367 33.9275 29.3118 33.6237 31.394 33.2513C34.5871 32.6115 35.8782 32.1293 36.2743 31.9107L36.3751 31.8541H36.375L36.375 31.8541ZM37.1109 30.6404C37.1141 30.6441 37.1174 30.6478 37.1205 30.6518C37.0272 30.8092 36.9311 30.9693 36.8327 31.1302C36.0941 31.3942 34.0897 31.9807 31.1627 32.39C29.2342 32.6527 28.0355 32.9071 24.1991 32.9816C17.0103 32.7987 12.3558 31.3931 11.2501 31.0464L11.0862 30.7321C15.2524 31.8197 19.5081 32.5789 24.1994 32.6565C27.7092 32.5817 29.2024 32.3233 31.115 32.0625C34.5281 31.5318 36.2477 30.9699 36.7638 30.8076C36.7574 30.7983 36.7498 30.7885 36.7412 30.7784L37.1113 30.6401L37.111 30.6404L37.1109 30.6404Z" fill="#FFFF00"/>
<path fill-rule="evenodd" clip-rule="evenodd" d="M37.1454 30.6178C37.1454 30.6178 37.1453 30.6178 37.1453 30.6177C37.1351 30.6017 37.115 30.595 37.0972 30.6017L36.7272 30.74C36.7149 30.7445 36.7056 30.7548 36.7023 30.7675C36.7008 30.7731 36.7006 30.7788 36.7015 30.7844C36.6994 30.785 36.6972 30.7857 36.6951 30.7864C36.1181 30.9685 34.4034 31.5096 31.1092 32.0219C30.9032 32.05 30.702 32.0781 30.5027 32.1059C28.8523 32.3361 27.328 32.5488 24.1993 32.6155C19.5124 32.5379 15.2603 31.7793 11.0964 30.6924C11.081 30.6883 11.0646 30.6938 11.0547 30.7063C11.0447 30.7187 11.0431 30.7359 11.0505 30.75L11.2144 31.0644C11.2193 31.0739 11.2278 31.081 11.238 31.0842C12.3461 31.4316 17.0044 32.8383 24.1982 33.0213L24.1982 33.0214L24.2 33.0213C27.4736 32.9577 28.8289 32.7631 30.3528 32.5443C30.616 32.5065 30.8842 32.468 31.1682 32.4293L31.1684 32.4293C34.0978 32.0197 36.1049 31.4326 36.8463 31.1675C36.855 31.1644 36.8624 31.1585 36.8672 31.1506C36.9657 30.9895 37.0619 30.8292 37.1553 30.6716C37.1637 30.6574 37.1626 30.6394 37.1524 30.6264C37.1501 30.6233 37.1476 30.6204 37.1454 30.6178ZM36.8032 30.7977C36.8049 30.805 36.8046 30.8127 36.8021 30.82C36.7979 30.8322 36.7883 30.8416 36.776 30.8454C36.7585 30.8509 36.7396 30.8569 36.7194 30.8633C36.1403 31.0461 34.4214 31.5885 31.1212 32.1017L31.1205 32.1018C30.9144 32.1299 30.7132 32.158 30.5138 32.1858C28.8623 32.4162 27.3342 32.6294 24.2003 32.6961L24.1988 32.6962V32.6961C19.5364 32.619 15.3043 31.8692 11.164 30.7933L11.2781 31.0122C12.4098 31.3665 17.0499 32.7586 24.1993 32.9406C27.4674 32.8771 28.8188 32.6831 30.3415 32.4644C30.6047 32.4266 30.8731 32.3881 31.1573 32.3494C34.0642 31.9429 36.0594 31.3616 36.8058 31.0964C36.8851 30.9666 36.9629 30.8373 37.0389 30.7096L36.8032 30.7977ZM11.7086 31.7804C11.7189 31.7641 11.7393 31.7574 11.7573 31.7643L12.0496 31.8777C15.8496 33.2372 20.1189 33.78 24.1651 33.8775C26.734 33.8865 29.3062 33.583 31.3865 33.211C34.5791 32.5713 35.8646 32.09 36.2548 31.8747C36.2548 31.8747 36.2549 31.8747 36.2549 31.8747L36.3533 31.8195C36.355 31.8184 36.3567 31.8175 36.3585 31.8167L36.3586 31.8166C36.3708 31.8111 36.3847 31.8122 36.3958 31.8188C36.3995 31.821 36.4029 31.8238 36.4058 31.8272C36.4097 31.8318 36.4126 31.8372 36.4142 31.8433C36.4173 31.8553 36.4147 31.8678 36.4077 31.8774C36.2832 32.0676 36.1561 32.2556 36.0273 32.4383C36.0225 32.4452 36.0156 32.4503 36.0077 32.4531C34.6208 32.9422 32.4374 33.4552 31.5141 33.6052C29.6301 33.9933 26.7178 34.2797 24.1333 34.281L24.1327 34.281C18.5715 34.1995 14.0172 33.111 11.8711 32.1804C11.8632 32.177 11.8566 32.1712 11.8523 32.1637L11.6796 31.8668C11.6721 31.8538 11.6724 31.8377 11.6804 31.825L11.7086 31.7804ZM36.2512 31.9681C36.1582 32.1079 36.064 32.2461 35.9688 32.3813C34.5859 32.8674 32.4163 33.377 31.5003 33.5257L31.5003 33.5257L31.4986 33.526C29.621 33.9129 26.7139 34.199 24.1335 34.2003C18.5909 34.1191 14.0543 33.0359 11.9153 32.1117L11.7655 31.854L12.0209 31.9531L12.0209 31.9531L12.0219 31.9535C15.8331 33.317 20.112 33.8605 24.1636 33.9581V33.9581L24.1644 33.9581C26.7397 33.9672 29.3172 33.663 31.4012 33.2903L31.402 33.2902C34.4898 32.6715 35.8042 32.1993 36.2512 31.9681Z" fill="black"/>
<path fill-rule="evenodd" clip-rule="evenodd" d="M37.186 23.6466C37.2064 27.7734 35.0946 31.4766 33.3935 33.1103C30.987 35.4216 27.7963 36.9084 24.0701 36.9769C19.9091 37.0533 15.9858 34.3407 14.9335 33.149C12.876 30.8192 11.2009 27.8607 11.1473 23.8734C11.4021 19.3694 13.1702 16.2321 15.7332 14.0806C18.2962 11.9291 21.7089 10.8814 24.551 10.9563C27.8302 11.0428 31.6606 12.6515 34.3074 15.845C36.0414 17.9373 36.7924 20.208 37.186 23.6466ZM24.1054 9.51648C32.0965 9.51648 38.6688 16.0194 38.6688 23.9929C38.6688 31.9663 32.0965 38.4695 24.1054 38.4695C16.1143 38.4695 9.59656 31.9664 9.59656 23.9929C9.59656 16.0194 16.1143 9.51648 24.1054 9.51648" fill="#FFFF00"/>
<path fill-rule="evenodd" clip-rule="evenodd" d="M24.1059 9.55865C16.1378 9.55865 9.639 16.0428 9.639 23.9931C9.639 31.9433 16.1378 38.4276 24.1059 38.4276C32.0741 38.4276 38.6273 31.9429 38.6273 23.9931C38.6273 16.043 32.0741 9.55865 24.1059 9.55865ZM24.1059 9.47461C16.0916 9.47461 9.55496 15.9962 9.55496 23.9931C9.55496 31.9899 16.0916 38.5117 24.1059 38.5117C32.1199 38.5117 38.7113 31.99 38.7113 23.9931C38.7113 15.996 32.1199 9.47461 24.1059 9.47461ZM24.5503 10.9985C21.718 10.9238 18.3155 11.9684 15.7607 14.1129C13.2072 16.2564 11.4443 19.3823 11.1897 23.8744C11.2436 27.8481 12.9127 30.7969 14.9654 33.1214C15.487 33.712 16.726 34.6851 18.3553 35.5011C19.984 36.3167 21.9982 36.9731 24.0697 36.935C27.7846 36.8667 30.9655 35.3847 33.3649 33.0801C35.0583 31.4538 37.164 27.7623 37.1445 23.6493C36.7513 20.2164 36.002 17.9552 34.2755 15.872C31.6368 12.6881 27.8178 11.0847 24.5503 10.9985ZM15.7067 14.0486C18.2779 11.8902 21.7006 10.8392 24.5525 10.9145C27.8434 11.0013 31.6855 12.6152 34.3402 15.8183C36.0814 17.9193 36.8341 20.1989 37.2282 23.642C37.2284 23.6435 37.2285 23.645 37.2285 23.6466C37.2489 27.7861 35.1315 31.5 33.4231 33.1408C31.0095 35.4589 27.8088 36.9503 24.0713 37.019C21.9818 37.0574 19.9539 36.3957 18.3177 35.5762C16.6819 34.757 15.4331 33.778 14.9024 33.177C12.8405 30.8421 11.1595 27.8743 11.1057 23.8741C11.1057 23.8731 11.1057 23.8721 11.1057 23.8712C11.3612 19.3561 13.1344 16.2078 15.7067 14.0486Z" fill="black"/>
<path fill-rule="evenodd" clip-rule="evenodd" d="M24.145 9.46667C32.1433 9.46667 38.6666 15.9908 38.6666 23.9899C38.6666 31.9888 32.1432 38.5128 24.145 38.5128C16.1467 38.5128 9.62338 31.989 9.62338 23.9899C9.62338 15.9908 16.1468 9.46667 24.145 9.46667V9.46667ZM9.94297 23.99C9.94297 31.8014 16.3576 38.1934 24.145 38.1934C31.9326 38.1934 38.3472 31.8014 38.3472 23.99C38.3472 16.1782 31.9324 9.78617 24.145 9.78617C16.3576 9.78617 9.94297 16.1785 9.94297 23.99Z" fill="#FFFF00"/>
<path fill-rule="evenodd" clip-rule="evenodd" d="M24.1453 9.50884C16.1703 9.50884 9.66567 16.0142 9.66567 23.9901C9.66567 31.9659 16.1702 38.471 24.1453 38.471C32.1202 38.471 38.6249 31.9658 38.6249 23.9901C38.6249 16.0142 32.1204 9.50884 24.1453 9.50884ZM24.1453 9.4248C16.1239 9.4248 9.58163 15.9678 9.58163 23.9901C9.58163 32.0123 16.1237 38.555 24.1453 38.555C32.1667 38.555 38.7089 32.0122 38.7089 23.9901C38.7089 15.9678 32.1668 9.4248 24.1453 9.4248ZM9.90122 23.9901C9.90122 16.1554 16.3347 9.7443 24.1453 9.7443C31.9558 9.7443 38.3895 16.1551 38.3895 23.9901C38.3895 31.8248 31.956 38.2356 24.1453 38.2356C16.3347 38.2356 9.90122 31.8248 9.90122 23.9901ZM24.1453 9.82834C16.381 9.82834 9.98526 16.2019 9.98526 23.9901C9.98526 31.7783 16.381 38.1516 24.1453 38.1516C31.9097 38.1516 38.3054 31.7783 38.3054 23.9901C38.3054 16.2016 31.9095 9.82834 24.1453 9.82834Z" fill="black"/>
<path fill-rule="evenodd" clip-rule="evenodd" d="M24.1568 10.6737C31.4507 10.6737 37.4584 16.6608 37.4584 23.977C37.4584 31.2933 31.4505 37.2801 24.1568 37.2801C16.863 37.2801 10.8551 31.2933 10.8551 23.977C10.8551 16.6608 16.8632 10.6737 24.1568 10.6737V10.6737ZM11.1746 23.9769C11.1746 31.1173 17.0382 36.9604 24.1568 36.9604C31.2754 36.9604 37.139 31.1173 37.139 23.9769C37.139 16.8363 31.2755 10.9932 24.1568 10.9932C17.0382 10.9932 11.1746 16.8363 11.1746 23.9769Z" fill="#FFFF00"/>
<path fill-rule="evenodd" clip-rule="evenodd" d="M24.157 10.7159C16.8866 10.7159 10.8974 16.6842 10.8974 23.9771C10.8974 31.2702 16.8865 37.2382 24.157 37.2382C31.4276 37.2382 37.4167 31.2702 37.4167 23.9771C37.4167 16.6842 31.4278 10.7159 24.157 10.7159ZM24.157 10.6318C16.8403 10.6318 10.8134 16.6377 10.8134 23.9771C10.8134 31.3167 16.8401 37.3222 24.157 37.3222C31.4739 37.3222 37.5007 31.3167 37.5007 23.9771C37.5007 16.6377 31.4741 10.6318 24.157 10.6318ZM11.1328 23.977C11.1328 16.8132 17.0153 10.9513 24.157 10.9513C31.299 10.9513 37.1813 16.8132 37.1813 23.977C37.1813 31.1407 31.2988 37.0026 24.157 37.0026C17.0153 37.0026 11.1328 31.1407 11.1328 23.977ZM24.157 11.0354C17.0616 11.0354 11.2169 16.8597 11.2169 23.977C11.2169 31.0942 17.0616 36.9185 24.157 36.9185C31.2525 36.9185 37.0972 31.0942 37.0972 23.977C37.0972 16.8597 31.2526 11.0354 24.157 11.0354Z" fill="black"/>
<path fill-rule="evenodd" clip-rule="evenodd" d="M24.7416 9.40808H23.4971L23.4985 38.5889H24.7473L24.7416 9.40808Z" fill="#FFFF00"/>
<path fill-rule="evenodd" clip-rule="evenodd" d="M23.4676 9.37852C23.4755 9.37064 23.4862 9.36621 23.4973 9.36621H24.7419C24.7651 9.36621 24.7839 9.38502 24.7839 9.40822L24.7896 38.589C24.7896 38.6002 24.7852 38.6109 24.7773 38.6188C24.7694 38.6266 24.7588 38.6311 24.7476 38.6311H23.4988C23.4756 38.6311 23.4568 38.6123 23.4568 38.589L23.4553 9.40823C23.4553 9.39709 23.4597 9.3864 23.4676 9.37852ZM23.5394 9.45025L23.5408 38.547H24.7056L24.6999 9.45025H23.5394Z" fill="black"/>
<path fill-rule="evenodd" clip-rule="evenodd" d="M24.6169 9.2417H24.9337L24.9364 38.7584H24.6193L24.617 9.2417H24.6169ZM23.3817 9.24196H23.701L23.7014 38.7586H23.3819V9.24196H23.3817Z" fill="#FFFF00"/>
<path fill-rule="evenodd" clip-rule="evenodd" d="M24.5753 9.24209C24.5753 9.21889 24.5941 9.20007 24.6173 9.20007H24.9341C24.9573 9.20007 24.9761 9.21888 24.9761 9.24209L24.9788 38.7588C24.9788 38.7699 24.9744 38.7806 24.9665 38.7885C24.9586 38.7964 24.948 38.8008 24.9368 38.8008H24.6198C24.5966 38.8008 24.5778 38.782 24.5778 38.7588L24.5754 9.24525C24.5753 9.24421 24.5753 9.24315 24.5753 9.24209ZM24.6595 9.28411L24.6618 38.7168H24.8948L24.8921 9.28411H24.6595ZM23.3402 9.24236C23.3402 9.21915 23.359 9.20034 23.3822 9.20034H23.7014C23.7246 9.20034 23.7435 9.21915 23.7435 9.24236L23.7439 38.759C23.7439 38.7702 23.7395 38.7809 23.7316 38.7888C23.7237 38.7966 23.713 38.8011 23.7019 38.8011H23.3824C23.3592 38.8011 23.3404 38.7822 23.3404 38.759V9.24641C23.3402 9.24507 23.3402 9.24372 23.3402 9.24236ZM23.4244 9.28438V38.717H23.6599L23.6594 9.28438H23.4244Z" fill="black"/>
<path fill-rule="evenodd" clip-rule="evenodd" d="M38.6762 24.5521V23.4733L37.7977 22.6549L32.811 21.3349L25.6243 20.6016L16.971 21.0416L10.811 22.5082L9.56726 23.4293V24.5083L12.7177 23.0949L20.1977 21.9216H27.3843L32.6643 22.5083L36.331 23.3883L38.6762 24.5521Z" fill="#FFFF00"/>
<path fill-rule="evenodd" clip-rule="evenodd" d="M25.6226 20.56C25.6247 20.5599 25.6269 20.5599 25.629 20.5602L32.8157 21.2935C32.8179 21.2937 32.82 21.2941 32.8222 21.2947L37.8088 22.6147C37.8155 22.6165 37.8217 22.6198 37.8267 22.6246L38.7053 23.443C38.7138 23.4509 38.7186 23.462 38.7186 23.4737V24.5525C38.7186 24.567 38.7111 24.5806 38.6988 24.5882C38.6864 24.5959 38.671 24.5966 38.6579 24.5901L36.317 23.4284L32.6575 22.5501L27.3824 21.964H20.2014L12.7302 23.136L9.58489 24.5471C9.57188 24.5529 9.55681 24.5518 9.54485 24.544C9.53289 24.5363 9.52567 24.523 9.52567 24.5088V23.4297C9.52567 23.4164 9.53198 23.4039 9.54268 23.3959L10.7864 22.4749C10.791 22.4715 10.7962 22.4691 10.8017 22.4678L16.9617 21.0011C16.9642 21.0005 16.9667 21.0001 16.9693 21L25.6226 20.56ZM16.9774 21.0837L10.8295 22.5475L9.60971 23.4509V24.4439L12.7009 23.057C12.7043 23.0555 12.7079 23.0544 12.7116 23.0538L20.1916 21.8805C20.1937 21.8801 20.1959 21.88 20.1981 21.88H27.3847C27.3863 21.88 27.3878 21.8801 27.3894 21.8802L32.6694 22.4669C32.6703 22.467 32.6712 22.4671 32.672 22.4673C32.6729 22.4674 32.6737 22.4676 32.6746 22.4678L36.3412 23.3478C36.3443 23.3485 36.3473 23.3496 36.3501 23.351L38.6346 24.4847V23.492L37.7771 22.6932L32.8039 21.3768L25.6237 20.6441L16.9774 21.0837Z" fill="black"/>
<path fill-rule="evenodd" clip-rule="evenodd" d="M24.1504 21.7411C27.5799 21.7348 30.9073 22.066 33.5466 22.5799C36.27 23.1244 38.1866 23.8054 38.8419 24.5704L38.8412 24.9491C38.0509 23.9972 35.4718 23.2994 33.4852 22.9005C30.8661 22.3909 27.5609 22.062 24.1504 22.0683C20.5514 22.0751 17.2003 22.4159 14.6194 22.9195C12.5484 23.3304 9.78656 24.1468 9.44174 24.952V24.5576C9.6311 24.0002 11.6876 23.1673 14.5727 22.5898C17.173 22.0827 20.5303 21.7477 24.1504 21.7411V21.7411ZM24.1518 20.4956C27.5813 20.4894 30.9087 20.8208 33.548 21.3344C36.2715 21.8791 38.1881 22.5599 38.8434 23.3248L38.8427 23.7036C38.0524 22.7519 35.4733 22.054 33.4867 21.6552C30.8675 21.1454 27.5624 20.8165 24.1518 20.8231C20.5529 20.8296 17.218 21.1707 14.6368 21.674C12.6383 22.0528 9.76368 22.9015 9.44306 23.7068V23.3121C9.63242 22.7608 11.7306 21.898 14.5742 21.3443C17.1744 20.8372 20.5318 20.5025 24.1518 20.4956V20.4956Z" fill="#FFFF00"/>
<path fill-rule="evenodd" clip-rule="evenodd" d="M24.1541 20.5377C24.1535 20.5378 24.1528 20.5378 24.1522 20.5378C20.5345 20.5446 17.1798 20.8792 14.5825 21.3857L14.5825 21.3857C13.1626 21.6622 11.9297 22.0157 11.0289 22.3684C10.5784 22.5448 10.2121 22.7206 9.94733 22.8857C9.81494 22.9683 9.70888 23.0477 9.63058 23.1225C9.55462 23.1951 9.50709 23.2612 9.48535 23.3196V23.5484C9.52895 23.4888 9.58401 23.4302 9.64861 23.3726C9.76467 23.269 9.9137 23.1667 10.0881 23.0664C10.437 22.8659 10.8915 22.6715 11.3969 22.491C12.4079 22.13 13.6283 21.8226 14.6292 21.6329C17.2132 21.129 20.5508 20.7877 24.152 20.7812C27.5651 20.7746 30.873 21.1038 33.495 21.6141L33.4953 21.6142C34.4895 21.8137 35.6329 22.0884 36.6273 22.4325C37.1245 22.6046 37.5853 22.7943 37.9719 23.0012C38.3136 23.1841 38.5995 23.3815 38.8012 23.5936L38.8016 23.3406C38.4783 22.971 37.848 22.6166 36.957 22.2866C36.0583 21.9538 34.9007 21.6479 33.5402 21.3758C30.9043 20.8628 27.5804 20.5317 24.1541 20.5377ZM24.1501 20.4537C24.1507 20.4537 24.1514 20.4537 24.152 20.4537C27.584 20.4475 30.9142 20.7791 33.5563 21.2933L33.5565 21.2934C34.9194 21.566 36.0818 21.8728 36.9861 22.2078C37.8887 22.5421 38.5405 22.9065 38.8756 23.2976C38.8821 23.3053 38.8857 23.315 38.8857 23.3251L38.885 23.7038C38.8849 23.7215 38.8738 23.7373 38.8572 23.7433C38.8406 23.7493 38.8219 23.7442 38.8106 23.7306C38.6181 23.4987 38.3141 23.2797 37.9322 23.0753C37.5509 22.8712 37.0945 22.6831 36.5998 22.5119C35.6105 22.1695 34.4712 21.8958 33.4789 21.6966C30.8626 21.1874 27.5602 20.8587 24.1522 20.8653C20.5557 20.8717 17.2234 21.2126 14.6451 21.7154L14.6449 21.7154C13.6473 21.9045 12.4312 22.2109 11.4251 22.5702C10.922 22.7499 10.4728 22.9423 10.13 23.1393C9.95865 23.2378 9.81488 23.3368 9.70456 23.4353C9.59394 23.534 9.51911 23.6302 9.48237 23.7225C9.47492 23.7412 9.45522 23.752 9.43542 23.7482C9.41563 23.7444 9.40131 23.7271 9.40131 23.7069V23.3123C9.40131 23.3076 9.40208 23.303 9.40359 23.2986C9.43036 23.2207 9.48915 23.1414 9.57252 23.0618C9.65632 22.9817 9.76746 22.8989 9.90284 22.8144C10.1736 22.6455 10.5451 22.4676 10.9983 22.2901C11.9048 21.9352 13.1428 21.5804 14.5664 21.3032C17.1692 20.7957 20.5285 20.4607 24.1501 20.4537ZM33.5387 22.6213C30.9023 22.108 27.5777 21.7769 24.1507 21.7833C24.1503 21.7833 24.1499 21.7833 24.1496 21.7833C20.5323 21.7899 17.1782 22.1247 14.5811 22.6311C13.1403 22.9196 11.9074 23.2716 11.0119 23.6205C10.5639 23.7951 10.2016 23.9684 9.94019 24.132C9.80947 24.2137 9.70492 24.2925 9.62771 24.3671C9.55281 24.4394 9.50578 24.5057 9.48403 24.5649V24.7976C9.60673 24.6316 9.81709 24.4705 10.0842 24.3162C10.4271 24.1183 10.872 23.9269 11.3693 23.7485C12.3643 23.3914 13.5746 23.0841 14.6115 22.8784L14.6116 22.8784C17.1954 22.3742 20.5493 22.0332 24.1505 22.0265C27.5637 22.0201 30.8715 22.3493 33.4935 22.8594L33.4938 22.8594C34.488 23.0591 35.6315 23.3337 36.6259 23.6779C37.1231 23.8499 37.5838 24.0397 37.9704 24.2466C38.3121 24.4295 38.598 24.627 38.7997 24.8391L38.8002 24.5861C38.4768 24.2166 37.8465 23.8621 36.9555 23.532C36.0568 23.1991 34.8992 22.8933 33.5387 22.6213ZM24.1517 21.6992C27.5833 21.693 30.913 22.0244 33.5549 22.5388L33.5551 22.5389C34.918 22.8113 36.0803 23.1182 36.9847 23.4532C37.8873 23.7875 38.5391 24.152 38.8741 24.5432C38.8807 24.5508 38.8843 24.5605 38.8842 24.5706L38.8835 24.9493C38.8835 24.967 38.8724 24.9828 38.8557 24.9888C38.8391 24.9948 38.8205 24.9897 38.8092 24.9761C38.6166 24.7441 38.3126 24.5251 37.9308 24.3207C37.5494 24.1166 37.0931 23.9285 36.5984 23.7573C35.609 23.4148 34.4697 23.1411 33.4773 22.9418C30.861 22.4329 27.5587 22.1042 24.1507 22.1105C20.5542 22.1172 17.2058 22.4578 14.6278 22.9608C13.5937 23.166 12.3876 23.4724 11.3977 23.8276C10.9027 24.0052 10.463 24.1946 10.1263 24.389C9.7873 24.5847 9.56103 24.7809 9.48064 24.9687C9.47279 24.987 9.45312 24.9973 9.43357 24.9933C9.41403 24.9893 9.39999 24.9721 9.39999 24.9521V24.5577C9.39999 24.5531 9.40075 24.5486 9.40223 24.5442C9.42891 24.4657 9.48692 24.3862 9.56933 24.3066C9.65211 24.2267 9.76183 24.1444 9.89562 24.0607C10.1632 23.8933 10.5308 23.7178 10.9814 23.5422C11.8827 23.191 13.1205 22.8378 14.5648 22.5487L14.565 22.5487C17.1682 22.041 20.5282 21.7058 24.1506 21.6992C24.1509 21.6992 24.1513 21.6992 24.1517 21.6992Z" fill="black"/>
<path fill-rule="evenodd" clip-rule="evenodd" d="M24.0817 14.1423C29.4862 14.1152 34.2002 14.8979 36.3569 16.0027L37.1436 17.3637C35.2691 16.3534 30.1834 15.303 24.0896 15.4601C19.1243 15.4906 13.8189 16.0067 11.1571 17.4269L12.0963 15.8562C14.2809 14.7234 19.4328 14.1486 24.0819 14.1426" fill="#FFFF00"/>
<path fill-rule="evenodd" clip-rule="evenodd" d="M24.0766 14.101C21.752 14.1042 19.302 14.2495 17.1593 14.5356C15.0165 14.8217 13.1761 15.2493 12.0769 15.8193C12.0699 15.8229 12.0642 15.8284 12.0602 15.8351L11.121 17.4057C11.1113 17.4219 11.1136 17.4426 11.1266 17.4563C11.1396 17.4699 11.1602 17.4732 11.1768 17.4644C12.501 16.7579 14.4867 16.2746 16.7652 15.9644C19.0426 15.6544 21.6083 15.5178 24.0898 15.5025L24.0906 15.5025C27.1349 15.424 29.9271 15.6472 32.192 16.016C34.4581 16.385 36.1926 16.8993 37.1236 17.4011C37.1401 17.41 37.1606 17.4068 37.1737 17.3933C37.1868 17.3798 37.1893 17.3593 37.1799 17.343L36.3932 15.9821C36.3892 15.9751 36.3832 15.9694 36.376 15.9657C35.2917 15.4103 33.5688 14.9376 31.4436 14.607C29.3175 14.2762 26.7856 14.0871 24.0814 14.1007C24.0798 14.1007 24.0781 14.1008 24.0766 14.101ZM31.4307 14.69C29.3108 14.3602 26.7853 14.1714 24.087 14.1847C24.0853 14.1849 24.0836 14.185 24.0818 14.185C21.7589 14.188 19.3105 14.3331 17.1704 14.6189C15.0358 14.9039 13.2128 15.3283 12.1261 15.8885L11.2692 17.3217C12.6045 16.6453 14.5467 16.1816 16.7538 15.8811C19.0357 15.5705 21.6051 15.4337 24.0888 15.4185C27.1382 15.3399 29.9355 15.5634 32.2055 15.9331C34.375 16.2864 36.0662 16.7737 37.035 17.2603L36.3267 16.0349C35.2536 15.488 33.5456 15.019 31.4307 14.69Z" fill="black"/>
<path fill-rule="evenodd" clip-rule="evenodd" d="M24.1543 15.2661C27.2368 15.258 30.2153 15.4318 32.5841 15.8592C34.7901 16.2697 36.8939 16.886 37.1947 17.2174L37.4279 17.6295C36.6963 17.1518 34.8758 16.6199 32.5382 16.1766C30.1907 15.7354 27.2142 15.5892 24.1489 15.5973C20.6697 15.5854 17.9666 15.769 15.6468 16.1735C13.1933 16.6326 11.4911 17.2884 11.0712 17.6L11.2997 17.1644C12.1157 16.7481 13.4103 16.2463 15.5858 15.8547C17.9848 15.4164 20.7166 15.285 24.1545 15.2661H24.1544L24.1543 15.2661ZM24.153 14.0217C27.1029 14.014 30.0155 14.1784 32.2859 14.5865C34.0766 14.9351 35.8474 15.4793 36.4959 15.9636L36.8369 16.5056C36.2571 15.861 34.0743 15.2502 32.1474 14.9081C29.8945 14.5195 27.1028 14.3657 24.1529 14.3411C21.0571 14.3498 18.196 14.5394 15.976 14.9436C13.8579 15.3467 12.4912 15.8239 11.9128 16.1965L12.2128 15.7438C13.0109 15.3237 14.3002 14.9378 15.9239 14.6223C18.1604 14.2151 21.039 14.0304 24.1531 14.0217H24.153Z" fill="#FFFF00"/>
<path fill-rule="evenodd" clip-rule="evenodd" d="M24.1525 14.0633C27.101 14.0556 30.0106 14.2199 32.2774 14.6273ZM24.152 13.9793C27.1031 13.9715 30.0186 14.1359 32.2925 14.5447L32.2931 14.5448C33.1898 14.7194 34.0818 14.9429 34.8313 15.1837C35.5791 15.4239 36.1899 15.6828 36.5202 15.9295C36.5243 15.9326 36.5278 15.9364 36.5306 15.9407L36.8717 16.4827C36.8833 16.5012 36.8788 16.5255 36.8614 16.5386C36.844 16.5518 36.8195 16.5494 36.8049 16.5332C36.6654 16.3782 36.4262 16.2221 36.1114 16.0695C35.7975 15.9174 35.412 15.7706 34.9836 15.633C34.1269 15.3577 33.1015 15.1198 32.1393 14.949C29.8898 14.561 27.1009 14.4073 24.152 14.3827C21.0575 14.3914 18.1994 14.5809 15.9828 14.9845C13.8654 15.3874 12.5057 15.8635 11.9348 16.2314C11.918 16.2422 11.8961 16.2398 11.8821 16.2256C11.8681 16.2115 11.866 16.1895 11.877 16.1729L12.1769 15.7202C12.1808 15.7143 12.1861 15.7095 12.1924 15.7062C12.996 15.2831 14.2902 14.8963 15.915 14.5806L15.9155 14.5805C18.1554 14.1727 21.0367 13.9879 24.1519 13.9793M32.2774 14.6273C33.1713 14.8014 34.0599 15.0242 34.8055 15.2637C35.548 15.5022 36.144 15.7559 36.4636 15.9922L36.6471 16.2837C36.5107 16.1845 36.3417 16.0877 36.148 15.9939C35.8294 15.8395 35.44 15.6913 35.0093 15.553C34.148 15.2762 33.1187 15.0375 32.1539 14.8662L32.1537 14.8662C29.8974 14.4771 27.1031 14.3232 24.1524 14.2986L24.152 14.2986C21.0549 14.3073 18.1911 14.497 15.9676 14.9019L15.9672 14.9019C14.0215 15.2722 12.704 15.7058 12.0483 16.0665L12.241 15.7756C13.0342 15.3603 14.3148 14.9772 15.9308 14.6632C18.1638 14.2566 21.0396 14.072 24.1523 14.0633M24.152 15.2237C24.1525 15.2236 24.1529 15.2236 24.1533 15.2236C27.2371 15.2155 30.2184 15.3894 32.5907 15.8174L32.591 15.8174C33.6952 16.0229 34.774 16.2799 35.6149 16.5272C36.0352 16.6508 36.3968 16.7722 36.6725 16.8837C36.8104 16.9394 36.9275 16.993 37.02 17.0434C37.1116 17.0933 37.1825 17.1419 37.225 17.1887C37.2271 17.191 37.2289 17.1935 37.2305 17.1962L37.4637 17.6083C37.4732 17.6252 37.47 17.6464 37.4559 17.6597C37.4417 17.6729 37.4204 17.6748 37.4041 17.6642C37.0438 17.4289 36.4108 17.1779 35.5726 16.93C34.7355 16.6824 33.6974 16.4389 32.5296 16.2175C30.186 15.777 27.2126 15.6308 24.1481 15.6388L24.1479 15.6388C20.6702 15.6269 17.9699 15.8105 15.6534 16.2144C14.4285 16.4436 13.3915 16.7219 12.6088 16.9815C11.824 17.2418 11.2993 17.482 11.0954 17.6333C11.0796 17.645 11.0579 17.6442 11.043 17.6315C11.0281 17.6188 11.024 17.5974 11.0331 17.58L11.2617 17.1444C11.2657 17.1367 11.2721 17.1304 11.2798 17.1265C12.0999 16.7081 13.3985 16.2052 15.5774 15.8129C17.9799 15.374 20.7143 15.2426 24.152 15.2237ZM24.1549 15.3077C24.1546 15.3077 24.1542 15.3077 24.1539 15.3077C20.7165 15.3266 17.9877 15.458 15.5925 15.8955L15.5924 15.8956C13.4309 16.2847 12.1423 16.7824 11.3299 17.1953L11.1816 17.4779C11.4493 17.3229 11.9301 17.1181 12.5823 16.9017C13.3689 16.6408 14.4097 16.3616 15.6382 16.1318L15.6387 16.1317C17.9618 15.7266 20.6675 15.5429 24.148 15.5548C27.2142 15.5468 30.1937 15.6929 32.5451 16.1349L32.5452 16.1349C33.7149 16.3567 34.7559 16.6008 35.5964 16.8494C36.3392 17.0691 36.9283 17.2932 37.3114 17.5098L37.1597 17.2419C37.1264 17.2065 37.0667 17.1645 36.9798 17.1172C36.8911 17.0688 36.7772 17.0166 36.641 16.9616C36.3688 16.8515 36.0101 16.731 35.5912 16.6078C34.7535 16.3615 33.6775 16.1051 32.5757 15.9001C30.2108 15.4734 27.2357 15.2996 24.1549 15.3077Z" fill="black"/>
<path fill-rule="evenodd" clip-rule="evenodd" d="M31.3672 30.0265C28.6952 29.5277 26.0184 29.4552 24.1487 29.4772C15.1423 29.5828 12.2329 31.3266 11.8778 31.8546L11.2047 30.7573C13.4977 29.0952 18.4021 28.1632 24.1974 28.2585C27.2068 28.3078 29.8036 28.5076 31.9882 28.9307L31.367 30.0268" fill="#FFFF00"/>
<path fill-rule="evenodd" clip-rule="evenodd" d="M11.2602 30.7687L11.8808 31.7805C11.998 31.6415 12.2464 31.4508 12.6584 31.238C13.125 30.997 13.8063 30.7252 14.7572 30.4671C16.6591 29.9507 19.6418 29.4882 24.1474 29.4354C26.0115 29.4134 28.6786 29.4853 31.3446 29.9798L31.9221 28.9611C29.7528 28.5462 27.1778 28.3495 24.196 28.3007L24.1967 28.2586L24.196 28.3007C21.3006 28.253 18.6286 28.4621 16.3948 28.8903C14.1806 29.3147 12.4007 29.9538 11.2602 30.7687ZM31.4036 30.0462L32.024 28.9516C32.0307 28.9398 32.0313 28.9256 32.0257 28.9133C32.02 28.901 32.0088 28.8922 31.9955 28.8896C29.8075 28.4659 27.2079 28.2659 24.1974 28.2166C21.2974 28.1689 18.6195 28.3782 16.379 28.8077C14.1394 29.2371 12.3331 29.8871 11.1793 30.7234C11.1615 30.7363 11.1566 30.7607 11.1681 30.7794L11.8412 31.8767C11.8487 31.8889 11.8619 31.8964 11.8762 31.8967C11.8905 31.897 11.9039 31.89 11.9119 31.8781C11.9945 31.7554 12.2348 31.5514 12.6969 31.3127C13.1571 31.0749 13.8326 30.8051 14.7792 30.5482C16.6724 30.0342 19.6477 29.5721 24.1484 29.5194C26.0156 29.4974 28.6871 29.5697 31.3534 30.0669C31.3714 30.0727 31.3915 30.0657 31.4019 30.0492C31.4025 30.0482 31.403 30.0472 31.4036 30.0462Z" fill="black"/>
<path fill-rule="evenodd" clip-rule="evenodd" d="M24.0964 29.3228C26.6018 29.3602 29.0609 29.4637 31.4346 29.9063L31.2627 30.2098C29.0581 29.8028 26.708 29.6471 24.1049 29.6598C20.781 29.6338 17.4191 29.9442 14.4922 30.7842C13.5687 31.0412 12.0398 31.635 11.8839 32.1256L11.7129 31.8436C11.7622 31.5536 12.6862 30.9518 14.4136 30.4664C17.7661 29.5064 20.902 29.3446 24.0964 29.3226V29.3229L24.0964 29.3228ZM24.2101 28.062C26.8058 28.1105 29.4864 28.2306 32.092 28.7467L31.913 29.0626C29.5601 28.5955 27.3122 28.4397 24.2254 28.3923C20.8909 28.3983 17.3539 28.6361 14.138 29.571C13.0997 29.8735 11.3077 30.5273 11.2481 31.045L11.0771 30.7421C11.116 30.2719 12.6672 29.6585 14.0629 29.2526C17.3036 28.3104 20.8499 28.0681 24.2102 28.062L24.2101 28.062Z" fill="#FFFF00"/>
<path fill-rule="evenodd" clip-rule="evenodd" d="M24.2121 28.021C24.2115 28.021 24.2108 28.021 24.2102 28.021C20.8484 28.0271 17.2978 28.2694 14.0517 29.2132L14.0517 29.2132C13.3528 29.4164 12.614 29.6719 12.0443 29.936C11.7596 30.0679 11.5155 30.2027 11.3396 30.3352C11.2515 30.4014 11.1793 30.4679 11.1276 30.5343C11.0759 30.6004 11.0427 30.6687 11.0369 30.7381C11.0362 30.7462 11.038 30.7542 11.042 30.7613L11.213 31.0642C11.2216 31.0794 11.239 31.0874 11.2561 31.0839C11.2732 31.0804 11.2862 31.0663 11.2882 31.049C11.2944 30.995 11.3238 30.9354 11.3778 30.8706C11.4316 30.8061 11.5077 30.7392 11.6024 30.6709C11.7919 30.5343 12.0512 30.3959 12.3428 30.2634C12.9257 29.9984 13.6313 29.76 14.1493 29.6091C17.3598 28.6757 20.8922 28.438 24.2252 28.4319C27.3107 28.4794 29.5559 28.635 31.9052 29.1014C31.9222 29.1048 31.9395 29.0969 31.9481 29.0818L32.1271 28.7659C32.1335 28.7546 32.1341 28.741 32.1287 28.7292C32.1233 28.7174 32.1126 28.709 32.0999 28.7064C29.4911 28.1897 26.8079 28.0696 24.2121 28.021ZM24.2092 28.1017C20.8507 28.1078 17.3093 28.3501 14.0742 29.2906C13.3774 29.4933 12.6428 29.7475 12.0782 30.0092C11.7957 30.1401 11.5575 30.2721 11.3881 30.3996C11.3033 30.4634 11.2371 30.5251 11.1911 30.5839C11.1488 30.6381 11.1253 30.6879 11.1187 30.733L11.2364 30.9415C11.2553 30.8999 11.2825 30.859 11.3159 30.819C11.3755 30.7474 11.4574 30.676 11.5552 30.6055C11.751 30.4644 12.0158 30.3234 12.3094 30.1899C12.897 29.9229 13.6065 29.6832 14.1268 29.5316L14.1268 29.5316C17.3481 28.5951 20.8895 28.3573 24.2254 28.3512L24.2261 28.3512V28.3512C27.3014 28.3985 29.5464 28.5533 31.8923 29.0167L32.0294 28.7748C29.4448 28.2685 26.7865 28.1498 24.2094 28.1017C24.2093 28.1017 24.2093 28.1017 24.2092 28.1017ZM24.0919 29.3623C24.0938 29.3625 24.0958 29.3626 24.0978 29.3625C26.5825 29.3996 29.0194 29.5018 31.3717 29.935L31.2418 30.1642C29.0423 29.7606 26.6985 29.6061 24.105 29.6188C20.7789 29.5928 17.413 29.9034 14.4813 30.7447C14.0179 30.8737 13.4027 31.0871 12.8832 31.3301C12.6235 31.4516 12.3864 31.581 12.2039 31.7117C12.0565 31.8173 11.9398 31.9271 11.8783 32.0378L11.7559 31.8359C11.7629 31.8106 11.7784 31.7801 11.8048 31.7444C11.8358 31.7023 11.8805 31.6552 11.9393 31.6041C12.0569 31.5019 12.2284 31.3859 12.4534 31.263C12.9032 31.0174 13.5631 30.7466 14.4246 30.5046L14.4248 30.5045C17.7702 29.5465 20.9002 29.3844 24.0919 29.3623ZM24.0962 29.2816C24.098 29.2815 24.0998 29.2816 24.1016 29.2819C26.6058 29.3193 29.0663 29.423 31.4421 29.866C31.4549 29.8684 31.4657 29.8768 31.4712 29.8886C31.4767 29.9004 31.4762 29.9142 31.4698 29.9255L31.2979 30.229C31.2894 30.2439 31.2724 30.2519 31.2554 30.2488C29.0541 29.8424 26.7066 29.6867 24.1052 29.6994L24.1047 29.6994C20.7831 29.6734 17.4254 29.9837 14.5034 30.8223L14.5031 30.8224C14.043 30.9504 13.4321 31.1624 12.9174 31.4032C12.6599 31.5236 12.4278 31.6506 12.2509 31.7773C12.0721 31.9053 11.9571 32.0279 11.9224 32.1372C11.9176 32.1522 11.9045 32.1631 11.8887 32.165C11.873 32.1669 11.8577 32.1594 11.8495 32.1459L11.6785 31.8639C11.6735 31.8556 11.6716 31.8458 11.6732 31.8362C11.6808 31.7914 11.7045 31.7443 11.7399 31.6965C11.7755 31.6482 11.8246 31.5969 11.8864 31.5432C12.0098 31.4359 12.1866 31.3167 12.4147 31.1922C12.8711 30.943 13.5369 30.6702 14.4027 30.4269C17.7605 29.4654 20.9008 29.3035 24.0962 29.2816Z" fill="black"/>
<path fill-rule="evenodd" clip-rule="evenodd" d="M37.0029 30.9241L35.9207 32.6033L32.8112 29.8417L24.7446 24.4151L15.6512 19.4284L10.93 17.8136L11.9362 15.948L12.2779 15.7617L15.2112 16.4951L24.8912 21.4817L30.4646 25.0017L35.1579 28.3751L37.0646 30.5751L37.0029 30.9241Z" fill="#FFFF00"/>
<path fill-rule="evenodd" clip-rule="evenodd" d="M12.2582 15.7244C12.2675 15.7193 12.2783 15.7179 12.2885 15.7205L15.2218 16.4538C15.225 16.4546 15.228 16.4558 15.2309 16.4572L24.9109 21.4439C24.912 21.4445 24.913 21.4451 24.9141 21.4457L30.4874 24.9657C30.4881 24.9662 30.4888 24.9666 30.4895 24.9671L35.1828 28.3405C35.1855 28.3424 35.1879 28.3446 35.1901 28.3471L37.0967 30.5471C37.105 30.5566 37.1086 30.5694 37.1064 30.5819L37.0448 30.931C37.0438 30.9365 37.0417 30.9417 37.0387 30.9464L35.9564 32.6256C35.9498 32.6359 35.939 32.6428 35.9268 32.6445C35.9147 32.6461 35.9024 32.6424 35.8932 32.6343L32.7858 29.8745L24.7231 24.4505L15.6346 19.4665L10.9168 17.8529C10.9052 17.8489 10.8958 17.84 10.8913 17.8285C10.8868 17.817 10.8876 17.8041 10.8935 17.7932L11.8996 15.9276C11.9035 15.9204 11.9093 15.9145 11.9165 15.9106L12.2582 15.7244ZM12.284 15.806L11.9676 15.9785L10.991 17.7894L15.6652 19.3882C15.6675 19.3889 15.6697 19.3899 15.6719 19.3911L24.7652 24.3777C24.7658 24.3781 24.7664 24.3784 24.767 24.3788C24.7675 24.3791 24.7679 24.3794 24.7684 24.3797L32.8351 29.8064C32.8367 29.8074 32.8381 29.8086 32.8395 29.8098L35.9124 32.5389L36.9635 30.908L37.0201 30.587L35.1298 28.4058L30.4415 25.0361L24.8708 21.5178L15.1967 16.5342L12.284 15.806Z" fill="black"/>
<path fill-rule="evenodd" clip-rule="evenodd" d="M10.76 17.8574C11.5881 17.2958 17.6737 20.0068 24.0414 23.8464C30.3922 27.697 36.4607 32.0482 35.9129 32.8625L35.7327 33.1459L35.65 33.2111C35.6678 33.1984 35.7591 33.0868 35.6411 32.7849C35.3705 31.8945 31.0659 28.4595 23.9233 24.1469C16.9604 19.9949 11.1574 17.4925 10.5771 18.2078L10.76 17.8574H10.7599L10.76 17.8574ZM37.2245 30.9001C37.7481 29.8658 32.1035 25.6136 25.1052 21.4735C17.9459 17.4158 12.7861 15.0274 11.8436 15.7396L11.6342 16.1208C11.6324 16.1417 11.6418 16.0948 11.6861 16.0606C11.8574 15.9111 12.1415 15.9212 12.2697 15.9189C13.8925 15.9432 18.5275 18.0762 25.0305 21.8043C27.88 23.4638 37.0676 29.3563 37.0325 31.0134C37.035 31.1558 37.0443 31.1851 36.9908 31.2556L37.2245 30.9002V30.8999L37.2245 30.9001Z" fill="#FFFF00"/>
<path fill-rule="evenodd" clip-rule="evenodd" d="M16.1599 16.7795C18.4645 17.7957 21.5457 19.408 25.1257 21.4371L25.1264 21.4375C28.6265 23.5081 31.7888 25.6071 34.0111 27.3183C35.1219 28.1737 35.9993 28.9333 36.5666 29.5446C36.85 29.85 37.0577 30.1203 37.1781 30.3484C37.2971 30.5737 37.3369 30.7696 37.2624 30.9182C37.2615 30.92 37.2605 30.9217 37.2594 30.9234L37.0509 31.2405C37.0438 31.2537 37.0349 31.2669 37.0241 31.2812C37.0104 31.2992 36.9848 31.3032 36.9663 31.2901C36.9478 31.277 36.9431 31.2516 36.9555 31.2327L36.9786 31.1976C36.9858 31.1835 36.989 31.1712 36.9908 31.1566C36.9934 31.135 36.9927 31.1096 36.9916 31.0693C36.9912 31.0535 36.9907 31.0354 36.9904 31.0142L36.9904 31.0126C36.9924 30.9184 36.9615 30.8052 36.897 30.6737C36.8326 30.5427 36.7362 30.3961 36.6106 30.236C36.3593 29.9158 35.9941 29.5451 35.5444 29.1401C34.6453 28.3303 33.4126 27.3876 32.0887 26.4441C29.4412 24.5573 26.4331 22.6701 25.0094 21.8408C21.7585 19.9772 18.9752 18.5125 16.8023 17.511C15.7158 17.0101 14.7824 16.6254 14.0199 16.3644C13.2568 16.1031 12.6683 15.9672 12.2696 15.961C12.2591 15.9612 12.2478 15.9613 12.2358 15.9614C12.1721 15.9621 12.0882 15.9629 12.0002 15.9762C11.8951 15.9922 11.7905 16.0253 11.7135 16.0924C11.7129 16.093 11.7122 16.0935 11.7116 16.094C11.6956 16.1064 11.6854 16.1214 11.6791 16.1324C11.6776 16.1351 11.6763 16.1376 11.675 16.1399C11.675 16.14 11.6749 16.1402 11.6748 16.1403C11.6739 16.142 11.672 16.1456 11.6701 16.1484C11.6695 16.1494 11.6682 16.1512 11.6665 16.1533C11.6653 16.1546 11.661 16.1596 11.6537 16.1634C11.6445 16.1681 11.626 16.1725 11.6089 16.1597C11.597 16.1508 11.5939 16.1389 11.5933 16.1364L11.5932 16.1364C11.5916 16.13 11.5918 16.1243 11.5918 16.1232C11.5918 16.1231 11.5918 16.1231 11.5918 16.123C11.5919 16.1209 11.592 16.1189 11.5922 16.1173C11.5927 16.1115 11.5944 16.1058 11.5972 16.1007L11.8066 15.7195C11.8094 15.7143 11.8134 15.7098 11.8181 15.7062C11.9472 15.6087 12.1425 15.568 12.3911 15.5732C12.6409 15.5784 12.9512 15.6299 13.3168 15.7239C14.0483 15.9119 15.0078 16.2716 16.1599 16.7795ZM37.0752 31.0506L37.1873 30.8802C37.1876 30.8796 37.1879 30.8791 37.1882 30.8785C37.2421 30.7686 37.2195 30.6067 37.1038 30.3876C36.9884 30.1691 36.7864 29.9051 36.5049 29.6018C35.9424 28.9955 35.0694 28.2393 33.9598 27.3849C31.7411 25.6765 28.582 23.5794 25.0839 21.51C21.5049 19.4815 18.4267 17.8709 16.126 16.8564C14.9754 16.3491 14.0208 15.9916 13.2959 15.8053C12.9334 15.7121 12.6301 15.6622 12.3893 15.6572C12.1527 15.6523 11.9828 15.691 11.8758 15.7681L11.7731 15.955C11.8424 15.9223 11.9172 15.9038 11.9876 15.8932C12.082 15.8788 12.1728 15.878 12.2363 15.8774C12.2481 15.8773 12.259 15.8772 12.2687 15.877L12.2701 15.877L12.2701 15.877C12.6828 15.8832 13.282 16.0229 14.0471 16.2848C14.8133 16.5471 15.7495 16.9331 16.8375 17.4346C19.0135 18.4377 21.7991 19.9036 25.0513 21.768L25.0515 21.7681C26.4773 22.5985 29.4876 24.4872 32.1374 26.3757C33.4623 27.3199 34.698 28.2647 35.6007 29.0777C36.0519 29.484 36.4211 29.8585 36.6767 30.1842C36.8045 30.347 36.9046 30.4986 36.9724 30.6367C37.0398 30.7741 37.0766 30.9009 37.0744 31.0136C37.0746 31.0266 37.0749 31.0389 37.0752 31.0506ZM10.739 17.821C10.7311 17.8254 10.7248 17.8324 10.7211 17.8409L10.5397 18.1885C10.5297 18.2076 10.5359 18.2312 10.5539 18.2431C10.5719 18.2549 10.596 18.2512 10.6096 18.2344C10.6384 18.1989 10.6859 18.1704 10.7566 18.1518C10.8273 18.1333 10.9184 18.1255 11.0299 18.1295C11.2531 18.1374 11.551 18.1918 11.9169 18.2909C12.6484 18.4889 13.6435 18.8635 14.8396 19.3907C17.2312 20.445 20.4211 22.1077 23.9015 24.1831C27.4718 26.3388 30.3324 28.2749 32.3338 29.7829C33.3345 30.537 34.1199 31.1837 34.6717 31.6969C34.9476 31.9536 35.1645 32.1764 35.3206 32.3621C35.4776 32.5491 35.5696 32.6946 35.6008 32.7972C35.6009 32.7975 35.601 32.7978 35.6011 32.7982C35.6013 32.7989 35.6015 32.7996 35.6018 32.8003C35.7081 33.0724 35.6334 33.1667 35.6259 33.1763C35.6255 33.1768 35.6253 33.1771 35.6253 33.1771L35.6239 33.1782C35.6059 33.1923 35.6026 33.2182 35.6163 33.2364C35.63 33.2547 35.6558 33.2587 35.6743 33.2454C35.6756 33.2445 35.677 33.2434 35.6783 33.2423L35.7586 33.179C35.7623 33.1761 35.7655 33.1725 35.768 33.1686L35.9476 32.8861C35.9477 32.8859 35.9478 32.8857 35.9479 32.8856C35.99 32.8226 35.998 32.7456 35.9806 32.661C35.9633 32.5767 35.9204 32.4816 35.8562 32.3773C35.7276 32.1685 35.5078 31.9139 35.2115 31.6219C34.6183 31.0372 33.7108 30.2953 32.5891 29.4595C30.3452 27.7876 27.2392 25.7364 24.063 23.8106L24.0629 23.8106C20.8779 21.8901 17.7631 20.2516 15.3404 19.1633C14.1292 18.6192 13.09 18.2122 12.301 17.9762C11.9066 17.8583 11.5734 17.7827 11.3116 17.7544C11.1808 17.7403 11.0666 17.7378 10.9709 17.7483C10.8771 17.7586 10.7983 17.7817 10.739 17.821ZM35.7422 33.0525L35.8773 32.8401L35.8779 32.8392C35.9039 32.8004 35.9127 32.7482 35.8983 32.6779C35.8838 32.6071 35.8463 32.5215 35.7846 32.4214C35.6614 32.2213 35.4473 31.9723 35.1525 31.6817C34.5635 31.1012 33.6596 30.362 32.5389 29.5269C30.2978 27.8571 27.1942 25.8074 24.0195 23.8826C20.8369 21.9635 17.725 20.3266 15.306 19.24C14.0963 18.6965 13.0609 18.2912 12.2769 18.0567C11.8848 17.9395 11.5571 17.8655 11.3026 17.838C11.1754 17.8242 11.0677 17.8223 10.9801 17.8319C10.8976 17.8409 10.8356 17.86 10.7919 17.8869L10.6885 18.085C10.7035 18.0796 10.7191 18.0748 10.7353 18.0705C10.8167 18.0492 10.9167 18.0414 11.0329 18.0455C11.2654 18.0537 11.5704 18.11 11.9389 18.2097C12.6763 18.4094 13.6759 18.7859 14.8735 19.3138C17.2691 20.3699 20.4622 22.0344 23.9447 24.111L23.9449 24.1111C27.5171 26.2679 30.3801 28.2056 32.3843 29.7158C33.3864 30.4708 34.1743 31.1194 34.7289 31.6354C35.0062 31.8934 35.2258 32.1187 35.3849 32.3081C35.5423 32.4954 35.6438 32.6514 35.6807 32.7712C35.7265 32.8888 35.7423 32.9813 35.7422 33.0525Z" fill="black"/>
<path d="M15.4451 25.5897C15.4451 27.9761 16.4223 30.1345 18.0055 31.7119C19.5917 33.2926 21.7473 34.2901 24.1375 34.2901C26.54 34.2901 28.7204 33.3144 30.2998 31.7397C31.8793 30.1653 32.8581 27.9921 32.8586 25.5973H32.8583V13.983L15.4431 13.9623L15.4449 25.5897H15.4452L15.4451 25.5897Z" fill="white"/>
<path fill-rule="evenodd" clip-rule="evenodd" d="M15.3936 13.9131L32.9071 13.9339V25.5482H32.9074L32.9074 25.5974C32.9069 28.0058 31.9225 30.1913 30.3342 31.7746C28.7459 33.358 26.5532 34.3393 24.1371 34.3393C21.7328 34.3393 19.5651 33.3359 17.9704 31.7467C16.3894 30.1714 15.4091 28.0196 15.3958 25.6389H15.3954L15.3936 13.9131ZM15.4536 25.5897L15.4937 25.5897L15.4919 14.0115L32.8088 14.0321V25.6465H32.8089C32.7952 28.0082 31.8246 30.15 30.2648 31.7049C28.6941 33.2708 26.5261 34.241 24.1371 34.241C21.761 34.241 19.6176 33.2494 18.0398 31.6771C16.4654 30.1084 15.4939 27.9624 15.4939 25.5897L15.4536 25.5897Z" fill="black"/>
<path d="M15.7705 25.6061V25.6127C15.7705 27.8944 16.7153 29.9722 18.2309 31.4806C19.7495 32.992 21.8409 33.9317 24.1289 33.9317C26.4288 33.9317 28.516 32.9989 30.0282 31.4933C31.54 29.9877 32.4771 27.9098 32.4773 25.6201H32.4771V14.3523L15.7805 14.3496L15.7703 25.606L15.7705 25.6061ZM29.1202 17.7231L29.1208 24.8938L29.1147 25.6523H29.1148C29.1148 25.8519 29.1028 26.0794 29.0795 26.2732C28.9438 27.4068 28.4224 28.395 27.6502 29.1637C26.7462 30.0636 25.4985 30.6217 24.1233 30.6217C22.7554 30.6217 21.5363 30.0442 20.6284 29.1404C19.6971 28.2135 19.1574 26.9425 19.1574 25.6282L19.1554 17.7048L29.12 17.7228L29.1203 17.7231L29.1202 17.7231Z" fill="#FF0000"/>
<path fill-rule="evenodd" clip-rule="evenodd" d="M15.7429 14.3124L32.5139 14.3151V25.5829H32.5142L32.5142 25.6201C32.5139 27.9201 31.5725 30.0074 30.054 31.5196C28.5352 33.0319 26.4387 33.9689 24.1285 33.9689C21.8302 33.9689 19.7294 33.025 18.2042 31.507C16.6868 29.9967 15.7389 27.9179 15.733 25.6341L15.7327 25.634L15.7429 14.3124ZM32.4397 25.6573H32.4395V14.3895L15.8173 14.3868L15.8071 25.5779L15.8074 25.578V25.6127C15.8074 27.8839 16.7477 29.9524 18.2567 31.4543C19.7687 32.9591 21.8509 33.8945 24.1285 33.8945C26.4182 33.8945 28.4961 32.9658 30.0015 31.4669C31.4985 29.9762 32.4293 27.9219 32.4397 25.6573ZM19.1178 17.6675L29.1349 17.6856L29.1929 17.7431L29.157 17.7521L29.1576 24.8938L29.1576 24.8941L29.1517 25.6362V25.6523C29.1517 25.8531 29.1396 26.0822 29.1161 26.2776C28.9793 27.4202 28.4538 28.4159 27.6761 29.19C26.7654 30.0966 25.5084 30.6589 24.123 30.6589C22.7441 30.6589 21.5158 30.0767 20.6018 29.1668C19.6636 28.233 19.1198 26.9526 19.1198 25.6282L19.1178 17.6675ZM29.0771 25.6895H29.0768L29.0832 24.8938L29.0832 24.8935L29.0826 17.7599L19.1922 17.7421L19.1942 25.6282C19.1942 26.9323 19.7298 28.1939 20.6543 29.114C21.556 30.0117 22.7659 30.5845 24.123 30.5845C25.4878 30.5845 26.7263 30.0306 27.6236 29.1373C28.3904 28.3741 28.9076 27.3934 29.0422 26.2687C29.0638 26.0886 29.0757 25.8785 29.0771 25.6895Z" fill="black"/>
<path d="M16.8525 17.2913C16.8723 16.4815 17.4469 16.2899 17.451 16.287C17.4551 16.2843 18.0716 16.4935 18.0695 17.2988L16.8525 17.2913" fill="#FFFF00"/>
<path d="M16.3566 16.303L16.2566 17.2336L16.8639 17.2349C16.8697 16.465 17.4467 16.3369 17.4607 16.3398C17.4738 16.3391 18.0457 16.51 18.061 17.2349H18.6698L18.5599 16.2972L16.3566 16.3028V16.3031L16.3566 16.303Z" fill="#FFFF00"/>
<path fill-rule="evenodd" clip-rule="evenodd" d="M16.3229 16.2661L16.3192 16.2661V16.3005L16.215 17.2701L16.8995 17.2716L16.8998 17.2351C16.9026 16.8606 17.0438 16.6461 17.1825 16.5251C17.2525 16.4642 17.3226 16.4263 17.3758 16.4039C17.4024 16.3927 17.4246 16.3854 17.4403 16.3811C17.4481 16.379 17.4541 16.3776 17.458 16.3768C17.4579 16.3768 17.458 16.3768 17.458 16.3768C17.4581 16.3769 17.4585 16.3769 17.4587 16.377C17.4627 16.3781 17.4687 16.38 17.4765 16.3828C17.4922 16.3883 17.5144 16.3973 17.541 16.4103C17.5941 16.4363 17.6643 16.4784 17.7346 16.5423C17.8743 16.6694 18.0161 16.8841 18.0235 17.2356L18.0243 17.2715H18.7103L18.5917 16.2604L16.3716 16.266L16.328 16.2188L16.3229 16.2661ZM16.3836 16.3872L16.2966 17.1969L16.8271 17.1981C16.8388 16.8246 16.9845 16.6005 17.1344 16.4699C17.2106 16.4034 17.2871 16.3618 17.346 16.3369L16.3925 16.3393V16.3968L16.3836 16.3872ZM17.5563 16.3364C17.5617 16.3389 17.5674 16.3415 17.5732 16.3444C17.6314 16.3729 17.7076 16.4187 17.7839 16.488C17.9323 16.623 18.0792 16.8457 18.0956 17.1982H18.6278L18.5265 16.3339L17.5563 16.3364Z" fill="black"/>
<path d="M16.2159 17.2368H18.7013C18.7537 17.2368 18.7965 17.2886 18.7965 17.3518C18.7965 17.4149 18.7537 17.4664 18.7013 17.4664H16.2159C16.1635 17.4664 16.1207 17.4149 16.1207 17.3518C16.1207 17.2886 16.1635 17.2368 16.2159 17.2368Z" fill="#FFFF00"/>
<path fill-rule="evenodd" clip-rule="evenodd" d="M16.2155 17.2735C16.1895 17.2735 16.157 17.3021 16.157 17.3519C16.157 17.4014 16.1894 17.4298 16.2155 17.4298H18.7009C18.727 17.4298 18.7594 17.4014 18.7594 17.3519C18.7594 17.3021 18.7268 17.2735 18.7009 17.2735H16.2155ZM16.0836 17.3519C16.0836 17.2751 16.1367 17.2002 16.2155 17.2002H18.7009C18.7797 17.2002 18.8328 17.2751 18.8328 17.3519C18.8328 17.4286 18.7796 17.5031 18.7009 17.5031H16.2155C16.1368 17.5031 16.0836 17.4286 16.0836 17.3519Z" fill="black"/>
<path d="M17.1187 17.233C17.1214 16.7471 17.4504 16.6096 17.4521 16.6099C17.4522 16.6099 17.7956 16.7516 17.7984 17.233H17.1187" fill="#FFFF00"/>
<path fill-rule="evenodd" clip-rule="evenodd" d="M17.4521 16.6504C17.4605 16.6547 17.4722 16.6612 17.4862 16.6703C17.5162 16.6897 17.5567 16.7204 17.5972 16.7654C17.6735 16.85 17.7516 16.9863 17.761 17.1962H17.1564C17.1653 16.9836 17.2405 16.8471 17.3136 16.7631C17.3525 16.7185 17.3912 16.6883 17.42 16.6694C17.4331 16.6607 17.4442 16.6545 17.4521 16.6504ZM17.1189 17.2329L17.0822 17.2327C17.0836 16.9806 17.17 16.8164 17.2583 16.715C17.3023 16.6645 17.3463 16.6301 17.3797 16.6081C17.3965 16.5971 17.4106 16.5892 17.4209 16.5839C17.4261 16.5813 17.4303 16.5793 17.4334 16.5779C17.435 16.5772 17.4364 16.5766 17.4377 16.5761C17.4382 16.5759 17.439 16.5756 17.4399 16.5753C17.4403 16.5751 17.4412 16.5748 17.4423 16.5745C17.4428 16.5744 17.4439 16.5741 17.4453 16.5738C17.4461 16.5737 17.4479 16.5734 17.4489 16.5733C17.4496 16.5732 17.4509 16.5732 17.4523 16.5733C17.4528 16.5733 17.4534 16.5732 17.4539 16.5733C17.4553 16.5734 17.4568 16.5734 17.458 16.5736L17.4579 16.5739C17.4618 16.5746 17.4649 16.5754 17.4653 16.5755L17.4658 16.5757L17.4662 16.5759L17.4667 16.5761L17.4679 16.5766C17.4688 16.577 17.47 16.5775 17.4715 16.5782C17.4745 16.5795 17.4786 16.5815 17.4838 16.5842C17.4942 16.5895 17.5087 16.5975 17.526 16.6087C17.5604 16.6309 17.6061 16.6657 17.6517 16.7163C17.7435 16.8181 17.8338 16.9824 17.8352 17.2327L17.8354 17.2695H17.1189V17.2329Z" fill="black"/>
<path d="M16.268 15.9155H18.6506C18.7007 15.9155 18.7419 15.9622 18.7419 16.0189C18.7419 16.0757 18.7007 16.1222 18.6506 16.1222H16.268C16.2178 16.1222 16.1766 16.0759 16.1766 16.0189C16.1766 15.9622 16.2178 15.9155 16.268 15.9155Z" fill="#FFFF00"/>
<path fill-rule="evenodd" clip-rule="evenodd" d="M16.2677 15.9522C16.242 15.9522 16.2131 15.9781 16.2131 16.0189C16.2131 16.06 16.2419 16.0856 16.2677 16.0856H18.6503C18.6761 16.0856 18.705 16.0598 18.705 16.0189C18.705 15.9781 18.6761 15.9522 18.6503 15.9522H16.2677ZM16.1397 16.0189C16.1397 15.9464 16.1931 15.8789 16.2677 15.8789H18.6503C18.7249 15.8789 18.7783 15.9464 18.7783 16.0189C18.7783 16.0915 18.7249 16.1589 18.6503 16.1589H16.2677C16.1932 16.1589 16.1397 16.0919 16.1397 16.0189Z" fill="black"/>
<path d="M16.318 16.1235H18.5969C18.6449 16.1235 18.6842 16.17 18.6842 16.2268C18.6842 16.2837 18.6449 16.3301 18.5969 16.3301H16.318C16.27 16.3301 16.2307 16.2837 16.2307 16.2268C16.2307 16.17 16.27 16.1235 16.318 16.1235Z" fill="#FFFF00"/>
<path fill-rule="evenodd" clip-rule="evenodd" d="M16.3189 16.1611C16.2967 16.1611 16.2683 16.1851 16.2683 16.2276C16.2683 16.2703 16.2967 16.2943 16.3189 16.2943H18.5978C18.62 16.2943 18.6485 16.2703 18.6485 16.2276C18.6485 16.1851 18.6201 16.1611 18.5978 16.1611H16.3189ZM16.1949 16.2276C16.1949 16.1566 16.2452 16.0878 16.3189 16.0878H18.5978C18.6716 16.0878 18.7218 16.1566 18.7218 16.2276C18.7218 16.2988 18.6716 16.3676 18.5978 16.3676H16.3189C16.2452 16.3676 16.1949 16.2988 16.1949 16.2276Z" fill="black"/>
<path d="M17.0543 14.5704L17.2342 14.5707V14.6985H17.3655V14.5679L17.5498 14.5685V14.6986H17.6815V14.5679H17.8659L17.8656 14.863C17.8656 14.9093 17.8284 14.9393 17.7852 14.9393H17.1382C17.0947 14.9393 17.0546 14.9045 17.0545 14.8621L17.0541 14.5705H17.0542L17.0543 14.5704Z" fill="#FFFF00"/>
<path fill-rule="evenodd" clip-rule="evenodd" d="M17.3292 14.5312L17.5869 14.5321V14.6621H17.6452V14.5314H17.903L17.9027 14.8632C17.9027 14.8632 17.9027 14.8631 17.9027 14.8632M17.3292 14.5312V14.568ZM17.4026 14.6048V14.7353H17.198V14.6075L17.0912 14.6073L17.0916 14.8621C17.0916 14.8622 17.0916 14.8621 17.0916 14.8621C17.0917 14.8811 17.1119 14.9028 17.1386 14.9028H17.7856C17.8121 14.9028 17.8294 14.8858 17.8294 14.8632L17.8296 14.6048H17.7186V14.7354H17.5136V14.6052L17.4026 14.6048ZM17.0387 14.534L17.0388 14.5339L17.2713 14.5343V14.662H17.3292V14.568" fill="black"/>
<path d="M17.7312 14.9652L17.7719 15.9114L17.1408 15.9091L17.1826 14.9628L17.7312 14.9652" fill="#FFFF00"/>
<path fill-rule="evenodd" clip-rule="evenodd" d="M17.1482 14.9261L17.7321 14.9288L17.7319 14.9654L17.7686 14.9639L17.8108 15.9484L17.1031 15.9458L17.1482 14.9261ZM17.6968 15.0019L17.2183 14.9998L17.1798 15.8728L17.7343 15.8748L17.6968 15.0019Z" fill="black"/>
<path d="M16.9617 15.4037L16.9809 15.9137L16.3759 15.914L16.3929 15.4037H16.9618H16.9617L16.9617 15.4037Z" fill="#FFFF00"/>
<path fill-rule="evenodd" clip-rule="evenodd" d="M16.3576 15.3671H16.9617L16.9619 15.3962L16.9984 15.4023L17.0191 15.9504L16.338 15.9507L16.3576 15.3671ZM16.9264 15.4404H16.4285L16.4139 15.8773L16.9429 15.8771L16.9264 15.4404Z" fill="black"/>
<path d="M16.2816 15.0342L16.4575 15.0346V15.1625H16.5862V15.0316L16.7665 15.0322V15.1626H16.8955V15.0317L17.0759 15.032L17.0756 15.327C17.0756 15.3731 17.0392 15.4031 16.997 15.4031H16.3638C16.3214 15.4031 16.2819 15.3686 16.2818 15.326L16.2814 15.0343H16.2815L16.2816 15.0342Z" fill="#FFFF00"/>
<path fill-rule="evenodd" clip-rule="evenodd" d="M16.5494 14.995L16.803 14.9958V15.1261H16.8587V14.9951L17.1125 14.9955L17.1121 15.3272C17.1121 15.3272 17.1121 15.3272 17.1121 15.3272M16.5494 14.995V15.0318ZM16.6227 15.0686V15.1994H16.4207V15.0713L16.318 15.0711L16.3183 15.3261C16.3183 15.3261 16.3183 15.326 16.3183 15.3261C16.3184 15.3457 16.3386 15.3666 16.3637 15.3666H16.9968C17.0216 15.3666 17.0388 15.3502 17.0388 15.3272L17.0391 15.0688L16.932 15.0686V15.1994H16.7297V15.0689L16.6227 15.0686ZM16.2601 14.9978L16.2602 14.9976L16.494 14.9982V15.126H16.5494V15.0318" fill="black"/>
<path d="M17.3968 15.2642C17.3929 15.1722 17.5253 15.1712 17.5238 15.2642V15.4895H17.3968V15.2643" fill="black"/>
<path d="M16.6146 15.5917C16.6142 15.5029 16.7373 15.5011 16.7358 15.5917V15.7659H16.6147V15.5918" fill="black"/>
<path d="M23.0766 24.3281V24.3289C23.0766 24.6533 23.2011 24.9489 23.401 25.1633C23.6012 25.3784 23.877 25.5121 24.1786 25.5121C24.4818 25.5121 24.757 25.3793 24.9564 25.1651C25.1556 24.9512 25.2793 24.6559 25.2793 24.3301V22.7508L23.0805 22.749L23.0765 24.3281" fill="#003399"/>
<path d="M23.5809 23.5672C23.7012 23.5672 23.7988 23.4697 23.7988 23.3493C23.7988 23.2289 23.7012 23.1313 23.5809 23.1313C23.4605 23.1313 23.3629 23.2289 23.3629 23.3493C23.3629 23.4697 23.4605 23.5672 23.5809 23.5672Z" fill="white"/>
<path d="M24.801 23.5687C24.9213 23.5687 25.0189 23.4711 25.0189 23.3508C25.0189 23.2304 24.9213 23.1328 24.801 23.1328C24.6806 23.1328 24.583 23.2304 24.583 23.3508C24.583 23.4711 24.6806 23.5687 24.801 23.5687Z" fill="white"/>
<path d="M24.1896 24.154C24.31 24.154 24.4076 24.0565 24.4076 23.9361C24.4076 23.8157 24.31 23.7181 24.1896 23.7181C24.0693 23.7181 23.9717 23.8157 23.9717 23.9361C23.9717 24.0565 24.0693 24.154 24.1896 24.154Z" fill="white"/>
<path d="M23.5809 24.7678C23.7012 24.7678 23.7988 24.6702 23.7988 24.5499C23.7988 24.4295 23.7012 24.3319 23.5809 24.3319C23.4605 24.3319 23.3629 24.4295 23.3629 24.5499C23.3629 24.6702 23.4605 24.7678 23.5809 24.7678Z" fill="white"/>
<path d="M24.7996 24.7655C24.92 24.7655 25.0176 24.6679 25.0176 24.5475C25.0176 24.4272 24.92 24.3296 24.7996 24.3296C24.6792 24.3296 24.5817 24.4272 24.5817 24.5475C24.5817 24.6679 24.6792 24.7655 24.7996 24.7655Z" fill="white"/>
</g>
</svg>
