<svg width="32" height="32" viewBox="0 0 32 32" fill="none" xmlns="http://www.w3.org/2000/svg">
<path d="M7.85181 18.1085H8.99255C9.6444 18.1085 10.0518 18.1912 10.3777 18.2739C10.6222 18.3566 10.8666 18.6046 11.0296 18.8527C11.1925 19.1008 11.274 19.4315 11.274 19.7623C11.274 20.1757 11.1925 20.5065 10.9481 20.7545C10.7037 21.0026 10.4592 21.168 10.1333 21.3333C9.88884 21.416 9.56292 21.416 8.99255 21.416V23.8966H7.85181V18.1085ZM8.99255 20.3411H9.31847C9.56292 20.3411 9.80736 20.3411 9.88884 20.2584C9.97033 20.2584 10.0518 20.1757 10.1333 20.093C10.2148 20.0103 10.2148 19.9276 10.2148 19.7623C10.2148 19.5142 10.1333 19.3488 9.97033 19.2661C9.80736 19.1835 9.6444 19.1835 9.31847 19.1835H8.99255V20.3411Z" fill="#F6921E"/>
<path d="M11.926 18.1085H12.9852V22.8217H14.5334V23.8966H11.8445V18.1085H11.926Z" fill="#F6921E"/>
<path d="M17.4666 18.1085H18.6073L20.8073 23.8966H19.6666L19.2592 22.739H16.8962L16.4073 23.8966H15.2666L17.4666 18.1085ZM18.037 19.5969L17.3036 21.5814H18.8518L18.037 19.5969Z" fill="#F6921E"/>
<path d="M19.9113 18.1085H21.052L22.1113 20.1757L23.1705 18.1085H24.3113L22.6816 21.416V23.8966H21.6224V21.416L19.9113 18.1085Z" fill="#F6921E"/>
<path d="M17.3851 12.4031C13.9628 12.6512 15.511 17.1163 19.2591 16.8682C23.0073 16.7028 21.0517 12.2377 17.3851 12.4031Z" fill="#F6921E"/>
<path d="M16 9.67444C9.97037 9.67444 5 14.6357 5 20.8372C5 26.9561 9.88889 32 16 32C22.0296 32 27 27.0388 27 20.8372C27 14.6357 22.0296 9.67444 16 9.67444ZM16 30.7597C10.5407 30.7597 6.14074 26.2946 6.14074 20.7545C6.14074 15.2145 10.5407 10.7494 16 10.7494C21.4593 10.7494 25.8593 15.2145 25.8593 20.7545C25.7778 26.2946 21.3778 30.7597 16 30.7597Z" fill="#F6921E"/>
<path d="M15.674 1.90181C13.0666 3.88631 13.5555 6.94574 13.5555 6.94574C13.5555 6.94574 11.9259 2.646 9.80735 0C9.48143 3.39018 10.4592 7.8553 10.4592 7.8553C10.4592 7.8553 9.1555 5.04393 5.89624 4.87855C8.58513 6.44961 9.64439 9.34367 9.88883 10.0879C11.437 9.09561 13.3111 8.5168 15.2666 8.43411C15.0222 7.77261 14.2888 4.79587 15.674 1.90181Z" fill="#F6921E"/>
</svg>
