<svg width="32" height="32" viewBox="0 0 32 32" fill="none" xmlns="http://www.w3.org/2000/svg">
<path d="M15.9549 0C7.21127 0 0 7.14124 0 16C0 17.6271 0.270422 19.1638 0.721127 20.7006C0.991549 20.2486 1.26197 19.887 1.62253 19.435C2.70423 17.8079 3.87606 16.1808 4.86761 14.4633L5.67887 13.1977C5.9493 12.7458 6.12958 12.3842 6.4 11.9322C6.94085 11.1186 7.39155 10.2147 7.93239 9.40113C8.20282 8.94915 8.3831 8.49717 8.65352 8.13559C8.92394 7.68362 9.10423 7.23164 9.37465 6.87006C9.55493 6.41808 9.82535 5.9661 10.0056 5.60452L10.6366 4.24859L10.7268 4.15819C11.0873 3.43503 11.9887 3.16384 12.6197 3.52542C13.1606 3.79661 13.431 4.42938 13.431 4.97175C13.431 5.69491 13.2507 6.50847 13.2507 7.32203C13.1606 7.9548 13.1606 8.76836 13.0704 9.58192C12.9803 11.1186 12.9803 12.7458 12.9803 14.2825C12.9803 15.8192 13.0704 17.3559 13.2507 18.8927C13.3408 19.6158 13.431 20.4294 13.6113 21.0621C13.7915 21.7853 13.9718 22.4181 14.2423 22.9605C14.3324 23.2316 14.5127 23.4124 14.6028 23.5028C14.693 23.5932 14.6028 23.5028 14.693 23.5028C14.693 23.5028 14.693 23.5028 14.7831 23.5028H14.8732H14.9634L15.0535 23.4124C15.2338 23.322 15.5042 23.0508 15.6845 22.7797C16.1352 22.2373 16.5859 21.6949 16.9465 21.0621C17.3972 20.4294 17.7577 19.7966 18.1183 19.0734C18.8394 17.7175 19.5606 16.3616 20.2817 14.9153C20.6423 14.1921 20.9127 13.4689 21.2732 12.7458C21.6338 12.0226 21.9042 11.2994 22.1746 10.5763C22.4451 9.85311 23.3465 9.49152 24.0676 9.76271C24.5183 9.9435 24.8789 10.3955 24.969 10.8475C24.969 11.0282 24.969 11.2994 25.0592 11.4802L25.1493 12.113C25.2394 12.565 25.2394 13.0169 25.3296 13.4689C25.5099 14.3729 25.6901 15.1864 25.8704 16.0904C26.1408 16.9944 26.4113 17.8079 26.7718 18.6215C27.1324 19.435 27.5831 20.2486 28.1239 20.8814C28.2141 21.0621 28.2141 21.2429 28.0338 21.4237C27.8535 21.5141 27.6732 21.5141 27.5831 21.4237C26.862 20.791 26.231 20.0678 25.6901 19.2542C25.1493 18.4407 24.6986 17.6271 24.2479 16.7232C23.9775 16.1808 23.707 15.548 23.4366 15.0056C23.2563 15.3672 23.0761 15.7288 22.9859 16.0904C22.2648 17.5367 21.5437 18.983 20.7324 20.4294C20.3718 21.1525 19.9211 21.8757 19.4704 22.5085C19.0197 23.2316 18.569 23.8644 17.938 24.5876C17.6676 24.9492 17.307 25.3107 16.8563 25.5819C16.7662 25.6723 16.5859 25.7627 16.4958 25.8531C16.4056 25.9435 16.3155 25.9435 16.2254 26.0339L16.0451 26.1243H15.9549H15.8648H15.7746C15.6845 26.1243 15.5944 26.2147 15.5042 26.2147C15.3239 26.2147 15.1437 26.3051 14.9634 26.3051C14.6028 26.3051 14.1521 26.3051 13.7915 26.1243C13.431 26.0339 13.0704 25.7627 12.8 25.5819C12.2592 25.1299 11.9887 24.678 11.7183 24.226C11.2676 23.322 10.9972 22.4181 10.8169 21.6045C10.6366 20.791 10.5465 19.9774 10.4563 19.0734C10.2761 17.4463 10.1859 15.8192 10.1859 14.1921C10.1859 13.3785 10.1859 12.6554 10.1859 11.8418C9.91549 12.3842 9.64507 12.9266 9.28451 13.4689C9.01408 13.9209 8.8338 14.3729 8.56338 14.8249L7.84225 16.1808C6.8507 17.9887 5.76901 19.7062 4.77746 21.4237C4.05634 22.5085 3.42535 23.6836 2.70423 24.7684C5.58873 29.1073 10.4563 32 16.0451 32C24.8789 32 32 24.8588 32 16C31.9099 7.14124 24.7887 0 15.9549 0Z" fill="url(#paint0_linear_1_4450)"/>
<defs>
<linearGradient id="paint0_linear_1_4450" x1="23.9536" y1="2.15557" x2="7.94082" y2="29.8123" gradientUnits="userSpaceOnUse">
<stop stop-color="#0099D8"/>
<stop offset="1" stop-color="#4AAF65"/>
</linearGradient>
</defs>
</svg>
