<svg width="17" height="17" viewBox="0 0 17 17" fill="none" xmlns="http://www.w3.org/2000/svg">
<g clip-path="url(#clip0)">
<path d="M8.18677 1.31152C4.07396 1.31152 0.726318 4.62728 0.726318 8.7401C0.726318 12.8529 4.07396 16.1687 8.18677 16.1687C12.2996 16.1687 15.6153 12.8529 15.6153 8.7401C15.6153 4.62728 12.2677 1.31152 8.18677 1.31152ZM12.7141 5.80693L7.54913 13.1398L3.53196 9.44151C3.18125 9.12268 3.18125 8.58068 3.50008 8.22998C3.8189 7.87927 4.3609 7.87927 4.7116 8.1981L7.29407 10.5893L11.3112 4.81857C11.5663 4.43599 12.1083 4.30846 12.4909 4.56352C12.8735 4.81857 13.001 5.36057 12.7459 5.74316C12.7141 5.77504 12.7141 5.77504 12.7141 5.80693Z" fill="#2D8C44"/>
</g>
<defs>
<clipPath id="clip0">
<rect width="16" height="16" fill="white" transform="translate(0.170898 0.740234)"/>
</clipPath>
</defs>
</svg>
