<svg xmlns="http://www.w3.org/2000/svg" width="26" height="24" fill="none" viewBox="0 0 26 24">
    <path fill="#fff" d="M15.987 12l9.298-8.974c.256-.247.397-.577.397-.928 0-.352-.14-.682-.397-.929L24.47.383C24.214.136 23.873 0 23.508 0c-.364 0-.705.136-.961.383l-9.298 8.974L3.95.383C3.695.136 3.353 0 2.989 0s-.706.136-.961.383l-.816.786c-.53.512-.53 1.345 0 1.857L10.51 12l-9.298 8.974c-.256.247-.397.577-.397.928 0 .352.141.681.397.929l.815.786c.256.247.598.383.962.383s.706-.136.961-.383l9.299-8.974 9.297 8.974c.256.247.598.383.962.383s.706-.136.962-.383l.815-.786c.256-.247.397-.577.397-.929 0-.351-.141-.68-.397-.928L15.987 12z"/>
</svg>
