<svg xmlns="http://www.w3.org/2000/svg" width="49" height="48" fill="none" viewBox="0 0 49 48">
    <path fill="#1A2332" d="M29.61 24L47.556 6.678c.494-.477.767-1.113.767-1.791 0-.68-.272-1.316-.767-1.792l-1.572-1.518c-.495-.478-1.154-.74-1.857-.74-.703 0-1.362.262-1.856.74L24.324 18.898 6.377 1.578c-.494-.479-1.153-.74-1.857-.74-.702 0-1.362.261-1.855.74L1.09 3.094c-1.024.988-1.024 2.596 0 3.583L19.038 24 1.091 41.321c-.494.478-.766 1.114-.766 1.793 0 .678.272 1.314.766 1.791l1.573 1.518c.494.477 1.154.74 1.856.74.703 0 1.363-.263 1.856-.74L24.324 29.1 42.27 46.423c.495.477 1.154.74 1.856.74.704 0 1.363-.263 1.857-.74l1.573-1.518c.494-.477.766-1.113.766-1.791 0-.679-.272-1.315-.766-1.792L29.61 24z"/>
</svg>
