<svg width="120" height="120" viewBox="0 0 120 120" fill="none" xmlns="http://www.w3.org/2000/svg">
<path d="M106.904 108.741C88.5178 123.753 31.107 123.753 13.0957 108.741C-5.29073 93.7294 -3.41459 29.5543 13.0957 12.6661C29.6061 -4.22205 90.3939 -4.22205 106.904 12.6661C123.415 29.5543 125.291 93.7297 106.904 108.741Z" fill="#C9334E"/>
<path opacity="0.2" fill-rule="evenodd" clip-rule="evenodd" d="M2.60437 88.0805C16.7536 85.1885 31.1187 78.5032 44.3623 68.0246C67.1924 49.7938 80.2936 24.6873 81.4237 1.8292C56.9615 -2.59921 24.4881 1.01311 13.0957 12.6661C0.986894 25.0521 -3.25036 62.8733 2.60437 88.0805Z" fill="white"/>
<path d="M83.8759 83.3759C81.7104 85.5414 78.2123 85.5414 76.0468 83.3759L60 67.3291L43.9532 83.3759C41.7877 85.5414 38.2896 85.5414 36.1241 83.3759C33.9586 81.2104 33.9586 77.7123 36.1241 75.5468L52.1709 59.5L36.1241 43.4532C33.9586 41.2877 33.9586 37.7896 36.1241 35.6241C38.2896 33.4586 41.7877 33.4586 43.9532 35.6241L60 51.6709L76.0468 35.6241C78.2123 33.4586 81.7104 33.4586 83.8759 35.6241C86.0414 37.7896 86.0414 41.2877 83.8759 43.4532L67.8291 59.5L83.8759 75.5468C85.9858 77.6568 85.9858 81.2104 83.8759 83.3759Z" fill="white"/>
</svg>
