<svg width="120" height="120" viewBox="0 0 120 120" fill="none" xmlns="http://www.w3.org/2000/svg">
<path d="M106.904 108.741C88.5178 123.753 31.107 123.753 13.0957 108.741C-5.29073 93.7294 -3.41459 29.5543 13.0957 12.6661C29.6061 -4.22205 90.3939 -4.22205 106.904 12.6661C123.415 29.5543 125.291 93.7297 106.904 108.741Z" fill="#329C69"/>
<path opacity="0.2" fill-rule="evenodd" clip-rule="evenodd" d="M2.60437 88.0805C16.7536 85.1885 31.1187 78.5032 44.3623 68.0246C67.1924 49.7938 80.2936 24.6873 81.4237 1.8292C56.9615 -2.5992 24.4881 1.01311 13.0957 12.6661C0.986895 25.0521 -3.25036 62.8733 2.60437 88.0805Z" fill="white"/>
<path d="M53.298 85.3101C51.3063 85.3101 49.3147 84.4557 48.1766 82.7472L32.2434 62.2433C29.9671 59.3955 30.5363 55.4087 33.3815 53.1304C36.2267 50.8522 40.21 51.4219 42.4862 54.2696L53.298 68.2236L77.1981 37.1831C79.4743 34.3353 83.4576 33.7657 86.3028 36.0439C89.148 38.3222 89.7171 42.309 87.4409 45.1568L58.4194 82.7472C56.9968 84.171 55.2898 85.3101 53.298 85.3101Z" fill="white"/>
</svg>
